<?xml version="1.0" encoding="utf-8" standalone="no"?>
<!DOCTYPE svg PUBLIC "-//W3C//DTD SVG 1.1//EN"
  "http://www.w3.org/Graphics/SVG/1.1/DTD/svg11.dtd">
<svg xmlns:xlink="http://www.w3.org/1999/xlink" width="1072.433125pt" height="568.259151pt" viewBox="0 0 1072.433125 568.259151" xmlns="http://www.w3.org/2000/svg" version="1.1">
 <metadata>
  <rdf:RDF xmlns:dc="http://purl.org/dc/elements/1.1/" xmlns:cc="http://creativecommons.org/ns#" xmlns:rdf="http://www.w3.org/1999/02/22-rdf-syntax-ns#">
   <cc:Work>
    <dc:type rdf:resource="http://purl.org/dc/dcmitype/StillImage"/>
    <dc:date>2025-10-08T22:17:55.030976</dc:date>
    <dc:format>image/svg+xml</dc:format>
    <dc:creator>
     <cc:Agent>
      <dc:title>Matplotlib v3.10.3, https://matplotlib.org/</dc:title>
     </cc:Agent>
    </dc:creator>
   </cc:Work>
  </rdf:RDF>
 </metadata>
 <defs>
  <style type="text/css">*{stroke-linejoin: round; stroke-linecap: butt}</style>
 </defs>
 <g id="figure_1">
  <g id="patch_1">
   <path d="M 0 568.259151 
L 1072.433125 568.259151 
L 1072.433125 0 
L 0 0 
z
" style="fill: #ffffff"/>
  </g>
  <g id="axes_1">
   <g id="patch_2">
    <path d="M 40.603125 496.064242 
L 1065.233125 496.064242 
L 1065.233125 22.318125 
L 40.603125 22.318125 
z
" style="fill: #ffffff"/>
   </g>
   <g id="matplotlib.axis_1">
    <g id="xtick_1">
     <g id="line2d_1">
      <defs>
       <path id="ma9bbdbcdf7" d="M 0 0 
L 0 3.5 
" style="stroke: #000000; stroke-width: 0.8"/>
      </defs>
      <g>
       <use xlink:href="#ma9bbdbcdf7" x="99.387652" y="496.064242" style="stroke: #000000; stroke-width: 0.8"/>
      </g>
     </g>
     <g id="text_1">
      <!-- delta -->
      <g transform="translate(80.007402 526.346838) rotate(-45) scale(0.1 -0.1)">
       <defs>
        <path id="DejaVuSans-64" d="M 2906 2969 
L 2906 4863 
L 3481 4863 
L 3481 0 
L 2906 0 
L 2906 525 
Q 2725 213 2448 61 
Q 2172 -91 1784 -91 
Q 1150 -91 751 415 
Q 353 922 353 1747 
Q 353 2572 751 3078 
Q 1150 3584 1784 3584 
Q 2172 3584 2448 3432 
Q 2725 3281 2906 2969 
z
M 947 1747 
Q 947 1113 1208 752 
Q 1469 391 1925 391 
Q 2381 391 2643 752 
Q 2906 1113 2906 1747 
Q 2906 2381 2643 2742 
Q 2381 3103 1925 3103 
Q 1469 3103 1208 2742 
Q 947 2381 947 1747 
z
" transform="scale(0.015625)"/>
        <path id="DejaVuSans-65" d="M 3597 1894 
L 3597 1613 
L 953 1613 
Q 991 1019 1311 708 
Q 1631 397 2203 397 
Q 2534 397 2845 478 
Q 3156 559 3463 722 
L 3463 178 
Q 3153 47 2828 -22 
Q 2503 -91 2169 -91 
Q 1331 -91 842 396 
Q 353 884 353 1716 
Q 353 2575 817 3079 
Q 1281 3584 2069 3584 
Q 2775 3584 3186 3129 
Q 3597 2675 3597 1894 
z
M 3022 2063 
Q 3016 2534 2758 2815 
Q 2500 3097 2075 3097 
Q 1594 3097 1305 2825 
Q 1016 2553 972 2059 
L 3022 2063 
z
" transform="scale(0.015625)"/>
        <path id="DejaVuSans-6c" d="M 603 4863 
L 1178 4863 
L 1178 0 
L 603 0 
L 603 4863 
z
" transform="scale(0.015625)"/>
        <path id="DejaVuSans-74" d="M 1172 4494 
L 1172 3500 
L 2356 3500 
L 2356 3053 
L 1172 3053 
L 1172 1153 
Q 1172 725 1289 603 
Q 1406 481 1766 481 
L 2356 481 
L 2356 0 
L 1766 0 
Q 1100 0 847 248 
Q 594 497 594 1153 
L 594 3053 
L 172 3053 
L 172 3500 
L 594 3500 
L 594 4494 
L 1172 4494 
z
" transform="scale(0.015625)"/>
        <path id="DejaVuSans-61" d="M 2194 1759 
Q 1497 1759 1228 1600 
Q 959 1441 959 1056 
Q 959 750 1161 570 
Q 1363 391 1709 391 
Q 2188 391 2477 730 
Q 2766 1069 2766 1631 
L 2766 1759 
L 2194 1759 
z
M 3341 1997 
L 3341 0 
L 2766 0 
L 2766 531 
Q 2569 213 2275 61 
Q 1981 -91 1556 -91 
Q 1019 -91 701 211 
Q 384 513 384 1019 
Q 384 1609 779 1909 
Q 1175 2209 1959 2209 
L 2766 2209 
L 2766 2266 
Q 2766 2663 2505 2880 
Q 2244 3097 1772 3097 
Q 1472 3097 1187 3025 
Q 903 2953 641 2809 
L 641 3341 
Q 956 3463 1253 3523 
Q 1550 3584 1831 3584 
Q 2591 3584 2966 3190 
Q 3341 2797 3341 1997 
z
" transform="scale(0.015625)"/>
       </defs>
       <use xlink:href="#DejaVuSans-64"/>
       <use xlink:href="#DejaVuSans-65" transform="translate(63.476562 0)"/>
       <use xlink:href="#DejaVuSans-6c" transform="translate(125 0)"/>
       <use xlink:href="#DejaVuSans-74" transform="translate(152.783203 0)"/>
       <use xlink:href="#DejaVuSans-61" transform="translate(191.992188 0)"/>
      </g>
     </g>
    </g>
    <g id="xtick_2">
     <g id="line2d_2">
      <g>
       <use xlink:href="#ma9bbdbcdf7" x="169.161571" y="496.064242" style="stroke: #000000; stroke-width: 0.8"/>
      </g>
     </g>
     <g id="text_2">
      <!-- omega -->
      <g transform="translate(143.30356 532.824599) rotate(-45) scale(0.1 -0.1)">
       <defs>
        <path id="DejaVuSans-6f" d="M 1959 3097 
Q 1497 3097 1228 2736 
Q 959 2375 959 1747 
Q 959 1119 1226 758 
Q 1494 397 1959 397 
Q 2419 397 2687 759 
Q 2956 1122 2956 1747 
Q 2956 2369 2687 2733 
Q 2419 3097 1959 3097 
z
M 1959 3584 
Q 2709 3584 3137 3096 
Q 3566 2609 3566 1747 
Q 3566 888 3137 398 
Q 2709 -91 1959 -91 
Q 1206 -91 779 398 
Q 353 888 353 1747 
Q 353 2609 779 3096 
Q 1206 3584 1959 3584 
z
" transform="scale(0.015625)"/>
        <path id="DejaVuSans-6d" d="M 3328 2828 
Q 3544 3216 3844 3400 
Q 4144 3584 4550 3584 
Q 5097 3584 5394 3201 
Q 5691 2819 5691 2113 
L 5691 0 
L 5113 0 
L 5113 2094 
Q 5113 2597 4934 2840 
Q 4756 3084 4391 3084 
Q 3944 3084 3684 2787 
Q 3425 2491 3425 1978 
L 3425 0 
L 2847 0 
L 2847 2094 
Q 2847 2600 2669 2842 
Q 2491 3084 2119 3084 
Q 1678 3084 1418 2786 
Q 1159 2488 1159 1978 
L 1159 0 
L 581 0 
L 581 3500 
L 1159 3500 
L 1159 2956 
Q 1356 3278 1631 3431 
Q 1906 3584 2284 3584 
Q 2666 3584 2933 3390 
Q 3200 3197 3328 2828 
z
" transform="scale(0.015625)"/>
        <path id="DejaVuSans-67" d="M 2906 1791 
Q 2906 2416 2648 2759 
Q 2391 3103 1925 3103 
Q 1463 3103 1205 2759 
Q 947 2416 947 1791 
Q 947 1169 1205 825 
Q 1463 481 1925 481 
Q 2391 481 2648 825 
Q 2906 1169 2906 1791 
z
M 3481 434 
Q 3481 -459 3084 -895 
Q 2688 -1331 1869 -1331 
Q 1566 -1331 1297 -1286 
Q 1028 -1241 775 -1147 
L 775 -588 
Q 1028 -725 1275 -790 
Q 1522 -856 1778 -856 
Q 2344 -856 2625 -561 
Q 2906 -266 2906 331 
L 2906 616 
Q 2728 306 2450 153 
Q 2172 0 1784 0 
Q 1141 0 747 490 
Q 353 981 353 1791 
Q 353 2603 747 3093 
Q 1141 3584 1784 3584 
Q 2172 3584 2450 3431 
Q 2728 3278 2906 2969 
L 2906 3500 
L 3481 3500 
L 3481 434 
z
" transform="scale(0.015625)"/>
       </defs>
       <use xlink:href="#DejaVuSans-6f"/>
       <use xlink:href="#DejaVuSans-6d" transform="translate(61.181641 0)"/>
       <use xlink:href="#DejaVuSans-65" transform="translate(158.59375 0)"/>
       <use xlink:href="#DejaVuSans-67" transform="translate(220.117188 0)"/>
       <use xlink:href="#DejaVuSans-61" transform="translate(283.59375 0)"/>
      </g>
     </g>
    </g>
    <g id="xtick_3">
     <g id="line2d_3">
      <g>
       <use xlink:href="#ma9bbdbcdf7" x="238.93549" y="496.064242" style="stroke: #000000; stroke-width: 0.8"/>
      </g>
     </g>
     <g id="text_3">
      <!-- gamma -->
      <g transform="translate(210.534104 535.367973) rotate(-45) scale(0.1 -0.1)">
       <use xlink:href="#DejaVuSans-67"/>
       <use xlink:href="#DejaVuSans-61" transform="translate(63.476562 0)"/>
       <use xlink:href="#DejaVuSans-6d" transform="translate(124.755859 0)"/>
       <use xlink:href="#DejaVuSans-6d" transform="translate(222.167969 0)"/>
       <use xlink:href="#DejaVuSans-61" transform="translate(319.580078 0)"/>
      </g>
     </g>
    </g>
    <g id="xtick_4">
     <g id="line2d_4">
      <g>
       <use xlink:href="#ma9bbdbcdf7" x="308.709409" y="496.064242" style="stroke: #000000; stroke-width: 0.8"/>
      </g>
     </g>
     <g id="text_4">
      <!-- vbyte_le -->
      <g transform="translate(277.208906 538.270426) rotate(-45) scale(0.1 -0.1)">
       <defs>
        <path id="DejaVuSans-76" d="M 191 3500 
L 800 3500 
L 1894 563 
L 2988 3500 
L 3597 3500 
L 2284 0 
L 1503 0 
L 191 3500 
z
" transform="scale(0.015625)"/>
        <path id="DejaVuSans-62" d="M 3116 1747 
Q 3116 2381 2855 2742 
Q 2594 3103 2138 3103 
Q 1681 3103 1420 2742 
Q 1159 2381 1159 1747 
Q 1159 1113 1420 752 
Q 1681 391 2138 391 
Q 2594 391 2855 752 
Q 3116 1113 3116 1747 
z
M 1159 2969 
Q 1341 3281 1617 3432 
Q 1894 3584 2278 3584 
Q 2916 3584 3314 3078 
Q 3713 2572 3713 1747 
Q 3713 922 3314 415 
Q 2916 -91 2278 -91 
Q 1894 -91 1617 61 
Q 1341 213 1159 525 
L 1159 0 
L 581 0 
L 581 4863 
L 1159 4863 
L 1159 2969 
z
" transform="scale(0.015625)"/>
        <path id="DejaVuSans-79" d="M 2059 -325 
Q 1816 -950 1584 -1140 
Q 1353 -1331 966 -1331 
L 506 -1331 
L 506 -850 
L 844 -850 
Q 1081 -850 1212 -737 
Q 1344 -625 1503 -206 
L 1606 56 
L 191 3500 
L 800 3500 
L 1894 763 
L 2988 3500 
L 3597 3500 
L 2059 -325 
z
" transform="scale(0.015625)"/>
        <path id="DejaVuSans-5f" d="M 3263 -1063 
L 3263 -1509 
L -63 -1509 
L -63 -1063 
L 3263 -1063 
z
" transform="scale(0.015625)"/>
       </defs>
       <use xlink:href="#DejaVuSans-76"/>
       <use xlink:href="#DejaVuSans-62" transform="translate(59.179688 0)"/>
       <use xlink:href="#DejaVuSans-79" transform="translate(122.65625 0)"/>
       <use xlink:href="#DejaVuSans-74" transform="translate(181.835938 0)"/>
       <use xlink:href="#DejaVuSans-65" transform="translate(221.044922 0)"/>
       <use xlink:href="#DejaVuSans-5f" transform="translate(282.568359 0)"/>
       <use xlink:href="#DejaVuSans-6c" transform="translate(332.568359 0)"/>
       <use xlink:href="#DejaVuSans-65" transform="translate(360.351562 0)"/>
      </g>
     </g>
    </g>
    <g id="xtick_5">
     <g id="line2d_5">
      <g>
       <use xlink:href="#ma9bbdbcdf7" x="378.483328" y="496.064242" style="stroke: #000000; stroke-width: 0.8"/>
      </g>
     </g>
     <g id="text_5">
      <!-- pi_4 -->
      <g transform="translate(362.328147 522.925104) rotate(-45) scale(0.1 -0.1)">
       <defs>
        <path id="DejaVuSans-70" d="M 1159 525 
L 1159 -1331 
L 581 -1331 
L 581 3500 
L 1159 3500 
L 1159 2969 
Q 1341 3281 1617 3432 
Q 1894 3584 2278 3584 
Q 2916 3584 3314 3078 
Q 3713 2572 3713 1747 
Q 3713 922 3314 415 
Q 2916 -91 2278 -91 
Q 1894 -91 1617 61 
Q 1341 213 1159 525 
z
M 3116 1747 
Q 3116 2381 2855 2742 
Q 2594 3103 2138 3103 
Q 1681 3103 1420 2742 
Q 1159 2381 1159 1747 
Q 1159 1113 1420 752 
Q 1681 391 2138 391 
Q 2594 391 2855 752 
Q 3116 1113 3116 1747 
z
" transform="scale(0.015625)"/>
        <path id="DejaVuSans-69" d="M 603 3500 
L 1178 3500 
L 1178 0 
L 603 0 
L 603 3500 
z
M 603 4863 
L 1178 4863 
L 1178 4134 
L 603 4134 
L 603 4863 
z
" transform="scale(0.015625)"/>
        <path id="DejaVuSans-34" d="M 2419 4116 
L 825 1625 
L 2419 1625 
L 2419 4116 
z
M 2253 4666 
L 3047 4666 
L 3047 1625 
L 3713 1625 
L 3713 1100 
L 3047 1100 
L 3047 0 
L 2419 0 
L 2419 1100 
L 313 1100 
L 313 1709 
L 2253 4666 
z
" transform="scale(0.015625)"/>
       </defs>
       <use xlink:href="#DejaVuSans-70"/>
       <use xlink:href="#DejaVuSans-69" transform="translate(63.476562 0)"/>
       <use xlink:href="#DejaVuSans-5f" transform="translate(91.259766 0)"/>
       <use xlink:href="#DejaVuSans-34" transform="translate(141.259766 0)"/>
      </g>
     </g>
    </g>
    <g id="xtick_6">
     <g id="line2d_6">
      <g>
       <use xlink:href="#ma9bbdbcdf7" x="448.257247" y="496.064242" style="stroke: #000000; stroke-width: 0.8"/>
      </g>
     </g>
     <g id="text_6">
      <!-- pi_3 -->
      <g transform="translate(432.102066 522.925104) rotate(-45) scale(0.1 -0.1)">
       <defs>
        <path id="DejaVuSans-33" d="M 2597 2516 
Q 3050 2419 3304 2112 
Q 3559 1806 3559 1356 
Q 3559 666 3084 287 
Q 2609 -91 1734 -91 
Q 1441 -91 1130 -33 
Q 819 25 488 141 
L 488 750 
Q 750 597 1062 519 
Q 1375 441 1716 441 
Q 2309 441 2620 675 
Q 2931 909 2931 1356 
Q 2931 1769 2642 2001 
Q 2353 2234 1838 2234 
L 1294 2234 
L 1294 2753 
L 1863 2753 
Q 2328 2753 2575 2939 
Q 2822 3125 2822 3475 
Q 2822 3834 2567 4026 
Q 2313 4219 1838 4219 
Q 1578 4219 1281 4162 
Q 984 4106 628 3988 
L 628 4550 
Q 988 4650 1302 4700 
Q 1616 4750 1894 4750 
Q 2613 4750 3031 4423 
Q 3450 4097 3450 3541 
Q 3450 3153 3228 2886 
Q 3006 2619 2597 2516 
z
" transform="scale(0.015625)"/>
       </defs>
       <use xlink:href="#DejaVuSans-70"/>
       <use xlink:href="#DejaVuSans-69" transform="translate(63.476562 0)"/>
       <use xlink:href="#DejaVuSans-5f" transform="translate(91.259766 0)"/>
       <use xlink:href="#DejaVuSans-33" transform="translate(141.259766 0)"/>
      </g>
     </g>
    </g>
    <g id="xtick_7">
     <g id="line2d_7">
      <g>
       <use xlink:href="#ma9bbdbcdf7" x="518.031166" y="496.064242" style="stroke: #000000; stroke-width: 0.8"/>
      </g>
     </g>
     <g id="text_7">
      <!-- pi_2 -->
      <g transform="translate(501.875985 522.925104) rotate(-45) scale(0.1 -0.1)">
       <defs>
        <path id="DejaVuSans-32" d="M 1228 531 
L 3431 531 
L 3431 0 
L 469 0 
L 469 531 
Q 828 903 1448 1529 
Q 2069 2156 2228 2338 
Q 2531 2678 2651 2914 
Q 2772 3150 2772 3378 
Q 2772 3750 2511 3984 
Q 2250 4219 1831 4219 
Q 1534 4219 1204 4116 
Q 875 4013 500 3803 
L 500 4441 
Q 881 4594 1212 4672 
Q 1544 4750 1819 4750 
Q 2544 4750 2975 4387 
Q 3406 4025 3406 3419 
Q 3406 3131 3298 2873 
Q 3191 2616 2906 2266 
Q 2828 2175 2409 1742 
Q 1991 1309 1228 531 
z
" transform="scale(0.015625)"/>
       </defs>
       <use xlink:href="#DejaVuSans-70"/>
       <use xlink:href="#DejaVuSans-69" transform="translate(63.476562 0)"/>
       <use xlink:href="#DejaVuSans-5f" transform="translate(91.259766 0)"/>
       <use xlink:href="#DejaVuSans-32" transform="translate(141.259766 0)"/>
      </g>
     </g>
    </g>
    <g id="xtick_8">
     <g id="line2d_8">
      <g>
       <use xlink:href="#ma9bbdbcdf7" x="587.805084" y="496.064242" style="stroke: #000000; stroke-width: 0.8"/>
      </g>
     </g>
     <g id="text_8">
      <!-- exp_golomb_2 -->
      <g transform="translate(535.183082 559.391926) rotate(-45) scale(0.1 -0.1)">
       <defs>
        <path id="DejaVuSans-78" d="M 3513 3500 
L 2247 1797 
L 3578 0 
L 2900 0 
L 1881 1375 
L 863 0 
L 184 0 
L 1544 1831 
L 300 3500 
L 978 3500 
L 1906 2253 
L 2834 3500 
L 3513 3500 
z
" transform="scale(0.015625)"/>
       </defs>
       <use xlink:href="#DejaVuSans-65"/>
       <use xlink:href="#DejaVuSans-78" transform="translate(59.773438 0)"/>
       <use xlink:href="#DejaVuSans-70" transform="translate(118.953125 0)"/>
       <use xlink:href="#DejaVuSans-5f" transform="translate(182.429688 0)"/>
       <use xlink:href="#DejaVuSans-67" transform="translate(232.429688 0)"/>
       <use xlink:href="#DejaVuSans-6f" transform="translate(295.90625 0)"/>
       <use xlink:href="#DejaVuSans-6c" transform="translate(357.087891 0)"/>
       <use xlink:href="#DejaVuSans-6f" transform="translate(384.871094 0)"/>
       <use xlink:href="#DejaVuSans-6d" transform="translate(446.052734 0)"/>
       <use xlink:href="#DejaVuSans-62" transform="translate(543.464844 0)"/>
       <use xlink:href="#DejaVuSans-5f" transform="translate(606.941406 0)"/>
       <use xlink:href="#DejaVuSans-32" transform="translate(656.941406 0)"/>
      </g>
     </g>
    </g>
    <g id="xtick_9">
     <g id="line2d_9">
      <g>
       <use xlink:href="#ma9bbdbcdf7" x="657.579003" y="496.064242" style="stroke: #000000; stroke-width: 0.8"/>
      </g>
     </g>
     <g id="text_9">
      <!-- exp_golomb_3 -->
      <g transform="translate(604.957001 559.391926) rotate(-45) scale(0.1 -0.1)">
       <use xlink:href="#DejaVuSans-65"/>
       <use xlink:href="#DejaVuSans-78" transform="translate(59.773438 0)"/>
       <use xlink:href="#DejaVuSans-70" transform="translate(118.953125 0)"/>
       <use xlink:href="#DejaVuSans-5f" transform="translate(182.429688 0)"/>
       <use xlink:href="#DejaVuSans-67" transform="translate(232.429688 0)"/>
       <use xlink:href="#DejaVuSans-6f" transform="translate(295.90625 0)"/>
       <use xlink:href="#DejaVuSans-6c" transform="translate(357.087891 0)"/>
       <use xlink:href="#DejaVuSans-6f" transform="translate(384.871094 0)"/>
       <use xlink:href="#DejaVuSans-6d" transform="translate(446.052734 0)"/>
       <use xlink:href="#DejaVuSans-62" transform="translate(543.464844 0)"/>
       <use xlink:href="#DejaVuSans-5f" transform="translate(606.941406 0)"/>
       <use xlink:href="#DejaVuSans-33" transform="translate(656.941406 0)"/>
      </g>
     </g>
    </g>
    <g id="xtick_10">
     <g id="line2d_10">
      <g>
       <use xlink:href="#ma9bbdbcdf7" x="727.352922" y="496.064242" style="stroke: #000000; stroke-width: 0.8"/>
      </g>
     </g>
     <g id="text_10">
      <!-- exp_golomb_4 -->
      <g transform="translate(674.73092 559.391926) rotate(-45) scale(0.1 -0.1)">
       <use xlink:href="#DejaVuSans-65"/>
       <use xlink:href="#DejaVuSans-78" transform="translate(59.773438 0)"/>
       <use xlink:href="#DejaVuSans-70" transform="translate(118.953125 0)"/>
       <use xlink:href="#DejaVuSans-5f" transform="translate(182.429688 0)"/>
       <use xlink:href="#DejaVuSans-67" transform="translate(232.429688 0)"/>
       <use xlink:href="#DejaVuSans-6f" transform="translate(295.90625 0)"/>
       <use xlink:href="#DejaVuSans-6c" transform="translate(357.087891 0)"/>
       <use xlink:href="#DejaVuSans-6f" transform="translate(384.871094 0)"/>
       <use xlink:href="#DejaVuSans-6d" transform="translate(446.052734 0)"/>
       <use xlink:href="#DejaVuSans-62" transform="translate(543.464844 0)"/>
       <use xlink:href="#DejaVuSans-5f" transform="translate(606.941406 0)"/>
       <use xlink:href="#DejaVuSans-34" transform="translate(656.941406 0)"/>
      </g>
     </g>
    </g>
    <g id="xtick_11">
     <g id="line2d_11">
      <g>
       <use xlink:href="#ma9bbdbcdf7" x="797.126841" y="496.064242" style="stroke: #000000; stroke-width: 0.8"/>
      </g>
     </g>
     <g id="text_11">
      <!-- vbyte_be -->
      <g transform="translate(763.101747 540.795018) rotate(-45) scale(0.1 -0.1)">
       <use xlink:href="#DejaVuSans-76"/>
       <use xlink:href="#DejaVuSans-62" transform="translate(59.179688 0)"/>
       <use xlink:href="#DejaVuSans-79" transform="translate(122.65625 0)"/>
       <use xlink:href="#DejaVuSans-74" transform="translate(181.835938 0)"/>
       <use xlink:href="#DejaVuSans-65" transform="translate(221.044922 0)"/>
       <use xlink:href="#DejaVuSans-5f" transform="translate(282.568359 0)"/>
       <use xlink:href="#DejaVuSans-62" transform="translate(332.568359 0)"/>
       <use xlink:href="#DejaVuSans-65" transform="translate(396.044922 0)"/>
      </g>
     </g>
    </g>
    <g id="xtick_12">
     <g id="line2d_12">
      <g>
       <use xlink:href="#ma9bbdbcdf7" x="866.90076" y="496.064242" style="stroke: #000000; stroke-width: 0.8"/>
      </g>
     </g>
     <g id="text_12">
      <!-- zeta_3_table -->
      <g transform="translate(820.586371 553.084313) rotate(-45) scale(0.1 -0.1)">
       <defs>
        <path id="DejaVuSans-7a" d="M 353 3500 
L 3084 3500 
L 3084 2975 
L 922 459 
L 3084 459 
L 3084 0 
L 275 0 
L 275 525 
L 2438 3041 
L 353 3041 
L 353 3500 
z
" transform="scale(0.015625)"/>
       </defs>
       <use xlink:href="#DejaVuSans-7a"/>
       <use xlink:href="#DejaVuSans-65" transform="translate(52.490234 0)"/>
       <use xlink:href="#DejaVuSans-74" transform="translate(114.013672 0)"/>
       <use xlink:href="#DejaVuSans-61" transform="translate(153.222656 0)"/>
       <use xlink:href="#DejaVuSans-5f" transform="translate(214.501953 0)"/>
       <use xlink:href="#DejaVuSans-33" transform="translate(264.501953 0)"/>
       <use xlink:href="#DejaVuSans-5f" transform="translate(328.125 0)"/>
       <use xlink:href="#DejaVuSans-74" transform="translate(378.125 0)"/>
       <use xlink:href="#DejaVuSans-61" transform="translate(417.333984 0)"/>
       <use xlink:href="#DejaVuSans-62" transform="translate(478.613281 0)"/>
       <use xlink:href="#DejaVuSans-6c" transform="translate(542.089844 0)"/>
       <use xlink:href="#DejaVuSans-65" transform="translate(569.873047 0)"/>
      </g>
     </g>
    </g>
    <g id="xtick_13">
     <g id="line2d_13">
      <g>
       <use xlink:href="#ma9bbdbcdf7" x="936.674679" y="496.064242" style="stroke: #000000; stroke-width: 0.8"/>
      </g>
     </g>
     <g id="text_13">
      <!-- zeta_3 -->
      <g transform="translate(911.805513 531.514241) rotate(-45) scale(0.1 -0.1)">
       <use xlink:href="#DejaVuSans-7a"/>
       <use xlink:href="#DejaVuSans-65" transform="translate(52.490234 0)"/>
       <use xlink:href="#DejaVuSans-74" transform="translate(114.013672 0)"/>
       <use xlink:href="#DejaVuSans-61" transform="translate(153.222656 0)"/>
       <use xlink:href="#DejaVuSans-5f" transform="translate(214.501953 0)"/>
       <use xlink:href="#DejaVuSans-33" transform="translate(264.501953 0)"/>
      </g>
     </g>
    </g>
    <g id="xtick_14">
     <g id="line2d_14">
      <g>
       <use xlink:href="#ma9bbdbcdf7" x="1006.448598" y="496.064242" style="stroke: #000000; stroke-width: 0.8"/>
      </g>
     </g>
     <g id="text_14">
      <!-- zeta_2 -->
      <g transform="translate(981.579432 531.514241) rotate(-45) scale(0.1 -0.1)">
       <use xlink:href="#DejaVuSans-7a"/>
       <use xlink:href="#DejaVuSans-65" transform="translate(52.490234 0)"/>
       <use xlink:href="#DejaVuSans-74" transform="translate(114.013672 0)"/>
       <use xlink:href="#DejaVuSans-61" transform="translate(153.222656 0)"/>
       <use xlink:href="#DejaVuSans-5f" transform="translate(214.501953 0)"/>
       <use xlink:href="#DejaVuSans-32" transform="translate(264.501953 0)"/>
      </g>
     </g>
    </g>
   </g>
   <g id="matplotlib.axis_2">
    <g id="ytick_1">
     <g id="line2d_15">
      <path d="M 40.603125 484.871955 
L 1065.233125 484.871955 
" clip-path="url(#p898443bf8b)" style="fill: none; stroke-dasharray: 2.96,1.28; stroke-dashoffset: 0; stroke: #808080; stroke-opacity: 0.2; stroke-width: 0.8"/>
     </g>
     <g id="line2d_16">
      <defs>
       <path id="mf4aa887410" d="M 0 0 
L -3.5 0 
" style="stroke: #000000; stroke-width: 0.8"/>
      </defs>
      <g>
       <use xlink:href="#mf4aa887410" x="40.603125" y="484.871955" style="stroke: #000000; stroke-width: 0.8"/>
      </g>
     </g>
     <g id="text_15">
      <!-- 6 -->
      <g transform="translate(27.240625 488.671174) scale(0.1 -0.1)">
       <defs>
        <path id="DejaVuSans-36" d="M 2113 2584 
Q 1688 2584 1439 2293 
Q 1191 2003 1191 1497 
Q 1191 994 1439 701 
Q 1688 409 2113 409 
Q 2538 409 2786 701 
Q 3034 994 3034 1497 
Q 3034 2003 2786 2293 
Q 2538 2584 2113 2584 
z
M 3366 4563 
L 3366 3988 
Q 3128 4100 2886 4159 
Q 2644 4219 2406 4219 
Q 1781 4219 1451 3797 
Q 1122 3375 1075 2522 
Q 1259 2794 1537 2939 
Q 1816 3084 2150 3084 
Q 2853 3084 3261 2657 
Q 3669 2231 3669 1497 
Q 3669 778 3244 343 
Q 2819 -91 2113 -91 
Q 1303 -91 875 529 
Q 447 1150 447 2328 
Q 447 3434 972 4092 
Q 1497 4750 2381 4750 
Q 2619 4750 2861 4703 
Q 3103 4656 3366 4563 
z
" transform="scale(0.015625)"/>
       </defs>
       <use xlink:href="#DejaVuSans-36"/>
      </g>
     </g>
    </g>
    <g id="ytick_2">
     <g id="line2d_17">
      <path d="M 40.603125 407.456861 
L 1065.233125 407.456861 
" clip-path="url(#p898443bf8b)" style="fill: none; stroke-dasharray: 2.96,1.28; stroke-dashoffset: 0; stroke: #808080; stroke-opacity: 0.2; stroke-width: 0.8"/>
     </g>
     <g id="line2d_18">
      <g>
       <use xlink:href="#mf4aa887410" x="40.603125" y="407.456861" style="stroke: #000000; stroke-width: 0.8"/>
      </g>
     </g>
     <g id="text_16">
      <!-- 8 -->
      <g transform="translate(27.240625 411.25608) scale(0.1 -0.1)">
       <defs>
        <path id="DejaVuSans-38" d="M 2034 2216 
Q 1584 2216 1326 1975 
Q 1069 1734 1069 1313 
Q 1069 891 1326 650 
Q 1584 409 2034 409 
Q 2484 409 2743 651 
Q 3003 894 3003 1313 
Q 3003 1734 2745 1975 
Q 2488 2216 2034 2216 
z
M 1403 2484 
Q 997 2584 770 2862 
Q 544 3141 544 3541 
Q 544 4100 942 4425 
Q 1341 4750 2034 4750 
Q 2731 4750 3128 4425 
Q 3525 4100 3525 3541 
Q 3525 3141 3298 2862 
Q 3072 2584 2669 2484 
Q 3125 2378 3379 2068 
Q 3634 1759 3634 1313 
Q 3634 634 3220 271 
Q 2806 -91 2034 -91 
Q 1263 -91 848 271 
Q 434 634 434 1313 
Q 434 1759 690 2068 
Q 947 2378 1403 2484 
z
M 1172 3481 
Q 1172 3119 1398 2916 
Q 1625 2713 2034 2713 
Q 2441 2713 2670 2916 
Q 2900 3119 2900 3481 
Q 2900 3844 2670 4047 
Q 2441 4250 2034 4250 
Q 1625 4250 1398 4047 
Q 1172 3844 1172 3481 
z
" transform="scale(0.015625)"/>
       </defs>
       <use xlink:href="#DejaVuSans-38"/>
      </g>
     </g>
    </g>
    <g id="ytick_3">
     <g id="line2d_19">
      <path d="M 40.603125 330.041767 
L 1065.233125 330.041767 
" clip-path="url(#p898443bf8b)" style="fill: none; stroke-dasharray: 2.96,1.28; stroke-dashoffset: 0; stroke: #808080; stroke-opacity: 0.2; stroke-width: 0.8"/>
     </g>
     <g id="line2d_20">
      <g>
       <use xlink:href="#mf4aa887410" x="40.603125" y="330.041767" style="stroke: #000000; stroke-width: 0.8"/>
      </g>
     </g>
     <g id="text_17">
      <!-- 10 -->
      <g transform="translate(20.878125 333.840986) scale(0.1 -0.1)">
       <defs>
        <path id="DejaVuSans-31" d="M 794 531 
L 1825 531 
L 1825 4091 
L 703 3866 
L 703 4441 
L 1819 4666 
L 2450 4666 
L 2450 531 
L 3481 531 
L 3481 0 
L 794 0 
L 794 531 
z
" transform="scale(0.015625)"/>
        <path id="DejaVuSans-30" d="M 2034 4250 
Q 1547 4250 1301 3770 
Q 1056 3291 1056 2328 
Q 1056 1369 1301 889 
Q 1547 409 2034 409 
Q 2525 409 2770 889 
Q 3016 1369 3016 2328 
Q 3016 3291 2770 3770 
Q 2525 4250 2034 4250 
z
M 2034 4750 
Q 2819 4750 3233 4129 
Q 3647 3509 3647 2328 
Q 3647 1150 3233 529 
Q 2819 -91 2034 -91 
Q 1250 -91 836 529 
Q 422 1150 422 2328 
Q 422 3509 836 4129 
Q 1250 4750 2034 4750 
z
" transform="scale(0.015625)"/>
       </defs>
       <use xlink:href="#DejaVuSans-31"/>
       <use xlink:href="#DejaVuSans-30" transform="translate(63.623047 0)"/>
      </g>
     </g>
    </g>
    <g id="ytick_4">
     <g id="line2d_21">
      <path d="M 40.603125 252.626674 
L 1065.233125 252.626674 
" clip-path="url(#p898443bf8b)" style="fill: none; stroke-dasharray: 2.96,1.28; stroke-dashoffset: 0; stroke: #808080; stroke-opacity: 0.2; stroke-width: 0.8"/>
     </g>
     <g id="line2d_22">
      <g>
       <use xlink:href="#mf4aa887410" x="40.603125" y="252.626674" style="stroke: #000000; stroke-width: 0.8"/>
      </g>
     </g>
     <g id="text_18">
      <!-- 12 -->
      <g transform="translate(20.878125 256.425893) scale(0.1 -0.1)">
       <use xlink:href="#DejaVuSans-31"/>
       <use xlink:href="#DejaVuSans-32" transform="translate(63.623047 0)"/>
      </g>
     </g>
    </g>
    <g id="ytick_5">
     <g id="line2d_23">
      <path d="M 40.603125 175.21158 
L 1065.233125 175.21158 
" clip-path="url(#p898443bf8b)" style="fill: none; stroke-dasharray: 2.96,1.28; stroke-dashoffset: 0; stroke: #808080; stroke-opacity: 0.2; stroke-width: 0.8"/>
     </g>
     <g id="line2d_24">
      <g>
       <use xlink:href="#mf4aa887410" x="40.603125" y="175.21158" style="stroke: #000000; stroke-width: 0.8"/>
      </g>
     </g>
     <g id="text_19">
      <!-- 14 -->
      <g transform="translate(20.878125 179.010799) scale(0.1 -0.1)">
       <use xlink:href="#DejaVuSans-31"/>
       <use xlink:href="#DejaVuSans-34" transform="translate(63.623047 0)"/>
      </g>
     </g>
    </g>
    <g id="ytick_6">
     <g id="line2d_25">
      <path d="M 40.603125 97.796487 
L 1065.233125 97.796487 
" clip-path="url(#p898443bf8b)" style="fill: none; stroke-dasharray: 2.96,1.28; stroke-dashoffset: 0; stroke: #808080; stroke-opacity: 0.2; stroke-width: 0.8"/>
     </g>
     <g id="line2d_26">
      <g>
       <use xlink:href="#mf4aa887410" x="40.603125" y="97.796487" style="stroke: #000000; stroke-width: 0.8"/>
      </g>
     </g>
     <g id="text_20">
      <!-- 16 -->
      <g transform="translate(20.878125 101.595705) scale(0.1 -0.1)">
       <use xlink:href="#DejaVuSans-31"/>
       <use xlink:href="#DejaVuSans-36" transform="translate(63.623047 0)"/>
      </g>
     </g>
    </g>
    <g id="text_21">
     <!-- Time (ns) -->
     <g transform="translate(14.798438 282.68884) rotate(-90) scale(0.1 -0.1)">
      <defs>
       <path id="DejaVuSans-54" d="M -19 4666 
L 3928 4666 
L 3928 4134 
L 2272 4134 
L 2272 0 
L 1638 0 
L 1638 4134 
L -19 4134 
L -19 4666 
z
" transform="scale(0.015625)"/>
       <path id="DejaVuSans-20" transform="scale(0.015625)"/>
       <path id="DejaVuSans-28" d="M 1984 4856 
Q 1566 4138 1362 3434 
Q 1159 2731 1159 2009 
Q 1159 1288 1364 580 
Q 1569 -128 1984 -844 
L 1484 -844 
Q 1016 -109 783 600 
Q 550 1309 550 2009 
Q 550 2706 781 3412 
Q 1013 4119 1484 4856 
L 1984 4856 
z
" transform="scale(0.015625)"/>
       <path id="DejaVuSans-6e" d="M 3513 2113 
L 3513 0 
L 2938 0 
L 2938 2094 
Q 2938 2591 2744 2837 
Q 2550 3084 2163 3084 
Q 1697 3084 1428 2787 
Q 1159 2491 1159 1978 
L 1159 0 
L 581 0 
L 581 3500 
L 1159 3500 
L 1159 2956 
Q 1366 3272 1645 3428 
Q 1925 3584 2291 3584 
Q 2894 3584 3203 3211 
Q 3513 2838 3513 2113 
z
" transform="scale(0.015625)"/>
       <path id="DejaVuSans-73" d="M 2834 3397 
L 2834 2853 
Q 2591 2978 2328 3040 
Q 2066 3103 1784 3103 
Q 1356 3103 1142 2972 
Q 928 2841 928 2578 
Q 928 2378 1081 2264 
Q 1234 2150 1697 2047 
L 1894 2003 
Q 2506 1872 2764 1633 
Q 3022 1394 3022 966 
Q 3022 478 2636 193 
Q 2250 -91 1575 -91 
Q 1294 -91 989 -36 
Q 684 19 347 128 
L 347 722 
Q 666 556 975 473 
Q 1284 391 1588 391 
Q 1994 391 2212 530 
Q 2431 669 2431 922 
Q 2431 1156 2273 1281 
Q 2116 1406 1581 1522 
L 1381 1569 
Q 847 1681 609 1914 
Q 372 2147 372 2553 
Q 372 3047 722 3315 
Q 1072 3584 1716 3584 
Q 2034 3584 2315 3537 
Q 2597 3491 2834 3397 
z
" transform="scale(0.015625)"/>
       <path id="DejaVuSans-29" d="M 513 4856 
L 1013 4856 
Q 1481 4119 1714 3412 
Q 1947 2706 1947 2009 
Q 1947 1309 1714 600 
Q 1481 -109 1013 -844 
L 513 -844 
Q 928 -128 1133 580 
Q 1338 1288 1338 2009 
Q 1338 2731 1133 3434 
Q 928 4138 513 4856 
z
" transform="scale(0.015625)"/>
      </defs>
      <use xlink:href="#DejaVuSans-54"/>
      <use xlink:href="#DejaVuSans-69" transform="translate(57.958984 0)"/>
      <use xlink:href="#DejaVuSans-6d" transform="translate(85.742188 0)"/>
      <use xlink:href="#DejaVuSans-65" transform="translate(183.154297 0)"/>
      <use xlink:href="#DejaVuSans-20" transform="translate(244.677734 0)"/>
      <use xlink:href="#DejaVuSans-28" transform="translate(276.464844 0)"/>
      <use xlink:href="#DejaVuSans-6e" transform="translate(315.478516 0)"/>
      <use xlink:href="#DejaVuSans-73" transform="translate(378.857422 0)"/>
      <use xlink:href="#DejaVuSans-29" transform="translate(430.957031 0)"/>
     </g>
    </g>
   </g>
   <g id="LineCollection_1">
    <path d="M 87.177216 445.041889 
L 87.177216 444.383861 
" clip-path="url(#p898443bf8b)" style="fill: none; stroke: #1f77b4; stroke-width: 1.5"/>
    <path d="M 156.951135 413.882314 
L 156.951135 413.456531 
" clip-path="url(#p898443bf8b)" style="fill: none; stroke: #1f77b4; stroke-width: 1.5"/>
    <path d="M 226.725054 432.655474 
L 226.725054 432.074861 
" clip-path="url(#p898443bf8b)" style="fill: none; stroke: #1f77b4; stroke-width: 1.5"/>
    <path d="M 296.498973 433.119965 
L 296.498973 432.423229 
" clip-path="url(#p898443bf8b)" style="fill: none; stroke: #1f77b4; stroke-width: 1.5"/>
    <path d="M 366.272892 424.720427 
L 366.272892 424.333352 
" clip-path="url(#p898443bf8b)" style="fill: none; stroke: #1f77b4; stroke-width: 1.5"/>
    <path d="M 436.046811 424.062399 
L 436.046811 423.210833 
" clip-path="url(#p898443bf8b)" style="fill: none; stroke: #1f77b4; stroke-width: 1.5"/>
    <path d="M 505.82073 417.133748 
L 505.82073 416.011229 
" clip-path="url(#p898443bf8b)" style="fill: none; stroke: #1f77b4; stroke-width: 1.5"/>
    <path d="M 575.594649 349.395541 
L 575.594649 347.111796 
" clip-path="url(#p898443bf8b)" style="fill: none; stroke: #1f77b4; stroke-width: 1.5"/>
    <path d="M 645.368568 345.718324 
L 645.368568 344.053899 
" clip-path="url(#p898443bf8b)" style="fill: none; stroke: #1f77b4; stroke-width: 1.5"/>
    <path d="M 715.142487 345.486079 
L 715.142487 334.338305 
" clip-path="url(#p898443bf8b)" style="fill: none; stroke: #1f77b4; stroke-width: 1.5"/>
    <path d="M 784.916406 337.821984 
L 784.916406 337.163956 
" clip-path="url(#p898443bf8b)" style="fill: none; stroke: #1f77b4; stroke-width: 1.5"/>
    <path d="M 854.690325 322.029305 
L 854.690325 310.804117 
" clip-path="url(#p898443bf8b)" style="fill: none; stroke: #1f77b4; stroke-width: 1.5"/>
    <path d="M 924.464243 166.657212 
L 924.464243 165.418571 
" clip-path="url(#p898443bf8b)" style="fill: none; stroke: #1f77b4; stroke-width: 1.5"/>
    <path d="M 994.238162 105.15092 
L 994.238162 104.144524 
" clip-path="url(#p898443bf8b)" style="fill: none; stroke: #1f77b4; stroke-width: 1.5"/>
   </g>
   <g id="line2d_27">
    <defs>
     <path id="mdaa21823b1" d="M 5 0 
L -5 -0 
" style="stroke: #1f77b4"/>
    </defs>
    <g clip-path="url(#p898443bf8b)">
     <use xlink:href="#mdaa21823b1" x="87.177216" y="445.041889" style="fill: #1f77b4; stroke: #1f77b4"/>
     <use xlink:href="#mdaa21823b1" x="156.951135" y="413.882314" style="fill: #1f77b4; stroke: #1f77b4"/>
     <use xlink:href="#mdaa21823b1" x="226.725054" y="432.655474" style="fill: #1f77b4; stroke: #1f77b4"/>
     <use xlink:href="#mdaa21823b1" x="296.498973" y="433.119965" style="fill: #1f77b4; stroke: #1f77b4"/>
     <use xlink:href="#mdaa21823b1" x="366.272892" y="424.720427" style="fill: #1f77b4; stroke: #1f77b4"/>
     <use xlink:href="#mdaa21823b1" x="436.046811" y="424.062399" style="fill: #1f77b4; stroke: #1f77b4"/>
     <use xlink:href="#mdaa21823b1" x="505.82073" y="417.133748" style="fill: #1f77b4; stroke: #1f77b4"/>
     <use xlink:href="#mdaa21823b1" x="575.594649" y="349.395541" style="fill: #1f77b4; stroke: #1f77b4"/>
     <use xlink:href="#mdaa21823b1" x="645.368568" y="345.718324" style="fill: #1f77b4; stroke: #1f77b4"/>
     <use xlink:href="#mdaa21823b1" x="715.142487" y="345.486079" style="fill: #1f77b4; stroke: #1f77b4"/>
     <use xlink:href="#mdaa21823b1" x="784.916406" y="337.821984" style="fill: #1f77b4; stroke: #1f77b4"/>
     <use xlink:href="#mdaa21823b1" x="854.690325" y="322.029305" style="fill: #1f77b4; stroke: #1f77b4"/>
     <use xlink:href="#mdaa21823b1" x="924.464243" y="166.657212" style="fill: #1f77b4; stroke: #1f77b4"/>
     <use xlink:href="#mdaa21823b1" x="994.238162" y="105.15092" style="fill: #1f77b4; stroke: #1f77b4"/>
    </g>
   </g>
   <g id="line2d_28">
    <g clip-path="url(#p898443bf8b)">
     <use xlink:href="#mdaa21823b1" x="87.177216" y="444.383861" style="fill: #1f77b4; stroke: #1f77b4"/>
     <use xlink:href="#mdaa21823b1" x="156.951135" y="413.456531" style="fill: #1f77b4; stroke: #1f77b4"/>
     <use xlink:href="#mdaa21823b1" x="226.725054" y="432.074861" style="fill: #1f77b4; stroke: #1f77b4"/>
     <use xlink:href="#mdaa21823b1" x="296.498973" y="432.423229" style="fill: #1f77b4; stroke: #1f77b4"/>
     <use xlink:href="#mdaa21823b1" x="366.272892" y="424.333352" style="fill: #1f77b4; stroke: #1f77b4"/>
     <use xlink:href="#mdaa21823b1" x="436.046811" y="423.210833" style="fill: #1f77b4; stroke: #1f77b4"/>
     <use xlink:href="#mdaa21823b1" x="505.82073" y="416.011229" style="fill: #1f77b4; stroke: #1f77b4"/>
     <use xlink:href="#mdaa21823b1" x="575.594649" y="347.111796" style="fill: #1f77b4; stroke: #1f77b4"/>
     <use xlink:href="#mdaa21823b1" x="645.368568" y="344.053899" style="fill: #1f77b4; stroke: #1f77b4"/>
     <use xlink:href="#mdaa21823b1" x="715.142487" y="334.338305" style="fill: #1f77b4; stroke: #1f77b4"/>
     <use xlink:href="#mdaa21823b1" x="784.916406" y="337.163956" style="fill: #1f77b4; stroke: #1f77b4"/>
     <use xlink:href="#mdaa21823b1" x="854.690325" y="310.804117" style="fill: #1f77b4; stroke: #1f77b4"/>
     <use xlink:href="#mdaa21823b1" x="924.464243" y="165.418571" style="fill: #1f77b4; stroke: #1f77b4"/>
     <use xlink:href="#mdaa21823b1" x="994.238162" y="104.144524" style="fill: #1f77b4; stroke: #1f77b4"/>
    </g>
   </g>
   <g id="LineCollection_2">
    <path d="M 111.598088 477.401398 
L 111.598088 477.05303 
" clip-path="url(#p898443bf8b)" style="fill: none; stroke: #ff7f0e; stroke-width: 1.5"/>
    <path d="M 181.372007 462.150625 
L 181.372007 461.337766 
" clip-path="url(#p898443bf8b)" style="fill: none; stroke: #ff7f0e; stroke-width: 1.5"/>
    <path d="M 251.145925 439.932493 
L 251.145925 438.732559 
" clip-path="url(#p898443bf8b)" style="fill: none; stroke: #ff7f0e; stroke-width: 1.5"/>
    <path d="M 320.919844 437.184257 
L 320.919844 435.326295 
" clip-path="url(#p898443bf8b)" style="fill: none; stroke: #ff7f0e; stroke-width: 1.5"/>
    <path d="M 390.693763 388.296625 
L 390.693763 387.561182 
" clip-path="url(#p898443bf8b)" style="fill: none; stroke: #ff7f0e; stroke-width: 1.5"/>
    <path d="M 460.467682 387.716012 
L 460.467682 386.399956 
" clip-path="url(#p898443bf8b)" style="fill: none; stroke: #ff7f0e; stroke-width: 1.5"/>
    <path d="M 530.241601 382.916276 
L 530.241601 379.897088 
" clip-path="url(#p898443bf8b)" style="fill: none; stroke: #ff7f0e; stroke-width: 1.5"/>
    <path d="M 600.01552 354.156569 
L 600.01552 353.498541 
" clip-path="url(#p898443bf8b)" style="fill: none; stroke: #ff7f0e; stroke-width: 1.5"/>
    <path d="M 669.789439 350.324522 
L 669.789439 349.472956 
" clip-path="url(#p898443bf8b)" style="fill: none; stroke: #ff7f0e; stroke-width: 1.5"/>
    <path d="M 739.563358 349.666494 
L 739.563358 347.653701 
" clip-path="url(#p898443bf8b)" style="fill: none; stroke: #ff7f0e; stroke-width: 1.5"/>
    <path d="M 809.337277 340.531513 
L 809.337277 339.447701 
" clip-path="url(#p898443bf8b)" style="fill: none; stroke: #ff7f0e; stroke-width: 1.5"/>
    <path d="M 879.111196 273.528749 
L 879.111196 270.161193 
" clip-path="url(#p898443bf8b)" style="fill: none; stroke: #ff7f0e; stroke-width: 1.5"/>
    <path d="M 948.885115 193.017052 
L 948.885115 190.036571 
" clip-path="url(#p898443bf8b)" style="fill: none; stroke: #ff7f0e; stroke-width: 1.5"/>
    <path d="M 1018.659034 141.884382 
L 1018.659034 141.110231 
" clip-path="url(#p898443bf8b)" style="fill: none; stroke: #ff7f0e; stroke-width: 1.5"/>
   </g>
   <g id="line2d_29">
    <defs>
     <path id="mf23a5c327c" d="M 5 0 
L -5 -0 
" style="stroke: #ff7f0e"/>
    </defs>
    <g clip-path="url(#p898443bf8b)">
     <use xlink:href="#mf23a5c327c" x="111.598088" y="477.401398" style="fill: #ff7f0e; stroke: #ff7f0e"/>
     <use xlink:href="#mf23a5c327c" x="181.372007" y="462.150625" style="fill: #ff7f0e; stroke: #ff7f0e"/>
     <use xlink:href="#mf23a5c327c" x="251.145925" y="439.932493" style="fill: #ff7f0e; stroke: #ff7f0e"/>
     <use xlink:href="#mf23a5c327c" x="320.919844" y="437.184257" style="fill: #ff7f0e; stroke: #ff7f0e"/>
     <use xlink:href="#mf23a5c327c" x="390.693763" y="388.296625" style="fill: #ff7f0e; stroke: #ff7f0e"/>
     <use xlink:href="#mf23a5c327c" x="460.467682" y="387.716012" style="fill: #ff7f0e; stroke: #ff7f0e"/>
     <use xlink:href="#mf23a5c327c" x="530.241601" y="382.916276" style="fill: #ff7f0e; stroke: #ff7f0e"/>
     <use xlink:href="#mf23a5c327c" x="600.01552" y="354.156569" style="fill: #ff7f0e; stroke: #ff7f0e"/>
     <use xlink:href="#mf23a5c327c" x="669.789439" y="350.324522" style="fill: #ff7f0e; stroke: #ff7f0e"/>
     <use xlink:href="#mf23a5c327c" x="739.563358" y="349.666494" style="fill: #ff7f0e; stroke: #ff7f0e"/>
     <use xlink:href="#mf23a5c327c" x="809.337277" y="340.531513" style="fill: #ff7f0e; stroke: #ff7f0e"/>
     <use xlink:href="#mf23a5c327c" x="879.111196" y="273.528749" style="fill: #ff7f0e; stroke: #ff7f0e"/>
     <use xlink:href="#mf23a5c327c" x="948.885115" y="193.017052" style="fill: #ff7f0e; stroke: #ff7f0e"/>
     <use xlink:href="#mf23a5c327c" x="1018.659034" y="141.884382" style="fill: #ff7f0e; stroke: #ff7f0e"/>
    </g>
   </g>
   <g id="line2d_30">
    <g clip-path="url(#p898443bf8b)">
     <use xlink:href="#mf23a5c327c" x="111.598088" y="477.05303" style="fill: #ff7f0e; stroke: #ff7f0e"/>
     <use xlink:href="#mf23a5c327c" x="181.372007" y="461.337766" style="fill: #ff7f0e; stroke: #ff7f0e"/>
     <use xlink:href="#mf23a5c327c" x="251.145925" y="438.732559" style="fill: #ff7f0e; stroke: #ff7f0e"/>
     <use xlink:href="#mf23a5c327c" x="320.919844" y="435.326295" style="fill: #ff7f0e; stroke: #ff7f0e"/>
     <use xlink:href="#mf23a5c327c" x="390.693763" y="387.561182" style="fill: #ff7f0e; stroke: #ff7f0e"/>
     <use xlink:href="#mf23a5c327c" x="460.467682" y="386.399956" style="fill: #ff7f0e; stroke: #ff7f0e"/>
     <use xlink:href="#mf23a5c327c" x="530.241601" y="379.897088" style="fill: #ff7f0e; stroke: #ff7f0e"/>
     <use xlink:href="#mf23a5c327c" x="600.01552" y="353.498541" style="fill: #ff7f0e; stroke: #ff7f0e"/>
     <use xlink:href="#mf23a5c327c" x="669.789439" y="349.472956" style="fill: #ff7f0e; stroke: #ff7f0e"/>
     <use xlink:href="#mf23a5c327c" x="739.563358" y="347.653701" style="fill: #ff7f0e; stroke: #ff7f0e"/>
     <use xlink:href="#mf23a5c327c" x="809.337277" y="339.447701" style="fill: #ff7f0e; stroke: #ff7f0e"/>
     <use xlink:href="#mf23a5c327c" x="879.111196" y="270.161193" style="fill: #ff7f0e; stroke: #ff7f0e"/>
     <use xlink:href="#mf23a5c327c" x="948.885115" y="190.036571" style="fill: #ff7f0e; stroke: #ff7f0e"/>
     <use xlink:href="#mf23a5c327c" x="1018.659034" y="141.110231" style="fill: #ff7f0e; stroke: #ff7f0e"/>
    </g>
   </g>
   <g id="line2d_31">
    <defs>
     <path id="m093278c9c0" d="M 0 2 
C 0.530406 2 1.03916 1.789267 1.414214 1.414214 
C 1.789267 1.03916 2 0.530406 2 0 
C 2 -0.530406 1.789267 -1.03916 1.414214 -1.414214 
C 1.03916 -1.789267 0.530406 -2 0 -2 
C -0.530406 -2 -1.03916 -1.789267 -1.414214 -1.414214 
C -1.789267 -1.03916 -2 -0.530406 -2 0 
C -2 0.530406 -1.789267 1.03916 -1.414214 1.414214 
C -1.03916 1.789267 -0.530406 2 0 2 
z
" style="stroke: #1f77b4"/>
    </defs>
    <g clip-path="url(#p898443bf8b)">
     <use xlink:href="#m093278c9c0" x="87.177216" y="444.693521" style="fill: #1f77b4; stroke: #1f77b4"/>
     <use xlink:href="#m093278c9c0" x="156.951135" y="413.533946" style="fill: #1f77b4; stroke: #1f77b4"/>
     <use xlink:href="#m093278c9c0" x="226.725054" y="432.307106" style="fill: #1f77b4; stroke: #1f77b4"/>
     <use xlink:href="#m093278c9c0" x="296.498973" y="432.578059" style="fill: #1f77b4; stroke: #1f77b4"/>
     <use xlink:href="#m093278c9c0" x="366.272892" y="424.488182" style="fill: #1f77b4; stroke: #1f77b4"/>
     <use xlink:href="#m093278c9c0" x="436.046811" y="423.752738" style="fill: #1f77b4; stroke: #1f77b4"/>
     <use xlink:href="#m093278c9c0" x="505.82073" y="416.78538" style="fill: #1f77b4; stroke: #1f77b4"/>
     <use xlink:href="#m093278c9c0" x="575.594649" y="348.969758" style="fill: #1f77b4; stroke: #1f77b4"/>
     <use xlink:href="#m093278c9c0" x="645.368568" y="345.021588" style="fill: #1f77b4; stroke: #1f77b4"/>
     <use xlink:href="#m093278c9c0" x="715.142487" y="343.202333" style="fill: #1f77b4; stroke: #1f77b4"/>
     <use xlink:href="#m093278c9c0" x="784.916406" y="337.512324" style="fill: #1f77b4; stroke: #1f77b4"/>
     <use xlink:href="#m093278c9c0" x="854.690325" y="318.932702" style="fill: #1f77b4; stroke: #1f77b4"/>
     <use xlink:href="#m093278c9c0" x="924.464243" y="166.192722" style="fill: #1f77b4; stroke: #1f77b4"/>
     <use xlink:href="#m093278c9c0" x="994.238162" y="104.68643" style="fill: #1f77b4; stroke: #1f77b4"/>
    </g>
   </g>
   <g id="line2d_32">
    <defs>
     <path id="m81c7d65af1" d="M 0 2 
C 0.530406 2 1.03916 1.789267 1.414214 1.414214 
C 1.789267 1.03916 2 0.530406 2 0 
C 2 -0.530406 1.789267 -1.03916 1.414214 -1.414214 
C 1.03916 -1.789267 0.530406 -2 0 -2 
C -0.530406 -2 -1.03916 -1.789267 -1.414214 -1.414214 
C -1.789267 -1.03916 -2 -0.530406 -2 0 
C -2 0.530406 -1.789267 1.03916 -1.414214 1.414214 
C -1.03916 1.789267 -0.530406 2 0 2 
z
" style="stroke: #ff7f0e"/>
    </defs>
    <g clip-path="url(#p898443bf8b)">
     <use xlink:href="#m81c7d65af1" x="111.598088" y="477.323983" style="fill: #ff7f0e; stroke: #ff7f0e"/>
     <use xlink:href="#m81c7d65af1" x="181.372007" y="461.91838" style="fill: #ff7f0e; stroke: #ff7f0e"/>
     <use xlink:href="#m81c7d65af1" x="251.145925" y="439.235757" style="fill: #ff7f0e; stroke: #ff7f0e"/>
     <use xlink:href="#m81c7d65af1" x="320.919844" y="435.635955" style="fill: #ff7f0e; stroke: #ff7f0e"/>
     <use xlink:href="#m81c7d65af1" x="390.693763" y="387.948258" style="fill: #ff7f0e; stroke: #ff7f0e"/>
     <use xlink:href="#m81c7d65af1" x="460.467682" y="386.825739" style="fill: #ff7f0e; stroke: #ff7f0e"/>
     <use xlink:href="#m81c7d65af1" x="530.241601" y="381.60022" style="fill: #ff7f0e; stroke: #ff7f0e"/>
     <use xlink:href="#m81c7d65af1" x="600.01552" y="353.924324" style="fill: #ff7f0e; stroke: #ff7f0e"/>
     <use xlink:href="#m81c7d65af1" x="669.789439" y="349.937447" style="fill: #ff7f0e; stroke: #ff7f0e"/>
     <use xlink:href="#m81c7d65af1" x="739.563358" y="348.814928" style="fill: #ff7f0e; stroke: #ff7f0e"/>
     <use xlink:href="#m81c7d65af1" x="809.337277" y="339.834777" style="fill: #ff7f0e; stroke: #ff7f0e"/>
     <use xlink:href="#m81c7d65af1" x="879.111196" y="272.677183" style="fill: #ff7f0e; stroke: #ff7f0e"/>
     <use xlink:href="#m81c7d65af1" x="948.885115" y="191.855825" style="fill: #ff7f0e; stroke: #ff7f0e"/>
     <use xlink:href="#m81c7d65af1" x="1018.659034" y="141.61343" style="fill: #ff7f0e; stroke: #ff7f0e"/>
    </g>
   </g>
   <g id="patch_3">
    <path d="M 40.603125 496.064242 
L 40.603125 22.318125 
" style="fill: none; stroke: #000000; stroke-width: 0.8; stroke-linejoin: miter; stroke-linecap: square"/>
   </g>
   <g id="patch_4">
    <path d="M 1065.233125 496.064242 
L 1065.233125 22.318125 
" style="fill: none; stroke: #000000; stroke-width: 0.8; stroke-linejoin: miter; stroke-linecap: square"/>
   </g>
   <g id="patch_5">
    <path d="M 40.603125 496.064242 
L 1065.233125 496.064242 
" style="fill: none; stroke: #000000; stroke-width: 0.8; stroke-linejoin: miter; stroke-linecap: square"/>
   </g>
   <g id="patch_6">
    <path d="M 40.603125 22.318125 
L 1065.233125 22.318125 
" style="fill: none; stroke: #000000; stroke-width: 0.8; stroke-linejoin: miter; stroke-linecap: square"/>
   </g>
   <g id="text_22">
    <!-- 7.038 -->
    <g transform="translate(89.936591 440.493752) rotate(-90) scale(0.1 -0.1)">
     <defs>
      <path id="DejaVuSans-37" d="M 525 4666 
L 3525 4666 
L 3525 4397 
L 1831 0 
L 1172 0 
L 2766 4134 
L 525 4134 
L 525 4666 
z
" transform="scale(0.015625)"/>
      <path id="DejaVuSans-2e" d="M 684 794 
L 1344 794 
L 1344 0 
L 684 0 
L 684 794 
z
" transform="scale(0.015625)"/>
     </defs>
     <use xlink:href="#DejaVuSans-37"/>
     <use xlink:href="#DejaVuSans-2e" transform="translate(63.623047 0)"/>
     <use xlink:href="#DejaVuSans-30" transform="translate(95.410156 0)"/>
     <use xlink:href="#DejaVuSans-33" transform="translate(159.033203 0)"/>
     <use xlink:href="#DejaVuSans-38" transform="translate(222.65625 0)"/>
    </g>
   </g>
   <g id="text_23">
    <!-- 6.195 -->
    <g transform="translate(114.357463 473.279045) rotate(-90) scale(0.1 -0.1)">
     <defs>
      <path id="DejaVuSans-39" d="M 703 97 
L 703 672 
Q 941 559 1184 500 
Q 1428 441 1663 441 
Q 2288 441 2617 861 
Q 2947 1281 2994 2138 
Q 2813 1869 2534 1725 
Q 2256 1581 1919 1581 
Q 1219 1581 811 2004 
Q 403 2428 403 3163 
Q 403 3881 828 4315 
Q 1253 4750 1959 4750 
Q 2769 4750 3195 4129 
Q 3622 3509 3622 2328 
Q 3622 1225 3098 567 
Q 2575 -91 1691 -91 
Q 1453 -91 1209 -44 
Q 966 3 703 97 
z
M 1959 2075 
Q 2384 2075 2632 2365 
Q 2881 2656 2881 3163 
Q 2881 3666 2632 3958 
Q 2384 4250 1959 4250 
Q 1534 4250 1286 3958 
Q 1038 3666 1038 3163 
Q 1038 2656 1286 2365 
Q 1534 2075 1959 2075 
z
" transform="scale(0.015625)"/>
      <path id="DejaVuSans-35" d="M 691 4666 
L 3169 4666 
L 3169 4134 
L 1269 4134 
L 1269 2991 
Q 1406 3038 1543 3061 
Q 1681 3084 1819 3084 
Q 2600 3084 3056 2656 
Q 3513 2228 3513 1497 
Q 3513 744 3044 326 
Q 2575 -91 1722 -91 
Q 1428 -91 1123 -41 
Q 819 9 494 109 
L 494 744 
Q 775 591 1075 516 
Q 1375 441 1709 441 
Q 2250 441 2565 725 
Q 2881 1009 2881 1497 
Q 2881 1984 2565 2268 
Q 2250 2553 1709 2553 
Q 1456 2553 1204 2497 
Q 953 2441 691 2322 
L 691 4666 
z
" transform="scale(0.015625)"/>
     </defs>
     <use xlink:href="#DejaVuSans-36"/>
     <use xlink:href="#DejaVuSans-2e" transform="translate(63.623047 0)"/>
     <use xlink:href="#DejaVuSans-31" transform="translate(95.410156 0)"/>
     <use xlink:href="#DejaVuSans-39" transform="translate(159.033203 0)"/>
     <use xlink:href="#DejaVuSans-35" transform="translate(222.65625 0)"/>
    </g>
   </g>
   <g id="text_24">
    <!-- 7.843 -->
    <g transform="translate(159.71051 409.4503) rotate(-90) scale(0.1 -0.1)">
     <use xlink:href="#DejaVuSans-37"/>
     <use xlink:href="#DejaVuSans-2e" transform="translate(63.623047 0)"/>
     <use xlink:href="#DejaVuSans-38" transform="translate(95.410156 0)"/>
     <use xlink:href="#DejaVuSans-34" transform="translate(159.033203 0)"/>
     <use xlink:href="#DejaVuSans-33" transform="translate(222.65625 0)"/>
    </g>
   </g>
   <g id="text_25">
    <!-- 6.593 -->
    <g transform="translate(184.131382 457.641196) rotate(-90) scale(0.1 -0.1)">
     <use xlink:href="#DejaVuSans-36"/>
     <use xlink:href="#DejaVuSans-2e" transform="translate(63.623047 0)"/>
     <use xlink:href="#DejaVuSans-35" transform="translate(95.410156 0)"/>
     <use xlink:href="#DejaVuSans-39" transform="translate(159.033203 0)"/>
     <use xlink:href="#DejaVuSans-33" transform="translate(222.65625 0)"/>
    </g>
   </g>
   <g id="text_26">
    <!-- 7.358 -->
    <g transform="translate(229.484429 428.146045) rotate(-90) scale(0.1 -0.1)">
     <use xlink:href="#DejaVuSans-37"/>
     <use xlink:href="#DejaVuSans-2e" transform="translate(63.623047 0)"/>
     <use xlink:href="#DejaVuSans-33" transform="translate(95.410156 0)"/>
     <use xlink:href="#DejaVuSans-35" transform="translate(159.033203 0)"/>
     <use xlink:href="#DejaVuSans-38" transform="translate(222.65625 0)"/>
    </g>
   </g>
   <g id="text_27">
    <!-- 7.179 -->
    <g transform="translate(253.9053 434.765035) rotate(-90) scale(0.1 -0.1)">
     <use xlink:href="#DejaVuSans-37"/>
     <use xlink:href="#DejaVuSans-2e" transform="translate(63.623047 0)"/>
     <use xlink:href="#DejaVuSans-31" transform="translate(95.410156 0)"/>
     <use xlink:href="#DejaVuSans-37" transform="translate(159.033203 0)"/>
     <use xlink:href="#DejaVuSans-39" transform="translate(222.65625 0)"/>
    </g>
   </g>
   <g id="text_28">
    <!-- 7.351 -->
    <g transform="translate(299.258348 428.358936) rotate(-90) scale(0.1 -0.1)">
     <use xlink:href="#DejaVuSans-37"/>
     <use xlink:href="#DejaVuSans-2e" transform="translate(63.623047 0)"/>
     <use xlink:href="#DejaVuSans-33" transform="translate(95.410156 0)"/>
     <use xlink:href="#DejaVuSans-35" transform="translate(159.033203 0)"/>
     <use xlink:href="#DejaVuSans-31" transform="translate(222.65625 0)"/>
    </g>
   </g>
   <g id="text_29">
    <!-- 7.272 -->
    <g transform="translate(323.679219 430.836219) rotate(-90) scale(0.1 -0.1)">
     <use xlink:href="#DejaVuSans-37"/>
     <use xlink:href="#DejaVuSans-2e" transform="translate(63.623047 0)"/>
     <use xlink:href="#DejaVuSans-32" transform="translate(95.410156 0)"/>
     <use xlink:href="#DejaVuSans-37" transform="translate(159.033203 0)"/>
     <use xlink:href="#DejaVuSans-32" transform="translate(222.65625 0)"/>
    </g>
   </g>
   <g id="text_30">
    <!-- 7.560 -->
    <g transform="translate(369.032267 420.423889) rotate(-90) scale(0.1 -0.1)">
     <use xlink:href="#DejaVuSans-37"/>
     <use xlink:href="#DejaVuSans-2e" transform="translate(63.623047 0)"/>
     <use xlink:href="#DejaVuSans-35" transform="translate(95.410156 0)"/>
     <use xlink:href="#DejaVuSans-36" transform="translate(159.033203 0)"/>
     <use xlink:href="#DejaVuSans-30" transform="translate(222.65625 0)"/>
    </g>
   </g>
   <g id="text_31">
    <!-- 8.504 -->
    <g transform="translate(393.453138 383.709781) rotate(-90) scale(0.1 -0.1)">
     <use xlink:href="#DejaVuSans-38"/>
     <use xlink:href="#DejaVuSans-2e" transform="translate(63.623047 0)"/>
     <use xlink:href="#DejaVuSans-35" transform="translate(95.410156 0)"/>
     <use xlink:href="#DejaVuSans-30" transform="translate(159.033203 0)"/>
     <use xlink:href="#DejaVuSans-34" transform="translate(222.65625 0)"/>
    </g>
   </g>
   <g id="text_32">
    <!-- 7.579 -->
    <g transform="translate(438.806186 419.456201) rotate(-90) scale(0.1 -0.1)">
     <use xlink:href="#DejaVuSans-37"/>
     <use xlink:href="#DejaVuSans-2e" transform="translate(63.623047 0)"/>
     <use xlink:href="#DejaVuSans-35" transform="translate(95.410156 0)"/>
     <use xlink:href="#DejaVuSans-37" transform="translate(159.033203 0)"/>
     <use xlink:href="#DejaVuSans-39" transform="translate(222.65625 0)"/>
    </g>
   </g>
   <g id="text_33">
    <!-- 8.533 -->
    <g transform="translate(463.227057 382.296956) rotate(-90) scale(0.1 -0.1)">
     <use xlink:href="#DejaVuSans-38"/>
     <use xlink:href="#DejaVuSans-2e" transform="translate(63.623047 0)"/>
     <use xlink:href="#DejaVuSans-35" transform="translate(95.410156 0)"/>
     <use xlink:href="#DejaVuSans-33" transform="translate(159.033203 0)"/>
     <use xlink:href="#DejaVuSans-33" transform="translate(222.65625 0)"/>
    </g>
   </g>
   <g id="text_34">
    <!-- 7.759 -->
    <g transform="translate(508.580105 412.353366) rotate(-90) scale(0.1 -0.1)">
     <use xlink:href="#DejaVuSans-37"/>
     <use xlink:href="#DejaVuSans-2e" transform="translate(63.623047 0)"/>
     <use xlink:href="#DejaVuSans-37" transform="translate(95.410156 0)"/>
     <use xlink:href="#DejaVuSans-35" transform="translate(159.033203 0)"/>
     <use xlink:href="#DejaVuSans-39" transform="translate(222.65625 0)"/>
    </g>
   </g>
   <g id="text_35">
    <!-- 8.668 -->
    <g transform="translate(533.000976 376.219871) rotate(-90) scale(0.1 -0.1)">
     <use xlink:href="#DejaVuSans-38"/>
     <use xlink:href="#DejaVuSans-2e" transform="translate(63.623047 0)"/>
     <use xlink:href="#DejaVuSans-36" transform="translate(95.410156 0)"/>
     <use xlink:href="#DejaVuSans-36" transform="translate(159.033203 0)"/>
     <use xlink:href="#DejaVuSans-38" transform="translate(222.65625 0)"/>
    </g>
   </g>
   <g id="text_36">
    <!-- 9.511 -->
    <g transform="translate(578.354024 343.957131) rotate(-90) scale(0.1 -0.1)">
     <use xlink:href="#DejaVuSans-39"/>
     <use xlink:href="#DejaVuSans-2e" transform="translate(63.623047 0)"/>
     <use xlink:href="#DejaVuSans-35" transform="translate(95.410156 0)"/>
     <use xlink:href="#DejaVuSans-31" transform="translate(159.033203 0)"/>
     <use xlink:href="#DejaVuSans-31" transform="translate(222.65625 0)"/>
    </g>
   </g>
   <g id="text_37">
    <!-- 9.383 -->
    <g transform="translate(602.774895 349.724555) rotate(-90) scale(0.1 -0.1)">
     <use xlink:href="#DejaVuSans-39"/>
     <use xlink:href="#DejaVuSans-2e" transform="translate(63.623047 0)"/>
     <use xlink:href="#DejaVuSans-33" transform="translate(95.410156 0)"/>
     <use xlink:href="#DejaVuSans-38" transform="translate(159.033203 0)"/>
     <use xlink:href="#DejaVuSans-33" transform="translate(222.65625 0)"/>
    </g>
   </g>
   <g id="text_38">
    <!-- 9.613 -->
    <g transform="translate(648.127943 340.318621) rotate(-90) scale(0.1 -0.1)">
     <use xlink:href="#DejaVuSans-39"/>
     <use xlink:href="#DejaVuSans-2e" transform="translate(63.623047 0)"/>
     <use xlink:href="#DejaVuSans-36" transform="translate(95.410156 0)"/>
     <use xlink:href="#DejaVuSans-31" transform="translate(159.033203 0)"/>
     <use xlink:href="#DejaVuSans-33" transform="translate(222.65625 0)"/>
    </g>
   </g>
   <g id="text_39">
    <!-- 9.486 -->
    <g transform="translate(672.548814 345.640909) rotate(-90) scale(0.1 -0.1)">
     <use xlink:href="#DejaVuSans-39"/>
     <use xlink:href="#DejaVuSans-2e" transform="translate(63.623047 0)"/>
     <use xlink:href="#DejaVuSans-34" transform="translate(95.410156 0)"/>
     <use xlink:href="#DejaVuSans-38" transform="translate(159.033203 0)"/>
     <use xlink:href="#DejaVuSans-36" transform="translate(222.65625 0)"/>
    </g>
   </g>
   <g id="text_40">
    <!-- 9.660 -->
    <g transform="translate(717.901862 333.757692) rotate(-90) scale(0.1 -0.1)">
     <use xlink:href="#DejaVuSans-39"/>
     <use xlink:href="#DejaVuSans-2e" transform="translate(63.623047 0)"/>
     <use xlink:href="#DejaVuSans-36" transform="translate(95.410156 0)"/>
     <use xlink:href="#DejaVuSans-36" transform="translate(159.033203 0)"/>
     <use xlink:href="#DejaVuSans-30" transform="translate(222.65625 0)"/>
    </g>
   </g>
   <g id="text_41">
    <!-- 9.515 -->
    <g transform="translate(742.322733 343.937777) rotate(-90) scale(0.1 -0.1)">
     <use xlink:href="#DejaVuSans-39"/>
     <use xlink:href="#DejaVuSans-2e" transform="translate(63.623047 0)"/>
     <use xlink:href="#DejaVuSans-35" transform="translate(95.410156 0)"/>
     <use xlink:href="#DejaVuSans-31" transform="translate(159.033203 0)"/>
     <use xlink:href="#DejaVuSans-35" transform="translate(222.65625 0)"/>
    </g>
   </g>
   <g id="text_42">
    <!-- 9.807 -->
    <g transform="translate(787.675781 333.312555) rotate(-90) scale(0.1 -0.1)">
     <use xlink:href="#DejaVuSans-39"/>
     <use xlink:href="#DejaVuSans-2e" transform="translate(63.623047 0)"/>
     <use xlink:href="#DejaVuSans-38" transform="translate(95.410156 0)"/>
     <use xlink:href="#DejaVuSans-30" transform="translate(159.033203 0)"/>
     <use xlink:href="#DejaVuSans-37" transform="translate(222.65625 0)"/>
    </g>
   </g>
   <g id="text_43">
    <!-- 9.747 -->
    <g transform="translate(812.096652 335.422117) rotate(-90) scale(0.1 -0.1)">
     <use xlink:href="#DejaVuSans-39"/>
     <use xlink:href="#DejaVuSans-2e" transform="translate(63.623047 0)"/>
     <use xlink:href="#DejaVuSans-37" transform="translate(95.410156 0)"/>
     <use xlink:href="#DejaVuSans-34" transform="translate(159.033203 0)"/>
     <use xlink:href="#DejaVuSans-37" transform="translate(222.65625 0)"/>
    </g>
   </g>
   <g id="text_44">
    <!-- 10.287 -->
    <g transform="translate(857.4497 309.449353) rotate(-90) scale(0.1 -0.1)">
     <use xlink:href="#DejaVuSans-31"/>
     <use xlink:href="#DejaVuSans-30" transform="translate(63.623047 0)"/>
     <use xlink:href="#DejaVuSans-2e" transform="translate(127.246094 0)"/>
     <use xlink:href="#DejaVuSans-32" transform="translate(159.033203 0)"/>
     <use xlink:href="#DejaVuSans-38" transform="translate(222.65625 0)"/>
     <use xlink:href="#DejaVuSans-37" transform="translate(286.279297 0)"/>
    </g>
   </g>
   <g id="text_45">
    <!-- 11.482 -->
    <g transform="translate(881.870571 267.12265) rotate(-90) scale(0.1 -0.1)">
     <use xlink:href="#DejaVuSans-31"/>
     <use xlink:href="#DejaVuSans-31" transform="translate(63.623047 0)"/>
     <use xlink:href="#DejaVuSans-2e" transform="translate(127.246094 0)"/>
     <use xlink:href="#DejaVuSans-34" transform="translate(159.033203 0)"/>
     <use xlink:href="#DejaVuSans-38" transform="translate(222.65625 0)"/>
     <use xlink:href="#DejaVuSans-32" transform="translate(286.279297 0)"/>
    </g>
   </g>
   <g id="text_46">
    <!-- 14.233 -->
    <g transform="translate(927.223618 161.702646) rotate(-90) scale(0.1 -0.1)">
     <use xlink:href="#DejaVuSans-31"/>
     <use xlink:href="#DejaVuSans-34" transform="translate(63.623047 0)"/>
     <use xlink:href="#DejaVuSans-2e" transform="translate(127.246094 0)"/>
     <use xlink:href="#DejaVuSans-32" transform="translate(159.033203 0)"/>
     <use xlink:href="#DejaVuSans-33" transform="translate(222.65625 0)"/>
     <use xlink:href="#DejaVuSans-33" transform="translate(286.279297 0)"/>
    </g>
   </g>
   <g id="text_47">
    <!-- 13.570 -->
    <g transform="translate(951.64449 186.49483) rotate(-90) scale(0.1 -0.1)">
     <use xlink:href="#DejaVuSans-31"/>
     <use xlink:href="#DejaVuSans-33" transform="translate(63.623047 0)"/>
     <use xlink:href="#DejaVuSans-2e" transform="translate(127.246094 0)"/>
     <use xlink:href="#DejaVuSans-35" transform="translate(159.033203 0)"/>
     <use xlink:href="#DejaVuSans-37" transform="translate(222.65625 0)"/>
     <use xlink:href="#DejaVuSans-30" transform="translate(286.279297 0)"/>
    </g>
   </g>
   <g id="text_48">
    <!-- 15.822 -->
    <g transform="translate(996.997537 100.312477) rotate(-90) scale(0.1 -0.1)">
     <use xlink:href="#DejaVuSans-31"/>
     <use xlink:href="#DejaVuSans-35" transform="translate(63.623047 0)"/>
     <use xlink:href="#DejaVuSans-2e" transform="translate(127.246094 0)"/>
     <use xlink:href="#DejaVuSans-38" transform="translate(159.033203 0)"/>
     <use xlink:href="#DejaVuSans-32" transform="translate(222.65625 0)"/>
     <use xlink:href="#DejaVuSans-32" transform="translate(286.279297 0)"/>
    </g>
   </g>
   <g id="text_49">
    <!-- 14.868 -->
    <g transform="translate(1021.418409 137.355599) rotate(-90) scale(0.1 -0.1)">
     <use xlink:href="#DejaVuSans-31"/>
     <use xlink:href="#DejaVuSans-34" transform="translate(63.623047 0)"/>
     <use xlink:href="#DejaVuSans-2e" transform="translate(127.246094 0)"/>
     <use xlink:href="#DejaVuSans-38" transform="translate(159.033203 0)"/>
     <use xlink:href="#DejaVuSans-36" transform="translate(222.65625 0)"/>
     <use xlink:href="#DejaVuSans-38" transform="translate(286.279297 0)"/>
    </g>
   </g>
   <g id="text_50">
    <!-- Write (u64 write word) on distribution 1/x (first billion integers) -->
    <g transform="translate(358.918437 16.318125) scale(0.12 -0.12)">
     <defs>
      <path id="DejaVuSans-57" d="M 213 4666 
L 850 4666 
L 1831 722 
L 2809 4666 
L 3519 4666 
L 4500 722 
L 5478 4666 
L 6119 4666 
L 4947 0 
L 4153 0 
L 3169 4050 
L 2175 0 
L 1381 0 
L 213 4666 
z
" transform="scale(0.015625)"/>
      <path id="DejaVuSans-72" d="M 2631 2963 
Q 2534 3019 2420 3045 
Q 2306 3072 2169 3072 
Q 1681 3072 1420 2755 
Q 1159 2438 1159 1844 
L 1159 0 
L 581 0 
L 581 3500 
L 1159 3500 
L 1159 2956 
Q 1341 3275 1631 3429 
Q 1922 3584 2338 3584 
Q 2397 3584 2469 3576 
Q 2541 3569 2628 3553 
L 2631 2963 
z
" transform="scale(0.015625)"/>
      <path id="DejaVuSans-75" d="M 544 1381 
L 544 3500 
L 1119 3500 
L 1119 1403 
Q 1119 906 1312 657 
Q 1506 409 1894 409 
Q 2359 409 2629 706 
Q 2900 1003 2900 1516 
L 2900 3500 
L 3475 3500 
L 3475 0 
L 2900 0 
L 2900 538 
Q 2691 219 2414 64 
Q 2138 -91 1772 -91 
Q 1169 -91 856 284 
Q 544 659 544 1381 
z
M 1991 3584 
L 1991 3584 
z
" transform="scale(0.015625)"/>
      <path id="DejaVuSans-77" d="M 269 3500 
L 844 3500 
L 1563 769 
L 2278 3500 
L 2956 3500 
L 3675 769 
L 4391 3500 
L 4966 3500 
L 4050 0 
L 3372 0 
L 2619 2869 
L 1863 0 
L 1184 0 
L 269 3500 
z
" transform="scale(0.015625)"/>
      <path id="DejaVuSans-2248" d="M 4684 1947 
L 4684 1388 
Q 4356 1144 4076 1036 
Q 3797 928 3494 928 
Q 3150 928 2694 1113 
Q 2663 1125 2641 1134 
Q 2622 1141 2575 1159 
Q 2091 1350 1797 1350 
Q 1522 1350 1253 1231 
Q 984 1113 678 850 
L 678 1409 
Q 1006 1653 1286 1761 
Q 1566 1869 1869 1869 
Q 2213 1869 2672 1684 
Q 2706 1669 2722 1663 
Q 2741 1656 2788 1638 
Q 3272 1447 3566 1447 
Q 3834 1447 4098 1564 
Q 4363 1681 4684 1947 
z
M 4684 3163 
L 4684 2606 
Q 4356 2359 4076 2251 
Q 3797 2144 3494 2144 
Q 3150 2144 2694 2328 
Q 2663 2341 2641 2350 
Q 2622 2356 2575 2375 
Q 2091 2566 1797 2566 
Q 1522 2566 1253 2447 
Q 984 2328 678 2069 
L 678 2625 
Q 1006 2869 1286 2976 
Q 1566 3084 1869 3084 
Q 2213 3084 2672 2900 
Q 2703 2888 2719 2881 
Q 2741 2872 2788 2853 
Q 3272 2663 3566 2663 
Q 3834 2663 4098 2780 
Q 4363 2897 4684 3163 
z
" transform="scale(0.015625)"/>
      <path id="DejaVuSans-2f" d="M 1625 4666 
L 2156 4666 
L 531 -594 
L 0 -594 
L 1625 4666 
z
" transform="scale(0.015625)"/>
      <path id="DejaVuSans-66" d="M 2375 4863 
L 2375 4384 
L 1825 4384 
Q 1516 4384 1395 4259 
Q 1275 4134 1275 3809 
L 1275 3500 
L 2222 3500 
L 2222 3053 
L 1275 3053 
L 1275 0 
L 697 0 
L 697 3053 
L 147 3053 
L 147 3500 
L 697 3500 
L 697 3744 
Q 697 4328 969 4595 
Q 1241 4863 1831 4863 
L 2375 4863 
z
" transform="scale(0.015625)"/>
     </defs>
     <use xlink:href="#DejaVuSans-57"/>
     <use xlink:href="#DejaVuSans-72" transform="translate(94.376953 0)"/>
     <use xlink:href="#DejaVuSans-69" transform="translate(135.490234 0)"/>
     <use xlink:href="#DejaVuSans-74" transform="translate(163.273438 0)"/>
     <use xlink:href="#DejaVuSans-65" transform="translate(202.482422 0)"/>
     <use xlink:href="#DejaVuSans-20" transform="translate(264.005859 0)"/>
     <use xlink:href="#DejaVuSans-28" transform="translate(295.792969 0)"/>
     <use xlink:href="#DejaVuSans-75" transform="translate(334.806641 0)"/>
     <use xlink:href="#DejaVuSans-36" transform="translate(398.185547 0)"/>
     <use xlink:href="#DejaVuSans-34" transform="translate(461.808594 0)"/>
     <use xlink:href="#DejaVuSans-20" transform="translate(525.431641 0)"/>
     <use xlink:href="#DejaVuSans-77" transform="translate(557.21875 0)"/>
     <use xlink:href="#DejaVuSans-72" transform="translate(639.005859 0)"/>
     <use xlink:href="#DejaVuSans-69" transform="translate(680.119141 0)"/>
     <use xlink:href="#DejaVuSans-74" transform="translate(707.902344 0)"/>
     <use xlink:href="#DejaVuSans-65" transform="translate(747.111328 0)"/>
     <use xlink:href="#DejaVuSans-20" transform="translate(808.634766 0)"/>
     <use xlink:href="#DejaVuSans-77" transform="translate(840.421875 0)"/>
     <use xlink:href="#DejaVuSans-6f" transform="translate(922.208984 0)"/>
     <use xlink:href="#DejaVuSans-72" transform="translate(983.390625 0)"/>
     <use xlink:href="#DejaVuSans-64" transform="translate(1022.753906 0)"/>
     <use xlink:href="#DejaVuSans-29" transform="translate(1086.230469 0)"/>
     <use xlink:href="#DejaVuSans-20" transform="translate(1125.244141 0)"/>
     <use xlink:href="#DejaVuSans-6f" transform="translate(1157.03125 0)"/>
     <use xlink:href="#DejaVuSans-6e" transform="translate(1218.212891 0)"/>
     <use xlink:href="#DejaVuSans-20" transform="translate(1281.591797 0)"/>
     <use xlink:href="#DejaVuSans-64" transform="translate(1313.378906 0)"/>
     <use xlink:href="#DejaVuSans-69" transform="translate(1376.855469 0)"/>
     <use xlink:href="#DejaVuSans-73" transform="translate(1404.638672 0)"/>
     <use xlink:href="#DejaVuSans-74" transform="translate(1456.738281 0)"/>
     <use xlink:href="#DejaVuSans-72" transform="translate(1495.947266 0)"/>
     <use xlink:href="#DejaVuSans-69" transform="translate(1537.060547 0)"/>
     <use xlink:href="#DejaVuSans-62" transform="translate(1564.84375 0)"/>
     <use xlink:href="#DejaVuSans-75" transform="translate(1628.320312 0)"/>
     <use xlink:href="#DejaVuSans-74" transform="translate(1691.699219 0)"/>
     <use xlink:href="#DejaVuSans-69" transform="translate(1730.908203 0)"/>
     <use xlink:href="#DejaVuSans-6f" transform="translate(1758.691406 0)"/>
     <use xlink:href="#DejaVuSans-6e" transform="translate(1819.873047 0)"/>
     <use xlink:href="#DejaVuSans-20" transform="translate(1883.251953 0)"/>
     <use xlink:href="#DejaVuSans-2248" transform="translate(1915.039062 0)"/>
     <use xlink:href="#DejaVuSans-31" transform="translate(1998.828125 0)"/>
     <use xlink:href="#DejaVuSans-2f" transform="translate(2062.451172 0)"/>
     <use xlink:href="#DejaVuSans-78" transform="translate(2096.142578 0)"/>
     <use xlink:href="#DejaVuSans-20" transform="translate(2155.322266 0)"/>
     <use xlink:href="#DejaVuSans-28" transform="translate(2187.109375 0)"/>
     <use xlink:href="#DejaVuSans-66" transform="translate(2226.123047 0)"/>
     <use xlink:href="#DejaVuSans-69" transform="translate(2261.328125 0)"/>
     <use xlink:href="#DejaVuSans-72" transform="translate(2289.111328 0)"/>
     <use xlink:href="#DejaVuSans-73" transform="translate(2330.224609 0)"/>
     <use xlink:href="#DejaVuSans-74" transform="translate(2382.324219 0)"/>
     <use xlink:href="#DejaVuSans-20" transform="translate(2421.533203 0)"/>
     <use xlink:href="#DejaVuSans-62" transform="translate(2453.320312 0)"/>
     <use xlink:href="#DejaVuSans-69" transform="translate(2516.796875 0)"/>
     <use xlink:href="#DejaVuSans-6c" transform="translate(2544.580078 0)"/>
     <use xlink:href="#DejaVuSans-6c" transform="translate(2572.363281 0)"/>
     <use xlink:href="#DejaVuSans-69" transform="translate(2600.146484 0)"/>
     <use xlink:href="#DejaVuSans-6f" transform="translate(2627.929688 0)"/>
     <use xlink:href="#DejaVuSans-6e" transform="translate(2689.111328 0)"/>
     <use xlink:href="#DejaVuSans-20" transform="translate(2752.490234 0)"/>
     <use xlink:href="#DejaVuSans-69" transform="translate(2784.277344 0)"/>
     <use xlink:href="#DejaVuSans-6e" transform="translate(2812.060547 0)"/>
     <use xlink:href="#DejaVuSans-74" transform="translate(2875.439453 0)"/>
     <use xlink:href="#DejaVuSans-65" transform="translate(2914.648438 0)"/>
     <use xlink:href="#DejaVuSans-67" transform="translate(2976.171875 0)"/>
     <use xlink:href="#DejaVuSans-65" transform="translate(3039.648438 0)"/>
     <use xlink:href="#DejaVuSans-72" transform="translate(3101.171875 0)"/>
     <use xlink:href="#DejaVuSans-73" transform="translate(3142.285156 0)"/>
     <use xlink:href="#DejaVuSans-29" transform="translate(3194.384766 0)"/>
    </g>
   </g>
   <g id="legend_1">
    <g id="patch_7">
     <path d="M 963.684687 59.674375 
L 1058.233125 59.674375 
Q 1060.233125 59.674375 1060.233125 57.674375 
L 1060.233125 29.318125 
Q 1060.233125 27.318125 1058.233125 27.318125 
L 963.684687 27.318125 
Q 961.684687 27.318125 961.684687 29.318125 
L 961.684687 57.674375 
Q 961.684687 59.674375 963.684687 59.674375 
z
" style="fill: #ffffff; opacity: 0.8; stroke: #cccccc; stroke-linejoin: miter"/>
    </g>
    <g id="LineCollection_3">
     <path d="M 975.684687 40.416562 
L 975.684687 30.416562 
" style="fill: none; stroke: #1f77b4; stroke-width: 1.5"/>
    </g>
    <g id="line2d_33">
     <g>
      <use xlink:href="#mdaa21823b1" x="975.684687" y="40.416562" style="fill: #1f77b4; stroke: #1f77b4"/>
     </g>
    </g>
    <g id="line2d_34">
     <g>
      <use xlink:href="#mdaa21823b1" x="975.684687" y="30.416562" style="fill: #1f77b4; stroke: #1f77b4"/>
     </g>
    </g>
    <g id="line2d_35"/>
    <g id="line2d_36">
     <g>
      <use xlink:href="#m093278c9c0" x="975.684687" y="35.416562" style="fill: #1f77b4; stroke: #1f77b4"/>
     </g>
    </g>
    <g id="text_51">
     <!-- Little Endian -->
     <g transform="translate(993.684687 38.916562) scale(0.1 -0.1)">
      <defs>
       <path id="DejaVuSans-4c" d="M 628 4666 
L 1259 4666 
L 1259 531 
L 3531 531 
L 3531 0 
L 628 0 
L 628 4666 
z
" transform="scale(0.015625)"/>
       <path id="DejaVuSans-45" d="M 628 4666 
L 3578 4666 
L 3578 4134 
L 1259 4134 
L 1259 2753 
L 3481 2753 
L 3481 2222 
L 1259 2222 
L 1259 531 
L 3634 531 
L 3634 0 
L 628 0 
L 628 4666 
z
" transform="scale(0.015625)"/>
      </defs>
      <use xlink:href="#DejaVuSans-4c"/>
      <use xlink:href="#DejaVuSans-69" transform="translate(55.712891 0)"/>
      <use xlink:href="#DejaVuSans-74" transform="translate(83.496094 0)"/>
      <use xlink:href="#DejaVuSans-74" transform="translate(122.705078 0)"/>
      <use xlink:href="#DejaVuSans-6c" transform="translate(161.914062 0)"/>
      <use xlink:href="#DejaVuSans-65" transform="translate(189.697266 0)"/>
      <use xlink:href="#DejaVuSans-20" transform="translate(251.220703 0)"/>
      <use xlink:href="#DejaVuSans-45" transform="translate(283.007812 0)"/>
      <use xlink:href="#DejaVuSans-6e" transform="translate(346.191406 0)"/>
      <use xlink:href="#DejaVuSans-64" transform="translate(409.570312 0)"/>
      <use xlink:href="#DejaVuSans-69" transform="translate(473.046875 0)"/>
      <use xlink:href="#DejaVuSans-61" transform="translate(500.830078 0)"/>
      <use xlink:href="#DejaVuSans-6e" transform="translate(562.109375 0)"/>
     </g>
    </g>
    <g id="LineCollection_4">
     <path d="M 975.684687 55.094687 
L 975.684687 45.094687 
" style="fill: none; stroke: #ff7f0e; stroke-width: 1.5"/>
    </g>
    <g id="line2d_37">
     <g>
      <use xlink:href="#mf23a5c327c" x="975.684687" y="55.094687" style="fill: #ff7f0e; stroke: #ff7f0e"/>
     </g>
    </g>
    <g id="line2d_38">
     <g>
      <use xlink:href="#mf23a5c327c" x="975.684687" y="45.094687" style="fill: #ff7f0e; stroke: #ff7f0e"/>
     </g>
    </g>
    <g id="line2d_39"/>
    <g id="line2d_40">
     <g>
      <use xlink:href="#m81c7d65af1" x="975.684687" y="50.094687" style="fill: #ff7f0e; stroke: #ff7f0e"/>
     </g>
    </g>
    <g id="text_52">
     <!-- Big Endian -->
     <g transform="translate(993.684687 53.594687) scale(0.1 -0.1)">
      <defs>
       <path id="DejaVuSans-42" d="M 1259 2228 
L 1259 519 
L 2272 519 
Q 2781 519 3026 730 
Q 3272 941 3272 1375 
Q 3272 1813 3026 2020 
Q 2781 2228 2272 2228 
L 1259 2228 
z
M 1259 4147 
L 1259 2741 
L 2194 2741 
Q 2656 2741 2882 2914 
Q 3109 3088 3109 3444 
Q 3109 3797 2882 3972 
Q 2656 4147 2194 4147 
L 1259 4147 
z
M 628 4666 
L 2241 4666 
Q 2963 4666 3353 4366 
Q 3744 4066 3744 3513 
Q 3744 3084 3544 2831 
Q 3344 2578 2956 2516 
Q 3422 2416 3680 2098 
Q 3938 1781 3938 1306 
Q 3938 681 3513 340 
Q 3088 0 2303 0 
L 628 0 
L 628 4666 
z
" transform="scale(0.015625)"/>
      </defs>
      <use xlink:href="#DejaVuSans-42"/>
      <use xlink:href="#DejaVuSans-69" transform="translate(68.603516 0)"/>
      <use xlink:href="#DejaVuSans-67" transform="translate(96.386719 0)"/>
      <use xlink:href="#DejaVuSans-20" transform="translate(159.863281 0)"/>
      <use xlink:href="#DejaVuSans-45" transform="translate(191.650391 0)"/>
      <use xlink:href="#DejaVuSans-6e" transform="translate(254.833984 0)"/>
      <use xlink:href="#DejaVuSans-64" transform="translate(318.212891 0)"/>
      <use xlink:href="#DejaVuSans-69" transform="translate(381.689453 0)"/>
      <use xlink:href="#DejaVuSans-61" transform="translate(409.472656 0)"/>
      <use xlink:href="#DejaVuSans-6e" transform="translate(470.751953 0)"/>
     </g>
    </g>
   </g>
  </g>
 </g>
 <defs>
  <clipPath id="p898443bf8b">
   <rect x="40.603125" y="22.318125" width="1024.63" height="473.746117"/>
  </clipPath>
 </defs>
</svg>
