<?xml version="1.0" encoding="utf-8" standalone="no"?>
<!DOCTYPE svg PUBLIC "-//W3C//DTD SVG 1.1//EN"
  "http://www.w3.org/Graphics/SVG/1.1/DTD/svg11.dtd">
<svg xmlns:xlink="http://www.w3.org/1999/xlink" width="865.078125pt" height="516.83175pt" viewBox="0 0 865.078125 516.83175" xmlns="http://www.w3.org/2000/svg" version="1.1">
 <metadata>
  <rdf:RDF xmlns:dc="http://purl.org/dc/elements/1.1/" xmlns:cc="http://creativecommons.org/ns#" xmlns:rdf="http://www.w3.org/1999/02/22-rdf-syntax-ns#">
   <cc:Work>
    <dc:type rdf:resource="http://purl.org/dc/dcmitype/StillImage"/>
    <dc:date>2024-01-14T09:15:44.112217</dc:date>
    <dc:format>image/svg+xml</dc:format>
    <dc:creator>
     <cc:Agent>
      <dc:title>Matplotlib v3.8.2, https://matplotlib.org/</dc:title>
     </cc:Agent>
    </dc:creator>
   </cc:Work>
  </rdf:RDF>
 </metadata>
 <defs>
  <style type="text/css">*{stroke-linejoin: round; stroke-linecap: butt}</style>
 </defs>
 <g id="figure_1">
  <g id="patch_1">
   <path d="M 0 516.83175 
L 865.078125 516.83175 
L 865.078125 0 
L 0 0 
z
" style="fill: #ffffff"/>
  </g>
  <g id="axes_1">
   <g id="patch_2">
    <path d="M 40.603125 479.2755 
L 598.603125 479.2755 
L 598.603125 35.7555 
L 40.603125 35.7555 
z
" style="fill: #ffffff"/>
   </g>
   <g id="PolyCollection_1">
    <path d="M 73.426654 311.730188 
L 73.426654 312.463418 
L 106.250184 342.48544 
L 139.073713 357.700445 
L 171.897243 361.974247 
L 204.720772 362.034125 
L 237.544301 364.459189 
L 270.367831 362.960034 
L 303.19136 365.208099 
L 336.01489 363.064009 
L 368.838419 363.093999 
L 401.661949 365.222375 
L 434.485478 362.877081 
L 467.309007 363.743112 
L 500.132537 365.68456 
L 532.956066 363.535985 
L 565.779596 362.296304 
L 565.779596 362.066615 
L 565.779596 362.066615 
L 532.956066 363.381889 
L 500.132537 365.451995 
L 467.309007 363.417871 
L 434.485478 362.527567 
L 401.661949 365.073997 
L 368.838419 363.065481 
L 336.01489 362.707374 
L 303.19136 363.075478 
L 270.367831 362.820249 
L 237.544301 364.333646 
L 204.720772 361.94566 
L 171.897243 361.77739 
L 139.073713 357.524986 
L 106.250184 342.232984 
L 73.426654 311.730188 
z
" clip-path="url(#p3112c80b8e)" style="fill: #1f77b4; fill-opacity: 0.3"/>
   </g>
   <g id="PolyCollection_2">
    <path d="M 73.426654 306.952845 
L 73.426654 310.501976 
L 106.250184 339.602505 
L 139.073713 355.537868 
L 171.897243 360.606249 
L 204.720772 360.647572 
L 237.544301 363.417837 
L 270.367831 361.686186 
L 303.19136 364.740197 
L 336.01489 362.072572 
L 368.838419 361.815837 
L 401.661949 364.223818 
L 434.485478 362.158093 
L 467.309007 362.751709 
L 500.132537 364.801548 
L 532.956066 362.749963 
L 565.779596 361.240675 
L 565.779596 360.961104 
L 565.779596 360.961104 
L 532.956066 362.657252 
L 500.132537 364.607533 
L 467.309007 362.674678 
L 434.485478 361.771536 
L 401.661949 363.678885 
L 368.838419 361.420721 
L 336.01489 362.009818 
L 303.19136 362.63897 
L 270.367831 361.308153 
L 237.544301 363.298011 
L 204.720772 360.58338 
L 171.897243 360.252456 
L 139.073713 355.328173 
L 106.250184 339.36145 
L 73.426654 306.952845 
z
" clip-path="url(#p3112c80b8e)" style="fill: #ff7f0e; fill-opacity: 0.3"/>
   </g>
   <g id="PolyCollection_3">
    <path d="M 73.426654 314.253714 
L 73.426654 315.326461 
L 106.250184 343.025785 
L 139.073713 358.516492 
L 171.897243 363.533109 
L 204.720772 365.471989 
L 237.544301 366.239455 
L 270.367831 363.607606 
L 303.19136 361.747639 
L 336.01489 363.506302 
L 368.838419 361.734595 
L 401.661949 364.05257 
L 434.485478 363.995567 
L 467.309007 364.407835 
L 500.132537 362.015535 
L 532.956066 361.915772 
L 565.779596 361.69317 
L 565.779596 361.320855 
L 565.779596 361.320855 
L 532.956066 361.149744 
L 500.132537 361.686049 
L 467.309007 364.039834 
L 434.485478 363.847223 
L 401.661949 364.01693 
L 368.838419 361.433628 
L 336.01489 362.657492 
L 303.19136 360.880308 
L 270.367831 363.45779 
L 237.544301 365.529095 
L 204.720772 363.958455 
L 171.897243 363.263501 
L 139.073713 358.219803 
L 106.250184 342.760457 
L 73.426654 314.253714 
z
" clip-path="url(#p3112c80b8e)" style="fill: #2ca02c; fill-opacity: 0.3"/>
   </g>
   <g id="PolyCollection_4">
    <path d="M 73.426654 308.071297 
L 73.426654 308.844446 
L 106.250184 339.488055 
L 139.073713 356.860365 
L 171.897243 361.898346 
L 204.720772 364.456348 
L 237.544301 365.855739 
L 270.367831 362.984205 
L 303.19136 360.920227 
L 336.01489 363.223856 
L 368.838419 361.064154 
L 401.661949 363.26802 
L 434.485478 363.24094 
L 467.309007 363.232449 
L 500.132537 361.102601 
L 532.956066 361.135502 
L 565.779596 360.550548 
L 565.779596 360.392207 
L 565.779596 360.392207 
L 532.956066 360.847304 
L 500.132537 360.951416 
L 467.309007 362.935693 
L 434.485478 363.161068 
L 401.661949 362.510552 
L 368.838419 360.977127 
L 336.01489 362.733119 
L 303.19136 360.817553 
L 270.367831 362.141147 
L 237.544301 365.33508 
L 204.720772 364.098275 
L 171.897243 360.212229 
L 139.073713 356.463777 
L 106.250184 338.834731 
L 73.426654 308.071297 
z
" clip-path="url(#p3112c80b8e)" style="fill: #d62728; fill-opacity: 0.3"/>
   </g>
   <g id="PolyCollection_5">
    <path d="M 73.426654 225.511447 
L 73.426654 225.875922 
L 106.250184 224.009913 
L 139.073713 221.517302 
L 171.897243 219.542165 
L 204.720772 218.605763 
L 237.544301 221.527983 
L 270.367831 214.282165 
L 303.19136 215.043914 
L 336.01489 219.148538 
L 368.838419 215.017432 
L 401.661949 220.167073 
L 434.485478 217.616449 
L 467.309007 218.497406 
L 500.132537 217.635775 
L 532.956066 214.945999 
L 565.779596 213.476664 
L 565.779596 210.889698 
L 565.779596 210.889698 
L 532.956066 214.555847 
L 500.132537 217.252025 
L 467.309007 214.045304 
L 434.485478 216.835426 
L 401.661949 219.600743 
L 368.838419 211.81066 
L 336.01489 218.739146 
L 303.19136 214.819977 
L 270.367831 212.77363 
L 237.544301 221.092178 
L 204.720772 218.001654 
L 171.897243 218.245499 
L 139.073713 219.259172 
L 106.250184 223.705351 
L 73.426654 225.511447 
z
" clip-path="url(#p3112c80b8e)" style="fill: #9467bd; fill-opacity: 0.3"/>
   </g>
   <g id="PolyCollection_6">
    <path d="M 73.426654 222.756161 
L 73.426654 223.18197 
L 106.250184 221.392289 
L 139.073713 218.045236 
L 171.897243 217.016568 
L 204.720772 217.848294 
L 237.544301 212.84633 
L 270.367831 215.981823 
L 303.19136 211.843595 
L 336.01489 214.830538 
L 368.838419 213.277822 
L 401.661949 216.495275 
L 434.485478 215.007384 
L 467.309007 216.279195 
L 500.132537 218.344714 
L 532.956066 211.913967 
L 565.779596 210.993844 
L 565.779596 210.655045 
L 565.779596 210.655045 
L 532.956066 210.083067 
L 500.132537 215.19717 
L 467.309007 215.535301 
L 434.485478 214.359761 
L 401.661949 213.71361 
L 368.838419 212.734344 
L 336.01489 213.958962 
L 303.19136 210.699535 
L 270.367831 215.468986 
L 237.544301 212.00827 
L 204.720772 215.328397 
L 171.897243 213.640756 
L 139.073713 217.02956 
L 106.250184 220.927246 
L 73.426654 222.756161 
z
" clip-path="url(#p3112c80b8e)" style="fill: #8c564b; fill-opacity: 0.3"/>
   </g>
   <g id="patch_3">
    <path d="M 60.297243 479.2755 
L 86.556066 479.2755 
L 86.556066 459.772485 
L 60.297243 459.772485 
z
" clip-path="url(#p3112c80b8e)" style="fill: #0000ff; fill-opacity: 0.3; stroke: #000000; stroke-linejoin: miter"/>
   </g>
   <g id="patch_4">
    <path d="M 93.120772 479.2755 
L 119.379596 479.2755 
L 119.379596 456.300197 
L 93.120772 456.300197 
z
" clip-path="url(#p3112c80b8e)" style="fill: #0000ff; fill-opacity: 0.3; stroke: #000000; stroke-linejoin: miter"/>
   </g>
   <g id="patch_5">
    <path d="M 125.944301 479.2755 
L 152.203125 479.2755 
L 152.203125 453.68414 
L 125.944301 453.68414 
z
" clip-path="url(#p3112c80b8e)" style="fill: #0000ff; fill-opacity: 0.3; stroke: #000000; stroke-linejoin: miter"/>
   </g>
   <g id="patch_6">
    <path d="M 158.767831 479.2755 
L 185.026654 479.2755 
L 185.026654 451.789338 
L 158.767831 451.789338 
z
" clip-path="url(#p3112c80b8e)" style="fill: #0000ff; fill-opacity: 0.3; stroke: #000000; stroke-linejoin: miter"/>
   </g>
   <g id="patch_7">
    <path d="M 191.59136 479.2755 
L 217.850184 479.2755 
L 217.850184 450.396417 
L 191.59136 450.396417 
z
" clip-path="url(#p3112c80b8e)" style="fill: #0000ff; fill-opacity: 0.3; stroke: #000000; stroke-linejoin: miter"/>
   </g>
   <g id="patch_8">
    <path d="M 224.41489 479.2755 
L 250.673713 479.2755 
L 250.673713 449.369144 
L 224.41489 449.369144 
z
" clip-path="url(#p3112c80b8e)" style="fill: #0000ff; fill-opacity: 0.3; stroke: #000000; stroke-linejoin: miter"/>
   </g>
   <g id="patch_9">
    <path d="M 257.238419 479.2755 
L 283.497243 479.2755 
L 283.497243 448.581697 
L 257.238419 448.581697 
z
" clip-path="url(#p3112c80b8e)" style="fill: #0000ff; fill-opacity: 0.3; stroke: #000000; stroke-linejoin: miter"/>
   </g>
   <g id="patch_10">
    <path d="M 290.061949 479.2755 
L 316.320772 479.2755 
L 316.320772 447.963064 
L 290.061949 447.963064 
z
" clip-path="url(#p3112c80b8e)" style="fill: #0000ff; fill-opacity: 0.3; stroke: #000000; stroke-linejoin: miter"/>
   </g>
   <g id="patch_11">
    <path d="M 322.885478 479.2755 
L 349.144301 479.2755 
L 349.144301 447.462634 
L 322.885478 447.462634 
z
" clip-path="url(#p3112c80b8e)" style="fill: #0000ff; fill-opacity: 0.3; stroke: #000000; stroke-linejoin: miter"/>
   </g>
   <g id="patch_12">
    <path d="M 355.709007 479.2755 
L 381.967831 479.2755 
L 381.967831 447.051799 
L 355.709007 447.051799 
z
" clip-path="url(#p3112c80b8e)" style="fill: #0000ff; fill-opacity: 0.3; stroke: #000000; stroke-linejoin: miter"/>
   </g>
   <g id="patch_13">
    <path d="M 388.532537 479.2755 
L 414.79136 479.2755 
L 414.79136 446.710138 
L 388.532537 446.710138 
z
" clip-path="url(#p3112c80b8e)" style="fill: #0000ff; fill-opacity: 0.3; stroke: #000000; stroke-linejoin: miter"/>
   </g>
   <g id="patch_14">
    <path d="M 421.356066 479.2755 
L 447.61489 479.2755 
L 447.61489 446.413762 
L 421.356066 446.413762 
z
" clip-path="url(#p3112c80b8e)" style="fill: #0000ff; fill-opacity: 0.3; stroke: #000000; stroke-linejoin: miter"/>
   </g>
   <g id="patch_15">
    <path d="M 454.179596 479.2755 
L 480.438419 479.2755 
L 480.438419 446.163463 
L 454.179596 446.163463 
z
" clip-path="url(#p3112c80b8e)" style="fill: #0000ff; fill-opacity: 0.3; stroke: #000000; stroke-linejoin: miter"/>
   </g>
   <g id="patch_16">
    <path d="M 487.003125 479.2755 
L 513.261949 479.2755 
L 513.261949 445.93585 
L 487.003125 445.93585 
z
" clip-path="url(#p3112c80b8e)" style="fill: #0000ff; fill-opacity: 0.3; stroke: #000000; stroke-linejoin: miter"/>
   </g>
   <g id="patch_17">
    <path d="M 519.826654 479.2755 
L 546.085478 479.2755 
L 546.085478 445.742097 
L 519.826654 445.742097 
z
" clip-path="url(#p3112c80b8e)" style="fill: #0000ff; fill-opacity: 0.3; stroke: #000000; stroke-linejoin: miter"/>
   </g>
   <g id="patch_18">
    <path d="M 552.650184 479.2755 
L 578.909007 479.2755 
L 578.909007 445.566454 
L 552.650184 445.566454 
z
" clip-path="url(#p3112c80b8e)" style="fill: #0000ff; fill-opacity: 0.3; stroke: #000000; stroke-linejoin: miter"/>
   </g>
   <g id="matplotlib.axis_1">
    <g id="xtick_1">
     <g id="line2d_1">
      <defs>
       <path id="m95711f9d68" d="M 0 0 
L 0 3.5 
" style="stroke: #000000; stroke-width: 0.8"/>
      </defs>
      <g>
       <use xlink:href="#m95711f9d68" x="73.426654" y="479.2755" style="stroke: #000000; stroke-width: 0.8"/>
      </g>
     </g>
     <g id="text_1">
      <!-- 1 -->
      <g transform="translate(70.245404 493.873938) scale(0.1 -0.1)">
       <defs>
        <path id="DejaVuSans-31" d="M 794 531 
L 1825 531 
L 1825 4091 
L 703 3866 
L 703 4441 
L 1819 4666 
L 2450 4666 
L 2450 531 
L 3481 531 
L 3481 0 
L 794 0 
L 794 531 
z
" transform="scale(0.015625)"/>
       </defs>
       <use xlink:href="#DejaVuSans-31"/>
      </g>
     </g>
    </g>
    <g id="xtick_2">
     <g id="line2d_2">
      <g>
       <use xlink:href="#m95711f9d68" x="106.250184" y="479.2755" style="stroke: #000000; stroke-width: 0.8"/>
      </g>
     </g>
     <g id="text_2">
      <!-- 2 -->
      <g transform="translate(103.068934 493.873938) scale(0.1 -0.1)">
       <defs>
        <path id="DejaVuSans-32" d="M 1228 531 
L 3431 531 
L 3431 0 
L 469 0 
L 469 531 
Q 828 903 1448 1529 
Q 2069 2156 2228 2338 
Q 2531 2678 2651 2914 
Q 2772 3150 2772 3378 
Q 2772 3750 2511 3984 
Q 2250 4219 1831 4219 
Q 1534 4219 1204 4116 
Q 875 4013 500 3803 
L 500 4441 
Q 881 4594 1212 4672 
Q 1544 4750 1819 4750 
Q 2544 4750 2975 4387 
Q 3406 4025 3406 3419 
Q 3406 3131 3298 2873 
Q 3191 2616 2906 2266 
Q 2828 2175 2409 1742 
Q 1991 1309 1228 531 
z
" transform="scale(0.015625)"/>
       </defs>
       <use xlink:href="#DejaVuSans-32"/>
      </g>
     </g>
    </g>
    <g id="xtick_3">
     <g id="line2d_3">
      <g>
       <use xlink:href="#m95711f9d68" x="139.073713" y="479.2755" style="stroke: #000000; stroke-width: 0.8"/>
      </g>
     </g>
     <g id="text_3">
      <!-- 3 -->
      <g transform="translate(135.892463 493.873938) scale(0.1 -0.1)">
       <defs>
        <path id="DejaVuSans-33" d="M 2597 2516 
Q 3050 2419 3304 2112 
Q 3559 1806 3559 1356 
Q 3559 666 3084 287 
Q 2609 -91 1734 -91 
Q 1441 -91 1130 -33 
Q 819 25 488 141 
L 488 750 
Q 750 597 1062 519 
Q 1375 441 1716 441 
Q 2309 441 2620 675 
Q 2931 909 2931 1356 
Q 2931 1769 2642 2001 
Q 2353 2234 1838 2234 
L 1294 2234 
L 1294 2753 
L 1863 2753 
Q 2328 2753 2575 2939 
Q 2822 3125 2822 3475 
Q 2822 3834 2567 4026 
Q 2313 4219 1838 4219 
Q 1578 4219 1281 4162 
Q 984 4106 628 3988 
L 628 4550 
Q 988 4650 1302 4700 
Q 1616 4750 1894 4750 
Q 2613 4750 3031 4423 
Q 3450 4097 3450 3541 
Q 3450 3153 3228 2886 
Q 3006 2619 2597 2516 
z
" transform="scale(0.015625)"/>
       </defs>
       <use xlink:href="#DejaVuSans-33"/>
      </g>
     </g>
    </g>
    <g id="xtick_4">
     <g id="line2d_4">
      <g>
       <use xlink:href="#m95711f9d68" x="171.897243" y="479.2755" style="stroke: #000000; stroke-width: 0.8"/>
      </g>
     </g>
     <g id="text_4">
      <!-- 4 -->
      <g transform="translate(168.715993 493.873938) scale(0.1 -0.1)">
       <defs>
        <path id="DejaVuSans-34" d="M 2419 4116 
L 825 1625 
L 2419 1625 
L 2419 4116 
z
M 2253 4666 
L 3047 4666 
L 3047 1625 
L 3713 1625 
L 3713 1100 
L 3047 1100 
L 3047 0 
L 2419 0 
L 2419 1100 
L 313 1100 
L 313 1709 
L 2253 4666 
z
" transform="scale(0.015625)"/>
       </defs>
       <use xlink:href="#DejaVuSans-34"/>
      </g>
     </g>
    </g>
    <g id="xtick_5">
     <g id="line2d_5">
      <g>
       <use xlink:href="#m95711f9d68" x="204.720772" y="479.2755" style="stroke: #000000; stroke-width: 0.8"/>
      </g>
     </g>
     <g id="text_5">
      <!-- 5 -->
      <g transform="translate(201.539522 493.873938) scale(0.1 -0.1)">
       <defs>
        <path id="DejaVuSans-35" d="M 691 4666 
L 3169 4666 
L 3169 4134 
L 1269 4134 
L 1269 2991 
Q 1406 3038 1543 3061 
Q 1681 3084 1819 3084 
Q 2600 3084 3056 2656 
Q 3513 2228 3513 1497 
Q 3513 744 3044 326 
Q 2575 -91 1722 -91 
Q 1428 -91 1123 -41 
Q 819 9 494 109 
L 494 744 
Q 775 591 1075 516 
Q 1375 441 1709 441 
Q 2250 441 2565 725 
Q 2881 1009 2881 1497 
Q 2881 1984 2565 2268 
Q 2250 2553 1709 2553 
Q 1456 2553 1204 2497 
Q 953 2441 691 2322 
L 691 4666 
z
" transform="scale(0.015625)"/>
       </defs>
       <use xlink:href="#DejaVuSans-35"/>
      </g>
     </g>
    </g>
    <g id="xtick_6">
     <g id="line2d_6">
      <g>
       <use xlink:href="#m95711f9d68" x="237.544301" y="479.2755" style="stroke: #000000; stroke-width: 0.8"/>
      </g>
     </g>
     <g id="text_6">
      <!-- 6 -->
      <g transform="translate(234.363051 493.873938) scale(0.1 -0.1)">
       <defs>
        <path id="DejaVuSans-36" d="M 2113 2584 
Q 1688 2584 1439 2293 
Q 1191 2003 1191 1497 
Q 1191 994 1439 701 
Q 1688 409 2113 409 
Q 2538 409 2786 701 
Q 3034 994 3034 1497 
Q 3034 2003 2786 2293 
Q 2538 2584 2113 2584 
z
M 3366 4563 
L 3366 3988 
Q 3128 4100 2886 4159 
Q 2644 4219 2406 4219 
Q 1781 4219 1451 3797 
Q 1122 3375 1075 2522 
Q 1259 2794 1537 2939 
Q 1816 3084 2150 3084 
Q 2853 3084 3261 2657 
Q 3669 2231 3669 1497 
Q 3669 778 3244 343 
Q 2819 -91 2113 -91 
Q 1303 -91 875 529 
Q 447 1150 447 2328 
Q 447 3434 972 4092 
Q 1497 4750 2381 4750 
Q 2619 4750 2861 4703 
Q 3103 4656 3366 4563 
z
" transform="scale(0.015625)"/>
       </defs>
       <use xlink:href="#DejaVuSans-36"/>
      </g>
     </g>
    </g>
    <g id="xtick_7">
     <g id="line2d_7">
      <g>
       <use xlink:href="#m95711f9d68" x="270.367831" y="479.2755" style="stroke: #000000; stroke-width: 0.8"/>
      </g>
     </g>
     <g id="text_7">
      <!-- 7 -->
      <g transform="translate(267.186581 493.873938) scale(0.1 -0.1)">
       <defs>
        <path id="DejaVuSans-37" d="M 525 4666 
L 3525 4666 
L 3525 4397 
L 1831 0 
L 1172 0 
L 2766 4134 
L 525 4134 
L 525 4666 
z
" transform="scale(0.015625)"/>
       </defs>
       <use xlink:href="#DejaVuSans-37"/>
      </g>
     </g>
    </g>
    <g id="xtick_8">
     <g id="line2d_8">
      <g>
       <use xlink:href="#m95711f9d68" x="303.19136" y="479.2755" style="stroke: #000000; stroke-width: 0.8"/>
      </g>
     </g>
     <g id="text_8">
      <!-- 8 -->
      <g transform="translate(300.01011 493.873938) scale(0.1 -0.1)">
       <defs>
        <path id="DejaVuSans-38" d="M 2034 2216 
Q 1584 2216 1326 1975 
Q 1069 1734 1069 1313 
Q 1069 891 1326 650 
Q 1584 409 2034 409 
Q 2484 409 2743 651 
Q 3003 894 3003 1313 
Q 3003 1734 2745 1975 
Q 2488 2216 2034 2216 
z
M 1403 2484 
Q 997 2584 770 2862 
Q 544 3141 544 3541 
Q 544 4100 942 4425 
Q 1341 4750 2034 4750 
Q 2731 4750 3128 4425 
Q 3525 4100 3525 3541 
Q 3525 3141 3298 2862 
Q 3072 2584 2669 2484 
Q 3125 2378 3379 2068 
Q 3634 1759 3634 1313 
Q 3634 634 3220 271 
Q 2806 -91 2034 -91 
Q 1263 -91 848 271 
Q 434 634 434 1313 
Q 434 1759 690 2068 
Q 947 2378 1403 2484 
z
M 1172 3481 
Q 1172 3119 1398 2916 
Q 1625 2713 2034 2713 
Q 2441 2713 2670 2916 
Q 2900 3119 2900 3481 
Q 2900 3844 2670 4047 
Q 2441 4250 2034 4250 
Q 1625 4250 1398 4047 
Q 1172 3844 1172 3481 
z
" transform="scale(0.015625)"/>
       </defs>
       <use xlink:href="#DejaVuSans-38"/>
      </g>
     </g>
    </g>
    <g id="xtick_9">
     <g id="line2d_9">
      <g>
       <use xlink:href="#m95711f9d68" x="336.01489" y="479.2755" style="stroke: #000000; stroke-width: 0.8"/>
      </g>
     </g>
     <g id="text_9">
      <!-- 9 -->
      <g transform="translate(332.83364 493.873938) scale(0.1 -0.1)">
       <defs>
        <path id="DejaVuSans-39" d="M 703 97 
L 703 672 
Q 941 559 1184 500 
Q 1428 441 1663 441 
Q 2288 441 2617 861 
Q 2947 1281 2994 2138 
Q 2813 1869 2534 1725 
Q 2256 1581 1919 1581 
Q 1219 1581 811 2004 
Q 403 2428 403 3163 
Q 403 3881 828 4315 
Q 1253 4750 1959 4750 
Q 2769 4750 3195 4129 
Q 3622 3509 3622 2328 
Q 3622 1225 3098 567 
Q 2575 -91 1691 -91 
Q 1453 -91 1209 -44 
Q 966 3 703 97 
z
M 1959 2075 
Q 2384 2075 2632 2365 
Q 2881 2656 2881 3163 
Q 2881 3666 2632 3958 
Q 2384 4250 1959 4250 
Q 1534 4250 1286 3958 
Q 1038 3666 1038 3163 
Q 1038 2656 1286 2365 
Q 1534 2075 1959 2075 
z
" transform="scale(0.015625)"/>
       </defs>
       <use xlink:href="#DejaVuSans-39"/>
      </g>
     </g>
    </g>
    <g id="xtick_10">
     <g id="line2d_10">
      <g>
       <use xlink:href="#m95711f9d68" x="368.838419" y="479.2755" style="stroke: #000000; stroke-width: 0.8"/>
      </g>
     </g>
     <g id="text_10">
      <!-- 10 -->
      <g transform="translate(362.475919 493.873938) scale(0.1 -0.1)">
       <defs>
        <path id="DejaVuSans-30" d="M 2034 4250 
Q 1547 4250 1301 3770 
Q 1056 3291 1056 2328 
Q 1056 1369 1301 889 
Q 1547 409 2034 409 
Q 2525 409 2770 889 
Q 3016 1369 3016 2328 
Q 3016 3291 2770 3770 
Q 2525 4250 2034 4250 
z
M 2034 4750 
Q 2819 4750 3233 4129 
Q 3647 3509 3647 2328 
Q 3647 1150 3233 529 
Q 2819 -91 2034 -91 
Q 1250 -91 836 529 
Q 422 1150 422 2328 
Q 422 3509 836 4129 
Q 1250 4750 2034 4750 
z
" transform="scale(0.015625)"/>
       </defs>
       <use xlink:href="#DejaVuSans-31"/>
       <use xlink:href="#DejaVuSans-30" x="63.623047"/>
      </g>
     </g>
    </g>
    <g id="xtick_11">
     <g id="line2d_11">
      <g>
       <use xlink:href="#m95711f9d68" x="401.661949" y="479.2755" style="stroke: #000000; stroke-width: 0.8"/>
      </g>
     </g>
     <g id="text_11">
      <!-- 11 -->
      <g transform="translate(395.299449 493.873938) scale(0.1 -0.1)">
       <use xlink:href="#DejaVuSans-31"/>
       <use xlink:href="#DejaVuSans-31" x="63.623047"/>
      </g>
     </g>
    </g>
    <g id="xtick_12">
     <g id="line2d_12">
      <g>
       <use xlink:href="#m95711f9d68" x="434.485478" y="479.2755" style="stroke: #000000; stroke-width: 0.8"/>
      </g>
     </g>
     <g id="text_12">
      <!-- 12 -->
      <g transform="translate(428.122978 493.873938) scale(0.1 -0.1)">
       <use xlink:href="#DejaVuSans-31"/>
       <use xlink:href="#DejaVuSans-32" x="63.623047"/>
      </g>
     </g>
    </g>
    <g id="xtick_13">
     <g id="line2d_13">
      <g>
       <use xlink:href="#m95711f9d68" x="467.309007" y="479.2755" style="stroke: #000000; stroke-width: 0.8"/>
      </g>
     </g>
     <g id="text_13">
      <!-- 13 -->
      <g transform="translate(460.946507 493.873938) scale(0.1 -0.1)">
       <use xlink:href="#DejaVuSans-31"/>
       <use xlink:href="#DejaVuSans-33" x="63.623047"/>
      </g>
     </g>
    </g>
    <g id="xtick_14">
     <g id="line2d_14">
      <g>
       <use xlink:href="#m95711f9d68" x="500.132537" y="479.2755" style="stroke: #000000; stroke-width: 0.8"/>
      </g>
     </g>
     <g id="text_14">
      <!-- 14 -->
      <g transform="translate(493.770037 493.873938) scale(0.1 -0.1)">
       <use xlink:href="#DejaVuSans-31"/>
       <use xlink:href="#DejaVuSans-34" x="63.623047"/>
      </g>
     </g>
    </g>
    <g id="xtick_15">
     <g id="line2d_15">
      <g>
       <use xlink:href="#m95711f9d68" x="532.956066" y="479.2755" style="stroke: #000000; stroke-width: 0.8"/>
      </g>
     </g>
     <g id="text_15">
      <!-- 15 -->
      <g transform="translate(526.593566 493.873938) scale(0.1 -0.1)">
       <use xlink:href="#DejaVuSans-31"/>
       <use xlink:href="#DejaVuSans-35" x="63.623047"/>
      </g>
     </g>
    </g>
    <g id="xtick_16">
     <g id="line2d_16">
      <g>
       <use xlink:href="#m95711f9d68" x="565.779596" y="479.2755" style="stroke: #000000; stroke-width: 0.8"/>
      </g>
     </g>
     <g id="text_16">
      <!-- 16 -->
      <g transform="translate(559.417096 493.873938) scale(0.1 -0.1)">
       <use xlink:href="#DejaVuSans-31"/>
       <use xlink:href="#DejaVuSans-36" x="63.623047"/>
      </g>
     </g>
    </g>
    <g id="text_17">
     <!-- log₂(table size) -->
     <g transform="translate(282.126562 507.552063) scale(0.1 -0.1)">
      <defs>
       <path id="DejaVuSans-6c" d="M 603 4863 
L 1178 4863 
L 1178 0 
L 603 0 
L 603 4863 
z
" transform="scale(0.015625)"/>
       <path id="DejaVuSans-6f" d="M 1959 3097 
Q 1497 3097 1228 2736 
Q 959 2375 959 1747 
Q 959 1119 1226 758 
Q 1494 397 1959 397 
Q 2419 397 2687 759 
Q 2956 1122 2956 1747 
Q 2956 2369 2687 2733 
Q 2419 3097 1959 3097 
z
M 1959 3584 
Q 2709 3584 3137 3096 
Q 3566 2609 3566 1747 
Q 3566 888 3137 398 
Q 2709 -91 1959 -91 
Q 1206 -91 779 398 
Q 353 888 353 1747 
Q 353 2609 779 3096 
Q 1206 3584 1959 3584 
z
" transform="scale(0.015625)"/>
       <path id="DejaVuSans-67" d="M 2906 1791 
Q 2906 2416 2648 2759 
Q 2391 3103 1925 3103 
Q 1463 3103 1205 2759 
Q 947 2416 947 1791 
Q 947 1169 1205 825 
Q 1463 481 1925 481 
Q 2391 481 2648 825 
Q 2906 1169 2906 1791 
z
M 3481 434 
Q 3481 -459 3084 -895 
Q 2688 -1331 1869 -1331 
Q 1566 -1331 1297 -1286 
Q 1028 -1241 775 -1147 
L 775 -588 
Q 1028 -725 1275 -790 
Q 1522 -856 1778 -856 
Q 2344 -856 2625 -561 
Q 2906 -266 2906 331 
L 2906 616 
Q 2728 306 2450 153 
Q 2172 0 1784 0 
Q 1141 0 747 490 
Q 353 981 353 1791 
Q 353 2603 747 3093 
Q 1141 3584 1784 3584 
Q 2172 3584 2450 3431 
Q 2728 3278 2906 2969 
L 2906 3500 
L 3481 3500 
L 3481 434 
z
" transform="scale(0.015625)"/>
       <path id="DejaVuSans-2082" d="M 838 356 
L 2163 356 
L 2163 0 
L 294 0 
L 294 343 
Q 400 440 597 615 
Q 1672 1568 1672 1862 
Q 1672 2068 1509 2194 
Q 1347 2321 1081 2321 
Q 919 2321 728 2266 
Q 538 2212 313 2103 
L 313 2487 
Q 553 2575 761 2618 
Q 969 2662 1147 2662 
Q 1600 2662 1872 2456 
Q 2144 2250 2144 1912 
Q 2144 1478 1109 590 
Q 934 440 838 356 
z
" transform="scale(0.015625)"/>
       <path id="DejaVuSans-28" d="M 1984 4856 
Q 1566 4138 1362 3434 
Q 1159 2731 1159 2009 
Q 1159 1288 1364 580 
Q 1569 -128 1984 -844 
L 1484 -844 
Q 1016 -109 783 600 
Q 550 1309 550 2009 
Q 550 2706 781 3412 
Q 1013 4119 1484 4856 
L 1984 4856 
z
" transform="scale(0.015625)"/>
       <path id="DejaVuSans-74" d="M 1172 4494 
L 1172 3500 
L 2356 3500 
L 2356 3053 
L 1172 3053 
L 1172 1153 
Q 1172 725 1289 603 
Q 1406 481 1766 481 
L 2356 481 
L 2356 0 
L 1766 0 
Q 1100 0 847 248 
Q 594 497 594 1153 
L 594 3053 
L 172 3053 
L 172 3500 
L 594 3500 
L 594 4494 
L 1172 4494 
z
" transform="scale(0.015625)"/>
       <path id="DejaVuSans-61" d="M 2194 1759 
Q 1497 1759 1228 1600 
Q 959 1441 959 1056 
Q 959 750 1161 570 
Q 1363 391 1709 391 
Q 2188 391 2477 730 
Q 2766 1069 2766 1631 
L 2766 1759 
L 2194 1759 
z
M 3341 1997 
L 3341 0 
L 2766 0 
L 2766 531 
Q 2569 213 2275 61 
Q 1981 -91 1556 -91 
Q 1019 -91 701 211 
Q 384 513 384 1019 
Q 384 1609 779 1909 
Q 1175 2209 1959 2209 
L 2766 2209 
L 2766 2266 
Q 2766 2663 2505 2880 
Q 2244 3097 1772 3097 
Q 1472 3097 1187 3025 
Q 903 2953 641 2809 
L 641 3341 
Q 956 3463 1253 3523 
Q 1550 3584 1831 3584 
Q 2591 3584 2966 3190 
Q 3341 2797 3341 1997 
z
" transform="scale(0.015625)"/>
       <path id="DejaVuSans-62" d="M 3116 1747 
Q 3116 2381 2855 2742 
Q 2594 3103 2138 3103 
Q 1681 3103 1420 2742 
Q 1159 2381 1159 1747 
Q 1159 1113 1420 752 
Q 1681 391 2138 391 
Q 2594 391 2855 752 
Q 3116 1113 3116 1747 
z
M 1159 2969 
Q 1341 3281 1617 3432 
Q 1894 3584 2278 3584 
Q 2916 3584 3314 3078 
Q 3713 2572 3713 1747 
Q 3713 922 3314 415 
Q 2916 -91 2278 -91 
Q 1894 -91 1617 61 
Q 1341 213 1159 525 
L 1159 0 
L 581 0 
L 581 4863 
L 1159 4863 
L 1159 2969 
z
" transform="scale(0.015625)"/>
       <path id="DejaVuSans-65" d="M 3597 1894 
L 3597 1613 
L 953 1613 
Q 991 1019 1311 708 
Q 1631 397 2203 397 
Q 2534 397 2845 478 
Q 3156 559 3463 722 
L 3463 178 
Q 3153 47 2828 -22 
Q 2503 -91 2169 -91 
Q 1331 -91 842 396 
Q 353 884 353 1716 
Q 353 2575 817 3079 
Q 1281 3584 2069 3584 
Q 2775 3584 3186 3129 
Q 3597 2675 3597 1894 
z
M 3022 2063 
Q 3016 2534 2758 2815 
Q 2500 3097 2075 3097 
Q 1594 3097 1305 2825 
Q 1016 2553 972 2059 
L 3022 2063 
z
" transform="scale(0.015625)"/>
       <path id="DejaVuSans-20" transform="scale(0.015625)"/>
       <path id="DejaVuSans-73" d="M 2834 3397 
L 2834 2853 
Q 2591 2978 2328 3040 
Q 2066 3103 1784 3103 
Q 1356 3103 1142 2972 
Q 928 2841 928 2578 
Q 928 2378 1081 2264 
Q 1234 2150 1697 2047 
L 1894 2003 
Q 2506 1872 2764 1633 
Q 3022 1394 3022 966 
Q 3022 478 2636 193 
Q 2250 -91 1575 -91 
Q 1294 -91 989 -36 
Q 684 19 347 128 
L 347 722 
Q 666 556 975 473 
Q 1284 391 1588 391 
Q 1994 391 2212 530 
Q 2431 669 2431 922 
Q 2431 1156 2273 1281 
Q 2116 1406 1581 1522 
L 1381 1569 
Q 847 1681 609 1914 
Q 372 2147 372 2553 
Q 372 3047 722 3315 
Q 1072 3584 1716 3584 
Q 2034 3584 2315 3537 
Q 2597 3491 2834 3397 
z
" transform="scale(0.015625)"/>
       <path id="DejaVuSans-69" d="M 603 3500 
L 1178 3500 
L 1178 0 
L 603 0 
L 603 3500 
z
M 603 4863 
L 1178 4863 
L 1178 4134 
L 603 4134 
L 603 4863 
z
" transform="scale(0.015625)"/>
       <path id="DejaVuSans-7a" d="M 353 3500 
L 3084 3500 
L 3084 2975 
L 922 459 
L 3084 459 
L 3084 0 
L 275 0 
L 275 525 
L 2438 3041 
L 353 3041 
L 353 3500 
z
" transform="scale(0.015625)"/>
       <path id="DejaVuSans-29" d="M 513 4856 
L 1013 4856 
Q 1481 4119 1714 3412 
Q 1947 2706 1947 2009 
Q 1947 1309 1714 600 
Q 1481 -109 1013 -844 
L 513 -844 
Q 928 -128 1133 580 
Q 1338 1288 1338 2009 
Q 1338 2731 1133 3434 
Q 928 4138 513 4856 
z
" transform="scale(0.015625)"/>
      </defs>
      <use xlink:href="#DejaVuSans-6c"/>
      <use xlink:href="#DejaVuSans-6f" x="27.783203"/>
      <use xlink:href="#DejaVuSans-67" x="88.964844"/>
      <use xlink:href="#DejaVuSans-2082" x="152.441406"/>
      <use xlink:href="#DejaVuSans-28" x="192.529297"/>
      <use xlink:href="#DejaVuSans-74" x="231.542969"/>
      <use xlink:href="#DejaVuSans-61" x="270.751953"/>
      <use xlink:href="#DejaVuSans-62" x="332.03125"/>
      <use xlink:href="#DejaVuSans-6c" x="395.507812"/>
      <use xlink:href="#DejaVuSans-65" x="423.291016"/>
      <use xlink:href="#DejaVuSans-20" x="484.814453"/>
      <use xlink:href="#DejaVuSans-73" x="516.601562"/>
      <use xlink:href="#DejaVuSans-69" x="568.701172"/>
      <use xlink:href="#DejaVuSans-7a" x="596.484375"/>
      <use xlink:href="#DejaVuSans-65" x="648.974609"/>
      <use xlink:href="#DejaVuSans-29" x="710.498047"/>
     </g>
    </g>
   </g>
   <g id="matplotlib.axis_2">
    <g id="ytick_1">
     <g id="line2d_17">
      <defs>
       <path id="mf637d153af" d="M 0 0 
L -3.5 0 
" style="stroke: #000000; stroke-width: 0.8"/>
      </defs>
      <g>
       <use xlink:href="#mf637d153af" x="40.603125" y="479.2755" style="stroke: #000000; stroke-width: 0.8"/>
      </g>
     </g>
     <g id="text_18">
      <!-- 0 -->
      <g transform="translate(27.240625 483.074719) scale(0.1 -0.1)">
       <use xlink:href="#DejaVuSans-30"/>
      </g>
     </g>
    </g>
    <g id="ytick_2">
     <g id="line2d_18">
      <g>
       <use xlink:href="#mf637d153af" x="40.603125" y="410.803747" style="stroke: #000000; stroke-width: 0.8"/>
      </g>
     </g>
     <g id="text_19">
      <!-- 2 -->
      <g transform="translate(27.240625 414.602966) scale(0.1 -0.1)">
       <use xlink:href="#DejaVuSans-32"/>
      </g>
     </g>
    </g>
    <g id="ytick_3">
     <g id="line2d_19">
      <g>
       <use xlink:href="#mf637d153af" x="40.603125" y="342.331995" style="stroke: #000000; stroke-width: 0.8"/>
      </g>
     </g>
     <g id="text_20">
      <!-- 4 -->
      <g transform="translate(27.240625 346.131213) scale(0.1 -0.1)">
       <use xlink:href="#DejaVuSans-34"/>
      </g>
     </g>
    </g>
    <g id="ytick_4">
     <g id="line2d_20">
      <g>
       <use xlink:href="#mf637d153af" x="40.603125" y="273.860242" style="stroke: #000000; stroke-width: 0.8"/>
      </g>
     </g>
     <g id="text_21">
      <!-- 6 -->
      <g transform="translate(27.240625 277.659461) scale(0.1 -0.1)">
       <use xlink:href="#DejaVuSans-36"/>
      </g>
     </g>
    </g>
    <g id="ytick_5">
     <g id="line2d_21">
      <g>
       <use xlink:href="#mf637d153af" x="40.603125" y="205.388489" style="stroke: #000000; stroke-width: 0.8"/>
      </g>
     </g>
     <g id="text_22">
      <!-- 8 -->
      <g transform="translate(27.240625 209.187708) scale(0.1 -0.1)">
       <use xlink:href="#DejaVuSans-38"/>
      </g>
     </g>
    </g>
    <g id="ytick_6">
     <g id="line2d_22">
      <g>
       <use xlink:href="#mf637d153af" x="40.603125" y="136.916736" style="stroke: #000000; stroke-width: 0.8"/>
      </g>
     </g>
     <g id="text_23">
      <!-- 10 -->
      <g transform="translate(20.878125 140.715955) scale(0.1 -0.1)">
       <use xlink:href="#DejaVuSans-31"/>
       <use xlink:href="#DejaVuSans-30" x="63.623047"/>
      </g>
     </g>
    </g>
    <g id="ytick_7">
     <g id="line2d_23">
      <g>
       <use xlink:href="#mf637d153af" x="40.603125" y="68.444984" style="stroke: #000000; stroke-width: 0.8"/>
      </g>
     </g>
     <g id="text_24">
      <!-- 12 -->
      <g transform="translate(20.878125 72.244203) scale(0.1 -0.1)">
       <use xlink:href="#DejaVuSans-31"/>
       <use xlink:href="#DejaVuSans-32" x="63.623047"/>
      </g>
     </g>
    </g>
    <g id="text_25">
     <!-- ns -->
     <g transform="translate(14.798437 263.288938) rotate(-90) scale(0.1 -0.1)">
      <defs>
       <path id="DejaVuSans-6e" d="M 3513 2113 
L 3513 0 
L 2938 0 
L 2938 2094 
Q 2938 2591 2744 2837 
Q 2550 3084 2163 3084 
Q 1697 3084 1428 2787 
Q 1159 2491 1159 1978 
L 1159 0 
L 581 0 
L 581 3500 
L 1159 3500 
L 1159 2956 
Q 1366 3272 1645 3428 
Q 1925 3584 2291 3584 
Q 2894 3584 3203 3211 
Q 3513 2838 3513 2113 
z
" transform="scale(0.015625)"/>
      </defs>
      <use xlink:href="#DejaVuSans-6e"/>
      <use xlink:href="#DejaVuSans-73" x="63.378906"/>
     </g>
    </g>
   </g>
   <g id="line2d_24">
    <path d="M 7.779596 445.039624 
L 631.426654 445.039624 
" clip-path="url(#p3112c80b8e)" style="fill: none; stroke-dasharray: 5.55,2.4; stroke-dashoffset: 0; stroke: #808080; stroke-opacity: 0.3; stroke-width: 1.5"/>
   </g>
   <g id="line2d_25">
    <path d="M 73.426654 311.801536 
L 106.250184 342.328537 
L 139.073713 357.664771 
L 171.897243 361.858701 
L 204.720772 361.97274 
L 237.544301 364.420674 
L 270.367831 362.921519 
L 303.19136 363.208142 
L 336.01489 363.001254 
L 368.838419 363.071164 
L 401.661949 365.161025 
L 434.485478 362.748662 
L 467.309007 363.594768 
L 500.132537 365.61465 
L 532.956066 363.497435 
L 565.779596 362.173602 
" clip-path="url(#p3112c80b8e)" style="fill: none; stroke: #1f77b4; stroke-width: 1.5; stroke-linecap: square"/>
    <defs>
     <path id="mae857eb940" d="M 0 3 
C 0.795609 3 1.55874 2.683901 2.12132 2.12132 
C 2.683901 1.55874 3 0.795609 3 0 
C 3 -0.795609 2.683901 -1.55874 2.12132 -2.12132 
C 1.55874 -2.683901 0.795609 -3 0 -3 
C -0.795609 -3 -1.55874 -2.683901 -2.12132 -2.12132 
C -2.683901 -1.55874 -3 -0.795609 -3 0 
C -3 0.795609 -2.683901 1.55874 -2.12132 2.12132 
C -1.55874 2.683901 -0.795609 3 0 3 
z
" style="stroke: #1f77b4"/>
    </defs>
    <g clip-path="url(#p3112c80b8e)">
     <use xlink:href="#mae857eb940" x="73.426654" y="311.801536" style="fill: #1f77b4; stroke: #1f77b4"/>
     <use xlink:href="#mae857eb940" x="106.250184" y="342.328537" style="fill: #1f77b4; stroke: #1f77b4"/>
     <use xlink:href="#mae857eb940" x="139.073713" y="357.664771" style="fill: #1f77b4; stroke: #1f77b4"/>
     <use xlink:href="#mae857eb940" x="171.897243" y="361.858701" style="fill: #1f77b4; stroke: #1f77b4"/>
     <use xlink:href="#mae857eb940" x="204.720772" y="361.97274" style="fill: #1f77b4; stroke: #1f77b4"/>
     <use xlink:href="#mae857eb940" x="237.544301" y="364.420674" style="fill: #1f77b4; stroke: #1f77b4"/>
     <use xlink:href="#mae857eb940" x="270.367831" y="362.921519" style="fill: #1f77b4; stroke: #1f77b4"/>
     <use xlink:href="#mae857eb940" x="303.19136" y="363.208142" style="fill: #1f77b4; stroke: #1f77b4"/>
     <use xlink:href="#mae857eb940" x="336.01489" y="363.001254" style="fill: #1f77b4; stroke: #1f77b4"/>
     <use xlink:href="#mae857eb940" x="368.838419" y="363.071164" style="fill: #1f77b4; stroke: #1f77b4"/>
     <use xlink:href="#mae857eb940" x="401.661949" y="365.161025" style="fill: #1f77b4; stroke: #1f77b4"/>
     <use xlink:href="#mae857eb940" x="434.485478" y="362.748662" style="fill: #1f77b4; stroke: #1f77b4"/>
     <use xlink:href="#mae857eb940" x="467.309007" y="363.594768" style="fill: #1f77b4; stroke: #1f77b4"/>
     <use xlink:href="#mae857eb940" x="500.132537" y="365.61465" style="fill: #1f77b4; stroke: #1f77b4"/>
     <use xlink:href="#mae857eb940" x="532.956066" y="363.497435" style="fill: #1f77b4; stroke: #1f77b4"/>
     <use xlink:href="#mae857eb940" x="565.779596" y="362.173602" style="fill: #1f77b4; stroke: #1f77b4"/>
    </g>
   </g>
   <g id="line2d_26">
    <path d="M 73.426654 307.999915 
L 106.250184 339.399966 
L 139.073713 355.363847 
L 171.897243 360.409393 
L 204.720772 360.609057 
L 237.544301 363.342244 
L 270.367831 361.556364 
L 303.19136 363.877179 
L 336.01489 362.026936 
L 368.838419 361.704571 
L 401.661949 364.126793 
L 434.485478 362.018308 
L 467.309007 362.698917 
L 500.132537 364.77303 
L 532.956066 362.727128 
L 565.779596 361.143684 
" clip-path="url(#p3112c80b8e)" style="fill: none; stroke: #ff7f0e; stroke-width: 1.5; stroke-linecap: square"/>
    <defs>
     <path id="m3b5484938d" d="M 0 3 
C 0.795609 3 1.55874 2.683901 2.12132 2.12132 
C 2.683901 1.55874 3 0.795609 3 0 
C 3 -0.795609 2.683901 -1.55874 2.12132 -2.12132 
C 1.55874 -2.683901 0.795609 -3 0 -3 
C -0.795609 -3 -1.55874 -2.683901 -2.12132 -2.12132 
C -2.683901 -1.55874 -3 -0.795609 -3 0 
C -3 0.795609 -2.683901 1.55874 -2.12132 2.12132 
C -1.55874 2.683901 -0.795609 3 0 3 
z
" style="stroke: #ff7f0e"/>
    </defs>
    <g clip-path="url(#p3112c80b8e)">
     <use xlink:href="#m3b5484938d" x="73.426654" y="307.999915" style="fill: #ff7f0e; stroke: #ff7f0e"/>
     <use xlink:href="#m3b5484938d" x="106.250184" y="339.399966" style="fill: #ff7f0e; stroke: #ff7f0e"/>
     <use xlink:href="#m3b5484938d" x="139.073713" y="355.363847" style="fill: #ff7f0e; stroke: #ff7f0e"/>
     <use xlink:href="#m3b5484938d" x="171.897243" y="360.409393" style="fill: #ff7f0e; stroke: #ff7f0e"/>
     <use xlink:href="#m3b5484938d" x="204.720772" y="360.609057" style="fill: #ff7f0e; stroke: #ff7f0e"/>
     <use xlink:href="#m3b5484938d" x="237.544301" y="363.342244" style="fill: #ff7f0e; stroke: #ff7f0e"/>
     <use xlink:href="#m3b5484938d" x="270.367831" y="361.556364" style="fill: #ff7f0e; stroke: #ff7f0e"/>
     <use xlink:href="#m3b5484938d" x="303.19136" y="363.877179" style="fill: #ff7f0e; stroke: #ff7f0e"/>
     <use xlink:href="#m3b5484938d" x="336.01489" y="362.026936" style="fill: #ff7f0e; stroke: #ff7f0e"/>
     <use xlink:href="#m3b5484938d" x="368.838419" y="361.704571" style="fill: #ff7f0e; stroke: #ff7f0e"/>
     <use xlink:href="#m3b5484938d" x="401.661949" y="364.126793" style="fill: #ff7f0e; stroke: #ff7f0e"/>
     <use xlink:href="#m3b5484938d" x="434.485478" y="362.018308" style="fill: #ff7f0e; stroke: #ff7f0e"/>
     <use xlink:href="#m3b5484938d" x="467.309007" y="362.698917" style="fill: #ff7f0e; stroke: #ff7f0e"/>
     <use xlink:href="#m3b5484938d" x="500.132537" y="364.77303" style="fill: #ff7f0e; stroke: #ff7f0e"/>
     <use xlink:href="#m3b5484938d" x="532.956066" y="362.727128" style="fill: #ff7f0e; stroke: #ff7f0e"/>
     <use xlink:href="#m3b5484938d" x="565.779596" y="361.143684" style="fill: #ff7f0e; stroke: #ff7f0e"/>
    </g>
   </g>
   <g id="line2d_27">
    <path d="M 73.426654 314.598915 
L 106.250184 342.974431 
L 139.073713 358.469451 
L 171.897243 363.404724 
L 204.720772 364.830066 
L 237.544301 366.06403 
L 270.367831 363.553411 
L 303.19136 361.303977 
L 336.01489 362.98845 
L 368.838419 361.651847 
L 401.661949 364.028365 
L 434.485478 363.957052 
L 467.309007 364.193895 
L 500.132537 361.820117 
L 532.956066 361.484982 
L 565.779596 361.434963 
" clip-path="url(#p3112c80b8e)" style="fill: none; stroke: #2ca02c; stroke-width: 1.5; stroke-linecap: square"/>
    <defs>
     <path id="m4d73a6cdf5" d="M -3 3 
L 3 3 
L 3 -3 
L -3 -3 
z
" style="stroke: #2ca02c; stroke-linejoin: miter"/>
    </defs>
    <g clip-path="url(#p3112c80b8e)">
     <use xlink:href="#m4d73a6cdf5" x="73.426654" y="314.598915" style="fill: #2ca02c; stroke: #2ca02c; stroke-linejoin: miter"/>
     <use xlink:href="#m4d73a6cdf5" x="106.250184" y="342.974431" style="fill: #2ca02c; stroke: #2ca02c; stroke-linejoin: miter"/>
     <use xlink:href="#m4d73a6cdf5" x="139.073713" y="358.469451" style="fill: #2ca02c; stroke: #2ca02c; stroke-linejoin: miter"/>
     <use xlink:href="#m4d73a6cdf5" x="171.897243" y="363.404724" style="fill: #2ca02c; stroke: #2ca02c; stroke-linejoin: miter"/>
     <use xlink:href="#m4d73a6cdf5" x="204.720772" y="364.830066" style="fill: #2ca02c; stroke: #2ca02c; stroke-linejoin: miter"/>
     <use xlink:href="#m4d73a6cdf5" x="237.544301" y="366.06403" style="fill: #2ca02c; stroke: #2ca02c; stroke-linejoin: miter"/>
     <use xlink:href="#m4d73a6cdf5" x="270.367831" y="363.553411" style="fill: #2ca02c; stroke: #2ca02c; stroke-linejoin: miter"/>
     <use xlink:href="#m4d73a6cdf5" x="303.19136" y="361.303977" style="fill: #2ca02c; stroke: #2ca02c; stroke-linejoin: miter"/>
     <use xlink:href="#m4d73a6cdf5" x="336.01489" y="362.98845" style="fill: #2ca02c; stroke: #2ca02c; stroke-linejoin: miter"/>
     <use xlink:href="#m4d73a6cdf5" x="368.838419" y="361.651847" style="fill: #2ca02c; stroke: #2ca02c; stroke-linejoin: miter"/>
     <use xlink:href="#m4d73a6cdf5" x="401.661949" y="364.028365" style="fill: #2ca02c; stroke: #2ca02c; stroke-linejoin: miter"/>
     <use xlink:href="#m4d73a6cdf5" x="434.485478" y="363.957052" style="fill: #2ca02c; stroke: #2ca02c; stroke-linejoin: miter"/>
     <use xlink:href="#m4d73a6cdf5" x="467.309007" y="364.193895" style="fill: #2ca02c; stroke: #2ca02c; stroke-linejoin: miter"/>
     <use xlink:href="#m4d73a6cdf5" x="500.132537" y="361.820117" style="fill: #2ca02c; stroke: #2ca02c; stroke-linejoin: miter"/>
     <use xlink:href="#m4d73a6cdf5" x="532.956066" y="361.484982" style="fill: #2ca02c; stroke: #2ca02c; stroke-linejoin: miter"/>
     <use xlink:href="#m4d73a6cdf5" x="565.779596" y="361.434963" style="fill: #2ca02c; stroke: #2ca02c; stroke-linejoin: miter"/>
    </g>
   </g>
   <g id="line2d_28">
    <path d="M 73.426654 308.644748 
L 106.250184 339.204205 
L 139.073713 356.740506 
L 171.897243 360.864148 
L 204.720772 364.198141 
L 237.544301 365.807261 
L 270.367831 362.862976 
L 303.19136 360.888867 
L 336.01489 363.168189 
L 368.838419 361.002804 
L 401.661949 362.937062 
L 434.485478 363.191024 
L 467.309007 362.981363 
L 500.132537 361.061244 
L 532.956066 360.947205 
L 565.779596 360.457837 
" clip-path="url(#p3112c80b8e)" style="fill: none; stroke: #d62728; stroke-width: 1.5; stroke-linecap: square"/>
    <defs>
     <path id="m5d761cad74" d="M -3 3 
L 3 3 
L 3 -3 
L -3 -3 
z
" style="stroke: #d62728; stroke-linejoin: miter"/>
    </defs>
    <g clip-path="url(#p3112c80b8e)">
     <use xlink:href="#m5d761cad74" x="73.426654" y="308.644748" style="fill: #d62728; stroke: #d62728; stroke-linejoin: miter"/>
     <use xlink:href="#m5d761cad74" x="106.250184" y="339.204205" style="fill: #d62728; stroke: #d62728; stroke-linejoin: miter"/>
     <use xlink:href="#m5d761cad74" x="139.073713" y="356.740506" style="fill: #d62728; stroke: #d62728; stroke-linejoin: miter"/>
     <use xlink:href="#m5d761cad74" x="171.897243" y="360.864148" style="fill: #d62728; stroke: #d62728; stroke-linejoin: miter"/>
     <use xlink:href="#m5d761cad74" x="204.720772" y="364.198141" style="fill: #d62728; stroke: #d62728; stroke-linejoin: miter"/>
     <use xlink:href="#m5d761cad74" x="237.544301" y="365.807261" style="fill: #d62728; stroke: #d62728; stroke-linejoin: miter"/>
     <use xlink:href="#m5d761cad74" x="270.367831" y="362.862976" style="fill: #d62728; stroke: #d62728; stroke-linejoin: miter"/>
     <use xlink:href="#m5d761cad74" x="303.19136" y="360.888867" style="fill: #d62728; stroke: #d62728; stroke-linejoin: miter"/>
     <use xlink:href="#m5d761cad74" x="336.01489" y="363.168189" style="fill: #d62728; stroke: #d62728; stroke-linejoin: miter"/>
     <use xlink:href="#m5d761cad74" x="368.838419" y="361.002804" style="fill: #d62728; stroke: #d62728; stroke-linejoin: miter"/>
     <use xlink:href="#m5d761cad74" x="401.661949" y="362.937062" style="fill: #d62728; stroke: #d62728; stroke-linejoin: miter"/>
     <use xlink:href="#m5d761cad74" x="434.485478" y="363.191024" style="fill: #d62728; stroke: #d62728; stroke-linejoin: miter"/>
     <use xlink:href="#m5d761cad74" x="467.309007" y="362.981363" style="fill: #d62728; stroke: #d62728; stroke-linejoin: miter"/>
     <use xlink:href="#m5d761cad74" x="500.132537" y="361.061244" style="fill: #d62728; stroke: #d62728; stroke-linejoin: miter"/>
     <use xlink:href="#m5d761cad74" x="532.956066" y="360.947205" style="fill: #d62728; stroke: #d62728; stroke-linejoin: miter"/>
     <use xlink:href="#m5d761cad74" x="565.779596" y="360.457837" style="fill: #d62728; stroke: #d62728; stroke-linejoin: miter"/>
    </g>
   </g>
   <g id="line2d_29">
    <path d="M 73.426654 225.552102 
L 106.250184 223.860131 
L 139.073713 220.162845 
L 171.897243 219.166991 
L 204.720772 218.418184 
L 237.544301 221.294032 
L 270.367831 213.979743 
L 303.19136 214.909863 
L 336.01489 219.005176 
L 368.838419 213.578087 
L 401.661949 219.778359 
L 434.485478 217.240556 
L 467.309007 216.293455 
L 500.132537 217.470279 
L 532.956066 214.862549 
L 565.779596 211.088694 
" clip-path="url(#p3112c80b8e)" style="fill: none; stroke: #9467bd; stroke-width: 1.5; stroke-linecap: square"/>
    <defs>
     <path id="m402d749f20" d="M 0 -3 
L -3 3 
L 3 3 
z
" style="stroke: #9467bd; stroke-linejoin: miter"/>
    </defs>
    <g clip-path="url(#p3112c80b8e)">
     <use xlink:href="#m402d749f20" x="73.426654" y="225.552102" style="fill: #9467bd; stroke: #9467bd; stroke-linejoin: miter"/>
     <use xlink:href="#m402d749f20" x="106.250184" y="223.860131" style="fill: #9467bd; stroke: #9467bd; stroke-linejoin: miter"/>
     <use xlink:href="#m402d749f20" x="139.073713" y="220.162845" style="fill: #9467bd; stroke: #9467bd; stroke-linejoin: miter"/>
     <use xlink:href="#m402d749f20" x="171.897243" y="219.166991" style="fill: #9467bd; stroke: #9467bd; stroke-linejoin: miter"/>
     <use xlink:href="#m402d749f20" x="204.720772" y="218.418184" style="fill: #9467bd; stroke: #9467bd; stroke-linejoin: miter"/>
     <use xlink:href="#m402d749f20" x="237.544301" y="221.294032" style="fill: #9467bd; stroke: #9467bd; stroke-linejoin: miter"/>
     <use xlink:href="#m402d749f20" x="270.367831" y="213.979743" style="fill: #9467bd; stroke: #9467bd; stroke-linejoin: miter"/>
     <use xlink:href="#m402d749f20" x="303.19136" y="214.909863" style="fill: #9467bd; stroke: #9467bd; stroke-linejoin: miter"/>
     <use xlink:href="#m402d749f20" x="336.01489" y="219.005176" style="fill: #9467bd; stroke: #9467bd; stroke-linejoin: miter"/>
     <use xlink:href="#m402d749f20" x="368.838419" y="213.578087" style="fill: #9467bd; stroke: #9467bd; stroke-linejoin: miter"/>
     <use xlink:href="#m402d749f20" x="401.661949" y="219.778359" style="fill: #9467bd; stroke: #9467bd; stroke-linejoin: miter"/>
     <use xlink:href="#m402d749f20" x="434.485478" y="217.240556" style="fill: #9467bd; stroke: #9467bd; stroke-linejoin: miter"/>
     <use xlink:href="#m402d749f20" x="467.309007" y="216.293455" style="fill: #9467bd; stroke: #9467bd; stroke-linejoin: miter"/>
     <use xlink:href="#m402d749f20" x="500.132537" y="217.470279" style="fill: #9467bd; stroke: #9467bd; stroke-linejoin: miter"/>
     <use xlink:href="#m402d749f20" x="532.956066" y="214.862549" style="fill: #9467bd; stroke: #9467bd; stroke-linejoin: miter"/>
     <use xlink:href="#m402d749f20" x="565.779596" y="211.088694" style="fill: #9467bd; stroke: #9467bd; stroke-linejoin: miter"/>
    </g>
   </g>
   <g id="line2d_30">
    <path d="M 73.426654 222.949457 
L 106.250184 221.112702 
L 139.073713 217.099453 
L 171.897243 214.094382 
L 204.720772 215.617981 
L 237.544301 212.518932 
L 270.367831 215.634465 
L 303.19136 210.831497 
L 336.01489 214.528116 
L 368.838419 212.961859 
L 401.661949 215.151517 
L 434.485478 214.553741 
L 467.309007 215.777777 
L 500.132537 216.029513 
L 532.956066 210.233568 
L 565.779596 210.772714 
" clip-path="url(#p3112c80b8e)" style="fill: none; stroke: #8c564b; stroke-width: 1.5; stroke-linecap: square"/>
    <defs>
     <path id="m026405e441" d="M 0 -3 
L -3 3 
L 3 3 
z
" style="stroke: #8c564b; stroke-linejoin: miter"/>
    </defs>
    <g clip-path="url(#p3112c80b8e)">
     <use xlink:href="#m026405e441" x="73.426654" y="222.949457" style="fill: #8c564b; stroke: #8c564b; stroke-linejoin: miter"/>
     <use xlink:href="#m026405e441" x="106.250184" y="221.112702" style="fill: #8c564b; stroke: #8c564b; stroke-linejoin: miter"/>
     <use xlink:href="#m026405e441" x="139.073713" y="217.099453" style="fill: #8c564b; stroke: #8c564b; stroke-linejoin: miter"/>
     <use xlink:href="#m026405e441" x="171.897243" y="214.094382" style="fill: #8c564b; stroke: #8c564b; stroke-linejoin: miter"/>
     <use xlink:href="#m026405e441" x="204.720772" y="215.617981" style="fill: #8c564b; stroke: #8c564b; stroke-linejoin: miter"/>
     <use xlink:href="#m026405e441" x="237.544301" y="212.518932" style="fill: #8c564b; stroke: #8c564b; stroke-linejoin: miter"/>
     <use xlink:href="#m026405e441" x="270.367831" y="215.634465" style="fill: #8c564b; stroke: #8c564b; stroke-linejoin: miter"/>
     <use xlink:href="#m026405e441" x="303.19136" y="210.831497" style="fill: #8c564b; stroke: #8c564b; stroke-linejoin: miter"/>
     <use xlink:href="#m026405e441" x="336.01489" y="214.528116" style="fill: #8c564b; stroke: #8c564b; stroke-linejoin: miter"/>
     <use xlink:href="#m026405e441" x="368.838419" y="212.961859" style="fill: #8c564b; stroke: #8c564b; stroke-linejoin: miter"/>
     <use xlink:href="#m026405e441" x="401.661949" y="215.151517" style="fill: #8c564b; stroke: #8c564b; stroke-linejoin: miter"/>
     <use xlink:href="#m026405e441" x="434.485478" y="214.553741" style="fill: #8c564b; stroke: #8c564b; stroke-linejoin: miter"/>
     <use xlink:href="#m026405e441" x="467.309007" y="215.777777" style="fill: #8c564b; stroke: #8c564b; stroke-linejoin: miter"/>
     <use xlink:href="#m026405e441" x="500.132537" y="216.029513" style="fill: #8c564b; stroke: #8c564b; stroke-linejoin: miter"/>
     <use xlink:href="#m026405e441" x="532.956066" y="210.233568" style="fill: #8c564b; stroke: #8c564b; stroke-linejoin: miter"/>
     <use xlink:href="#m026405e441" x="565.779596" y="210.772714" style="fill: #8c564b; stroke: #8c564b; stroke-linejoin: miter"/>
    </g>
   </g>
   <g id="patch_19">
    <path d="M 40.603125 479.2755 
L 40.603125 35.7555 
" style="fill: none; stroke: #000000; stroke-width: 0.8; stroke-linejoin: miter; stroke-linecap: square"/>
   </g>
   <g id="patch_20">
    <path d="M 598.603125 479.2755 
L 598.603125 35.7555 
" style="fill: none; stroke: #000000; stroke-width: 0.8; stroke-linejoin: miter; stroke-linecap: square"/>
   </g>
   <g id="patch_21">
    <path d="M 40.603125 479.2755 
L 598.603125 479.2755 
" style="fill: none; stroke: #000000; stroke-width: 0.8; stroke-linejoin: miter; stroke-linecap: square"/>
   </g>
   <g id="patch_22">
    <path d="M 40.603125 35.7555 
L 598.603125 35.7555 
" style="fill: none; stroke: #000000; stroke-width: 0.8; stroke-linejoin: miter; stroke-linecap: square"/>
   </g>
   <g id="text_26">
    <!-- 56.97% -->
    <g transform="translate(76.186029 438.192448) rotate(-90) scale(0.1 -0.1)">
     <defs>
      <path id="DejaVuSans-2e" d="M 684 794 
L 1344 794 
L 1344 0 
L 684 0 
L 684 794 
z
" transform="scale(0.015625)"/>
      <path id="DejaVuSans-25" d="M 4653 2053 
Q 4381 2053 4226 1822 
Q 4072 1591 4072 1178 
Q 4072 772 4226 539 
Q 4381 306 4653 306 
Q 4919 306 5073 539 
Q 5228 772 5228 1178 
Q 5228 1588 5073 1820 
Q 4919 2053 4653 2053 
z
M 4653 2450 
Q 5147 2450 5437 2106 
Q 5728 1763 5728 1178 
Q 5728 594 5436 251 
Q 5144 -91 4653 -91 
Q 4153 -91 3862 251 
Q 3572 594 3572 1178 
Q 3572 1766 3864 2108 
Q 4156 2450 4653 2450 
z
M 1428 4353 
Q 1159 4353 1004 4120 
Q 850 3888 850 3481 
Q 850 3069 1003 2837 
Q 1156 2606 1428 2606 
Q 1700 2606 1854 2837 
Q 2009 3069 2009 3481 
Q 2009 3884 1853 4118 
Q 1697 4353 1428 4353 
z
M 4250 4750 
L 4750 4750 
L 1831 -91 
L 1331 -91 
L 4250 4750 
z
M 1428 4750 
Q 1922 4750 2215 4408 
Q 2509 4066 2509 3481 
Q 2509 2891 2217 2550 
Q 1925 2209 1428 2209 
Q 931 2209 642 2551 
Q 353 2894 353 3481 
Q 353 4063 643 4406 
Q 934 4750 1428 4750 
z
" transform="scale(0.015625)"/>
     </defs>
     <use xlink:href="#DejaVuSans-35"/>
     <use xlink:href="#DejaVuSans-36" x="63.623047"/>
     <use xlink:href="#DejaVuSans-2e" x="127.246094"/>
     <use xlink:href="#DejaVuSans-39" x="159.033203"/>
     <use xlink:href="#DejaVuSans-37" x="222.65625"/>
     <use xlink:href="#DejaVuSans-25" x="286.279297"/>
    </g>
   </g>
   <g id="text_27">
    <!-- 67.11% -->
    <g transform="translate(109.009559 438.192448) rotate(-90) scale(0.1 -0.1)">
     <use xlink:href="#DejaVuSans-36"/>
     <use xlink:href="#DejaVuSans-37" x="63.623047"/>
     <use xlink:href="#DejaVuSans-2e" x="127.246094"/>
     <use xlink:href="#DejaVuSans-31" x="159.033203"/>
     <use xlink:href="#DejaVuSans-31" x="222.65625"/>
     <use xlink:href="#DejaVuSans-25" x="286.279297"/>
    </g>
   </g>
   <g id="text_28">
    <!-- 74.75% -->
    <g transform="translate(141.833088 438.192448) rotate(-90) scale(0.1 -0.1)">
     <use xlink:href="#DejaVuSans-37"/>
     <use xlink:href="#DejaVuSans-34" x="63.623047"/>
     <use xlink:href="#DejaVuSans-2e" x="127.246094"/>
     <use xlink:href="#DejaVuSans-37" x="159.033203"/>
     <use xlink:href="#DejaVuSans-35" x="222.65625"/>
     <use xlink:href="#DejaVuSans-25" x="286.279297"/>
    </g>
   </g>
   <g id="text_29">
    <!-- 80.28% -->
    <g transform="translate(174.656618 438.192448) rotate(-90) scale(0.1 -0.1)">
     <use xlink:href="#DejaVuSans-38"/>
     <use xlink:href="#DejaVuSans-30" x="63.623047"/>
     <use xlink:href="#DejaVuSans-2e" x="127.246094"/>
     <use xlink:href="#DejaVuSans-32" x="159.033203"/>
     <use xlink:href="#DejaVuSans-38" x="222.65625"/>
     <use xlink:href="#DejaVuSans-25" x="286.279297"/>
    </g>
   </g>
   <g id="text_30">
    <!-- 84.35% -->
    <g transform="translate(207.480147 438.192448) rotate(-90) scale(0.1 -0.1)">
     <use xlink:href="#DejaVuSans-38"/>
     <use xlink:href="#DejaVuSans-34" x="63.623047"/>
     <use xlink:href="#DejaVuSans-2e" x="127.246094"/>
     <use xlink:href="#DejaVuSans-33" x="159.033203"/>
     <use xlink:href="#DejaVuSans-35" x="222.65625"/>
     <use xlink:href="#DejaVuSans-25" x="286.279297"/>
    </g>
   </g>
   <g id="text_31">
    <!-- 87.35% -->
    <g transform="translate(240.303676 438.192448) rotate(-90) scale(0.1 -0.1)">
     <use xlink:href="#DejaVuSans-38"/>
     <use xlink:href="#DejaVuSans-37" x="63.623047"/>
     <use xlink:href="#DejaVuSans-2e" x="127.246094"/>
     <use xlink:href="#DejaVuSans-33" x="159.033203"/>
     <use xlink:href="#DejaVuSans-35" x="222.65625"/>
     <use xlink:href="#DejaVuSans-25" x="286.279297"/>
    </g>
   </g>
   <g id="text_32">
    <!-- 89.65% -->
    <g transform="translate(273.127206 438.192448) rotate(-90) scale(0.1 -0.1)">
     <use xlink:href="#DejaVuSans-38"/>
     <use xlink:href="#DejaVuSans-39" x="63.623047"/>
     <use xlink:href="#DejaVuSans-2e" x="127.246094"/>
     <use xlink:href="#DejaVuSans-36" x="159.033203"/>
     <use xlink:href="#DejaVuSans-35" x="222.65625"/>
     <use xlink:href="#DejaVuSans-25" x="286.279297"/>
    </g>
   </g>
   <g id="text_33">
    <!-- 91.46% -->
    <g transform="translate(305.950735 438.192448) rotate(-90) scale(0.1 -0.1)">
     <use xlink:href="#DejaVuSans-39"/>
     <use xlink:href="#DejaVuSans-31" x="63.623047"/>
     <use xlink:href="#DejaVuSans-2e" x="127.246094"/>
     <use xlink:href="#DejaVuSans-34" x="159.033203"/>
     <use xlink:href="#DejaVuSans-36" x="222.65625"/>
     <use xlink:href="#DejaVuSans-25" x="286.279297"/>
    </g>
   </g>
   <g id="text_34">
    <!-- 92.92% -->
    <g transform="translate(338.774265 438.192448) rotate(-90) scale(0.1 -0.1)">
     <use xlink:href="#DejaVuSans-39"/>
     <use xlink:href="#DejaVuSans-32" x="63.623047"/>
     <use xlink:href="#DejaVuSans-2e" x="127.246094"/>
     <use xlink:href="#DejaVuSans-39" x="159.033203"/>
     <use xlink:href="#DejaVuSans-32" x="222.65625"/>
     <use xlink:href="#DejaVuSans-25" x="286.279297"/>
    </g>
   </g>
   <g id="text_35">
    <!-- 94.12% -->
    <g transform="translate(371.597794 438.192448) rotate(-90) scale(0.1 -0.1)">
     <use xlink:href="#DejaVuSans-39"/>
     <use xlink:href="#DejaVuSans-34" x="63.623047"/>
     <use xlink:href="#DejaVuSans-2e" x="127.246094"/>
     <use xlink:href="#DejaVuSans-31" x="159.033203"/>
     <use xlink:href="#DejaVuSans-32" x="222.65625"/>
     <use xlink:href="#DejaVuSans-25" x="286.279297"/>
    </g>
   </g>
   <g id="text_36">
    <!-- 95.12% -->
    <g transform="translate(404.421324 438.192448) rotate(-90) scale(0.1 -0.1)">
     <use xlink:href="#DejaVuSans-39"/>
     <use xlink:href="#DejaVuSans-35" x="63.623047"/>
     <use xlink:href="#DejaVuSans-2e" x="127.246094"/>
     <use xlink:href="#DejaVuSans-31" x="159.033203"/>
     <use xlink:href="#DejaVuSans-32" x="222.65625"/>
     <use xlink:href="#DejaVuSans-25" x="286.279297"/>
    </g>
   </g>
   <g id="text_37">
    <!-- 95.99% -->
    <g transform="translate(437.244853 438.192448) rotate(-90) scale(0.1 -0.1)">
     <use xlink:href="#DejaVuSans-39"/>
     <use xlink:href="#DejaVuSans-35" x="63.623047"/>
     <use xlink:href="#DejaVuSans-2e" x="127.246094"/>
     <use xlink:href="#DejaVuSans-39" x="159.033203"/>
     <use xlink:href="#DejaVuSans-39" x="222.65625"/>
     <use xlink:href="#DejaVuSans-25" x="286.279297"/>
    </g>
   </g>
   <g id="text_38">
    <!-- 96.72% -->
    <g transform="translate(470.068382 438.192448) rotate(-90) scale(0.1 -0.1)">
     <use xlink:href="#DejaVuSans-39"/>
     <use xlink:href="#DejaVuSans-36" x="63.623047"/>
     <use xlink:href="#DejaVuSans-2e" x="127.246094"/>
     <use xlink:href="#DejaVuSans-37" x="159.033203"/>
     <use xlink:href="#DejaVuSans-32" x="222.65625"/>
     <use xlink:href="#DejaVuSans-25" x="286.279297"/>
    </g>
   </g>
   <g id="text_39">
    <!-- 97.38% -->
    <g transform="translate(502.891912 438.192448) rotate(-90) scale(0.1 -0.1)">
     <use xlink:href="#DejaVuSans-39"/>
     <use xlink:href="#DejaVuSans-37" x="63.623047"/>
     <use xlink:href="#DejaVuSans-2e" x="127.246094"/>
     <use xlink:href="#DejaVuSans-33" x="159.033203"/>
     <use xlink:href="#DejaVuSans-38" x="222.65625"/>
     <use xlink:href="#DejaVuSans-25" x="286.279297"/>
    </g>
   </g>
   <g id="text_40">
    <!-- 97.95% -->
    <g transform="translate(535.715441 438.192448) rotate(-90) scale(0.1 -0.1)">
     <use xlink:href="#DejaVuSans-39"/>
     <use xlink:href="#DejaVuSans-37" x="63.623047"/>
     <use xlink:href="#DejaVuSans-2e" x="127.246094"/>
     <use xlink:href="#DejaVuSans-39" x="159.033203"/>
     <use xlink:href="#DejaVuSans-35" x="222.65625"/>
     <use xlink:href="#DejaVuSans-25" x="286.279297"/>
    </g>
   </g>
   <g id="text_41">
    <!-- 98.46% -->
    <g transform="translate(568.538971 438.192448) rotate(-90) scale(0.1 -0.1)">
     <use xlink:href="#DejaVuSans-39"/>
     <use xlink:href="#DejaVuSans-38" x="63.623047"/>
     <use xlink:href="#DejaVuSans-2e" x="127.246094"/>
     <use xlink:href="#DejaVuSans-34" x="159.033203"/>
     <use xlink:href="#DejaVuSans-36" x="222.65625"/>
     <use xlink:href="#DejaVuSans-25" x="286.279297"/>
    </g>
   </g>
   <g id="text_42">
    <!-- Performance of writes (u64) in γ code in function of the table size -->
    <g transform="translate(122.65875 16.318125) scale(0.12 -0.12)">
     <defs>
      <path id="DejaVuSans-50" d="M 1259 4147 
L 1259 2394 
L 2053 2394 
Q 2494 2394 2734 2622 
Q 2975 2850 2975 3272 
Q 2975 3691 2734 3919 
Q 2494 4147 2053 4147 
L 1259 4147 
z
M 628 4666 
L 2053 4666 
Q 2838 4666 3239 4311 
Q 3641 3956 3641 3272 
Q 3641 2581 3239 2228 
Q 2838 1875 2053 1875 
L 1259 1875 
L 1259 0 
L 628 0 
L 628 4666 
z
" transform="scale(0.015625)"/>
      <path id="DejaVuSans-72" d="M 2631 2963 
Q 2534 3019 2420 3045 
Q 2306 3072 2169 3072 
Q 1681 3072 1420 2755 
Q 1159 2438 1159 1844 
L 1159 0 
L 581 0 
L 581 3500 
L 1159 3500 
L 1159 2956 
Q 1341 3275 1631 3429 
Q 1922 3584 2338 3584 
Q 2397 3584 2469 3576 
Q 2541 3569 2628 3553 
L 2631 2963 
z
" transform="scale(0.015625)"/>
      <path id="DejaVuSans-66" d="M 2375 4863 
L 2375 4384 
L 1825 4384 
Q 1516 4384 1395 4259 
Q 1275 4134 1275 3809 
L 1275 3500 
L 2222 3500 
L 2222 3053 
L 1275 3053 
L 1275 0 
L 697 0 
L 697 3053 
L 147 3053 
L 147 3500 
L 697 3500 
L 697 3744 
Q 697 4328 969 4595 
Q 1241 4863 1831 4863 
L 2375 4863 
z
" transform="scale(0.015625)"/>
      <path id="DejaVuSans-6d" d="M 3328 2828 
Q 3544 3216 3844 3400 
Q 4144 3584 4550 3584 
Q 5097 3584 5394 3201 
Q 5691 2819 5691 2113 
L 5691 0 
L 5113 0 
L 5113 2094 
Q 5113 2597 4934 2840 
Q 4756 3084 4391 3084 
Q 3944 3084 3684 2787 
Q 3425 2491 3425 1978 
L 3425 0 
L 2847 0 
L 2847 2094 
Q 2847 2600 2669 2842 
Q 2491 3084 2119 3084 
Q 1678 3084 1418 2786 
Q 1159 2488 1159 1978 
L 1159 0 
L 581 0 
L 581 3500 
L 1159 3500 
L 1159 2956 
Q 1356 3278 1631 3431 
Q 1906 3584 2284 3584 
Q 2666 3584 2933 3390 
Q 3200 3197 3328 2828 
z
" transform="scale(0.015625)"/>
      <path id="DejaVuSans-63" d="M 3122 3366 
L 3122 2828 
Q 2878 2963 2633 3030 
Q 2388 3097 2138 3097 
Q 1578 3097 1268 2742 
Q 959 2388 959 1747 
Q 959 1106 1268 751 
Q 1578 397 2138 397 
Q 2388 397 2633 464 
Q 2878 531 3122 666 
L 3122 134 
Q 2881 22 2623 -34 
Q 2366 -91 2075 -91 
Q 1284 -91 818 406 
Q 353 903 353 1747 
Q 353 2603 823 3093 
Q 1294 3584 2113 3584 
Q 2378 3584 2631 3529 
Q 2884 3475 3122 3366 
z
" transform="scale(0.015625)"/>
      <path id="DejaVuSans-77" d="M 269 3500 
L 844 3500 
L 1563 769 
L 2278 3500 
L 2956 3500 
L 3675 769 
L 4391 3500 
L 4966 3500 
L 4050 0 
L 3372 0 
L 2619 2869 
L 1863 0 
L 1184 0 
L 269 3500 
z
" transform="scale(0.015625)"/>
      <path id="DejaVuSans-75" d="M 544 1381 
L 544 3500 
L 1119 3500 
L 1119 1403 
Q 1119 906 1312 657 
Q 1506 409 1894 409 
Q 2359 409 2629 706 
Q 2900 1003 2900 1516 
L 2900 3500 
L 3475 3500 
L 3475 0 
L 2900 0 
L 2900 538 
Q 2691 219 2414 64 
Q 2138 -91 1772 -91 
Q 1169 -91 856 284 
Q 544 659 544 1381 
z
M 1991 3584 
L 1991 3584 
z
" transform="scale(0.015625)"/>
      <path id="DejaVuSans-3b3" d="M 1128 2950 
L 1894 788 
L 2988 3500 
L 3597 3500 
L 2181 0 
L 2181 -1331 
L 1606 -1331 
L 1606 0 
L 688 2613 
Q 550 3006 253 3006 
L 100 3006 
L 100 3500 
L 319 3500 
Q 934 3500 1128 2950 
z
" transform="scale(0.015625)"/>
      <path id="DejaVuSans-64" d="M 2906 2969 
L 2906 4863 
L 3481 4863 
L 3481 0 
L 2906 0 
L 2906 525 
Q 2725 213 2448 61 
Q 2172 -91 1784 -91 
Q 1150 -91 751 415 
Q 353 922 353 1747 
Q 353 2572 751 3078 
Q 1150 3584 1784 3584 
Q 2172 3584 2448 3432 
Q 2725 3281 2906 2969 
z
M 947 1747 
Q 947 1113 1208 752 
Q 1469 391 1925 391 
Q 2381 391 2643 752 
Q 2906 1113 2906 1747 
Q 2906 2381 2643 2742 
Q 2381 3103 1925 3103 
Q 1469 3103 1208 2742 
Q 947 2381 947 1747 
z
" transform="scale(0.015625)"/>
      <path id="DejaVuSans-68" d="M 3513 2113 
L 3513 0 
L 2938 0 
L 2938 2094 
Q 2938 2591 2744 2837 
Q 2550 3084 2163 3084 
Q 1697 3084 1428 2787 
Q 1159 2491 1159 1978 
L 1159 0 
L 581 0 
L 581 4863 
L 1159 4863 
L 1159 2956 
Q 1366 3272 1645 3428 
Q 1925 3584 2291 3584 
Q 2894 3584 3203 3211 
Q 3513 2838 3513 2113 
z
" transform="scale(0.015625)"/>
     </defs>
     <use xlink:href="#DejaVuSans-50"/>
     <use xlink:href="#DejaVuSans-65" x="56.677734"/>
     <use xlink:href="#DejaVuSans-72" x="118.201172"/>
     <use xlink:href="#DejaVuSans-66" x="159.314453"/>
     <use xlink:href="#DejaVuSans-6f" x="194.519531"/>
     <use xlink:href="#DejaVuSans-72" x="255.701172"/>
     <use xlink:href="#DejaVuSans-6d" x="295.064453"/>
     <use xlink:href="#DejaVuSans-61" x="392.476562"/>
     <use xlink:href="#DejaVuSans-6e" x="453.755859"/>
     <use xlink:href="#DejaVuSans-63" x="517.134766"/>
     <use xlink:href="#DejaVuSans-65" x="572.115234"/>
     <use xlink:href="#DejaVuSans-20" x="633.638672"/>
     <use xlink:href="#DejaVuSans-6f" x="665.425781"/>
     <use xlink:href="#DejaVuSans-66" x="726.607422"/>
     <use xlink:href="#DejaVuSans-20" x="761.8125"/>
     <use xlink:href="#DejaVuSans-77" x="793.599609"/>
     <use xlink:href="#DejaVuSans-72" x="875.386719"/>
     <use xlink:href="#DejaVuSans-69" x="916.5"/>
     <use xlink:href="#DejaVuSans-74" x="944.283203"/>
     <use xlink:href="#DejaVuSans-65" x="983.492188"/>
     <use xlink:href="#DejaVuSans-73" x="1045.015625"/>
     <use xlink:href="#DejaVuSans-20" x="1097.115234"/>
     <use xlink:href="#DejaVuSans-28" x="1128.902344"/>
     <use xlink:href="#DejaVuSans-75" x="1167.916016"/>
     <use xlink:href="#DejaVuSans-36" x="1231.294922"/>
     <use xlink:href="#DejaVuSans-34" x="1294.917969"/>
     <use xlink:href="#DejaVuSans-29" x="1358.541016"/>
     <use xlink:href="#DejaVuSans-20" x="1397.554688"/>
     <use xlink:href="#DejaVuSans-69" x="1429.341797"/>
     <use xlink:href="#DejaVuSans-6e" x="1457.125"/>
     <use xlink:href="#DejaVuSans-20" x="1520.503906"/>
     <use xlink:href="#DejaVuSans-3b3" x="1552.291016"/>
     <use xlink:href="#DejaVuSans-20" x="1611.470703"/>
     <use xlink:href="#DejaVuSans-63" x="1643.257812"/>
     <use xlink:href="#DejaVuSans-6f" x="1698.238281"/>
     <use xlink:href="#DejaVuSans-64" x="1759.419922"/>
     <use xlink:href="#DejaVuSans-65" x="1822.896484"/>
     <use xlink:href="#DejaVuSans-20" x="1884.419922"/>
     <use xlink:href="#DejaVuSans-69" x="1916.207031"/>
     <use xlink:href="#DejaVuSans-6e" x="1943.990234"/>
     <use xlink:href="#DejaVuSans-20" x="2007.369141"/>
     <use xlink:href="#DejaVuSans-66" x="2039.15625"/>
     <use xlink:href="#DejaVuSans-75" x="2074.361328"/>
     <use xlink:href="#DejaVuSans-6e" x="2137.740234"/>
     <use xlink:href="#DejaVuSans-63" x="2201.119141"/>
     <use xlink:href="#DejaVuSans-74" x="2256.099609"/>
     <use xlink:href="#DejaVuSans-69" x="2295.308594"/>
     <use xlink:href="#DejaVuSans-6f" x="2323.091797"/>
     <use xlink:href="#DejaVuSans-6e" x="2384.273438"/>
     <use xlink:href="#DejaVuSans-20" x="2447.652344"/>
     <use xlink:href="#DejaVuSans-6f" x="2479.439453"/>
     <use xlink:href="#DejaVuSans-66" x="2540.621094"/>
     <use xlink:href="#DejaVuSans-20" x="2575.826172"/>
     <use xlink:href="#DejaVuSans-74" x="2607.613281"/>
     <use xlink:href="#DejaVuSans-68" x="2646.822266"/>
     <use xlink:href="#DejaVuSans-65" x="2710.201172"/>
     <use xlink:href="#DejaVuSans-20" x="2771.724609"/>
     <use xlink:href="#DejaVuSans-74" x="2803.511719"/>
     <use xlink:href="#DejaVuSans-61" x="2842.720703"/>
     <use xlink:href="#DejaVuSans-62" x="2904"/>
     <use xlink:href="#DejaVuSans-6c" x="2967.476562"/>
     <use xlink:href="#DejaVuSans-65" x="2995.259766"/>
     <use xlink:href="#DejaVuSans-20" x="3056.783203"/>
     <use xlink:href="#DejaVuSans-73" x="3088.570312"/>
     <use xlink:href="#DejaVuSans-69" x="3140.669922"/>
     <use xlink:href="#DejaVuSans-7a" x="3168.453125"/>
     <use xlink:href="#DejaVuSans-65" x="3220.943359"/>
    </g>
    <!-- Shaded areas are the 25% and 75% percentiles and the plots are medians -->
    <g transform="translate(95.905312 29.7555) scale(0.12 -0.12)">
     <defs>
      <path id="DejaVuSans-53" d="M 3425 4513 
L 3425 3897 
Q 3066 4069 2747 4153 
Q 2428 4238 2131 4238 
Q 1616 4238 1336 4038 
Q 1056 3838 1056 3469 
Q 1056 3159 1242 3001 
Q 1428 2844 1947 2747 
L 2328 2669 
Q 3034 2534 3370 2195 
Q 3706 1856 3706 1288 
Q 3706 609 3251 259 
Q 2797 -91 1919 -91 
Q 1588 -91 1214 -16 
Q 841 59 441 206 
L 441 856 
Q 825 641 1194 531 
Q 1563 422 1919 422 
Q 2459 422 2753 634 
Q 3047 847 3047 1241 
Q 3047 1584 2836 1778 
Q 2625 1972 2144 2069 
L 1759 2144 
Q 1053 2284 737 2584 
Q 422 2884 422 3419 
Q 422 4038 858 4394 
Q 1294 4750 2059 4750 
Q 2388 4750 2728 4690 
Q 3069 4631 3425 4513 
z
" transform="scale(0.015625)"/>
      <path id="DejaVuSans-70" d="M 1159 525 
L 1159 -1331 
L 581 -1331 
L 581 3500 
L 1159 3500 
L 1159 2969 
Q 1341 3281 1617 3432 
Q 1894 3584 2278 3584 
Q 2916 3584 3314 3078 
Q 3713 2572 3713 1747 
Q 3713 922 3314 415 
Q 2916 -91 2278 -91 
Q 1894 -91 1617 61 
Q 1341 213 1159 525 
z
M 3116 1747 
Q 3116 2381 2855 2742 
Q 2594 3103 2138 3103 
Q 1681 3103 1420 2742 
Q 1159 2381 1159 1747 
Q 1159 1113 1420 752 
Q 1681 391 2138 391 
Q 2594 391 2855 752 
Q 3116 1113 3116 1747 
z
" transform="scale(0.015625)"/>
     </defs>
     <use xlink:href="#DejaVuSans-53"/>
     <use xlink:href="#DejaVuSans-68" x="63.476562"/>
     <use xlink:href="#DejaVuSans-61" x="126.855469"/>
     <use xlink:href="#DejaVuSans-64" x="188.134766"/>
     <use xlink:href="#DejaVuSans-65" x="251.611328"/>
     <use xlink:href="#DejaVuSans-64" x="313.134766"/>
     <use xlink:href="#DejaVuSans-20" x="376.611328"/>
     <use xlink:href="#DejaVuSans-61" x="408.398438"/>
     <use xlink:href="#DejaVuSans-72" x="469.677734"/>
     <use xlink:href="#DejaVuSans-65" x="508.541016"/>
     <use xlink:href="#DejaVuSans-61" x="570.064453"/>
     <use xlink:href="#DejaVuSans-73" x="631.34375"/>
     <use xlink:href="#DejaVuSans-20" x="683.443359"/>
     <use xlink:href="#DejaVuSans-61" x="715.230469"/>
     <use xlink:href="#DejaVuSans-72" x="776.509766"/>
     <use xlink:href="#DejaVuSans-65" x="815.373047"/>
     <use xlink:href="#DejaVuSans-20" x="876.896484"/>
     <use xlink:href="#DejaVuSans-74" x="908.683594"/>
     <use xlink:href="#DejaVuSans-68" x="947.892578"/>
     <use xlink:href="#DejaVuSans-65" x="1011.271484"/>
     <use xlink:href="#DejaVuSans-20" x="1072.794922"/>
     <use xlink:href="#DejaVuSans-32" x="1104.582031"/>
     <use xlink:href="#DejaVuSans-35" x="1168.205078"/>
     <use xlink:href="#DejaVuSans-25" x="1231.828125"/>
     <use xlink:href="#DejaVuSans-20" x="1326.847656"/>
     <use xlink:href="#DejaVuSans-61" x="1358.634766"/>
     <use xlink:href="#DejaVuSans-6e" x="1419.914062"/>
     <use xlink:href="#DejaVuSans-64" x="1483.292969"/>
     <use xlink:href="#DejaVuSans-20" x="1546.769531"/>
     <use xlink:href="#DejaVuSans-37" x="1578.556641"/>
     <use xlink:href="#DejaVuSans-35" x="1642.179688"/>
     <use xlink:href="#DejaVuSans-25" x="1705.802734"/>
     <use xlink:href="#DejaVuSans-20" x="1800.822266"/>
     <use xlink:href="#DejaVuSans-70" x="1832.609375"/>
     <use xlink:href="#DejaVuSans-65" x="1896.085938"/>
     <use xlink:href="#DejaVuSans-72" x="1957.609375"/>
     <use xlink:href="#DejaVuSans-63" x="1996.472656"/>
     <use xlink:href="#DejaVuSans-65" x="2051.453125"/>
     <use xlink:href="#DejaVuSans-6e" x="2112.976562"/>
     <use xlink:href="#DejaVuSans-74" x="2176.355469"/>
     <use xlink:href="#DejaVuSans-69" x="2215.564453"/>
     <use xlink:href="#DejaVuSans-6c" x="2243.347656"/>
     <use xlink:href="#DejaVuSans-65" x="2271.130859"/>
     <use xlink:href="#DejaVuSans-73" x="2332.654297"/>
     <use xlink:href="#DejaVuSans-20" x="2384.753906"/>
     <use xlink:href="#DejaVuSans-61" x="2416.541016"/>
     <use xlink:href="#DejaVuSans-6e" x="2477.820312"/>
     <use xlink:href="#DejaVuSans-64" x="2541.199219"/>
     <use xlink:href="#DejaVuSans-20" x="2604.675781"/>
     <use xlink:href="#DejaVuSans-74" x="2636.462891"/>
     <use xlink:href="#DejaVuSans-68" x="2675.671875"/>
     <use xlink:href="#DejaVuSans-65" x="2739.050781"/>
     <use xlink:href="#DejaVuSans-20" x="2800.574219"/>
     <use xlink:href="#DejaVuSans-70" x="2832.361328"/>
     <use xlink:href="#DejaVuSans-6c" x="2895.837891"/>
     <use xlink:href="#DejaVuSans-6f" x="2923.621094"/>
     <use xlink:href="#DejaVuSans-74" x="2984.802734"/>
     <use xlink:href="#DejaVuSans-73" x="3024.011719"/>
     <use xlink:href="#DejaVuSans-20" x="3076.111328"/>
     <use xlink:href="#DejaVuSans-61" x="3107.898438"/>
     <use xlink:href="#DejaVuSans-72" x="3169.177734"/>
     <use xlink:href="#DejaVuSans-65" x="3208.041016"/>
     <use xlink:href="#DejaVuSans-20" x="3269.564453"/>
     <use xlink:href="#DejaVuSans-6d" x="3301.351562"/>
     <use xlink:href="#DejaVuSans-65" x="3398.763672"/>
     <use xlink:href="#DejaVuSans-64" x="3460.287109"/>
     <use xlink:href="#DejaVuSans-69" x="3523.763672"/>
     <use xlink:href="#DejaVuSans-61" x="3551.546875"/>
     <use xlink:href="#DejaVuSans-6e" x="3612.826172"/>
     <use xlink:href="#DejaVuSans-73" x="3676.205078"/>
    </g>
   </g>
   <g id="legend_1">
    <g id="patch_23">
     <path d="M 605.603125 317.728 
L 855.878125 317.728 
Q 857.878125 317.728 857.878125 315.728 
L 857.878125 199.303 
Q 857.878125 197.303 855.878125 197.303 
L 605.603125 197.303 
Q 603.603125 197.303 603.603125 199.303 
L 603.603125 315.728 
Q 603.603125 317.728 605.603125 317.728 
z
" style="fill: #ffffff; opacity: 0.8; stroke: #cccccc; stroke-linejoin: miter"/>
    </g>
    <g id="line2d_31">
     <path d="M 607.603125 205.401438 
L 617.603125 205.401438 
L 627.603125 205.401438 
" style="fill: none; stroke-dasharray: 5.55,2.4; stroke-dashoffset: 0; stroke: #808080; stroke-opacity: 0.3; stroke-width: 1.5"/>
    </g>
    <g id="text_43">
     <!-- table hit ratio 100% line -->
     <g transform="translate(635.603125 208.901438) scale(0.1 -0.1)">
      <use xlink:href="#DejaVuSans-74"/>
      <use xlink:href="#DejaVuSans-61" x="39.208984"/>
      <use xlink:href="#DejaVuSans-62" x="100.488281"/>
      <use xlink:href="#DejaVuSans-6c" x="163.964844"/>
      <use xlink:href="#DejaVuSans-65" x="191.748047"/>
      <use xlink:href="#DejaVuSans-20" x="253.271484"/>
      <use xlink:href="#DejaVuSans-68" x="285.058594"/>
      <use xlink:href="#DejaVuSans-69" x="348.4375"/>
      <use xlink:href="#DejaVuSans-74" x="376.220703"/>
      <use xlink:href="#DejaVuSans-20" x="415.429688"/>
      <use xlink:href="#DejaVuSans-72" x="447.216797"/>
      <use xlink:href="#DejaVuSans-61" x="488.330078"/>
      <use xlink:href="#DejaVuSans-74" x="549.609375"/>
      <use xlink:href="#DejaVuSans-69" x="588.818359"/>
      <use xlink:href="#DejaVuSans-6f" x="616.601562"/>
      <use xlink:href="#DejaVuSans-20" x="677.783203"/>
      <use xlink:href="#DejaVuSans-31" x="709.570312"/>
      <use xlink:href="#DejaVuSans-30" x="773.193359"/>
      <use xlink:href="#DejaVuSans-30" x="836.816406"/>
      <use xlink:href="#DejaVuSans-25" x="900.439453"/>
      <use xlink:href="#DejaVuSans-20" x="995.458984"/>
      <use xlink:href="#DejaVuSans-6c" x="1027.246094"/>
      <use xlink:href="#DejaVuSans-69" x="1055.029297"/>
      <use xlink:href="#DejaVuSans-6e" x="1082.8125"/>
      <use xlink:href="#DejaVuSans-65" x="1146.191406"/>
     </g>
    </g>
    <g id="line2d_32">
     <path d="M 607.603125 220.079563 
L 627.603125 220.079563 
" style="fill: none; stroke: #1f77b4; stroke-width: 1.5; stroke-linecap: square"/>
    </g>
    <g id="line2d_33">
     <g>
      <use xlink:href="#mae857eb940" x="617.603125" y="220.079563" style="fill: #1f77b4; stroke: #1f77b4"/>
     </g>
    </g>
    <g id="text_44">
     <!-- LE::Table::merged (min: 3.320ns @ 13 bits) -->
     <g transform="translate(635.603125 223.579563) scale(0.1 -0.1)">
      <defs>
       <path id="DejaVuSans-4c" d="M 628 4666 
L 1259 4666 
L 1259 531 
L 3531 531 
L 3531 0 
L 628 0 
L 628 4666 
z
" transform="scale(0.015625)"/>
       <path id="DejaVuSans-45" d="M 628 4666 
L 3578 4666 
L 3578 4134 
L 1259 4134 
L 1259 2753 
L 3481 2753 
L 3481 2222 
L 1259 2222 
L 1259 531 
L 3634 531 
L 3634 0 
L 628 0 
L 628 4666 
z
" transform="scale(0.015625)"/>
       <path id="DejaVuSans-3a" d="M 750 794 
L 1409 794 
L 1409 0 
L 750 0 
L 750 794 
z
M 750 3309 
L 1409 3309 
L 1409 2516 
L 750 2516 
L 750 3309 
z
" transform="scale(0.015625)"/>
       <path id="DejaVuSans-54" d="M -19 4666 
L 3928 4666 
L 3928 4134 
L 2272 4134 
L 2272 0 
L 1638 0 
L 1638 4134 
L -19 4134 
L -19 4666 
z
" transform="scale(0.015625)"/>
       <path id="DejaVuSans-40" d="M 2381 1678 
Q 2381 1231 2603 976 
Q 2825 722 3213 722 
Q 3597 722 3817 978 
Q 4038 1234 4038 1678 
Q 4038 2116 3813 2373 
Q 3588 2631 3206 2631 
Q 2828 2631 2604 2375 
Q 2381 2119 2381 1678 
z
M 4084 744 
Q 3897 503 3655 389 
Q 3413 275 3091 275 
Q 2553 275 2217 664 
Q 1881 1053 1881 1678 
Q 1881 2303 2218 2693 
Q 2556 3084 3091 3084 
Q 3413 3084 3656 2967 
Q 3900 2850 4084 2613 
L 4084 3022 
L 4531 3022 
L 4531 722 
Q 4988 791 5245 1139 
Q 5503 1488 5503 2041 
Q 5503 2375 5404 2669 
Q 5306 2963 5106 3213 
Q 4781 3622 4314 3839 
Q 3847 4056 3297 4056 
Q 2913 4056 2559 3954 
Q 2206 3853 1906 3653 
Q 1416 3334 1139 2817 
Q 863 2300 863 1697 
Q 863 1200 1042 765 
Q 1222 331 1563 0 
Q 1891 -325 2322 -495 
Q 2753 -666 3244 -666 
Q 3647 -666 4036 -530 
Q 4425 -394 4750 -141 
L 5031 -488 
Q 4641 -791 4180 -952 
Q 3719 -1113 3244 -1113 
Q 2666 -1113 2153 -908 
Q 1641 -703 1241 -313 
Q 841 78 631 592 
Q 422 1106 422 1697 
Q 422 2266 634 2781 
Q 847 3297 1241 3688 
Q 1644 4084 2172 4295 
Q 2700 4506 3291 4506 
Q 3953 4506 4520 4234 
Q 5088 3963 5472 3463 
Q 5706 3156 5829 2797 
Q 5953 2438 5953 2053 
Q 5953 1231 5456 756 
Q 4959 281 4084 263 
L 4084 744 
z
" transform="scale(0.015625)"/>
      </defs>
      <use xlink:href="#DejaVuSans-4c"/>
      <use xlink:href="#DejaVuSans-45" x="55.712891"/>
      <use xlink:href="#DejaVuSans-3a" x="118.896484"/>
      <use xlink:href="#DejaVuSans-3a" x="152.587891"/>
      <use xlink:href="#DejaVuSans-54" x="186.279297"/>
      <use xlink:href="#DejaVuSans-61" x="230.863281"/>
      <use xlink:href="#DejaVuSans-62" x="292.142578"/>
      <use xlink:href="#DejaVuSans-6c" x="355.619141"/>
      <use xlink:href="#DejaVuSans-65" x="383.402344"/>
      <use xlink:href="#DejaVuSans-3a" x="444.925781"/>
      <use xlink:href="#DejaVuSans-3a" x="478.617188"/>
      <use xlink:href="#DejaVuSans-6d" x="512.308594"/>
      <use xlink:href="#DejaVuSans-65" x="609.720703"/>
      <use xlink:href="#DejaVuSans-72" x="671.244141"/>
      <use xlink:href="#DejaVuSans-67" x="710.607422"/>
      <use xlink:href="#DejaVuSans-65" x="774.083984"/>
      <use xlink:href="#DejaVuSans-64" x="835.607422"/>
      <use xlink:href="#DejaVuSans-20" x="899.083984"/>
      <use xlink:href="#DejaVuSans-28" x="930.871094"/>
      <use xlink:href="#DejaVuSans-6d" x="969.884766"/>
      <use xlink:href="#DejaVuSans-69" x="1067.296875"/>
      <use xlink:href="#DejaVuSans-6e" x="1095.080078"/>
      <use xlink:href="#DejaVuSans-3a" x="1158.458984"/>
      <use xlink:href="#DejaVuSans-20" x="1192.150391"/>
      <use xlink:href="#DejaVuSans-33" x="1223.9375"/>
      <use xlink:href="#DejaVuSans-2e" x="1287.560547"/>
      <use xlink:href="#DejaVuSans-33" x="1319.347656"/>
      <use xlink:href="#DejaVuSans-32" x="1382.970703"/>
      <use xlink:href="#DejaVuSans-30" x="1446.59375"/>
      <use xlink:href="#DejaVuSans-6e" x="1510.216797"/>
      <use xlink:href="#DejaVuSans-73" x="1573.595703"/>
      <use xlink:href="#DejaVuSans-20" x="1625.695312"/>
      <use xlink:href="#DejaVuSans-40" x="1657.482422"/>
      <use xlink:href="#DejaVuSans-20" x="1757.482422"/>
      <use xlink:href="#DejaVuSans-31" x="1789.269531"/>
      <use xlink:href="#DejaVuSans-33" x="1852.892578"/>
      <use xlink:href="#DejaVuSans-20" x="1916.515625"/>
      <use xlink:href="#DejaVuSans-62" x="1948.302734"/>
      <use xlink:href="#DejaVuSans-69" x="2011.779297"/>
      <use xlink:href="#DejaVuSans-74" x="2039.5625"/>
      <use xlink:href="#DejaVuSans-73" x="2078.771484"/>
      <use xlink:href="#DejaVuSans-29" x="2130.871094"/>
     </g>
    </g>
    <g id="line2d_34">
     <path d="M 607.603125 234.757688 
L 627.603125 234.757688 
" style="fill: none; stroke: #ff7f0e; stroke-width: 1.5; stroke-linecap: square"/>
    </g>
    <g id="line2d_35">
     <g>
      <use xlink:href="#m3b5484938d" x="617.603125" y="234.757688" style="fill: #ff7f0e; stroke: #ff7f0e"/>
     </g>
    </g>
    <g id="text_45">
     <!-- BE::Table::merged (min: 3.345ns @ 13 bits) -->
     <g transform="translate(635.603125 238.257688) scale(0.1 -0.1)">
      <defs>
       <path id="DejaVuSans-42" d="M 1259 2228 
L 1259 519 
L 2272 519 
Q 2781 519 3026 730 
Q 3272 941 3272 1375 
Q 3272 1813 3026 2020 
Q 2781 2228 2272 2228 
L 1259 2228 
z
M 1259 4147 
L 1259 2741 
L 2194 2741 
Q 2656 2741 2882 2914 
Q 3109 3088 3109 3444 
Q 3109 3797 2882 3972 
Q 2656 4147 2194 4147 
L 1259 4147 
z
M 628 4666 
L 2241 4666 
Q 2963 4666 3353 4366 
Q 3744 4066 3744 3513 
Q 3744 3084 3544 2831 
Q 3344 2578 2956 2516 
Q 3422 2416 3680 2098 
Q 3938 1781 3938 1306 
Q 3938 681 3513 340 
Q 3088 0 2303 0 
L 628 0 
L 628 4666 
z
" transform="scale(0.015625)"/>
      </defs>
      <use xlink:href="#DejaVuSans-42"/>
      <use xlink:href="#DejaVuSans-45" x="68.603516"/>
      <use xlink:href="#DejaVuSans-3a" x="131.787109"/>
      <use xlink:href="#DejaVuSans-3a" x="165.478516"/>
      <use xlink:href="#DejaVuSans-54" x="199.169922"/>
      <use xlink:href="#DejaVuSans-61" x="243.753906"/>
      <use xlink:href="#DejaVuSans-62" x="305.033203"/>
      <use xlink:href="#DejaVuSans-6c" x="368.509766"/>
      <use xlink:href="#DejaVuSans-65" x="396.292969"/>
      <use xlink:href="#DejaVuSans-3a" x="457.816406"/>
      <use xlink:href="#DejaVuSans-3a" x="491.507812"/>
      <use xlink:href="#DejaVuSans-6d" x="525.199219"/>
      <use xlink:href="#DejaVuSans-65" x="622.611328"/>
      <use xlink:href="#DejaVuSans-72" x="684.134766"/>
      <use xlink:href="#DejaVuSans-67" x="723.498047"/>
      <use xlink:href="#DejaVuSans-65" x="786.974609"/>
      <use xlink:href="#DejaVuSans-64" x="848.498047"/>
      <use xlink:href="#DejaVuSans-20" x="911.974609"/>
      <use xlink:href="#DejaVuSans-28" x="943.761719"/>
      <use xlink:href="#DejaVuSans-6d" x="982.775391"/>
      <use xlink:href="#DejaVuSans-69" x="1080.1875"/>
      <use xlink:href="#DejaVuSans-6e" x="1107.970703"/>
      <use xlink:href="#DejaVuSans-3a" x="1171.349609"/>
      <use xlink:href="#DejaVuSans-20" x="1205.041016"/>
      <use xlink:href="#DejaVuSans-33" x="1236.828125"/>
      <use xlink:href="#DejaVuSans-2e" x="1300.451172"/>
      <use xlink:href="#DejaVuSans-33" x="1332.238281"/>
      <use xlink:href="#DejaVuSans-34" x="1395.861328"/>
      <use xlink:href="#DejaVuSans-35" x="1459.484375"/>
      <use xlink:href="#DejaVuSans-6e" x="1523.107422"/>
      <use xlink:href="#DejaVuSans-73" x="1586.486328"/>
      <use xlink:href="#DejaVuSans-20" x="1638.585938"/>
      <use xlink:href="#DejaVuSans-40" x="1670.373047"/>
      <use xlink:href="#DejaVuSans-20" x="1770.373047"/>
      <use xlink:href="#DejaVuSans-31" x="1802.160156"/>
      <use xlink:href="#DejaVuSans-33" x="1865.783203"/>
      <use xlink:href="#DejaVuSans-20" x="1929.40625"/>
      <use xlink:href="#DejaVuSans-62" x="1961.193359"/>
      <use xlink:href="#DejaVuSans-69" x="2024.669922"/>
      <use xlink:href="#DejaVuSans-74" x="2052.453125"/>
      <use xlink:href="#DejaVuSans-73" x="2091.662109"/>
      <use xlink:href="#DejaVuSans-29" x="2143.761719"/>
     </g>
    </g>
    <g id="line2d_36">
     <path d="M 607.603125 249.435813 
L 627.603125 249.435813 
" style="fill: none; stroke: #2ca02c; stroke-width: 1.5; stroke-linecap: square"/>
    </g>
    <g id="line2d_37">
     <g>
      <use xlink:href="#m4d73a6cdf5" x="617.603125" y="249.435813" style="fill: #2ca02c; stroke: #2ca02c; stroke-linejoin: miter"/>
     </g>
    </g>
    <g id="text_46">
     <!-- LE::Table::sep (min: 3.307ns @ 5 bits) -->
     <g transform="translate(635.603125 252.935813) scale(0.1 -0.1)">
      <use xlink:href="#DejaVuSans-4c"/>
      <use xlink:href="#DejaVuSans-45" x="55.712891"/>
      <use xlink:href="#DejaVuSans-3a" x="118.896484"/>
      <use xlink:href="#DejaVuSans-3a" x="152.587891"/>
      <use xlink:href="#DejaVuSans-54" x="186.279297"/>
      <use xlink:href="#DejaVuSans-61" x="230.863281"/>
      <use xlink:href="#DejaVuSans-62" x="292.142578"/>
      <use xlink:href="#DejaVuSans-6c" x="355.619141"/>
      <use xlink:href="#DejaVuSans-65" x="383.402344"/>
      <use xlink:href="#DejaVuSans-3a" x="444.925781"/>
      <use xlink:href="#DejaVuSans-3a" x="478.617188"/>
      <use xlink:href="#DejaVuSans-73" x="512.308594"/>
      <use xlink:href="#DejaVuSans-65" x="564.408203"/>
      <use xlink:href="#DejaVuSans-70" x="625.931641"/>
      <use xlink:href="#DejaVuSans-20" x="689.408203"/>
      <use xlink:href="#DejaVuSans-28" x="721.195312"/>
      <use xlink:href="#DejaVuSans-6d" x="760.208984"/>
      <use xlink:href="#DejaVuSans-69" x="857.621094"/>
      <use xlink:href="#DejaVuSans-6e" x="885.404297"/>
      <use xlink:href="#DejaVuSans-3a" x="948.783203"/>
      <use xlink:href="#DejaVuSans-20" x="982.474609"/>
      <use xlink:href="#DejaVuSans-33" x="1014.261719"/>
      <use xlink:href="#DejaVuSans-2e" x="1077.884766"/>
      <use xlink:href="#DejaVuSans-33" x="1109.671875"/>
      <use xlink:href="#DejaVuSans-30" x="1173.294922"/>
      <use xlink:href="#DejaVuSans-37" x="1236.917969"/>
      <use xlink:href="#DejaVuSans-6e" x="1300.541016"/>
      <use xlink:href="#DejaVuSans-73" x="1363.919922"/>
      <use xlink:href="#DejaVuSans-20" x="1416.019531"/>
      <use xlink:href="#DejaVuSans-40" x="1447.806641"/>
      <use xlink:href="#DejaVuSans-20" x="1547.806641"/>
      <use xlink:href="#DejaVuSans-35" x="1579.59375"/>
      <use xlink:href="#DejaVuSans-20" x="1643.216797"/>
      <use xlink:href="#DejaVuSans-62" x="1675.003906"/>
      <use xlink:href="#DejaVuSans-69" x="1738.480469"/>
      <use xlink:href="#DejaVuSans-74" x="1766.263672"/>
      <use xlink:href="#DejaVuSans-73" x="1805.472656"/>
      <use xlink:href="#DejaVuSans-29" x="1857.572266"/>
     </g>
    </g>
    <g id="line2d_38">
     <path d="M 607.603125 264.113938 
L 627.603125 264.113938 
" style="fill: none; stroke: #d62728; stroke-width: 1.5; stroke-linecap: square"/>
    </g>
    <g id="line2d_39">
     <g>
      <use xlink:href="#m5d761cad74" x="617.603125" y="264.113938" style="fill: #d62728; stroke: #d62728; stroke-linejoin: miter"/>
     </g>
    </g>
    <g id="text_47">
     <!-- BE::Table::sep (min: 3.314ns @ 5 bits) -->
     <g transform="translate(635.603125 267.613938) scale(0.1 -0.1)">
      <use xlink:href="#DejaVuSans-42"/>
      <use xlink:href="#DejaVuSans-45" x="68.603516"/>
      <use xlink:href="#DejaVuSans-3a" x="131.787109"/>
      <use xlink:href="#DejaVuSans-3a" x="165.478516"/>
      <use xlink:href="#DejaVuSans-54" x="199.169922"/>
      <use xlink:href="#DejaVuSans-61" x="243.753906"/>
      <use xlink:href="#DejaVuSans-62" x="305.033203"/>
      <use xlink:href="#DejaVuSans-6c" x="368.509766"/>
      <use xlink:href="#DejaVuSans-65" x="396.292969"/>
      <use xlink:href="#DejaVuSans-3a" x="457.816406"/>
      <use xlink:href="#DejaVuSans-3a" x="491.507812"/>
      <use xlink:href="#DejaVuSans-73" x="525.199219"/>
      <use xlink:href="#DejaVuSans-65" x="577.298828"/>
      <use xlink:href="#DejaVuSans-70" x="638.822266"/>
      <use xlink:href="#DejaVuSans-20" x="702.298828"/>
      <use xlink:href="#DejaVuSans-28" x="734.085938"/>
      <use xlink:href="#DejaVuSans-6d" x="773.099609"/>
      <use xlink:href="#DejaVuSans-69" x="870.511719"/>
      <use xlink:href="#DejaVuSans-6e" x="898.294922"/>
      <use xlink:href="#DejaVuSans-3a" x="961.673828"/>
      <use xlink:href="#DejaVuSans-20" x="995.365234"/>
      <use xlink:href="#DejaVuSans-33" x="1027.152344"/>
      <use xlink:href="#DejaVuSans-2e" x="1090.775391"/>
      <use xlink:href="#DejaVuSans-33" x="1122.5625"/>
      <use xlink:href="#DejaVuSans-31" x="1186.185547"/>
      <use xlink:href="#DejaVuSans-34" x="1249.808594"/>
      <use xlink:href="#DejaVuSans-6e" x="1313.431641"/>
      <use xlink:href="#DejaVuSans-73" x="1376.810547"/>
      <use xlink:href="#DejaVuSans-20" x="1428.910156"/>
      <use xlink:href="#DejaVuSans-40" x="1460.697266"/>
      <use xlink:href="#DejaVuSans-20" x="1560.697266"/>
      <use xlink:href="#DejaVuSans-35" x="1592.484375"/>
      <use xlink:href="#DejaVuSans-20" x="1656.107422"/>
      <use xlink:href="#DejaVuSans-62" x="1687.894531"/>
      <use xlink:href="#DejaVuSans-69" x="1751.371094"/>
      <use xlink:href="#DejaVuSans-74" x="1779.154297"/>
      <use xlink:href="#DejaVuSans-73" x="1818.363281"/>
      <use xlink:href="#DejaVuSans-29" x="1870.462891"/>
     </g>
    </g>
    <g id="line2d_40">
     <path d="M 607.603125 278.792063 
L 627.603125 278.792063 
" style="fill: none; stroke: #9467bd; stroke-width: 1.5; stroke-linecap: square"/>
    </g>
    <g id="line2d_41">
     <g>
      <use xlink:href="#m402d749f20" x="617.603125" y="278.792063" style="fill: #9467bd; stroke: #9467bd; stroke-linejoin: miter"/>
     </g>
    </g>
    <g id="text_48">
     <!-- LE::NoTable (min: 7.411ns) -->
     <g transform="translate(635.603125 282.292063) scale(0.1 -0.1)">
      <defs>
       <path id="DejaVuSans-4e" d="M 628 4666 
L 1478 4666 
L 3547 763 
L 3547 4666 
L 4159 4666 
L 4159 0 
L 3309 0 
L 1241 3903 
L 1241 0 
L 628 0 
L 628 4666 
z
" transform="scale(0.015625)"/>
      </defs>
      <use xlink:href="#DejaVuSans-4c"/>
      <use xlink:href="#DejaVuSans-45" x="55.712891"/>
      <use xlink:href="#DejaVuSans-3a" x="118.896484"/>
      <use xlink:href="#DejaVuSans-3a" x="152.587891"/>
      <use xlink:href="#DejaVuSans-4e" x="186.279297"/>
      <use xlink:href="#DejaVuSans-6f" x="261.083984"/>
      <use xlink:href="#DejaVuSans-54" x="322.265625"/>
      <use xlink:href="#DejaVuSans-61" x="366.849609"/>
      <use xlink:href="#DejaVuSans-62" x="428.128906"/>
      <use xlink:href="#DejaVuSans-6c" x="491.605469"/>
      <use xlink:href="#DejaVuSans-65" x="519.388672"/>
      <use xlink:href="#DejaVuSans-20" x="580.912109"/>
      <use xlink:href="#DejaVuSans-28" x="612.699219"/>
      <use xlink:href="#DejaVuSans-6d" x="651.712891"/>
      <use xlink:href="#DejaVuSans-69" x="749.125"/>
      <use xlink:href="#DejaVuSans-6e" x="776.908203"/>
      <use xlink:href="#DejaVuSans-3a" x="840.287109"/>
      <use xlink:href="#DejaVuSans-20" x="873.978516"/>
      <use xlink:href="#DejaVuSans-37" x="905.765625"/>
      <use xlink:href="#DejaVuSans-2e" x="969.388672"/>
      <use xlink:href="#DejaVuSans-34" x="1001.175781"/>
      <use xlink:href="#DejaVuSans-31" x="1064.798828"/>
      <use xlink:href="#DejaVuSans-31" x="1128.421875"/>
      <use xlink:href="#DejaVuSans-6e" x="1192.044922"/>
      <use xlink:href="#DejaVuSans-73" x="1255.423828"/>
      <use xlink:href="#DejaVuSans-29" x="1307.523438"/>
     </g>
    </g>
    <g id="line2d_42">
     <path d="M 607.603125 293.470188 
L 627.603125 293.470188 
" style="fill: none; stroke: #8c564b; stroke-width: 1.5; stroke-linecap: square"/>
    </g>
    <g id="line2d_43">
     <g>
      <use xlink:href="#m026405e441" x="617.603125" y="293.470188" style="fill: #8c564b; stroke: #8c564b; stroke-linejoin: miter"/>
     </g>
    </g>
    <g id="text_49">
     <!-- BE::NoTable (min: 7.487ns) -->
     <g transform="translate(635.603125 296.970188) scale(0.1 -0.1)">
      <use xlink:href="#DejaVuSans-42"/>
      <use xlink:href="#DejaVuSans-45" x="68.603516"/>
      <use xlink:href="#DejaVuSans-3a" x="131.787109"/>
      <use xlink:href="#DejaVuSans-3a" x="165.478516"/>
      <use xlink:href="#DejaVuSans-4e" x="199.169922"/>
      <use xlink:href="#DejaVuSans-6f" x="273.974609"/>
      <use xlink:href="#DejaVuSans-54" x="335.15625"/>
      <use xlink:href="#DejaVuSans-61" x="379.740234"/>
      <use xlink:href="#DejaVuSans-62" x="441.019531"/>
      <use xlink:href="#DejaVuSans-6c" x="504.496094"/>
      <use xlink:href="#DejaVuSans-65" x="532.279297"/>
      <use xlink:href="#DejaVuSans-20" x="593.802734"/>
      <use xlink:href="#DejaVuSans-28" x="625.589844"/>
      <use xlink:href="#DejaVuSans-6d" x="664.603516"/>
      <use xlink:href="#DejaVuSans-69" x="762.015625"/>
      <use xlink:href="#DejaVuSans-6e" x="789.798828"/>
      <use xlink:href="#DejaVuSans-3a" x="853.177734"/>
      <use xlink:href="#DejaVuSans-20" x="886.869141"/>
      <use xlink:href="#DejaVuSans-37" x="918.65625"/>
      <use xlink:href="#DejaVuSans-2e" x="982.279297"/>
      <use xlink:href="#DejaVuSans-34" x="1014.066406"/>
      <use xlink:href="#DejaVuSans-38" x="1077.689453"/>
      <use xlink:href="#DejaVuSans-37" x="1141.3125"/>
      <use xlink:href="#DejaVuSans-6e" x="1204.935547"/>
      <use xlink:href="#DejaVuSans-73" x="1268.314453"/>
      <use xlink:href="#DejaVuSans-29" x="1320.414062"/>
     </g>
    </g>
    <g id="patch_24">
     <path d="M 607.603125 311.648313 
L 627.603125 311.648313 
L 627.603125 304.648313 
L 607.603125 304.648313 
z
" style="fill: #0000ff; fill-opacity: 0.3; stroke: #000000; stroke-linejoin: miter"/>
    </g>
    <g id="text_50">
     <!-- table hit ratio -->
     <g transform="translate(635.603125 311.648313) scale(0.1 -0.1)">
      <use xlink:href="#DejaVuSans-74"/>
      <use xlink:href="#DejaVuSans-61" x="39.208984"/>
      <use xlink:href="#DejaVuSans-62" x="100.488281"/>
      <use xlink:href="#DejaVuSans-6c" x="163.964844"/>
      <use xlink:href="#DejaVuSans-65" x="191.748047"/>
      <use xlink:href="#DejaVuSans-20" x="253.271484"/>
      <use xlink:href="#DejaVuSans-68" x="285.058594"/>
      <use xlink:href="#DejaVuSans-69" x="348.4375"/>
      <use xlink:href="#DejaVuSans-74" x="376.220703"/>
      <use xlink:href="#DejaVuSans-20" x="415.429688"/>
      <use xlink:href="#DejaVuSans-72" x="447.216797"/>
      <use xlink:href="#DejaVuSans-61" x="488.330078"/>
      <use xlink:href="#DejaVuSans-74" x="549.609375"/>
      <use xlink:href="#DejaVuSans-69" x="588.818359"/>
      <use xlink:href="#DejaVuSans-6f" x="616.601562"/>
     </g>
    </g>
   </g>
  </g>
 </g>
 <defs>
  <clipPath id="p3112c80b8e">
   <rect x="40.603125" y="35.7555" width="558" height="443.52"/>
  </clipPath>
 </defs>
</svg>
