<?xml version="1.0" encoding="utf-8" standalone="no"?>
<!DOCTYPE svg PUBLIC "-//W3C//DTD SVG 1.1//EN"
  "http://www.w3.org/Graphics/SVG/1.1/DTD/svg11.dtd">
<svg xmlns:xlink="http://www.w3.org/1999/xlink" width="858.715625pt" height="516.856125pt" viewBox="0 0 858.715625 516.856125" xmlns="http://www.w3.org/2000/svg" version="1.1">
 <metadata>
  <rdf:RDF xmlns:dc="http://purl.org/dc/elements/1.1/" xmlns:cc="http://creativecommons.org/ns#" xmlns:rdf="http://www.w3.org/1999/02/22-rdf-syntax-ns#">
   <cc:Work>
    <dc:type rdf:resource="http://purl.org/dc/dcmitype/StillImage"/>
    <dc:date>2026-02-28T02:15:36.443888</dc:date>
    <dc:format>image/svg+xml</dc:format>
    <dc:creator>
     <cc:Agent>
      <dc:title>Matplotlib v3.10.8, https://matplotlib.org/</dc:title>
     </cc:Agent>
    </dc:creator>
   </cc:Work>
  </rdf:RDF>
 </metadata>
 <defs>
  <style type="text/css">*{stroke-linejoin: round; stroke-linecap: butt}</style>
 </defs>
 <g id="figure_1">
  <g id="patch_1">
   <path d="M 0 516.856125 
L 858.715625 516.856125 
L 858.715625 0 
L 0 0 
z
" style="fill: #ffffff"/>
  </g>
  <g id="axes_1">
   <g id="patch_2">
    <path d="M 34.240625 479.299875 
L 592.240625 479.299875 
L 592.240625 35.779875 
L 34.240625 35.779875 
z
" style="fill: #ffffff"/>
   </g>
   <g id="FillBetweenPolyCollection_1">
    <path d="M 67.064154 166.390333 
L 67.064154 166.916978 
L 99.887684 144.658496 
L 132.711213 142.195658 
L 165.534743 183.924503 
L 198.358272 211.867649 
L 231.181801 264.232651 
L 264.005331 285.556597 
L 296.82886 296.110143 
L 329.65239 317.475394 
L 362.475919 327.512622 
L 395.299449 331.483109 
L 428.122978 339.078151 
L 460.946507 339.930077 
L 493.770037 341.499684 
L 526.593566 342.945376 
L 559.417096 343.482347 
L 559.417096 341.974697 
L 559.417096 341.974697 
L 526.593566 341.644253 
L 493.770037 340.446395 
L 460.946507 338.758034 
L 428.122978 338.969725 
L 395.299449 331.35403 
L 362.475919 327.21832 
L 329.65239 317.150113 
L 296.82886 295.893289 
L 264.005331 285.313927 
L 231.181801 263.313604 
L 198.358272 211.454594 
L 165.534743 183.573406 
L 132.711213 142.00462 
L 99.887684 144.333216 
L 67.064154 166.390333 
z
" clip-path="url(#pf78e6158b7)" style="fill: #1f77b4; fill-opacity: 0.3"/>
   </g>
   <g id="FillBetweenPolyCollection_2">
    <path d="M 67.064154 171.951081 
L 67.064154 172.209241 
L 99.887684 148.345009 
L 132.711213 144.19381 
L 165.534743 187.44063 
L 198.358272 214.330487 
L 231.181801 263.277462 
L 264.005331 285.897367 
L 296.82886 294.71092 
L 329.65239 317.578658 
L 362.475919 324.791624 
L 395.299449 331.684473 
L 428.122978 339.134947 
L 460.946507 342.041819 
L 493.770037 342.289651 
L 526.593566 344.804121 
L 559.417096 343.172556 
L 559.417096 342.501342 
L 559.417096 342.501342 
L 526.593566 343.518489 
L 493.770037 340.482537 
L 460.946507 340.436069 
L 428.122978 339.047172 
L 395.299449 331.570883 
L 362.475919 324.616076 
L 329.65239 317.434088 
L 296.82886 293.363329 
L 264.005331 285.757961 
L 231.181801 262.952182 
L 198.358272 213.994881 
L 165.534743 187.022413 
L 132.711213 144.007935 
L 99.887684 148.035218 
L 67.064154 171.951081 
z
" clip-path="url(#pf78e6158b7)" style="fill: #ff7f0e; fill-opacity: 0.3"/>
   </g>
   <g id="FillBetweenPolyCollection_3">
    <path d="M 67.064154 158.134404 
L 67.064154 163.261444 
L 99.887684 144.539743 
L 132.711213 140.992636 
L 165.534743 184.027766 
L 198.358272 212.136135 
L 231.181801 268.28575 
L 264.005331 288.804239 
L 296.82886 298.980872 
L 329.65239 320.8263 
L 362.475919 316.298188 
L 395.299449 335.340007 
L 428.122978 341.938555 
L 460.946507 347.256633 
L 493.770037 346.972658 
L 526.593566 348.475145 
L 559.417096 350.225464 
L 559.417096 348.821078 
L 559.417096 348.821078 
L 526.593566 347.065596 
L 493.770037 345.444356 
L 460.946507 347.174022 
L 428.122978 341.876597 
L 395.299449 335.216091 
L 362.475919 307.773773 
L 329.65239 320.562977 
L 296.82886 297.90693 
L 264.005331 288.675159 
L 231.181801 268.14118 
L 198.358272 211.939934 
L 165.534743 183.268779 
L 132.711213 140.574418 
L 99.887684 142.567407 
L 67.064154 158.134404 
z
" clip-path="url(#pf78e6158b7)" style="fill: #2ca02c; fill-opacity: 0.3"/>
   </g>
   <g id="FillBetweenPolyCollection_4">
    <path d="M 67.064154 164.923989 
L 67.064154 169.648302 
L 99.887684 152.87312 
L 132.711213 148.179787 
L 165.534743 187.672974 
L 198.358272 216.52484 
L 231.181801 266.948485 
L 264.005331 287.972966 
L 296.82886 297.912094 
L 329.65239 319.716215 
L 362.475919 329.624363 
L 395.299449 334.250575 
L 428.122978 341.943718 
L 460.946507 343.379083 
L 493.770037 346.719662 
L 526.593566 347.680014 
L 559.417096 349.42517 
L 559.417096 347.907194 
L 559.417096 347.907194 
L 526.593566 346.094917 
L 493.770037 346.544114 
L 460.946507 343.311962 
L 428.122978 340.04883 
L 395.299449 334.147312 
L 362.475919 329.40751 
L 329.65239 319.504525 
L 296.82886 297.767524 
L 264.005331 287.885192 
L 231.181801 266.871037 
L 198.358272 215.311492 
L 165.534743 187.404488 
L 132.711213 145.479442 
L 99.887684 151.876626 
L 67.064154 164.923989 
z
" clip-path="url(#pf78e6158b7)" style="fill: #d62728; fill-opacity: 0.3"/>
   </g>
   <g id="patch_3">
    <path d="M 34.240625 147.596347 
L 592.240625 147.596347 
L 592.240625 147.16264 
L 34.240625 147.16264 
z
" clip-path="url(#pf78e6158b7)" style="opacity: 0.08; stroke: #000000; stroke-linejoin: miter"/>
   </g>
   <g id="patch_4">
    <path d="M 34.240625 151.659772 
L 592.240625 151.659772 
L 592.240625 151.05568 
L 34.240625 151.05568 
z
" clip-path="url(#pf78e6158b7)" style="fill: #cc00cc; opacity: 0.08; stroke: #cc00cc; stroke-linejoin: miter"/>
   </g>
   <g id="patch_5">
    <path d="M 53.934743 479.299875 
L 80.193566 479.299875 
L 80.193566 474.469717 
L 53.934743 474.469717 
z
" clip-path="url(#pf78e6158b7)" style="fill: #0000ff; fill-opacity: 0.3; stroke: #000000; stroke-linejoin: miter"/>
   </g>
   <g id="patch_6">
    <path d="M 86.758272 479.299875 
L 113.017096 479.299875 
L 113.017096 471.232402 
L 86.758272 471.232402 
z
" clip-path="url(#pf78e6158b7)" style="fill: #0000ff; fill-opacity: 0.3; stroke: #000000; stroke-linejoin: miter"/>
   </g>
   <g id="patch_7">
    <path d="M 119.581801 479.299875 
L 145.840625 479.299875 
L 145.840625 466.18539 
L 119.581801 466.18539 
z
" clip-path="url(#pf78e6158b7)" style="fill: #0000ff; fill-opacity: 0.3; stroke: #000000; stroke-linejoin: miter"/>
   </g>
   <g id="patch_8">
    <path d="M 152.405331 479.299875 
L 178.664154 479.299875 
L 178.664154 464.677741 
L 152.405331 464.677741 
z
" clip-path="url(#pf78e6158b7)" style="fill: #0000ff; fill-opacity: 0.3; stroke: #000000; stroke-linejoin: miter"/>
   </g>
   <g id="patch_9">
    <path d="M 185.22886 479.299875 
L 211.487684 479.299875 
L 211.487684 463.059083 
L 185.22886 463.059083 
z
" clip-path="url(#pf78e6158b7)" style="fill: #0000ff; fill-opacity: 0.3; stroke: #000000; stroke-linejoin: miter"/>
   </g>
   <g id="patch_10">
    <path d="M 218.05239 479.299875 
L 244.311213 479.299875 
L 244.311213 459.930194 
L 218.05239 459.930194 
z
" clip-path="url(#pf78e6158b7)" style="fill: #0000ff; fill-opacity: 0.3; stroke: #000000; stroke-linejoin: miter"/>
   </g>
   <g id="patch_11">
    <path d="M 250.875919 479.299875 
L 277.134743 479.299875 
L 277.134743 459.124737 
L 250.875919 459.124737 
z
" clip-path="url(#pf78e6158b7)" style="fill: #0000ff; fill-opacity: 0.3; stroke: #000000; stroke-linejoin: miter"/>
   </g>
   <g id="patch_12">
    <path d="M 283.699449 479.299875 
L 309.958272 479.299875 
L 309.958272 458.319281 
L 283.699449 458.319281 
z
" clip-path="url(#pf78e6158b7)" style="fill: #0000ff; fill-opacity: 0.3; stroke: #000000; stroke-linejoin: miter"/>
   </g>
   <g id="patch_13">
    <path d="M 316.522978 479.299875 
L 342.781801 479.299875 
L 342.781801 456.718694 
L 316.522978 456.718694 
z
" clip-path="url(#pf78e6158b7)" style="fill: #0000ff; fill-opacity: 0.3; stroke: #000000; stroke-linejoin: miter"/>
   </g>
   <g id="patch_14">
    <path d="M 349.346507 479.299875 
L 375.605331 479.299875 
L 375.605331 456.313384 
L 349.346507 456.313384 
z
" clip-path="url(#pf78e6158b7)" style="fill: #0000ff; fill-opacity: 0.3; stroke: #000000; stroke-linejoin: miter"/>
   </g>
   <g id="patch_15">
    <path d="M 382.170037 479.299875 
L 408.42886 479.299875 
L 408.42886 455.905493 
L 382.170037 455.905493 
z
" clip-path="url(#pf78e6158b7)" style="fill: #0000ff; fill-opacity: 0.3; stroke: #000000; stroke-linejoin: miter"/>
   </g>
   <g id="patch_16">
    <path d="M 414.993566 479.299875 
L 441.25239 479.299875 
L 441.25239 455.102618 
L 414.993566 455.102618 
z
" clip-path="url(#pf78e6158b7)" style="fill: #0000ff; fill-opacity: 0.3; stroke: #000000; stroke-linejoin: miter"/>
   </g>
   <g id="patch_17">
    <path d="M 447.817096 479.299875 
L 474.075919 479.299875 
L 474.075919 454.898672 
L 447.817096 454.898672 
z
" clip-path="url(#pf78e6158b7)" style="fill: #0000ff; fill-opacity: 0.3; stroke: #000000; stroke-linejoin: miter"/>
   </g>
   <g id="patch_18">
    <path d="M 480.640625 479.299875 
L 506.899449 479.299875 
L 506.899449 454.694726 
L 480.640625 454.694726 
z
" clip-path="url(#pf78e6158b7)" style="fill: #0000ff; fill-opacity: 0.3; stroke: #000000; stroke-linejoin: miter"/>
   </g>
   <g id="patch_19">
    <path d="M 513.464154 479.299875 
L 539.722978 479.299875 
L 539.722978 454.289417 
L 513.464154 454.289417 
z
" clip-path="url(#pf78e6158b7)" style="fill: #0000ff; fill-opacity: 0.3; stroke: #000000; stroke-linejoin: miter"/>
   </g>
   <g id="patch_20">
    <path d="M 546.287684 479.299875 
L 572.546507 479.299875 
L 572.546507 454.188735 
L 546.287684 454.188735 
z
" clip-path="url(#pf78e6158b7)" style="fill: #0000ff; fill-opacity: 0.3; stroke: #000000; stroke-linejoin: miter"/>
   </g>
   <g id="matplotlib.axis_1">
    <g id="xtick_1">
     <g id="line2d_1">
      <defs>
       <path id="maa61dbeb24" d="M 0 0 
L 0 3.5 
" style="stroke: #000000; stroke-width: 0.8"/>
      </defs>
      <g>
       <use xlink:href="#maa61dbeb24" x="67.064154" y="479.299875" style="stroke: #000000; stroke-width: 0.8"/>
      </g>
     </g>
     <g id="text_1">
      <!-- 1 -->
      <g transform="translate(63.882904 493.898313) scale(0.1 -0.1)">
       <defs>
        <path id="DejaVuSans-31" d="M 794 531 
L 1825 531 
L 1825 4091 
L 703 3866 
L 703 4441 
L 1819 4666 
L 2450 4666 
L 2450 531 
L 3481 531 
L 3481 0 
L 794 0 
L 794 531 
z
" transform="scale(0.015625)"/>
       </defs>
       <use xlink:href="#DejaVuSans-31"/>
      </g>
     </g>
    </g>
    <g id="xtick_2">
     <g id="line2d_2">
      <g>
       <use xlink:href="#maa61dbeb24" x="99.887684" y="479.299875" style="stroke: #000000; stroke-width: 0.8"/>
      </g>
     </g>
     <g id="text_2">
      <!-- 2 -->
      <g transform="translate(96.706434 493.898313) scale(0.1 -0.1)">
       <defs>
        <path id="DejaVuSans-32" d="M 1228 531 
L 3431 531 
L 3431 0 
L 469 0 
L 469 531 
Q 828 903 1448 1529 
Q 2069 2156 2228 2338 
Q 2531 2678 2651 2914 
Q 2772 3150 2772 3378 
Q 2772 3750 2511 3984 
Q 2250 4219 1831 4219 
Q 1534 4219 1204 4116 
Q 875 4013 500 3803 
L 500 4441 
Q 881 4594 1212 4672 
Q 1544 4750 1819 4750 
Q 2544 4750 2975 4387 
Q 3406 4025 3406 3419 
Q 3406 3131 3298 2873 
Q 3191 2616 2906 2266 
Q 2828 2175 2409 1742 
Q 1991 1309 1228 531 
z
" transform="scale(0.015625)"/>
       </defs>
       <use xlink:href="#DejaVuSans-32"/>
      </g>
     </g>
    </g>
    <g id="xtick_3">
     <g id="line2d_3">
      <g>
       <use xlink:href="#maa61dbeb24" x="132.711213" y="479.299875" style="stroke: #000000; stroke-width: 0.8"/>
      </g>
     </g>
     <g id="text_3">
      <!-- 3 -->
      <g transform="translate(129.529963 493.898313) scale(0.1 -0.1)">
       <defs>
        <path id="DejaVuSans-33" d="M 2597 2516 
Q 3050 2419 3304 2112 
Q 3559 1806 3559 1356 
Q 3559 666 3084 287 
Q 2609 -91 1734 -91 
Q 1441 -91 1130 -33 
Q 819 25 488 141 
L 488 750 
Q 750 597 1062 519 
Q 1375 441 1716 441 
Q 2309 441 2620 675 
Q 2931 909 2931 1356 
Q 2931 1769 2642 2001 
Q 2353 2234 1838 2234 
L 1294 2234 
L 1294 2753 
L 1863 2753 
Q 2328 2753 2575 2939 
Q 2822 3125 2822 3475 
Q 2822 3834 2567 4026 
Q 2313 4219 1838 4219 
Q 1578 4219 1281 4162 
Q 984 4106 628 3988 
L 628 4550 
Q 988 4650 1302 4700 
Q 1616 4750 1894 4750 
Q 2613 4750 3031 4423 
Q 3450 4097 3450 3541 
Q 3450 3153 3228 2886 
Q 3006 2619 2597 2516 
z
" transform="scale(0.015625)"/>
       </defs>
       <use xlink:href="#DejaVuSans-33"/>
      </g>
     </g>
    </g>
    <g id="xtick_4">
     <g id="line2d_4">
      <g>
       <use xlink:href="#maa61dbeb24" x="165.534743" y="479.299875" style="stroke: #000000; stroke-width: 0.8"/>
      </g>
     </g>
     <g id="text_4">
      <!-- 4 -->
      <g transform="translate(162.353493 493.898313) scale(0.1 -0.1)">
       <defs>
        <path id="DejaVuSans-34" d="M 2419 4116 
L 825 1625 
L 2419 1625 
L 2419 4116 
z
M 2253 4666 
L 3047 4666 
L 3047 1625 
L 3713 1625 
L 3713 1100 
L 3047 1100 
L 3047 0 
L 2419 0 
L 2419 1100 
L 313 1100 
L 313 1709 
L 2253 4666 
z
" transform="scale(0.015625)"/>
       </defs>
       <use xlink:href="#DejaVuSans-34"/>
      </g>
     </g>
    </g>
    <g id="xtick_5">
     <g id="line2d_5">
      <g>
       <use xlink:href="#maa61dbeb24" x="198.358272" y="479.299875" style="stroke: #000000; stroke-width: 0.8"/>
      </g>
     </g>
     <g id="text_5">
      <!-- 5 -->
      <g transform="translate(195.177022 493.898313) scale(0.1 -0.1)">
       <defs>
        <path id="DejaVuSans-35" d="M 691 4666 
L 3169 4666 
L 3169 4134 
L 1269 4134 
L 1269 2991 
Q 1406 3038 1543 3061 
Q 1681 3084 1819 3084 
Q 2600 3084 3056 2656 
Q 3513 2228 3513 1497 
Q 3513 744 3044 326 
Q 2575 -91 1722 -91 
Q 1428 -91 1123 -41 
Q 819 9 494 109 
L 494 744 
Q 775 591 1075 516 
Q 1375 441 1709 441 
Q 2250 441 2565 725 
Q 2881 1009 2881 1497 
Q 2881 1984 2565 2268 
Q 2250 2553 1709 2553 
Q 1456 2553 1204 2497 
Q 953 2441 691 2322 
L 691 4666 
z
" transform="scale(0.015625)"/>
       </defs>
       <use xlink:href="#DejaVuSans-35"/>
      </g>
     </g>
    </g>
    <g id="xtick_6">
     <g id="line2d_6">
      <g>
       <use xlink:href="#maa61dbeb24" x="231.181801" y="479.299875" style="stroke: #000000; stroke-width: 0.8"/>
      </g>
     </g>
     <g id="text_6">
      <!-- 6 -->
      <g transform="translate(228.000551 493.898313) scale(0.1 -0.1)">
       <defs>
        <path id="DejaVuSans-36" d="M 2113 2584 
Q 1688 2584 1439 2293 
Q 1191 2003 1191 1497 
Q 1191 994 1439 701 
Q 1688 409 2113 409 
Q 2538 409 2786 701 
Q 3034 994 3034 1497 
Q 3034 2003 2786 2293 
Q 2538 2584 2113 2584 
z
M 3366 4563 
L 3366 3988 
Q 3128 4100 2886 4159 
Q 2644 4219 2406 4219 
Q 1781 4219 1451 3797 
Q 1122 3375 1075 2522 
Q 1259 2794 1537 2939 
Q 1816 3084 2150 3084 
Q 2853 3084 3261 2657 
Q 3669 2231 3669 1497 
Q 3669 778 3244 343 
Q 2819 -91 2113 -91 
Q 1303 -91 875 529 
Q 447 1150 447 2328 
Q 447 3434 972 4092 
Q 1497 4750 2381 4750 
Q 2619 4750 2861 4703 
Q 3103 4656 3366 4563 
z
" transform="scale(0.015625)"/>
       </defs>
       <use xlink:href="#DejaVuSans-36"/>
      </g>
     </g>
    </g>
    <g id="xtick_7">
     <g id="line2d_7">
      <g>
       <use xlink:href="#maa61dbeb24" x="264.005331" y="479.299875" style="stroke: #000000; stroke-width: 0.8"/>
      </g>
     </g>
     <g id="text_7">
      <!-- 7 -->
      <g transform="translate(260.824081 493.898313) scale(0.1 -0.1)">
       <defs>
        <path id="DejaVuSans-37" d="M 525 4666 
L 3525 4666 
L 3525 4397 
L 1831 0 
L 1172 0 
L 2766 4134 
L 525 4134 
L 525 4666 
z
" transform="scale(0.015625)"/>
       </defs>
       <use xlink:href="#DejaVuSans-37"/>
      </g>
     </g>
    </g>
    <g id="xtick_8">
     <g id="line2d_8">
      <g>
       <use xlink:href="#maa61dbeb24" x="296.82886" y="479.299875" style="stroke: #000000; stroke-width: 0.8"/>
      </g>
     </g>
     <g id="text_8">
      <!-- 8 -->
      <g transform="translate(293.64761 493.898313) scale(0.1 -0.1)">
       <defs>
        <path id="DejaVuSans-38" d="M 2034 2216 
Q 1584 2216 1326 1975 
Q 1069 1734 1069 1313 
Q 1069 891 1326 650 
Q 1584 409 2034 409 
Q 2484 409 2743 651 
Q 3003 894 3003 1313 
Q 3003 1734 2745 1975 
Q 2488 2216 2034 2216 
z
M 1403 2484 
Q 997 2584 770 2862 
Q 544 3141 544 3541 
Q 544 4100 942 4425 
Q 1341 4750 2034 4750 
Q 2731 4750 3128 4425 
Q 3525 4100 3525 3541 
Q 3525 3141 3298 2862 
Q 3072 2584 2669 2484 
Q 3125 2378 3379 2068 
Q 3634 1759 3634 1313 
Q 3634 634 3220 271 
Q 2806 -91 2034 -91 
Q 1263 -91 848 271 
Q 434 634 434 1313 
Q 434 1759 690 2068 
Q 947 2378 1403 2484 
z
M 1172 3481 
Q 1172 3119 1398 2916 
Q 1625 2713 2034 2713 
Q 2441 2713 2670 2916 
Q 2900 3119 2900 3481 
Q 2900 3844 2670 4047 
Q 2441 4250 2034 4250 
Q 1625 4250 1398 4047 
Q 1172 3844 1172 3481 
z
" transform="scale(0.015625)"/>
       </defs>
       <use xlink:href="#DejaVuSans-38"/>
      </g>
     </g>
    </g>
    <g id="xtick_9">
     <g id="line2d_9">
      <g>
       <use xlink:href="#maa61dbeb24" x="329.65239" y="479.299875" style="stroke: #000000; stroke-width: 0.8"/>
      </g>
     </g>
     <g id="text_9">
      <!-- 9 -->
      <g transform="translate(326.47114 493.898313) scale(0.1 -0.1)">
       <defs>
        <path id="DejaVuSans-39" d="M 703 97 
L 703 672 
Q 941 559 1184 500 
Q 1428 441 1663 441 
Q 2288 441 2617 861 
Q 2947 1281 2994 2138 
Q 2813 1869 2534 1725 
Q 2256 1581 1919 1581 
Q 1219 1581 811 2004 
Q 403 2428 403 3163 
Q 403 3881 828 4315 
Q 1253 4750 1959 4750 
Q 2769 4750 3195 4129 
Q 3622 3509 3622 2328 
Q 3622 1225 3098 567 
Q 2575 -91 1691 -91 
Q 1453 -91 1209 -44 
Q 966 3 703 97 
z
M 1959 2075 
Q 2384 2075 2632 2365 
Q 2881 2656 2881 3163 
Q 2881 3666 2632 3958 
Q 2384 4250 1959 4250 
Q 1534 4250 1286 3958 
Q 1038 3666 1038 3163 
Q 1038 2656 1286 2365 
Q 1534 2075 1959 2075 
z
" transform="scale(0.015625)"/>
       </defs>
       <use xlink:href="#DejaVuSans-39"/>
      </g>
     </g>
    </g>
    <g id="xtick_10">
     <g id="line2d_10">
      <g>
       <use xlink:href="#maa61dbeb24" x="362.475919" y="479.299875" style="stroke: #000000; stroke-width: 0.8"/>
      </g>
     </g>
     <g id="text_10">
      <!-- 10 -->
      <g transform="translate(356.113419 493.898313) scale(0.1 -0.1)">
       <defs>
        <path id="DejaVuSans-30" d="M 2034 4250 
Q 1547 4250 1301 3770 
Q 1056 3291 1056 2328 
Q 1056 1369 1301 889 
Q 1547 409 2034 409 
Q 2525 409 2770 889 
Q 3016 1369 3016 2328 
Q 3016 3291 2770 3770 
Q 2525 4250 2034 4250 
z
M 2034 4750 
Q 2819 4750 3233 4129 
Q 3647 3509 3647 2328 
Q 3647 1150 3233 529 
Q 2819 -91 2034 -91 
Q 1250 -91 836 529 
Q 422 1150 422 2328 
Q 422 3509 836 4129 
Q 1250 4750 2034 4750 
z
" transform="scale(0.015625)"/>
       </defs>
       <use xlink:href="#DejaVuSans-31"/>
       <use xlink:href="#DejaVuSans-30" transform="translate(63.623047 0)"/>
      </g>
     </g>
    </g>
    <g id="xtick_11">
     <g id="line2d_11">
      <g>
       <use xlink:href="#maa61dbeb24" x="395.299449" y="479.299875" style="stroke: #000000; stroke-width: 0.8"/>
      </g>
     </g>
     <g id="text_11">
      <!-- 11 -->
      <g transform="translate(388.936949 493.898313) scale(0.1 -0.1)">
       <use xlink:href="#DejaVuSans-31"/>
       <use xlink:href="#DejaVuSans-31" transform="translate(63.623047 0)"/>
      </g>
     </g>
    </g>
    <g id="xtick_12">
     <g id="line2d_12">
      <g>
       <use xlink:href="#maa61dbeb24" x="428.122978" y="479.299875" style="stroke: #000000; stroke-width: 0.8"/>
      </g>
     </g>
     <g id="text_12">
      <!-- 12 -->
      <g transform="translate(421.760478 493.898313) scale(0.1 -0.1)">
       <use xlink:href="#DejaVuSans-31"/>
       <use xlink:href="#DejaVuSans-32" transform="translate(63.623047 0)"/>
      </g>
     </g>
    </g>
    <g id="xtick_13">
     <g id="line2d_13">
      <g>
       <use xlink:href="#maa61dbeb24" x="460.946507" y="479.299875" style="stroke: #000000; stroke-width: 0.8"/>
      </g>
     </g>
     <g id="text_13">
      <!-- 13 -->
      <g transform="translate(454.584007 493.898313) scale(0.1 -0.1)">
       <use xlink:href="#DejaVuSans-31"/>
       <use xlink:href="#DejaVuSans-33" transform="translate(63.623047 0)"/>
      </g>
     </g>
    </g>
    <g id="xtick_14">
     <g id="line2d_14">
      <g>
       <use xlink:href="#maa61dbeb24" x="493.770037" y="479.299875" style="stroke: #000000; stroke-width: 0.8"/>
      </g>
     </g>
     <g id="text_14">
      <!-- 14 -->
      <g transform="translate(487.407537 493.898313) scale(0.1 -0.1)">
       <use xlink:href="#DejaVuSans-31"/>
       <use xlink:href="#DejaVuSans-34" transform="translate(63.623047 0)"/>
      </g>
     </g>
    </g>
    <g id="xtick_15">
     <g id="line2d_15">
      <g>
       <use xlink:href="#maa61dbeb24" x="526.593566" y="479.299875" style="stroke: #000000; stroke-width: 0.8"/>
      </g>
     </g>
     <g id="text_15">
      <!-- 15 -->
      <g transform="translate(520.231066 493.898313) scale(0.1 -0.1)">
       <use xlink:href="#DejaVuSans-31"/>
       <use xlink:href="#DejaVuSans-35" transform="translate(63.623047 0)"/>
      </g>
     </g>
    </g>
    <g id="xtick_16">
     <g id="line2d_16">
      <g>
       <use xlink:href="#maa61dbeb24" x="559.417096" y="479.299875" style="stroke: #000000; stroke-width: 0.8"/>
      </g>
     </g>
     <g id="text_16">
      <!-- 16 -->
      <g transform="translate(553.054596 493.898313) scale(0.1 -0.1)">
       <use xlink:href="#DejaVuSans-31"/>
       <use xlink:href="#DejaVuSans-36" transform="translate(63.623047 0)"/>
      </g>
     </g>
    </g>
    <g id="text_17">
     <!-- table bits -->
     <g transform="translate(289.859375 507.576437) scale(0.1 -0.1)">
      <defs>
       <path id="DejaVuSans-74" d="M 1172 4494 
L 1172 3500 
L 2356 3500 
L 2356 3053 
L 1172 3053 
L 1172 1153 
Q 1172 725 1289 603 
Q 1406 481 1766 481 
L 2356 481 
L 2356 0 
L 1766 0 
Q 1100 0 847 248 
Q 594 497 594 1153 
L 594 3053 
L 172 3053 
L 172 3500 
L 594 3500 
L 594 4494 
L 1172 4494 
z
" transform="scale(0.015625)"/>
       <path id="DejaVuSans-61" d="M 2194 1759 
Q 1497 1759 1228 1600 
Q 959 1441 959 1056 
Q 959 750 1161 570 
Q 1363 391 1709 391 
Q 2188 391 2477 730 
Q 2766 1069 2766 1631 
L 2766 1759 
L 2194 1759 
z
M 3341 1997 
L 3341 0 
L 2766 0 
L 2766 531 
Q 2569 213 2275 61 
Q 1981 -91 1556 -91 
Q 1019 -91 701 211 
Q 384 513 384 1019 
Q 384 1609 779 1909 
Q 1175 2209 1959 2209 
L 2766 2209 
L 2766 2266 
Q 2766 2663 2505 2880 
Q 2244 3097 1772 3097 
Q 1472 3097 1187 3025 
Q 903 2953 641 2809 
L 641 3341 
Q 956 3463 1253 3523 
Q 1550 3584 1831 3584 
Q 2591 3584 2966 3190 
Q 3341 2797 3341 1997 
z
" transform="scale(0.015625)"/>
       <path id="DejaVuSans-62" d="M 3116 1747 
Q 3116 2381 2855 2742 
Q 2594 3103 2138 3103 
Q 1681 3103 1420 2742 
Q 1159 2381 1159 1747 
Q 1159 1113 1420 752 
Q 1681 391 2138 391 
Q 2594 391 2855 752 
Q 3116 1113 3116 1747 
z
M 1159 2969 
Q 1341 3281 1617 3432 
Q 1894 3584 2278 3584 
Q 2916 3584 3314 3078 
Q 3713 2572 3713 1747 
Q 3713 922 3314 415 
Q 2916 -91 2278 -91 
Q 1894 -91 1617 61 
Q 1341 213 1159 525 
L 1159 0 
L 581 0 
L 581 4863 
L 1159 4863 
L 1159 2969 
z
" transform="scale(0.015625)"/>
       <path id="DejaVuSans-6c" d="M 603 4863 
L 1178 4863 
L 1178 0 
L 603 0 
L 603 4863 
z
" transform="scale(0.015625)"/>
       <path id="DejaVuSans-65" d="M 3597 1894 
L 3597 1613 
L 953 1613 
Q 991 1019 1311 708 
Q 1631 397 2203 397 
Q 2534 397 2845 478 
Q 3156 559 3463 722 
L 3463 178 
Q 3153 47 2828 -22 
Q 2503 -91 2169 -91 
Q 1331 -91 842 396 
Q 353 884 353 1716 
Q 353 2575 817 3079 
Q 1281 3584 2069 3584 
Q 2775 3584 3186 3129 
Q 3597 2675 3597 1894 
z
M 3022 2063 
Q 3016 2534 2758 2815 
Q 2500 3097 2075 3097 
Q 1594 3097 1305 2825 
Q 1016 2553 972 2059 
L 3022 2063 
z
" transform="scale(0.015625)"/>
       <path id="DejaVuSans-20" transform="scale(0.015625)"/>
       <path id="DejaVuSans-69" d="M 603 3500 
L 1178 3500 
L 1178 0 
L 603 0 
L 603 3500 
z
M 603 4863 
L 1178 4863 
L 1178 4134 
L 603 4134 
L 603 4863 
z
" transform="scale(0.015625)"/>
       <path id="DejaVuSans-73" d="M 2834 3397 
L 2834 2853 
Q 2591 2978 2328 3040 
Q 2066 3103 1784 3103 
Q 1356 3103 1142 2972 
Q 928 2841 928 2578 
Q 928 2378 1081 2264 
Q 1234 2150 1697 2047 
L 1894 2003 
Q 2506 1872 2764 1633 
Q 3022 1394 3022 966 
Q 3022 478 2636 193 
Q 2250 -91 1575 -91 
Q 1294 -91 989 -36 
Q 684 19 347 128 
L 347 722 
Q 666 556 975 473 
Q 1284 391 1588 391 
Q 1994 391 2212 530 
Q 2431 669 2431 922 
Q 2431 1156 2273 1281 
Q 2116 1406 1581 1522 
L 1381 1569 
Q 847 1681 609 1914 
Q 372 2147 372 2553 
Q 372 3047 722 3315 
Q 1072 3584 1716 3584 
Q 2034 3584 2315 3537 
Q 2597 3491 2834 3397 
z
" transform="scale(0.015625)"/>
      </defs>
      <use xlink:href="#DejaVuSans-74"/>
      <use xlink:href="#DejaVuSans-61" transform="translate(39.208984 0)"/>
      <use xlink:href="#DejaVuSans-62" transform="translate(100.488281 0)"/>
      <use xlink:href="#DejaVuSans-6c" transform="translate(163.964844 0)"/>
      <use xlink:href="#DejaVuSans-65" transform="translate(191.748047 0)"/>
      <use xlink:href="#DejaVuSans-20" transform="translate(253.271484 0)"/>
      <use xlink:href="#DejaVuSans-62" transform="translate(285.058594 0)"/>
      <use xlink:href="#DejaVuSans-69" transform="translate(348.535156 0)"/>
      <use xlink:href="#DejaVuSans-74" transform="translate(376.318359 0)"/>
      <use xlink:href="#DejaVuSans-73" transform="translate(415.527344 0)"/>
     </g>
    </g>
   </g>
   <g id="matplotlib.axis_2">
    <g id="ytick_1">
     <g id="line2d_17">
      <defs>
       <path id="m92bfa74f0f" d="M 0 0 
L -3.5 0 
" style="stroke: #000000; stroke-width: 0.8"/>
      </defs>
      <g>
       <use xlink:href="#m92bfa74f0f" x="34.240625" y="479.299875" style="stroke: #000000; stroke-width: 0.8"/>
      </g>
     </g>
     <g id="text_18">
      <!-- 0 -->
      <g transform="translate(20.878125 483.099094) scale(0.1 -0.1)">
       <use xlink:href="#DejaVuSans-30"/>
      </g>
     </g>
    </g>
    <g id="ytick_2">
     <g id="line2d_18">
      <g>
       <use xlink:href="#m92bfa74f0f" x="34.240625" y="427.668045" style="stroke: #000000; stroke-width: 0.8"/>
      </g>
     </g>
     <g id="text_19">
      <!-- 1 -->
      <g transform="translate(20.878125 431.467264) scale(0.1 -0.1)">
       <use xlink:href="#DejaVuSans-31"/>
      </g>
     </g>
    </g>
    <g id="ytick_3">
     <g id="line2d_19">
      <g>
       <use xlink:href="#m92bfa74f0f" x="34.240625" y="376.036215" style="stroke: #000000; stroke-width: 0.8"/>
      </g>
     </g>
     <g id="text_20">
      <!-- 2 -->
      <g transform="translate(20.878125 379.835434) scale(0.1 -0.1)">
       <use xlink:href="#DejaVuSans-32"/>
      </g>
     </g>
    </g>
    <g id="ytick_4">
     <g id="line2d_20">
      <g>
       <use xlink:href="#m92bfa74f0f" x="34.240625" y="324.404385" style="stroke: #000000; stroke-width: 0.8"/>
      </g>
     </g>
     <g id="text_21">
      <!-- 3 -->
      <g transform="translate(20.878125 328.203604) scale(0.1 -0.1)">
       <use xlink:href="#DejaVuSans-33"/>
      </g>
     </g>
    </g>
    <g id="ytick_5">
     <g id="line2d_21">
      <g>
       <use xlink:href="#m92bfa74f0f" x="34.240625" y="272.772556" style="stroke: #000000; stroke-width: 0.8"/>
      </g>
     </g>
     <g id="text_22">
      <!-- 4 -->
      <g transform="translate(20.878125 276.571774) scale(0.1 -0.1)">
       <use xlink:href="#DejaVuSans-34"/>
      </g>
     </g>
    </g>
    <g id="ytick_6">
     <g id="line2d_22">
      <g>
       <use xlink:href="#m92bfa74f0f" x="34.240625" y="221.140726" style="stroke: #000000; stroke-width: 0.8"/>
      </g>
     </g>
     <g id="text_23">
      <!-- 5 -->
      <g transform="translate(20.878125 224.939945) scale(0.1 -0.1)">
       <use xlink:href="#DejaVuSans-35"/>
      </g>
     </g>
    </g>
    <g id="ytick_7">
     <g id="line2d_23">
      <g>
       <use xlink:href="#m92bfa74f0f" x="34.240625" y="169.508896" style="stroke: #000000; stroke-width: 0.8"/>
      </g>
     </g>
     <g id="text_24">
      <!-- 6 -->
      <g transform="translate(20.878125 173.308115) scale(0.1 -0.1)">
       <use xlink:href="#DejaVuSans-36"/>
      </g>
     </g>
    </g>
    <g id="ytick_8">
     <g id="line2d_24">
      <g>
       <use xlink:href="#m92bfa74f0f" x="34.240625" y="117.877066" style="stroke: #000000; stroke-width: 0.8"/>
      </g>
     </g>
     <g id="text_25">
      <!-- 7 -->
      <g transform="translate(20.878125 121.676285) scale(0.1 -0.1)">
       <use xlink:href="#DejaVuSans-37"/>
      </g>
     </g>
    </g>
    <g id="ytick_9">
     <g id="line2d_25">
      <g>
       <use xlink:href="#m92bfa74f0f" x="34.240625" y="66.245236" style="stroke: #000000; stroke-width: 0.8"/>
      </g>
     </g>
     <g id="text_26">
      <!-- 8 -->
      <g transform="translate(20.878125 70.044455) scale(0.1 -0.1)">
       <use xlink:href="#DejaVuSans-38"/>
      </g>
     </g>
    </g>
    <g id="text_27">
     <!-- ns -->
     <g transform="translate(14.798438 263.313313) rotate(-90) scale(0.1 -0.1)">
      <defs>
       <path id="DejaVuSans-6e" d="M 3513 2113 
L 3513 0 
L 2938 0 
L 2938 2094 
Q 2938 2591 2744 2837 
Q 2550 3084 2163 3084 
Q 1697 3084 1428 2787 
Q 1159 2491 1159 1978 
L 1159 0 
L 581 0 
L 581 3500 
L 1159 3500 
L 1159 2956 
Q 1366 3272 1645 3428 
Q 1925 3584 2291 3584 
Q 2894 3584 3203 3211 
Q 3513 2838 3513 2113 
z
" transform="scale(0.015625)"/>
      </defs>
      <use xlink:href="#DejaVuSans-6e"/>
      <use xlink:href="#DejaVuSans-73" transform="translate(63.378906 0)"/>
     </g>
    </g>
   </g>
   <g id="line2d_26">
    <path d="M 34.240625 147.384657 
L 592.240625 147.384657 
" clip-path="url(#pf78e6158b7)" style="fill: none; stroke: #000000; stroke-width: 1.5; stroke-linecap: square"/>
   </g>
   <g id="line2d_27">
    <path d="M 34.240625 151.349981 
L 592.240625 151.349981 
" clip-path="url(#pf78e6158b7)" style="fill: none; stroke: #cc00cc; stroke-width: 1.5; stroke-linecap: square"/>
   </g>
   <g id="line2d_28">
    <path d="M 1.417096 427.668045 
L 625.064154 427.668045 
" clip-path="url(#pf78e6158b7)" style="fill: none; stroke-dasharray: 5.55,2.4; stroke-dashoffset: 0; stroke: #808080; stroke-opacity: 0.3; stroke-width: 1.5"/>
   </g>
   <g id="line2d_29">
    <path d="M 67.064154 166.617513 
L 99.887684 144.472622 
L 132.711213 142.107884 
L 165.534743 183.733465 
L 198.358272 211.661122 
L 231.181801 263.835086 
L 264.005331 285.427517 
L 296.82886 295.996553 
L 329.65239 317.315335 
L 362.475919 327.3474 
L 395.299449 331.421151 
L 428.122978 339.031683 
L 460.946507 339.382779 
L 493.770037 341.050487 
L 526.593566 342.33612 
L 559.417096 342.759501 
" clip-path="url(#pf78e6158b7)" style="fill: none; stroke: #1f77b4; stroke-width: 1.5; stroke-linecap: square"/>
    <defs>
     <path id="mc3a43e5952" d="M 0 3 
C 0.795609 3 1.55874 2.683901 2.12132 2.12132 
C 2.683901 1.55874 3 0.795609 3 0 
C 3 -0.795609 2.683901 -1.55874 2.12132 -2.12132 
C 1.55874 -2.683901 0.795609 -3 0 -3 
C -0.795609 -3 -1.55874 -2.683901 -2.12132 -2.12132 
C -2.683901 -1.55874 -3 -0.795609 -3 0 
C -3 0.795609 -2.683901 1.55874 -2.12132 2.12132 
C -1.55874 2.683901 -0.795609 3 0 3 
z
" style="stroke: #1f77b4"/>
    </defs>
    <g clip-path="url(#pf78e6158b7)">
     <use xlink:href="#mc3a43e5952" x="67.064154" y="166.617513" style="fill: #1f77b4; stroke: #1f77b4"/>
     <use xlink:href="#mc3a43e5952" x="99.887684" y="144.472622" style="fill: #1f77b4; stroke: #1f77b4"/>
     <use xlink:href="#mc3a43e5952" x="132.711213" y="142.107884" style="fill: #1f77b4; stroke: #1f77b4"/>
     <use xlink:href="#mc3a43e5952" x="165.534743" y="183.733465" style="fill: #1f77b4; stroke: #1f77b4"/>
     <use xlink:href="#mc3a43e5952" x="198.358272" y="211.661122" style="fill: #1f77b4; stroke: #1f77b4"/>
     <use xlink:href="#mc3a43e5952" x="231.181801" y="263.835086" style="fill: #1f77b4; stroke: #1f77b4"/>
     <use xlink:href="#mc3a43e5952" x="264.005331" y="285.427517" style="fill: #1f77b4; stroke: #1f77b4"/>
     <use xlink:href="#mc3a43e5952" x="296.82886" y="295.996553" style="fill: #1f77b4; stroke: #1f77b4"/>
     <use xlink:href="#mc3a43e5952" x="329.65239" y="317.315335" style="fill: #1f77b4; stroke: #1f77b4"/>
     <use xlink:href="#mc3a43e5952" x="362.475919" y="327.3474" style="fill: #1f77b4; stroke: #1f77b4"/>
     <use xlink:href="#mc3a43e5952" x="395.299449" y="331.421151" style="fill: #1f77b4; stroke: #1f77b4"/>
     <use xlink:href="#mc3a43e5952" x="428.122978" y="339.031683" style="fill: #1f77b4; stroke: #1f77b4"/>
     <use xlink:href="#mc3a43e5952" x="460.946507" y="339.382779" style="fill: #1f77b4; stroke: #1f77b4"/>
     <use xlink:href="#mc3a43e5952" x="493.770037" y="341.050487" style="fill: #1f77b4; stroke: #1f77b4"/>
     <use xlink:href="#mc3a43e5952" x="526.593566" y="342.33612" style="fill: #1f77b4; stroke: #1f77b4"/>
     <use xlink:href="#mc3a43e5952" x="559.417096" y="342.759501" style="fill: #1f77b4; stroke: #1f77b4"/>
    </g>
   </g>
   <g id="line2d_30">
    <path d="M 67.064154 172.085324 
L 99.887684 148.210766 
L 132.711213 144.116362 
L 165.534743 187.223777 
L 198.358272 214.170429 
L 231.181801 263.117403 
L 264.005331 285.819919 
L 296.82886 294.122317 
L 329.65239 317.50121 
L 362.475919 324.70385 
L 395.299449 331.622515 
L 428.122978 339.093641 
L 460.946507 341.251852 
L 493.770037 341.396421 
L 526.593566 344.194866 
L 559.417096 342.79048 
" clip-path="url(#pf78e6158b7)" style="fill: none; stroke: #ff7f0e; stroke-width: 1.5; stroke-linecap: square"/>
    <defs>
     <path id="m8474230f34" d="M 0 3 
C 0.795609 3 1.55874 2.683901 2.12132 2.12132 
C 2.683901 1.55874 3 0.795609 3 0 
C 3 -0.795609 2.683901 -1.55874 2.12132 -2.12132 
C 1.55874 -2.683901 0.795609 -3 0 -3 
C -0.795609 -3 -1.55874 -2.683901 -2.12132 -2.12132 
C -2.683901 -1.55874 -3 -0.795609 -3 0 
C -3 0.795609 -2.683901 1.55874 -2.12132 2.12132 
C -1.55874 2.683901 -0.795609 3 0 3 
z
" style="stroke: #ff7f0e"/>
    </defs>
    <g clip-path="url(#pf78e6158b7)">
     <use xlink:href="#m8474230f34" x="67.064154" y="172.085324" style="fill: #ff7f0e; stroke: #ff7f0e"/>
     <use xlink:href="#m8474230f34" x="99.887684" y="148.210766" style="fill: #ff7f0e; stroke: #ff7f0e"/>
     <use xlink:href="#m8474230f34" x="132.711213" y="144.116362" style="fill: #ff7f0e; stroke: #ff7f0e"/>
     <use xlink:href="#m8474230f34" x="165.534743" y="187.223777" style="fill: #ff7f0e; stroke: #ff7f0e"/>
     <use xlink:href="#m8474230f34" x="198.358272" y="214.170429" style="fill: #ff7f0e; stroke: #ff7f0e"/>
     <use xlink:href="#m8474230f34" x="231.181801" y="263.117403" style="fill: #ff7f0e; stroke: #ff7f0e"/>
     <use xlink:href="#m8474230f34" x="264.005331" y="285.819919" style="fill: #ff7f0e; stroke: #ff7f0e"/>
     <use xlink:href="#m8474230f34" x="296.82886" y="294.122317" style="fill: #ff7f0e; stroke: #ff7f0e"/>
     <use xlink:href="#m8474230f34" x="329.65239" y="317.50121" style="fill: #ff7f0e; stroke: #ff7f0e"/>
     <use xlink:href="#m8474230f34" x="362.475919" y="324.70385" style="fill: #ff7f0e; stroke: #ff7f0e"/>
     <use xlink:href="#m8474230f34" x="395.299449" y="331.622515" style="fill: #ff7f0e; stroke: #ff7f0e"/>
     <use xlink:href="#m8474230f34" x="428.122978" y="339.093641" style="fill: #ff7f0e; stroke: #ff7f0e"/>
     <use xlink:href="#m8474230f34" x="460.946507" y="341.251852" style="fill: #ff7f0e; stroke: #ff7f0e"/>
     <use xlink:href="#m8474230f34" x="493.770037" y="341.396421" style="fill: #ff7f0e; stroke: #ff7f0e"/>
     <use xlink:href="#m8474230f34" x="526.593566" y="344.194866" style="fill: #ff7f0e; stroke: #ff7f0e"/>
     <use xlink:href="#m8474230f34" x="559.417096" y="342.79048" style="fill: #ff7f0e; stroke: #ff7f0e"/>
    </g>
   </g>
   <g id="line2d_31">
    <path d="M 67.064154 160.623058 
L 99.887684 143.770429 
L 132.711213 140.801599 
L 165.534743 183.681833 
L 198.358272 212.038034 
L 231.181801 268.213465 
L 264.005331 288.731954 
L 296.82886 298.547165 
L 329.65239 320.686894 
L 362.475919 312.250253 
L 395.299449 335.278049 
L 428.122978 341.907576 
L 460.946507 347.220491 
L 493.770037 346.218834 
L 526.593566 347.767788 
L 559.417096 349.533597 
" clip-path="url(#pf78e6158b7)" style="fill: none; stroke: #2ca02c; stroke-width: 1.5; stroke-linecap: square"/>
    <defs>
     <path id="m7a186f42e6" d="M -3 3 
L 3 3 
L 3 -3 
L -3 -3 
z
" style="stroke: #2ca02c; stroke-linejoin: miter"/>
    </defs>
    <g clip-path="url(#pf78e6158b7)">
     <use xlink:href="#m7a186f42e6" x="67.064154" y="160.623058" style="fill: #2ca02c; stroke: #2ca02c; stroke-linejoin: miter"/>
     <use xlink:href="#m7a186f42e6" x="99.887684" y="143.770429" style="fill: #2ca02c; stroke: #2ca02c; stroke-linejoin: miter"/>
     <use xlink:href="#m7a186f42e6" x="132.711213" y="140.801599" style="fill: #2ca02c; stroke: #2ca02c; stroke-linejoin: miter"/>
     <use xlink:href="#m7a186f42e6" x="165.534743" y="183.681833" style="fill: #2ca02c; stroke: #2ca02c; stroke-linejoin: miter"/>
     <use xlink:href="#m7a186f42e6" x="198.358272" y="212.038034" style="fill: #2ca02c; stroke: #2ca02c; stroke-linejoin: miter"/>
     <use xlink:href="#m7a186f42e6" x="231.181801" y="268.213465" style="fill: #2ca02c; stroke: #2ca02c; stroke-linejoin: miter"/>
     <use xlink:href="#m7a186f42e6" x="264.005331" y="288.731954" style="fill: #2ca02c; stroke: #2ca02c; stroke-linejoin: miter"/>
     <use xlink:href="#m7a186f42e6" x="296.82886" y="298.547165" style="fill: #2ca02c; stroke: #2ca02c; stroke-linejoin: miter"/>
     <use xlink:href="#m7a186f42e6" x="329.65239" y="320.686894" style="fill: #2ca02c; stroke: #2ca02c; stroke-linejoin: miter"/>
     <use xlink:href="#m7a186f42e6" x="362.475919" y="312.250253" style="fill: #2ca02c; stroke: #2ca02c; stroke-linejoin: miter"/>
     <use xlink:href="#m7a186f42e6" x="395.299449" y="335.278049" style="fill: #2ca02c; stroke: #2ca02c; stroke-linejoin: miter"/>
     <use xlink:href="#m7a186f42e6" x="428.122978" y="341.907576" style="fill: #2ca02c; stroke: #2ca02c; stroke-linejoin: miter"/>
     <use xlink:href="#m7a186f42e6" x="460.946507" y="347.220491" style="fill: #2ca02c; stroke: #2ca02c; stroke-linejoin: miter"/>
     <use xlink:href="#m7a186f42e6" x="493.770037" y="346.218834" style="fill: #2ca02c; stroke: #2ca02c; stroke-linejoin: miter"/>
     <use xlink:href="#m7a186f42e6" x="526.593566" y="347.767788" style="fill: #2ca02c; stroke: #2ca02c; stroke-linejoin: miter"/>
     <use xlink:href="#m7a186f42e6" x="559.417096" y="349.533597" style="fill: #2ca02c; stroke: #2ca02c; stroke-linejoin: miter"/>
    </g>
   </g>
   <g id="line2d_32">
    <path d="M 67.064154 167.278401 
L 99.887684 152.491045 
L 132.711213 147.178129 
L 165.534743 187.543894 
L 198.358272 216.08597 
L 231.181801 266.912343 
L 264.005331 287.926498 
L 296.82886 297.839809 
L 329.65239 319.607788 
L 362.475919 329.515937 
L 395.299449 334.19378 
L 428.122978 340.95755 
L 460.946507 343.348104 
L 493.770037 346.642215 
L 526.593566 346.941679 
L 559.417096 348.681672 
" clip-path="url(#pf78e6158b7)" style="fill: none; stroke: #d62728; stroke-width: 1.5; stroke-linecap: square"/>
    <defs>
     <path id="m60a2508023" d="M -3 3 
L 3 3 
L 3 -3 
L -3 -3 
z
" style="stroke: #d62728; stroke-linejoin: miter"/>
    </defs>
    <g clip-path="url(#pf78e6158b7)">
     <use xlink:href="#m60a2508023" x="67.064154" y="167.278401" style="fill: #d62728; stroke: #d62728; stroke-linejoin: miter"/>
     <use xlink:href="#m60a2508023" x="99.887684" y="152.491045" style="fill: #d62728; stroke: #d62728; stroke-linejoin: miter"/>
     <use xlink:href="#m60a2508023" x="132.711213" y="147.178129" style="fill: #d62728; stroke: #d62728; stroke-linejoin: miter"/>
     <use xlink:href="#m60a2508023" x="165.534743" y="187.543894" style="fill: #d62728; stroke: #d62728; stroke-linejoin: miter"/>
     <use xlink:href="#m60a2508023" x="198.358272" y="216.08597" style="fill: #d62728; stroke: #d62728; stroke-linejoin: miter"/>
     <use xlink:href="#m60a2508023" x="231.181801" y="266.912343" style="fill: #d62728; stroke: #d62728; stroke-linejoin: miter"/>
     <use xlink:href="#m60a2508023" x="264.005331" y="287.926498" style="fill: #d62728; stroke: #d62728; stroke-linejoin: miter"/>
     <use xlink:href="#m60a2508023" x="296.82886" y="297.839809" style="fill: #d62728; stroke: #d62728; stroke-linejoin: miter"/>
     <use xlink:href="#m60a2508023" x="329.65239" y="319.607788" style="fill: #d62728; stroke: #d62728; stroke-linejoin: miter"/>
     <use xlink:href="#m60a2508023" x="362.475919" y="329.515937" style="fill: #d62728; stroke: #d62728; stroke-linejoin: miter"/>
     <use xlink:href="#m60a2508023" x="395.299449" y="334.19378" style="fill: #d62728; stroke: #d62728; stroke-linejoin: miter"/>
     <use xlink:href="#m60a2508023" x="428.122978" y="340.95755" style="fill: #d62728; stroke: #d62728; stroke-linejoin: miter"/>
     <use xlink:href="#m60a2508023" x="460.946507" y="343.348104" style="fill: #d62728; stroke: #d62728; stroke-linejoin: miter"/>
     <use xlink:href="#m60a2508023" x="493.770037" y="346.642215" style="fill: #d62728; stroke: #d62728; stroke-linejoin: miter"/>
     <use xlink:href="#m60a2508023" x="526.593566" y="346.941679" style="fill: #d62728; stroke: #d62728; stroke-linejoin: miter"/>
     <use xlink:href="#m60a2508023" x="559.417096" y="348.681672" style="fill: #d62728; stroke: #d62728; stroke-linejoin: miter"/>
    </g>
   </g>
   <g id="patch_21">
    <path d="M 34.240625 479.299875 
L 34.240625 35.779875 
" style="fill: none; stroke: #000000; stroke-width: 0.8; stroke-linejoin: miter; stroke-linecap: square"/>
   </g>
   <g id="patch_22">
    <path d="M 592.240625 479.299875 
L 592.240625 35.779875 
" style="fill: none; stroke: #000000; stroke-width: 0.8; stroke-linejoin: miter; stroke-linecap: square"/>
   </g>
   <g id="patch_23">
    <path d="M 34.240625 479.299875 
L 592.240625 479.299875 
" style="fill: none; stroke: #000000; stroke-width: 0.8; stroke-linejoin: miter; stroke-linecap: square"/>
   </g>
   <g id="patch_24">
    <path d="M 34.240625 35.779875 
L 592.240625 35.779875 
" style="fill: none; stroke: #000000; stroke-width: 0.8; stroke-linejoin: miter; stroke-linecap: square"/>
   </g>
   <g id="text_28">
    <!-- 9.35% -->
    <g transform="translate(69.823529 417.341679) rotate(-90) scale(0.1 -0.1)">
     <defs>
      <path id="DejaVuSans-2e" d="M 684 794 
L 1344 794 
L 1344 0 
L 684 0 
L 684 794 
z
" transform="scale(0.015625)"/>
      <path id="DejaVuSans-25" d="M 4653 2053 
Q 4381 2053 4226 1822 
Q 4072 1591 4072 1178 
Q 4072 772 4226 539 
Q 4381 306 4653 306 
Q 4919 306 5073 539 
Q 5228 772 5228 1178 
Q 5228 1588 5073 1820 
Q 4919 2053 4653 2053 
z
M 4653 2450 
Q 5147 2450 5437 2106 
Q 5728 1763 5728 1178 
Q 5728 594 5436 251 
Q 5144 -91 4653 -91 
Q 4153 -91 3862 251 
Q 3572 594 3572 1178 
Q 3572 1766 3864 2108 
Q 4156 2450 4653 2450 
z
M 1428 4353 
Q 1159 4353 1004 4120 
Q 850 3888 850 3481 
Q 850 3069 1003 2837 
Q 1156 2606 1428 2606 
Q 1700 2606 1854 2837 
Q 2009 3069 2009 3481 
Q 2009 3884 1853 4118 
Q 1697 4353 1428 4353 
z
M 4250 4750 
L 4750 4750 
L 1831 -91 
L 1331 -91 
L 4250 4750 
z
M 1428 4750 
Q 1922 4750 2215 4408 
Q 2509 4066 2509 3481 
Q 2509 2891 2217 2550 
Q 1925 2209 1428 2209 
Q 931 2209 642 2551 
Q 353 2894 353 3481 
Q 353 4063 643 4406 
Q 934 4750 1428 4750 
z
" transform="scale(0.015625)"/>
     </defs>
     <use xlink:href="#DejaVuSans-39"/>
     <use xlink:href="#DejaVuSans-2e" transform="translate(63.623047 0)"/>
     <use xlink:href="#DejaVuSans-33" transform="translate(95.410156 0)"/>
     <use xlink:href="#DejaVuSans-35" transform="translate(159.033203 0)"/>
     <use xlink:href="#DejaVuSans-25" transform="translate(222.65625 0)"/>
    </g>
   </g>
   <g id="text_29">
    <!-- 15.62% -->
    <g transform="translate(102.647059 417.341679) rotate(-90) scale(0.1 -0.1)">
     <use xlink:href="#DejaVuSans-31"/>
     <use xlink:href="#DejaVuSans-35" transform="translate(63.623047 0)"/>
     <use xlink:href="#DejaVuSans-2e" transform="translate(127.246094 0)"/>
     <use xlink:href="#DejaVuSans-36" transform="translate(159.033203 0)"/>
     <use xlink:href="#DejaVuSans-32" transform="translate(222.65625 0)"/>
     <use xlink:href="#DejaVuSans-25" transform="translate(286.279297 0)"/>
    </g>
   </g>
   <g id="text_30">
    <!-- 25.40% -->
    <g transform="translate(135.470588 417.341679) rotate(-90) scale(0.1 -0.1)">
     <use xlink:href="#DejaVuSans-32"/>
     <use xlink:href="#DejaVuSans-35" transform="translate(63.623047 0)"/>
     <use xlink:href="#DejaVuSans-2e" transform="translate(127.246094 0)"/>
     <use xlink:href="#DejaVuSans-34" transform="translate(159.033203 0)"/>
     <use xlink:href="#DejaVuSans-30" transform="translate(222.65625 0)"/>
     <use xlink:href="#DejaVuSans-25" transform="translate(286.279297 0)"/>
    </g>
   </g>
   <g id="text_31">
    <!-- 28.32% -->
    <g transform="translate(168.294118 417.341679) rotate(-90) scale(0.1 -0.1)">
     <use xlink:href="#DejaVuSans-32"/>
     <use xlink:href="#DejaVuSans-38" transform="translate(63.623047 0)"/>
     <use xlink:href="#DejaVuSans-2e" transform="translate(127.246094 0)"/>
     <use xlink:href="#DejaVuSans-33" transform="translate(159.033203 0)"/>
     <use xlink:href="#DejaVuSans-32" transform="translate(222.65625 0)"/>
     <use xlink:href="#DejaVuSans-25" transform="translate(286.279297 0)"/>
    </g>
   </g>
   <g id="text_32">
    <!-- 31.45% -->
    <g transform="translate(201.117647 417.341679) rotate(-90) scale(0.1 -0.1)">
     <use xlink:href="#DejaVuSans-33"/>
     <use xlink:href="#DejaVuSans-31" transform="translate(63.623047 0)"/>
     <use xlink:href="#DejaVuSans-2e" transform="translate(127.246094 0)"/>
     <use xlink:href="#DejaVuSans-34" transform="translate(159.033203 0)"/>
     <use xlink:href="#DejaVuSans-35" transform="translate(222.65625 0)"/>
     <use xlink:href="#DejaVuSans-25" transform="translate(286.279297 0)"/>
    </g>
   </g>
   <g id="text_33">
    <!-- 37.52% -->
    <g transform="translate(233.941176 417.341679) rotate(-90) scale(0.1 -0.1)">
     <use xlink:href="#DejaVuSans-33"/>
     <use xlink:href="#DejaVuSans-37" transform="translate(63.623047 0)"/>
     <use xlink:href="#DejaVuSans-2e" transform="translate(127.246094 0)"/>
     <use xlink:href="#DejaVuSans-35" transform="translate(159.033203 0)"/>
     <use xlink:href="#DejaVuSans-32" transform="translate(222.65625 0)"/>
     <use xlink:href="#DejaVuSans-25" transform="translate(286.279297 0)"/>
    </g>
   </g>
   <g id="text_34">
    <!-- 39.07% -->
    <g transform="translate(266.764706 417.341679) rotate(-90) scale(0.1 -0.1)">
     <use xlink:href="#DejaVuSans-33"/>
     <use xlink:href="#DejaVuSans-39" transform="translate(63.623047 0)"/>
     <use xlink:href="#DejaVuSans-2e" transform="translate(127.246094 0)"/>
     <use xlink:href="#DejaVuSans-30" transform="translate(159.033203 0)"/>
     <use xlink:href="#DejaVuSans-37" transform="translate(222.65625 0)"/>
     <use xlink:href="#DejaVuSans-25" transform="translate(286.279297 0)"/>
    </g>
   </g>
   <g id="text_35">
    <!-- 40.63% -->
    <g transform="translate(299.588235 417.341679) rotate(-90) scale(0.1 -0.1)">
     <use xlink:href="#DejaVuSans-34"/>
     <use xlink:href="#DejaVuSans-30" transform="translate(63.623047 0)"/>
     <use xlink:href="#DejaVuSans-2e" transform="translate(127.246094 0)"/>
     <use xlink:href="#DejaVuSans-36" transform="translate(159.033203 0)"/>
     <use xlink:href="#DejaVuSans-33" transform="translate(222.65625 0)"/>
     <use xlink:href="#DejaVuSans-25" transform="translate(286.279297 0)"/>
    </g>
   </g>
   <g id="text_36">
    <!-- 43.73% -->
    <g transform="translate(332.411765 417.341679) rotate(-90) scale(0.1 -0.1)">
     <use xlink:href="#DejaVuSans-34"/>
     <use xlink:href="#DejaVuSans-33" transform="translate(63.623047 0)"/>
     <use xlink:href="#DejaVuSans-2e" transform="translate(127.246094 0)"/>
     <use xlink:href="#DejaVuSans-37" transform="translate(159.033203 0)"/>
     <use xlink:href="#DejaVuSans-33" transform="translate(222.65625 0)"/>
     <use xlink:href="#DejaVuSans-25" transform="translate(286.279297 0)"/>
    </g>
   </g>
   <g id="text_37">
    <!-- 44.52% -->
    <g transform="translate(365.235294 417.341679) rotate(-90) scale(0.1 -0.1)">
     <use xlink:href="#DejaVuSans-34"/>
     <use xlink:href="#DejaVuSans-34" transform="translate(63.623047 0)"/>
     <use xlink:href="#DejaVuSans-2e" transform="translate(127.246094 0)"/>
     <use xlink:href="#DejaVuSans-35" transform="translate(159.033203 0)"/>
     <use xlink:href="#DejaVuSans-32" transform="translate(222.65625 0)"/>
     <use xlink:href="#DejaVuSans-25" transform="translate(286.279297 0)"/>
    </g>
   </g>
   <g id="text_38">
    <!-- 45.31% -->
    <g transform="translate(398.058824 417.341679) rotate(-90) scale(0.1 -0.1)">
     <use xlink:href="#DejaVuSans-34"/>
     <use xlink:href="#DejaVuSans-35" transform="translate(63.623047 0)"/>
     <use xlink:href="#DejaVuSans-2e" transform="translate(127.246094 0)"/>
     <use xlink:href="#DejaVuSans-33" transform="translate(159.033203 0)"/>
     <use xlink:href="#DejaVuSans-31" transform="translate(222.65625 0)"/>
     <use xlink:href="#DejaVuSans-25" transform="translate(286.279297 0)"/>
    </g>
   </g>
   <g id="text_39">
    <!-- 46.87% -->
    <g transform="translate(430.882353 417.341679) rotate(-90) scale(0.1 -0.1)">
     <use xlink:href="#DejaVuSans-34"/>
     <use xlink:href="#DejaVuSans-36" transform="translate(63.623047 0)"/>
     <use xlink:href="#DejaVuSans-2e" transform="translate(127.246094 0)"/>
     <use xlink:href="#DejaVuSans-38" transform="translate(159.033203 0)"/>
     <use xlink:href="#DejaVuSans-37" transform="translate(222.65625 0)"/>
     <use xlink:href="#DejaVuSans-25" transform="translate(286.279297 0)"/>
    </g>
   </g>
   <g id="text_40">
    <!-- 47.26% -->
    <g transform="translate(463.705882 417.341679) rotate(-90) scale(0.1 -0.1)">
     <use xlink:href="#DejaVuSans-34"/>
     <use xlink:href="#DejaVuSans-37" transform="translate(63.623047 0)"/>
     <use xlink:href="#DejaVuSans-2e" transform="translate(127.246094 0)"/>
     <use xlink:href="#DejaVuSans-32" transform="translate(159.033203 0)"/>
     <use xlink:href="#DejaVuSans-36" transform="translate(222.65625 0)"/>
     <use xlink:href="#DejaVuSans-25" transform="translate(286.279297 0)"/>
    </g>
   </g>
   <g id="text_41">
    <!-- 47.65% -->
    <g transform="translate(496.529412 417.341679) rotate(-90) scale(0.1 -0.1)">
     <use xlink:href="#DejaVuSans-34"/>
     <use xlink:href="#DejaVuSans-37" transform="translate(63.623047 0)"/>
     <use xlink:href="#DejaVuSans-2e" transform="translate(127.246094 0)"/>
     <use xlink:href="#DejaVuSans-36" transform="translate(159.033203 0)"/>
     <use xlink:href="#DejaVuSans-35" transform="translate(222.65625 0)"/>
     <use xlink:href="#DejaVuSans-25" transform="translate(286.279297 0)"/>
    </g>
   </g>
   <g id="text_42">
    <!-- 48.44% -->
    <g transform="translate(529.352941 417.341679) rotate(-90) scale(0.1 -0.1)">
     <use xlink:href="#DejaVuSans-34"/>
     <use xlink:href="#DejaVuSans-38" transform="translate(63.623047 0)"/>
     <use xlink:href="#DejaVuSans-2e" transform="translate(127.246094 0)"/>
     <use xlink:href="#DejaVuSans-34" transform="translate(159.033203 0)"/>
     <use xlink:href="#DejaVuSans-34" transform="translate(222.65625 0)"/>
     <use xlink:href="#DejaVuSans-25" transform="translate(286.279297 0)"/>
    </g>
   </g>
   <g id="text_43">
    <!-- 48.63% -->
    <g transform="translate(562.176471 417.341679) rotate(-90) scale(0.1 -0.1)">
     <use xlink:href="#DejaVuSans-34"/>
     <use xlink:href="#DejaVuSans-38" transform="translate(63.623047 0)"/>
     <use xlink:href="#DejaVuSans-2e" transform="translate(127.246094 0)"/>
     <use xlink:href="#DejaVuSans-36" transform="translate(159.033203 0)"/>
     <use xlink:href="#DejaVuSans-33" transform="translate(222.65625 0)"/>
     <use xlink:href="#DejaVuSans-25" transform="translate(286.279297 0)"/>
    </g>
   </g>
   <g id="text_44">
    <!-- Performance of writes (word = u32) in ζ₃ code as a function of the table size (implied distribution) -->
    <g transform="translate(18.829063 16.318125) scale(0.12 -0.12)">
     <defs>
      <path id="DejaVuSans-50" d="M 1259 4147 
L 1259 2394 
L 2053 2394 
Q 2494 2394 2734 2622 
Q 2975 2850 2975 3272 
Q 2975 3691 2734 3919 
Q 2494 4147 2053 4147 
L 1259 4147 
z
M 628 4666 
L 2053 4666 
Q 2838 4666 3239 4311 
Q 3641 3956 3641 3272 
Q 3641 2581 3239 2228 
Q 2838 1875 2053 1875 
L 1259 1875 
L 1259 0 
L 628 0 
L 628 4666 
z
" transform="scale(0.015625)"/>
      <path id="DejaVuSans-72" d="M 2631 2963 
Q 2534 3019 2420 3045 
Q 2306 3072 2169 3072 
Q 1681 3072 1420 2755 
Q 1159 2438 1159 1844 
L 1159 0 
L 581 0 
L 581 3500 
L 1159 3500 
L 1159 2956 
Q 1341 3275 1631 3429 
Q 1922 3584 2338 3584 
Q 2397 3584 2469 3576 
Q 2541 3569 2628 3553 
L 2631 2963 
z
" transform="scale(0.015625)"/>
      <path id="DejaVuSans-66" d="M 2375 4863 
L 2375 4384 
L 1825 4384 
Q 1516 4384 1395 4259 
Q 1275 4134 1275 3809 
L 1275 3500 
L 2222 3500 
L 2222 3053 
L 1275 3053 
L 1275 0 
L 697 0 
L 697 3053 
L 147 3053 
L 147 3500 
L 697 3500 
L 697 3744 
Q 697 4328 969 4595 
Q 1241 4863 1831 4863 
L 2375 4863 
z
" transform="scale(0.015625)"/>
      <path id="DejaVuSans-6f" d="M 1959 3097 
Q 1497 3097 1228 2736 
Q 959 2375 959 1747 
Q 959 1119 1226 758 
Q 1494 397 1959 397 
Q 2419 397 2687 759 
Q 2956 1122 2956 1747 
Q 2956 2369 2687 2733 
Q 2419 3097 1959 3097 
z
M 1959 3584 
Q 2709 3584 3137 3096 
Q 3566 2609 3566 1747 
Q 3566 888 3137 398 
Q 2709 -91 1959 -91 
Q 1206 -91 779 398 
Q 353 888 353 1747 
Q 353 2609 779 3096 
Q 1206 3584 1959 3584 
z
" transform="scale(0.015625)"/>
      <path id="DejaVuSans-6d" d="M 3328 2828 
Q 3544 3216 3844 3400 
Q 4144 3584 4550 3584 
Q 5097 3584 5394 3201 
Q 5691 2819 5691 2113 
L 5691 0 
L 5113 0 
L 5113 2094 
Q 5113 2597 4934 2840 
Q 4756 3084 4391 3084 
Q 3944 3084 3684 2787 
Q 3425 2491 3425 1978 
L 3425 0 
L 2847 0 
L 2847 2094 
Q 2847 2600 2669 2842 
Q 2491 3084 2119 3084 
Q 1678 3084 1418 2786 
Q 1159 2488 1159 1978 
L 1159 0 
L 581 0 
L 581 3500 
L 1159 3500 
L 1159 2956 
Q 1356 3278 1631 3431 
Q 1906 3584 2284 3584 
Q 2666 3584 2933 3390 
Q 3200 3197 3328 2828 
z
" transform="scale(0.015625)"/>
      <path id="DejaVuSans-63" d="M 3122 3366 
L 3122 2828 
Q 2878 2963 2633 3030 
Q 2388 3097 2138 3097 
Q 1578 3097 1268 2742 
Q 959 2388 959 1747 
Q 959 1106 1268 751 
Q 1578 397 2138 397 
Q 2388 397 2633 464 
Q 2878 531 3122 666 
L 3122 134 
Q 2881 22 2623 -34 
Q 2366 -91 2075 -91 
Q 1284 -91 818 406 
Q 353 903 353 1747 
Q 353 2603 823 3093 
Q 1294 3584 2113 3584 
Q 2378 3584 2631 3529 
Q 2884 3475 3122 3366 
z
" transform="scale(0.015625)"/>
      <path id="DejaVuSans-77" d="M 269 3500 
L 844 3500 
L 1563 769 
L 2278 3500 
L 2956 3500 
L 3675 769 
L 4391 3500 
L 4966 3500 
L 4050 0 
L 3372 0 
L 2619 2869 
L 1863 0 
L 1184 0 
L 269 3500 
z
" transform="scale(0.015625)"/>
      <path id="DejaVuSans-28" d="M 1984 4856 
Q 1566 4138 1362 3434 
Q 1159 2731 1159 2009 
Q 1159 1288 1364 580 
Q 1569 -128 1984 -844 
L 1484 -844 
Q 1016 -109 783 600 
Q 550 1309 550 2009 
Q 550 2706 781 3412 
Q 1013 4119 1484 4856 
L 1984 4856 
z
" transform="scale(0.015625)"/>
      <path id="DejaVuSans-64" d="M 2906 2969 
L 2906 4863 
L 3481 4863 
L 3481 0 
L 2906 0 
L 2906 525 
Q 2725 213 2448 61 
Q 2172 -91 1784 -91 
Q 1150 -91 751 415 
Q 353 922 353 1747 
Q 353 2572 751 3078 
Q 1150 3584 1784 3584 
Q 2172 3584 2448 3432 
Q 2725 3281 2906 2969 
z
M 947 1747 
Q 947 1113 1208 752 
Q 1469 391 1925 391 
Q 2381 391 2643 752 
Q 2906 1113 2906 1747 
Q 2906 2381 2643 2742 
Q 2381 3103 1925 3103 
Q 1469 3103 1208 2742 
Q 947 2381 947 1747 
z
" transform="scale(0.015625)"/>
      <path id="DejaVuSans-3d" d="M 678 2906 
L 4684 2906 
L 4684 2381 
L 678 2381 
L 678 2906 
z
M 678 1631 
L 4684 1631 
L 4684 1100 
L 678 1100 
L 678 1631 
z
" transform="scale(0.015625)"/>
      <path id="DejaVuSans-75" d="M 544 1381 
L 544 3500 
L 1119 3500 
L 1119 1403 
Q 1119 906 1312 657 
Q 1506 409 1894 409 
Q 2359 409 2629 706 
Q 2900 1003 2900 1516 
L 2900 3500 
L 3475 3500 
L 3475 0 
L 2900 0 
L 2900 538 
Q 2691 219 2414 64 
Q 2138 -91 1772 -91 
Q 1169 -91 856 284 
Q 544 659 544 1381 
z
M 1991 3584 
L 1991 3584 
z
" transform="scale(0.015625)"/>
      <path id="DejaVuSans-29" d="M 513 4856 
L 1013 4856 
Q 1481 4119 1714 3412 
Q 1947 2706 1947 2009 
Q 1947 1309 1714 600 
Q 1481 -109 1013 -844 
L 513 -844 
Q 928 -128 1133 580 
Q 1338 1288 1338 2009 
Q 1338 2731 1133 3434 
Q 928 4138 513 4856 
z
" transform="scale(0.015625)"/>
      <path id="DejaVuSans-3b6" d="M 2231 397 
Q 2644 394 2891 159 
Q 3153 -88 3153 -463 
Q 3153 -822 2922 -1072 
Q 2672 -1344 2163 -1344 
Q 2163 -1109 2163 -872 
Q 2378 -888 2509 -750 
Q 2609 -641 2609 -525 
Q 2609 -359 2509 -222 
Q 2413 -91 2231 -91 
Q 338 -91 334 1669 
Q 334 3206 2119 4284 
L 456 4284 
L 456 4863 
L 3175 4863 
L 3175 4284 
Q 913 3147 913 1669 
Q 913 397 2231 397 
z
" transform="scale(0.015625)"/>
      <path id="DejaVuSans-2083" d="M 1638 1412 
Q 1925 1356 2083 1185 
Q 2241 1015 2241 759 
Q 2241 371 1944 162 
Q 1647 -47 1094 -47 
Q 916 -47 720 -14 
Q 525 18 306 81 
L 306 459 
Q 469 375 655 334 
Q 841 293 1050 293 
Q 1391 293 1578 416 
Q 1766 540 1766 759 
Q 1766 990 1592 1109 
Q 1419 1228 1081 1228 
L 813 1228 
L 813 1565 
L 1106 1565 
Q 1400 1565 1551 1663 
Q 1703 1762 1703 1950 
Q 1703 2131 1547 2226 
Q 1391 2321 1094 2321 
Q 969 2321 809 2293 
Q 650 2265 397 2193 
L 397 2553 
Q 625 2606 825 2634 
Q 1025 2662 1197 2662 
Q 1647 2662 1911 2477 
Q 2175 2293 2175 1984 
Q 2175 1768 2034 1618 
Q 1894 1468 1638 1412 
z
" transform="scale(0.015625)"/>
      <path id="DejaVuSans-68" d="M 3513 2113 
L 3513 0 
L 2938 0 
L 2938 2094 
Q 2938 2591 2744 2837 
Q 2550 3084 2163 3084 
Q 1697 3084 1428 2787 
Q 1159 2491 1159 1978 
L 1159 0 
L 581 0 
L 581 4863 
L 1159 4863 
L 1159 2956 
Q 1366 3272 1645 3428 
Q 1925 3584 2291 3584 
Q 2894 3584 3203 3211 
Q 3513 2838 3513 2113 
z
" transform="scale(0.015625)"/>
      <path id="DejaVuSans-7a" d="M 353 3500 
L 3084 3500 
L 3084 2975 
L 922 459 
L 3084 459 
L 3084 0 
L 275 0 
L 275 525 
L 2438 3041 
L 353 3041 
L 353 3500 
z
" transform="scale(0.015625)"/>
      <path id="DejaVuSans-70" d="M 1159 525 
L 1159 -1331 
L 581 -1331 
L 581 3500 
L 1159 3500 
L 1159 2969 
Q 1341 3281 1617 3432 
Q 1894 3584 2278 3584 
Q 2916 3584 3314 3078 
Q 3713 2572 3713 1747 
Q 3713 922 3314 415 
Q 2916 -91 2278 -91 
Q 1894 -91 1617 61 
Q 1341 213 1159 525 
z
M 3116 1747 
Q 3116 2381 2855 2742 
Q 2594 3103 2138 3103 
Q 1681 3103 1420 2742 
Q 1159 2381 1159 1747 
Q 1159 1113 1420 752 
Q 1681 391 2138 391 
Q 2594 391 2855 752 
Q 3116 1113 3116 1747 
z
" transform="scale(0.015625)"/>
     </defs>
     <use xlink:href="#DejaVuSans-50"/>
     <use xlink:href="#DejaVuSans-65" transform="translate(56.677734 0)"/>
     <use xlink:href="#DejaVuSans-72" transform="translate(118.201172 0)"/>
     <use xlink:href="#DejaVuSans-66" transform="translate(159.314453 0)"/>
     <use xlink:href="#DejaVuSans-6f" transform="translate(194.519531 0)"/>
     <use xlink:href="#DejaVuSans-72" transform="translate(255.701172 0)"/>
     <use xlink:href="#DejaVuSans-6d" transform="translate(295.064453 0)"/>
     <use xlink:href="#DejaVuSans-61" transform="translate(392.476562 0)"/>
     <use xlink:href="#DejaVuSans-6e" transform="translate(453.755859 0)"/>
     <use xlink:href="#DejaVuSans-63" transform="translate(517.134766 0)"/>
     <use xlink:href="#DejaVuSans-65" transform="translate(572.115234 0)"/>
     <use xlink:href="#DejaVuSans-20" transform="translate(633.638672 0)"/>
     <use xlink:href="#DejaVuSans-6f" transform="translate(665.425781 0)"/>
     <use xlink:href="#DejaVuSans-66" transform="translate(726.607422 0)"/>
     <use xlink:href="#DejaVuSans-20" transform="translate(761.8125 0)"/>
     <use xlink:href="#DejaVuSans-77" transform="translate(793.599609 0)"/>
     <use xlink:href="#DejaVuSans-72" transform="translate(875.386719 0)"/>
     <use xlink:href="#DejaVuSans-69" transform="translate(916.5 0)"/>
     <use xlink:href="#DejaVuSans-74" transform="translate(944.283203 0)"/>
     <use xlink:href="#DejaVuSans-65" transform="translate(983.492188 0)"/>
     <use xlink:href="#DejaVuSans-73" transform="translate(1045.015625 0)"/>
     <use xlink:href="#DejaVuSans-20" transform="translate(1097.115234 0)"/>
     <use xlink:href="#DejaVuSans-28" transform="translate(1128.902344 0)"/>
     <use xlink:href="#DejaVuSans-77" transform="translate(1167.916016 0)"/>
     <use xlink:href="#DejaVuSans-6f" transform="translate(1249.703125 0)"/>
     <use xlink:href="#DejaVuSans-72" transform="translate(1310.884766 0)"/>
     <use xlink:href="#DejaVuSans-64" transform="translate(1350.248047 0)"/>
     <use xlink:href="#DejaVuSans-20" transform="translate(1413.724609 0)"/>
     <use xlink:href="#DejaVuSans-3d" transform="translate(1445.511719 0)"/>
     <use xlink:href="#DejaVuSans-20" transform="translate(1529.300781 0)"/>
     <use xlink:href="#DejaVuSans-75" transform="translate(1561.087891 0)"/>
     <use xlink:href="#DejaVuSans-33" transform="translate(1624.466797 0)"/>
     <use xlink:href="#DejaVuSans-32" transform="translate(1688.089844 0)"/>
     <use xlink:href="#DejaVuSans-29" transform="translate(1751.712891 0)"/>
     <use xlink:href="#DejaVuSans-20" transform="translate(1790.726562 0)"/>
     <use xlink:href="#DejaVuSans-69" transform="translate(1822.513672 0)"/>
     <use xlink:href="#DejaVuSans-6e" transform="translate(1850.296875 0)"/>
     <use xlink:href="#DejaVuSans-20" transform="translate(1913.675781 0)"/>
     <use xlink:href="#DejaVuSans-3b6" transform="translate(1945.462891 0)"/>
     <use xlink:href="#DejaVuSans-2083" transform="translate(1999.857422 0)"/>
     <use xlink:href="#DejaVuSans-20" transform="translate(2039.945312 0)"/>
     <use xlink:href="#DejaVuSans-63" transform="translate(2071.732422 0)"/>
     <use xlink:href="#DejaVuSans-6f" transform="translate(2126.712891 0)"/>
     <use xlink:href="#DejaVuSans-64" transform="translate(2187.894531 0)"/>
     <use xlink:href="#DejaVuSans-65" transform="translate(2251.371094 0)"/>
     <use xlink:href="#DejaVuSans-20" transform="translate(2312.894531 0)"/>
     <use xlink:href="#DejaVuSans-61" transform="translate(2344.681641 0)"/>
     <use xlink:href="#DejaVuSans-73" transform="translate(2405.960938 0)"/>
     <use xlink:href="#DejaVuSans-20" transform="translate(2458.060547 0)"/>
     <use xlink:href="#DejaVuSans-61" transform="translate(2489.847656 0)"/>
     <use xlink:href="#DejaVuSans-20" transform="translate(2551.126953 0)"/>
     <use xlink:href="#DejaVuSans-66" transform="translate(2582.914062 0)"/>
     <use xlink:href="#DejaVuSans-75" transform="translate(2618.119141 0)"/>
     <use xlink:href="#DejaVuSans-6e" transform="translate(2681.498047 0)"/>
     <use xlink:href="#DejaVuSans-63" transform="translate(2744.876953 0)"/>
     <use xlink:href="#DejaVuSans-74" transform="translate(2799.857422 0)"/>
     <use xlink:href="#DejaVuSans-69" transform="translate(2839.066406 0)"/>
     <use xlink:href="#DejaVuSans-6f" transform="translate(2866.849609 0)"/>
     <use xlink:href="#DejaVuSans-6e" transform="translate(2928.03125 0)"/>
     <use xlink:href="#DejaVuSans-20" transform="translate(2991.410156 0)"/>
     <use xlink:href="#DejaVuSans-6f" transform="translate(3023.197266 0)"/>
     <use xlink:href="#DejaVuSans-66" transform="translate(3084.378906 0)"/>
     <use xlink:href="#DejaVuSans-20" transform="translate(3119.583984 0)"/>
     <use xlink:href="#DejaVuSans-74" transform="translate(3151.371094 0)"/>
     <use xlink:href="#DejaVuSans-68" transform="translate(3190.580078 0)"/>
     <use xlink:href="#DejaVuSans-65" transform="translate(3253.958984 0)"/>
     <use xlink:href="#DejaVuSans-20" transform="translate(3315.482422 0)"/>
     <use xlink:href="#DejaVuSans-74" transform="translate(3347.269531 0)"/>
     <use xlink:href="#DejaVuSans-61" transform="translate(3386.478516 0)"/>
     <use xlink:href="#DejaVuSans-62" transform="translate(3447.757812 0)"/>
     <use xlink:href="#DejaVuSans-6c" transform="translate(3511.234375 0)"/>
     <use xlink:href="#DejaVuSans-65" transform="translate(3539.017578 0)"/>
     <use xlink:href="#DejaVuSans-20" transform="translate(3600.541016 0)"/>
     <use xlink:href="#DejaVuSans-73" transform="translate(3632.328125 0)"/>
     <use xlink:href="#DejaVuSans-69" transform="translate(3684.427734 0)"/>
     <use xlink:href="#DejaVuSans-7a" transform="translate(3712.210938 0)"/>
     <use xlink:href="#DejaVuSans-65" transform="translate(3764.701172 0)"/>
     <use xlink:href="#DejaVuSans-20" transform="translate(3826.224609 0)"/>
     <use xlink:href="#DejaVuSans-28" transform="translate(3858.011719 0)"/>
     <use xlink:href="#DejaVuSans-69" transform="translate(3897.025391 0)"/>
     <use xlink:href="#DejaVuSans-6d" transform="translate(3924.808594 0)"/>
     <use xlink:href="#DejaVuSans-70" transform="translate(4022.220703 0)"/>
     <use xlink:href="#DejaVuSans-6c" transform="translate(4085.697266 0)"/>
     <use xlink:href="#DejaVuSans-69" transform="translate(4113.480469 0)"/>
     <use xlink:href="#DejaVuSans-65" transform="translate(4141.263672 0)"/>
     <use xlink:href="#DejaVuSans-64" transform="translate(4202.787109 0)"/>
     <use xlink:href="#DejaVuSans-20" transform="translate(4266.263672 0)"/>
     <use xlink:href="#DejaVuSans-64" transform="translate(4298.050781 0)"/>
     <use xlink:href="#DejaVuSans-69" transform="translate(4361.527344 0)"/>
     <use xlink:href="#DejaVuSans-73" transform="translate(4389.310547 0)"/>
     <use xlink:href="#DejaVuSans-74" transform="translate(4441.410156 0)"/>
     <use xlink:href="#DejaVuSans-72" transform="translate(4480.619141 0)"/>
     <use xlink:href="#DejaVuSans-69" transform="translate(4521.732422 0)"/>
     <use xlink:href="#DejaVuSans-62" transform="translate(4549.515625 0)"/>
     <use xlink:href="#DejaVuSans-75" transform="translate(4612.992188 0)"/>
     <use xlink:href="#DejaVuSans-74" transform="translate(4676.371094 0)"/>
     <use xlink:href="#DejaVuSans-69" transform="translate(4715.580078 0)"/>
     <use xlink:href="#DejaVuSans-6f" transform="translate(4743.363281 0)"/>
     <use xlink:href="#DejaVuSans-6e" transform="translate(4804.544922 0)"/>
     <use xlink:href="#DejaVuSans-29" transform="translate(4867.923828 0)"/>
    </g>
    <!-- Shaded areas are 95% confidence intervals and the plots are means -->
    <g transform="translate(107.585938 29.779875) scale(0.12 -0.12)">
     <defs>
      <path id="DejaVuSans-53" d="M 3425 4513 
L 3425 3897 
Q 3066 4069 2747 4153 
Q 2428 4238 2131 4238 
Q 1616 4238 1336 4038 
Q 1056 3838 1056 3469 
Q 1056 3159 1242 3001 
Q 1428 2844 1947 2747 
L 2328 2669 
Q 3034 2534 3370 2195 
Q 3706 1856 3706 1288 
Q 3706 609 3251 259 
Q 2797 -91 1919 -91 
Q 1588 -91 1214 -16 
Q 841 59 441 206 
L 441 856 
Q 825 641 1194 531 
Q 1563 422 1919 422 
Q 2459 422 2753 634 
Q 3047 847 3047 1241 
Q 3047 1584 2836 1778 
Q 2625 1972 2144 2069 
L 1759 2144 
Q 1053 2284 737 2584 
Q 422 2884 422 3419 
Q 422 4038 858 4394 
Q 1294 4750 2059 4750 
Q 2388 4750 2728 4690 
Q 3069 4631 3425 4513 
z
" transform="scale(0.015625)"/>
      <path id="DejaVuSans-76" d="M 191 3500 
L 800 3500 
L 1894 563 
L 2988 3500 
L 3597 3500 
L 2284 0 
L 1503 0 
L 191 3500 
z
" transform="scale(0.015625)"/>
     </defs>
     <use xlink:href="#DejaVuSans-53"/>
     <use xlink:href="#DejaVuSans-68" transform="translate(63.476562 0)"/>
     <use xlink:href="#DejaVuSans-61" transform="translate(126.855469 0)"/>
     <use xlink:href="#DejaVuSans-64" transform="translate(188.134766 0)"/>
     <use xlink:href="#DejaVuSans-65" transform="translate(251.611328 0)"/>
     <use xlink:href="#DejaVuSans-64" transform="translate(313.134766 0)"/>
     <use xlink:href="#DejaVuSans-20" transform="translate(376.611328 0)"/>
     <use xlink:href="#DejaVuSans-61" transform="translate(408.398438 0)"/>
     <use xlink:href="#DejaVuSans-72" transform="translate(469.677734 0)"/>
     <use xlink:href="#DejaVuSans-65" transform="translate(508.541016 0)"/>
     <use xlink:href="#DejaVuSans-61" transform="translate(570.064453 0)"/>
     <use xlink:href="#DejaVuSans-73" transform="translate(631.34375 0)"/>
     <use xlink:href="#DejaVuSans-20" transform="translate(683.443359 0)"/>
     <use xlink:href="#DejaVuSans-61" transform="translate(715.230469 0)"/>
     <use xlink:href="#DejaVuSans-72" transform="translate(776.509766 0)"/>
     <use xlink:href="#DejaVuSans-65" transform="translate(815.373047 0)"/>
     <use xlink:href="#DejaVuSans-20" transform="translate(876.896484 0)"/>
     <use xlink:href="#DejaVuSans-39" transform="translate(908.683594 0)"/>
     <use xlink:href="#DejaVuSans-35" transform="translate(972.306641 0)"/>
     <use xlink:href="#DejaVuSans-25" transform="translate(1035.929688 0)"/>
     <use xlink:href="#DejaVuSans-20" transform="translate(1130.949219 0)"/>
     <use xlink:href="#DejaVuSans-63" transform="translate(1162.736328 0)"/>
     <use xlink:href="#DejaVuSans-6f" transform="translate(1217.716797 0)"/>
     <use xlink:href="#DejaVuSans-6e" transform="translate(1278.898438 0)"/>
     <use xlink:href="#DejaVuSans-66" transform="translate(1342.277344 0)"/>
     <use xlink:href="#DejaVuSans-69" transform="translate(1377.482422 0)"/>
     <use xlink:href="#DejaVuSans-64" transform="translate(1405.265625 0)"/>
     <use xlink:href="#DejaVuSans-65" transform="translate(1468.742188 0)"/>
     <use xlink:href="#DejaVuSans-6e" transform="translate(1530.265625 0)"/>
     <use xlink:href="#DejaVuSans-63" transform="translate(1593.644531 0)"/>
     <use xlink:href="#DejaVuSans-65" transform="translate(1648.625 0)"/>
     <use xlink:href="#DejaVuSans-20" transform="translate(1710.148438 0)"/>
     <use xlink:href="#DejaVuSans-69" transform="translate(1741.935547 0)"/>
     <use xlink:href="#DejaVuSans-6e" transform="translate(1769.71875 0)"/>
     <use xlink:href="#DejaVuSans-74" transform="translate(1833.097656 0)"/>
     <use xlink:href="#DejaVuSans-65" transform="translate(1872.306641 0)"/>
     <use xlink:href="#DejaVuSans-72" transform="translate(1933.830078 0)"/>
     <use xlink:href="#DejaVuSans-76" transform="translate(1974.943359 0)"/>
     <use xlink:href="#DejaVuSans-61" transform="translate(2034.123047 0)"/>
     <use xlink:href="#DejaVuSans-6c" transform="translate(2095.402344 0)"/>
     <use xlink:href="#DejaVuSans-73" transform="translate(2123.185547 0)"/>
     <use xlink:href="#DejaVuSans-20" transform="translate(2175.285156 0)"/>
     <use xlink:href="#DejaVuSans-61" transform="translate(2207.072266 0)"/>
     <use xlink:href="#DejaVuSans-6e" transform="translate(2268.351562 0)"/>
     <use xlink:href="#DejaVuSans-64" transform="translate(2331.730469 0)"/>
     <use xlink:href="#DejaVuSans-20" transform="translate(2395.207031 0)"/>
     <use xlink:href="#DejaVuSans-74" transform="translate(2426.994141 0)"/>
     <use xlink:href="#DejaVuSans-68" transform="translate(2466.203125 0)"/>
     <use xlink:href="#DejaVuSans-65" transform="translate(2529.582031 0)"/>
     <use xlink:href="#DejaVuSans-20" transform="translate(2591.105469 0)"/>
     <use xlink:href="#DejaVuSans-70" transform="translate(2622.892578 0)"/>
     <use xlink:href="#DejaVuSans-6c" transform="translate(2686.369141 0)"/>
     <use xlink:href="#DejaVuSans-6f" transform="translate(2714.152344 0)"/>
     <use xlink:href="#DejaVuSans-74" transform="translate(2775.333984 0)"/>
     <use xlink:href="#DejaVuSans-73" transform="translate(2814.542969 0)"/>
     <use xlink:href="#DejaVuSans-20" transform="translate(2866.642578 0)"/>
     <use xlink:href="#DejaVuSans-61" transform="translate(2898.429688 0)"/>
     <use xlink:href="#DejaVuSans-72" transform="translate(2959.708984 0)"/>
     <use xlink:href="#DejaVuSans-65" transform="translate(2998.572266 0)"/>
     <use xlink:href="#DejaVuSans-20" transform="translate(3060.095703 0)"/>
     <use xlink:href="#DejaVuSans-6d" transform="translate(3091.882812 0)"/>
     <use xlink:href="#DejaVuSans-65" transform="translate(3189.294922 0)"/>
     <use xlink:href="#DejaVuSans-61" transform="translate(3250.818359 0)"/>
     <use xlink:href="#DejaVuSans-6e" transform="translate(3312.097656 0)"/>
     <use xlink:href="#DejaVuSans-73" transform="translate(3375.476562 0)"/>
    </g>
   </g>
   <g id="legend_1">
    <g id="patch_25">
     <path d="M 599.240625 317.752375 
L 849.515625 317.752375 
Q 851.515625 317.752375 851.515625 315.752375 
L 851.515625 199.327375 
Q 851.515625 197.327375 849.515625 197.327375 
L 599.240625 197.327375 
Q 597.240625 197.327375 597.240625 199.327375 
L 597.240625 315.752375 
Q 597.240625 317.752375 599.240625 317.752375 
z
" style="fill: #ffffff; opacity: 0.8; stroke: #cccccc; stroke-linejoin: miter"/>
    </g>
    <g id="line2d_33">
     <path d="M 601.240625 205.425813 
L 621.240625 205.425813 
" style="fill: none; stroke: #1f77b4; stroke-width: 1.5; stroke-linecap: square"/>
    </g>
    <g id="line2d_34">
     <g>
      <use xlink:href="#mc3a43e5952" x="611.240625" y="205.425813" style="fill: #1f77b4; stroke: #1f77b4"/>
     </g>
    </g>
    <g id="text_45">
     <!-- LE::Table::merged (min: 2.644ns @ 16 bits) -->
     <g transform="translate(629.240625 208.925813) scale(0.1 -0.1)">
      <defs>
       <path id="DejaVuSans-4c" d="M 628 4666 
L 1259 4666 
L 1259 531 
L 3531 531 
L 3531 0 
L 628 0 
L 628 4666 
z
" transform="scale(0.015625)"/>
       <path id="DejaVuSans-45" d="M 628 4666 
L 3578 4666 
L 3578 4134 
L 1259 4134 
L 1259 2753 
L 3481 2753 
L 3481 2222 
L 1259 2222 
L 1259 531 
L 3634 531 
L 3634 0 
L 628 0 
L 628 4666 
z
" transform="scale(0.015625)"/>
       <path id="DejaVuSans-3a" d="M 750 794 
L 1409 794 
L 1409 0 
L 750 0 
L 750 794 
z
M 750 3309 
L 1409 3309 
L 1409 2516 
L 750 2516 
L 750 3309 
z
" transform="scale(0.015625)"/>
       <path id="DejaVuSans-54" d="M -19 4666 
L 3928 4666 
L 3928 4134 
L 2272 4134 
L 2272 0 
L 1638 0 
L 1638 4134 
L -19 4134 
L -19 4666 
z
" transform="scale(0.015625)"/>
       <path id="DejaVuSans-67" d="M 2906 1791 
Q 2906 2416 2648 2759 
Q 2391 3103 1925 3103 
Q 1463 3103 1205 2759 
Q 947 2416 947 1791 
Q 947 1169 1205 825 
Q 1463 481 1925 481 
Q 2391 481 2648 825 
Q 2906 1169 2906 1791 
z
M 3481 434 
Q 3481 -459 3084 -895 
Q 2688 -1331 1869 -1331 
Q 1566 -1331 1297 -1286 
Q 1028 -1241 775 -1147 
L 775 -588 
Q 1028 -725 1275 -790 
Q 1522 -856 1778 -856 
Q 2344 -856 2625 -561 
Q 2906 -266 2906 331 
L 2906 616 
Q 2728 306 2450 153 
Q 2172 0 1784 0 
Q 1141 0 747 490 
Q 353 981 353 1791 
Q 353 2603 747 3093 
Q 1141 3584 1784 3584 
Q 2172 3584 2450 3431 
Q 2728 3278 2906 2969 
L 2906 3500 
L 3481 3500 
L 3481 434 
z
" transform="scale(0.015625)"/>
       <path id="DejaVuSans-40" d="M 2381 1678 
Q 2381 1231 2603 976 
Q 2825 722 3213 722 
Q 3597 722 3817 978 
Q 4038 1234 4038 1678 
Q 4038 2116 3813 2373 
Q 3588 2631 3206 2631 
Q 2828 2631 2604 2375 
Q 2381 2119 2381 1678 
z
M 4084 744 
Q 3897 503 3655 389 
Q 3413 275 3091 275 
Q 2553 275 2217 664 
Q 1881 1053 1881 1678 
Q 1881 2303 2218 2693 
Q 2556 3084 3091 3084 
Q 3413 3084 3656 2967 
Q 3900 2850 4084 2613 
L 4084 3022 
L 4531 3022 
L 4531 722 
Q 4988 791 5245 1139 
Q 5503 1488 5503 2041 
Q 5503 2375 5404 2669 
Q 5306 2963 5106 3213 
Q 4781 3622 4314 3839 
Q 3847 4056 3297 4056 
Q 2913 4056 2559 3954 
Q 2206 3853 1906 3653 
Q 1416 3334 1139 2817 
Q 863 2300 863 1697 
Q 863 1200 1042 765 
Q 1222 331 1563 0 
Q 1891 -325 2322 -495 
Q 2753 -666 3244 -666 
Q 3647 -666 4036 -530 
Q 4425 -394 4750 -141 
L 5031 -488 
Q 4641 -791 4180 -952 
Q 3719 -1113 3244 -1113 
Q 2666 -1113 2153 -908 
Q 1641 -703 1241 -313 
Q 841 78 631 592 
Q 422 1106 422 1697 
Q 422 2266 634 2781 
Q 847 3297 1241 3688 
Q 1644 4084 2172 4295 
Q 2700 4506 3291 4506 
Q 3953 4506 4520 4234 
Q 5088 3963 5472 3463 
Q 5706 3156 5829 2797 
Q 5953 2438 5953 2053 
Q 5953 1231 5456 756 
Q 4959 281 4084 263 
L 4084 744 
z
" transform="scale(0.015625)"/>
      </defs>
      <use xlink:href="#DejaVuSans-4c"/>
      <use xlink:href="#DejaVuSans-45" transform="translate(55.712891 0)"/>
      <use xlink:href="#DejaVuSans-3a" transform="translate(118.896484 0)"/>
      <use xlink:href="#DejaVuSans-3a" transform="translate(152.587891 0)"/>
      <use xlink:href="#DejaVuSans-54" transform="translate(186.279297 0)"/>
      <use xlink:href="#DejaVuSans-61" transform="translate(230.863281 0)"/>
      <use xlink:href="#DejaVuSans-62" transform="translate(292.142578 0)"/>
      <use xlink:href="#DejaVuSans-6c" transform="translate(355.619141 0)"/>
      <use xlink:href="#DejaVuSans-65" transform="translate(383.402344 0)"/>
      <use xlink:href="#DejaVuSans-3a" transform="translate(444.925781 0)"/>
      <use xlink:href="#DejaVuSans-3a" transform="translate(478.617188 0)"/>
      <use xlink:href="#DejaVuSans-6d" transform="translate(512.308594 0)"/>
      <use xlink:href="#DejaVuSans-65" transform="translate(609.720703 0)"/>
      <use xlink:href="#DejaVuSans-72" transform="translate(671.244141 0)"/>
      <use xlink:href="#DejaVuSans-67" transform="translate(710.607422 0)"/>
      <use xlink:href="#DejaVuSans-65" transform="translate(774.083984 0)"/>
      <use xlink:href="#DejaVuSans-64" transform="translate(835.607422 0)"/>
      <use xlink:href="#DejaVuSans-20" transform="translate(899.083984 0)"/>
      <use xlink:href="#DejaVuSans-28" transform="translate(930.871094 0)"/>
      <use xlink:href="#DejaVuSans-6d" transform="translate(969.884766 0)"/>
      <use xlink:href="#DejaVuSans-69" transform="translate(1067.296875 0)"/>
      <use xlink:href="#DejaVuSans-6e" transform="translate(1095.080078 0)"/>
      <use xlink:href="#DejaVuSans-3a" transform="translate(1158.458984 0)"/>
      <use xlink:href="#DejaVuSans-20" transform="translate(1192.150391 0)"/>
      <use xlink:href="#DejaVuSans-32" transform="translate(1223.9375 0)"/>
      <use xlink:href="#DejaVuSans-2e" transform="translate(1287.560547 0)"/>
      <use xlink:href="#DejaVuSans-36" transform="translate(1319.347656 0)"/>
      <use xlink:href="#DejaVuSans-34" transform="translate(1382.970703 0)"/>
      <use xlink:href="#DejaVuSans-34" transform="translate(1446.59375 0)"/>
      <use xlink:href="#DejaVuSans-6e" transform="translate(1510.216797 0)"/>
      <use xlink:href="#DejaVuSans-73" transform="translate(1573.595703 0)"/>
      <use xlink:href="#DejaVuSans-20" transform="translate(1625.695312 0)"/>
      <use xlink:href="#DejaVuSans-40" transform="translate(1657.482422 0)"/>
      <use xlink:href="#DejaVuSans-20" transform="translate(1757.482422 0)"/>
      <use xlink:href="#DejaVuSans-31" transform="translate(1789.269531 0)"/>
      <use xlink:href="#DejaVuSans-36" transform="translate(1852.892578 0)"/>
      <use xlink:href="#DejaVuSans-20" transform="translate(1916.515625 0)"/>
      <use xlink:href="#DejaVuSans-62" transform="translate(1948.302734 0)"/>
      <use xlink:href="#DejaVuSans-69" transform="translate(2011.779297 0)"/>
      <use xlink:href="#DejaVuSans-74" transform="translate(2039.5625 0)"/>
      <use xlink:href="#DejaVuSans-73" transform="translate(2078.771484 0)"/>
      <use xlink:href="#DejaVuSans-29" transform="translate(2130.871094 0)"/>
     </g>
    </g>
    <g id="line2d_35">
     <path d="M 601.240625 220.103938 
L 621.240625 220.103938 
" style="fill: none; stroke: #ff7f0e; stroke-width: 1.5; stroke-linecap: square"/>
    </g>
    <g id="line2d_36">
     <g>
      <use xlink:href="#m8474230f34" x="611.240625" y="220.103938" style="fill: #ff7f0e; stroke: #ff7f0e"/>
     </g>
    </g>
    <g id="text_46">
     <!-- BE::Table::merged (min: 2.617ns @ 15 bits) -->
     <g transform="translate(629.240625 223.603938) scale(0.1 -0.1)">
      <defs>
       <path id="DejaVuSans-42" d="M 1259 2228 
L 1259 519 
L 2272 519 
Q 2781 519 3026 730 
Q 3272 941 3272 1375 
Q 3272 1813 3026 2020 
Q 2781 2228 2272 2228 
L 1259 2228 
z
M 1259 4147 
L 1259 2741 
L 2194 2741 
Q 2656 2741 2882 2914 
Q 3109 3088 3109 3444 
Q 3109 3797 2882 3972 
Q 2656 4147 2194 4147 
L 1259 4147 
z
M 628 4666 
L 2241 4666 
Q 2963 4666 3353 4366 
Q 3744 4066 3744 3513 
Q 3744 3084 3544 2831 
Q 3344 2578 2956 2516 
Q 3422 2416 3680 2098 
Q 3938 1781 3938 1306 
Q 3938 681 3513 340 
Q 3088 0 2303 0 
L 628 0 
L 628 4666 
z
" transform="scale(0.015625)"/>
      </defs>
      <use xlink:href="#DejaVuSans-42"/>
      <use xlink:href="#DejaVuSans-45" transform="translate(68.603516 0)"/>
      <use xlink:href="#DejaVuSans-3a" transform="translate(131.787109 0)"/>
      <use xlink:href="#DejaVuSans-3a" transform="translate(165.478516 0)"/>
      <use xlink:href="#DejaVuSans-54" transform="translate(199.169922 0)"/>
      <use xlink:href="#DejaVuSans-61" transform="translate(243.753906 0)"/>
      <use xlink:href="#DejaVuSans-62" transform="translate(305.033203 0)"/>
      <use xlink:href="#DejaVuSans-6c" transform="translate(368.509766 0)"/>
      <use xlink:href="#DejaVuSans-65" transform="translate(396.292969 0)"/>
      <use xlink:href="#DejaVuSans-3a" transform="translate(457.816406 0)"/>
      <use xlink:href="#DejaVuSans-3a" transform="translate(491.507812 0)"/>
      <use xlink:href="#DejaVuSans-6d" transform="translate(525.199219 0)"/>
      <use xlink:href="#DejaVuSans-65" transform="translate(622.611328 0)"/>
      <use xlink:href="#DejaVuSans-72" transform="translate(684.134766 0)"/>
      <use xlink:href="#DejaVuSans-67" transform="translate(723.498047 0)"/>
      <use xlink:href="#DejaVuSans-65" transform="translate(786.974609 0)"/>
      <use xlink:href="#DejaVuSans-64" transform="translate(848.498047 0)"/>
      <use xlink:href="#DejaVuSans-20" transform="translate(911.974609 0)"/>
      <use xlink:href="#DejaVuSans-28" transform="translate(943.761719 0)"/>
      <use xlink:href="#DejaVuSans-6d" transform="translate(982.775391 0)"/>
      <use xlink:href="#DejaVuSans-69" transform="translate(1080.1875 0)"/>
      <use xlink:href="#DejaVuSans-6e" transform="translate(1107.970703 0)"/>
      <use xlink:href="#DejaVuSans-3a" transform="translate(1171.349609 0)"/>
      <use xlink:href="#DejaVuSans-20" transform="translate(1205.041016 0)"/>
      <use xlink:href="#DejaVuSans-32" transform="translate(1236.828125 0)"/>
      <use xlink:href="#DejaVuSans-2e" transform="translate(1300.451172 0)"/>
      <use xlink:href="#DejaVuSans-36" transform="translate(1332.238281 0)"/>
      <use xlink:href="#DejaVuSans-31" transform="translate(1395.861328 0)"/>
      <use xlink:href="#DejaVuSans-37" transform="translate(1459.484375 0)"/>
      <use xlink:href="#DejaVuSans-6e" transform="translate(1523.107422 0)"/>
      <use xlink:href="#DejaVuSans-73" transform="translate(1586.486328 0)"/>
      <use xlink:href="#DejaVuSans-20" transform="translate(1638.585938 0)"/>
      <use xlink:href="#DejaVuSans-40" transform="translate(1670.373047 0)"/>
      <use xlink:href="#DejaVuSans-20" transform="translate(1770.373047 0)"/>
      <use xlink:href="#DejaVuSans-31" transform="translate(1802.160156 0)"/>
      <use xlink:href="#DejaVuSans-35" transform="translate(1865.783203 0)"/>
      <use xlink:href="#DejaVuSans-20" transform="translate(1929.40625 0)"/>
      <use xlink:href="#DejaVuSans-62" transform="translate(1961.193359 0)"/>
      <use xlink:href="#DejaVuSans-69" transform="translate(2024.669922 0)"/>
      <use xlink:href="#DejaVuSans-74" transform="translate(2052.453125 0)"/>
      <use xlink:href="#DejaVuSans-73" transform="translate(2091.662109 0)"/>
      <use xlink:href="#DejaVuSans-29" transform="translate(2143.761719 0)"/>
     </g>
    </g>
    <g id="line2d_37">
     <path d="M 601.240625 234.782063 
L 621.240625 234.782063 
" style="fill: none; stroke: #2ca02c; stroke-width: 1.5; stroke-linecap: square"/>
    </g>
    <g id="line2d_38">
     <g>
      <use xlink:href="#m7a186f42e6" x="611.240625" y="234.782063" style="fill: #2ca02c; stroke: #2ca02c; stroke-linejoin: miter"/>
     </g>
    </g>
    <g id="text_47">
     <!-- LE::Table::sep (min: 2.513ns @ 16 bits) -->
     <g transform="translate(629.240625 238.282063) scale(0.1 -0.1)">
      <use xlink:href="#DejaVuSans-4c"/>
      <use xlink:href="#DejaVuSans-45" transform="translate(55.712891 0)"/>
      <use xlink:href="#DejaVuSans-3a" transform="translate(118.896484 0)"/>
      <use xlink:href="#DejaVuSans-3a" transform="translate(152.587891 0)"/>
      <use xlink:href="#DejaVuSans-54" transform="translate(186.279297 0)"/>
      <use xlink:href="#DejaVuSans-61" transform="translate(230.863281 0)"/>
      <use xlink:href="#DejaVuSans-62" transform="translate(292.142578 0)"/>
      <use xlink:href="#DejaVuSans-6c" transform="translate(355.619141 0)"/>
      <use xlink:href="#DejaVuSans-65" transform="translate(383.402344 0)"/>
      <use xlink:href="#DejaVuSans-3a" transform="translate(444.925781 0)"/>
      <use xlink:href="#DejaVuSans-3a" transform="translate(478.617188 0)"/>
      <use xlink:href="#DejaVuSans-73" transform="translate(512.308594 0)"/>
      <use xlink:href="#DejaVuSans-65" transform="translate(564.408203 0)"/>
      <use xlink:href="#DejaVuSans-70" transform="translate(625.931641 0)"/>
      <use xlink:href="#DejaVuSans-20" transform="translate(689.408203 0)"/>
      <use xlink:href="#DejaVuSans-28" transform="translate(721.195312 0)"/>
      <use xlink:href="#DejaVuSans-6d" transform="translate(760.208984 0)"/>
      <use xlink:href="#DejaVuSans-69" transform="translate(857.621094 0)"/>
      <use xlink:href="#DejaVuSans-6e" transform="translate(885.404297 0)"/>
      <use xlink:href="#DejaVuSans-3a" transform="translate(948.783203 0)"/>
      <use xlink:href="#DejaVuSans-20" transform="translate(982.474609 0)"/>
      <use xlink:href="#DejaVuSans-32" transform="translate(1014.261719 0)"/>
      <use xlink:href="#DejaVuSans-2e" transform="translate(1077.884766 0)"/>
      <use xlink:href="#DejaVuSans-35" transform="translate(1109.671875 0)"/>
      <use xlink:href="#DejaVuSans-31" transform="translate(1173.294922 0)"/>
      <use xlink:href="#DejaVuSans-33" transform="translate(1236.917969 0)"/>
      <use xlink:href="#DejaVuSans-6e" transform="translate(1300.541016 0)"/>
      <use xlink:href="#DejaVuSans-73" transform="translate(1363.919922 0)"/>
      <use xlink:href="#DejaVuSans-20" transform="translate(1416.019531 0)"/>
      <use xlink:href="#DejaVuSans-40" transform="translate(1447.806641 0)"/>
      <use xlink:href="#DejaVuSans-20" transform="translate(1547.806641 0)"/>
      <use xlink:href="#DejaVuSans-31" transform="translate(1579.59375 0)"/>
      <use xlink:href="#DejaVuSans-36" transform="translate(1643.216797 0)"/>
      <use xlink:href="#DejaVuSans-20" transform="translate(1706.839844 0)"/>
      <use xlink:href="#DejaVuSans-62" transform="translate(1738.626953 0)"/>
      <use xlink:href="#DejaVuSans-69" transform="translate(1802.103516 0)"/>
      <use xlink:href="#DejaVuSans-74" transform="translate(1829.886719 0)"/>
      <use xlink:href="#DejaVuSans-73" transform="translate(1869.095703 0)"/>
      <use xlink:href="#DejaVuSans-29" transform="translate(1921.195312 0)"/>
     </g>
    </g>
    <g id="line2d_39">
     <path d="M 601.240625 249.460188 
L 621.240625 249.460188 
" style="fill: none; stroke: #d62728; stroke-width: 1.5; stroke-linecap: square"/>
    </g>
    <g id="line2d_40">
     <g>
      <use xlink:href="#m60a2508023" x="611.240625" y="249.460188" style="fill: #d62728; stroke: #d62728; stroke-linejoin: miter"/>
     </g>
    </g>
    <g id="text_48">
     <!-- BE::Table::sep (min: 2.530ns @ 16 bits) -->
     <g transform="translate(629.240625 252.960188) scale(0.1 -0.1)">
      <use xlink:href="#DejaVuSans-42"/>
      <use xlink:href="#DejaVuSans-45" transform="translate(68.603516 0)"/>
      <use xlink:href="#DejaVuSans-3a" transform="translate(131.787109 0)"/>
      <use xlink:href="#DejaVuSans-3a" transform="translate(165.478516 0)"/>
      <use xlink:href="#DejaVuSans-54" transform="translate(199.169922 0)"/>
      <use xlink:href="#DejaVuSans-61" transform="translate(243.753906 0)"/>
      <use xlink:href="#DejaVuSans-62" transform="translate(305.033203 0)"/>
      <use xlink:href="#DejaVuSans-6c" transform="translate(368.509766 0)"/>
      <use xlink:href="#DejaVuSans-65" transform="translate(396.292969 0)"/>
      <use xlink:href="#DejaVuSans-3a" transform="translate(457.816406 0)"/>
      <use xlink:href="#DejaVuSans-3a" transform="translate(491.507812 0)"/>
      <use xlink:href="#DejaVuSans-73" transform="translate(525.199219 0)"/>
      <use xlink:href="#DejaVuSans-65" transform="translate(577.298828 0)"/>
      <use xlink:href="#DejaVuSans-70" transform="translate(638.822266 0)"/>
      <use xlink:href="#DejaVuSans-20" transform="translate(702.298828 0)"/>
      <use xlink:href="#DejaVuSans-28" transform="translate(734.085938 0)"/>
      <use xlink:href="#DejaVuSans-6d" transform="translate(773.099609 0)"/>
      <use xlink:href="#DejaVuSans-69" transform="translate(870.511719 0)"/>
      <use xlink:href="#DejaVuSans-6e" transform="translate(898.294922 0)"/>
      <use xlink:href="#DejaVuSans-3a" transform="translate(961.673828 0)"/>
      <use xlink:href="#DejaVuSans-20" transform="translate(995.365234 0)"/>
      <use xlink:href="#DejaVuSans-32" transform="translate(1027.152344 0)"/>
      <use xlink:href="#DejaVuSans-2e" transform="translate(1090.775391 0)"/>
      <use xlink:href="#DejaVuSans-35" transform="translate(1122.5625 0)"/>
      <use xlink:href="#DejaVuSans-33" transform="translate(1186.185547 0)"/>
      <use xlink:href="#DejaVuSans-30" transform="translate(1249.808594 0)"/>
      <use xlink:href="#DejaVuSans-6e" transform="translate(1313.431641 0)"/>
      <use xlink:href="#DejaVuSans-73" transform="translate(1376.810547 0)"/>
      <use xlink:href="#DejaVuSans-20" transform="translate(1428.910156 0)"/>
      <use xlink:href="#DejaVuSans-40" transform="translate(1460.697266 0)"/>
      <use xlink:href="#DejaVuSans-20" transform="translate(1560.697266 0)"/>
      <use xlink:href="#DejaVuSans-31" transform="translate(1592.484375 0)"/>
      <use xlink:href="#DejaVuSans-36" transform="translate(1656.107422 0)"/>
      <use xlink:href="#DejaVuSans-20" transform="translate(1719.730469 0)"/>
      <use xlink:href="#DejaVuSans-62" transform="translate(1751.517578 0)"/>
      <use xlink:href="#DejaVuSans-69" transform="translate(1814.994141 0)"/>
      <use xlink:href="#DejaVuSans-74" transform="translate(1842.777344 0)"/>
      <use xlink:href="#DejaVuSans-73" transform="translate(1881.986328 0)"/>
      <use xlink:href="#DejaVuSans-29" transform="translate(1934.085938 0)"/>
     </g>
    </g>
    <g id="line2d_41">
     <path d="M 601.240625 264.138313 
L 611.240625 264.138313 
L 621.240625 264.138313 
" style="fill: none; stroke: #000000; stroke-width: 1.5; stroke-linecap: square"/>
    </g>
    <g id="text_49">
     <!-- LE::NoTable (6.428ns) -->
     <g transform="translate(629.240625 267.638313) scale(0.1 -0.1)">
      <defs>
       <path id="DejaVuSans-4e" d="M 628 4666 
L 1478 4666 
L 3547 763 
L 3547 4666 
L 4159 4666 
L 4159 0 
L 3309 0 
L 1241 3903 
L 1241 0 
L 628 0 
L 628 4666 
z
" transform="scale(0.015625)"/>
      </defs>
      <use xlink:href="#DejaVuSans-4c"/>
      <use xlink:href="#DejaVuSans-45" transform="translate(55.712891 0)"/>
      <use xlink:href="#DejaVuSans-3a" transform="translate(118.896484 0)"/>
      <use xlink:href="#DejaVuSans-3a" transform="translate(152.587891 0)"/>
      <use xlink:href="#DejaVuSans-4e" transform="translate(186.279297 0)"/>
      <use xlink:href="#DejaVuSans-6f" transform="translate(261.083984 0)"/>
      <use xlink:href="#DejaVuSans-54" transform="translate(322.265625 0)"/>
      <use xlink:href="#DejaVuSans-61" transform="translate(366.849609 0)"/>
      <use xlink:href="#DejaVuSans-62" transform="translate(428.128906 0)"/>
      <use xlink:href="#DejaVuSans-6c" transform="translate(491.605469 0)"/>
      <use xlink:href="#DejaVuSans-65" transform="translate(519.388672 0)"/>
      <use xlink:href="#DejaVuSans-20" transform="translate(580.912109 0)"/>
      <use xlink:href="#DejaVuSans-28" transform="translate(612.699219 0)"/>
      <use xlink:href="#DejaVuSans-36" transform="translate(651.712891 0)"/>
      <use xlink:href="#DejaVuSans-2e" transform="translate(715.335938 0)"/>
      <use xlink:href="#DejaVuSans-34" transform="translate(747.123047 0)"/>
      <use xlink:href="#DejaVuSans-32" transform="translate(810.746094 0)"/>
      <use xlink:href="#DejaVuSans-38" transform="translate(874.369141 0)"/>
      <use xlink:href="#DejaVuSans-6e" transform="translate(937.992188 0)"/>
      <use xlink:href="#DejaVuSans-73" transform="translate(1001.371094 0)"/>
      <use xlink:href="#DejaVuSans-29" transform="translate(1053.470703 0)"/>
     </g>
    </g>
    <g id="line2d_42">
     <path d="M 601.240625 278.816438 
L 611.240625 278.816438 
L 621.240625 278.816438 
" style="fill: none; stroke: #cc00cc; stroke-width: 1.5; stroke-linecap: square"/>
    </g>
    <g id="text_50">
     <!-- BE::NoTable (6.352ns) -->
     <g transform="translate(629.240625 282.316438) scale(0.1 -0.1)">
      <use xlink:href="#DejaVuSans-42"/>
      <use xlink:href="#DejaVuSans-45" transform="translate(68.603516 0)"/>
      <use xlink:href="#DejaVuSans-3a" transform="translate(131.787109 0)"/>
      <use xlink:href="#DejaVuSans-3a" transform="translate(165.478516 0)"/>
      <use xlink:href="#DejaVuSans-4e" transform="translate(199.169922 0)"/>
      <use xlink:href="#DejaVuSans-6f" transform="translate(273.974609 0)"/>
      <use xlink:href="#DejaVuSans-54" transform="translate(335.15625 0)"/>
      <use xlink:href="#DejaVuSans-61" transform="translate(379.740234 0)"/>
      <use xlink:href="#DejaVuSans-62" transform="translate(441.019531 0)"/>
      <use xlink:href="#DejaVuSans-6c" transform="translate(504.496094 0)"/>
      <use xlink:href="#DejaVuSans-65" transform="translate(532.279297 0)"/>
      <use xlink:href="#DejaVuSans-20" transform="translate(593.802734 0)"/>
      <use xlink:href="#DejaVuSans-28" transform="translate(625.589844 0)"/>
      <use xlink:href="#DejaVuSans-36" transform="translate(664.603516 0)"/>
      <use xlink:href="#DejaVuSans-2e" transform="translate(728.226562 0)"/>
      <use xlink:href="#DejaVuSans-33" transform="translate(760.013672 0)"/>
      <use xlink:href="#DejaVuSans-35" transform="translate(823.636719 0)"/>
      <use xlink:href="#DejaVuSans-32" transform="translate(887.259766 0)"/>
      <use xlink:href="#DejaVuSans-6e" transform="translate(950.882812 0)"/>
      <use xlink:href="#DejaVuSans-73" transform="translate(1014.261719 0)"/>
      <use xlink:href="#DejaVuSans-29" transform="translate(1066.361328 0)"/>
     </g>
    </g>
    <g id="patch_26">
     <path d="M 601.240625 296.994563 
L 621.240625 296.994563 
L 621.240625 289.994563 
L 601.240625 289.994563 
z
" style="fill: #0000ff; fill-opacity: 0.3; stroke: #000000; stroke-linejoin: miter"/>
    </g>
    <g id="text_51">
     <!-- table hit ratio -->
     <g transform="translate(629.240625 296.994563) scale(0.1 -0.1)">
      <use xlink:href="#DejaVuSans-74"/>
      <use xlink:href="#DejaVuSans-61" transform="translate(39.208984 0)"/>
      <use xlink:href="#DejaVuSans-62" transform="translate(100.488281 0)"/>
      <use xlink:href="#DejaVuSans-6c" transform="translate(163.964844 0)"/>
      <use xlink:href="#DejaVuSans-65" transform="translate(191.748047 0)"/>
      <use xlink:href="#DejaVuSans-20" transform="translate(253.271484 0)"/>
      <use xlink:href="#DejaVuSans-68" transform="translate(285.058594 0)"/>
      <use xlink:href="#DejaVuSans-69" transform="translate(348.4375 0)"/>
      <use xlink:href="#DejaVuSans-74" transform="translate(376.220703 0)"/>
      <use xlink:href="#DejaVuSans-20" transform="translate(415.429688 0)"/>
      <use xlink:href="#DejaVuSans-72" transform="translate(447.216797 0)"/>
      <use xlink:href="#DejaVuSans-61" transform="translate(488.330078 0)"/>
      <use xlink:href="#DejaVuSans-74" transform="translate(549.609375 0)"/>
      <use xlink:href="#DejaVuSans-69" transform="translate(588.818359 0)"/>
      <use xlink:href="#DejaVuSans-6f" transform="translate(616.601562 0)"/>
     </g>
    </g>
    <g id="line2d_43">
     <path d="M 601.240625 308.172688 
L 611.240625 308.172688 
L 621.240625 308.172688 
" style="fill: none; stroke-dasharray: 5.55,2.4; stroke-dashoffset: 0; stroke: #808080; stroke-opacity: 0.3; stroke-width: 1.5"/>
    </g>
    <g id="text_52">
     <!-- table hit ratio 100% line -->
     <g transform="translate(629.240625 311.672688) scale(0.1 -0.1)">
      <use xlink:href="#DejaVuSans-74"/>
      <use xlink:href="#DejaVuSans-61" transform="translate(39.208984 0)"/>
      <use xlink:href="#DejaVuSans-62" transform="translate(100.488281 0)"/>
      <use xlink:href="#DejaVuSans-6c" transform="translate(163.964844 0)"/>
      <use xlink:href="#DejaVuSans-65" transform="translate(191.748047 0)"/>
      <use xlink:href="#DejaVuSans-20" transform="translate(253.271484 0)"/>
      <use xlink:href="#DejaVuSans-68" transform="translate(285.058594 0)"/>
      <use xlink:href="#DejaVuSans-69" transform="translate(348.4375 0)"/>
      <use xlink:href="#DejaVuSans-74" transform="translate(376.220703 0)"/>
      <use xlink:href="#DejaVuSans-20" transform="translate(415.429688 0)"/>
      <use xlink:href="#DejaVuSans-72" transform="translate(447.216797 0)"/>
      <use xlink:href="#DejaVuSans-61" transform="translate(488.330078 0)"/>
      <use xlink:href="#DejaVuSans-74" transform="translate(549.609375 0)"/>
      <use xlink:href="#DejaVuSans-69" transform="translate(588.818359 0)"/>
      <use xlink:href="#DejaVuSans-6f" transform="translate(616.601562 0)"/>
      <use xlink:href="#DejaVuSans-20" transform="translate(677.783203 0)"/>
      <use xlink:href="#DejaVuSans-31" transform="translate(709.570312 0)"/>
      <use xlink:href="#DejaVuSans-30" transform="translate(773.193359 0)"/>
      <use xlink:href="#DejaVuSans-30" transform="translate(836.816406 0)"/>
      <use xlink:href="#DejaVuSans-25" transform="translate(900.439453 0)"/>
      <use xlink:href="#DejaVuSans-20" transform="translate(995.458984 0)"/>
      <use xlink:href="#DejaVuSans-6c" transform="translate(1027.246094 0)"/>
      <use xlink:href="#DejaVuSans-69" transform="translate(1055.029297 0)"/>
      <use xlink:href="#DejaVuSans-6e" transform="translate(1082.8125 0)"/>
      <use xlink:href="#DejaVuSans-65" transform="translate(1146.191406 0)"/>
     </g>
    </g>
   </g>
  </g>
 </g>
 <defs>
  <clipPath id="pf78e6158b7">
   <rect x="34.240625" y="35.779875" width="558" height="443.52"/>
  </clipPath>
 </defs>
</svg>
