<?xml version="1.0" encoding="utf-8" standalone="no"?>
<!DOCTYPE svg PUBLIC "-//W3C//DTD SVG 1.1//EN"
  "http://www.w3.org/Graphics/SVG/1.1/DTD/svg11.dtd">
<svg xmlns:xlink="http://www.w3.org/1999/xlink" width="1072.370625pt" height="568.905347pt" viewBox="0 0 1072.370625 568.905347" xmlns="http://www.w3.org/2000/svg" version="1.1">
 <metadata>
  <rdf:RDF xmlns:dc="http://purl.org/dc/elements/1.1/" xmlns:cc="http://creativecommons.org/ns#" xmlns:rdf="http://www.w3.org/1999/02/22-rdf-syntax-ns#">
   <cc:Work>
    <dc:type rdf:resource="http://purl.org/dc/dcmitype/StillImage"/>
    <dc:date>2026-07-20T14:33:28.318516</dc:date>
    <dc:format>image/svg+xml</dc:format>
    <dc:creator>
     <cc:Agent>
      <dc:title>Matplotlib v3.10.5, https://matplotlib.org/</dc:title>
     </cc:Agent>
    </dc:creator>
   </cc:Work>
  </rdf:RDF>
 </metadata>
 <defs>
  <style type="text/css">*{stroke-linejoin: round; stroke-linecap: butt}</style>
 </defs>
 <g id="figure_1">
  <g id="patch_1">
   <path d="M 0 568.905347 
L 1072.370625 568.905347 
L 1072.370625 0 
L 0 0 
z
" style="fill: #ffffff"/>
  </g>
  <g id="axes_1">
   <g id="patch_2">
    <path d="M 34.240625 497.229719 
L 1065.170625 497.229719 
L 1065.170625 22.318125 
L 34.240625 22.318125 
z
" style="fill: #ffffff"/>
   </g>
   <g id="matplotlib.axis_1">
    <g id="xtick_1">
     <g id="line2d_1">
      <defs>
       <path id="m51614f21c4" d="M 0 0 
L 0 3.5 
" style="stroke: #000000; stroke-width: 0.8"/>
      </defs>
      <g>
       <use xlink:href="#m51614f21c4" x="92.530459" y="497.229719" style="stroke: #000000; stroke-width: 0.8"/>
      </g>
     </g>
     <g id="text_1">
      <!-- π₃ -->
      <g transform="translate(83.967838 516.694686) rotate(-45) scale(0.1 -0.1)">
       <defs>
        <path id="DejaVuSans-3c0" d="M 231 3500 
L 3584 3500 
L 3584 2925 
L 3144 2925 
L 3144 775 
Q 3144 550 3220 451 
Q 3297 353 3469 353 
Q 3516 353 3584 361 
Q 3653 369 3675 372 
L 3675 -44 
Q 3566 -84 3450 -103 
Q 3334 -122 3219 -122 
Q 2844 -122 2700 83 
Q 2556 288 2556 838 
L 2556 2925 
L 1266 2925 
L 1266 0 
L 678 0 
L 678 2925 
L 231 2925 
L 231 3500 
z
" transform="scale(0.015625)"/>
        <path id="DejaVuSans-2083" d="M 1638 1412 
Q 1925 1356 2083 1185 
Q 2241 1015 2241 759 
Q 2241 371 1944 162 
Q 1647 -47 1094 -47 
Q 916 -47 720 -14 
Q 525 18 306 81 
L 306 459 
Q 469 375 655 334 
Q 841 293 1050 293 
Q 1391 293 1578 416 
Q 1766 540 1766 759 
Q 1766 990 1592 1109 
Q 1419 1228 1081 1228 
L 813 1228 
L 813 1565 
L 1106 1565 
Q 1400 1565 1551 1663 
Q 1703 1762 1703 1950 
Q 1703 2131 1547 2226 
Q 1391 2321 1094 2321 
Q 969 2321 809 2293 
Q 650 2265 397 2193 
L 397 2553 
Q 625 2606 825 2634 
Q 1025 2662 1197 2662 
Q 1647 2662 1911 2477 
Q 2175 2293 2175 1984 
Q 2175 1768 2034 1618 
Q 1894 1468 1638 1412 
z
" transform="scale(0.015625)"/>
       </defs>
       <use xlink:href="#DejaVuSans-3c0"/>
       <use xlink:href="#DejaVuSans-2083" transform="translate(60.205078 0)"/>
      </g>
     </g>
    </g>
    <g id="xtick_2">
     <g id="line2d_2">
      <g>
       <use xlink:href="#m51614f21c4" x="157.841197" y="497.229719" style="stroke: #000000; stroke-width: 0.8"/>
      </g>
     </g>
     <g id="text_2">
      <!-- π₂ (tables) -->
      <g transform="translate(119.920386 546.052876) rotate(-45) scale(0.1 -0.1)">
       <defs>
        <path id="DejaVuSans-2082" d="M 838 356 
L 2163 356 
L 2163 0 
L 294 0 
L 294 343 
Q 400 440 597 615 
Q 1672 1568 1672 1862 
Q 1672 2068 1509 2194 
Q 1347 2321 1081 2321 
Q 919 2321 728 2266 
Q 538 2212 313 2103 
L 313 2487 
Q 553 2575 761 2618 
Q 969 2662 1147 2662 
Q 1600 2662 1872 2456 
Q 2144 2250 2144 1912 
Q 2144 1478 1109 590 
Q 934 440 838 356 
z
" transform="scale(0.015625)"/>
        <path id="DejaVuSans-20" transform="scale(0.015625)"/>
        <path id="DejaVuSans-28" d="M 1984 4856 
Q 1566 4138 1362 3434 
Q 1159 2731 1159 2009 
Q 1159 1288 1364 580 
Q 1569 -128 1984 -844 
L 1484 -844 
Q 1016 -109 783 600 
Q 550 1309 550 2009 
Q 550 2706 781 3412 
Q 1013 4119 1484 4856 
L 1984 4856 
z
" transform="scale(0.015625)"/>
        <path id="DejaVuSans-74" d="M 1172 4494 
L 1172 3500 
L 2356 3500 
L 2356 3053 
L 1172 3053 
L 1172 1153 
Q 1172 725 1289 603 
Q 1406 481 1766 481 
L 2356 481 
L 2356 0 
L 1766 0 
Q 1100 0 847 248 
Q 594 497 594 1153 
L 594 3053 
L 172 3053 
L 172 3500 
L 594 3500 
L 594 4494 
L 1172 4494 
z
" transform="scale(0.015625)"/>
        <path id="DejaVuSans-61" d="M 2194 1759 
Q 1497 1759 1228 1600 
Q 959 1441 959 1056 
Q 959 750 1161 570 
Q 1363 391 1709 391 
Q 2188 391 2477 730 
Q 2766 1069 2766 1631 
L 2766 1759 
L 2194 1759 
z
M 3341 1997 
L 3341 0 
L 2766 0 
L 2766 531 
Q 2569 213 2275 61 
Q 1981 -91 1556 -91 
Q 1019 -91 701 211 
Q 384 513 384 1019 
Q 384 1609 779 1909 
Q 1175 2209 1959 2209 
L 2766 2209 
L 2766 2266 
Q 2766 2663 2505 2880 
Q 2244 3097 1772 3097 
Q 1472 3097 1187 3025 
Q 903 2953 641 2809 
L 641 3341 
Q 956 3463 1253 3523 
Q 1550 3584 1831 3584 
Q 2591 3584 2966 3190 
Q 3341 2797 3341 1997 
z
" transform="scale(0.015625)"/>
        <path id="DejaVuSans-62" d="M 3116 1747 
Q 3116 2381 2855 2742 
Q 2594 3103 2138 3103 
Q 1681 3103 1420 2742 
Q 1159 2381 1159 1747 
Q 1159 1113 1420 752 
Q 1681 391 2138 391 
Q 2594 391 2855 752 
Q 3116 1113 3116 1747 
z
M 1159 2969 
Q 1341 3281 1617 3432 
Q 1894 3584 2278 3584 
Q 2916 3584 3314 3078 
Q 3713 2572 3713 1747 
Q 3713 922 3314 415 
Q 2916 -91 2278 -91 
Q 1894 -91 1617 61 
Q 1341 213 1159 525 
L 1159 0 
L 581 0 
L 581 4863 
L 1159 4863 
L 1159 2969 
z
" transform="scale(0.015625)"/>
        <path id="DejaVuSans-6c" d="M 603 4863 
L 1178 4863 
L 1178 0 
L 603 0 
L 603 4863 
z
" transform="scale(0.015625)"/>
        <path id="DejaVuSans-65" d="M 3597 1894 
L 3597 1613 
L 953 1613 
Q 991 1019 1311 708 
Q 1631 397 2203 397 
Q 2534 397 2845 478 
Q 3156 559 3463 722 
L 3463 178 
Q 3153 47 2828 -22 
Q 2503 -91 2169 -91 
Q 1331 -91 842 396 
Q 353 884 353 1716 
Q 353 2575 817 3079 
Q 1281 3584 2069 3584 
Q 2775 3584 3186 3129 
Q 3597 2675 3597 1894 
z
M 3022 2063 
Q 3016 2534 2758 2815 
Q 2500 3097 2075 3097 
Q 1594 3097 1305 2825 
Q 1016 2553 972 2059 
L 3022 2063 
z
" transform="scale(0.015625)"/>
        <path id="DejaVuSans-73" d="M 2834 3397 
L 2834 2853 
Q 2591 2978 2328 3040 
Q 2066 3103 1784 3103 
Q 1356 3103 1142 2972 
Q 928 2841 928 2578 
Q 928 2378 1081 2264 
Q 1234 2150 1697 2047 
L 1894 2003 
Q 2506 1872 2764 1633 
Q 3022 1394 3022 966 
Q 3022 478 2636 193 
Q 2250 -91 1575 -91 
Q 1294 -91 989 -36 
Q 684 19 347 128 
L 347 722 
Q 666 556 975 473 
Q 1284 391 1588 391 
Q 1994 391 2212 530 
Q 2431 669 2431 922 
Q 2431 1156 2273 1281 
Q 2116 1406 1581 1522 
L 1381 1569 
Q 847 1681 609 1914 
Q 372 2147 372 2553 
Q 372 3047 722 3315 
Q 1072 3584 1716 3584 
Q 2034 3584 2315 3537 
Q 2597 3491 2834 3397 
z
" transform="scale(0.015625)"/>
        <path id="DejaVuSans-29" d="M 513 4856 
L 1013 4856 
Q 1481 4119 1714 3412 
Q 1947 2706 1947 2009 
Q 1947 1309 1714 600 
Q 1481 -109 1013 -844 
L 513 -844 
Q 928 -128 1133 580 
Q 1338 1288 1338 2009 
Q 1338 2731 1133 3434 
Q 928 4138 513 4856 
z
" transform="scale(0.015625)"/>
       </defs>
       <use xlink:href="#DejaVuSans-3c0"/>
       <use xlink:href="#DejaVuSans-2082" transform="translate(60.205078 0)"/>
       <use xlink:href="#DejaVuSans-20" transform="translate(100.292969 0)"/>
       <use xlink:href="#DejaVuSans-28" transform="translate(132.080078 0)"/>
       <use xlink:href="#DejaVuSans-74" transform="translate(171.09375 0)"/>
       <use xlink:href="#DejaVuSans-61" transform="translate(210.302734 0)"/>
       <use xlink:href="#DejaVuSans-62" transform="translate(271.582031 0)"/>
       <use xlink:href="#DejaVuSans-6c" transform="translate(335.058594 0)"/>
       <use xlink:href="#DejaVuSans-65" transform="translate(362.841797 0)"/>
       <use xlink:href="#DejaVuSans-73" transform="translate(424.365234 0)"/>
       <use xlink:href="#DejaVuSans-29" transform="translate(476.464844 0)"/>
      </g>
     </g>
    </g>
    <g id="xtick_3">
     <g id="line2d_3">
      <g>
       <use xlink:href="#m51614f21c4" x="223.151935" y="497.229719" style="stroke: #000000; stroke-width: 0.8"/>
      </g>
     </g>
     <g id="text_3">
      <!-- π₂ -->
      <g transform="translate(214.589314 516.694686) rotate(-45) scale(0.1 -0.1)">
       <use xlink:href="#DejaVuSans-3c0"/>
       <use xlink:href="#DejaVuSans-2082" transform="translate(60.205078 0)"/>
      </g>
     </g>
    </g>
    <g id="xtick_4">
     <g id="line2d_4">
      <g>
       <use xlink:href="#m51614f21c4" x="288.462673" y="497.229719" style="stroke: #000000; stroke-width: 0.8"/>
      </g>
     </g>
     <g id="text_4">
      <!-- π₄ -->
      <g transform="translate(279.900052 516.694686) rotate(-45) scale(0.1 -0.1)">
       <defs>
        <path id="DejaVuSans-2084" d="M 1491 2231 
L 525 921 
L 1491 921 
L 1491 2231 
z
M 1422 2609 
L 1941 2609 
L 1941 921 
L 2363 921 
L 2363 581 
L 1941 581 
L 1941 0 
L 1491 0 
L 1491 581 
L 197 581 
L 197 959 
L 1422 2609 
z
" transform="scale(0.015625)"/>
       </defs>
       <use xlink:href="#DejaVuSans-3c0"/>
       <use xlink:href="#DejaVuSans-2084" transform="translate(60.205078 0)"/>
      </g>
     </g>
    </g>
    <g id="xtick_5">
     <g id="line2d_5">
      <g>
       <use xlink:href="#m51614f21c4" x="353.773411" y="497.229719" style="stroke: #000000; stroke-width: 0.8"/>
      </g>
     </g>
     <g id="text_5">
      <!-- δ -->
      <g transform="translate(347.97624 513.929236) rotate(-45) scale(0.1 -0.1)">
       <defs>
        <path id="DejaVuSans-3b4" d="M 3138 4053 
Q 2819 4272 2072 4272 
Q 1281 4272 1281 3906 
Q 1281 3619 2106 3469 
Q 2756 3353 3122 3003 
Q 3566 2581 3566 1716 
Q 3566 888 3138 400 
Q 2709 -91 1959 -91 
Q 1213 -91 781 400 
Q 353 888 353 1747 
Q 353 2384 781 2900 
Q 947 3100 1181 3213 
Q 694 3459 694 3900 
Q 694 4750 2072 4750 
Q 2763 4750 3138 4531 
L 3138 4053 
z
M 1613 3056 
Q 1400 2966 1228 2738 
Q 959 2384 959 1747 
Q 959 1113 1225 756 
Q 1494 397 1959 397 
Q 2419 397 2687 759 
Q 2956 1122 2956 1716 
Q 2956 2338 2672 2638 
Q 2369 2959 1975 2994 
Q 1775 3013 1613 3056 
z
" transform="scale(0.015625)"/>
       </defs>
       <use xlink:href="#DejaVuSans-3b4"/>
      </g>
     </g>
    </g>
    <g id="xtick_6">
     <g id="line2d_6">
      <g>
       <use xlink:href="#m51614f21c4" x="419.084149" y="497.229719" style="stroke: #000000; stroke-width: 0.8"/>
      </g>
     </g>
     <g id="text_6">
      <!-- γ -->
      <g transform="translate(413.4284 513.787814) rotate(-45) scale(0.1 -0.1)">
       <defs>
        <path id="DejaVuSans-3b3" d="M 1128 2950 
L 1894 788 
L 2988 3500 
L 3597 3500 
L 2181 0 
L 2181 -1331 
L 1606 -1331 
L 1606 0 
L 688 2613 
Q 550 3006 253 3006 
L 100 3006 
L 100 3500 
L 319 3500 
Q 934 3500 1128 2950 
z
" transform="scale(0.015625)"/>
       </defs>
       <use xlink:href="#DejaVuSans-3b3"/>
      </g>
     </g>
    </g>
    <g id="xtick_7">
     <g id="line2d_7">
      <g>
       <use xlink:href="#m51614f21c4" x="484.394887" y="497.229719" style="stroke: #000000; stroke-width: 0.8"/>
      </g>
     </g>
     <g id="text_7">
      <!-- ω -->
      <g transform="translate(477.003411 515.52354) rotate(-45) scale(0.1 -0.1)">
       <defs>
        <path id="DejaVuSans-3c9" d="M 1719 -91 
Q 422 -91 422 1766 
Q 422 2500 906 3500 
L 1525 3500 
Q 1078 2500 1078 1750 
Q 1078 397 1772 397 
Q 2406 397 2406 2078 
L 2938 2078 
Q 2938 397 3572 397 
Q 4266 397 4266 1750 
Q 4266 2500 3819 3500 
L 4438 3500 
Q 4922 2500 4922 1766 
Q 4922 -91 3625 -91 
Q 2775 -91 2672 844 
Q 2544 -91 1719 -91 
z
" transform="scale(0.015625)"/>
       </defs>
       <use xlink:href="#DejaVuSans-3c9"/>
      </g>
     </g>
    </g>
    <g id="xtick_8">
     <g id="line2d_8">
      <g>
       <use xlink:href="#m51614f21c4" x="549.705625" y="497.229719" style="stroke: #000000; stroke-width: 0.8"/>
      </g>
     </g>
     <g id="text_8">
      <!-- ExpGolomb(2) -->
      <g transform="translate(497.602904 560.234786) rotate(-45) scale(0.1 -0.1)">
       <defs>
        <path id="DejaVuSans-45" d="M 628 4666 
L 3578 4666 
L 3578 4134 
L 1259 4134 
L 1259 2753 
L 3481 2753 
L 3481 2222 
L 1259 2222 
L 1259 531 
L 3634 531 
L 3634 0 
L 628 0 
L 628 4666 
z
" transform="scale(0.015625)"/>
        <path id="DejaVuSans-78" d="M 3513 3500 
L 2247 1797 
L 3578 0 
L 2900 0 
L 1881 1375 
L 863 0 
L 184 0 
L 1544 1831 
L 300 3500 
L 978 3500 
L 1906 2253 
L 2834 3500 
L 3513 3500 
z
" transform="scale(0.015625)"/>
        <path id="DejaVuSans-70" d="M 1159 525 
L 1159 -1331 
L 581 -1331 
L 581 3500 
L 1159 3500 
L 1159 2969 
Q 1341 3281 1617 3432 
Q 1894 3584 2278 3584 
Q 2916 3584 3314 3078 
Q 3713 2572 3713 1747 
Q 3713 922 3314 415 
Q 2916 -91 2278 -91 
Q 1894 -91 1617 61 
Q 1341 213 1159 525 
z
M 3116 1747 
Q 3116 2381 2855 2742 
Q 2594 3103 2138 3103 
Q 1681 3103 1420 2742 
Q 1159 2381 1159 1747 
Q 1159 1113 1420 752 
Q 1681 391 2138 391 
Q 2594 391 2855 752 
Q 3116 1113 3116 1747 
z
" transform="scale(0.015625)"/>
        <path id="DejaVuSans-47" d="M 3809 666 
L 3809 1919 
L 2778 1919 
L 2778 2438 
L 4434 2438 
L 4434 434 
Q 4069 175 3628 42 
Q 3188 -91 2688 -91 
Q 1594 -91 976 548 
Q 359 1188 359 2328 
Q 359 3472 976 4111 
Q 1594 4750 2688 4750 
Q 3144 4750 3555 4637 
Q 3966 4525 4313 4306 
L 4313 3634 
Q 3963 3931 3569 4081 
Q 3175 4231 2741 4231 
Q 1884 4231 1454 3753 
Q 1025 3275 1025 2328 
Q 1025 1384 1454 906 
Q 1884 428 2741 428 
Q 3075 428 3337 486 
Q 3600 544 3809 666 
z
" transform="scale(0.015625)"/>
        <path id="DejaVuSans-6f" d="M 1959 3097 
Q 1497 3097 1228 2736 
Q 959 2375 959 1747 
Q 959 1119 1226 758 
Q 1494 397 1959 397 
Q 2419 397 2687 759 
Q 2956 1122 2956 1747 
Q 2956 2369 2687 2733 
Q 2419 3097 1959 3097 
z
M 1959 3584 
Q 2709 3584 3137 3096 
Q 3566 2609 3566 1747 
Q 3566 888 3137 398 
Q 2709 -91 1959 -91 
Q 1206 -91 779 398 
Q 353 888 353 1747 
Q 353 2609 779 3096 
Q 1206 3584 1959 3584 
z
" transform="scale(0.015625)"/>
        <path id="DejaVuSans-6d" d="M 3328 2828 
Q 3544 3216 3844 3400 
Q 4144 3584 4550 3584 
Q 5097 3584 5394 3201 
Q 5691 2819 5691 2113 
L 5691 0 
L 5113 0 
L 5113 2094 
Q 5113 2597 4934 2840 
Q 4756 3084 4391 3084 
Q 3944 3084 3684 2787 
Q 3425 2491 3425 1978 
L 3425 0 
L 2847 0 
L 2847 2094 
Q 2847 2600 2669 2842 
Q 2491 3084 2119 3084 
Q 1678 3084 1418 2786 
Q 1159 2488 1159 1978 
L 1159 0 
L 581 0 
L 581 3500 
L 1159 3500 
L 1159 2956 
Q 1356 3278 1631 3431 
Q 1906 3584 2284 3584 
Q 2666 3584 2933 3390 
Q 3200 3197 3328 2828 
z
" transform="scale(0.015625)"/>
        <path id="DejaVuSans-32" d="M 1228 531 
L 3431 531 
L 3431 0 
L 469 0 
L 469 531 
Q 828 903 1448 1529 
Q 2069 2156 2228 2338 
Q 2531 2678 2651 2914 
Q 2772 3150 2772 3378 
Q 2772 3750 2511 3984 
Q 2250 4219 1831 4219 
Q 1534 4219 1204 4116 
Q 875 4013 500 3803 
L 500 4441 
Q 881 4594 1212 4672 
Q 1544 4750 1819 4750 
Q 2544 4750 2975 4387 
Q 3406 4025 3406 3419 
Q 3406 3131 3298 2873 
Q 3191 2616 2906 2266 
Q 2828 2175 2409 1742 
Q 1991 1309 1228 531 
z
" transform="scale(0.015625)"/>
       </defs>
       <use xlink:href="#DejaVuSans-45"/>
       <use xlink:href="#DejaVuSans-78" transform="translate(63.183594 0)"/>
       <use xlink:href="#DejaVuSans-70" transform="translate(122.363281 0)"/>
       <use xlink:href="#DejaVuSans-47" transform="translate(185.839844 0)"/>
       <use xlink:href="#DejaVuSans-6f" transform="translate(263.330078 0)"/>
       <use xlink:href="#DejaVuSans-6c" transform="translate(324.511719 0)"/>
       <use xlink:href="#DejaVuSans-6f" transform="translate(352.294922 0)"/>
       <use xlink:href="#DejaVuSans-6d" transform="translate(413.476562 0)"/>
       <use xlink:href="#DejaVuSans-62" transform="translate(510.888672 0)"/>
       <use xlink:href="#DejaVuSans-28" transform="translate(574.365234 0)"/>
       <use xlink:href="#DejaVuSans-32" transform="translate(613.378906 0)"/>
       <use xlink:href="#DejaVuSans-29" transform="translate(677.001953 0)"/>
      </g>
     </g>
    </g>
    <g id="xtick_9">
     <g id="line2d_9">
      <g>
       <use xlink:href="#m51614f21c4" x="615.016363" y="497.229719" style="stroke: #000000; stroke-width: 0.8"/>
      </g>
     </g>
     <g id="text_9">
      <!-- ExpGolomb(3) -->
      <g transform="translate(562.913642 560.234786) rotate(-45) scale(0.1 -0.1)">
       <defs>
        <path id="DejaVuSans-33" d="M 2597 2516 
Q 3050 2419 3304 2112 
Q 3559 1806 3559 1356 
Q 3559 666 3084 287 
Q 2609 -91 1734 -91 
Q 1441 -91 1130 -33 
Q 819 25 488 141 
L 488 750 
Q 750 597 1062 519 
Q 1375 441 1716 441 
Q 2309 441 2620 675 
Q 2931 909 2931 1356 
Q 2931 1769 2642 2001 
Q 2353 2234 1838 2234 
L 1294 2234 
L 1294 2753 
L 1863 2753 
Q 2328 2753 2575 2939 
Q 2822 3125 2822 3475 
Q 2822 3834 2567 4026 
Q 2313 4219 1838 4219 
Q 1578 4219 1281 4162 
Q 984 4106 628 3988 
L 628 4550 
Q 988 4650 1302 4700 
Q 1616 4750 1894 4750 
Q 2613 4750 3031 4423 
Q 3450 4097 3450 3541 
Q 3450 3153 3228 2886 
Q 3006 2619 2597 2516 
z
" transform="scale(0.015625)"/>
       </defs>
       <use xlink:href="#DejaVuSans-45"/>
       <use xlink:href="#DejaVuSans-78" transform="translate(63.183594 0)"/>
       <use xlink:href="#DejaVuSans-70" transform="translate(122.363281 0)"/>
       <use xlink:href="#DejaVuSans-47" transform="translate(185.839844 0)"/>
       <use xlink:href="#DejaVuSans-6f" transform="translate(263.330078 0)"/>
       <use xlink:href="#DejaVuSans-6c" transform="translate(324.511719 0)"/>
       <use xlink:href="#DejaVuSans-6f" transform="translate(352.294922 0)"/>
       <use xlink:href="#DejaVuSans-6d" transform="translate(413.476562 0)"/>
       <use xlink:href="#DejaVuSans-62" transform="translate(510.888672 0)"/>
       <use xlink:href="#DejaVuSans-28" transform="translate(574.365234 0)"/>
       <use xlink:href="#DejaVuSans-33" transform="translate(613.378906 0)"/>
       <use xlink:href="#DejaVuSans-29" transform="translate(677.001953 0)"/>
      </g>
     </g>
    </g>
    <g id="xtick_10">
     <g id="line2d_10">
      <g>
       <use xlink:href="#m51614f21c4" x="680.327101" y="497.229719" style="stroke: #000000; stroke-width: 0.8"/>
      </g>
     </g>
     <g id="text_10">
      <!-- VByte(LE) -->
      <g transform="translate(643.934304 544.524862) rotate(-45) scale(0.1 -0.1)">
       <defs>
        <path id="DejaVuSans-56" d="M 1831 0 
L 50 4666 
L 709 4666 
L 2188 738 
L 3669 4666 
L 4325 4666 
L 2547 0 
L 1831 0 
z
" transform="scale(0.015625)"/>
        <path id="DejaVuSans-42" d="M 1259 2228 
L 1259 519 
L 2272 519 
Q 2781 519 3026 730 
Q 3272 941 3272 1375 
Q 3272 1813 3026 2020 
Q 2781 2228 2272 2228 
L 1259 2228 
z
M 1259 4147 
L 1259 2741 
L 2194 2741 
Q 2656 2741 2882 2914 
Q 3109 3088 3109 3444 
Q 3109 3797 2882 3972 
Q 2656 4147 2194 4147 
L 1259 4147 
z
M 628 4666 
L 2241 4666 
Q 2963 4666 3353 4366 
Q 3744 4066 3744 3513 
Q 3744 3084 3544 2831 
Q 3344 2578 2956 2516 
Q 3422 2416 3680 2098 
Q 3938 1781 3938 1306 
Q 3938 681 3513 340 
Q 3088 0 2303 0 
L 628 0 
L 628 4666 
z
" transform="scale(0.015625)"/>
        <path id="DejaVuSans-79" d="M 2059 -325 
Q 1816 -950 1584 -1140 
Q 1353 -1331 966 -1331 
L 506 -1331 
L 506 -850 
L 844 -850 
Q 1081 -850 1212 -737 
Q 1344 -625 1503 -206 
L 1606 56 
L 191 3500 
L 800 3500 
L 1894 763 
L 2988 3500 
L 3597 3500 
L 2059 -325 
z
" transform="scale(0.015625)"/>
        <path id="DejaVuSans-4c" d="M 628 4666 
L 1259 4666 
L 1259 531 
L 3531 531 
L 3531 0 
L 628 0 
L 628 4666 
z
" transform="scale(0.015625)"/>
       </defs>
       <use xlink:href="#DejaVuSans-56"/>
       <use xlink:href="#DejaVuSans-42" transform="translate(68.408203 0)"/>
       <use xlink:href="#DejaVuSans-79" transform="translate(137.011719 0)"/>
       <use xlink:href="#DejaVuSans-74" transform="translate(196.191406 0)"/>
       <use xlink:href="#DejaVuSans-65" transform="translate(235.400391 0)"/>
       <use xlink:href="#DejaVuSans-28" transform="translate(296.923828 0)"/>
       <use xlink:href="#DejaVuSans-4c" transform="translate(335.9375 0)"/>
       <use xlink:href="#DejaVuSans-45" transform="translate(391.650391 0)"/>
       <use xlink:href="#DejaVuSans-29" transform="translate(454.833984 0)"/>
      </g>
     </g>
    </g>
    <g id="xtick_11">
     <g id="line2d_11">
      <g>
       <use xlink:href="#m51614f21c4" x="745.637839" y="497.229719" style="stroke: #000000; stroke-width: 0.8"/>
      </g>
     </g>
     <g id="text_11">
      <!-- ExpGolomb(4) -->
      <g transform="translate(693.535118 560.234786) rotate(-45) scale(0.1 -0.1)">
       <defs>
        <path id="DejaVuSans-34" d="M 2419 4116 
L 825 1625 
L 2419 1625 
L 2419 4116 
z
M 2253 4666 
L 3047 4666 
L 3047 1625 
L 3713 1625 
L 3713 1100 
L 3047 1100 
L 3047 0 
L 2419 0 
L 2419 1100 
L 313 1100 
L 313 1709 
L 2253 4666 
z
" transform="scale(0.015625)"/>
       </defs>
       <use xlink:href="#DejaVuSans-45"/>
       <use xlink:href="#DejaVuSans-78" transform="translate(63.183594 0)"/>
       <use xlink:href="#DejaVuSans-70" transform="translate(122.363281 0)"/>
       <use xlink:href="#DejaVuSans-47" transform="translate(185.839844 0)"/>
       <use xlink:href="#DejaVuSans-6f" transform="translate(263.330078 0)"/>
       <use xlink:href="#DejaVuSans-6c" transform="translate(324.511719 0)"/>
       <use xlink:href="#DejaVuSans-6f" transform="translate(352.294922 0)"/>
       <use xlink:href="#DejaVuSans-6d" transform="translate(413.476562 0)"/>
       <use xlink:href="#DejaVuSans-62" transform="translate(510.888672 0)"/>
       <use xlink:href="#DejaVuSans-28" transform="translate(574.365234 0)"/>
       <use xlink:href="#DejaVuSans-34" transform="translate(613.378906 0)"/>
       <use xlink:href="#DejaVuSans-29" transform="translate(677.001953 0)"/>
      </g>
     </g>
    </g>
    <g id="xtick_12">
     <g id="line2d_12">
      <g>
       <use xlink:href="#m51614f21c4" x="810.948577" y="497.229719" style="stroke: #000000; stroke-width: 0.8"/>
      </g>
     </g>
     <g id="text_12">
      <!-- ζ₃ (tables) -->
      <g transform="translate(773.424409 545.64187) rotate(-45) scale(0.1 -0.1)">
       <defs>
        <path id="DejaVuSans-3b6" d="M 2231 397 
Q 2644 394 2891 159 
Q 3153 -88 3153 -463 
Q 3153 -822 2922 -1072 
Q 2672 -1344 2163 -1344 
Q 2163 -1109 2163 -872 
Q 2378 -888 2509 -750 
Q 2609 -641 2609 -525 
Q 2609 -359 2509 -222 
Q 2413 -91 2231 -91 
Q 338 -91 334 1669 
Q 334 3206 2119 4284 
L 456 4284 
L 456 4863 
L 3175 4863 
L 3175 4284 
Q 913 3147 913 1669 
Q 913 397 2231 397 
z
" transform="scale(0.015625)"/>
       </defs>
       <use xlink:href="#DejaVuSans-3b6"/>
       <use xlink:href="#DejaVuSans-2083" transform="translate(54.394531 0)"/>
       <use xlink:href="#DejaVuSans-20" transform="translate(94.482422 0)"/>
       <use xlink:href="#DejaVuSans-28" transform="translate(126.269531 0)"/>
       <use xlink:href="#DejaVuSans-74" transform="translate(165.283203 0)"/>
       <use xlink:href="#DejaVuSans-61" transform="translate(204.492188 0)"/>
       <use xlink:href="#DejaVuSans-62" transform="translate(265.771484 0)"/>
       <use xlink:href="#DejaVuSans-6c" transform="translate(329.248047 0)"/>
       <use xlink:href="#DejaVuSans-65" transform="translate(357.03125 0)"/>
       <use xlink:href="#DejaVuSans-73" transform="translate(418.554688 0)"/>
       <use xlink:href="#DejaVuSans-29" transform="translate(470.654297 0)"/>
      </g>
     </g>
    </g>
    <g id="xtick_13">
     <g id="line2d_13">
      <g>
       <use xlink:href="#m51614f21c4" x="876.259315" y="497.229719" style="stroke: #000000; stroke-width: 0.8"/>
      </g>
     </g>
     <g id="text_13">
      <!-- VByte(BE) -->
      <g transform="translate(838.955013 545.436367) rotate(-45) scale(0.1 -0.1)">
       <use xlink:href="#DejaVuSans-56"/>
       <use xlink:href="#DejaVuSans-42" transform="translate(68.408203 0)"/>
       <use xlink:href="#DejaVuSans-79" transform="translate(137.011719 0)"/>
       <use xlink:href="#DejaVuSans-74" transform="translate(196.191406 0)"/>
       <use xlink:href="#DejaVuSans-65" transform="translate(235.400391 0)"/>
       <use xlink:href="#DejaVuSans-28" transform="translate(296.923828 0)"/>
       <use xlink:href="#DejaVuSans-42" transform="translate(335.9375 0)"/>
       <use xlink:href="#DejaVuSans-45" transform="translate(404.541016 0)"/>
       <use xlink:href="#DejaVuSans-29" transform="translate(467.724609 0)"/>
      </g>
     </g>
    </g>
    <g id="xtick_14">
     <g id="line2d_14">
      <g>
       <use xlink:href="#m51614f21c4" x="941.570053" y="497.229719" style="stroke: #000000; stroke-width: 0.8"/>
      </g>
     </g>
     <g id="text_14">
      <!-- ζ₃ -->
      <g transform="translate(933.404075 516.28368) rotate(-45) scale(0.1 -0.1)">
       <use xlink:href="#DejaVuSans-3b6"/>
       <use xlink:href="#DejaVuSans-2083" transform="translate(54.394531 0)"/>
      </g>
     </g>
    </g>
    <g id="xtick_15">
     <g id="line2d_15">
      <g>
       <use xlink:href="#m51614f21c4" x="1006.880791" y="497.229719" style="stroke: #000000; stroke-width: 0.8"/>
      </g>
     </g>
     <g id="text_15">
      <!-- ζ₂ -->
      <g transform="translate(998.714813 516.28368) rotate(-45) scale(0.1 -0.1)">
       <use xlink:href="#DejaVuSans-3b6"/>
       <use xlink:href="#DejaVuSans-2082" transform="translate(54.394531 0)"/>
      </g>
     </g>
    </g>
   </g>
   <g id="matplotlib.axis_2">
    <g id="ytick_1">
     <g id="line2d_16">
      <path d="M 34.240625 496.503401 
L 1065.170625 496.503401 
" clip-path="url(#p12e7c33ae1)" style="fill: none; stroke-dasharray: 2.96,1.28; stroke-dashoffset: 0; stroke: #808080; stroke-opacity: 0.2; stroke-width: 0.8"/>
     </g>
     <g id="line2d_17">
      <defs>
       <path id="mc347119e8f" d="M 0 0 
L -3.5 0 
" style="stroke: #000000; stroke-width: 0.8"/>
      </defs>
      <g>
       <use xlink:href="#mc347119e8f" x="34.240625" y="496.503401" style="stroke: #000000; stroke-width: 0.8"/>
      </g>
     </g>
     <g id="text_16">
      <!-- 3 -->
      <g transform="translate(20.878125 500.30262) scale(0.1 -0.1)">
       <use xlink:href="#DejaVuSans-33"/>
      </g>
     </g>
    </g>
    <g id="ytick_2">
     <g id="line2d_18">
      <path d="M 34.240625 428.144069 
L 1065.170625 428.144069 
" clip-path="url(#p12e7c33ae1)" style="fill: none; stroke-dasharray: 2.96,1.28; stroke-dashoffset: 0; stroke: #808080; stroke-opacity: 0.2; stroke-width: 0.8"/>
     </g>
     <g id="line2d_19">
      <g>
       <use xlink:href="#mc347119e8f" x="34.240625" y="428.144069" style="stroke: #000000; stroke-width: 0.8"/>
      </g>
     </g>
     <g id="text_17">
      <!-- 4 -->
      <g transform="translate(20.878125 431.943288) scale(0.1 -0.1)">
       <use xlink:href="#DejaVuSans-34"/>
      </g>
     </g>
    </g>
    <g id="ytick_3">
     <g id="line2d_20">
      <path d="M 34.240625 359.784736 
L 1065.170625 359.784736 
" clip-path="url(#p12e7c33ae1)" style="fill: none; stroke-dasharray: 2.96,1.28; stroke-dashoffset: 0; stroke: #808080; stroke-opacity: 0.2; stroke-width: 0.8"/>
     </g>
     <g id="line2d_21">
      <g>
       <use xlink:href="#mc347119e8f" x="34.240625" y="359.784736" style="stroke: #000000; stroke-width: 0.8"/>
      </g>
     </g>
     <g id="text_18">
      <!-- 5 -->
      <g transform="translate(20.878125 363.583955) scale(0.1 -0.1)">
       <defs>
        <path id="DejaVuSans-35" d="M 691 4666 
L 3169 4666 
L 3169 4134 
L 1269 4134 
L 1269 2991 
Q 1406 3038 1543 3061 
Q 1681 3084 1819 3084 
Q 2600 3084 3056 2656 
Q 3513 2228 3513 1497 
Q 3513 744 3044 326 
Q 2575 -91 1722 -91 
Q 1428 -91 1123 -41 
Q 819 9 494 109 
L 494 744 
Q 775 591 1075 516 
Q 1375 441 1709 441 
Q 2250 441 2565 725 
Q 2881 1009 2881 1497 
Q 2881 1984 2565 2268 
Q 2250 2553 1709 2553 
Q 1456 2553 1204 2497 
Q 953 2441 691 2322 
L 691 4666 
z
" transform="scale(0.015625)"/>
       </defs>
       <use xlink:href="#DejaVuSans-35"/>
      </g>
     </g>
    </g>
    <g id="ytick_4">
     <g id="line2d_22">
      <path d="M 34.240625 291.425404 
L 1065.170625 291.425404 
" clip-path="url(#p12e7c33ae1)" style="fill: none; stroke-dasharray: 2.96,1.28; stroke-dashoffset: 0; stroke: #808080; stroke-opacity: 0.2; stroke-width: 0.8"/>
     </g>
     <g id="line2d_23">
      <g>
       <use xlink:href="#mc347119e8f" x="34.240625" y="291.425404" style="stroke: #000000; stroke-width: 0.8"/>
      </g>
     </g>
     <g id="text_19">
      <!-- 6 -->
      <g transform="translate(20.878125 295.224623) scale(0.1 -0.1)">
       <defs>
        <path id="DejaVuSans-36" d="M 2113 2584 
Q 1688 2584 1439 2293 
Q 1191 2003 1191 1497 
Q 1191 994 1439 701 
Q 1688 409 2113 409 
Q 2538 409 2786 701 
Q 3034 994 3034 1497 
Q 3034 2003 2786 2293 
Q 2538 2584 2113 2584 
z
M 3366 4563 
L 3366 3988 
Q 3128 4100 2886 4159 
Q 2644 4219 2406 4219 
Q 1781 4219 1451 3797 
Q 1122 3375 1075 2522 
Q 1259 2794 1537 2939 
Q 1816 3084 2150 3084 
Q 2853 3084 3261 2657 
Q 3669 2231 3669 1497 
Q 3669 778 3244 343 
Q 2819 -91 2113 -91 
Q 1303 -91 875 529 
Q 447 1150 447 2328 
Q 447 3434 972 4092 
Q 1497 4750 2381 4750 
Q 2619 4750 2861 4703 
Q 3103 4656 3366 4563 
z
" transform="scale(0.015625)"/>
       </defs>
       <use xlink:href="#DejaVuSans-36"/>
      </g>
     </g>
    </g>
    <g id="ytick_5">
     <g id="line2d_24">
      <path d="M 34.240625 223.066071 
L 1065.170625 223.066071 
" clip-path="url(#p12e7c33ae1)" style="fill: none; stroke-dasharray: 2.96,1.28; stroke-dashoffset: 0; stroke: #808080; stroke-opacity: 0.2; stroke-width: 0.8"/>
     </g>
     <g id="line2d_25">
      <g>
       <use xlink:href="#mc347119e8f" x="34.240625" y="223.066071" style="stroke: #000000; stroke-width: 0.8"/>
      </g>
     </g>
     <g id="text_20">
      <!-- 7 -->
      <g transform="translate(20.878125 226.86529) scale(0.1 -0.1)">
       <defs>
        <path id="DejaVuSans-37" d="M 525 4666 
L 3525 4666 
L 3525 4397 
L 1831 0 
L 1172 0 
L 2766 4134 
L 525 4134 
L 525 4666 
z
" transform="scale(0.015625)"/>
       </defs>
       <use xlink:href="#DejaVuSans-37"/>
      </g>
     </g>
    </g>
    <g id="ytick_6">
     <g id="line2d_26">
      <path d="M 34.240625 154.706739 
L 1065.170625 154.706739 
" clip-path="url(#p12e7c33ae1)" style="fill: none; stroke-dasharray: 2.96,1.28; stroke-dashoffset: 0; stroke: #808080; stroke-opacity: 0.2; stroke-width: 0.8"/>
     </g>
     <g id="line2d_27">
      <g>
       <use xlink:href="#mc347119e8f" x="34.240625" y="154.706739" style="stroke: #000000; stroke-width: 0.8"/>
      </g>
     </g>
     <g id="text_21">
      <!-- 8 -->
      <g transform="translate(20.878125 158.505958) scale(0.1 -0.1)">
       <defs>
        <path id="DejaVuSans-38" d="M 2034 2216 
Q 1584 2216 1326 1975 
Q 1069 1734 1069 1313 
Q 1069 891 1326 650 
Q 1584 409 2034 409 
Q 2484 409 2743 651 
Q 3003 894 3003 1313 
Q 3003 1734 2745 1975 
Q 2488 2216 2034 2216 
z
M 1403 2484 
Q 997 2584 770 2862 
Q 544 3141 544 3541 
Q 544 4100 942 4425 
Q 1341 4750 2034 4750 
Q 2731 4750 3128 4425 
Q 3525 4100 3525 3541 
Q 3525 3141 3298 2862 
Q 3072 2584 2669 2484 
Q 3125 2378 3379 2068 
Q 3634 1759 3634 1313 
Q 3634 634 3220 271 
Q 2806 -91 2034 -91 
Q 1263 -91 848 271 
Q 434 634 434 1313 
Q 434 1759 690 2068 
Q 947 2378 1403 2484 
z
M 1172 3481 
Q 1172 3119 1398 2916 
Q 1625 2713 2034 2713 
Q 2441 2713 2670 2916 
Q 2900 3119 2900 3481 
Q 2900 3844 2670 4047 
Q 2441 4250 2034 4250 
Q 1625 4250 1398 4047 
Q 1172 3844 1172 3481 
z
" transform="scale(0.015625)"/>
       </defs>
       <use xlink:href="#DejaVuSans-38"/>
      </g>
     </g>
    </g>
    <g id="ytick_7">
     <g id="line2d_28">
      <path d="M 34.240625 86.347406 
L 1065.170625 86.347406 
" clip-path="url(#p12e7c33ae1)" style="fill: none; stroke-dasharray: 2.96,1.28; stroke-dashoffset: 0; stroke: #808080; stroke-opacity: 0.2; stroke-width: 0.8"/>
     </g>
     <g id="line2d_29">
      <g>
       <use xlink:href="#mc347119e8f" x="34.240625" y="86.347406" style="stroke: #000000; stroke-width: 0.8"/>
      </g>
     </g>
     <g id="text_22">
      <!-- 9 -->
      <g transform="translate(20.878125 90.146625) scale(0.1 -0.1)">
       <defs>
        <path id="DejaVuSans-39" d="M 703 97 
L 703 672 
Q 941 559 1184 500 
Q 1428 441 1663 441 
Q 2288 441 2617 861 
Q 2947 1281 2994 2138 
Q 2813 1869 2534 1725 
Q 2256 1581 1919 1581 
Q 1219 1581 811 2004 
Q 403 2428 403 3163 
Q 403 3881 828 4315 
Q 1253 4750 1959 4750 
Q 2769 4750 3195 4129 
Q 3622 3509 3622 2328 
Q 3622 1225 3098 567 
Q 2575 -91 1691 -91 
Q 1453 -91 1209 -44 
Q 966 3 703 97 
z
M 1959 2075 
Q 2384 2075 2632 2365 
Q 2881 2656 2881 3163 
Q 2881 3666 2632 3958 
Q 2384 4250 1959 4250 
Q 1534 4250 1286 3958 
Q 1038 3666 1038 3163 
Q 1038 2656 1286 2365 
Q 1534 2075 1959 2075 
z
" transform="scale(0.015625)"/>
       </defs>
       <use xlink:href="#DejaVuSans-39"/>
      </g>
     </g>
    </g>
    <g id="text_23">
     <!-- Time (ns) -->
     <g transform="translate(14.798438 283.271578) rotate(-90) scale(0.1 -0.1)">
      <defs>
       <path id="DejaVuSans-54" d="M -19 4666 
L 3928 4666 
L 3928 4134 
L 2272 4134 
L 2272 0 
L 1638 0 
L 1638 4134 
L -19 4134 
L -19 4666 
z
" transform="scale(0.015625)"/>
       <path id="DejaVuSans-69" d="M 603 3500 
L 1178 3500 
L 1178 0 
L 603 0 
L 603 3500 
z
M 603 4863 
L 1178 4863 
L 1178 4134 
L 603 4134 
L 603 4863 
z
" transform="scale(0.015625)"/>
       <path id="DejaVuSans-6e" d="M 3513 2113 
L 3513 0 
L 2938 0 
L 2938 2094 
Q 2938 2591 2744 2837 
Q 2550 3084 2163 3084 
Q 1697 3084 1428 2787 
Q 1159 2491 1159 1978 
L 1159 0 
L 581 0 
L 581 3500 
L 1159 3500 
L 1159 2956 
Q 1366 3272 1645 3428 
Q 1925 3584 2291 3584 
Q 2894 3584 3203 3211 
Q 3513 2838 3513 2113 
z
" transform="scale(0.015625)"/>
      </defs>
      <use xlink:href="#DejaVuSans-54"/>
      <use xlink:href="#DejaVuSans-69" transform="translate(57.958984 0)"/>
      <use xlink:href="#DejaVuSans-6d" transform="translate(85.742188 0)"/>
      <use xlink:href="#DejaVuSans-65" transform="translate(183.154297 0)"/>
      <use xlink:href="#DejaVuSans-20" transform="translate(244.677734 0)"/>
      <use xlink:href="#DejaVuSans-28" transform="translate(276.464844 0)"/>
      <use xlink:href="#DejaVuSans-6e" transform="translate(315.478516 0)"/>
      <use xlink:href="#DejaVuSans-73" transform="translate(378.857422 0)"/>
      <use xlink:href="#DejaVuSans-29" transform="translate(430.957031 0)"/>
     </g>
    </g>
   </g>
   <g id="LineCollection_1">
    <path d="M 81.10108 466.09717 
L 81.10108 463.82764 
" clip-path="url(#p12e7c33ae1)" style="fill: none; stroke: #1f77b4; stroke-width: 1.5"/>
    <path d="M 146.411818 463.437992 
L 146.411818 460.778814 
" clip-path="url(#p12e7c33ae1)" style="fill: none; stroke: #1f77b4; stroke-width: 1.5"/>
    <path d="M 211.722556 457.729988 
L 211.722556 455.152841 
" clip-path="url(#p12e7c33ae1)" style="fill: none; stroke: #1f77b4; stroke-width: 1.5"/>
    <path d="M 277.033294 466.329592 
L 277.033294 461.947759 
" clip-path="url(#p12e7c33ae1)" style="fill: none; stroke: #1f77b4; stroke-width: 1.5"/>
    <path d="M 342.344032 412.523961 
L 342.344032 409.256385 
" clip-path="url(#p12e7c33ae1)" style="fill: none; stroke: #1f77b4; stroke-width: 1.5"/>
    <path d="M 407.65477 416.769076 
L 407.65477 411.942907 
" clip-path="url(#p12e7c33ae1)" style="fill: none; stroke: #1f77b4; stroke-width: 1.5"/>
    <path d="M 472.965508 390.696827 
L 472.965508 387.02593 
" clip-path="url(#p12e7c33ae1)" style="fill: none; stroke: #1f77b4; stroke-width: 1.5"/>
    <path d="M 538.276246 326.063078 
L 538.276246 319.726168 
" clip-path="url(#p12e7c33ae1)" style="fill: none; stroke: #1f77b4; stroke-width: 1.5"/>
    <path d="M 603.586984 288.643179 
L 603.586984 270.630495 
" clip-path="url(#p12e7c33ae1)" style="fill: none; stroke: #1f77b4; stroke-width: 1.5"/>
    <path d="M 668.897722 303.128522 
L 668.897722 297.823837 
" clip-path="url(#p12e7c33ae1)" style="fill: none; stroke: #1f77b4; stroke-width: 1.5"/>
    <path d="M 734.20846 299.23204 
L 734.20846 279.175412 
" clip-path="url(#p12e7c33ae1)" style="fill: none; stroke: #1f77b4; stroke-width: 1.5"/>
    <path d="M 799.519198 280.077755 
L 799.519198 273.706665 
" clip-path="url(#p12e7c33ae1)" style="fill: none; stroke: #1f77b4; stroke-width: 1.5"/>
    <path d="M 864.829936 239.950827 
L 864.829936 234.905908 
" clip-path="url(#p12e7c33ae1)" style="fill: none; stroke: #1f77b4; stroke-width: 1.5"/>
    <path d="M 930.140674 177.067077 
L 930.140674 171.892275 
" clip-path="url(#p12e7c33ae1)" style="fill: none; stroke: #1f77b4; stroke-width: 1.5"/>
    <path d="M 995.451412 115.714576 
L 995.451412 105.918683 
" clip-path="url(#p12e7c33ae1)" style="fill: none; stroke: #1f77b4; stroke-width: 1.5"/>
   </g>
   <g id="line2d_30">
    <defs>
     <path id="mf6696818cd" d="M 5 0 
L -5 -0 
" style="stroke: #1f77b4"/>
    </defs>
    <g clip-path="url(#p12e7c33ae1)">
     <use xlink:href="#mf6696818cd" x="81.10108" y="466.09717" style="fill: #1f77b4; stroke: #1f77b4"/>
     <use xlink:href="#mf6696818cd" x="146.411818" y="463.437992" style="fill: #1f77b4; stroke: #1f77b4"/>
     <use xlink:href="#mf6696818cd" x="211.722556" y="457.729988" style="fill: #1f77b4; stroke: #1f77b4"/>
     <use xlink:href="#mf6696818cd" x="277.033294" y="466.329592" style="fill: #1f77b4; stroke: #1f77b4"/>
     <use xlink:href="#mf6696818cd" x="342.344032" y="412.523961" style="fill: #1f77b4; stroke: #1f77b4"/>
     <use xlink:href="#mf6696818cd" x="407.65477" y="416.769076" style="fill: #1f77b4; stroke: #1f77b4"/>
     <use xlink:href="#mf6696818cd" x="472.965508" y="390.696827" style="fill: #1f77b4; stroke: #1f77b4"/>
     <use xlink:href="#mf6696818cd" x="538.276246" y="326.063078" style="fill: #1f77b4; stroke: #1f77b4"/>
     <use xlink:href="#mf6696818cd" x="603.586984" y="288.643179" style="fill: #1f77b4; stroke: #1f77b4"/>
     <use xlink:href="#mf6696818cd" x="668.897722" y="303.128522" style="fill: #1f77b4; stroke: #1f77b4"/>
     <use xlink:href="#mf6696818cd" x="734.20846" y="299.23204" style="fill: #1f77b4; stroke: #1f77b4"/>
     <use xlink:href="#mf6696818cd" x="799.519198" y="280.077755" style="fill: #1f77b4; stroke: #1f77b4"/>
     <use xlink:href="#mf6696818cd" x="864.829936" y="239.950827" style="fill: #1f77b4; stroke: #1f77b4"/>
     <use xlink:href="#mf6696818cd" x="930.140674" y="177.067077" style="fill: #1f77b4; stroke: #1f77b4"/>
     <use xlink:href="#mf6696818cd" x="995.451412" y="115.714576" style="fill: #1f77b4; stroke: #1f77b4"/>
    </g>
   </g>
   <g id="line2d_31">
    <g clip-path="url(#p12e7c33ae1)">
     <use xlink:href="#mf6696818cd" x="81.10108" y="463.82764" style="fill: #1f77b4; stroke: #1f77b4"/>
     <use xlink:href="#mf6696818cd" x="146.411818" y="460.778814" style="fill: #1f77b4; stroke: #1f77b4"/>
     <use xlink:href="#mf6696818cd" x="211.722556" y="455.152841" style="fill: #1f77b4; stroke: #1f77b4"/>
     <use xlink:href="#mf6696818cd" x="277.033294" y="461.947759" style="fill: #1f77b4; stroke: #1f77b4"/>
     <use xlink:href="#mf6696818cd" x="342.344032" y="409.256385" style="fill: #1f77b4; stroke: #1f77b4"/>
     <use xlink:href="#mf6696818cd" x="407.65477" y="411.942907" style="fill: #1f77b4; stroke: #1f77b4"/>
     <use xlink:href="#mf6696818cd" x="472.965508" y="387.02593" style="fill: #1f77b4; stroke: #1f77b4"/>
     <use xlink:href="#mf6696818cd" x="538.276246" y="319.726168" style="fill: #1f77b4; stroke: #1f77b4"/>
     <use xlink:href="#mf6696818cd" x="603.586984" y="270.630495" style="fill: #1f77b4; stroke: #1f77b4"/>
     <use xlink:href="#mf6696818cd" x="668.897722" y="297.823837" style="fill: #1f77b4; stroke: #1f77b4"/>
     <use xlink:href="#mf6696818cd" x="734.20846" y="279.175412" style="fill: #1f77b4; stroke: #1f77b4"/>
     <use xlink:href="#mf6696818cd" x="799.519198" y="273.706665" style="fill: #1f77b4; stroke: #1f77b4"/>
     <use xlink:href="#mf6696818cd" x="864.829936" y="234.905908" style="fill: #1f77b4; stroke: #1f77b4"/>
     <use xlink:href="#mf6696818cd" x="930.140674" y="171.892275" style="fill: #1f77b4; stroke: #1f77b4"/>
     <use xlink:href="#mf6696818cd" x="995.451412" y="105.918683" style="fill: #1f77b4; stroke: #1f77b4"/>
    </g>
   </g>
   <g id="LineCollection_2">
    <path d="M 103.959838 478.449702 
L 103.959838 474.382321 
" clip-path="url(#p12e7c33ae1)" style="fill: none; stroke: #ff7f0e; stroke-width: 1.5"/>
    <path d="M 169.270576 473.05615 
L 169.270576 470.608886 
" clip-path="url(#p12e7c33ae1)" style="fill: none; stroke: #ff7f0e; stroke-width: 1.5"/>
    <path d="M 234.581314 471.969237 
L 234.581314 469.474121 
" clip-path="url(#p12e7c33ae1)" style="fill: none; stroke: #ff7f0e; stroke-width: 1.5"/>
    <path d="M 299.892052 472.427244 
L 299.892052 465.919436 
" clip-path="url(#p12e7c33ae1)" style="fill: none; stroke: #ff7f0e; stroke-width: 1.5"/>
    <path d="M 365.20279 424.350126 
L 365.20279 418.970246 
" clip-path="url(#p12e7c33ae1)" style="fill: none; stroke: #ff7f0e; stroke-width: 1.5"/>
    <path d="M 430.513528 416.76224 
L 430.513528 411.409704 
" clip-path="url(#p12e7c33ae1)" style="fill: none; stroke: #ff7f0e; stroke-width: 1.5"/>
    <path d="M 495.824266 404.115763 
L 495.824266 400.253461 
" clip-path="url(#p12e7c33ae1)" style="fill: none; stroke: #ff7f0e; stroke-width: 1.5"/>
    <path d="M 561.135004 347.001541 
L 561.135004 341.819904 
" clip-path="url(#p12e7c33ae1)" style="fill: none; stroke: #ff7f0e; stroke-width: 1.5"/>
    <path d="M 626.445742 338.511312 
L 626.445742 333.124597 
" clip-path="url(#p12e7c33ae1)" style="fill: none; stroke: #ff7f0e; stroke-width: 1.5"/>
    <path d="M 691.75648 334.327721 
L 691.75648 330.868739 
" clip-path="url(#p12e7c33ae1)" style="fill: none; stroke: #ff7f0e; stroke-width: 1.5"/>
    <path d="M 757.067218 324.586516 
L 757.067218 312.192969 
" clip-path="url(#p12e7c33ae1)" style="fill: none; stroke: #ff7f0e; stroke-width: 1.5"/>
    <path d="M 822.377956 282.812128 
L 822.377956 277.213499 
" clip-path="url(#p12e7c33ae1)" style="fill: none; stroke: #ff7f0e; stroke-width: 1.5"/>
    <path d="M 887.688694 220.5983 
L 887.688694 214.84928 
" clip-path="url(#p12e7c33ae1)" style="fill: none; stroke: #ff7f0e; stroke-width: 1.5"/>
    <path d="M 952.999432 167.988957 
L 952.999432 162.8415 
" clip-path="url(#p12e7c33ae1)" style="fill: none; stroke: #ff7f0e; stroke-width: 1.5"/>
    <path d="M 1018.31017 107.47044 
L 1018.31017 102.849349 
" clip-path="url(#p12e7c33ae1)" style="fill: none; stroke: #ff7f0e; stroke-width: 1.5"/>
   </g>
   <g id="line2d_32">
    <defs>
     <path id="m62ff7ba4ef" d="M 5 0 
L -5 -0 
" style="stroke: #ff7f0e"/>
    </defs>
    <g clip-path="url(#p12e7c33ae1)">
     <use xlink:href="#m62ff7ba4ef" x="103.959838" y="478.449702" style="fill: #ff7f0e; stroke: #ff7f0e"/>
     <use xlink:href="#m62ff7ba4ef" x="169.270576" y="473.05615" style="fill: #ff7f0e; stroke: #ff7f0e"/>
     <use xlink:href="#m62ff7ba4ef" x="234.581314" y="471.969237" style="fill: #ff7f0e; stroke: #ff7f0e"/>
     <use xlink:href="#m62ff7ba4ef" x="299.892052" y="472.427244" style="fill: #ff7f0e; stroke: #ff7f0e"/>
     <use xlink:href="#m62ff7ba4ef" x="365.20279" y="424.350126" style="fill: #ff7f0e; stroke: #ff7f0e"/>
     <use xlink:href="#m62ff7ba4ef" x="430.513528" y="416.76224" style="fill: #ff7f0e; stroke: #ff7f0e"/>
     <use xlink:href="#m62ff7ba4ef" x="495.824266" y="404.115763" style="fill: #ff7f0e; stroke: #ff7f0e"/>
     <use xlink:href="#m62ff7ba4ef" x="561.135004" y="347.001541" style="fill: #ff7f0e; stroke: #ff7f0e"/>
     <use xlink:href="#m62ff7ba4ef" x="626.445742" y="338.511312" style="fill: #ff7f0e; stroke: #ff7f0e"/>
     <use xlink:href="#m62ff7ba4ef" x="691.75648" y="334.327721" style="fill: #ff7f0e; stroke: #ff7f0e"/>
     <use xlink:href="#m62ff7ba4ef" x="757.067218" y="324.586516" style="fill: #ff7f0e; stroke: #ff7f0e"/>
     <use xlink:href="#m62ff7ba4ef" x="822.377956" y="282.812128" style="fill: #ff7f0e; stroke: #ff7f0e"/>
     <use xlink:href="#m62ff7ba4ef" x="887.688694" y="220.5983" style="fill: #ff7f0e; stroke: #ff7f0e"/>
     <use xlink:href="#m62ff7ba4ef" x="952.999432" y="167.988957" style="fill: #ff7f0e; stroke: #ff7f0e"/>
     <use xlink:href="#m62ff7ba4ef" x="1018.31017" y="107.47044" style="fill: #ff7f0e; stroke: #ff7f0e"/>
    </g>
   </g>
   <g id="line2d_33">
    <g clip-path="url(#p12e7c33ae1)">
     <use xlink:href="#m62ff7ba4ef" x="103.959838" y="474.382321" style="fill: #ff7f0e; stroke: #ff7f0e"/>
     <use xlink:href="#m62ff7ba4ef" x="169.270576" y="470.608886" style="fill: #ff7f0e; stroke: #ff7f0e"/>
     <use xlink:href="#m62ff7ba4ef" x="234.581314" y="469.474121" style="fill: #ff7f0e; stroke: #ff7f0e"/>
     <use xlink:href="#m62ff7ba4ef" x="299.892052" y="465.919436" style="fill: #ff7f0e; stroke: #ff7f0e"/>
     <use xlink:href="#m62ff7ba4ef" x="365.20279" y="418.970246" style="fill: #ff7f0e; stroke: #ff7f0e"/>
     <use xlink:href="#m62ff7ba4ef" x="430.513528" y="411.409704" style="fill: #ff7f0e; stroke: #ff7f0e"/>
     <use xlink:href="#m62ff7ba4ef" x="495.824266" y="400.253461" style="fill: #ff7f0e; stroke: #ff7f0e"/>
     <use xlink:href="#m62ff7ba4ef" x="561.135004" y="341.819904" style="fill: #ff7f0e; stroke: #ff7f0e"/>
     <use xlink:href="#m62ff7ba4ef" x="626.445742" y="333.124597" style="fill: #ff7f0e; stroke: #ff7f0e"/>
     <use xlink:href="#m62ff7ba4ef" x="691.75648" y="330.868739" style="fill: #ff7f0e; stroke: #ff7f0e"/>
     <use xlink:href="#m62ff7ba4ef" x="757.067218" y="312.192969" style="fill: #ff7f0e; stroke: #ff7f0e"/>
     <use xlink:href="#m62ff7ba4ef" x="822.377956" y="277.213499" style="fill: #ff7f0e; stroke: #ff7f0e"/>
     <use xlink:href="#m62ff7ba4ef" x="887.688694" y="214.84928" style="fill: #ff7f0e; stroke: #ff7f0e"/>
     <use xlink:href="#m62ff7ba4ef" x="952.999432" y="162.8415" style="fill: #ff7f0e; stroke: #ff7f0e"/>
     <use xlink:href="#m62ff7ba4ef" x="1018.31017" y="102.849349" style="fill: #ff7f0e; stroke: #ff7f0e"/>
    </g>
   </g>
   <g id="line2d_34">
    <defs>
     <path id="ma292b00d1f" d="M 0 2 
C 0.530406 2 1.03916 1.789267 1.414214 1.414214 
C 1.789267 1.03916 2 0.530406 2 0 
C 2 -0.530406 1.789267 -1.03916 1.414214 -1.414214 
C 1.03916 -1.789267 0.530406 -2 0 -2 
C -0.530406 -2 -1.03916 -1.789267 -1.414214 -1.414214 
C -1.789267 -1.03916 -2 -0.530406 -2 0 
C -2 0.530406 -1.789267 1.03916 -1.414214 1.414214 
C -1.03916 1.789267 -0.530406 2 0 2 
z
" style="stroke: #1f77b4"/>
    </defs>
    <g clip-path="url(#p12e7c33ae1)">
     <use xlink:href="#ma292b00d1f" x="81.10108" y="465.10596" style="fill: #1f77b4; stroke: #1f77b4"/>
     <use xlink:href="#ma292b00d1f" x="146.411818" y="462.173345" style="fill: #1f77b4; stroke: #1f77b4"/>
     <use xlink:href="#ma292b00d1f" x="211.722556" y="456.64991" style="fill: #1f77b4; stroke: #1f77b4"/>
     <use xlink:href="#ma292b00d1f" x="277.033294" y="464.237796" style="fill: #1f77b4; stroke: #1f77b4"/>
     <use xlink:href="#ma292b00d1f" x="342.344032" y="411.040564" style="fill: #1f77b4; stroke: #1f77b4"/>
     <use xlink:href="#ma292b00d1f" x="407.65477" y="414.766147" style="fill: #1f77b4; stroke: #1f77b4"/>
     <use xlink:href="#ma292b00d1f" x="472.965508" y="389.165577" style="fill: #1f77b4; stroke: #1f77b4"/>
     <use xlink:href="#ma292b00d1f" x="538.276246" y="323.479095" style="fill: #1f77b4; stroke: #1f77b4"/>
     <use xlink:href="#ma292b00d1f" x="603.586984" y="279.066037" style="fill: #1f77b4; stroke: #1f77b4"/>
     <use xlink:href="#ma292b00d1f" x="668.897722" y="300.428328" style="fill: #1f77b4; stroke: #1f77b4"/>
     <use xlink:href="#ma292b00d1f" x="734.20846" y="290.15392" style="fill: #1f77b4; stroke: #1f77b4"/>
     <use xlink:href="#ma292b00d1f" x="799.519198" y="277.192991" style="fill: #1f77b4; stroke: #1f77b4"/>
     <use xlink:href="#ma292b00d1f" x="864.829936" y="237.859031" style="fill: #1f77b4; stroke: #1f77b4"/>
     <use xlink:href="#ma292b00d1f" x="930.140674" y="174.900086" style="fill: #1f77b4; stroke: #1f77b4"/>
     <use xlink:href="#ma292b00d1f" x="995.451412" y="111.619852" style="fill: #1f77b4; stroke: #1f77b4"/>
    </g>
   </g>
   <g id="line2d_35">
    <defs>
     <path id="m55a736d78c" d="M 0 2 
C 0.530406 2 1.03916 1.789267 1.414214 1.414214 
C 1.789267 1.03916 2 0.530406 2 0 
C 2 -0.530406 1.789267 -1.03916 1.414214 -1.414214 
C 1.03916 -1.789267 0.530406 -2 0 -2 
C -0.530406 -2 -1.03916 -1.789267 -1.414214 -1.414214 
C -1.789267 -1.03916 -2 -0.530406 -2 0 
C -2 0.530406 -1.789267 1.03916 -1.414214 1.414214 
C -1.03916 1.789267 -0.530406 2 0 2 
z
" style="stroke: #ff7f0e"/>
    </defs>
    <g clip-path="url(#p12e7c33ae1)">
     <use xlink:href="#m55a736d78c" x="103.959838" y="476.699703" style="fill: #ff7f0e; stroke: #ff7f0e"/>
     <use xlink:href="#m55a736d78c" x="169.270576" y="472.003417" style="fill: #ff7f0e; stroke: #ff7f0e"/>
     <use xlink:href="#m55a736d78c" x="234.581314" y="470.943847" style="fill: #ff7f0e; stroke: #ff7f0e"/>
     <use xlink:href="#m55a736d78c" x="299.892052" y="469.583496" style="fill: #ff7f0e; stroke: #ff7f0e"/>
     <use xlink:href="#m55a736d78c" x="365.20279" y="421.786651" style="fill: #ff7f0e; stroke: #ff7f0e"/>
     <use xlink:href="#m55a736d78c" x="430.513528" y="414.355991" style="fill: #ff7f0e; stroke: #ff7f0e"/>
     <use xlink:href="#m55a736d78c" x="495.824266" y="402.229046" style="fill: #ff7f0e; stroke: #ff7f0e"/>
     <use xlink:href="#m55a736d78c" x="561.135004" y="344.820878" style="fill: #ff7f0e; stroke: #ff7f0e"/>
     <use xlink:href="#m55a736d78c" x="626.445742" y="336.344321" style="fill: #ff7f0e; stroke: #ff7f0e"/>
     <use xlink:href="#m55a736d78c" x="691.75648" y="332.844323" style="fill: #ff7f0e; stroke: #ff7f0e"/>
     <use xlink:href="#m55a736d78c" x="757.067218" y="319.097262" style="fill: #ff7f0e; stroke: #ff7f0e"/>
     <use xlink:href="#m55a736d78c" x="822.377956" y="280.221309" style="fill: #ff7f0e; stroke: #ff7f0e"/>
     <use xlink:href="#m55a736d78c" x="887.688694" y="217.52213" style="fill: #ff7f0e; stroke: #ff7f0e"/>
     <use xlink:href="#m55a736d78c" x="952.999432" y="165.787787" style="fill: #ff7f0e; stroke: #ff7f0e"/>
     <use xlink:href="#m55a736d78c" x="1018.31017" y="105.48802" style="fill: #ff7f0e; stroke: #ff7f0e"/>
    </g>
   </g>
   <g id="patch_3">
    <path d="M 34.240625 497.229719 
L 34.240625 22.318125 
" style="fill: none; stroke: #000000; stroke-width: 0.8; stroke-linejoin: miter; stroke-linecap: square"/>
   </g>
   <g id="patch_4">
    <path d="M 1065.170625 497.229719 
L 1065.170625 22.318125 
" style="fill: none; stroke: #000000; stroke-width: 0.8; stroke-linejoin: miter; stroke-linecap: square"/>
   </g>
   <g id="patch_5">
    <path d="M 34.240625 497.229719 
L 1065.170625 497.229719 
" style="fill: none; stroke: #000000; stroke-width: 0.8; stroke-linejoin: miter; stroke-linecap: square"/>
   </g>
   <g id="patch_6">
    <path d="M 34.240625 22.318125 
L 1065.170625 22.318125 
" style="fill: none; stroke: #000000; stroke-width: 0.8; stroke-linejoin: miter; stroke-linecap: square"/>
   </g>
   <g id="text_24">
    <!-- 3.459 -->
    <g transform="translate(83.860455 457.135262) rotate(-90) scale(0.1 -0.1)">
     <defs>
      <path id="DejaVuSans-2e" d="M 684 794 
L 1344 794 
L 1344 0 
L 684 0 
L 684 794 
z
" transform="scale(0.015625)"/>
     </defs>
     <use xlink:href="#DejaVuSans-33"/>
     <use xlink:href="#DejaVuSans-2e" transform="translate(63.623047 0)"/>
     <use xlink:href="#DejaVuSans-34" transform="translate(95.410156 0)"/>
     <use xlink:href="#DejaVuSans-35" transform="translate(159.033203 0)"/>
     <use xlink:href="#DejaVuSans-39" transform="translate(222.65625 0)"/>
    </g>
   </g>
   <g id="text_25">
    <!-- 3.290 -->
    <g transform="translate(106.719213 467.830079) rotate(-90) scale(0.1 -0.1)">
     <defs>
      <path id="DejaVuSans-30" d="M 2034 4250 
Q 1547 4250 1301 3770 
Q 1056 3291 1056 2328 
Q 1056 1369 1301 889 
Q 1547 409 2034 409 
Q 2525 409 2770 889 
Q 3016 1369 3016 2328 
Q 3016 3291 2770 3770 
Q 2525 4250 2034 4250 
z
M 2034 4750 
Q 2819 4750 3233 4129 
Q 3647 3509 3647 2328 
Q 3647 1150 3233 529 
Q 2819 -91 2034 -91 
Q 1250 -91 836 529 
Q 422 1150 422 2328 
Q 422 3509 836 4129 
Q 1250 4750 2034 4750 
z
" transform="scale(0.015625)"/>
     </defs>
     <use xlink:href="#DejaVuSans-33"/>
     <use xlink:href="#DejaVuSans-2e" transform="translate(63.623047 0)"/>
     <use xlink:href="#DejaVuSans-32" transform="translate(95.410156 0)"/>
     <use xlink:href="#DejaVuSans-39" transform="translate(159.033203 0)"/>
     <use xlink:href="#DejaVuSans-30" transform="translate(222.65625 0)"/>
    </g>
   </g>
   <g id="text_26">
    <!-- 3.502 -->
    <g transform="translate(149.171193 454.007822) rotate(-90) scale(0.1 -0.1)">
     <use xlink:href="#DejaVuSans-33"/>
     <use xlink:href="#DejaVuSans-2e" transform="translate(63.623047 0)"/>
     <use xlink:href="#DejaVuSans-35" transform="translate(95.410156 0)"/>
     <use xlink:href="#DejaVuSans-30" transform="translate(159.033203 0)"/>
     <use xlink:href="#DejaVuSans-32" transform="translate(222.65625 0)"/>
    </g>
   </g>
   <g id="text_27">
    <!-- 3.358 -->
    <g transform="translate(172.029951 463.943851) rotate(-90) scale(0.1 -0.1)">
     <use xlink:href="#DejaVuSans-33"/>
     <use xlink:href="#DejaVuSans-2e" transform="translate(63.623047 0)"/>
     <use xlink:href="#DejaVuSans-33" transform="translate(95.410156 0)"/>
     <use xlink:href="#DejaVuSans-35" transform="translate(159.033203 0)"/>
     <use xlink:href="#DejaVuSans-38" transform="translate(222.65625 0)"/>
    </g>
   </g>
   <g id="text_28">
    <!-- 3.583 -->
    <g transform="translate(214.481931 448.525404) rotate(-90) scale(0.1 -0.1)">
     <use xlink:href="#DejaVuSans-33"/>
     <use xlink:href="#DejaVuSans-2e" transform="translate(63.623047 0)"/>
     <use xlink:href="#DejaVuSans-35" transform="translate(95.410156 0)"/>
     <use xlink:href="#DejaVuSans-38" transform="translate(159.033203 0)"/>
     <use xlink:href="#DejaVuSans-33" transform="translate(222.65625 0)"/>
    </g>
   </g>
   <g id="text_29">
    <!-- 3.374 -->
    <g transform="translate(237.340689 462.860356) rotate(-90) scale(0.1 -0.1)">
     <use xlink:href="#DejaVuSans-33"/>
     <use xlink:href="#DejaVuSans-2e" transform="translate(63.623047 0)"/>
     <use xlink:href="#DejaVuSans-33" transform="translate(95.410156 0)"/>
     <use xlink:href="#DejaVuSans-37" transform="translate(159.033203 0)"/>
     <use xlink:href="#DejaVuSans-34" transform="translate(222.65625 0)"/>
    </g>
   </g>
   <g id="text_30">
    <!-- 3.472 -->
    <g transform="translate(279.792669 455.210947) rotate(-90) scale(0.1 -0.1)">
     <use xlink:href="#DejaVuSans-33"/>
     <use xlink:href="#DejaVuSans-2e" transform="translate(63.623047 0)"/>
     <use xlink:href="#DejaVuSans-34" transform="translate(95.410156 0)"/>
     <use xlink:href="#DejaVuSans-37" transform="translate(159.033203 0)"/>
     <use xlink:href="#DejaVuSans-32" transform="translate(222.65625 0)"/>
    </g>
   </g>
   <g id="text_31">
    <!-- 3.394 -->
    <g transform="translate(302.651427 459.493659) rotate(-90) scale(0.1 -0.1)">
     <use xlink:href="#DejaVuSans-33"/>
     <use xlink:href="#DejaVuSans-2e" transform="translate(63.623047 0)"/>
     <use xlink:href="#DejaVuSans-33" transform="translate(95.410156 0)"/>
     <use xlink:href="#DejaVuSans-39" transform="translate(159.033203 0)"/>
     <use xlink:href="#DejaVuSans-34" transform="translate(222.65625 0)"/>
    </g>
   </g>
   <g id="text_32">
    <!-- 4.250 -->
    <g transform="translate(345.103407 402.570843) rotate(-90) scale(0.1 -0.1)">
     <use xlink:href="#DejaVuSans-34"/>
     <use xlink:href="#DejaVuSans-2e" transform="translate(63.623047 0)"/>
     <use xlink:href="#DejaVuSans-32" transform="translate(95.410156 0)"/>
     <use xlink:href="#DejaVuSans-35" transform="translate(159.033203 0)"/>
     <use xlink:href="#DejaVuSans-30" transform="translate(222.65625 0)"/>
    </g>
   </g>
   <g id="text_33">
    <!-- 4.093 -->
    <g transform="translate(367.962165 412.260778) rotate(-90) scale(0.1 -0.1)">
     <use xlink:href="#DejaVuSans-34"/>
     <use xlink:href="#DejaVuSans-2e" transform="translate(63.623047 0)"/>
     <use xlink:href="#DejaVuSans-30" transform="translate(95.410156 0)"/>
     <use xlink:href="#DejaVuSans-39" transform="translate(159.033203 0)"/>
     <use xlink:href="#DejaVuSans-33" transform="translate(222.65625 0)"/>
    </g>
   </g>
   <g id="text_34">
    <!-- 4.196 -->
    <g transform="translate(410.414145 405.51713) rotate(-90) scale(0.1 -0.1)">
     <defs>
      <path id="DejaVuSans-31" d="M 794 531 
L 1825 531 
L 1825 4091 
L 703 3866 
L 703 4441 
L 1819 4666 
L 2450 4666 
L 2450 531 
L 3481 531 
L 3481 0 
L 794 0 
L 794 531 
z
" transform="scale(0.015625)"/>
     </defs>
     <use xlink:href="#DejaVuSans-34"/>
     <use xlink:href="#DejaVuSans-2e" transform="translate(63.623047 0)"/>
     <use xlink:href="#DejaVuSans-31" transform="translate(95.410156 0)"/>
     <use xlink:href="#DejaVuSans-39" transform="translate(159.033203 0)"/>
     <use xlink:href="#DejaVuSans-36" transform="translate(222.65625 0)"/>
    </g>
   </g>
   <g id="text_35">
    <!-- 4.202 -->
    <g transform="translate(433.272903 404.84379) rotate(-90) scale(0.1 -0.1)">
     <use xlink:href="#DejaVuSans-34"/>
     <use xlink:href="#DejaVuSans-2e" transform="translate(63.623047 0)"/>
     <use xlink:href="#DejaVuSans-32" transform="translate(95.410156 0)"/>
     <use xlink:href="#DejaVuSans-30" transform="translate(159.033203 0)"/>
     <use xlink:href="#DejaVuSans-32" transform="translate(222.65625 0)"/>
    </g>
   </g>
   <g id="text_36">
    <!-- 4.570 -->
    <g transform="translate(475.724883 380.494196) rotate(-90) scale(0.1 -0.1)">
     <use xlink:href="#DejaVuSans-34"/>
     <use xlink:href="#DejaVuSans-2e" transform="translate(63.623047 0)"/>
     <use xlink:href="#DejaVuSans-35" transform="translate(95.410156 0)"/>
     <use xlink:href="#DejaVuSans-37" transform="translate(159.033203 0)"/>
     <use xlink:href="#DejaVuSans-30" transform="translate(222.65625 0)"/>
    </g>
   </g>
   <g id="text_37">
    <!-- 4.379 -->
    <g transform="translate(498.583641 393.461962) rotate(-90) scale(0.1 -0.1)">
     <use xlink:href="#DejaVuSans-34"/>
     <use xlink:href="#DejaVuSans-2e" transform="translate(63.623047 0)"/>
     <use xlink:href="#DejaVuSans-33" transform="translate(95.410156 0)"/>
     <use xlink:href="#DejaVuSans-37" transform="translate(159.033203 0)"/>
     <use xlink:href="#DejaVuSans-39" transform="translate(222.65625 0)"/>
    </g>
   </g>
   <g id="text_38">
    <!-- 5.531 -->
    <g transform="translate(541.035621 313.474707) rotate(-90) scale(0.1 -0.1)">
     <use xlink:href="#DejaVuSans-35"/>
     <use xlink:href="#DejaVuSans-2e" transform="translate(63.623047 0)"/>
     <use xlink:href="#DejaVuSans-35" transform="translate(95.410156 0)"/>
     <use xlink:href="#DejaVuSans-33" transform="translate(159.033203 0)"/>
     <use xlink:href="#DejaVuSans-31" transform="translate(222.65625 0)"/>
    </g>
   </g>
   <g id="text_39">
    <!-- 5.219 -->
    <g transform="translate(563.894379 335.394127) rotate(-90) scale(0.1 -0.1)">
     <use xlink:href="#DejaVuSans-35"/>
     <use xlink:href="#DejaVuSans-2e" transform="translate(63.623047 0)"/>
     <use xlink:href="#DejaVuSans-32" transform="translate(95.410156 0)"/>
     <use xlink:href="#DejaVuSans-31" transform="translate(159.033203 0)"/>
     <use xlink:href="#DejaVuSans-39" transform="translate(222.65625 0)"/>
    </g>
   </g>
   <g id="text_40">
    <!-- 6.181 -->
    <g transform="translate(606.346359 263.223761) rotate(-90) scale(0.1 -0.1)">
     <use xlink:href="#DejaVuSans-36"/>
     <use xlink:href="#DejaVuSans-2e" transform="translate(63.623047 0)"/>
     <use xlink:href="#DejaVuSans-31" transform="translate(95.410156 0)"/>
     <use xlink:href="#DejaVuSans-38" transform="translate(159.033203 0)"/>
     <use xlink:href="#DejaVuSans-31" transform="translate(222.65625 0)"/>
    </g>
   </g>
   <g id="text_41">
    <!-- 5.343 -->
    <g transform="translate(629.205117 326.81503) rotate(-90) scale(0.1 -0.1)">
     <use xlink:href="#DejaVuSans-35"/>
     <use xlink:href="#DejaVuSans-2e" transform="translate(63.623047 0)"/>
     <use xlink:href="#DejaVuSans-33" transform="translate(95.410156 0)"/>
     <use xlink:href="#DejaVuSans-34" transform="translate(159.033203 0)"/>
     <use xlink:href="#DejaVuSans-33" transform="translate(222.65625 0)"/>
    </g>
   </g>
   <g id="text_42">
    <!-- 5.868 -->
    <g transform="translate(671.657097 290.940053) rotate(-90) scale(0.1 -0.1)">
     <use xlink:href="#DejaVuSans-35"/>
     <use xlink:href="#DejaVuSans-2e" transform="translate(63.623047 0)"/>
     <use xlink:href="#DejaVuSans-38" transform="translate(95.410156 0)"/>
     <use xlink:href="#DejaVuSans-36" transform="translate(159.033203 0)"/>
     <use xlink:href="#DejaVuSans-38" transform="translate(222.65625 0)"/>
    </g>
   </g>
   <g id="text_43">
    <!-- 5.394 -->
    <g transform="translate(694.515855 324.278899) rotate(-90) scale(0.1 -0.1)">
     <use xlink:href="#DejaVuSans-35"/>
     <use xlink:href="#DejaVuSans-2e" transform="translate(63.623047 0)"/>
     <use xlink:href="#DejaVuSans-33" transform="translate(95.410156 0)"/>
     <use xlink:href="#DejaVuSans-39" transform="translate(159.033203 0)"/>
     <use xlink:href="#DejaVuSans-34" transform="translate(222.65625 0)"/>
    </g>
   </g>
   <g id="text_44">
    <!-- 6.019 -->
    <g transform="translate(736.967835 273.289673) rotate(-90) scale(0.1 -0.1)">
     <use xlink:href="#DejaVuSans-36"/>
     <use xlink:href="#DejaVuSans-2e" transform="translate(63.623047 0)"/>
     <use xlink:href="#DejaVuSans-30" transform="translate(95.410156 0)"/>
     <use xlink:href="#DejaVuSans-31" transform="translate(159.033203 0)"/>
     <use xlink:href="#DejaVuSans-39" transform="translate(222.65625 0)"/>
    </g>
   </g>
   <g id="text_45">
    <!-- 5.595 -->
    <g transform="translate(759.826593 306.064555) rotate(-90) scale(0.1 -0.1)">
     <use xlink:href="#DejaVuSans-35"/>
     <use xlink:href="#DejaVuSans-2e" transform="translate(63.623047 0)"/>
     <use xlink:href="#DejaVuSans-35" transform="translate(95.410156 0)"/>
     <use xlink:href="#DejaVuSans-39" transform="translate(159.033203 0)"/>
     <use xlink:href="#DejaVuSans-35" transform="translate(222.65625 0)"/>
    </g>
   </g>
   <g id="text_46">
    <!-- 6.208 -->
    <g transform="translate(802.278573 267.171513) rotate(-90) scale(0.1 -0.1)">
     <use xlink:href="#DejaVuSans-36"/>
     <use xlink:href="#DejaVuSans-2e" transform="translate(63.623047 0)"/>
     <use xlink:href="#DejaVuSans-32" transform="translate(95.410156 0)"/>
     <use xlink:href="#DejaVuSans-30" transform="translate(159.033203 0)"/>
     <use xlink:href="#DejaVuSans-38" transform="translate(222.65625 0)"/>
    </g>
   </g>
   <g id="text_47">
    <!-- 6.164 -->
    <g transform="translate(825.137331 270.586061) rotate(-90) scale(0.1 -0.1)">
     <use xlink:href="#DejaVuSans-36"/>
     <use xlink:href="#DejaVuSans-2e" transform="translate(63.623047 0)"/>
     <use xlink:href="#DejaVuSans-31" transform="translate(95.410156 0)"/>
     <use xlink:href="#DejaVuSans-36" transform="translate(159.033203 0)"/>
     <use xlink:href="#DejaVuSans-34" transform="translate(222.65625 0)"/>
    </g>
   </g>
   <g id="text_48">
    <!-- 6.784 -->
    <g transform="translate(867.589311 228.500638) rotate(-90) scale(0.1 -0.1)">
     <use xlink:href="#DejaVuSans-36"/>
     <use xlink:href="#DejaVuSans-2e" transform="translate(63.623047 0)"/>
     <use xlink:href="#DejaVuSans-37" transform="translate(95.410156 0)"/>
     <use xlink:href="#DejaVuSans-38" transform="translate(159.033203 0)"/>
     <use xlink:href="#DejaVuSans-34" transform="translate(222.65625 0)"/>
    </g>
   </g>
   <g id="text_49">
    <!-- 7.081 -->
    <g transform="translate(890.448069 207.811686) rotate(-90) scale(0.1 -0.1)">
     <use xlink:href="#DejaVuSans-37"/>
     <use xlink:href="#DejaVuSans-2e" transform="translate(63.623047 0)"/>
     <use xlink:href="#DejaVuSans-30" transform="translate(95.410156 0)"/>
     <use xlink:href="#DejaVuSans-38" transform="translate(159.033203 0)"/>
     <use xlink:href="#DejaVuSans-31" transform="translate(222.65625 0)"/>
    </g>
   </g>
   <g id="text_50">
    <!-- 7.705 -->
    <g transform="translate(932.900049 165.476752) rotate(-90) scale(0.1 -0.1)">
     <use xlink:href="#DejaVuSans-37"/>
     <use xlink:href="#DejaVuSans-2e" transform="translate(63.623047 0)"/>
     <use xlink:href="#DejaVuSans-37" transform="translate(95.410156 0)"/>
     <use xlink:href="#DejaVuSans-30" transform="translate(159.033203 0)"/>
     <use xlink:href="#DejaVuSans-35" transform="translate(222.65625 0)"/>
    </g>
   </g>
   <g id="text_51">
    <!-- 7.838 -->
    <g transform="translate(955.758807 156.378125) rotate(-90) scale(0.1 -0.1)">
     <use xlink:href="#DejaVuSans-37"/>
     <use xlink:href="#DejaVuSans-2e" transform="translate(63.623047 0)"/>
     <use xlink:href="#DejaVuSans-38" transform="translate(95.410156 0)"/>
     <use xlink:href="#DejaVuSans-33" transform="translate(159.033203 0)"/>
     <use xlink:href="#DejaVuSans-38" transform="translate(222.65625 0)"/>
    </g>
   </g>
   <g id="text_52">
    <!-- 8.630 -->
    <g transform="translate(998.210787 99.885972) rotate(-90) scale(0.1 -0.1)">
     <use xlink:href="#DejaVuSans-38"/>
     <use xlink:href="#DejaVuSans-2e" transform="translate(63.623047 0)"/>
     <use xlink:href="#DejaVuSans-36" transform="translate(95.410156 0)"/>
     <use xlink:href="#DejaVuSans-33" transform="translate(159.033203 0)"/>
     <use xlink:href="#DejaVuSans-30" transform="translate(222.65625 0)"/>
    </g>
   </g>
   <g id="text_53">
    <!-- 8.720 -->
    <g transform="translate(1021.069545 96.341541) rotate(-90) scale(0.1 -0.1)">
     <use xlink:href="#DejaVuSans-38"/>
     <use xlink:href="#DejaVuSans-2e" transform="translate(63.623047 0)"/>
     <use xlink:href="#DejaVuSans-37" transform="translate(95.410156 0)"/>
     <use xlink:href="#DejaVuSans-32" transform="translate(159.033203 0)"/>
     <use xlink:href="#DejaVuSans-30" transform="translate(222.65625 0)"/>
    </g>
   </g>
   <g id="text_54">
    <!-- Write (u64 write word) on universal Zipf distribution ≈1/x (first billion integers) -->
    <g transform="translate(312.743125 16.318125) scale(0.12 -0.12)">
     <defs>
      <path id="DejaVuSans-57" d="M 213 4666 
L 850 4666 
L 1831 722 
L 2809 4666 
L 3519 4666 
L 4500 722 
L 5478 4666 
L 6119 4666 
L 4947 0 
L 4153 0 
L 3169 4050 
L 2175 0 
L 1381 0 
L 213 4666 
z
" transform="scale(0.015625)"/>
      <path id="DejaVuSans-72" d="M 2631 2963 
Q 2534 3019 2420 3045 
Q 2306 3072 2169 3072 
Q 1681 3072 1420 2755 
Q 1159 2438 1159 1844 
L 1159 0 
L 581 0 
L 581 3500 
L 1159 3500 
L 1159 2956 
Q 1341 3275 1631 3429 
Q 1922 3584 2338 3584 
Q 2397 3584 2469 3576 
Q 2541 3569 2628 3553 
L 2631 2963 
z
" transform="scale(0.015625)"/>
      <path id="DejaVuSans-75" d="M 544 1381 
L 544 3500 
L 1119 3500 
L 1119 1403 
Q 1119 906 1312 657 
Q 1506 409 1894 409 
Q 2359 409 2629 706 
Q 2900 1003 2900 1516 
L 2900 3500 
L 3475 3500 
L 3475 0 
L 2900 0 
L 2900 538 
Q 2691 219 2414 64 
Q 2138 -91 1772 -91 
Q 1169 -91 856 284 
Q 544 659 544 1381 
z
M 1991 3584 
L 1991 3584 
z
" transform="scale(0.015625)"/>
      <path id="DejaVuSans-77" d="M 269 3500 
L 844 3500 
L 1563 769 
L 2278 3500 
L 2956 3500 
L 3675 769 
L 4391 3500 
L 4966 3500 
L 4050 0 
L 3372 0 
L 2619 2869 
L 1863 0 
L 1184 0 
L 269 3500 
z
" transform="scale(0.015625)"/>
      <path id="DejaVuSans-64" d="M 2906 2969 
L 2906 4863 
L 3481 4863 
L 3481 0 
L 2906 0 
L 2906 525 
Q 2725 213 2448 61 
Q 2172 -91 1784 -91 
Q 1150 -91 751 415 
Q 353 922 353 1747 
Q 353 2572 751 3078 
Q 1150 3584 1784 3584 
Q 2172 3584 2448 3432 
Q 2725 3281 2906 2969 
z
M 947 1747 
Q 947 1113 1208 752 
Q 1469 391 1925 391 
Q 2381 391 2643 752 
Q 2906 1113 2906 1747 
Q 2906 2381 2643 2742 
Q 2381 3103 1925 3103 
Q 1469 3103 1208 2742 
Q 947 2381 947 1747 
z
" transform="scale(0.015625)"/>
      <path id="DejaVuSans-76" d="M 191 3500 
L 800 3500 
L 1894 563 
L 2988 3500 
L 3597 3500 
L 2284 0 
L 1503 0 
L 191 3500 
z
" transform="scale(0.015625)"/>
      <path id="DejaVuSans-5a" d="M 359 4666 
L 4025 4666 
L 4025 4184 
L 1075 531 
L 4097 531 
L 4097 0 
L 288 0 
L 288 481 
L 3238 4134 
L 359 4134 
L 359 4666 
z
" transform="scale(0.015625)"/>
      <path id="DejaVuSans-66" d="M 2375 4863 
L 2375 4384 
L 1825 4384 
Q 1516 4384 1395 4259 
Q 1275 4134 1275 3809 
L 1275 3500 
L 2222 3500 
L 2222 3053 
L 1275 3053 
L 1275 0 
L 697 0 
L 697 3053 
L 147 3053 
L 147 3500 
L 697 3500 
L 697 3744 
Q 697 4328 969 4595 
Q 1241 4863 1831 4863 
L 2375 4863 
z
" transform="scale(0.015625)"/>
      <path id="DejaVuSans-2248" d="M 4684 1947 
L 4684 1388 
Q 4356 1144 4076 1036 
Q 3797 928 3494 928 
Q 3150 928 2694 1113 
Q 2663 1125 2641 1134 
Q 2622 1141 2575 1159 
Q 2091 1350 1797 1350 
Q 1522 1350 1253 1231 
Q 984 1113 678 850 
L 678 1409 
Q 1006 1653 1286 1761 
Q 1566 1869 1869 1869 
Q 2213 1869 2672 1684 
Q 2706 1669 2722 1663 
Q 2741 1656 2788 1638 
Q 3272 1447 3566 1447 
Q 3834 1447 4098 1564 
Q 4363 1681 4684 1947 
z
M 4684 3163 
L 4684 2606 
Q 4356 2359 4076 2251 
Q 3797 2144 3494 2144 
Q 3150 2144 2694 2328 
Q 2663 2341 2641 2350 
Q 2622 2356 2575 2375 
Q 2091 2566 1797 2566 
Q 1522 2566 1253 2447 
Q 984 2328 678 2069 
L 678 2625 
Q 1006 2869 1286 2976 
Q 1566 3084 1869 3084 
Q 2213 3084 2672 2900 
Q 2703 2888 2719 2881 
Q 2741 2872 2788 2853 
Q 3272 2663 3566 2663 
Q 3834 2663 4098 2780 
Q 4363 2897 4684 3163 
z
" transform="scale(0.015625)"/>
      <path id="DejaVuSans-2f" d="M 1625 4666 
L 2156 4666 
L 531 -594 
L 0 -594 
L 1625 4666 
z
" transform="scale(0.015625)"/>
      <path id="DejaVuSans-67" d="M 2906 1791 
Q 2906 2416 2648 2759 
Q 2391 3103 1925 3103 
Q 1463 3103 1205 2759 
Q 947 2416 947 1791 
Q 947 1169 1205 825 
Q 1463 481 1925 481 
Q 2391 481 2648 825 
Q 2906 1169 2906 1791 
z
M 3481 434 
Q 3481 -459 3084 -895 
Q 2688 -1331 1869 -1331 
Q 1566 -1331 1297 -1286 
Q 1028 -1241 775 -1147 
L 775 -588 
Q 1028 -725 1275 -790 
Q 1522 -856 1778 -856 
Q 2344 -856 2625 -561 
Q 2906 -266 2906 331 
L 2906 616 
Q 2728 306 2450 153 
Q 2172 0 1784 0 
Q 1141 0 747 490 
Q 353 981 353 1791 
Q 353 2603 747 3093 
Q 1141 3584 1784 3584 
Q 2172 3584 2450 3431 
Q 2728 3278 2906 2969 
L 2906 3500 
L 3481 3500 
L 3481 434 
z
" transform="scale(0.015625)"/>
     </defs>
     <use xlink:href="#DejaVuSans-57"/>
     <use xlink:href="#DejaVuSans-72" transform="translate(94.376953 0)"/>
     <use xlink:href="#DejaVuSans-69" transform="translate(135.490234 0)"/>
     <use xlink:href="#DejaVuSans-74" transform="translate(163.273438 0)"/>
     <use xlink:href="#DejaVuSans-65" transform="translate(202.482422 0)"/>
     <use xlink:href="#DejaVuSans-20" transform="translate(264.005859 0)"/>
     <use xlink:href="#DejaVuSans-28" transform="translate(295.792969 0)"/>
     <use xlink:href="#DejaVuSans-75" transform="translate(334.806641 0)"/>
     <use xlink:href="#DejaVuSans-36" transform="translate(398.185547 0)"/>
     <use xlink:href="#DejaVuSans-34" transform="translate(461.808594 0)"/>
     <use xlink:href="#DejaVuSans-20" transform="translate(525.431641 0)"/>
     <use xlink:href="#DejaVuSans-77" transform="translate(557.21875 0)"/>
     <use xlink:href="#DejaVuSans-72" transform="translate(639.005859 0)"/>
     <use xlink:href="#DejaVuSans-69" transform="translate(680.119141 0)"/>
     <use xlink:href="#DejaVuSans-74" transform="translate(707.902344 0)"/>
     <use xlink:href="#DejaVuSans-65" transform="translate(747.111328 0)"/>
     <use xlink:href="#DejaVuSans-20" transform="translate(808.634766 0)"/>
     <use xlink:href="#DejaVuSans-77" transform="translate(840.421875 0)"/>
     <use xlink:href="#DejaVuSans-6f" transform="translate(922.208984 0)"/>
     <use xlink:href="#DejaVuSans-72" transform="translate(983.390625 0)"/>
     <use xlink:href="#DejaVuSans-64" transform="translate(1022.753906 0)"/>
     <use xlink:href="#DejaVuSans-29" transform="translate(1086.230469 0)"/>
     <use xlink:href="#DejaVuSans-20" transform="translate(1125.244141 0)"/>
     <use xlink:href="#DejaVuSans-6f" transform="translate(1157.03125 0)"/>
     <use xlink:href="#DejaVuSans-6e" transform="translate(1218.212891 0)"/>
     <use xlink:href="#DejaVuSans-20" transform="translate(1281.591797 0)"/>
     <use xlink:href="#DejaVuSans-75" transform="translate(1313.378906 0)"/>
     <use xlink:href="#DejaVuSans-6e" transform="translate(1376.757812 0)"/>
     <use xlink:href="#DejaVuSans-69" transform="translate(1440.136719 0)"/>
     <use xlink:href="#DejaVuSans-76" transform="translate(1467.919922 0)"/>
     <use xlink:href="#DejaVuSans-65" transform="translate(1527.099609 0)"/>
     <use xlink:href="#DejaVuSans-72" transform="translate(1588.623047 0)"/>
     <use xlink:href="#DejaVuSans-73" transform="translate(1629.736328 0)"/>
     <use xlink:href="#DejaVuSans-61" transform="translate(1681.835938 0)"/>
     <use xlink:href="#DejaVuSans-6c" transform="translate(1743.115234 0)"/>
     <use xlink:href="#DejaVuSans-20" transform="translate(1770.898438 0)"/>
     <use xlink:href="#DejaVuSans-5a" transform="translate(1802.685547 0)"/>
     <use xlink:href="#DejaVuSans-69" transform="translate(1871.191406 0)"/>
     <use xlink:href="#DejaVuSans-70" transform="translate(1898.974609 0)"/>
     <use xlink:href="#DejaVuSans-66" transform="translate(1962.451172 0)"/>
     <use xlink:href="#DejaVuSans-20" transform="translate(1997.65625 0)"/>
     <use xlink:href="#DejaVuSans-64" transform="translate(2029.443359 0)"/>
     <use xlink:href="#DejaVuSans-69" transform="translate(2092.919922 0)"/>
     <use xlink:href="#DejaVuSans-73" transform="translate(2120.703125 0)"/>
     <use xlink:href="#DejaVuSans-74" transform="translate(2172.802734 0)"/>
     <use xlink:href="#DejaVuSans-72" transform="translate(2212.011719 0)"/>
     <use xlink:href="#DejaVuSans-69" transform="translate(2253.125 0)"/>
     <use xlink:href="#DejaVuSans-62" transform="translate(2280.908203 0)"/>
     <use xlink:href="#DejaVuSans-75" transform="translate(2344.384766 0)"/>
     <use xlink:href="#DejaVuSans-74" transform="translate(2407.763672 0)"/>
     <use xlink:href="#DejaVuSans-69" transform="translate(2446.972656 0)"/>
     <use xlink:href="#DejaVuSans-6f" transform="translate(2474.755859 0)"/>
     <use xlink:href="#DejaVuSans-6e" transform="translate(2535.9375 0)"/>
     <use xlink:href="#DejaVuSans-20" transform="translate(2599.316406 0)"/>
     <use xlink:href="#DejaVuSans-2248" transform="translate(2631.103516 0)"/>
     <use xlink:href="#DejaVuSans-31" transform="translate(2714.892578 0)"/>
     <use xlink:href="#DejaVuSans-2f" transform="translate(2778.515625 0)"/>
     <use xlink:href="#DejaVuSans-78" transform="translate(2812.207031 0)"/>
     <use xlink:href="#DejaVuSans-20" transform="translate(2871.386719 0)"/>
     <use xlink:href="#DejaVuSans-28" transform="translate(2903.173828 0)"/>
     <use xlink:href="#DejaVuSans-66" transform="translate(2942.1875 0)"/>
     <use xlink:href="#DejaVuSans-69" transform="translate(2977.392578 0)"/>
     <use xlink:href="#DejaVuSans-72" transform="translate(3005.175781 0)"/>
     <use xlink:href="#DejaVuSans-73" transform="translate(3046.289062 0)"/>
     <use xlink:href="#DejaVuSans-74" transform="translate(3098.388672 0)"/>
     <use xlink:href="#DejaVuSans-20" transform="translate(3137.597656 0)"/>
     <use xlink:href="#DejaVuSans-62" transform="translate(3169.384766 0)"/>
     <use xlink:href="#DejaVuSans-69" transform="translate(3232.861328 0)"/>
     <use xlink:href="#DejaVuSans-6c" transform="translate(3260.644531 0)"/>
     <use xlink:href="#DejaVuSans-6c" transform="translate(3288.427734 0)"/>
     <use xlink:href="#DejaVuSans-69" transform="translate(3316.210938 0)"/>
     <use xlink:href="#DejaVuSans-6f" transform="translate(3343.994141 0)"/>
     <use xlink:href="#DejaVuSans-6e" transform="translate(3405.175781 0)"/>
     <use xlink:href="#DejaVuSans-20" transform="translate(3468.554688 0)"/>
     <use xlink:href="#DejaVuSans-69" transform="translate(3500.341797 0)"/>
     <use xlink:href="#DejaVuSans-6e" transform="translate(3528.125 0)"/>
     <use xlink:href="#DejaVuSans-74" transform="translate(3591.503906 0)"/>
     <use xlink:href="#DejaVuSans-65" transform="translate(3630.712891 0)"/>
     <use xlink:href="#DejaVuSans-67" transform="translate(3692.236328 0)"/>
     <use xlink:href="#DejaVuSans-65" transform="translate(3755.712891 0)"/>
     <use xlink:href="#DejaVuSans-72" transform="translate(3817.236328 0)"/>
     <use xlink:href="#DejaVuSans-73" transform="translate(3858.349609 0)"/>
     <use xlink:href="#DejaVuSans-29" transform="translate(3910.449219 0)"/>
    </g>
   </g>
   <g id="legend_1">
    <g id="patch_7">
     <path d="M 963.622187 59.674375 
L 1058.170625 59.674375 
Q 1060.170625 59.674375 1060.170625 57.674375 
L 1060.170625 29.318125 
Q 1060.170625 27.318125 1058.170625 27.318125 
L 963.622187 27.318125 
Q 961.622187 27.318125 961.622187 29.318125 
L 961.622187 57.674375 
Q 961.622187 59.674375 963.622187 59.674375 
z
" style="fill: #ffffff; opacity: 0.8; stroke: #cccccc; stroke-linejoin: miter"/>
    </g>
    <g id="LineCollection_3">
     <path d="M 975.622187 40.416562 
L 975.622187 30.416562 
" style="fill: none; stroke: #1f77b4; stroke-width: 1.5"/>
    </g>
    <g id="line2d_36">
     <g>
      <use xlink:href="#mf6696818cd" x="975.622187" y="40.416562" style="fill: #1f77b4; stroke: #1f77b4"/>
     </g>
    </g>
    <g id="line2d_37">
     <g>
      <use xlink:href="#mf6696818cd" x="975.622187" y="30.416562" style="fill: #1f77b4; stroke: #1f77b4"/>
     </g>
    </g>
    <g id="line2d_38"/>
    <g id="line2d_39">
     <g>
      <use xlink:href="#ma292b00d1f" x="975.622187" y="35.416562" style="fill: #1f77b4; stroke: #1f77b4"/>
     </g>
    </g>
    <g id="text_55">
     <!-- Little Endian -->
     <g transform="translate(993.622187 38.916562) scale(0.1 -0.1)">
      <use xlink:href="#DejaVuSans-4c"/>
      <use xlink:href="#DejaVuSans-69" transform="translate(55.712891 0)"/>
      <use xlink:href="#DejaVuSans-74" transform="translate(83.496094 0)"/>
      <use xlink:href="#DejaVuSans-74" transform="translate(122.705078 0)"/>
      <use xlink:href="#DejaVuSans-6c" transform="translate(161.914062 0)"/>
      <use xlink:href="#DejaVuSans-65" transform="translate(189.697266 0)"/>
      <use xlink:href="#DejaVuSans-20" transform="translate(251.220703 0)"/>
      <use xlink:href="#DejaVuSans-45" transform="translate(283.007812 0)"/>
      <use xlink:href="#DejaVuSans-6e" transform="translate(346.191406 0)"/>
      <use xlink:href="#DejaVuSans-64" transform="translate(409.570312 0)"/>
      <use xlink:href="#DejaVuSans-69" transform="translate(473.046875 0)"/>
      <use xlink:href="#DejaVuSans-61" transform="translate(500.830078 0)"/>
      <use xlink:href="#DejaVuSans-6e" transform="translate(562.109375 0)"/>
     </g>
    </g>
    <g id="LineCollection_4">
     <path d="M 975.622187 55.094687 
L 975.622187 45.094687 
" style="fill: none; stroke: #ff7f0e; stroke-width: 1.5"/>
    </g>
    <g id="line2d_40">
     <g>
      <use xlink:href="#m62ff7ba4ef" x="975.622187" y="55.094687" style="fill: #ff7f0e; stroke: #ff7f0e"/>
     </g>
    </g>
    <g id="line2d_41">
     <g>
      <use xlink:href="#m62ff7ba4ef" x="975.622187" y="45.094687" style="fill: #ff7f0e; stroke: #ff7f0e"/>
     </g>
    </g>
    <g id="line2d_42"/>
    <g id="line2d_43">
     <g>
      <use xlink:href="#m55a736d78c" x="975.622187" y="50.094687" style="fill: #ff7f0e; stroke: #ff7f0e"/>
     </g>
    </g>
    <g id="text_56">
     <!-- Big Endian -->
     <g transform="translate(993.622187 53.594687) scale(0.1 -0.1)">
      <use xlink:href="#DejaVuSans-42"/>
      <use xlink:href="#DejaVuSans-69" transform="translate(68.603516 0)"/>
      <use xlink:href="#DejaVuSans-67" transform="translate(96.386719 0)"/>
      <use xlink:href="#DejaVuSans-20" transform="translate(159.863281 0)"/>
      <use xlink:href="#DejaVuSans-45" transform="translate(191.650391 0)"/>
      <use xlink:href="#DejaVuSans-6e" transform="translate(254.833984 0)"/>
      <use xlink:href="#DejaVuSans-64" transform="translate(318.212891 0)"/>
      <use xlink:href="#DejaVuSans-69" transform="translate(381.689453 0)"/>
      <use xlink:href="#DejaVuSans-61" transform="translate(409.472656 0)"/>
      <use xlink:href="#DejaVuSans-6e" transform="translate(470.751953 0)"/>
     </g>
    </g>
   </g>
  </g>
 </g>
 <defs>
  <clipPath id="p12e7c33ae1">
   <rect x="34.240625" y="22.318125" width="1030.93" height="474.911594"/>
  </clipPath>
 </defs>
</svg>
