<?xml version="1.0" encoding="utf-8" standalone="no"?>
<!DOCTYPE svg PUBLIC "-//W3C//DTD SVG 1.1//EN"
  "http://www.w3.org/Graphics/SVG/1.1/DTD/svg11.dtd">
<svg xmlns:xlink="http://www.w3.org/1999/xlink" width="875.458125pt" height="516.83175pt" viewBox="0 0 875.458125 516.83175" xmlns="http://www.w3.org/2000/svg" version="1.1">
 <metadata>
  <rdf:RDF xmlns:dc="http://purl.org/dc/elements/1.1/" xmlns:cc="http://creativecommons.org/ns#" xmlns:rdf="http://www.w3.org/1999/02/22-rdf-syntax-ns#">
   <cc:Work>
    <dc:type rdf:resource="http://purl.org/dc/dcmitype/StillImage"/>
    <dc:date>2026-03-03T23:15:16.744189</dc:date>
    <dc:format>image/svg+xml</dc:format>
    <dc:creator>
     <cc:Agent>
      <dc:title>Matplotlib v3.10.6, https://matplotlib.org/</dc:title>
     </cc:Agent>
    </dc:creator>
   </cc:Work>
  </rdf:RDF>
 </metadata>
 <defs>
  <style type="text/css">*{stroke-linejoin: round; stroke-linecap: butt}</style>
 </defs>
 <g id="figure_1">
  <g id="patch_1">
   <path d="M 0 516.83175 
L 875.458125 516.83175 
L 875.458125 0 
L 0 0 
z
" style="fill: #ffffff"/>
  </g>
  <g id="axes_1">
   <g id="patch_2">
    <path d="M 50.983125 479.2755 
L 608.983125 479.2755 
L 608.983125 35.7555 
L 50.983125 35.7555 
z
" style="fill: #ffffff"/>
   </g>
   <g id="FillBetweenPolyCollection_1">
    <path d="M 83.806654 198.043659 
L 83.806654 199.980679 
L 116.630184 243.666122 
L 149.453713 287.238608 
L 182.277243 299.241437 
L 215.100772 310.712945 
L 247.924301 323.435357 
L 280.747831 335.881651 
L 313.57136 338.956617 
L 346.39489 341.675975 
L 379.218419 344.01044 
L 412.041949 346.357455 
L 444.865478 347.821725 
L 477.689007 350.39884 
L 510.512537 351.846375 
L 543.336066 352.77514 
L 576.159596 352.122495 
L 576.159596 350.925977 
L 576.159596 350.925977 
L 543.336066 351.524236 
L 510.512537 350.566185 
L 477.689007 348.909468 
L 444.865478 345.76338 
L 412.041949 344.901553 
L 379.218419 342.562905 
L 346.39489 340.186604 
L 313.57136 337.463062 
L 280.747831 334.513604 
L 247.924301 322.067311 
L 215.100772 309.18592 
L 182.277243 297.911043 
L 149.453713 285.192814 
L 116.630184 241.365127 
L 83.806654 198.043659 
z
" clip-path="url(#p80a07c809a)" style="fill: #1f77b4; fill-opacity: 0.3"/>
   </g>
   <g id="FillBetweenPolyCollection_2">
    <path d="M 83.806654 214.138076 
L 83.806654 216.029076 
L 116.630184 259.333809 
L 149.453713 297.961247 
L 182.277243 309.026943 
L 215.100772 319.565501 
L 247.924301 331.087213 
L 280.747831 343.177898 
L 313.57136 345.738278 
L 346.39489 348.436718 
L 379.218419 350.896692 
L 412.041949 352.850446 
L 444.865478 354.975729 
L 477.689007 356.607344 
L 510.512537 357.925187 
L 543.336066 358.795381 
L 576.159596 358.084164 
L 576.159596 357.201419 
L 576.159596 357.201419 
L 543.336066 357.866616 
L 510.512537 356.837443 
L 477.689007 355.624191 
L 444.865478 354.084616 
L 412.041949 351.486583 
L 379.218419 349.352933 
L 346.39489 347.169079 
L 313.57136 343.968604 
L 280.747831 341.993931 
L 247.924301 329.660596 
L 215.100772 318.105415 
L 182.277243 307.52502 
L 149.453713 295.881983 
L 116.630184 256.832 
L 83.806654 214.138076 
z
" clip-path="url(#p80a07c809a)" style="fill: #ff7f0e; fill-opacity: 0.3"/>
   </g>
   <g id="FillBetweenPolyCollection_3">
    <path d="M 83.806654 198.558246 
L 83.806654 201.106075 
L 116.630184 243.76653 
L 149.453713 284.172009 
L 182.277243 294.969953 
L 215.100772 307.893179 
L 247.924301 319.3103 
L 280.747831 333.538819 
L 313.57136 335.902569 
L 346.39489 339.136513 
L 379.218419 341.55465 
L 412.041949 343.571159 
L 444.865478 346.081336 
L 477.689007 347.721318 
L 510.512537 349.085181 
L 543.336066 350.323534 
L 576.159596 350.01813 
L 576.159596 348.821612 
L 576.159596 348.821612 
L 543.336066 349.17722 
L 510.512537 347.457749 
L 477.689007 346.102254 
L 444.865478 344.604515 
L 412.041949 342.056686 
L 379.218419 340.257726 
L 346.39489 337.463062 
L 313.57136 334.957069 
L 280.747831 331.90302 
L 247.924301 318.21419 
L 215.100772 306.19881 
L 182.277243 293.543335 
L 149.453713 282.126215 
L 116.630184 241.649614 
L 83.806654 198.558246 
z
" clip-path="url(#p80a07c809a)" style="fill: #2ca02c; fill-opacity: 0.3"/>
   </g>
   <g id="FillBetweenPolyCollection_4">
    <path d="M 83.806654 213.230229 
L 83.806654 215.317859 
L 116.630184 254.75692 
L 149.453713 294.589242 
L 182.277243 306.10677 
L 215.100772 317.197568 
L 247.924301 328.786218 
L 280.747831 341.546283 
L 313.57136 344.378599 
L 346.39489 347.194181 
L 379.218419 349.127017 
L 412.041949 351.511685 
L 444.865478 354.072065 
L 477.689007 355.645109 
L 510.512537 356.996421 
L 543.336066 358.201306 
L 576.159596 357.649067 
L 576.159596 356.427448 
L 576.159596 356.427448 
L 543.336066 357.101012 
L 510.512537 355.883576 
L 477.689007 354.256145 
L 444.865478 352.883915 
L 412.041949 350.139455 
L 379.218419 347.566524 
L 346.39489 345.767564 
L 313.57136 342.763719 
L 280.747831 340.270276 
L 247.924301 327.401437 
L 215.100772 315.649626 
L 182.277243 304.91862 
L 149.453713 292.702426 
L 116.630184 252.033378 
L 83.806654 213.230229 
z
" clip-path="url(#p80a07c809a)" style="fill: #d62728; fill-opacity: 0.3"/>
   </g>
   <g id="patch_3">
    <path d="M 50.983125 275.595571 
L 608.983125 275.595571 
L 608.983125 273.608348 
L 50.983125 273.608348 
z
" clip-path="url(#p80a07c809a)" style="opacity: 0.08; stroke: #000000; stroke-linejoin: miter"/>
   </g>
   <g id="patch_4">
    <path d="M 50.983125 280.791637 
L 608.983125 280.791637 
L 608.983125 278.653803 
L 50.983125 278.653803 
z
" clip-path="url(#p80a07c809a)" style="fill: #cc00cc; opacity: 0.08; stroke: #cc00cc; stroke-linejoin: miter"/>
   </g>
   <g id="patch_5">
    <path d="M 70.677243 479.2755 
L 96.936066 479.2755 
L 96.936066 455.37025 
L 70.677243 455.37025 
z
" clip-path="url(#p80a07c809a)" style="fill: #0000ff; fill-opacity: 0.3; stroke: #000000; stroke-linejoin: miter"/>
   </g>
   <g id="patch_6">
    <path d="M 103.500772 479.2755 
L 129.759596 479.2755 
L 129.759596 451.387436 
L 103.500772 451.387436 
z
" clip-path="url(#p80a07c809a)" style="fill: #0000ff; fill-opacity: 0.3; stroke: #000000; stroke-linejoin: miter"/>
   </g>
   <g id="patch_7">
    <path d="M 136.324301 479.2755 
L 162.583125 479.2755 
L 162.583125 447.237277 
L 136.324301 447.237277 
z
" clip-path="url(#p80a07c809a)" style="fill: #0000ff; fill-opacity: 0.3; stroke: #000000; stroke-linejoin: miter"/>
   </g>
   <g id="patch_8">
    <path d="M 169.147831 479.2755 
L 195.406654 479.2755 
L 195.406654 445.994739 
L 169.147831 445.994739 
z
" clip-path="url(#p80a07c809a)" style="fill: #0000ff; fill-opacity: 0.3; stroke: #000000; stroke-linejoin: miter"/>
   </g>
   <g id="patch_9">
    <path d="M 201.97136 479.2755 
L 228.230184 479.2755 
L 228.230184 444.701998 
L 201.97136 444.701998 
z
" clip-path="url(#p80a07c809a)" style="fill: #0000ff; fill-opacity: 0.3; stroke: #000000; stroke-linejoin: miter"/>
   </g>
   <g id="patch_10">
    <path d="M 234.79489 479.2755 
L 261.053713 479.2755 
L 261.053713 443.405074 
L 234.79489 443.405074 
z
" clip-path="url(#p80a07c809a)" style="fill: #0000ff; fill-opacity: 0.3; stroke: #000000; stroke-linejoin: miter"/>
   </g>
   <g id="patch_11">
    <path d="M 267.618419 479.2755 
L 293.877243 479.2755 
L 293.877243 442.095598 
L 267.618419 442.095598 
z
" clip-path="url(#p80a07c809a)" style="fill: #0000ff; fill-opacity: 0.3; stroke: #000000; stroke-linejoin: miter"/>
   </g>
   <g id="patch_12">
    <path d="M 300.441949 479.2755 
L 326.700772 479.2755 
L 326.700772 441.765091 
L 300.441949 441.765091 
z
" clip-path="url(#p80a07c809a)" style="fill: #0000ff; fill-opacity: 0.3; stroke: #000000; stroke-linejoin: miter"/>
   </g>
   <g id="patch_13">
    <path d="M 333.265478 479.2755 
L 359.524301 479.2755 
L 359.524301 441.434585 
L 333.265478 441.434585 
z
" clip-path="url(#p80a07c809a)" style="fill: #0000ff; fill-opacity: 0.3; stroke: #000000; stroke-linejoin: miter"/>
   </g>
   <g id="patch_14">
    <path d="M 366.089007 479.2755 
L 392.347831 479.2755 
L 392.347831 441.095711 
L 366.089007 441.095711 
z
" clip-path="url(#p80a07c809a)" style="fill: #0000ff; fill-opacity: 0.3; stroke: #000000; stroke-linejoin: miter"/>
   </g>
   <g id="patch_15">
    <path d="M 398.912537 479.2755 
L 425.17136 479.2755 
L 425.17136 440.769388 
L 398.912537 440.769388 
z
" clip-path="url(#p80a07c809a)" style="fill: #0000ff; fill-opacity: 0.3; stroke: #000000; stroke-linejoin: miter"/>
   </g>
   <g id="patch_16">
    <path d="M 431.736066 479.2755 
L 457.99489 479.2755 
L 457.99489 440.438881 
L 431.736066 440.438881 
z
" clip-path="url(#p80a07c809a)" style="fill: #0000ff; fill-opacity: 0.3; stroke: #000000; stroke-linejoin: miter"/>
   </g>
   <g id="patch_17">
    <path d="M 464.559596 479.2755 
L 490.818419 479.2755 
L 490.818419 440.100008 
L 464.559596 440.100008 
z
" clip-path="url(#p80a07c809a)" style="fill: #0000ff; fill-opacity: 0.3; stroke: #000000; stroke-linejoin: miter"/>
   </g>
   <g id="patch_18">
    <path d="M 497.383125 479.2755 
L 523.641949 479.2755 
L 523.641949 439.769501 
L 497.383125 439.769501 
z
" clip-path="url(#p80a07c809a)" style="fill: #0000ff; fill-opacity: 0.3; stroke: #000000; stroke-linejoin: miter"/>
   </g>
   <g id="patch_19">
    <path d="M 530.206654 479.2755 
L 556.465478 479.2755 
L 556.465478 439.434811 
L 530.206654 439.434811 
z
" clip-path="url(#p80a07c809a)" style="fill: #0000ff; fill-opacity: 0.3; stroke: #000000; stroke-linejoin: miter"/>
   </g>
   <g id="patch_20">
    <path d="M 563.030184 479.2755 
L 589.289007 479.2755 
L 589.289007 439.351138 
L 563.030184 439.351138 
z
" clip-path="url(#p80a07c809a)" style="fill: #0000ff; fill-opacity: 0.3; stroke: #000000; stroke-linejoin: miter"/>
   </g>
   <g id="matplotlib.axis_1">
    <g id="xtick_1">
     <g id="line2d_1">
      <defs>
       <path id="m92083f4452" d="M 0 0 
L 0 3.5 
" style="stroke: #000000; stroke-width: 0.8"/>
      </defs>
      <g>
       <use xlink:href="#m92083f4452" x="83.806654" y="479.2755" style="stroke: #000000; stroke-width: 0.8"/>
      </g>
     </g>
     <g id="text_1">
      <!-- 1 -->
      <g transform="translate(80.625404 493.873938) scale(0.1 -0.1)">
       <defs>
        <path id="DejaVuSans-31" d="M 794 531 
L 1825 531 
L 1825 4091 
L 703 3866 
L 703 4441 
L 1819 4666 
L 2450 4666 
L 2450 531 
L 3481 531 
L 3481 0 
L 794 0 
L 794 531 
z
" transform="scale(0.015625)"/>
       </defs>
       <use xlink:href="#DejaVuSans-31"/>
      </g>
     </g>
    </g>
    <g id="xtick_2">
     <g id="line2d_2">
      <g>
       <use xlink:href="#m92083f4452" x="116.630184" y="479.2755" style="stroke: #000000; stroke-width: 0.8"/>
      </g>
     </g>
     <g id="text_2">
      <!-- 2 -->
      <g transform="translate(113.448934 493.873938) scale(0.1 -0.1)">
       <defs>
        <path id="DejaVuSans-32" d="M 1228 531 
L 3431 531 
L 3431 0 
L 469 0 
L 469 531 
Q 828 903 1448 1529 
Q 2069 2156 2228 2338 
Q 2531 2678 2651 2914 
Q 2772 3150 2772 3378 
Q 2772 3750 2511 3984 
Q 2250 4219 1831 4219 
Q 1534 4219 1204 4116 
Q 875 4013 500 3803 
L 500 4441 
Q 881 4594 1212 4672 
Q 1544 4750 1819 4750 
Q 2544 4750 2975 4387 
Q 3406 4025 3406 3419 
Q 3406 3131 3298 2873 
Q 3191 2616 2906 2266 
Q 2828 2175 2409 1742 
Q 1991 1309 1228 531 
z
" transform="scale(0.015625)"/>
       </defs>
       <use xlink:href="#DejaVuSans-32"/>
      </g>
     </g>
    </g>
    <g id="xtick_3">
     <g id="line2d_3">
      <g>
       <use xlink:href="#m92083f4452" x="149.453713" y="479.2755" style="stroke: #000000; stroke-width: 0.8"/>
      </g>
     </g>
     <g id="text_3">
      <!-- 3 -->
      <g transform="translate(146.272463 493.873938) scale(0.1 -0.1)">
       <defs>
        <path id="DejaVuSans-33" d="M 2597 2516 
Q 3050 2419 3304 2112 
Q 3559 1806 3559 1356 
Q 3559 666 3084 287 
Q 2609 -91 1734 -91 
Q 1441 -91 1130 -33 
Q 819 25 488 141 
L 488 750 
Q 750 597 1062 519 
Q 1375 441 1716 441 
Q 2309 441 2620 675 
Q 2931 909 2931 1356 
Q 2931 1769 2642 2001 
Q 2353 2234 1838 2234 
L 1294 2234 
L 1294 2753 
L 1863 2753 
Q 2328 2753 2575 2939 
Q 2822 3125 2822 3475 
Q 2822 3834 2567 4026 
Q 2313 4219 1838 4219 
Q 1578 4219 1281 4162 
Q 984 4106 628 3988 
L 628 4550 
Q 988 4650 1302 4700 
Q 1616 4750 1894 4750 
Q 2613 4750 3031 4423 
Q 3450 4097 3450 3541 
Q 3450 3153 3228 2886 
Q 3006 2619 2597 2516 
z
" transform="scale(0.015625)"/>
       </defs>
       <use xlink:href="#DejaVuSans-33"/>
      </g>
     </g>
    </g>
    <g id="xtick_4">
     <g id="line2d_4">
      <g>
       <use xlink:href="#m92083f4452" x="182.277243" y="479.2755" style="stroke: #000000; stroke-width: 0.8"/>
      </g>
     </g>
     <g id="text_4">
      <!-- 4 -->
      <g transform="translate(179.095993 493.873938) scale(0.1 -0.1)">
       <defs>
        <path id="DejaVuSans-34" d="M 2419 4116 
L 825 1625 
L 2419 1625 
L 2419 4116 
z
M 2253 4666 
L 3047 4666 
L 3047 1625 
L 3713 1625 
L 3713 1100 
L 3047 1100 
L 3047 0 
L 2419 0 
L 2419 1100 
L 313 1100 
L 313 1709 
L 2253 4666 
z
" transform="scale(0.015625)"/>
       </defs>
       <use xlink:href="#DejaVuSans-34"/>
      </g>
     </g>
    </g>
    <g id="xtick_5">
     <g id="line2d_5">
      <g>
       <use xlink:href="#m92083f4452" x="215.100772" y="479.2755" style="stroke: #000000; stroke-width: 0.8"/>
      </g>
     </g>
     <g id="text_5">
      <!-- 5 -->
      <g transform="translate(211.919522 493.873938) scale(0.1 -0.1)">
       <defs>
        <path id="DejaVuSans-35" d="M 691 4666 
L 3169 4666 
L 3169 4134 
L 1269 4134 
L 1269 2991 
Q 1406 3038 1543 3061 
Q 1681 3084 1819 3084 
Q 2600 3084 3056 2656 
Q 3513 2228 3513 1497 
Q 3513 744 3044 326 
Q 2575 -91 1722 -91 
Q 1428 -91 1123 -41 
Q 819 9 494 109 
L 494 744 
Q 775 591 1075 516 
Q 1375 441 1709 441 
Q 2250 441 2565 725 
Q 2881 1009 2881 1497 
Q 2881 1984 2565 2268 
Q 2250 2553 1709 2553 
Q 1456 2553 1204 2497 
Q 953 2441 691 2322 
L 691 4666 
z
" transform="scale(0.015625)"/>
       </defs>
       <use xlink:href="#DejaVuSans-35"/>
      </g>
     </g>
    </g>
    <g id="xtick_6">
     <g id="line2d_6">
      <g>
       <use xlink:href="#m92083f4452" x="247.924301" y="479.2755" style="stroke: #000000; stroke-width: 0.8"/>
      </g>
     </g>
     <g id="text_6">
      <!-- 6 -->
      <g transform="translate(244.743051 493.873938) scale(0.1 -0.1)">
       <defs>
        <path id="DejaVuSans-36" d="M 2113 2584 
Q 1688 2584 1439 2293 
Q 1191 2003 1191 1497 
Q 1191 994 1439 701 
Q 1688 409 2113 409 
Q 2538 409 2786 701 
Q 3034 994 3034 1497 
Q 3034 2003 2786 2293 
Q 2538 2584 2113 2584 
z
M 3366 4563 
L 3366 3988 
Q 3128 4100 2886 4159 
Q 2644 4219 2406 4219 
Q 1781 4219 1451 3797 
Q 1122 3375 1075 2522 
Q 1259 2794 1537 2939 
Q 1816 3084 2150 3084 
Q 2853 3084 3261 2657 
Q 3669 2231 3669 1497 
Q 3669 778 3244 343 
Q 2819 -91 2113 -91 
Q 1303 -91 875 529 
Q 447 1150 447 2328 
Q 447 3434 972 4092 
Q 1497 4750 2381 4750 
Q 2619 4750 2861 4703 
Q 3103 4656 3366 4563 
z
" transform="scale(0.015625)"/>
       </defs>
       <use xlink:href="#DejaVuSans-36"/>
      </g>
     </g>
    </g>
    <g id="xtick_7">
     <g id="line2d_7">
      <g>
       <use xlink:href="#m92083f4452" x="280.747831" y="479.2755" style="stroke: #000000; stroke-width: 0.8"/>
      </g>
     </g>
     <g id="text_7">
      <!-- 7 -->
      <g transform="translate(277.566581 493.873938) scale(0.1 -0.1)">
       <defs>
        <path id="DejaVuSans-37" d="M 525 4666 
L 3525 4666 
L 3525 4397 
L 1831 0 
L 1172 0 
L 2766 4134 
L 525 4134 
L 525 4666 
z
" transform="scale(0.015625)"/>
       </defs>
       <use xlink:href="#DejaVuSans-37"/>
      </g>
     </g>
    </g>
    <g id="xtick_8">
     <g id="line2d_8">
      <g>
       <use xlink:href="#m92083f4452" x="313.57136" y="479.2755" style="stroke: #000000; stroke-width: 0.8"/>
      </g>
     </g>
     <g id="text_8">
      <!-- 8 -->
      <g transform="translate(310.39011 493.873938) scale(0.1 -0.1)">
       <defs>
        <path id="DejaVuSans-38" d="M 2034 2216 
Q 1584 2216 1326 1975 
Q 1069 1734 1069 1313 
Q 1069 891 1326 650 
Q 1584 409 2034 409 
Q 2484 409 2743 651 
Q 3003 894 3003 1313 
Q 3003 1734 2745 1975 
Q 2488 2216 2034 2216 
z
M 1403 2484 
Q 997 2584 770 2862 
Q 544 3141 544 3541 
Q 544 4100 942 4425 
Q 1341 4750 2034 4750 
Q 2731 4750 3128 4425 
Q 3525 4100 3525 3541 
Q 3525 3141 3298 2862 
Q 3072 2584 2669 2484 
Q 3125 2378 3379 2068 
Q 3634 1759 3634 1313 
Q 3634 634 3220 271 
Q 2806 -91 2034 -91 
Q 1263 -91 848 271 
Q 434 634 434 1313 
Q 434 1759 690 2068 
Q 947 2378 1403 2484 
z
M 1172 3481 
Q 1172 3119 1398 2916 
Q 1625 2713 2034 2713 
Q 2441 2713 2670 2916 
Q 2900 3119 2900 3481 
Q 2900 3844 2670 4047 
Q 2441 4250 2034 4250 
Q 1625 4250 1398 4047 
Q 1172 3844 1172 3481 
z
" transform="scale(0.015625)"/>
       </defs>
       <use xlink:href="#DejaVuSans-38"/>
      </g>
     </g>
    </g>
    <g id="xtick_9">
     <g id="line2d_9">
      <g>
       <use xlink:href="#m92083f4452" x="346.39489" y="479.2755" style="stroke: #000000; stroke-width: 0.8"/>
      </g>
     </g>
     <g id="text_9">
      <!-- 9 -->
      <g transform="translate(343.21364 493.873938) scale(0.1 -0.1)">
       <defs>
        <path id="DejaVuSans-39" d="M 703 97 
L 703 672 
Q 941 559 1184 500 
Q 1428 441 1663 441 
Q 2288 441 2617 861 
Q 2947 1281 2994 2138 
Q 2813 1869 2534 1725 
Q 2256 1581 1919 1581 
Q 1219 1581 811 2004 
Q 403 2428 403 3163 
Q 403 3881 828 4315 
Q 1253 4750 1959 4750 
Q 2769 4750 3195 4129 
Q 3622 3509 3622 2328 
Q 3622 1225 3098 567 
Q 2575 -91 1691 -91 
Q 1453 -91 1209 -44 
Q 966 3 703 97 
z
M 1959 2075 
Q 2384 2075 2632 2365 
Q 2881 2656 2881 3163 
Q 2881 3666 2632 3958 
Q 2384 4250 1959 4250 
Q 1534 4250 1286 3958 
Q 1038 3666 1038 3163 
Q 1038 2656 1286 2365 
Q 1534 2075 1959 2075 
z
" transform="scale(0.015625)"/>
       </defs>
       <use xlink:href="#DejaVuSans-39"/>
      </g>
     </g>
    </g>
    <g id="xtick_10">
     <g id="line2d_10">
      <g>
       <use xlink:href="#m92083f4452" x="379.218419" y="479.2755" style="stroke: #000000; stroke-width: 0.8"/>
      </g>
     </g>
     <g id="text_10">
      <!-- 10 -->
      <g transform="translate(372.855919 493.873938) scale(0.1 -0.1)">
       <defs>
        <path id="DejaVuSans-30" d="M 2034 4250 
Q 1547 4250 1301 3770 
Q 1056 3291 1056 2328 
Q 1056 1369 1301 889 
Q 1547 409 2034 409 
Q 2525 409 2770 889 
Q 3016 1369 3016 2328 
Q 3016 3291 2770 3770 
Q 2525 4250 2034 4250 
z
M 2034 4750 
Q 2819 4750 3233 4129 
Q 3647 3509 3647 2328 
Q 3647 1150 3233 529 
Q 2819 -91 2034 -91 
Q 1250 -91 836 529 
Q 422 1150 422 2328 
Q 422 3509 836 4129 
Q 1250 4750 2034 4750 
z
" transform="scale(0.015625)"/>
       </defs>
       <use xlink:href="#DejaVuSans-31"/>
       <use xlink:href="#DejaVuSans-30" transform="translate(63.623047 0)"/>
      </g>
     </g>
    </g>
    <g id="xtick_11">
     <g id="line2d_11">
      <g>
       <use xlink:href="#m92083f4452" x="412.041949" y="479.2755" style="stroke: #000000; stroke-width: 0.8"/>
      </g>
     </g>
     <g id="text_11">
      <!-- 11 -->
      <g transform="translate(405.679449 493.873938) scale(0.1 -0.1)">
       <use xlink:href="#DejaVuSans-31"/>
       <use xlink:href="#DejaVuSans-31" transform="translate(63.623047 0)"/>
      </g>
     </g>
    </g>
    <g id="xtick_12">
     <g id="line2d_12">
      <g>
       <use xlink:href="#m92083f4452" x="444.865478" y="479.2755" style="stroke: #000000; stroke-width: 0.8"/>
      </g>
     </g>
     <g id="text_12">
      <!-- 12 -->
      <g transform="translate(438.502978 493.873938) scale(0.1 -0.1)">
       <use xlink:href="#DejaVuSans-31"/>
       <use xlink:href="#DejaVuSans-32" transform="translate(63.623047 0)"/>
      </g>
     </g>
    </g>
    <g id="xtick_13">
     <g id="line2d_13">
      <g>
       <use xlink:href="#m92083f4452" x="477.689007" y="479.2755" style="stroke: #000000; stroke-width: 0.8"/>
      </g>
     </g>
     <g id="text_13">
      <!-- 13 -->
      <g transform="translate(471.326507 493.873938) scale(0.1 -0.1)">
       <use xlink:href="#DejaVuSans-31"/>
       <use xlink:href="#DejaVuSans-33" transform="translate(63.623047 0)"/>
      </g>
     </g>
    </g>
    <g id="xtick_14">
     <g id="line2d_14">
      <g>
       <use xlink:href="#m92083f4452" x="510.512537" y="479.2755" style="stroke: #000000; stroke-width: 0.8"/>
      </g>
     </g>
     <g id="text_14">
      <!-- 14 -->
      <g transform="translate(504.150037 493.873938) scale(0.1 -0.1)">
       <use xlink:href="#DejaVuSans-31"/>
       <use xlink:href="#DejaVuSans-34" transform="translate(63.623047 0)"/>
      </g>
     </g>
    </g>
    <g id="xtick_15">
     <g id="line2d_15">
      <g>
       <use xlink:href="#m92083f4452" x="543.336066" y="479.2755" style="stroke: #000000; stroke-width: 0.8"/>
      </g>
     </g>
     <g id="text_15">
      <!-- 15 -->
      <g transform="translate(536.973566 493.873938) scale(0.1 -0.1)">
       <use xlink:href="#DejaVuSans-31"/>
       <use xlink:href="#DejaVuSans-35" transform="translate(63.623047 0)"/>
      </g>
     </g>
    </g>
    <g id="xtick_16">
     <g id="line2d_16">
      <g>
       <use xlink:href="#m92083f4452" x="576.159596" y="479.2755" style="stroke: #000000; stroke-width: 0.8"/>
      </g>
     </g>
     <g id="text_16">
      <!-- 16 -->
      <g transform="translate(569.797096 493.873938) scale(0.1 -0.1)">
       <use xlink:href="#DejaVuSans-31"/>
       <use xlink:href="#DejaVuSans-36" transform="translate(63.623047 0)"/>
      </g>
     </g>
    </g>
    <g id="text_17">
     <!-- table bits -->
     <g transform="translate(306.601875 507.552063) scale(0.1 -0.1)">
      <defs>
       <path id="DejaVuSans-74" d="M 1172 4494 
L 1172 3500 
L 2356 3500 
L 2356 3053 
L 1172 3053 
L 1172 1153 
Q 1172 725 1289 603 
Q 1406 481 1766 481 
L 2356 481 
L 2356 0 
L 1766 0 
Q 1100 0 847 248 
Q 594 497 594 1153 
L 594 3053 
L 172 3053 
L 172 3500 
L 594 3500 
L 594 4494 
L 1172 4494 
z
" transform="scale(0.015625)"/>
       <path id="DejaVuSans-61" d="M 2194 1759 
Q 1497 1759 1228 1600 
Q 959 1441 959 1056 
Q 959 750 1161 570 
Q 1363 391 1709 391 
Q 2188 391 2477 730 
Q 2766 1069 2766 1631 
L 2766 1759 
L 2194 1759 
z
M 3341 1997 
L 3341 0 
L 2766 0 
L 2766 531 
Q 2569 213 2275 61 
Q 1981 -91 1556 -91 
Q 1019 -91 701 211 
Q 384 513 384 1019 
Q 384 1609 779 1909 
Q 1175 2209 1959 2209 
L 2766 2209 
L 2766 2266 
Q 2766 2663 2505 2880 
Q 2244 3097 1772 3097 
Q 1472 3097 1187 3025 
Q 903 2953 641 2809 
L 641 3341 
Q 956 3463 1253 3523 
Q 1550 3584 1831 3584 
Q 2591 3584 2966 3190 
Q 3341 2797 3341 1997 
z
" transform="scale(0.015625)"/>
       <path id="DejaVuSans-62" d="M 3116 1747 
Q 3116 2381 2855 2742 
Q 2594 3103 2138 3103 
Q 1681 3103 1420 2742 
Q 1159 2381 1159 1747 
Q 1159 1113 1420 752 
Q 1681 391 2138 391 
Q 2594 391 2855 752 
Q 3116 1113 3116 1747 
z
M 1159 2969 
Q 1341 3281 1617 3432 
Q 1894 3584 2278 3584 
Q 2916 3584 3314 3078 
Q 3713 2572 3713 1747 
Q 3713 922 3314 415 
Q 2916 -91 2278 -91 
Q 1894 -91 1617 61 
Q 1341 213 1159 525 
L 1159 0 
L 581 0 
L 581 4863 
L 1159 4863 
L 1159 2969 
z
" transform="scale(0.015625)"/>
       <path id="DejaVuSans-6c" d="M 603 4863 
L 1178 4863 
L 1178 0 
L 603 0 
L 603 4863 
z
" transform="scale(0.015625)"/>
       <path id="DejaVuSans-65" d="M 3597 1894 
L 3597 1613 
L 953 1613 
Q 991 1019 1311 708 
Q 1631 397 2203 397 
Q 2534 397 2845 478 
Q 3156 559 3463 722 
L 3463 178 
Q 3153 47 2828 -22 
Q 2503 -91 2169 -91 
Q 1331 -91 842 396 
Q 353 884 353 1716 
Q 353 2575 817 3079 
Q 1281 3584 2069 3584 
Q 2775 3584 3186 3129 
Q 3597 2675 3597 1894 
z
M 3022 2063 
Q 3016 2534 2758 2815 
Q 2500 3097 2075 3097 
Q 1594 3097 1305 2825 
Q 1016 2553 972 2059 
L 3022 2063 
z
" transform="scale(0.015625)"/>
       <path id="DejaVuSans-20" transform="scale(0.015625)"/>
       <path id="DejaVuSans-69" d="M 603 3500 
L 1178 3500 
L 1178 0 
L 603 0 
L 603 3500 
z
M 603 4863 
L 1178 4863 
L 1178 4134 
L 603 4134 
L 603 4863 
z
" transform="scale(0.015625)"/>
       <path id="DejaVuSans-73" d="M 2834 3397 
L 2834 2853 
Q 2591 2978 2328 3040 
Q 2066 3103 1784 3103 
Q 1356 3103 1142 2972 
Q 928 2841 928 2578 
Q 928 2378 1081 2264 
Q 1234 2150 1697 2047 
L 1894 2003 
Q 2506 1872 2764 1633 
Q 3022 1394 3022 966 
Q 3022 478 2636 193 
Q 2250 -91 1575 -91 
Q 1294 -91 989 -36 
Q 684 19 347 128 
L 347 722 
Q 666 556 975 473 
Q 1284 391 1588 391 
Q 1994 391 2212 530 
Q 2431 669 2431 922 
Q 2431 1156 2273 1281 
Q 2116 1406 1581 1522 
L 1381 1569 
Q 847 1681 609 1914 
Q 372 2147 372 2553 
Q 372 3047 722 3315 
Q 1072 3584 1716 3584 
Q 2034 3584 2315 3537 
Q 2597 3491 2834 3397 
z
" transform="scale(0.015625)"/>
      </defs>
      <use xlink:href="#DejaVuSans-74"/>
      <use xlink:href="#DejaVuSans-61" transform="translate(39.208984 0)"/>
      <use xlink:href="#DejaVuSans-62" transform="translate(100.488281 0)"/>
      <use xlink:href="#DejaVuSans-6c" transform="translate(163.964844 0)"/>
      <use xlink:href="#DejaVuSans-65" transform="translate(191.748047 0)"/>
      <use xlink:href="#DejaVuSans-20" transform="translate(253.271484 0)"/>
      <use xlink:href="#DejaVuSans-62" transform="translate(285.058594 0)"/>
      <use xlink:href="#DejaVuSans-69" transform="translate(348.535156 0)"/>
      <use xlink:href="#DejaVuSans-74" transform="translate(376.318359 0)"/>
      <use xlink:href="#DejaVuSans-73" transform="translate(415.527344 0)"/>
     </g>
    </g>
   </g>
   <g id="matplotlib.axis_2">
    <g id="ytick_1">
     <g id="line2d_17">
      <defs>
       <path id="mee4831c4df" d="M 0 0 
L -3.5 0 
" style="stroke: #000000; stroke-width: 0.8"/>
      </defs>
      <g>
       <use xlink:href="#mee4831c4df" x="50.983125" y="479.2755" style="stroke: #000000; stroke-width: 0.8"/>
      </g>
     </g>
     <g id="text_18">
      <!-- 0 -->
      <g transform="translate(37.620625 483.074719) scale(0.1 -0.1)">
       <use xlink:href="#DejaVuSans-30"/>
      </g>
     </g>
    </g>
    <g id="ytick_2">
     <g id="line2d_18">
      <g>
       <use xlink:href="#mee4831c4df" x="50.983125" y="395.60294" style="stroke: #000000; stroke-width: 0.8"/>
      </g>
     </g>
     <g id="text_19">
      <!-- 2 -->
      <g transform="translate(37.620625 399.402159) scale(0.1 -0.1)">
       <use xlink:href="#DejaVuSans-32"/>
      </g>
     </g>
    </g>
    <g id="ytick_3">
     <g id="line2d_19">
      <g>
       <use xlink:href="#mee4831c4df" x="50.983125" y="311.93038" style="stroke: #000000; stroke-width: 0.8"/>
      </g>
     </g>
     <g id="text_20">
      <!-- 4 -->
      <g transform="translate(37.620625 315.729599) scale(0.1 -0.1)">
       <use xlink:href="#DejaVuSans-34"/>
      </g>
     </g>
    </g>
    <g id="ytick_4">
     <g id="line2d_20">
      <g>
       <use xlink:href="#mee4831c4df" x="50.983125" y="228.257821" style="stroke: #000000; stroke-width: 0.8"/>
      </g>
     </g>
     <g id="text_21">
      <!-- 6 -->
      <g transform="translate(37.620625 232.057039) scale(0.1 -0.1)">
       <use xlink:href="#DejaVuSans-36"/>
      </g>
     </g>
    </g>
    <g id="ytick_5">
     <g id="line2d_21">
      <g>
       <use xlink:href="#mee4831c4df" x="50.983125" y="144.585261" style="stroke: #000000; stroke-width: 0.8"/>
      </g>
     </g>
     <g id="text_22">
      <!-- 8 -->
      <g transform="translate(37.620625 148.38448) scale(0.1 -0.1)">
       <use xlink:href="#DejaVuSans-38"/>
      </g>
     </g>
    </g>
    <g id="ytick_6">
     <g id="line2d_22">
      <g>
       <use xlink:href="#mee4831c4df" x="50.983125" y="60.912701" style="stroke: #000000; stroke-width: 0.8"/>
      </g>
     </g>
     <g id="text_23">
      <!-- 10 -->
      <g transform="translate(31.258125 64.71192) scale(0.1 -0.1)">
       <use xlink:href="#DejaVuSans-31"/>
       <use xlink:href="#DejaVuSans-30" transform="translate(63.623047 0)"/>
      </g>
     </g>
    </g>
    <g id="text_24">
     <!-- ns -->
     <g transform="translate(25.178437 263.288938) rotate(-90) scale(0.1 -0.1)">
      <defs>
       <path id="DejaVuSans-6e" d="M 3513 2113 
L 3513 0 
L 2938 0 
L 2938 2094 
Q 2938 2591 2744 2837 
Q 2550 3084 2163 3084 
Q 1697 3084 1428 2787 
Q 1159 2491 1159 1978 
L 1159 0 
L 581 0 
L 581 3500 
L 1159 3500 
L 1159 2956 
Q 1366 3272 1645 3428 
Q 1925 3584 2291 3584 
Q 2894 3584 3203 3211 
Q 3513 2838 3513 2113 
z
" transform="scale(0.015625)"/>
      </defs>
      <use xlink:href="#DejaVuSans-6e"/>
      <use xlink:href="#DejaVuSans-73" transform="translate(63.378906 0)"/>
     </g>
    </g>
   </g>
   <g id="line2d_23">
    <path d="M 50.983125 274.77558 
L 608.983125 274.77558 
" clip-path="url(#p80a07c809a)" style="fill: none; stroke: #000000; stroke-width: 1.5; stroke-linecap: square"/>
   </g>
   <g id="line2d_24">
    <path d="M 50.983125 279.879606 
L 608.983125 279.879606 
" clip-path="url(#p80a07c809a)" style="fill: none; stroke: #cc00cc; stroke-width: 1.5; stroke-linecap: square"/>
   </g>
   <g id="line2d_25">
    <path d="M 18.159596 437.43922 
L 641.806654 437.43922 
" clip-path="url(#p80a07c809a)" style="fill: none; stroke-dasharray: 5.55,2.4; stroke-dashoffset: 0; stroke: #808080; stroke-opacity: 0.3; stroke-width: 1.5"/>
   </g>
   <g id="line2d_26">
    <path d="M 83.806654 199.160688 
L 116.630184 242.741541 
L 149.453713 286.41025 
L 182.277243 298.685014 
L 215.100772 310.089584 
L 247.924301 322.899853 
L 280.747831 335.321044 
L 313.57136 338.362542 
L 346.39489 341.044248 
L 379.218419 343.35361 
L 412.041949 345.780114 
L 444.865478 346.938979 
L 477.689007 349.783846 
L 510.512537 351.335972 
L 543.336066 352.28984 
L 576.159596 351.628826 
" clip-path="url(#p80a07c809a)" style="fill: none; stroke: #1f77b4; stroke-width: 1.5; stroke-linecap: square"/>
    <defs>
     <path id="m7ae2d4e5fa" d="M 0 3 
C 0.795609 3 1.55874 2.683901 2.12132 2.12132 
C 2.683901 1.55874 3 0.795609 3 0 
C 3 -0.795609 2.683901 -1.55874 2.12132 -2.12132 
C 1.55874 -2.683901 0.795609 -3 0 -3 
C -0.795609 -3 -1.55874 -2.683901 -2.12132 -2.12132 
C -2.683901 -1.55874 -3 -0.795609 -3 0 
C -3 0.795609 -2.683901 1.55874 -2.12132 2.12132 
C -1.55874 2.683901 -0.795609 3 0 3 
z
" style="stroke: #1f77b4"/>
    </defs>
    <g clip-path="url(#p80a07c809a)">
     <use xlink:href="#m7ae2d4e5fa" x="83.806654" y="199.160688" style="fill: #1f77b4; stroke: #1f77b4"/>
     <use xlink:href="#m7ae2d4e5fa" x="116.630184" y="242.741541" style="fill: #1f77b4; stroke: #1f77b4"/>
     <use xlink:href="#m7ae2d4e5fa" x="149.453713" y="286.41025" style="fill: #1f77b4; stroke: #1f77b4"/>
     <use xlink:href="#m7ae2d4e5fa" x="182.277243" y="298.685014" style="fill: #1f77b4; stroke: #1f77b4"/>
     <use xlink:href="#m7ae2d4e5fa" x="215.100772" y="310.089584" style="fill: #1f77b4; stroke: #1f77b4"/>
     <use xlink:href="#m7ae2d4e5fa" x="247.924301" y="322.899853" style="fill: #1f77b4; stroke: #1f77b4"/>
     <use xlink:href="#m7ae2d4e5fa" x="280.747831" y="335.321044" style="fill: #1f77b4; stroke: #1f77b4"/>
     <use xlink:href="#m7ae2d4e5fa" x="313.57136" y="338.362542" style="fill: #1f77b4; stroke: #1f77b4"/>
     <use xlink:href="#m7ae2d4e5fa" x="346.39489" y="341.044248" style="fill: #1f77b4; stroke: #1f77b4"/>
     <use xlink:href="#m7ae2d4e5fa" x="379.218419" y="343.35361" style="fill: #1f77b4; stroke: #1f77b4"/>
     <use xlink:href="#m7ae2d4e5fa" x="412.041949" y="345.780114" style="fill: #1f77b4; stroke: #1f77b4"/>
     <use xlink:href="#m7ae2d4e5fa" x="444.865478" y="346.938979" style="fill: #1f77b4; stroke: #1f77b4"/>
     <use xlink:href="#m7ae2d4e5fa" x="477.689007" y="349.783846" style="fill: #1f77b4; stroke: #1f77b4"/>
     <use xlink:href="#m7ae2d4e5fa" x="510.512537" y="351.335972" style="fill: #1f77b4; stroke: #1f77b4"/>
     <use xlink:href="#m7ae2d4e5fa" x="543.336066" y="352.28984" style="fill: #1f77b4; stroke: #1f77b4"/>
     <use xlink:href="#m7ae2d4e5fa" x="576.159596" y="351.628826" style="fill: #1f77b4; stroke: #1f77b4"/>
    </g>
   </g>
   <g id="line2d_27">
    <path d="M 83.806654 215.221636 
L 116.630184 258.258617 
L 149.453713 297.06595 
L 182.277243 308.37848 
L 215.100772 318.946325 
L 247.924301 330.51824 
L 280.747831 342.671679 
L 313.57136 345.027061 
L 346.39489 347.901214 
L 379.218419 350.256596 
L 412.041949 352.277289 
L 444.865478 354.595019 
L 477.689007 356.205715 
L 510.512537 357.506824 
L 543.336066 358.410487 
L 576.159596 357.707638 
" clip-path="url(#p80a07c809a)" style="fill: none; stroke: #ff7f0e; stroke-width: 1.5; stroke-linecap: square"/>
    <defs>
     <path id="m5ef0712057" d="M 0 3 
C 0.795609 3 1.55874 2.683901 2.12132 2.12132 
C 2.683901 1.55874 3 0.795609 3 0 
C 3 -0.795609 2.683901 -1.55874 2.12132 -2.12132 
C 1.55874 -2.683901 0.795609 -3 0 -3 
C -0.795609 -3 -1.55874 -2.683901 -2.12132 -2.12132 
C -2.683901 -1.55874 -3 -0.795609 -3 0 
C -3 0.795609 -2.683901 1.55874 -2.12132 2.12132 
C -1.55874 2.683901 -0.795609 3 0 3 
z
" style="stroke: #ff7f0e"/>
    </defs>
    <g clip-path="url(#p80a07c809a)">
     <use xlink:href="#m5ef0712057" x="83.806654" y="215.221636" style="fill: #ff7f0e; stroke: #ff7f0e"/>
     <use xlink:href="#m5ef0712057" x="116.630184" y="258.258617" style="fill: #ff7f0e; stroke: #ff7f0e"/>
     <use xlink:href="#m5ef0712057" x="149.453713" y="297.06595" style="fill: #ff7f0e; stroke: #ff7f0e"/>
     <use xlink:href="#m5ef0712057" x="182.277243" y="308.37848" style="fill: #ff7f0e; stroke: #ff7f0e"/>
     <use xlink:href="#m5ef0712057" x="215.100772" y="318.946325" style="fill: #ff7f0e; stroke: #ff7f0e"/>
     <use xlink:href="#m5ef0712057" x="247.924301" y="330.51824" style="fill: #ff7f0e; stroke: #ff7f0e"/>
     <use xlink:href="#m5ef0712057" x="280.747831" y="342.671679" style="fill: #ff7f0e; stroke: #ff7f0e"/>
     <use xlink:href="#m5ef0712057" x="313.57136" y="345.027061" style="fill: #ff7f0e; stroke: #ff7f0e"/>
     <use xlink:href="#m5ef0712057" x="346.39489" y="347.901214" style="fill: #ff7f0e; stroke: #ff7f0e"/>
     <use xlink:href="#m5ef0712057" x="379.218419" y="350.256596" style="fill: #ff7f0e; stroke: #ff7f0e"/>
     <use xlink:href="#m5ef0712057" x="412.041949" y="352.277289" style="fill: #ff7f0e; stroke: #ff7f0e"/>
     <use xlink:href="#m5ef0712057" x="444.865478" y="354.595019" style="fill: #ff7f0e; stroke: #ff7f0e"/>
     <use xlink:href="#m5ef0712057" x="477.689007" y="356.205715" style="fill: #ff7f0e; stroke: #ff7f0e"/>
     <use xlink:href="#m5ef0712057" x="510.512537" y="357.506824" style="fill: #ff7f0e; stroke: #ff7f0e"/>
     <use xlink:href="#m5ef0712057" x="543.336066" y="358.410487" style="fill: #ff7f0e; stroke: #ff7f0e"/>
     <use xlink:href="#m5ef0712057" x="576.159596" y="357.707638" style="fill: #ff7f0e; stroke: #ff7f0e"/>
    </g>
   </g>
   <g id="line2d_28">
    <path d="M 83.806654 199.917925 
L 116.630184 242.887968 
L 149.453713 283.331099 
L 182.277243 294.380061 
L 215.100772 307.177779 
L 247.924301 318.824999 
L 280.747831 332.781582 
L 313.57136 335.509308 
L 346.39489 338.433664 
L 379.218419 341.019146 
L 412.041949 342.939431 
L 444.865478 345.457975 
L 477.689007 347.047754 
L 510.512537 348.424167 
L 543.336066 349.808948 
L 576.159596 349.516094 
" clip-path="url(#p80a07c809a)" style="fill: none; stroke: #2ca02c; stroke-width: 1.5; stroke-linecap: square"/>
    <defs>
     <path id="madb56d1995" d="M -3 3 
L 3 3 
L 3 -3 
L -3 -3 
z
" style="stroke: #2ca02c; stroke-linejoin: miter"/>
    </defs>
    <g clip-path="url(#p80a07c809a)">
     <use xlink:href="#madb56d1995" x="83.806654" y="199.917925" style="fill: #2ca02c; stroke: #2ca02c; stroke-linejoin: miter"/>
     <use xlink:href="#madb56d1995" x="116.630184" y="242.887968" style="fill: #2ca02c; stroke: #2ca02c; stroke-linejoin: miter"/>
     <use xlink:href="#madb56d1995" x="149.453713" y="283.331099" style="fill: #2ca02c; stroke: #2ca02c; stroke-linejoin: miter"/>
     <use xlink:href="#madb56d1995" x="182.277243" y="294.380061" style="fill: #2ca02c; stroke: #2ca02c; stroke-linejoin: miter"/>
     <use xlink:href="#madb56d1995" x="215.100772" y="307.177779" style="fill: #2ca02c; stroke: #2ca02c; stroke-linejoin: miter"/>
     <use xlink:href="#madb56d1995" x="247.924301" y="318.824999" style="fill: #2ca02c; stroke: #2ca02c; stroke-linejoin: miter"/>
     <use xlink:href="#madb56d1995" x="280.747831" y="332.781582" style="fill: #2ca02c; stroke: #2ca02c; stroke-linejoin: miter"/>
     <use xlink:href="#madb56d1995" x="313.57136" y="335.509308" style="fill: #2ca02c; stroke: #2ca02c; stroke-linejoin: miter"/>
     <use xlink:href="#madb56d1995" x="346.39489" y="338.433664" style="fill: #2ca02c; stroke: #2ca02c; stroke-linejoin: miter"/>
     <use xlink:href="#madb56d1995" x="379.218419" y="341.019146" style="fill: #2ca02c; stroke: #2ca02c; stroke-linejoin: miter"/>
     <use xlink:href="#madb56d1995" x="412.041949" y="342.939431" style="fill: #2ca02c; stroke: #2ca02c; stroke-linejoin: miter"/>
     <use xlink:href="#madb56d1995" x="444.865478" y="345.457975" style="fill: #2ca02c; stroke: #2ca02c; stroke-linejoin: miter"/>
     <use xlink:href="#madb56d1995" x="477.689007" y="347.047754" style="fill: #2ca02c; stroke: #2ca02c; stroke-linejoin: miter"/>
     <use xlink:href="#madb56d1995" x="510.512537" y="348.424167" style="fill: #2ca02c; stroke: #2ca02c; stroke-linejoin: miter"/>
     <use xlink:href="#madb56d1995" x="543.336066" y="349.808948" style="fill: #2ca02c; stroke: #2ca02c; stroke-linejoin: miter"/>
     <use xlink:href="#madb56d1995" x="576.159596" y="349.516094" style="fill: #2ca02c; stroke: #2ca02c; stroke-linejoin: miter"/>
    </g>
   </g>
   <g id="line2d_29">
    <path d="M 83.806654 214.451848 
L 116.630184 253.606423 
L 149.453713 293.819455 
L 182.277243 305.613102 
L 215.100772 316.561657 
L 247.924301 328.225611 
L 280.747831 341.023329 
L 313.57136 343.700851 
L 346.39489 346.595922 
L 379.218419 348.503656 
L 412.041949 350.96363 
L 444.865478 353.582581 
L 477.689007 355.067769 
L 510.512537 356.548773 
L 543.336066 357.757841 
L 576.159596 357.151215 
" clip-path="url(#p80a07c809a)" style="fill: none; stroke: #d62728; stroke-width: 1.5; stroke-linecap: square"/>
    <defs>
     <path id="m89dfabfe92" d="M -3 3 
L 3 3 
L 3 -3 
L -3 -3 
z
" style="stroke: #d62728; stroke-linejoin: miter"/>
    </defs>
    <g clip-path="url(#p80a07c809a)">
     <use xlink:href="#m89dfabfe92" x="83.806654" y="214.451848" style="fill: #d62728; stroke: #d62728; stroke-linejoin: miter"/>
     <use xlink:href="#m89dfabfe92" x="116.630184" y="253.606423" style="fill: #d62728; stroke: #d62728; stroke-linejoin: miter"/>
     <use xlink:href="#m89dfabfe92" x="149.453713" y="293.819455" style="fill: #d62728; stroke: #d62728; stroke-linejoin: miter"/>
     <use xlink:href="#m89dfabfe92" x="182.277243" y="305.613102" style="fill: #d62728; stroke: #d62728; stroke-linejoin: miter"/>
     <use xlink:href="#m89dfabfe92" x="215.100772" y="316.561657" style="fill: #d62728; stroke: #d62728; stroke-linejoin: miter"/>
     <use xlink:href="#m89dfabfe92" x="247.924301" y="328.225611" style="fill: #d62728; stroke: #d62728; stroke-linejoin: miter"/>
     <use xlink:href="#m89dfabfe92" x="280.747831" y="341.023329" style="fill: #d62728; stroke: #d62728; stroke-linejoin: miter"/>
     <use xlink:href="#m89dfabfe92" x="313.57136" y="343.700851" style="fill: #d62728; stroke: #d62728; stroke-linejoin: miter"/>
     <use xlink:href="#m89dfabfe92" x="346.39489" y="346.595922" style="fill: #d62728; stroke: #d62728; stroke-linejoin: miter"/>
     <use xlink:href="#m89dfabfe92" x="379.218419" y="348.503656" style="fill: #d62728; stroke: #d62728; stroke-linejoin: miter"/>
     <use xlink:href="#m89dfabfe92" x="412.041949" y="350.96363" style="fill: #d62728; stroke: #d62728; stroke-linejoin: miter"/>
     <use xlink:href="#m89dfabfe92" x="444.865478" y="353.582581" style="fill: #d62728; stroke: #d62728; stroke-linejoin: miter"/>
     <use xlink:href="#m89dfabfe92" x="477.689007" y="355.067769" style="fill: #d62728; stroke: #d62728; stroke-linejoin: miter"/>
     <use xlink:href="#m89dfabfe92" x="510.512537" y="356.548773" style="fill: #d62728; stroke: #d62728; stroke-linejoin: miter"/>
     <use xlink:href="#m89dfabfe92" x="543.336066" y="357.757841" style="fill: #d62728; stroke: #d62728; stroke-linejoin: miter"/>
     <use xlink:href="#m89dfabfe92" x="576.159596" y="357.151215" style="fill: #d62728; stroke: #d62728; stroke-linejoin: miter"/>
    </g>
   </g>
   <g id="patch_21">
    <path d="M 50.983125 479.2755 
L 50.983125 35.7555 
" style="fill: none; stroke: #000000; stroke-width: 0.8; stroke-linejoin: miter; stroke-linecap: square"/>
   </g>
   <g id="patch_22">
    <path d="M 608.983125 479.2755 
L 608.983125 35.7555 
" style="fill: none; stroke: #000000; stroke-width: 0.8; stroke-linejoin: miter; stroke-linecap: square"/>
   </g>
   <g id="patch_23">
    <path d="M 50.983125 479.2755 
L 608.983125 479.2755 
" style="fill: none; stroke: #000000; stroke-width: 0.8; stroke-linejoin: miter; stroke-linecap: square"/>
   </g>
   <g id="patch_24">
    <path d="M 50.983125 35.7555 
L 608.983125 35.7555 
" style="fill: none; stroke: #000000; stroke-width: 0.8; stroke-linejoin: miter; stroke-linecap: square"/>
   </g>
   <g id="text_25">
    <!-- 57.14% -->
    <g transform="translate(86.566029 429.071964) rotate(-90) scale(0.1 -0.1)">
     <defs>
      <path id="DejaVuSans-2e" d="M 684 794 
L 1344 794 
L 1344 0 
L 684 0 
L 684 794 
z
" transform="scale(0.015625)"/>
      <path id="DejaVuSans-25" d="M 4653 2053 
Q 4381 2053 4226 1822 
Q 4072 1591 4072 1178 
Q 4072 772 4226 539 
Q 4381 306 4653 306 
Q 4919 306 5073 539 
Q 5228 772 5228 1178 
Q 5228 1588 5073 1820 
Q 4919 2053 4653 2053 
z
M 4653 2450 
Q 5147 2450 5437 2106 
Q 5728 1763 5728 1178 
Q 5728 594 5436 251 
Q 5144 -91 4653 -91 
Q 4153 -91 3862 251 
Q 3572 594 3572 1178 
Q 3572 1766 3864 2108 
Q 4156 2450 4653 2450 
z
M 1428 4353 
Q 1159 4353 1004 4120 
Q 850 3888 850 3481 
Q 850 3069 1003 2837 
Q 1156 2606 1428 2606 
Q 1700 2606 1854 2837 
Q 2009 3069 2009 3481 
Q 2009 3884 1853 4118 
Q 1697 4353 1428 4353 
z
M 4250 4750 
L 4750 4750 
L 1831 -91 
L 1331 -91 
L 4250 4750 
z
M 1428 4750 
Q 1922 4750 2215 4408 
Q 2509 4066 2509 3481 
Q 2509 2891 2217 2550 
Q 1925 2209 1428 2209 
Q 931 2209 642 2551 
Q 353 2894 353 3481 
Q 353 4063 643 4406 
Q 934 4750 1428 4750 
z
" transform="scale(0.015625)"/>
     </defs>
     <use xlink:href="#DejaVuSans-35"/>
     <use xlink:href="#DejaVuSans-37" transform="translate(63.623047 0)"/>
     <use xlink:href="#DejaVuSans-2e" transform="translate(127.246094 0)"/>
     <use xlink:href="#DejaVuSans-31" transform="translate(159.033203 0)"/>
     <use xlink:href="#DejaVuSans-34" transform="translate(222.65625 0)"/>
     <use xlink:href="#DejaVuSans-25" transform="translate(286.279297 0)"/>
    </g>
   </g>
   <g id="text_26">
    <!-- 66.66% -->
    <g transform="translate(119.389559 429.071964) rotate(-90) scale(0.1 -0.1)">
     <use xlink:href="#DejaVuSans-36"/>
     <use xlink:href="#DejaVuSans-36" transform="translate(63.623047 0)"/>
     <use xlink:href="#DejaVuSans-2e" transform="translate(127.246094 0)"/>
     <use xlink:href="#DejaVuSans-36" transform="translate(159.033203 0)"/>
     <use xlink:href="#DejaVuSans-36" transform="translate(222.65625 0)"/>
     <use xlink:href="#DejaVuSans-25" transform="translate(286.279297 0)"/>
    </g>
   </g>
   <g id="text_27">
    <!-- 76.58% -->
    <g transform="translate(152.213088 429.071964) rotate(-90) scale(0.1 -0.1)">
     <use xlink:href="#DejaVuSans-37"/>
     <use xlink:href="#DejaVuSans-36" transform="translate(63.623047 0)"/>
     <use xlink:href="#DejaVuSans-2e" transform="translate(127.246094 0)"/>
     <use xlink:href="#DejaVuSans-35" transform="translate(159.033203 0)"/>
     <use xlink:href="#DejaVuSans-38" transform="translate(222.65625 0)"/>
     <use xlink:href="#DejaVuSans-25" transform="translate(286.279297 0)"/>
    </g>
   </g>
   <g id="text_28">
    <!-- 79.55% -->
    <g transform="translate(185.036618 429.071964) rotate(-90) scale(0.1 -0.1)">
     <use xlink:href="#DejaVuSans-37"/>
     <use xlink:href="#DejaVuSans-39" transform="translate(63.623047 0)"/>
     <use xlink:href="#DejaVuSans-2e" transform="translate(127.246094 0)"/>
     <use xlink:href="#DejaVuSans-35" transform="translate(159.033203 0)"/>
     <use xlink:href="#DejaVuSans-35" transform="translate(222.65625 0)"/>
     <use xlink:href="#DejaVuSans-25" transform="translate(286.279297 0)"/>
    </g>
   </g>
   <g id="text_29">
    <!-- 82.64% -->
    <g transform="translate(217.860147 429.071964) rotate(-90) scale(0.1 -0.1)">
     <use xlink:href="#DejaVuSans-38"/>
     <use xlink:href="#DejaVuSans-32" transform="translate(63.623047 0)"/>
     <use xlink:href="#DejaVuSans-2e" transform="translate(127.246094 0)"/>
     <use xlink:href="#DejaVuSans-36" transform="translate(159.033203 0)"/>
     <use xlink:href="#DejaVuSans-34" transform="translate(222.65625 0)"/>
     <use xlink:href="#DejaVuSans-25" transform="translate(286.279297 0)"/>
    </g>
   </g>
   <g id="text_30">
    <!-- 85.74% -->
    <g transform="translate(250.683676 429.071964) rotate(-90) scale(0.1 -0.1)">
     <use xlink:href="#DejaVuSans-38"/>
     <use xlink:href="#DejaVuSans-35" transform="translate(63.623047 0)"/>
     <use xlink:href="#DejaVuSans-2e" transform="translate(127.246094 0)"/>
     <use xlink:href="#DejaVuSans-37" transform="translate(159.033203 0)"/>
     <use xlink:href="#DejaVuSans-34" transform="translate(222.65625 0)"/>
     <use xlink:href="#DejaVuSans-25" transform="translate(286.279297 0)"/>
    </g>
   </g>
   <g id="text_31">
    <!-- 88.87% -->
    <g transform="translate(283.507206 429.071964) rotate(-90) scale(0.1 -0.1)">
     <use xlink:href="#DejaVuSans-38"/>
     <use xlink:href="#DejaVuSans-38" transform="translate(63.623047 0)"/>
     <use xlink:href="#DejaVuSans-2e" transform="translate(127.246094 0)"/>
     <use xlink:href="#DejaVuSans-38" transform="translate(159.033203 0)"/>
     <use xlink:href="#DejaVuSans-37" transform="translate(222.65625 0)"/>
     <use xlink:href="#DejaVuSans-25" transform="translate(286.279297 0)"/>
    </g>
   </g>
   <g id="text_32">
    <!-- 89.66% -->
    <g transform="translate(316.330735 429.071964) rotate(-90) scale(0.1 -0.1)">
     <use xlink:href="#DejaVuSans-38"/>
     <use xlink:href="#DejaVuSans-39" transform="translate(63.623047 0)"/>
     <use xlink:href="#DejaVuSans-2e" transform="translate(127.246094 0)"/>
     <use xlink:href="#DejaVuSans-36" transform="translate(159.033203 0)"/>
     <use xlink:href="#DejaVuSans-36" transform="translate(222.65625 0)"/>
     <use xlink:href="#DejaVuSans-25" transform="translate(286.279297 0)"/>
    </g>
   </g>
   <g id="text_33">
    <!-- 90.45% -->
    <g transform="translate(349.154265 429.071964) rotate(-90) scale(0.1 -0.1)">
     <use xlink:href="#DejaVuSans-39"/>
     <use xlink:href="#DejaVuSans-30" transform="translate(63.623047 0)"/>
     <use xlink:href="#DejaVuSans-2e" transform="translate(127.246094 0)"/>
     <use xlink:href="#DejaVuSans-34" transform="translate(159.033203 0)"/>
     <use xlink:href="#DejaVuSans-35" transform="translate(222.65625 0)"/>
     <use xlink:href="#DejaVuSans-25" transform="translate(286.279297 0)"/>
    </g>
   </g>
   <g id="text_34">
    <!-- 91.26% -->
    <g transform="translate(381.977794 429.071964) rotate(-90) scale(0.1 -0.1)">
     <use xlink:href="#DejaVuSans-39"/>
     <use xlink:href="#DejaVuSans-31" transform="translate(63.623047 0)"/>
     <use xlink:href="#DejaVuSans-2e" transform="translate(127.246094 0)"/>
     <use xlink:href="#DejaVuSans-32" transform="translate(159.033203 0)"/>
     <use xlink:href="#DejaVuSans-36" transform="translate(222.65625 0)"/>
     <use xlink:href="#DejaVuSans-25" transform="translate(286.279297 0)"/>
    </g>
   </g>
   <g id="text_35">
    <!-- 92.04% -->
    <g transform="translate(414.801324 429.071964) rotate(-90) scale(0.1 -0.1)">
     <use xlink:href="#DejaVuSans-39"/>
     <use xlink:href="#DejaVuSans-32" transform="translate(63.623047 0)"/>
     <use xlink:href="#DejaVuSans-2e" transform="translate(127.246094 0)"/>
     <use xlink:href="#DejaVuSans-30" transform="translate(159.033203 0)"/>
     <use xlink:href="#DejaVuSans-34" transform="translate(222.65625 0)"/>
     <use xlink:href="#DejaVuSans-25" transform="translate(286.279297 0)"/>
    </g>
   </g>
   <g id="text_36">
    <!-- 92.83% -->
    <g transform="translate(447.624853 429.071964) rotate(-90) scale(0.1 -0.1)">
     <use xlink:href="#DejaVuSans-39"/>
     <use xlink:href="#DejaVuSans-32" transform="translate(63.623047 0)"/>
     <use xlink:href="#DejaVuSans-2e" transform="translate(127.246094 0)"/>
     <use xlink:href="#DejaVuSans-38" transform="translate(159.033203 0)"/>
     <use xlink:href="#DejaVuSans-33" transform="translate(222.65625 0)"/>
     <use xlink:href="#DejaVuSans-25" transform="translate(286.279297 0)"/>
    </g>
   </g>
   <g id="text_37">
    <!-- 93.64% -->
    <g transform="translate(480.448382 429.071964) rotate(-90) scale(0.1 -0.1)">
     <use xlink:href="#DejaVuSans-39"/>
     <use xlink:href="#DejaVuSans-33" transform="translate(63.623047 0)"/>
     <use xlink:href="#DejaVuSans-2e" transform="translate(127.246094 0)"/>
     <use xlink:href="#DejaVuSans-36" transform="translate(159.033203 0)"/>
     <use xlink:href="#DejaVuSans-34" transform="translate(222.65625 0)"/>
     <use xlink:href="#DejaVuSans-25" transform="translate(286.279297 0)"/>
    </g>
   </g>
   <g id="text_38">
    <!-- 94.43% -->
    <g transform="translate(513.271912 429.071964) rotate(-90) scale(0.1 -0.1)">
     <use xlink:href="#DejaVuSans-39"/>
     <use xlink:href="#DejaVuSans-34" transform="translate(63.623047 0)"/>
     <use xlink:href="#DejaVuSans-2e" transform="translate(127.246094 0)"/>
     <use xlink:href="#DejaVuSans-34" transform="translate(159.033203 0)"/>
     <use xlink:href="#DejaVuSans-33" transform="translate(222.65625 0)"/>
     <use xlink:href="#DejaVuSans-25" transform="translate(286.279297 0)"/>
    </g>
   </g>
   <g id="text_39">
    <!-- 95.23% -->
    <g transform="translate(546.095441 429.071964) rotate(-90) scale(0.1 -0.1)">
     <use xlink:href="#DejaVuSans-39"/>
     <use xlink:href="#DejaVuSans-35" transform="translate(63.623047 0)"/>
     <use xlink:href="#DejaVuSans-2e" transform="translate(127.246094 0)"/>
     <use xlink:href="#DejaVuSans-32" transform="translate(159.033203 0)"/>
     <use xlink:href="#DejaVuSans-33" transform="translate(222.65625 0)"/>
     <use xlink:href="#DejaVuSans-25" transform="translate(286.279297 0)"/>
    </g>
   </g>
   <g id="text_40">
    <!-- 95.43% -->
    <g transform="translate(578.918971 429.071964) rotate(-90) scale(0.1 -0.1)">
     <use xlink:href="#DejaVuSans-39"/>
     <use xlink:href="#DejaVuSans-35" transform="translate(63.623047 0)"/>
     <use xlink:href="#DejaVuSans-2e" transform="translate(127.246094 0)"/>
     <use xlink:href="#DejaVuSans-34" transform="translate(159.033203 0)"/>
     <use xlink:href="#DejaVuSans-33" transform="translate(222.65625 0)"/>
     <use xlink:href="#DejaVuSans-25" transform="translate(286.279297 0)"/>
    </g>
   </g>
   <g id="text_41">
    <!-- Performance of writes (word = u32) in δ (γ tables) code as a function of the table size (implied distribution) -->
    <g transform="translate(7.2 16.318125) scale(0.12 -0.12)">
     <defs>
      <path id="DejaVuSans-50" d="M 1259 4147 
L 1259 2394 
L 2053 2394 
Q 2494 2394 2734 2622 
Q 2975 2850 2975 3272 
Q 2975 3691 2734 3919 
Q 2494 4147 2053 4147 
L 1259 4147 
z
M 628 4666 
L 2053 4666 
Q 2838 4666 3239 4311 
Q 3641 3956 3641 3272 
Q 3641 2581 3239 2228 
Q 2838 1875 2053 1875 
L 1259 1875 
L 1259 0 
L 628 0 
L 628 4666 
z
" transform="scale(0.015625)"/>
      <path id="DejaVuSans-72" d="M 2631 2963 
Q 2534 3019 2420 3045 
Q 2306 3072 2169 3072 
Q 1681 3072 1420 2755 
Q 1159 2438 1159 1844 
L 1159 0 
L 581 0 
L 581 3500 
L 1159 3500 
L 1159 2956 
Q 1341 3275 1631 3429 
Q 1922 3584 2338 3584 
Q 2397 3584 2469 3576 
Q 2541 3569 2628 3553 
L 2631 2963 
z
" transform="scale(0.015625)"/>
      <path id="DejaVuSans-66" d="M 2375 4863 
L 2375 4384 
L 1825 4384 
Q 1516 4384 1395 4259 
Q 1275 4134 1275 3809 
L 1275 3500 
L 2222 3500 
L 2222 3053 
L 1275 3053 
L 1275 0 
L 697 0 
L 697 3053 
L 147 3053 
L 147 3500 
L 697 3500 
L 697 3744 
Q 697 4328 969 4595 
Q 1241 4863 1831 4863 
L 2375 4863 
z
" transform="scale(0.015625)"/>
      <path id="DejaVuSans-6f" d="M 1959 3097 
Q 1497 3097 1228 2736 
Q 959 2375 959 1747 
Q 959 1119 1226 758 
Q 1494 397 1959 397 
Q 2419 397 2687 759 
Q 2956 1122 2956 1747 
Q 2956 2369 2687 2733 
Q 2419 3097 1959 3097 
z
M 1959 3584 
Q 2709 3584 3137 3096 
Q 3566 2609 3566 1747 
Q 3566 888 3137 398 
Q 2709 -91 1959 -91 
Q 1206 -91 779 398 
Q 353 888 353 1747 
Q 353 2609 779 3096 
Q 1206 3584 1959 3584 
z
" transform="scale(0.015625)"/>
      <path id="DejaVuSans-6d" d="M 3328 2828 
Q 3544 3216 3844 3400 
Q 4144 3584 4550 3584 
Q 5097 3584 5394 3201 
Q 5691 2819 5691 2113 
L 5691 0 
L 5113 0 
L 5113 2094 
Q 5113 2597 4934 2840 
Q 4756 3084 4391 3084 
Q 3944 3084 3684 2787 
Q 3425 2491 3425 1978 
L 3425 0 
L 2847 0 
L 2847 2094 
Q 2847 2600 2669 2842 
Q 2491 3084 2119 3084 
Q 1678 3084 1418 2786 
Q 1159 2488 1159 1978 
L 1159 0 
L 581 0 
L 581 3500 
L 1159 3500 
L 1159 2956 
Q 1356 3278 1631 3431 
Q 1906 3584 2284 3584 
Q 2666 3584 2933 3390 
Q 3200 3197 3328 2828 
z
" transform="scale(0.015625)"/>
      <path id="DejaVuSans-63" d="M 3122 3366 
L 3122 2828 
Q 2878 2963 2633 3030 
Q 2388 3097 2138 3097 
Q 1578 3097 1268 2742 
Q 959 2388 959 1747 
Q 959 1106 1268 751 
Q 1578 397 2138 397 
Q 2388 397 2633 464 
Q 2878 531 3122 666 
L 3122 134 
Q 2881 22 2623 -34 
Q 2366 -91 2075 -91 
Q 1284 -91 818 406 
Q 353 903 353 1747 
Q 353 2603 823 3093 
Q 1294 3584 2113 3584 
Q 2378 3584 2631 3529 
Q 2884 3475 3122 3366 
z
" transform="scale(0.015625)"/>
      <path id="DejaVuSans-77" d="M 269 3500 
L 844 3500 
L 1563 769 
L 2278 3500 
L 2956 3500 
L 3675 769 
L 4391 3500 
L 4966 3500 
L 4050 0 
L 3372 0 
L 2619 2869 
L 1863 0 
L 1184 0 
L 269 3500 
z
" transform="scale(0.015625)"/>
      <path id="DejaVuSans-28" d="M 1984 4856 
Q 1566 4138 1362 3434 
Q 1159 2731 1159 2009 
Q 1159 1288 1364 580 
Q 1569 -128 1984 -844 
L 1484 -844 
Q 1016 -109 783 600 
Q 550 1309 550 2009 
Q 550 2706 781 3412 
Q 1013 4119 1484 4856 
L 1984 4856 
z
" transform="scale(0.015625)"/>
      <path id="DejaVuSans-64" d="M 2906 2969 
L 2906 4863 
L 3481 4863 
L 3481 0 
L 2906 0 
L 2906 525 
Q 2725 213 2448 61 
Q 2172 -91 1784 -91 
Q 1150 -91 751 415 
Q 353 922 353 1747 
Q 353 2572 751 3078 
Q 1150 3584 1784 3584 
Q 2172 3584 2448 3432 
Q 2725 3281 2906 2969 
z
M 947 1747 
Q 947 1113 1208 752 
Q 1469 391 1925 391 
Q 2381 391 2643 752 
Q 2906 1113 2906 1747 
Q 2906 2381 2643 2742 
Q 2381 3103 1925 3103 
Q 1469 3103 1208 2742 
Q 947 2381 947 1747 
z
" transform="scale(0.015625)"/>
      <path id="DejaVuSans-3d" d="M 678 2906 
L 4684 2906 
L 4684 2381 
L 678 2381 
L 678 2906 
z
M 678 1631 
L 4684 1631 
L 4684 1100 
L 678 1100 
L 678 1631 
z
" transform="scale(0.015625)"/>
      <path id="DejaVuSans-75" d="M 544 1381 
L 544 3500 
L 1119 3500 
L 1119 1403 
Q 1119 906 1312 657 
Q 1506 409 1894 409 
Q 2359 409 2629 706 
Q 2900 1003 2900 1516 
L 2900 3500 
L 3475 3500 
L 3475 0 
L 2900 0 
L 2900 538 
Q 2691 219 2414 64 
Q 2138 -91 1772 -91 
Q 1169 -91 856 284 
Q 544 659 544 1381 
z
M 1991 3584 
L 1991 3584 
z
" transform="scale(0.015625)"/>
      <path id="DejaVuSans-29" d="M 513 4856 
L 1013 4856 
Q 1481 4119 1714 3412 
Q 1947 2706 1947 2009 
Q 1947 1309 1714 600 
Q 1481 -109 1013 -844 
L 513 -844 
Q 928 -128 1133 580 
Q 1338 1288 1338 2009 
Q 1338 2731 1133 3434 
Q 928 4138 513 4856 
z
" transform="scale(0.015625)"/>
      <path id="DejaVuSans-3b4" d="M 3138 4053 
Q 2819 4272 2072 4272 
Q 1281 4272 1281 3906 
Q 1281 3619 2106 3469 
Q 2756 3353 3122 3003 
Q 3566 2581 3566 1716 
Q 3566 888 3138 400 
Q 2709 -91 1959 -91 
Q 1213 -91 781 400 
Q 353 888 353 1747 
Q 353 2384 781 2900 
Q 947 3100 1181 3213 
Q 694 3459 694 3900 
Q 694 4750 2072 4750 
Q 2763 4750 3138 4531 
L 3138 4053 
z
M 1613 3056 
Q 1400 2966 1228 2738 
Q 959 2384 959 1747 
Q 959 1113 1225 756 
Q 1494 397 1959 397 
Q 2419 397 2687 759 
Q 2956 1122 2956 1716 
Q 2956 2338 2672 2638 
Q 2369 2959 1975 2994 
Q 1775 3013 1613 3056 
z
" transform="scale(0.015625)"/>
      <path id="DejaVuSans-3b3" d="M 1128 2950 
L 1894 788 
L 2988 3500 
L 3597 3500 
L 2181 0 
L 2181 -1331 
L 1606 -1331 
L 1606 0 
L 688 2613 
Q 550 3006 253 3006 
L 100 3006 
L 100 3500 
L 319 3500 
Q 934 3500 1128 2950 
z
" transform="scale(0.015625)"/>
      <path id="DejaVuSans-68" d="M 3513 2113 
L 3513 0 
L 2938 0 
L 2938 2094 
Q 2938 2591 2744 2837 
Q 2550 3084 2163 3084 
Q 1697 3084 1428 2787 
Q 1159 2491 1159 1978 
L 1159 0 
L 581 0 
L 581 4863 
L 1159 4863 
L 1159 2956 
Q 1366 3272 1645 3428 
Q 1925 3584 2291 3584 
Q 2894 3584 3203 3211 
Q 3513 2838 3513 2113 
z
" transform="scale(0.015625)"/>
      <path id="DejaVuSans-7a" d="M 353 3500 
L 3084 3500 
L 3084 2975 
L 922 459 
L 3084 459 
L 3084 0 
L 275 0 
L 275 525 
L 2438 3041 
L 353 3041 
L 353 3500 
z
" transform="scale(0.015625)"/>
      <path id="DejaVuSans-70" d="M 1159 525 
L 1159 -1331 
L 581 -1331 
L 581 3500 
L 1159 3500 
L 1159 2969 
Q 1341 3281 1617 3432 
Q 1894 3584 2278 3584 
Q 2916 3584 3314 3078 
Q 3713 2572 3713 1747 
Q 3713 922 3314 415 
Q 2916 -91 2278 -91 
Q 1894 -91 1617 61 
Q 1341 213 1159 525 
z
M 3116 1747 
Q 3116 2381 2855 2742 
Q 2594 3103 2138 3103 
Q 1681 3103 1420 2742 
Q 1159 2381 1159 1747 
Q 1159 1113 1420 752 
Q 1681 391 2138 391 
Q 2594 391 2855 752 
Q 3116 1113 3116 1747 
z
" transform="scale(0.015625)"/>
     </defs>
     <use xlink:href="#DejaVuSans-50"/>
     <use xlink:href="#DejaVuSans-65" transform="translate(56.677734 0)"/>
     <use xlink:href="#DejaVuSans-72" transform="translate(118.201172 0)"/>
     <use xlink:href="#DejaVuSans-66" transform="translate(159.314453 0)"/>
     <use xlink:href="#DejaVuSans-6f" transform="translate(194.519531 0)"/>
     <use xlink:href="#DejaVuSans-72" transform="translate(255.701172 0)"/>
     <use xlink:href="#DejaVuSans-6d" transform="translate(295.064453 0)"/>
     <use xlink:href="#DejaVuSans-61" transform="translate(392.476562 0)"/>
     <use xlink:href="#DejaVuSans-6e" transform="translate(453.755859 0)"/>
     <use xlink:href="#DejaVuSans-63" transform="translate(517.134766 0)"/>
     <use xlink:href="#DejaVuSans-65" transform="translate(572.115234 0)"/>
     <use xlink:href="#DejaVuSans-20" transform="translate(633.638672 0)"/>
     <use xlink:href="#DejaVuSans-6f" transform="translate(665.425781 0)"/>
     <use xlink:href="#DejaVuSans-66" transform="translate(726.607422 0)"/>
     <use xlink:href="#DejaVuSans-20" transform="translate(761.8125 0)"/>
     <use xlink:href="#DejaVuSans-77" transform="translate(793.599609 0)"/>
     <use xlink:href="#DejaVuSans-72" transform="translate(875.386719 0)"/>
     <use xlink:href="#DejaVuSans-69" transform="translate(916.5 0)"/>
     <use xlink:href="#DejaVuSans-74" transform="translate(944.283203 0)"/>
     <use xlink:href="#DejaVuSans-65" transform="translate(983.492188 0)"/>
     <use xlink:href="#DejaVuSans-73" transform="translate(1045.015625 0)"/>
     <use xlink:href="#DejaVuSans-20" transform="translate(1097.115234 0)"/>
     <use xlink:href="#DejaVuSans-28" transform="translate(1128.902344 0)"/>
     <use xlink:href="#DejaVuSans-77" transform="translate(1167.916016 0)"/>
     <use xlink:href="#DejaVuSans-6f" transform="translate(1249.703125 0)"/>
     <use xlink:href="#DejaVuSans-72" transform="translate(1310.884766 0)"/>
     <use xlink:href="#DejaVuSans-64" transform="translate(1350.248047 0)"/>
     <use xlink:href="#DejaVuSans-20" transform="translate(1413.724609 0)"/>
     <use xlink:href="#DejaVuSans-3d" transform="translate(1445.511719 0)"/>
     <use xlink:href="#DejaVuSans-20" transform="translate(1529.300781 0)"/>
     <use xlink:href="#DejaVuSans-75" transform="translate(1561.087891 0)"/>
     <use xlink:href="#DejaVuSans-33" transform="translate(1624.466797 0)"/>
     <use xlink:href="#DejaVuSans-32" transform="translate(1688.089844 0)"/>
     <use xlink:href="#DejaVuSans-29" transform="translate(1751.712891 0)"/>
     <use xlink:href="#DejaVuSans-20" transform="translate(1790.726562 0)"/>
     <use xlink:href="#DejaVuSans-69" transform="translate(1822.513672 0)"/>
     <use xlink:href="#DejaVuSans-6e" transform="translate(1850.296875 0)"/>
     <use xlink:href="#DejaVuSans-20" transform="translate(1913.675781 0)"/>
     <use xlink:href="#DejaVuSans-3b4" transform="translate(1945.462891 0)"/>
     <use xlink:href="#DejaVuSans-20" transform="translate(2006.644531 0)"/>
     <use xlink:href="#DejaVuSans-28" transform="translate(2038.431641 0)"/>
     <use xlink:href="#DejaVuSans-3b3" transform="translate(2077.445312 0)"/>
     <use xlink:href="#DejaVuSans-20" transform="translate(2136.625 0)"/>
     <use xlink:href="#DejaVuSans-74" transform="translate(2168.412109 0)"/>
     <use xlink:href="#DejaVuSans-61" transform="translate(2207.621094 0)"/>
     <use xlink:href="#DejaVuSans-62" transform="translate(2268.900391 0)"/>
     <use xlink:href="#DejaVuSans-6c" transform="translate(2332.376953 0)"/>
     <use xlink:href="#DejaVuSans-65" transform="translate(2360.160156 0)"/>
     <use xlink:href="#DejaVuSans-73" transform="translate(2421.683594 0)"/>
     <use xlink:href="#DejaVuSans-29" transform="translate(2473.783203 0)"/>
     <use xlink:href="#DejaVuSans-20" transform="translate(2512.796875 0)"/>
     <use xlink:href="#DejaVuSans-63" transform="translate(2544.583984 0)"/>
     <use xlink:href="#DejaVuSans-6f" transform="translate(2599.564453 0)"/>
     <use xlink:href="#DejaVuSans-64" transform="translate(2660.746094 0)"/>
     <use xlink:href="#DejaVuSans-65" transform="translate(2724.222656 0)"/>
     <use xlink:href="#DejaVuSans-20" transform="translate(2785.746094 0)"/>
     <use xlink:href="#DejaVuSans-61" transform="translate(2817.533203 0)"/>
     <use xlink:href="#DejaVuSans-73" transform="translate(2878.8125 0)"/>
     <use xlink:href="#DejaVuSans-20" transform="translate(2930.912109 0)"/>
     <use xlink:href="#DejaVuSans-61" transform="translate(2962.699219 0)"/>
     <use xlink:href="#DejaVuSans-20" transform="translate(3023.978516 0)"/>
     <use xlink:href="#DejaVuSans-66" transform="translate(3055.765625 0)"/>
     <use xlink:href="#DejaVuSans-75" transform="translate(3090.970703 0)"/>
     <use xlink:href="#DejaVuSans-6e" transform="translate(3154.349609 0)"/>
     <use xlink:href="#DejaVuSans-63" transform="translate(3217.728516 0)"/>
     <use xlink:href="#DejaVuSans-74" transform="translate(3272.708984 0)"/>
     <use xlink:href="#DejaVuSans-69" transform="translate(3311.917969 0)"/>
     <use xlink:href="#DejaVuSans-6f" transform="translate(3339.701172 0)"/>
     <use xlink:href="#DejaVuSans-6e" transform="translate(3400.882812 0)"/>
     <use xlink:href="#DejaVuSans-20" transform="translate(3464.261719 0)"/>
     <use xlink:href="#DejaVuSans-6f" transform="translate(3496.048828 0)"/>
     <use xlink:href="#DejaVuSans-66" transform="translate(3557.230469 0)"/>
     <use xlink:href="#DejaVuSans-20" transform="translate(3592.435547 0)"/>
     <use xlink:href="#DejaVuSans-74" transform="translate(3624.222656 0)"/>
     <use xlink:href="#DejaVuSans-68" transform="translate(3663.431641 0)"/>
     <use xlink:href="#DejaVuSans-65" transform="translate(3726.810547 0)"/>
     <use xlink:href="#DejaVuSans-20" transform="translate(3788.333984 0)"/>
     <use xlink:href="#DejaVuSans-74" transform="translate(3820.121094 0)"/>
     <use xlink:href="#DejaVuSans-61" transform="translate(3859.330078 0)"/>
     <use xlink:href="#DejaVuSans-62" transform="translate(3920.609375 0)"/>
     <use xlink:href="#DejaVuSans-6c" transform="translate(3984.085938 0)"/>
     <use xlink:href="#DejaVuSans-65" transform="translate(4011.869141 0)"/>
     <use xlink:href="#DejaVuSans-20" transform="translate(4073.392578 0)"/>
     <use xlink:href="#DejaVuSans-73" transform="translate(4105.179688 0)"/>
     <use xlink:href="#DejaVuSans-69" transform="translate(4157.279297 0)"/>
     <use xlink:href="#DejaVuSans-7a" transform="translate(4185.0625 0)"/>
     <use xlink:href="#DejaVuSans-65" transform="translate(4237.552734 0)"/>
     <use xlink:href="#DejaVuSans-20" transform="translate(4299.076172 0)"/>
     <use xlink:href="#DejaVuSans-28" transform="translate(4330.863281 0)"/>
     <use xlink:href="#DejaVuSans-69" transform="translate(4369.876953 0)"/>
     <use xlink:href="#DejaVuSans-6d" transform="translate(4397.660156 0)"/>
     <use xlink:href="#DejaVuSans-70" transform="translate(4495.072266 0)"/>
     <use xlink:href="#DejaVuSans-6c" transform="translate(4558.548828 0)"/>
     <use xlink:href="#DejaVuSans-69" transform="translate(4586.332031 0)"/>
     <use xlink:href="#DejaVuSans-65" transform="translate(4614.115234 0)"/>
     <use xlink:href="#DejaVuSans-64" transform="translate(4675.638672 0)"/>
     <use xlink:href="#DejaVuSans-20" transform="translate(4739.115234 0)"/>
     <use xlink:href="#DejaVuSans-64" transform="translate(4770.902344 0)"/>
     <use xlink:href="#DejaVuSans-69" transform="translate(4834.378906 0)"/>
     <use xlink:href="#DejaVuSans-73" transform="translate(4862.162109 0)"/>
     <use xlink:href="#DejaVuSans-74" transform="translate(4914.261719 0)"/>
     <use xlink:href="#DejaVuSans-72" transform="translate(4953.470703 0)"/>
     <use xlink:href="#DejaVuSans-69" transform="translate(4994.583984 0)"/>
     <use xlink:href="#DejaVuSans-62" transform="translate(5022.367188 0)"/>
     <use xlink:href="#DejaVuSans-75" transform="translate(5085.84375 0)"/>
     <use xlink:href="#DejaVuSans-74" transform="translate(5149.222656 0)"/>
     <use xlink:href="#DejaVuSans-69" transform="translate(5188.431641 0)"/>
     <use xlink:href="#DejaVuSans-6f" transform="translate(5216.214844 0)"/>
     <use xlink:href="#DejaVuSans-6e" transform="translate(5277.396484 0)"/>
     <use xlink:href="#DejaVuSans-29" transform="translate(5340.775391 0)"/>
    </g>
    <!-- Shaded areas are 95% confidence intervals and the plots are means -->
    <g transform="translate(124.328437 29.7555) scale(0.12 -0.12)">
     <defs>
      <path id="DejaVuSans-53" d="M 3425 4513 
L 3425 3897 
Q 3066 4069 2747 4153 
Q 2428 4238 2131 4238 
Q 1616 4238 1336 4038 
Q 1056 3838 1056 3469 
Q 1056 3159 1242 3001 
Q 1428 2844 1947 2747 
L 2328 2669 
Q 3034 2534 3370 2195 
Q 3706 1856 3706 1288 
Q 3706 609 3251 259 
Q 2797 -91 1919 -91 
Q 1588 -91 1214 -16 
Q 841 59 441 206 
L 441 856 
Q 825 641 1194 531 
Q 1563 422 1919 422 
Q 2459 422 2753 634 
Q 3047 847 3047 1241 
Q 3047 1584 2836 1778 
Q 2625 1972 2144 2069 
L 1759 2144 
Q 1053 2284 737 2584 
Q 422 2884 422 3419 
Q 422 4038 858 4394 
Q 1294 4750 2059 4750 
Q 2388 4750 2728 4690 
Q 3069 4631 3425 4513 
z
" transform="scale(0.015625)"/>
      <path id="DejaVuSans-76" d="M 191 3500 
L 800 3500 
L 1894 563 
L 2988 3500 
L 3597 3500 
L 2284 0 
L 1503 0 
L 191 3500 
z
" transform="scale(0.015625)"/>
     </defs>
     <use xlink:href="#DejaVuSans-53"/>
     <use xlink:href="#DejaVuSans-68" transform="translate(63.476562 0)"/>
     <use xlink:href="#DejaVuSans-61" transform="translate(126.855469 0)"/>
     <use xlink:href="#DejaVuSans-64" transform="translate(188.134766 0)"/>
     <use xlink:href="#DejaVuSans-65" transform="translate(251.611328 0)"/>
     <use xlink:href="#DejaVuSans-64" transform="translate(313.134766 0)"/>
     <use xlink:href="#DejaVuSans-20" transform="translate(376.611328 0)"/>
     <use xlink:href="#DejaVuSans-61" transform="translate(408.398438 0)"/>
     <use xlink:href="#DejaVuSans-72" transform="translate(469.677734 0)"/>
     <use xlink:href="#DejaVuSans-65" transform="translate(508.541016 0)"/>
     <use xlink:href="#DejaVuSans-61" transform="translate(570.064453 0)"/>
     <use xlink:href="#DejaVuSans-73" transform="translate(631.34375 0)"/>
     <use xlink:href="#DejaVuSans-20" transform="translate(683.443359 0)"/>
     <use xlink:href="#DejaVuSans-61" transform="translate(715.230469 0)"/>
     <use xlink:href="#DejaVuSans-72" transform="translate(776.509766 0)"/>
     <use xlink:href="#DejaVuSans-65" transform="translate(815.373047 0)"/>
     <use xlink:href="#DejaVuSans-20" transform="translate(876.896484 0)"/>
     <use xlink:href="#DejaVuSans-39" transform="translate(908.683594 0)"/>
     <use xlink:href="#DejaVuSans-35" transform="translate(972.306641 0)"/>
     <use xlink:href="#DejaVuSans-25" transform="translate(1035.929688 0)"/>
     <use xlink:href="#DejaVuSans-20" transform="translate(1130.949219 0)"/>
     <use xlink:href="#DejaVuSans-63" transform="translate(1162.736328 0)"/>
     <use xlink:href="#DejaVuSans-6f" transform="translate(1217.716797 0)"/>
     <use xlink:href="#DejaVuSans-6e" transform="translate(1278.898438 0)"/>
     <use xlink:href="#DejaVuSans-66" transform="translate(1342.277344 0)"/>
     <use xlink:href="#DejaVuSans-69" transform="translate(1377.482422 0)"/>
     <use xlink:href="#DejaVuSans-64" transform="translate(1405.265625 0)"/>
     <use xlink:href="#DejaVuSans-65" transform="translate(1468.742188 0)"/>
     <use xlink:href="#DejaVuSans-6e" transform="translate(1530.265625 0)"/>
     <use xlink:href="#DejaVuSans-63" transform="translate(1593.644531 0)"/>
     <use xlink:href="#DejaVuSans-65" transform="translate(1648.625 0)"/>
     <use xlink:href="#DejaVuSans-20" transform="translate(1710.148438 0)"/>
     <use xlink:href="#DejaVuSans-69" transform="translate(1741.935547 0)"/>
     <use xlink:href="#DejaVuSans-6e" transform="translate(1769.71875 0)"/>
     <use xlink:href="#DejaVuSans-74" transform="translate(1833.097656 0)"/>
     <use xlink:href="#DejaVuSans-65" transform="translate(1872.306641 0)"/>
     <use xlink:href="#DejaVuSans-72" transform="translate(1933.830078 0)"/>
     <use xlink:href="#DejaVuSans-76" transform="translate(1974.943359 0)"/>
     <use xlink:href="#DejaVuSans-61" transform="translate(2034.123047 0)"/>
     <use xlink:href="#DejaVuSans-6c" transform="translate(2095.402344 0)"/>
     <use xlink:href="#DejaVuSans-73" transform="translate(2123.185547 0)"/>
     <use xlink:href="#DejaVuSans-20" transform="translate(2175.285156 0)"/>
     <use xlink:href="#DejaVuSans-61" transform="translate(2207.072266 0)"/>
     <use xlink:href="#DejaVuSans-6e" transform="translate(2268.351562 0)"/>
     <use xlink:href="#DejaVuSans-64" transform="translate(2331.730469 0)"/>
     <use xlink:href="#DejaVuSans-20" transform="translate(2395.207031 0)"/>
     <use xlink:href="#DejaVuSans-74" transform="translate(2426.994141 0)"/>
     <use xlink:href="#DejaVuSans-68" transform="translate(2466.203125 0)"/>
     <use xlink:href="#DejaVuSans-65" transform="translate(2529.582031 0)"/>
     <use xlink:href="#DejaVuSans-20" transform="translate(2591.105469 0)"/>
     <use xlink:href="#DejaVuSans-70" transform="translate(2622.892578 0)"/>
     <use xlink:href="#DejaVuSans-6c" transform="translate(2686.369141 0)"/>
     <use xlink:href="#DejaVuSans-6f" transform="translate(2714.152344 0)"/>
     <use xlink:href="#DejaVuSans-74" transform="translate(2775.333984 0)"/>
     <use xlink:href="#DejaVuSans-73" transform="translate(2814.542969 0)"/>
     <use xlink:href="#DejaVuSans-20" transform="translate(2866.642578 0)"/>
     <use xlink:href="#DejaVuSans-61" transform="translate(2898.429688 0)"/>
     <use xlink:href="#DejaVuSans-72" transform="translate(2959.708984 0)"/>
     <use xlink:href="#DejaVuSans-65" transform="translate(2998.572266 0)"/>
     <use xlink:href="#DejaVuSans-20" transform="translate(3060.095703 0)"/>
     <use xlink:href="#DejaVuSans-6d" transform="translate(3091.882812 0)"/>
     <use xlink:href="#DejaVuSans-65" transform="translate(3189.294922 0)"/>
     <use xlink:href="#DejaVuSans-61" transform="translate(3250.818359 0)"/>
     <use xlink:href="#DejaVuSans-6e" transform="translate(3312.097656 0)"/>
     <use xlink:href="#DejaVuSans-73" transform="translate(3375.476562 0)"/>
    </g>
   </g>
   <g id="legend_1">
    <g id="patch_25">
     <path d="M 615.983125 317.728 
L 866.258125 317.728 
Q 868.258125 317.728 868.258125 315.728 
L 868.258125 199.303 
Q 868.258125 197.303 866.258125 197.303 
L 615.983125 197.303 
Q 613.983125 197.303 613.983125 199.303 
L 613.983125 315.728 
Q 613.983125 317.728 615.983125 317.728 
z
" style="fill: #ffffff; opacity: 0.8; stroke: #cccccc; stroke-linejoin: miter"/>
    </g>
    <g id="line2d_30">
     <path d="M 617.983125 205.401438 
L 637.983125 205.401438 
" style="fill: none; stroke: #1f77b4; stroke-width: 1.5; stroke-linecap: square"/>
    </g>
    <g id="line2d_31">
     <g>
      <use xlink:href="#m7ae2d4e5fa" x="627.983125" y="205.401438" style="fill: #1f77b4; stroke: #1f77b4"/>
     </g>
    </g>
    <g id="text_42">
     <!-- LE::Table::merged (min: 3.035ns @ 15 bits) -->
     <g transform="translate(645.983125 208.901438) scale(0.1 -0.1)">
      <defs>
       <path id="DejaVuSans-4c" d="M 628 4666 
L 1259 4666 
L 1259 531 
L 3531 531 
L 3531 0 
L 628 0 
L 628 4666 
z
" transform="scale(0.015625)"/>
       <path id="DejaVuSans-45" d="M 628 4666 
L 3578 4666 
L 3578 4134 
L 1259 4134 
L 1259 2753 
L 3481 2753 
L 3481 2222 
L 1259 2222 
L 1259 531 
L 3634 531 
L 3634 0 
L 628 0 
L 628 4666 
z
" transform="scale(0.015625)"/>
       <path id="DejaVuSans-3a" d="M 750 794 
L 1409 794 
L 1409 0 
L 750 0 
L 750 794 
z
M 750 3309 
L 1409 3309 
L 1409 2516 
L 750 2516 
L 750 3309 
z
" transform="scale(0.015625)"/>
       <path id="DejaVuSans-54" d="M -19 4666 
L 3928 4666 
L 3928 4134 
L 2272 4134 
L 2272 0 
L 1638 0 
L 1638 4134 
L -19 4134 
L -19 4666 
z
" transform="scale(0.015625)"/>
       <path id="DejaVuSans-67" d="M 2906 1791 
Q 2906 2416 2648 2759 
Q 2391 3103 1925 3103 
Q 1463 3103 1205 2759 
Q 947 2416 947 1791 
Q 947 1169 1205 825 
Q 1463 481 1925 481 
Q 2391 481 2648 825 
Q 2906 1169 2906 1791 
z
M 3481 434 
Q 3481 -459 3084 -895 
Q 2688 -1331 1869 -1331 
Q 1566 -1331 1297 -1286 
Q 1028 -1241 775 -1147 
L 775 -588 
Q 1028 -725 1275 -790 
Q 1522 -856 1778 -856 
Q 2344 -856 2625 -561 
Q 2906 -266 2906 331 
L 2906 616 
Q 2728 306 2450 153 
Q 2172 0 1784 0 
Q 1141 0 747 490 
Q 353 981 353 1791 
Q 353 2603 747 3093 
Q 1141 3584 1784 3584 
Q 2172 3584 2450 3431 
Q 2728 3278 2906 2969 
L 2906 3500 
L 3481 3500 
L 3481 434 
z
" transform="scale(0.015625)"/>
       <path id="DejaVuSans-40" d="M 2381 1678 
Q 2381 1231 2603 976 
Q 2825 722 3213 722 
Q 3597 722 3817 978 
Q 4038 1234 4038 1678 
Q 4038 2116 3813 2373 
Q 3588 2631 3206 2631 
Q 2828 2631 2604 2375 
Q 2381 2119 2381 1678 
z
M 4084 744 
Q 3897 503 3655 389 
Q 3413 275 3091 275 
Q 2553 275 2217 664 
Q 1881 1053 1881 1678 
Q 1881 2303 2218 2693 
Q 2556 3084 3091 3084 
Q 3413 3084 3656 2967 
Q 3900 2850 4084 2613 
L 4084 3022 
L 4531 3022 
L 4531 722 
Q 4988 791 5245 1139 
Q 5503 1488 5503 2041 
Q 5503 2375 5404 2669 
Q 5306 2963 5106 3213 
Q 4781 3622 4314 3839 
Q 3847 4056 3297 4056 
Q 2913 4056 2559 3954 
Q 2206 3853 1906 3653 
Q 1416 3334 1139 2817 
Q 863 2300 863 1697 
Q 863 1200 1042 765 
Q 1222 331 1563 0 
Q 1891 -325 2322 -495 
Q 2753 -666 3244 -666 
Q 3647 -666 4036 -530 
Q 4425 -394 4750 -141 
L 5031 -488 
Q 4641 -791 4180 -952 
Q 3719 -1113 3244 -1113 
Q 2666 -1113 2153 -908 
Q 1641 -703 1241 -313 
Q 841 78 631 592 
Q 422 1106 422 1697 
Q 422 2266 634 2781 
Q 847 3297 1241 3688 
Q 1644 4084 2172 4295 
Q 2700 4506 3291 4506 
Q 3953 4506 4520 4234 
Q 5088 3963 5472 3463 
Q 5706 3156 5829 2797 
Q 5953 2438 5953 2053 
Q 5953 1231 5456 756 
Q 4959 281 4084 263 
L 4084 744 
z
" transform="scale(0.015625)"/>
      </defs>
      <use xlink:href="#DejaVuSans-4c"/>
      <use xlink:href="#DejaVuSans-45" transform="translate(55.712891 0)"/>
      <use xlink:href="#DejaVuSans-3a" transform="translate(118.896484 0)"/>
      <use xlink:href="#DejaVuSans-3a" transform="translate(152.587891 0)"/>
      <use xlink:href="#DejaVuSans-54" transform="translate(186.279297 0)"/>
      <use xlink:href="#DejaVuSans-61" transform="translate(230.863281 0)"/>
      <use xlink:href="#DejaVuSans-62" transform="translate(292.142578 0)"/>
      <use xlink:href="#DejaVuSans-6c" transform="translate(355.619141 0)"/>
      <use xlink:href="#DejaVuSans-65" transform="translate(383.402344 0)"/>
      <use xlink:href="#DejaVuSans-3a" transform="translate(444.925781 0)"/>
      <use xlink:href="#DejaVuSans-3a" transform="translate(478.617188 0)"/>
      <use xlink:href="#DejaVuSans-6d" transform="translate(512.308594 0)"/>
      <use xlink:href="#DejaVuSans-65" transform="translate(609.720703 0)"/>
      <use xlink:href="#DejaVuSans-72" transform="translate(671.244141 0)"/>
      <use xlink:href="#DejaVuSans-67" transform="translate(710.607422 0)"/>
      <use xlink:href="#DejaVuSans-65" transform="translate(774.083984 0)"/>
      <use xlink:href="#DejaVuSans-64" transform="translate(835.607422 0)"/>
      <use xlink:href="#DejaVuSans-20" transform="translate(899.083984 0)"/>
      <use xlink:href="#DejaVuSans-28" transform="translate(930.871094 0)"/>
      <use xlink:href="#DejaVuSans-6d" transform="translate(969.884766 0)"/>
      <use xlink:href="#DejaVuSans-69" transform="translate(1067.296875 0)"/>
      <use xlink:href="#DejaVuSans-6e" transform="translate(1095.080078 0)"/>
      <use xlink:href="#DejaVuSans-3a" transform="translate(1158.458984 0)"/>
      <use xlink:href="#DejaVuSans-20" transform="translate(1192.150391 0)"/>
      <use xlink:href="#DejaVuSans-33" transform="translate(1223.9375 0)"/>
      <use xlink:href="#DejaVuSans-2e" transform="translate(1287.560547 0)"/>
      <use xlink:href="#DejaVuSans-30" transform="translate(1319.347656 0)"/>
      <use xlink:href="#DejaVuSans-33" transform="translate(1382.970703 0)"/>
      <use xlink:href="#DejaVuSans-35" transform="translate(1446.59375 0)"/>
      <use xlink:href="#DejaVuSans-6e" transform="translate(1510.216797 0)"/>
      <use xlink:href="#DejaVuSans-73" transform="translate(1573.595703 0)"/>
      <use xlink:href="#DejaVuSans-20" transform="translate(1625.695312 0)"/>
      <use xlink:href="#DejaVuSans-40" transform="translate(1657.482422 0)"/>
      <use xlink:href="#DejaVuSans-20" transform="translate(1757.482422 0)"/>
      <use xlink:href="#DejaVuSans-31" transform="translate(1789.269531 0)"/>
      <use xlink:href="#DejaVuSans-35" transform="translate(1852.892578 0)"/>
      <use xlink:href="#DejaVuSans-20" transform="translate(1916.515625 0)"/>
      <use xlink:href="#DejaVuSans-62" transform="translate(1948.302734 0)"/>
      <use xlink:href="#DejaVuSans-69" transform="translate(2011.779297 0)"/>
      <use xlink:href="#DejaVuSans-74" transform="translate(2039.5625 0)"/>
      <use xlink:href="#DejaVuSans-73" transform="translate(2078.771484 0)"/>
      <use xlink:href="#DejaVuSans-29" transform="translate(2130.871094 0)"/>
     </g>
    </g>
    <g id="line2d_32">
     <path d="M 617.983125 220.079563 
L 637.983125 220.079563 
" style="fill: none; stroke: #ff7f0e; stroke-width: 1.5; stroke-linecap: square"/>
    </g>
    <g id="line2d_33">
     <g>
      <use xlink:href="#m5ef0712057" x="627.983125" y="220.079563" style="fill: #ff7f0e; stroke: #ff7f0e"/>
     </g>
    </g>
    <g id="text_43">
     <!-- BE::Table::merged (min: 2.889ns @ 15 bits) -->
     <g transform="translate(645.983125 223.579563) scale(0.1 -0.1)">
      <defs>
       <path id="DejaVuSans-42" d="M 1259 2228 
L 1259 519 
L 2272 519 
Q 2781 519 3026 730 
Q 3272 941 3272 1375 
Q 3272 1813 3026 2020 
Q 2781 2228 2272 2228 
L 1259 2228 
z
M 1259 4147 
L 1259 2741 
L 2194 2741 
Q 2656 2741 2882 2914 
Q 3109 3088 3109 3444 
Q 3109 3797 2882 3972 
Q 2656 4147 2194 4147 
L 1259 4147 
z
M 628 4666 
L 2241 4666 
Q 2963 4666 3353 4366 
Q 3744 4066 3744 3513 
Q 3744 3084 3544 2831 
Q 3344 2578 2956 2516 
Q 3422 2416 3680 2098 
Q 3938 1781 3938 1306 
Q 3938 681 3513 340 
Q 3088 0 2303 0 
L 628 0 
L 628 4666 
z
" transform="scale(0.015625)"/>
      </defs>
      <use xlink:href="#DejaVuSans-42"/>
      <use xlink:href="#DejaVuSans-45" transform="translate(68.603516 0)"/>
      <use xlink:href="#DejaVuSans-3a" transform="translate(131.787109 0)"/>
      <use xlink:href="#DejaVuSans-3a" transform="translate(165.478516 0)"/>
      <use xlink:href="#DejaVuSans-54" transform="translate(199.169922 0)"/>
      <use xlink:href="#DejaVuSans-61" transform="translate(243.753906 0)"/>
      <use xlink:href="#DejaVuSans-62" transform="translate(305.033203 0)"/>
      <use xlink:href="#DejaVuSans-6c" transform="translate(368.509766 0)"/>
      <use xlink:href="#DejaVuSans-65" transform="translate(396.292969 0)"/>
      <use xlink:href="#DejaVuSans-3a" transform="translate(457.816406 0)"/>
      <use xlink:href="#DejaVuSans-3a" transform="translate(491.507812 0)"/>
      <use xlink:href="#DejaVuSans-6d" transform="translate(525.199219 0)"/>
      <use xlink:href="#DejaVuSans-65" transform="translate(622.611328 0)"/>
      <use xlink:href="#DejaVuSans-72" transform="translate(684.134766 0)"/>
      <use xlink:href="#DejaVuSans-67" transform="translate(723.498047 0)"/>
      <use xlink:href="#DejaVuSans-65" transform="translate(786.974609 0)"/>
      <use xlink:href="#DejaVuSans-64" transform="translate(848.498047 0)"/>
      <use xlink:href="#DejaVuSans-20" transform="translate(911.974609 0)"/>
      <use xlink:href="#DejaVuSans-28" transform="translate(943.761719 0)"/>
      <use xlink:href="#DejaVuSans-6d" transform="translate(982.775391 0)"/>
      <use xlink:href="#DejaVuSans-69" transform="translate(1080.1875 0)"/>
      <use xlink:href="#DejaVuSans-6e" transform="translate(1107.970703 0)"/>
      <use xlink:href="#DejaVuSans-3a" transform="translate(1171.349609 0)"/>
      <use xlink:href="#DejaVuSans-20" transform="translate(1205.041016 0)"/>
      <use xlink:href="#DejaVuSans-32" transform="translate(1236.828125 0)"/>
      <use xlink:href="#DejaVuSans-2e" transform="translate(1300.451172 0)"/>
      <use xlink:href="#DejaVuSans-38" transform="translate(1332.238281 0)"/>
      <use xlink:href="#DejaVuSans-38" transform="translate(1395.861328 0)"/>
      <use xlink:href="#DejaVuSans-39" transform="translate(1459.484375 0)"/>
      <use xlink:href="#DejaVuSans-6e" transform="translate(1523.107422 0)"/>
      <use xlink:href="#DejaVuSans-73" transform="translate(1586.486328 0)"/>
      <use xlink:href="#DejaVuSans-20" transform="translate(1638.585938 0)"/>
      <use xlink:href="#DejaVuSans-40" transform="translate(1670.373047 0)"/>
      <use xlink:href="#DejaVuSans-20" transform="translate(1770.373047 0)"/>
      <use xlink:href="#DejaVuSans-31" transform="translate(1802.160156 0)"/>
      <use xlink:href="#DejaVuSans-35" transform="translate(1865.783203 0)"/>
      <use xlink:href="#DejaVuSans-20" transform="translate(1929.40625 0)"/>
      <use xlink:href="#DejaVuSans-62" transform="translate(1961.193359 0)"/>
      <use xlink:href="#DejaVuSans-69" transform="translate(2024.669922 0)"/>
      <use xlink:href="#DejaVuSans-74" transform="translate(2052.453125 0)"/>
      <use xlink:href="#DejaVuSans-73" transform="translate(2091.662109 0)"/>
      <use xlink:href="#DejaVuSans-29" transform="translate(2143.761719 0)"/>
     </g>
    </g>
    <g id="line2d_34">
     <path d="M 617.983125 234.757688 
L 637.983125 234.757688 
" style="fill: none; stroke: #2ca02c; stroke-width: 1.5; stroke-linecap: square"/>
    </g>
    <g id="line2d_35">
     <g>
      <use xlink:href="#madb56d1995" x="627.983125" y="234.757688" style="fill: #2ca02c; stroke: #2ca02c; stroke-linejoin: miter"/>
     </g>
    </g>
    <g id="text_44">
     <!-- LE::Table::sep (min: 3.095ns @ 15 bits) -->
     <g transform="translate(645.983125 238.257688) scale(0.1 -0.1)">
      <use xlink:href="#DejaVuSans-4c"/>
      <use xlink:href="#DejaVuSans-45" transform="translate(55.712891 0)"/>
      <use xlink:href="#DejaVuSans-3a" transform="translate(118.896484 0)"/>
      <use xlink:href="#DejaVuSans-3a" transform="translate(152.587891 0)"/>
      <use xlink:href="#DejaVuSans-54" transform="translate(186.279297 0)"/>
      <use xlink:href="#DejaVuSans-61" transform="translate(230.863281 0)"/>
      <use xlink:href="#DejaVuSans-62" transform="translate(292.142578 0)"/>
      <use xlink:href="#DejaVuSans-6c" transform="translate(355.619141 0)"/>
      <use xlink:href="#DejaVuSans-65" transform="translate(383.402344 0)"/>
      <use xlink:href="#DejaVuSans-3a" transform="translate(444.925781 0)"/>
      <use xlink:href="#DejaVuSans-3a" transform="translate(478.617188 0)"/>
      <use xlink:href="#DejaVuSans-73" transform="translate(512.308594 0)"/>
      <use xlink:href="#DejaVuSans-65" transform="translate(564.408203 0)"/>
      <use xlink:href="#DejaVuSans-70" transform="translate(625.931641 0)"/>
      <use xlink:href="#DejaVuSans-20" transform="translate(689.408203 0)"/>
      <use xlink:href="#DejaVuSans-28" transform="translate(721.195312 0)"/>
      <use xlink:href="#DejaVuSans-6d" transform="translate(760.208984 0)"/>
      <use xlink:href="#DejaVuSans-69" transform="translate(857.621094 0)"/>
      <use xlink:href="#DejaVuSans-6e" transform="translate(885.404297 0)"/>
      <use xlink:href="#DejaVuSans-3a" transform="translate(948.783203 0)"/>
      <use xlink:href="#DejaVuSans-20" transform="translate(982.474609 0)"/>
      <use xlink:href="#DejaVuSans-33" transform="translate(1014.261719 0)"/>
      <use xlink:href="#DejaVuSans-2e" transform="translate(1077.884766 0)"/>
      <use xlink:href="#DejaVuSans-30" transform="translate(1109.671875 0)"/>
      <use xlink:href="#DejaVuSans-39" transform="translate(1173.294922 0)"/>
      <use xlink:href="#DejaVuSans-35" transform="translate(1236.917969 0)"/>
      <use xlink:href="#DejaVuSans-6e" transform="translate(1300.541016 0)"/>
      <use xlink:href="#DejaVuSans-73" transform="translate(1363.919922 0)"/>
      <use xlink:href="#DejaVuSans-20" transform="translate(1416.019531 0)"/>
      <use xlink:href="#DejaVuSans-40" transform="translate(1447.806641 0)"/>
      <use xlink:href="#DejaVuSans-20" transform="translate(1547.806641 0)"/>
      <use xlink:href="#DejaVuSans-31" transform="translate(1579.59375 0)"/>
      <use xlink:href="#DejaVuSans-35" transform="translate(1643.216797 0)"/>
      <use xlink:href="#DejaVuSans-20" transform="translate(1706.839844 0)"/>
      <use xlink:href="#DejaVuSans-62" transform="translate(1738.626953 0)"/>
      <use xlink:href="#DejaVuSans-69" transform="translate(1802.103516 0)"/>
      <use xlink:href="#DejaVuSans-74" transform="translate(1829.886719 0)"/>
      <use xlink:href="#DejaVuSans-73" transform="translate(1869.095703 0)"/>
      <use xlink:href="#DejaVuSans-29" transform="translate(1921.195312 0)"/>
     </g>
    </g>
    <g id="line2d_36">
     <path d="M 617.983125 249.435813 
L 637.983125 249.435813 
" style="fill: none; stroke: #d62728; stroke-width: 1.5; stroke-linecap: square"/>
    </g>
    <g id="line2d_37">
     <g>
      <use xlink:href="#m89dfabfe92" x="627.983125" y="249.435813" style="fill: #d62728; stroke: #d62728; stroke-linejoin: miter"/>
     </g>
    </g>
    <g id="text_45">
     <!-- BE::Table::sep (min: 2.905ns @ 15 bits) -->
     <g transform="translate(645.983125 252.935813) scale(0.1 -0.1)">
      <use xlink:href="#DejaVuSans-42"/>
      <use xlink:href="#DejaVuSans-45" transform="translate(68.603516 0)"/>
      <use xlink:href="#DejaVuSans-3a" transform="translate(131.787109 0)"/>
      <use xlink:href="#DejaVuSans-3a" transform="translate(165.478516 0)"/>
      <use xlink:href="#DejaVuSans-54" transform="translate(199.169922 0)"/>
      <use xlink:href="#DejaVuSans-61" transform="translate(243.753906 0)"/>
      <use xlink:href="#DejaVuSans-62" transform="translate(305.033203 0)"/>
      <use xlink:href="#DejaVuSans-6c" transform="translate(368.509766 0)"/>
      <use xlink:href="#DejaVuSans-65" transform="translate(396.292969 0)"/>
      <use xlink:href="#DejaVuSans-3a" transform="translate(457.816406 0)"/>
      <use xlink:href="#DejaVuSans-3a" transform="translate(491.507812 0)"/>
      <use xlink:href="#DejaVuSans-73" transform="translate(525.199219 0)"/>
      <use xlink:href="#DejaVuSans-65" transform="translate(577.298828 0)"/>
      <use xlink:href="#DejaVuSans-70" transform="translate(638.822266 0)"/>
      <use xlink:href="#DejaVuSans-20" transform="translate(702.298828 0)"/>
      <use xlink:href="#DejaVuSans-28" transform="translate(734.085938 0)"/>
      <use xlink:href="#DejaVuSans-6d" transform="translate(773.099609 0)"/>
      <use xlink:href="#DejaVuSans-69" transform="translate(870.511719 0)"/>
      <use xlink:href="#DejaVuSans-6e" transform="translate(898.294922 0)"/>
      <use xlink:href="#DejaVuSans-3a" transform="translate(961.673828 0)"/>
      <use xlink:href="#DejaVuSans-20" transform="translate(995.365234 0)"/>
      <use xlink:href="#DejaVuSans-32" transform="translate(1027.152344 0)"/>
      <use xlink:href="#DejaVuSans-2e" transform="translate(1090.775391 0)"/>
      <use xlink:href="#DejaVuSans-39" transform="translate(1122.5625 0)"/>
      <use xlink:href="#DejaVuSans-30" transform="translate(1186.185547 0)"/>
      <use xlink:href="#DejaVuSans-35" transform="translate(1249.808594 0)"/>
      <use xlink:href="#DejaVuSans-6e" transform="translate(1313.431641 0)"/>
      <use xlink:href="#DejaVuSans-73" transform="translate(1376.810547 0)"/>
      <use xlink:href="#DejaVuSans-20" transform="translate(1428.910156 0)"/>
      <use xlink:href="#DejaVuSans-40" transform="translate(1460.697266 0)"/>
      <use xlink:href="#DejaVuSans-20" transform="translate(1560.697266 0)"/>
      <use xlink:href="#DejaVuSans-31" transform="translate(1592.484375 0)"/>
      <use xlink:href="#DejaVuSans-35" transform="translate(1656.107422 0)"/>
      <use xlink:href="#DejaVuSans-20" transform="translate(1719.730469 0)"/>
      <use xlink:href="#DejaVuSans-62" transform="translate(1751.517578 0)"/>
      <use xlink:href="#DejaVuSans-69" transform="translate(1814.994141 0)"/>
      <use xlink:href="#DejaVuSans-74" transform="translate(1842.777344 0)"/>
      <use xlink:href="#DejaVuSans-73" transform="translate(1881.986328 0)"/>
      <use xlink:href="#DejaVuSans-29" transform="translate(1934.085938 0)"/>
     </g>
    </g>
    <g id="line2d_38">
     <path d="M 617.983125 264.113938 
L 627.983125 264.113938 
L 637.983125 264.113938 
" style="fill: none; stroke: #000000; stroke-width: 1.5; stroke-linecap: square"/>
    </g>
    <g id="text_46">
     <!-- LE::NoTable (4.888ns) -->
     <g transform="translate(645.983125 267.613938) scale(0.1 -0.1)">
      <defs>
       <path id="DejaVuSans-4e" d="M 628 4666 
L 1478 4666 
L 3547 763 
L 3547 4666 
L 4159 4666 
L 4159 0 
L 3309 0 
L 1241 3903 
L 1241 0 
L 628 0 
L 628 4666 
z
" transform="scale(0.015625)"/>
      </defs>
      <use xlink:href="#DejaVuSans-4c"/>
      <use xlink:href="#DejaVuSans-45" transform="translate(55.712891 0)"/>
      <use xlink:href="#DejaVuSans-3a" transform="translate(118.896484 0)"/>
      <use xlink:href="#DejaVuSans-3a" transform="translate(152.587891 0)"/>
      <use xlink:href="#DejaVuSans-4e" transform="translate(186.279297 0)"/>
      <use xlink:href="#DejaVuSans-6f" transform="translate(261.083984 0)"/>
      <use xlink:href="#DejaVuSans-54" transform="translate(322.265625 0)"/>
      <use xlink:href="#DejaVuSans-61" transform="translate(366.849609 0)"/>
      <use xlink:href="#DejaVuSans-62" transform="translate(428.128906 0)"/>
      <use xlink:href="#DejaVuSans-6c" transform="translate(491.605469 0)"/>
      <use xlink:href="#DejaVuSans-65" transform="translate(519.388672 0)"/>
      <use xlink:href="#DejaVuSans-20" transform="translate(580.912109 0)"/>
      <use xlink:href="#DejaVuSans-28" transform="translate(612.699219 0)"/>
      <use xlink:href="#DejaVuSans-34" transform="translate(651.712891 0)"/>
      <use xlink:href="#DejaVuSans-2e" transform="translate(715.335938 0)"/>
      <use xlink:href="#DejaVuSans-38" transform="translate(747.123047 0)"/>
      <use xlink:href="#DejaVuSans-38" transform="translate(810.746094 0)"/>
      <use xlink:href="#DejaVuSans-38" transform="translate(874.369141 0)"/>
      <use xlink:href="#DejaVuSans-6e" transform="translate(937.992188 0)"/>
      <use xlink:href="#DejaVuSans-73" transform="translate(1001.371094 0)"/>
      <use xlink:href="#DejaVuSans-29" transform="translate(1053.470703 0)"/>
     </g>
    </g>
    <g id="line2d_39">
     <path d="M 617.983125 278.792063 
L 627.983125 278.792063 
L 637.983125 278.792063 
" style="fill: none; stroke: #cc00cc; stroke-width: 1.5; stroke-linecap: square"/>
    </g>
    <g id="text_47">
     <!-- BE::NoTable (4.766ns) -->
     <g transform="translate(645.983125 282.292063) scale(0.1 -0.1)">
      <use xlink:href="#DejaVuSans-42"/>
      <use xlink:href="#DejaVuSans-45" transform="translate(68.603516 0)"/>
      <use xlink:href="#DejaVuSans-3a" transform="translate(131.787109 0)"/>
      <use xlink:href="#DejaVuSans-3a" transform="translate(165.478516 0)"/>
      <use xlink:href="#DejaVuSans-4e" transform="translate(199.169922 0)"/>
      <use xlink:href="#DejaVuSans-6f" transform="translate(273.974609 0)"/>
      <use xlink:href="#DejaVuSans-54" transform="translate(335.15625 0)"/>
      <use xlink:href="#DejaVuSans-61" transform="translate(379.740234 0)"/>
      <use xlink:href="#DejaVuSans-62" transform="translate(441.019531 0)"/>
      <use xlink:href="#DejaVuSans-6c" transform="translate(504.496094 0)"/>
      <use xlink:href="#DejaVuSans-65" transform="translate(532.279297 0)"/>
      <use xlink:href="#DejaVuSans-20" transform="translate(593.802734 0)"/>
      <use xlink:href="#DejaVuSans-28" transform="translate(625.589844 0)"/>
      <use xlink:href="#DejaVuSans-34" transform="translate(664.603516 0)"/>
      <use xlink:href="#DejaVuSans-2e" transform="translate(728.226562 0)"/>
      <use xlink:href="#DejaVuSans-37" transform="translate(760.013672 0)"/>
      <use xlink:href="#DejaVuSans-36" transform="translate(823.636719 0)"/>
      <use xlink:href="#DejaVuSans-36" transform="translate(887.259766 0)"/>
      <use xlink:href="#DejaVuSans-6e" transform="translate(950.882812 0)"/>
      <use xlink:href="#DejaVuSans-73" transform="translate(1014.261719 0)"/>
      <use xlink:href="#DejaVuSans-29" transform="translate(1066.361328 0)"/>
     </g>
    </g>
    <g id="patch_26">
     <path d="M 617.983125 296.970188 
L 637.983125 296.970188 
L 637.983125 289.970188 
L 617.983125 289.970188 
z
" style="fill: #0000ff; fill-opacity: 0.3; stroke: #000000; stroke-linejoin: miter"/>
    </g>
    <g id="text_48">
     <!-- table hit ratio -->
     <g transform="translate(645.983125 296.970188) scale(0.1 -0.1)">
      <use xlink:href="#DejaVuSans-74"/>
      <use xlink:href="#DejaVuSans-61" transform="translate(39.208984 0)"/>
      <use xlink:href="#DejaVuSans-62" transform="translate(100.488281 0)"/>
      <use xlink:href="#DejaVuSans-6c" transform="translate(163.964844 0)"/>
      <use xlink:href="#DejaVuSans-65" transform="translate(191.748047 0)"/>
      <use xlink:href="#DejaVuSans-20" transform="translate(253.271484 0)"/>
      <use xlink:href="#DejaVuSans-68" transform="translate(285.058594 0)"/>
      <use xlink:href="#DejaVuSans-69" transform="translate(348.4375 0)"/>
      <use xlink:href="#DejaVuSans-74" transform="translate(376.220703 0)"/>
      <use xlink:href="#DejaVuSans-20" transform="translate(415.429688 0)"/>
      <use xlink:href="#DejaVuSans-72" transform="translate(447.216797 0)"/>
      <use xlink:href="#DejaVuSans-61" transform="translate(488.330078 0)"/>
      <use xlink:href="#DejaVuSans-74" transform="translate(549.609375 0)"/>
      <use xlink:href="#DejaVuSans-69" transform="translate(588.818359 0)"/>
      <use xlink:href="#DejaVuSans-6f" transform="translate(616.601562 0)"/>
     </g>
    </g>
    <g id="line2d_40">
     <path d="M 617.983125 308.148313 
L 627.983125 308.148313 
L 637.983125 308.148313 
" style="fill: none; stroke-dasharray: 5.55,2.4; stroke-dashoffset: 0; stroke: #808080; stroke-opacity: 0.3; stroke-width: 1.5"/>
    </g>
    <g id="text_49">
     <!-- table hit ratio 100% line -->
     <g transform="translate(645.983125 311.648313) scale(0.1 -0.1)">
      <use xlink:href="#DejaVuSans-74"/>
      <use xlink:href="#DejaVuSans-61" transform="translate(39.208984 0)"/>
      <use xlink:href="#DejaVuSans-62" transform="translate(100.488281 0)"/>
      <use xlink:href="#DejaVuSans-6c" transform="translate(163.964844 0)"/>
      <use xlink:href="#DejaVuSans-65" transform="translate(191.748047 0)"/>
      <use xlink:href="#DejaVuSans-20" transform="translate(253.271484 0)"/>
      <use xlink:href="#DejaVuSans-68" transform="translate(285.058594 0)"/>
      <use xlink:href="#DejaVuSans-69" transform="translate(348.4375 0)"/>
      <use xlink:href="#DejaVuSans-74" transform="translate(376.220703 0)"/>
      <use xlink:href="#DejaVuSans-20" transform="translate(415.429688 0)"/>
      <use xlink:href="#DejaVuSans-72" transform="translate(447.216797 0)"/>
      <use xlink:href="#DejaVuSans-61" transform="translate(488.330078 0)"/>
      <use xlink:href="#DejaVuSans-74" transform="translate(549.609375 0)"/>
      <use xlink:href="#DejaVuSans-69" transform="translate(588.818359 0)"/>
      <use xlink:href="#DejaVuSans-6f" transform="translate(616.601562 0)"/>
      <use xlink:href="#DejaVuSans-20" transform="translate(677.783203 0)"/>
      <use xlink:href="#DejaVuSans-31" transform="translate(709.570312 0)"/>
      <use xlink:href="#DejaVuSans-30" transform="translate(773.193359 0)"/>
      <use xlink:href="#DejaVuSans-30" transform="translate(836.816406 0)"/>
      <use xlink:href="#DejaVuSans-25" transform="translate(900.439453 0)"/>
      <use xlink:href="#DejaVuSans-20" transform="translate(995.458984 0)"/>
      <use xlink:href="#DejaVuSans-6c" transform="translate(1027.246094 0)"/>
      <use xlink:href="#DejaVuSans-69" transform="translate(1055.029297 0)"/>
      <use xlink:href="#DejaVuSans-6e" transform="translate(1082.8125 0)"/>
      <use xlink:href="#DejaVuSans-65" transform="translate(1146.191406 0)"/>
     </g>
    </g>
   </g>
  </g>
 </g>
 <defs>
  <clipPath id="p80a07c809a">
   <rect x="50.983125" y="35.7555" width="558" height="443.52"/>
  </clipPath>
 </defs>
</svg>
