<?xml version="1.0" encoding="utf-8" standalone="no"?>
<!DOCTYPE svg PUBLIC "-//W3C//DTD SVG 1.1//EN"
  "http://www.w3.org/Graphics/SVG/1.1/DTD/svg11.dtd">
<svg xmlns:xlink="http://www.w3.org/1999/xlink" width="857.426562pt" height="516.83175pt" viewBox="0 0 857.426562 516.83175" xmlns="http://www.w3.org/2000/svg" version="1.1">
 <metadata>
  <rdf:RDF xmlns:dc="http://purl.org/dc/elements/1.1/" xmlns:cc="http://creativecommons.org/ns#" xmlns:rdf="http://www.w3.org/1999/02/22-rdf-syntax-ns#">
   <cc:Work>
    <dc:type rdf:resource="http://purl.org/dc/dcmitype/StillImage"/>
    <dc:date>2024-01-02T14:34:27.059277</dc:date>
    <dc:format>image/svg+xml</dc:format>
    <dc:creator>
     <cc:Agent>
      <dc:title>Matplotlib v3.7.3, https://matplotlib.org/</dc:title>
     </cc:Agent>
    </dc:creator>
   </cc:Work>
  </rdf:RDF>
 </metadata>
 <defs>
  <style type="text/css">*{stroke-linejoin: round; stroke-linecap: butt}</style>
 </defs>
 <g id="figure_1">
  <g id="patch_1">
   <path d="M 0 516.83175 
L 857.426562 516.83175 
L 857.426562 0 
L 0 0 
z
" style="fill: #ffffff"/>
  </g>
  <g id="axes_1">
   <g id="patch_2">
    <path d="M 34.240625 479.2755 
L 592.240625 479.2755 
L 592.240625 35.7555 
L 34.240625 35.7555 
z
" style="fill: #ffffff"/>
   </g>
   <g id="PolyCollection_1">
    <path d="M 65.240625 147.304923 
L 65.240625 151.164748 
L 96.240625 204.712169 
L 127.240625 231.019293 
L 158.240625 245.291589 
L 189.240625 242.615613 
L 220.240625 256.269706 
L 251.240625 256.656666 
L 282.240625 256.651177 
L 313.240625 256.424036 
L 344.240625 255.839715 
L 375.240625 255.847223 
L 406.240625 255.538374 
L 437.240625 257.69262 
L 468.240625 256.908919 
L 499.240625 255.546387 
L 530.240625 248.067445 
L 561.240625 246.660557 
L 561.240625 244.177714 
L 561.240625 244.177714 
L 530.240625 246.203246 
L 499.240625 253.948764 
L 468.240625 254.642617 
L 437.240625 256.57723 
L 406.240625 254.349352 
L 375.240625 254.559332 
L 344.240625 255.294765 
L 313.240625 253.000323 
L 282.240625 254.608609 
L 251.240625 254.735114 
L 220.240625 253.59272 
L 189.240625 240.800123 
L 158.240625 243.190785 
L 127.240625 229.860746 
L 96.240625 203.436455 
L 65.240625 147.304923 
z
" clip-path="url(#pd1f4b4c358)" style="fill: #1f77b4; fill-opacity: 0.3"/>
   </g>
   <g id="PolyCollection_2">
    <path d="M 65.240625 139.450125 
L 65.240625 144.963664 
L 96.240625 197.007536 
L 127.240625 225.725639 
L 158.240625 238.274627 
L 189.240625 245.133789 
L 220.240625 248.913672 
L 251.240625 250.114934 
L 282.240625 249.560394 
L 313.240625 248.60924 
L 344.240625 249.25817 
L 375.240625 248.13666 
L 406.240625 162.509571 
L 437.240625 248.459705 
L 468.240625 248.93645 
L 499.240625 248.361719 
L 530.240625 242.423615 
L 561.240625 242.368029 
L 561.240625 241.118815 
L 561.240625 241.118815 
L 530.240625 239.249189 
L 499.240625 246.499981 
L 468.240625 247.293082 
L 437.240625 246.113083 
L 406.240625 160.820208 
L 375.240625 246.777724 
L 344.240625 246.695259 
L 313.240625 246.351329 
L 282.240625 247.450756 
L 251.240625 247.113767 
L 220.240625 247.200144 
L 189.240625 242.67101 
L 158.240625 237.383224 
L 127.240625 224.608357 
L 96.240625 195.065415 
L 65.240625 139.450125 
z
" clip-path="url(#pd1f4b4c358)" style="fill: #ff7f0e; fill-opacity: 0.3"/>
   </g>
   <g id="PolyCollection_3">
    <path d="M 65.240625 146.390175 
L 65.240625 148.570353 
L 96.240625 200.202468 
L 127.240625 228.016864 
L 158.240625 240.812616 
L 189.240625 246.33524 
L 220.240625 250.159605 
L 251.240625 251.47999 
L 282.240625 250.037328 
L 313.240625 250.2386 
L 344.240625 249.119614 
L 375.240625 249.178607 
L 406.240625 251.225592 
L 437.240625 250.055183 
L 468.240625 250.953401 
L 499.240625 251.440304 
L 530.240625 250.860904 
L 561.240625 251.452165 
L 561.240625 248.97784 
L 561.240625 248.97784 
L 530.240625 248.054826 
L 499.240625 249.556545 
L 468.240625 249.548848 
L 437.240625 248.15502 
L 406.240625 249.680842 
L 375.240625 246.907258 
L 344.240625 247.091936 
L 313.240625 248.681547 
L 282.240625 247.850777 
L 251.240625 250.258601 
L 220.240625 248.793161 
L 189.240625 244.005402 
L 158.240625 239.276446 
L 127.240625 227.223005 
L 96.240625 196.446056 
L 65.240625 146.390175 
z
" clip-path="url(#pd1f4b4c358)" style="fill: #2ca02c; fill-opacity: 0.3"/>
   </g>
   <g id="PolyCollection_4">
    <path d="M 65.240625 140.453648 
L 65.240625 143.090948 
L 96.240625 195.134062 
L 127.240625 222.261735 
L 158.240625 236.317111 
L 189.240625 243.862429 
L 220.240625 246.201669 
L 251.240625 244.771562 
L 282.240625 246.760688 
L 313.240625 245.43778 
L 344.240625 246.6492 
L 375.240625 246.746051 
L 406.240625 246.175043 
L 437.240625 245.824235 
L 468.240625 246.227096 
L 499.240625 247.429178 
L 530.240625 245.906069 
L 561.240625 246.464774 
L 561.240625 244.686005 
L 561.240625 244.686005 
L 530.240625 244.462587 
L 499.240625 245.060915 
L 468.240625 243.827474 
L 437.240625 243.965652 
L 406.240625 244.02616 
L 375.240625 245.071451 
L 344.240625 245.261998 
L 313.240625 242.085301 
L 282.240625 245.415318 
L 251.240625 243.607337 
L 220.240625 242.934304 
L 189.240625 238.943306 
L 158.240625 235.3599 
L 127.240625 221.168554 
L 96.240625 192.390259 
L 65.240625 140.453648 
z
" clip-path="url(#pd1f4b4c358)" style="fill: #d62728; fill-opacity: 0.3"/>
   </g>
   <g id="PolyCollection_5">
    <path d="M 65.240625 59.935882 
L 65.240625 73.466814 
L 96.240625 73.879927 
L 127.240625 74.40027 
L 158.240625 73.897783 
L 189.240625 76.233552 
L 220.240625 78.335903 
L 251.240625 74.075363 
L 282.240625 72.227979 
L 313.240625 71.599523 
L 344.240625 73.426181 
L 375.240625 70.375989 
L 406.240625 71.345062 
L 437.240625 68.267771 
L 468.240625 75.337417 
L 499.240625 73.270621 
L 530.240625 72.235519 
L 561.240625 75.919593 
L 561.240625 68.732117 
L 561.240625 68.732117 
L 530.240625 61.938921 
L 499.240625 64.656698 
L 468.240625 62.595895 
L 437.240625 57.323599 
L 406.240625 59.921212 
L 375.240625 60.687562 
L 344.240625 60.925997 
L 313.240625 60.925776 
L 282.240625 62.913735 
L 251.240625 66.355588 
L 220.240625 69.852712 
L 189.240625 66.237696 
L 158.240625 60.987514 
L 127.240625 64.16948 
L 96.240625 60.709519 
L 65.240625 59.935882 
z
" clip-path="url(#pd1f4b4c358)" style="fill: #9467bd; fill-opacity: 0.3"/>
   </g>
   <g id="PolyCollection_6">
    <path d="M 65.240625 63.981615 
L 65.240625 71.446487 
L 96.240625 71.883387 
L 127.240625 69.597715 
L 158.240625 69.890127 
L 189.240625 70.667645 
L 220.240625 71.805244 
L 251.240625 73.761877 
L 282.240625 73.660925 
L 313.240625 70.401006 
L 344.240625 73.679317 
L 375.240625 73.871283 
L 406.240625 76.310749 
L 437.240625 72.821133 
L 468.240625 71.693314 
L 499.240625 73.135125 
L 530.240625 75.343064 
L 561.240625 74.049968 
L 561.240625 65.52157 
L 561.240625 65.52157 
L 530.240625 65.267866 
L 499.240625 66.409187 
L 468.240625 64.348732 
L 437.240625 66.209114 
L 406.240625 67.872797 
L 375.240625 65.822406 
L 344.240625 68.079717 
L 313.240625 64.063417 
L 282.240625 63.949657 
L 251.240625 66.426286 
L 220.240625 65.060441 
L 189.240625 62.507089 
L 158.240625 56.8755 
L 127.240625 59.54624 
L 96.240625 63.716869 
L 65.240625 63.981615 
z
" clip-path="url(#pd1f4b4c358)" style="fill: #8c564b; fill-opacity: 0.3"/>
   </g>
   <g id="patch_3">
    <path d="M 52.840625 479.2755 
L 77.640625 479.2755 
L 77.640625 443.339092 
L 52.840625 443.339092 
z
" clip-path="url(#pd1f4b4c358)" style="fill: #0000ff; fill-opacity: 0.3; stroke: #000000; stroke-linejoin: miter"/>
   </g>
   <g id="patch_4">
    <path d="M 83.840625 479.2755 
L 108.640625 479.2755 
L 108.640625 436.934512 
L 83.840625 436.934512 
z
" clip-path="url(#pd1f4b4c358)" style="fill: #0000ff; fill-opacity: 0.3; stroke: #000000; stroke-linejoin: miter"/>
   </g>
   <g id="patch_5">
    <path d="M 114.840625 479.2755 
L 139.640625 479.2755 
L 139.640625 432.125955 
L 114.840625 432.125955 
z
" clip-path="url(#pd1f4b4c358)" style="fill: #0000ff; fill-opacity: 0.3; stroke: #000000; stroke-linejoin: miter"/>
   </g>
   <g id="patch_6">
    <path d="M 145.840625 479.2755 
L 170.640625 479.2755 
L 170.640625 428.608491 
L 145.840625 428.608491 
z
" clip-path="url(#pd1f4b4c358)" style="fill: #0000ff; fill-opacity: 0.3; stroke: #000000; stroke-linejoin: miter"/>
   </g>
   <g id="patch_7">
    <path d="M 176.840625 479.2755 
L 201.640625 479.2755 
L 201.640625 426.058049 
L 176.840625 426.058049 
z
" clip-path="url(#pd1f4b4c358)" style="fill: #0000ff; fill-opacity: 0.3; stroke: #000000; stroke-linejoin: miter"/>
   </g>
   <g id="patch_8">
    <path d="M 207.840625 479.2755 
L 232.640625 479.2755 
L 232.640625 424.159022 
L 207.840625 424.159022 
z
" clip-path="url(#pd1f4b4c358)" style="fill: #0000ff; fill-opacity: 0.3; stroke: #000000; stroke-linejoin: miter"/>
   </g>
   <g id="patch_9">
    <path d="M 238.840625 479.2755 
L 263.640625 479.2755 
L 263.640625 422.703125 
L 238.840625 422.703125 
z
" clip-path="url(#pd1f4b4c358)" style="fill: #0000ff; fill-opacity: 0.3; stroke: #000000; stroke-linejoin: miter"/>
   </g>
   <g id="patch_10">
    <path d="M 269.840625 479.2755 
L 294.640625 479.2755 
L 294.640625 421.558972 
L 269.840625 421.558972 
z
" clip-path="url(#pd1f4b4c358)" style="fill: #0000ff; fill-opacity: 0.3; stroke: #000000; stroke-linejoin: miter"/>
   </g>
   <g id="patch_11">
    <path d="M 300.840625 479.2755 
L 325.640625 479.2755 
L 325.640625 420.646242 
L 300.840625 420.646242 
z
" clip-path="url(#pd1f4b4c358)" style="fill: #0000ff; fill-opacity: 0.3; stroke: #000000; stroke-linejoin: miter"/>
   </g>
   <g id="patch_12">
    <path d="M 331.840625 479.2755 
L 356.640625 479.2755 
L 356.640625 419.892536 
L 331.840625 419.892536 
z
" clip-path="url(#pd1f4b4c358)" style="fill: #0000ff; fill-opacity: 0.3; stroke: #000000; stroke-linejoin: miter"/>
   </g>
   <g id="patch_13">
    <path d="M 362.840625 479.2755 
L 387.640625 479.2755 
L 387.640625 419.248282 
L 362.840625 419.248282 
z
" clip-path="url(#pd1f4b4c358)" style="fill: #0000ff; fill-opacity: 0.3; stroke: #000000; stroke-linejoin: miter"/>
   </g>
   <g id="patch_14">
    <path d="M 393.840625 479.2755 
L 418.640625 479.2755 
L 418.640625 418.713767 
L 393.840625 418.713767 
z
" clip-path="url(#pd1f4b4c358)" style="fill: #0000ff; fill-opacity: 0.3; stroke: #000000; stroke-linejoin: miter"/>
   </g>
   <g id="patch_15">
    <path d="M 424.840625 479.2755 
L 449.640625 479.2755 
L 449.640625 418.246164 
L 424.840625 418.246164 
z
" clip-path="url(#pd1f4b4c358)" style="fill: #0000ff; fill-opacity: 0.3; stroke: #000000; stroke-linejoin: miter"/>
   </g>
   <g id="patch_16">
    <path d="M 455.840625 479.2755 
L 480.640625 479.2755 
L 480.640625 417.83988 
L 455.840625 417.83988 
z
" clip-path="url(#pd1f4b4c358)" style="fill: #0000ff; fill-opacity: 0.3; stroke: #000000; stroke-linejoin: miter"/>
   </g>
   <g id="patch_17">
    <path d="M 486.840625 479.2755 
L 511.640625 479.2755 
L 511.640625 417.477464 
L 486.840625 417.477464 
z
" clip-path="url(#pd1f4b4c358)" style="fill: #0000ff; fill-opacity: 0.3; stroke: #000000; stroke-linejoin: miter"/>
   </g>
   <g id="patch_18">
    <path d="M 517.840625 479.2755 
L 542.640625 479.2755 
L 542.640625 417.152407 
L 517.840625 417.152407 
z
" clip-path="url(#pd1f4b4c358)" style="fill: #0000ff; fill-opacity: 0.3; stroke: #000000; stroke-linejoin: miter"/>
   </g>
   <g id="patch_19">
    <path d="M 548.840625 479.2755 
L 573.640625 479.2755 
L 573.640625 416.87218 
L 548.840625 416.87218 
z
" clip-path="url(#pd1f4b4c358)" style="fill: #0000ff; fill-opacity: 0.3; stroke: #000000; stroke-linejoin: miter"/>
   </g>
   <g id="matplotlib.axis_1">
    <g id="xtick_1">
     <g id="line2d_1">
      <defs>
       <path id="m38aceb6e0d" d="M 0 0 
L 0 3.5 
" style="stroke: #000000; stroke-width: 0.8"/>
      </defs>
      <g>
       <use xlink:href="#m38aceb6e0d" x="65.240625" y="479.2755" style="stroke: #000000; stroke-width: 0.8"/>
      </g>
     </g>
     <g id="text_1">
      <!-- 1 -->
      <g transform="translate(62.059375 493.873938) scale(0.1 -0.1)">
       <defs>
        <path id="DejaVuSans-31" d="M 794 531 
L 1825 531 
L 1825 4091 
L 703 3866 
L 703 4441 
L 1819 4666 
L 2450 4666 
L 2450 531 
L 3481 531 
L 3481 0 
L 794 0 
L 794 531 
z
" transform="scale(0.015625)"/>
       </defs>
       <use xlink:href="#DejaVuSans-31"/>
      </g>
     </g>
    </g>
    <g id="xtick_2">
     <g id="line2d_2">
      <g>
       <use xlink:href="#m38aceb6e0d" x="96.240625" y="479.2755" style="stroke: #000000; stroke-width: 0.8"/>
      </g>
     </g>
     <g id="text_2">
      <!-- 2 -->
      <g transform="translate(93.059375 493.873938) scale(0.1 -0.1)">
       <defs>
        <path id="DejaVuSans-32" d="M 1228 531 
L 3431 531 
L 3431 0 
L 469 0 
L 469 531 
Q 828 903 1448 1529 
Q 2069 2156 2228 2338 
Q 2531 2678 2651 2914 
Q 2772 3150 2772 3378 
Q 2772 3750 2511 3984 
Q 2250 4219 1831 4219 
Q 1534 4219 1204 4116 
Q 875 4013 500 3803 
L 500 4441 
Q 881 4594 1212 4672 
Q 1544 4750 1819 4750 
Q 2544 4750 2975 4387 
Q 3406 4025 3406 3419 
Q 3406 3131 3298 2873 
Q 3191 2616 2906 2266 
Q 2828 2175 2409 1742 
Q 1991 1309 1228 531 
z
" transform="scale(0.015625)"/>
       </defs>
       <use xlink:href="#DejaVuSans-32"/>
      </g>
     </g>
    </g>
    <g id="xtick_3">
     <g id="line2d_3">
      <g>
       <use xlink:href="#m38aceb6e0d" x="127.240625" y="479.2755" style="stroke: #000000; stroke-width: 0.8"/>
      </g>
     </g>
     <g id="text_3">
      <!-- 3 -->
      <g transform="translate(124.059375 493.873938) scale(0.1 -0.1)">
       <defs>
        <path id="DejaVuSans-33" d="M 2597 2516 
Q 3050 2419 3304 2112 
Q 3559 1806 3559 1356 
Q 3559 666 3084 287 
Q 2609 -91 1734 -91 
Q 1441 -91 1130 -33 
Q 819 25 488 141 
L 488 750 
Q 750 597 1062 519 
Q 1375 441 1716 441 
Q 2309 441 2620 675 
Q 2931 909 2931 1356 
Q 2931 1769 2642 2001 
Q 2353 2234 1838 2234 
L 1294 2234 
L 1294 2753 
L 1863 2753 
Q 2328 2753 2575 2939 
Q 2822 3125 2822 3475 
Q 2822 3834 2567 4026 
Q 2313 4219 1838 4219 
Q 1578 4219 1281 4162 
Q 984 4106 628 3988 
L 628 4550 
Q 988 4650 1302 4700 
Q 1616 4750 1894 4750 
Q 2613 4750 3031 4423 
Q 3450 4097 3450 3541 
Q 3450 3153 3228 2886 
Q 3006 2619 2597 2516 
z
" transform="scale(0.015625)"/>
       </defs>
       <use xlink:href="#DejaVuSans-33"/>
      </g>
     </g>
    </g>
    <g id="xtick_4">
     <g id="line2d_4">
      <g>
       <use xlink:href="#m38aceb6e0d" x="158.240625" y="479.2755" style="stroke: #000000; stroke-width: 0.8"/>
      </g>
     </g>
     <g id="text_4">
      <!-- 4 -->
      <g transform="translate(155.059375 493.873938) scale(0.1 -0.1)">
       <defs>
        <path id="DejaVuSans-34" d="M 2419 4116 
L 825 1625 
L 2419 1625 
L 2419 4116 
z
M 2253 4666 
L 3047 4666 
L 3047 1625 
L 3713 1625 
L 3713 1100 
L 3047 1100 
L 3047 0 
L 2419 0 
L 2419 1100 
L 313 1100 
L 313 1709 
L 2253 4666 
z
" transform="scale(0.015625)"/>
       </defs>
       <use xlink:href="#DejaVuSans-34"/>
      </g>
     </g>
    </g>
    <g id="xtick_5">
     <g id="line2d_5">
      <g>
       <use xlink:href="#m38aceb6e0d" x="189.240625" y="479.2755" style="stroke: #000000; stroke-width: 0.8"/>
      </g>
     </g>
     <g id="text_5">
      <!-- 5 -->
      <g transform="translate(186.059375 493.873938) scale(0.1 -0.1)">
       <defs>
        <path id="DejaVuSans-35" d="M 691 4666 
L 3169 4666 
L 3169 4134 
L 1269 4134 
L 1269 2991 
Q 1406 3038 1543 3061 
Q 1681 3084 1819 3084 
Q 2600 3084 3056 2656 
Q 3513 2228 3513 1497 
Q 3513 744 3044 326 
Q 2575 -91 1722 -91 
Q 1428 -91 1123 -41 
Q 819 9 494 109 
L 494 744 
Q 775 591 1075 516 
Q 1375 441 1709 441 
Q 2250 441 2565 725 
Q 2881 1009 2881 1497 
Q 2881 1984 2565 2268 
Q 2250 2553 1709 2553 
Q 1456 2553 1204 2497 
Q 953 2441 691 2322 
L 691 4666 
z
" transform="scale(0.015625)"/>
       </defs>
       <use xlink:href="#DejaVuSans-35"/>
      </g>
     </g>
    </g>
    <g id="xtick_6">
     <g id="line2d_6">
      <g>
       <use xlink:href="#m38aceb6e0d" x="220.240625" y="479.2755" style="stroke: #000000; stroke-width: 0.8"/>
      </g>
     </g>
     <g id="text_6">
      <!-- 6 -->
      <g transform="translate(217.059375 493.873938) scale(0.1 -0.1)">
       <defs>
        <path id="DejaVuSans-36" d="M 2113 2584 
Q 1688 2584 1439 2293 
Q 1191 2003 1191 1497 
Q 1191 994 1439 701 
Q 1688 409 2113 409 
Q 2538 409 2786 701 
Q 3034 994 3034 1497 
Q 3034 2003 2786 2293 
Q 2538 2584 2113 2584 
z
M 3366 4563 
L 3366 3988 
Q 3128 4100 2886 4159 
Q 2644 4219 2406 4219 
Q 1781 4219 1451 3797 
Q 1122 3375 1075 2522 
Q 1259 2794 1537 2939 
Q 1816 3084 2150 3084 
Q 2853 3084 3261 2657 
Q 3669 2231 3669 1497 
Q 3669 778 3244 343 
Q 2819 -91 2113 -91 
Q 1303 -91 875 529 
Q 447 1150 447 2328 
Q 447 3434 972 4092 
Q 1497 4750 2381 4750 
Q 2619 4750 2861 4703 
Q 3103 4656 3366 4563 
z
" transform="scale(0.015625)"/>
       </defs>
       <use xlink:href="#DejaVuSans-36"/>
      </g>
     </g>
    </g>
    <g id="xtick_7">
     <g id="line2d_7">
      <g>
       <use xlink:href="#m38aceb6e0d" x="251.240625" y="479.2755" style="stroke: #000000; stroke-width: 0.8"/>
      </g>
     </g>
     <g id="text_7">
      <!-- 7 -->
      <g transform="translate(248.059375 493.873938) scale(0.1 -0.1)">
       <defs>
        <path id="DejaVuSans-37" d="M 525 4666 
L 3525 4666 
L 3525 4397 
L 1831 0 
L 1172 0 
L 2766 4134 
L 525 4134 
L 525 4666 
z
" transform="scale(0.015625)"/>
       </defs>
       <use xlink:href="#DejaVuSans-37"/>
      </g>
     </g>
    </g>
    <g id="xtick_8">
     <g id="line2d_8">
      <g>
       <use xlink:href="#m38aceb6e0d" x="282.240625" y="479.2755" style="stroke: #000000; stroke-width: 0.8"/>
      </g>
     </g>
     <g id="text_8">
      <!-- 8 -->
      <g transform="translate(279.059375 493.873938) scale(0.1 -0.1)">
       <defs>
        <path id="DejaVuSans-38" d="M 2034 2216 
Q 1584 2216 1326 1975 
Q 1069 1734 1069 1313 
Q 1069 891 1326 650 
Q 1584 409 2034 409 
Q 2484 409 2743 651 
Q 3003 894 3003 1313 
Q 3003 1734 2745 1975 
Q 2488 2216 2034 2216 
z
M 1403 2484 
Q 997 2584 770 2862 
Q 544 3141 544 3541 
Q 544 4100 942 4425 
Q 1341 4750 2034 4750 
Q 2731 4750 3128 4425 
Q 3525 4100 3525 3541 
Q 3525 3141 3298 2862 
Q 3072 2584 2669 2484 
Q 3125 2378 3379 2068 
Q 3634 1759 3634 1313 
Q 3634 634 3220 271 
Q 2806 -91 2034 -91 
Q 1263 -91 848 271 
Q 434 634 434 1313 
Q 434 1759 690 2068 
Q 947 2378 1403 2484 
z
M 1172 3481 
Q 1172 3119 1398 2916 
Q 1625 2713 2034 2713 
Q 2441 2713 2670 2916 
Q 2900 3119 2900 3481 
Q 2900 3844 2670 4047 
Q 2441 4250 2034 4250 
Q 1625 4250 1398 4047 
Q 1172 3844 1172 3481 
z
" transform="scale(0.015625)"/>
       </defs>
       <use xlink:href="#DejaVuSans-38"/>
      </g>
     </g>
    </g>
    <g id="xtick_9">
     <g id="line2d_9">
      <g>
       <use xlink:href="#m38aceb6e0d" x="313.240625" y="479.2755" style="stroke: #000000; stroke-width: 0.8"/>
      </g>
     </g>
     <g id="text_9">
      <!-- 9 -->
      <g transform="translate(310.059375 493.873938) scale(0.1 -0.1)">
       <defs>
        <path id="DejaVuSans-39" d="M 703 97 
L 703 672 
Q 941 559 1184 500 
Q 1428 441 1663 441 
Q 2288 441 2617 861 
Q 2947 1281 2994 2138 
Q 2813 1869 2534 1725 
Q 2256 1581 1919 1581 
Q 1219 1581 811 2004 
Q 403 2428 403 3163 
Q 403 3881 828 4315 
Q 1253 4750 1959 4750 
Q 2769 4750 3195 4129 
Q 3622 3509 3622 2328 
Q 3622 1225 3098 567 
Q 2575 -91 1691 -91 
Q 1453 -91 1209 -44 
Q 966 3 703 97 
z
M 1959 2075 
Q 2384 2075 2632 2365 
Q 2881 2656 2881 3163 
Q 2881 3666 2632 3958 
Q 2384 4250 1959 4250 
Q 1534 4250 1286 3958 
Q 1038 3666 1038 3163 
Q 1038 2656 1286 2365 
Q 1534 2075 1959 2075 
z
" transform="scale(0.015625)"/>
       </defs>
       <use xlink:href="#DejaVuSans-39"/>
      </g>
     </g>
    </g>
    <g id="xtick_10">
     <g id="line2d_10">
      <g>
       <use xlink:href="#m38aceb6e0d" x="344.240625" y="479.2755" style="stroke: #000000; stroke-width: 0.8"/>
      </g>
     </g>
     <g id="text_10">
      <!-- 10 -->
      <g transform="translate(337.878125 493.873938) scale(0.1 -0.1)">
       <defs>
        <path id="DejaVuSans-30" d="M 2034 4250 
Q 1547 4250 1301 3770 
Q 1056 3291 1056 2328 
Q 1056 1369 1301 889 
Q 1547 409 2034 409 
Q 2525 409 2770 889 
Q 3016 1369 3016 2328 
Q 3016 3291 2770 3770 
Q 2525 4250 2034 4250 
z
M 2034 4750 
Q 2819 4750 3233 4129 
Q 3647 3509 3647 2328 
Q 3647 1150 3233 529 
Q 2819 -91 2034 -91 
Q 1250 -91 836 529 
Q 422 1150 422 2328 
Q 422 3509 836 4129 
Q 1250 4750 2034 4750 
z
" transform="scale(0.015625)"/>
       </defs>
       <use xlink:href="#DejaVuSans-31"/>
       <use xlink:href="#DejaVuSans-30" x="63.623047"/>
      </g>
     </g>
    </g>
    <g id="xtick_11">
     <g id="line2d_11">
      <g>
       <use xlink:href="#m38aceb6e0d" x="375.240625" y="479.2755" style="stroke: #000000; stroke-width: 0.8"/>
      </g>
     </g>
     <g id="text_11">
      <!-- 11 -->
      <g transform="translate(368.878125 493.873938) scale(0.1 -0.1)">
       <use xlink:href="#DejaVuSans-31"/>
       <use xlink:href="#DejaVuSans-31" x="63.623047"/>
      </g>
     </g>
    </g>
    <g id="xtick_12">
     <g id="line2d_12">
      <g>
       <use xlink:href="#m38aceb6e0d" x="406.240625" y="479.2755" style="stroke: #000000; stroke-width: 0.8"/>
      </g>
     </g>
     <g id="text_12">
      <!-- 12 -->
      <g transform="translate(399.878125 493.873938) scale(0.1 -0.1)">
       <use xlink:href="#DejaVuSans-31"/>
       <use xlink:href="#DejaVuSans-32" x="63.623047"/>
      </g>
     </g>
    </g>
    <g id="xtick_13">
     <g id="line2d_13">
      <g>
       <use xlink:href="#m38aceb6e0d" x="437.240625" y="479.2755" style="stroke: #000000; stroke-width: 0.8"/>
      </g>
     </g>
     <g id="text_13">
      <!-- 13 -->
      <g transform="translate(430.878125 493.873938) scale(0.1 -0.1)">
       <use xlink:href="#DejaVuSans-31"/>
       <use xlink:href="#DejaVuSans-33" x="63.623047"/>
      </g>
     </g>
    </g>
    <g id="xtick_14">
     <g id="line2d_14">
      <g>
       <use xlink:href="#m38aceb6e0d" x="468.240625" y="479.2755" style="stroke: #000000; stroke-width: 0.8"/>
      </g>
     </g>
     <g id="text_14">
      <!-- 14 -->
      <g transform="translate(461.878125 493.873938) scale(0.1 -0.1)">
       <use xlink:href="#DejaVuSans-31"/>
       <use xlink:href="#DejaVuSans-34" x="63.623047"/>
      </g>
     </g>
    </g>
    <g id="xtick_15">
     <g id="line2d_15">
      <g>
       <use xlink:href="#m38aceb6e0d" x="499.240625" y="479.2755" style="stroke: #000000; stroke-width: 0.8"/>
      </g>
     </g>
     <g id="text_15">
      <!-- 15 -->
      <g transform="translate(492.878125 493.873938) scale(0.1 -0.1)">
       <use xlink:href="#DejaVuSans-31"/>
       <use xlink:href="#DejaVuSans-35" x="63.623047"/>
      </g>
     </g>
    </g>
    <g id="xtick_16">
     <g id="line2d_16">
      <g>
       <use xlink:href="#m38aceb6e0d" x="530.240625" y="479.2755" style="stroke: #000000; stroke-width: 0.8"/>
      </g>
     </g>
     <g id="text_16">
      <!-- 16 -->
      <g transform="translate(523.878125 493.873938) scale(0.1 -0.1)">
       <use xlink:href="#DejaVuSans-31"/>
       <use xlink:href="#DejaVuSans-36" x="63.623047"/>
      </g>
     </g>
    </g>
    <g id="xtick_17">
     <g id="line2d_17">
      <g>
       <use xlink:href="#m38aceb6e0d" x="561.240625" y="479.2755" style="stroke: #000000; stroke-width: 0.8"/>
      </g>
     </g>
     <g id="text_17">
      <!-- 17 -->
      <g transform="translate(554.878125 493.873938) scale(0.1 -0.1)">
       <use xlink:href="#DejaVuSans-31"/>
       <use xlink:href="#DejaVuSans-37" x="63.623047"/>
      </g>
     </g>
    </g>
    <g id="text_18">
     <!-- Table Bits -->
     <g transform="translate(289.334375 507.552063) scale(0.1 -0.1)">
      <defs>
       <path id="DejaVuSans-54" d="M -19 4666 
L 3928 4666 
L 3928 4134 
L 2272 4134 
L 2272 0 
L 1638 0 
L 1638 4134 
L -19 4134 
L -19 4666 
z
" transform="scale(0.015625)"/>
       <path id="DejaVuSans-61" d="M 2194 1759 
Q 1497 1759 1228 1600 
Q 959 1441 959 1056 
Q 959 750 1161 570 
Q 1363 391 1709 391 
Q 2188 391 2477 730 
Q 2766 1069 2766 1631 
L 2766 1759 
L 2194 1759 
z
M 3341 1997 
L 3341 0 
L 2766 0 
L 2766 531 
Q 2569 213 2275 61 
Q 1981 -91 1556 -91 
Q 1019 -91 701 211 
Q 384 513 384 1019 
Q 384 1609 779 1909 
Q 1175 2209 1959 2209 
L 2766 2209 
L 2766 2266 
Q 2766 2663 2505 2880 
Q 2244 3097 1772 3097 
Q 1472 3097 1187 3025 
Q 903 2953 641 2809 
L 641 3341 
Q 956 3463 1253 3523 
Q 1550 3584 1831 3584 
Q 2591 3584 2966 3190 
Q 3341 2797 3341 1997 
z
" transform="scale(0.015625)"/>
       <path id="DejaVuSans-62" d="M 3116 1747 
Q 3116 2381 2855 2742 
Q 2594 3103 2138 3103 
Q 1681 3103 1420 2742 
Q 1159 2381 1159 1747 
Q 1159 1113 1420 752 
Q 1681 391 2138 391 
Q 2594 391 2855 752 
Q 3116 1113 3116 1747 
z
M 1159 2969 
Q 1341 3281 1617 3432 
Q 1894 3584 2278 3584 
Q 2916 3584 3314 3078 
Q 3713 2572 3713 1747 
Q 3713 922 3314 415 
Q 2916 -91 2278 -91 
Q 1894 -91 1617 61 
Q 1341 213 1159 525 
L 1159 0 
L 581 0 
L 581 4863 
L 1159 4863 
L 1159 2969 
z
" transform="scale(0.015625)"/>
       <path id="DejaVuSans-6c" d="M 603 4863 
L 1178 4863 
L 1178 0 
L 603 0 
L 603 4863 
z
" transform="scale(0.015625)"/>
       <path id="DejaVuSans-65" d="M 3597 1894 
L 3597 1613 
L 953 1613 
Q 991 1019 1311 708 
Q 1631 397 2203 397 
Q 2534 397 2845 478 
Q 3156 559 3463 722 
L 3463 178 
Q 3153 47 2828 -22 
Q 2503 -91 2169 -91 
Q 1331 -91 842 396 
Q 353 884 353 1716 
Q 353 2575 817 3079 
Q 1281 3584 2069 3584 
Q 2775 3584 3186 3129 
Q 3597 2675 3597 1894 
z
M 3022 2063 
Q 3016 2534 2758 2815 
Q 2500 3097 2075 3097 
Q 1594 3097 1305 2825 
Q 1016 2553 972 2059 
L 3022 2063 
z
" transform="scale(0.015625)"/>
       <path id="DejaVuSans-20" transform="scale(0.015625)"/>
       <path id="DejaVuSans-42" d="M 1259 2228 
L 1259 519 
L 2272 519 
Q 2781 519 3026 730 
Q 3272 941 3272 1375 
Q 3272 1813 3026 2020 
Q 2781 2228 2272 2228 
L 1259 2228 
z
M 1259 4147 
L 1259 2741 
L 2194 2741 
Q 2656 2741 2882 2914 
Q 3109 3088 3109 3444 
Q 3109 3797 2882 3972 
Q 2656 4147 2194 4147 
L 1259 4147 
z
M 628 4666 
L 2241 4666 
Q 2963 4666 3353 4366 
Q 3744 4066 3744 3513 
Q 3744 3084 3544 2831 
Q 3344 2578 2956 2516 
Q 3422 2416 3680 2098 
Q 3938 1781 3938 1306 
Q 3938 681 3513 340 
Q 3088 0 2303 0 
L 628 0 
L 628 4666 
z
" transform="scale(0.015625)"/>
       <path id="DejaVuSans-69" d="M 603 3500 
L 1178 3500 
L 1178 0 
L 603 0 
L 603 3500 
z
M 603 4863 
L 1178 4863 
L 1178 4134 
L 603 4134 
L 603 4863 
z
" transform="scale(0.015625)"/>
       <path id="DejaVuSans-74" d="M 1172 4494 
L 1172 3500 
L 2356 3500 
L 2356 3053 
L 1172 3053 
L 1172 1153 
Q 1172 725 1289 603 
Q 1406 481 1766 481 
L 2356 481 
L 2356 0 
L 1766 0 
Q 1100 0 847 248 
Q 594 497 594 1153 
L 594 3053 
L 172 3053 
L 172 3500 
L 594 3500 
L 594 4494 
L 1172 4494 
z
" transform="scale(0.015625)"/>
       <path id="DejaVuSans-73" d="M 2834 3397 
L 2834 2853 
Q 2591 2978 2328 3040 
Q 2066 3103 1784 3103 
Q 1356 3103 1142 2972 
Q 928 2841 928 2578 
Q 928 2378 1081 2264 
Q 1234 2150 1697 2047 
L 1894 2003 
Q 2506 1872 2764 1633 
Q 3022 1394 3022 966 
Q 3022 478 2636 193 
Q 2250 -91 1575 -91 
Q 1294 -91 989 -36 
Q 684 19 347 128 
L 347 722 
Q 666 556 975 473 
Q 1284 391 1588 391 
Q 1994 391 2212 530 
Q 2431 669 2431 922 
Q 2431 1156 2273 1281 
Q 2116 1406 1581 1522 
L 1381 1569 
Q 847 1681 609 1914 
Q 372 2147 372 2553 
Q 372 3047 722 3315 
Q 1072 3584 1716 3584 
Q 2034 3584 2315 3537 
Q 2597 3491 2834 3397 
z
" transform="scale(0.015625)"/>
      </defs>
      <use xlink:href="#DejaVuSans-54"/>
      <use xlink:href="#DejaVuSans-61" x="44.583984"/>
      <use xlink:href="#DejaVuSans-62" x="105.863281"/>
      <use xlink:href="#DejaVuSans-6c" x="169.339844"/>
      <use xlink:href="#DejaVuSans-65" x="197.123047"/>
      <use xlink:href="#DejaVuSans-20" x="258.646484"/>
      <use xlink:href="#DejaVuSans-42" x="290.433594"/>
      <use xlink:href="#DejaVuSans-69" x="359.037109"/>
      <use xlink:href="#DejaVuSans-74" x="386.820312"/>
      <use xlink:href="#DejaVuSans-73" x="426.029297"/>
     </g>
    </g>
   </g>
   <g id="matplotlib.axis_2">
    <g id="ytick_1">
     <g id="line2d_18">
      <defs>
       <path id="m588f5cf5c5" d="M 0 0 
L -3.5 0 
" style="stroke: #000000; stroke-width: 0.8"/>
      </defs>
      <g>
       <use xlink:href="#m588f5cf5c5" x="34.240625" y="479.2755" style="stroke: #000000; stroke-width: 0.8"/>
      </g>
     </g>
     <g id="text_19">
      <!-- 0 -->
      <g transform="translate(20.878125 483.074719) scale(0.1 -0.1)">
       <use xlink:href="#DejaVuSans-30"/>
      </g>
     </g>
    </g>
    <g id="ytick_2">
     <g id="line2d_19">
      <g>
       <use xlink:href="#m588f5cf5c5" x="34.240625" y="416.1807" style="stroke: #000000; stroke-width: 0.8"/>
      </g>
     </g>
     <g id="text_20">
      <!-- 1 -->
      <g transform="translate(20.878125 419.979919) scale(0.1 -0.1)">
       <use xlink:href="#DejaVuSans-31"/>
      </g>
     </g>
    </g>
    <g id="ytick_3">
     <g id="line2d_20">
      <g>
       <use xlink:href="#m588f5cf5c5" x="34.240625" y="353.0859" style="stroke: #000000; stroke-width: 0.8"/>
      </g>
     </g>
     <g id="text_21">
      <!-- 2 -->
      <g transform="translate(20.878125 356.885119) scale(0.1 -0.1)">
       <use xlink:href="#DejaVuSans-32"/>
      </g>
     </g>
    </g>
    <g id="ytick_4">
     <g id="line2d_21">
      <g>
       <use xlink:href="#m588f5cf5c5" x="34.240625" y="289.9911" style="stroke: #000000; stroke-width: 0.8"/>
      </g>
     </g>
     <g id="text_22">
      <!-- 3 -->
      <g transform="translate(20.878125 293.790319) scale(0.1 -0.1)">
       <use xlink:href="#DejaVuSans-33"/>
      </g>
     </g>
    </g>
    <g id="ytick_5">
     <g id="line2d_22">
      <g>
       <use xlink:href="#m588f5cf5c5" x="34.240625" y="226.8963" style="stroke: #000000; stroke-width: 0.8"/>
      </g>
     </g>
     <g id="text_23">
      <!-- 4 -->
      <g transform="translate(20.878125 230.695519) scale(0.1 -0.1)">
       <use xlink:href="#DejaVuSans-34"/>
      </g>
     </g>
    </g>
    <g id="ytick_6">
     <g id="line2d_23">
      <g>
       <use xlink:href="#m588f5cf5c5" x="34.240625" y="163.8015" style="stroke: #000000; stroke-width: 0.8"/>
      </g>
     </g>
     <g id="text_24">
      <!-- 5 -->
      <g transform="translate(20.878125 167.600719) scale(0.1 -0.1)">
       <use xlink:href="#DejaVuSans-35"/>
      </g>
     </g>
    </g>
    <g id="ytick_7">
     <g id="line2d_24">
      <g>
       <use xlink:href="#m588f5cf5c5" x="34.240625" y="100.7067" style="stroke: #000000; stroke-width: 0.8"/>
      </g>
     </g>
     <g id="text_25">
      <!-- 6 -->
      <g transform="translate(20.878125 104.505919) scale(0.1 -0.1)">
       <use xlink:href="#DejaVuSans-36"/>
      </g>
     </g>
    </g>
    <g id="ytick_8">
     <g id="line2d_25">
      <g>
       <use xlink:href="#m588f5cf5c5" x="34.240625" y="37.6119" style="stroke: #000000; stroke-width: 0.8"/>
      </g>
     </g>
     <g id="text_26">
      <!-- 7 -->
      <g transform="translate(20.878125 41.411119) scale(0.1 -0.1)">
       <use xlink:href="#DejaVuSans-37"/>
      </g>
     </g>
    </g>
    <g id="text_27">
     <!-- ns -->
     <g transform="translate(14.798438 263.288938) rotate(-90) scale(0.1 -0.1)">
      <defs>
       <path id="DejaVuSans-6e" d="M 3513 2113 
L 3513 0 
L 2938 0 
L 2938 2094 
Q 2938 2591 2744 2837 
Q 2550 3084 2163 3084 
Q 1697 3084 1428 2787 
Q 1159 2491 1159 1978 
L 1159 0 
L 581 0 
L 581 3500 
L 1159 3500 
L 1159 2956 
Q 1366 3272 1645 3428 
Q 1925 3584 2291 3584 
Q 2894 3584 3203 3211 
Q 3513 2838 3513 2113 
z
" transform="scale(0.015625)"/>
      </defs>
      <use xlink:href="#DejaVuSans-6e"/>
      <use xlink:href="#DejaVuSans-73" x="63.378906"/>
     </g>
    </g>
   </g>
   <g id="line2d_26">
    <path d="M 3.240625 416.1807 
L 623.240625 416.1807 
" clip-path="url(#pd1f4b4c358)" style="fill: none; stroke-dasharray: 5.55,2.4; stroke-dashoffset: 0; stroke: #808080; stroke-opacity: 0.3; stroke-width: 1.5"/>
   </g>
   <g id="line2d_27">
    <path d="M 65.240625 147.49364 
L 96.240625 204.338774 
L 127.240625 230.534977 
L 158.240625 243.681221 
L 189.240625 241.10424 
L 220.240625 253.966809 
L 251.240625 254.82698 
L 282.240625 255.154947 
L 313.240625 253.747617 
L 344.240625 255.297857 
L 375.240625 255.353695 
L 406.240625 254.72912 
L 437.240625 256.889486 
L 468.240625 255.538437 
L 499.240625 254.62331 
L 530.240625 246.355494 
L 561.240625 244.59048 
" clip-path="url(#pd1f4b4c358)" style="fill: none; stroke: #1f77b4; stroke-width: 1.5; stroke-linecap: square"/>
    <defs>
     <path id="m20b48625fa" d="M 0 3 
C 0.795609 3 1.55874 2.683901 2.12132 2.12132 
C 2.683901 1.55874 3 0.795609 3 0 
C 3 -0.795609 2.683901 -1.55874 2.12132 -2.12132 
C 1.55874 -2.683901 0.795609 -3 0 -3 
C -0.795609 -3 -1.55874 -2.683901 -2.12132 -2.12132 
C -2.683901 -1.55874 -3 -0.795609 -3 0 
C -3 0.795609 -2.683901 1.55874 -2.12132 2.12132 
C -1.55874 2.683901 -0.795609 3 0 3 
z
" style="stroke: #1f77b4"/>
    </defs>
    <g clip-path="url(#pd1f4b4c358)">
     <use xlink:href="#m20b48625fa" x="65.240625" y="147.49364" style="fill: #1f77b4; stroke: #1f77b4"/>
     <use xlink:href="#m20b48625fa" x="96.240625" y="204.338774" style="fill: #1f77b4; stroke: #1f77b4"/>
     <use xlink:href="#m20b48625fa" x="127.240625" y="230.534977" style="fill: #1f77b4; stroke: #1f77b4"/>
     <use xlink:href="#m20b48625fa" x="158.240625" y="243.681221" style="fill: #1f77b4; stroke: #1f77b4"/>
     <use xlink:href="#m20b48625fa" x="189.240625" y="241.10424" style="fill: #1f77b4; stroke: #1f77b4"/>
     <use xlink:href="#m20b48625fa" x="220.240625" y="253.966809" style="fill: #1f77b4; stroke: #1f77b4"/>
     <use xlink:href="#m20b48625fa" x="251.240625" y="254.82698" style="fill: #1f77b4; stroke: #1f77b4"/>
     <use xlink:href="#m20b48625fa" x="282.240625" y="255.154947" style="fill: #1f77b4; stroke: #1f77b4"/>
     <use xlink:href="#m20b48625fa" x="313.240625" y="253.747617" style="fill: #1f77b4; stroke: #1f77b4"/>
     <use xlink:href="#m20b48625fa" x="344.240625" y="255.297857" style="fill: #1f77b4; stroke: #1f77b4"/>
     <use xlink:href="#m20b48625fa" x="375.240625" y="255.353695" style="fill: #1f77b4; stroke: #1f77b4"/>
     <use xlink:href="#m20b48625fa" x="406.240625" y="254.72912" style="fill: #1f77b4; stroke: #1f77b4"/>
     <use xlink:href="#m20b48625fa" x="437.240625" y="256.889486" style="fill: #1f77b4; stroke: #1f77b4"/>
     <use xlink:href="#m20b48625fa" x="468.240625" y="255.538437" style="fill: #1f77b4; stroke: #1f77b4"/>
     <use xlink:href="#m20b48625fa" x="499.240625" y="254.62331" style="fill: #1f77b4; stroke: #1f77b4"/>
     <use xlink:href="#m20b48625fa" x="530.240625" y="246.355494" style="fill: #1f77b4; stroke: #1f77b4"/>
     <use xlink:href="#m20b48625fa" x="561.240625" y="244.59048" style="fill: #1f77b4; stroke: #1f77b4"/>
    </g>
   </g>
   <g id="line2d_28">
    <path d="M 65.240625 142.313746 
L 96.240625 195.692388 
L 127.240625 224.855625 
L 158.240625 237.856561 
L 189.240625 244.019787 
L 220.240625 247.644016 
L 251.240625 248.65959 
L 282.240625 247.598777 
L 313.240625 248.260515 
L 344.240625 247.520034 
L 375.240625 247.356808 
L 406.240625 161.345157 
L 437.240625 247.01149 
L 468.240625 247.754999 
L 499.240625 247.48691 
L 530.240625 240.319593 
L 561.240625 241.421543 
" clip-path="url(#pd1f4b4c358)" style="fill: none; stroke: #ff7f0e; stroke-width: 1.5; stroke-linecap: square"/>
    <defs>
     <path id="m9229f74f6b" d="M 0 3 
C 0.795609 3 1.55874 2.683901 2.12132 2.12132 
C 2.683901 1.55874 3 0.795609 3 0 
C 3 -0.795609 2.683901 -1.55874 2.12132 -2.12132 
C 1.55874 -2.683901 0.795609 -3 0 -3 
C -0.795609 -3 -1.55874 -2.683901 -2.12132 -2.12132 
C -2.683901 -1.55874 -3 -0.795609 -3 0 
C -3 0.795609 -2.683901 1.55874 -2.12132 2.12132 
C -1.55874 2.683901 -0.795609 3 0 3 
z
" style="stroke: #ff7f0e"/>
    </defs>
    <g clip-path="url(#pd1f4b4c358)">
     <use xlink:href="#m9229f74f6b" x="65.240625" y="142.313746" style="fill: #ff7f0e; stroke: #ff7f0e"/>
     <use xlink:href="#m9229f74f6b" x="96.240625" y="195.692388" style="fill: #ff7f0e; stroke: #ff7f0e"/>
     <use xlink:href="#m9229f74f6b" x="127.240625" y="224.855625" style="fill: #ff7f0e; stroke: #ff7f0e"/>
     <use xlink:href="#m9229f74f6b" x="158.240625" y="237.856561" style="fill: #ff7f0e; stroke: #ff7f0e"/>
     <use xlink:href="#m9229f74f6b" x="189.240625" y="244.019787" style="fill: #ff7f0e; stroke: #ff7f0e"/>
     <use xlink:href="#m9229f74f6b" x="220.240625" y="247.644016" style="fill: #ff7f0e; stroke: #ff7f0e"/>
     <use xlink:href="#m9229f74f6b" x="251.240625" y="248.65959" style="fill: #ff7f0e; stroke: #ff7f0e"/>
     <use xlink:href="#m9229f74f6b" x="282.240625" y="247.598777" style="fill: #ff7f0e; stroke: #ff7f0e"/>
     <use xlink:href="#m9229f74f6b" x="313.240625" y="248.260515" style="fill: #ff7f0e; stroke: #ff7f0e"/>
     <use xlink:href="#m9229f74f6b" x="344.240625" y="247.520034" style="fill: #ff7f0e; stroke: #ff7f0e"/>
     <use xlink:href="#m9229f74f6b" x="375.240625" y="247.356808" style="fill: #ff7f0e; stroke: #ff7f0e"/>
     <use xlink:href="#m9229f74f6b" x="406.240625" y="161.345157" style="fill: #ff7f0e; stroke: #ff7f0e"/>
     <use xlink:href="#m9229f74f6b" x="437.240625" y="247.01149" style="fill: #ff7f0e; stroke: #ff7f0e"/>
     <use xlink:href="#m9229f74f6b" x="468.240625" y="247.754999" style="fill: #ff7f0e; stroke: #ff7f0e"/>
     <use xlink:href="#m9229f74f6b" x="499.240625" y="247.48691" style="fill: #ff7f0e; stroke: #ff7f0e"/>
     <use xlink:href="#m9229f74f6b" x="530.240625" y="240.319593" style="fill: #ff7f0e; stroke: #ff7f0e"/>
     <use xlink:href="#m9229f74f6b" x="561.240625" y="241.421543" style="fill: #ff7f0e; stroke: #ff7f0e"/>
    </g>
   </g>
   <g id="line2d_29">
    <path d="M 65.240625 147.852902 
L 96.240625 198.059895 
L 127.240625 227.469075 
L 158.240625 239.835529 
L 189.240625 245.167419 
L 220.240625 249.709803 
L 251.240625 250.377913 
L 282.240625 248.603057 
L 313.240625 249.071788 
L 344.240625 248.14808 
L 375.240625 248.481347 
L 406.240625 250.465173 
L 437.240625 249.113746 
L 468.240625 250.403341 
L 499.240625 250.082314 
L 530.240625 249.367639 
L 561.240625 249.546261 
" clip-path="url(#pd1f4b4c358)" style="fill: none; stroke: #2ca02c; stroke-width: 1.5; stroke-linecap: square"/>
    <defs>
     <path id="m71fff163c4" d="M -3 3 
L 3 3 
L 3 -3 
L -3 -3 
z
" style="stroke: #2ca02c; stroke-linejoin: miter"/>
    </defs>
    <g clip-path="url(#pd1f4b4c358)">
     <use xlink:href="#m71fff163c4" x="65.240625" y="147.852902" style="fill: #2ca02c; stroke: #2ca02c; stroke-linejoin: miter"/>
     <use xlink:href="#m71fff163c4" x="96.240625" y="198.059895" style="fill: #2ca02c; stroke: #2ca02c; stroke-linejoin: miter"/>
     <use xlink:href="#m71fff163c4" x="127.240625" y="227.469075" style="fill: #2ca02c; stroke: #2ca02c; stroke-linejoin: miter"/>
     <use xlink:href="#m71fff163c4" x="158.240625" y="239.835529" style="fill: #2ca02c; stroke: #2ca02c; stroke-linejoin: miter"/>
     <use xlink:href="#m71fff163c4" x="189.240625" y="245.167419" style="fill: #2ca02c; stroke: #2ca02c; stroke-linejoin: miter"/>
     <use xlink:href="#m71fff163c4" x="220.240625" y="249.709803" style="fill: #2ca02c; stroke: #2ca02c; stroke-linejoin: miter"/>
     <use xlink:href="#m71fff163c4" x="251.240625" y="250.377913" style="fill: #2ca02c; stroke: #2ca02c; stroke-linejoin: miter"/>
     <use xlink:href="#m71fff163c4" x="282.240625" y="248.603057" style="fill: #2ca02c; stroke: #2ca02c; stroke-linejoin: miter"/>
     <use xlink:href="#m71fff163c4" x="313.240625" y="249.071788" style="fill: #2ca02c; stroke: #2ca02c; stroke-linejoin: miter"/>
     <use xlink:href="#m71fff163c4" x="344.240625" y="248.14808" style="fill: #2ca02c; stroke: #2ca02c; stroke-linejoin: miter"/>
     <use xlink:href="#m71fff163c4" x="375.240625" y="248.481347" style="fill: #2ca02c; stroke: #2ca02c; stroke-linejoin: miter"/>
     <use xlink:href="#m71fff163c4" x="406.240625" y="250.465173" style="fill: #2ca02c; stroke: #2ca02c; stroke-linejoin: miter"/>
     <use xlink:href="#m71fff163c4" x="437.240625" y="249.113746" style="fill: #2ca02c; stroke: #2ca02c; stroke-linejoin: miter"/>
     <use xlink:href="#m71fff163c4" x="468.240625" y="250.403341" style="fill: #2ca02c; stroke: #2ca02c; stroke-linejoin: miter"/>
     <use xlink:href="#m71fff163c4" x="499.240625" y="250.082314" style="fill: #2ca02c; stroke: #2ca02c; stroke-linejoin: miter"/>
     <use xlink:href="#m71fff163c4" x="530.240625" y="249.367639" style="fill: #2ca02c; stroke: #2ca02c; stroke-linejoin: miter"/>
     <use xlink:href="#m71fff163c4" x="561.240625" y="249.546261" style="fill: #2ca02c; stroke: #2ca02c; stroke-linejoin: miter"/>
    </g>
   </g>
   <g id="line2d_30">
    <path d="M 65.240625 141.989502 
L 96.240625 193.141718 
L 127.240625 221.554758 
L 158.240625 236.1436 
L 189.240625 242.302158 
L 220.240625 245.016433 
L 251.240625 244.534893 
L 282.240625 246.496132 
L 313.240625 243.971267 
L 344.240625 245.779375 
L 375.240625 245.525355 
L 406.240625 244.841282 
L 437.240625 244.798503 
L 468.240625 245.564853 
L 499.240625 245.791174 
L 530.240625 245.415886 
L 561.240625 245.276825 
" clip-path="url(#pd1f4b4c358)" style="fill: none; stroke: #d62728; stroke-width: 1.5; stroke-linecap: square"/>
    <defs>
     <path id="m70a41fea87" d="M -3 3 
L 3 3 
L 3 -3 
L -3 -3 
z
" style="stroke: #d62728; stroke-linejoin: miter"/>
    </defs>
    <g clip-path="url(#pd1f4b4c358)">
     <use xlink:href="#m70a41fea87" x="65.240625" y="141.989502" style="fill: #d62728; stroke: #d62728; stroke-linejoin: miter"/>
     <use xlink:href="#m70a41fea87" x="96.240625" y="193.141718" style="fill: #d62728; stroke: #d62728; stroke-linejoin: miter"/>
     <use xlink:href="#m70a41fea87" x="127.240625" y="221.554758" style="fill: #d62728; stroke: #d62728; stroke-linejoin: miter"/>
     <use xlink:href="#m70a41fea87" x="158.240625" y="236.1436" style="fill: #d62728; stroke: #d62728; stroke-linejoin: miter"/>
     <use xlink:href="#m70a41fea87" x="189.240625" y="242.302158" style="fill: #d62728; stroke: #d62728; stroke-linejoin: miter"/>
     <use xlink:href="#m70a41fea87" x="220.240625" y="245.016433" style="fill: #d62728; stroke: #d62728; stroke-linejoin: miter"/>
     <use xlink:href="#m70a41fea87" x="251.240625" y="244.534893" style="fill: #d62728; stroke: #d62728; stroke-linejoin: miter"/>
     <use xlink:href="#m70a41fea87" x="282.240625" y="246.496132" style="fill: #d62728; stroke: #d62728; stroke-linejoin: miter"/>
     <use xlink:href="#m70a41fea87" x="313.240625" y="243.971267" style="fill: #d62728; stroke: #d62728; stroke-linejoin: miter"/>
     <use xlink:href="#m70a41fea87" x="344.240625" y="245.779375" style="fill: #d62728; stroke: #d62728; stroke-linejoin: miter"/>
     <use xlink:href="#m70a41fea87" x="375.240625" y="245.525355" style="fill: #d62728; stroke: #d62728; stroke-linejoin: miter"/>
     <use xlink:href="#m70a41fea87" x="406.240625" y="244.841282" style="fill: #d62728; stroke: #d62728; stroke-linejoin: miter"/>
     <use xlink:href="#m70a41fea87" x="437.240625" y="244.798503" style="fill: #d62728; stroke: #d62728; stroke-linejoin: miter"/>
     <use xlink:href="#m70a41fea87" x="468.240625" y="245.564853" style="fill: #d62728; stroke: #d62728; stroke-linejoin: miter"/>
     <use xlink:href="#m70a41fea87" x="499.240625" y="245.791174" style="fill: #d62728; stroke: #d62728; stroke-linejoin: miter"/>
     <use xlink:href="#m70a41fea87" x="530.240625" y="245.415886" style="fill: #d62728; stroke: #d62728; stroke-linejoin: miter"/>
     <use xlink:href="#m70a41fea87" x="561.240625" y="245.276825" style="fill: #d62728; stroke: #d62728; stroke-linejoin: miter"/>
    </g>
   </g>
   <g id="line2d_31">
    <path d="M 65.240625 65.517248 
L 96.240625 67.394223 
L 127.240625 67.605686 
L 158.240625 68.005265 
L 189.240625 71.878939 
L 220.240625 72.061535 
L 251.240625 69.666078 
L 282.240625 66.842144 
L 313.240625 66.150246 
L 344.240625 65.716501 
L 375.240625 67.53035 
L 406.240625 66.628568 
L 437.240625 63.102263 
L 468.240625 67.308572 
L 499.240625 68.630471 
L 530.240625 65.870547 
L 561.240625 74.082272 
" clip-path="url(#pd1f4b4c358)" style="fill: none; stroke: #9467bd; stroke-width: 1.5; stroke-linecap: square"/>
    <defs>
     <path id="mad9e680e48" d="M 0 -3 
L -3 3 
L 3 3 
z
" style="stroke: #9467bd; stroke-linejoin: miter"/>
    </defs>
    <g clip-path="url(#pd1f4b4c358)">
     <use xlink:href="#mad9e680e48" x="65.240625" y="65.517248" style="fill: #9467bd; stroke: #9467bd; stroke-linejoin: miter"/>
     <use xlink:href="#mad9e680e48" x="96.240625" y="67.394223" style="fill: #9467bd; stroke: #9467bd; stroke-linejoin: miter"/>
     <use xlink:href="#mad9e680e48" x="127.240625" y="67.605686" style="fill: #9467bd; stroke: #9467bd; stroke-linejoin: miter"/>
     <use xlink:href="#mad9e680e48" x="158.240625" y="68.005265" style="fill: #9467bd; stroke: #9467bd; stroke-linejoin: miter"/>
     <use xlink:href="#mad9e680e48" x="189.240625" y="71.878939" style="fill: #9467bd; stroke: #9467bd; stroke-linejoin: miter"/>
     <use xlink:href="#mad9e680e48" x="220.240625" y="72.061535" style="fill: #9467bd; stroke: #9467bd; stroke-linejoin: miter"/>
     <use xlink:href="#mad9e680e48" x="251.240625" y="69.666078" style="fill: #9467bd; stroke: #9467bd; stroke-linejoin: miter"/>
     <use xlink:href="#mad9e680e48" x="282.240625" y="66.842144" style="fill: #9467bd; stroke: #9467bd; stroke-linejoin: miter"/>
     <use xlink:href="#mad9e680e48" x="313.240625" y="66.150246" style="fill: #9467bd; stroke: #9467bd; stroke-linejoin: miter"/>
     <use xlink:href="#mad9e680e48" x="344.240625" y="65.716501" style="fill: #9467bd; stroke: #9467bd; stroke-linejoin: miter"/>
     <use xlink:href="#mad9e680e48" x="375.240625" y="67.53035" style="fill: #9467bd; stroke: #9467bd; stroke-linejoin: miter"/>
     <use xlink:href="#mad9e680e48" x="406.240625" y="66.628568" style="fill: #9467bd; stroke: #9467bd; stroke-linejoin: miter"/>
     <use xlink:href="#mad9e680e48" x="437.240625" y="63.102263" style="fill: #9467bd; stroke: #9467bd; stroke-linejoin: miter"/>
     <use xlink:href="#mad9e680e48" x="468.240625" y="67.308572" style="fill: #9467bd; stroke: #9467bd; stroke-linejoin: miter"/>
     <use xlink:href="#mad9e680e48" x="499.240625" y="68.630471" style="fill: #9467bd; stroke: #9467bd; stroke-linejoin: miter"/>
     <use xlink:href="#mad9e680e48" x="530.240625" y="65.870547" style="fill: #9467bd; stroke: #9467bd; stroke-linejoin: miter"/>
     <use xlink:href="#mad9e680e48" x="561.240625" y="74.082272" style="fill: #9467bd; stroke: #9467bd; stroke-linejoin: miter"/>
    </g>
   </g>
   <g id="line2d_32">
    <path d="M 65.240625 68.351719 
L 96.240625 67.980153 
L 127.240625 62.112148 
L 158.240625 61.664742 
L 189.240625 65.675048 
L 220.240625 66.979785 
L 251.240625 71.541823 
L 282.240625 70.193361 
L 313.240625 65.159847 
L 344.240625 69.476604 
L 375.240625 67.466877 
L 406.240625 70.725376 
L 437.240625 69.331139 
L 468.240625 66.832837 
L 499.240625 69.421743 
L 530.240625 69.291989 
L 561.240625 70.834657 
" clip-path="url(#pd1f4b4c358)" style="fill: none; stroke: #8c564b; stroke-width: 1.5; stroke-linecap: square"/>
    <defs>
     <path id="m410e531c07" d="M 0 -3 
L -3 3 
L 3 3 
z
" style="stroke: #8c564b; stroke-linejoin: miter"/>
    </defs>
    <g clip-path="url(#pd1f4b4c358)">
     <use xlink:href="#m410e531c07" x="65.240625" y="68.351719" style="fill: #8c564b; stroke: #8c564b; stroke-linejoin: miter"/>
     <use xlink:href="#m410e531c07" x="96.240625" y="67.980153" style="fill: #8c564b; stroke: #8c564b; stroke-linejoin: miter"/>
     <use xlink:href="#m410e531c07" x="127.240625" y="62.112148" style="fill: #8c564b; stroke: #8c564b; stroke-linejoin: miter"/>
     <use xlink:href="#m410e531c07" x="158.240625" y="61.664742" style="fill: #8c564b; stroke: #8c564b; stroke-linejoin: miter"/>
     <use xlink:href="#m410e531c07" x="189.240625" y="65.675048" style="fill: #8c564b; stroke: #8c564b; stroke-linejoin: miter"/>
     <use xlink:href="#m410e531c07" x="220.240625" y="66.979785" style="fill: #8c564b; stroke: #8c564b; stroke-linejoin: miter"/>
     <use xlink:href="#m410e531c07" x="251.240625" y="71.541823" style="fill: #8c564b; stroke: #8c564b; stroke-linejoin: miter"/>
     <use xlink:href="#m410e531c07" x="282.240625" y="70.193361" style="fill: #8c564b; stroke: #8c564b; stroke-linejoin: miter"/>
     <use xlink:href="#m410e531c07" x="313.240625" y="65.159847" style="fill: #8c564b; stroke: #8c564b; stroke-linejoin: miter"/>
     <use xlink:href="#m410e531c07" x="344.240625" y="69.476604" style="fill: #8c564b; stroke: #8c564b; stroke-linejoin: miter"/>
     <use xlink:href="#m410e531c07" x="375.240625" y="67.466877" style="fill: #8c564b; stroke: #8c564b; stroke-linejoin: miter"/>
     <use xlink:href="#m410e531c07" x="406.240625" y="70.725376" style="fill: #8c564b; stroke: #8c564b; stroke-linejoin: miter"/>
     <use xlink:href="#m410e531c07" x="437.240625" y="69.331139" style="fill: #8c564b; stroke: #8c564b; stroke-linejoin: miter"/>
     <use xlink:href="#m410e531c07" x="468.240625" y="66.832837" style="fill: #8c564b; stroke: #8c564b; stroke-linejoin: miter"/>
     <use xlink:href="#m410e531c07" x="499.240625" y="69.421743" style="fill: #8c564b; stroke: #8c564b; stroke-linejoin: miter"/>
     <use xlink:href="#m410e531c07" x="530.240625" y="69.291989" style="fill: #8c564b; stroke: #8c564b; stroke-linejoin: miter"/>
     <use xlink:href="#m410e531c07" x="561.240625" y="70.834657" style="fill: #8c564b; stroke: #8c564b; stroke-linejoin: miter"/>
    </g>
   </g>
   <g id="patch_20">
    <path d="M 34.240625 479.2755 
L 34.240625 35.7555 
" style="fill: none; stroke: #000000; stroke-width: 0.8; stroke-linejoin: miter; stroke-linecap: square"/>
   </g>
   <g id="patch_21">
    <path d="M 592.240625 479.2755 
L 592.240625 35.7555 
" style="fill: none; stroke: #000000; stroke-width: 0.8; stroke-linejoin: miter; stroke-linecap: square"/>
   </g>
   <g id="patch_22">
    <path d="M 34.240625 479.2755 
L 592.240625 479.2755 
" style="fill: none; stroke: #000000; stroke-width: 0.8; stroke-linejoin: miter; stroke-linecap: square"/>
   </g>
   <g id="patch_23">
    <path d="M 34.240625 35.7555 
L 592.240625 35.7555 
" style="fill: none; stroke: #000000; stroke-width: 0.8; stroke-linejoin: miter; stroke-linecap: square"/>
   </g>
   <g id="text_28">
    <!-- 56.96% -->
    <g transform="translate(68 403.56174) rotate(-90) scale(0.1 -0.1)">
     <defs>
      <path id="DejaVuSans-2e" d="M 684 794 
L 1344 794 
L 1344 0 
L 684 0 
L 684 794 
z
" transform="scale(0.015625)"/>
      <path id="DejaVuSans-25" d="M 4653 2053 
Q 4381 2053 4226 1822 
Q 4072 1591 4072 1178 
Q 4072 772 4226 539 
Q 4381 306 4653 306 
Q 4919 306 5073 539 
Q 5228 772 5228 1178 
Q 5228 1588 5073 1820 
Q 4919 2053 4653 2053 
z
M 4653 2450 
Q 5147 2450 5437 2106 
Q 5728 1763 5728 1178 
Q 5728 594 5436 251 
Q 5144 -91 4653 -91 
Q 4153 -91 3862 251 
Q 3572 594 3572 1178 
Q 3572 1766 3864 2108 
Q 4156 2450 4653 2450 
z
M 1428 4353 
Q 1159 4353 1004 4120 
Q 850 3888 850 3481 
Q 850 3069 1003 2837 
Q 1156 2606 1428 2606 
Q 1700 2606 1854 2837 
Q 2009 3069 2009 3481 
Q 2009 3884 1853 4118 
Q 1697 4353 1428 4353 
z
M 4250 4750 
L 4750 4750 
L 1831 -91 
L 1331 -91 
L 4250 4750 
z
M 1428 4750 
Q 1922 4750 2215 4408 
Q 2509 4066 2509 3481 
Q 2509 2891 2217 2550 
Q 1925 2209 1428 2209 
Q 931 2209 642 2551 
Q 353 2894 353 3481 
Q 353 4063 643 4406 
Q 934 4750 1428 4750 
z
" transform="scale(0.015625)"/>
     </defs>
     <use xlink:href="#DejaVuSans-35"/>
     <use xlink:href="#DejaVuSans-36" x="63.623047"/>
     <use xlink:href="#DejaVuSans-2e" x="127.246094"/>
     <use xlink:href="#DejaVuSans-39" x="159.033203"/>
     <use xlink:href="#DejaVuSans-36" x="222.65625"/>
     <use xlink:href="#DejaVuSans-25" x="286.279297"/>
    </g>
   </g>
   <g id="text_29">
    <!-- 67.11% -->
    <g transform="translate(99 403.56174) rotate(-90) scale(0.1 -0.1)">
     <use xlink:href="#DejaVuSans-36"/>
     <use xlink:href="#DejaVuSans-37" x="63.623047"/>
     <use xlink:href="#DejaVuSans-2e" x="127.246094"/>
     <use xlink:href="#DejaVuSans-31" x="159.033203"/>
     <use xlink:href="#DejaVuSans-31" x="222.65625"/>
     <use xlink:href="#DejaVuSans-25" x="286.279297"/>
    </g>
   </g>
   <g id="text_30">
    <!-- 74.73% -->
    <g transform="translate(130 403.56174) rotate(-90) scale(0.1 -0.1)">
     <use xlink:href="#DejaVuSans-37"/>
     <use xlink:href="#DejaVuSans-34" x="63.623047"/>
     <use xlink:href="#DejaVuSans-2e" x="127.246094"/>
     <use xlink:href="#DejaVuSans-37" x="159.033203"/>
     <use xlink:href="#DejaVuSans-33" x="222.65625"/>
     <use xlink:href="#DejaVuSans-25" x="286.279297"/>
    </g>
   </g>
   <g id="text_31">
    <!-- 80.30% -->
    <g transform="translate(161 403.56174) rotate(-90) scale(0.1 -0.1)">
     <use xlink:href="#DejaVuSans-38"/>
     <use xlink:href="#DejaVuSans-30" x="63.623047"/>
     <use xlink:href="#DejaVuSans-2e" x="127.246094"/>
     <use xlink:href="#DejaVuSans-33" x="159.033203"/>
     <use xlink:href="#DejaVuSans-30" x="222.65625"/>
     <use xlink:href="#DejaVuSans-25" x="286.279297"/>
    </g>
   </g>
   <g id="text_32">
    <!-- 84.35% -->
    <g transform="translate(192 403.56174) rotate(-90) scale(0.1 -0.1)">
     <use xlink:href="#DejaVuSans-38"/>
     <use xlink:href="#DejaVuSans-34" x="63.623047"/>
     <use xlink:href="#DejaVuSans-2e" x="127.246094"/>
     <use xlink:href="#DejaVuSans-33" x="159.033203"/>
     <use xlink:href="#DejaVuSans-35" x="222.65625"/>
     <use xlink:href="#DejaVuSans-25" x="286.279297"/>
    </g>
   </g>
   <g id="text_33">
    <!-- 87.36% -->
    <g transform="translate(223 403.56174) rotate(-90) scale(0.1 -0.1)">
     <use xlink:href="#DejaVuSans-38"/>
     <use xlink:href="#DejaVuSans-37" x="63.623047"/>
     <use xlink:href="#DejaVuSans-2e" x="127.246094"/>
     <use xlink:href="#DejaVuSans-33" x="159.033203"/>
     <use xlink:href="#DejaVuSans-36" x="222.65625"/>
     <use xlink:href="#DejaVuSans-25" x="286.279297"/>
    </g>
   </g>
   <g id="text_34">
    <!-- 89.66% -->
    <g transform="translate(254 403.56174) rotate(-90) scale(0.1 -0.1)">
     <use xlink:href="#DejaVuSans-38"/>
     <use xlink:href="#DejaVuSans-39" x="63.623047"/>
     <use xlink:href="#DejaVuSans-2e" x="127.246094"/>
     <use xlink:href="#DejaVuSans-36" x="159.033203"/>
     <use xlink:href="#DejaVuSans-36" x="222.65625"/>
     <use xlink:href="#DejaVuSans-25" x="286.279297"/>
    </g>
   </g>
   <g id="text_35">
    <!-- 91.48% -->
    <g transform="translate(285 403.56174) rotate(-90) scale(0.1 -0.1)">
     <use xlink:href="#DejaVuSans-39"/>
     <use xlink:href="#DejaVuSans-31" x="63.623047"/>
     <use xlink:href="#DejaVuSans-2e" x="127.246094"/>
     <use xlink:href="#DejaVuSans-34" x="159.033203"/>
     <use xlink:href="#DejaVuSans-38" x="222.65625"/>
     <use xlink:href="#DejaVuSans-25" x="286.279297"/>
    </g>
   </g>
   <g id="text_36">
    <!-- 92.92% -->
    <g transform="translate(316 403.56174) rotate(-90) scale(0.1 -0.1)">
     <use xlink:href="#DejaVuSans-39"/>
     <use xlink:href="#DejaVuSans-32" x="63.623047"/>
     <use xlink:href="#DejaVuSans-2e" x="127.246094"/>
     <use xlink:href="#DejaVuSans-39" x="159.033203"/>
     <use xlink:href="#DejaVuSans-32" x="222.65625"/>
     <use xlink:href="#DejaVuSans-25" x="286.279297"/>
    </g>
   </g>
   <g id="text_37">
    <!-- 94.12% -->
    <g transform="translate(347 403.56174) rotate(-90) scale(0.1 -0.1)">
     <use xlink:href="#DejaVuSans-39"/>
     <use xlink:href="#DejaVuSans-34" x="63.623047"/>
     <use xlink:href="#DejaVuSans-2e" x="127.246094"/>
     <use xlink:href="#DejaVuSans-31" x="159.033203"/>
     <use xlink:href="#DejaVuSans-32" x="222.65625"/>
     <use xlink:href="#DejaVuSans-25" x="286.279297"/>
    </g>
   </g>
   <g id="text_38">
    <!-- 95.14% -->
    <g transform="translate(378 403.56174) rotate(-90) scale(0.1 -0.1)">
     <use xlink:href="#DejaVuSans-39"/>
     <use xlink:href="#DejaVuSans-35" x="63.623047"/>
     <use xlink:href="#DejaVuSans-2e" x="127.246094"/>
     <use xlink:href="#DejaVuSans-31" x="159.033203"/>
     <use xlink:href="#DejaVuSans-34" x="222.65625"/>
     <use xlink:href="#DejaVuSans-25" x="286.279297"/>
    </g>
   </g>
   <g id="text_39">
    <!-- 95.99% -->
    <g transform="translate(409 403.56174) rotate(-90) scale(0.1 -0.1)">
     <use xlink:href="#DejaVuSans-39"/>
     <use xlink:href="#DejaVuSans-35" x="63.623047"/>
     <use xlink:href="#DejaVuSans-2e" x="127.246094"/>
     <use xlink:href="#DejaVuSans-39" x="159.033203"/>
     <use xlink:href="#DejaVuSans-39" x="222.65625"/>
     <use xlink:href="#DejaVuSans-25" x="286.279297"/>
    </g>
   </g>
   <g id="text_40">
    <!-- 96.73% -->
    <g transform="translate(440 403.56174) rotate(-90) scale(0.1 -0.1)">
     <use xlink:href="#DejaVuSans-39"/>
     <use xlink:href="#DejaVuSans-36" x="63.623047"/>
     <use xlink:href="#DejaVuSans-2e" x="127.246094"/>
     <use xlink:href="#DejaVuSans-37" x="159.033203"/>
     <use xlink:href="#DejaVuSans-33" x="222.65625"/>
     <use xlink:href="#DejaVuSans-25" x="286.279297"/>
    </g>
   </g>
   <g id="text_41">
    <!-- 97.37% -->
    <g transform="translate(471 403.56174) rotate(-90) scale(0.1 -0.1)">
     <use xlink:href="#DejaVuSans-39"/>
     <use xlink:href="#DejaVuSans-37" x="63.623047"/>
     <use xlink:href="#DejaVuSans-2e" x="127.246094"/>
     <use xlink:href="#DejaVuSans-33" x="159.033203"/>
     <use xlink:href="#DejaVuSans-37" x="222.65625"/>
     <use xlink:href="#DejaVuSans-25" x="286.279297"/>
    </g>
   </g>
   <g id="text_42">
    <!-- 97.94% -->
    <g transform="translate(502 403.56174) rotate(-90) scale(0.1 -0.1)">
     <use xlink:href="#DejaVuSans-39"/>
     <use xlink:href="#DejaVuSans-37" x="63.623047"/>
     <use xlink:href="#DejaVuSans-2e" x="127.246094"/>
     <use xlink:href="#DejaVuSans-39" x="159.033203"/>
     <use xlink:href="#DejaVuSans-34" x="222.65625"/>
     <use xlink:href="#DejaVuSans-25" x="286.279297"/>
    </g>
   </g>
   <g id="text_43">
    <!-- 98.46% -->
    <g transform="translate(533 403.56174) rotate(-90) scale(0.1 -0.1)">
     <use xlink:href="#DejaVuSans-39"/>
     <use xlink:href="#DejaVuSans-38" x="63.623047"/>
     <use xlink:href="#DejaVuSans-2e" x="127.246094"/>
     <use xlink:href="#DejaVuSans-34" x="159.033203"/>
     <use xlink:href="#DejaVuSans-36" x="222.65625"/>
     <use xlink:href="#DejaVuSans-25" x="286.279297"/>
    </g>
   </g>
   <g id="text_44">
    <!-- 98.90% -->
    <g transform="translate(564 403.56174) rotate(-90) scale(0.1 -0.1)">
     <use xlink:href="#DejaVuSans-39"/>
     <use xlink:href="#DejaVuSans-38" x="63.623047"/>
     <use xlink:href="#DejaVuSans-2e" x="127.246094"/>
     <use xlink:href="#DejaVuSans-39" x="159.033203"/>
     <use xlink:href="#DejaVuSans-30" x="222.65625"/>
     <use xlink:href="#DejaVuSans-25" x="286.279297"/>
    </g>
   </g>
   <g id="text_45">
    <!-- Performance of writes (u16) in  code in function of the table size -->
    <g transform="translate(116.29625 16.318125) scale(0.12 -0.12)">
     <defs>
      <path id="DejaVuSans-50" d="M 1259 4147 
L 1259 2394 
L 2053 2394 
Q 2494 2394 2734 2622 
Q 2975 2850 2975 3272 
Q 2975 3691 2734 3919 
Q 2494 4147 2053 4147 
L 1259 4147 
z
M 628 4666 
L 2053 4666 
Q 2838 4666 3239 4311 
Q 3641 3956 3641 3272 
Q 3641 2581 3239 2228 
Q 2838 1875 2053 1875 
L 1259 1875 
L 1259 0 
L 628 0 
L 628 4666 
z
" transform="scale(0.015625)"/>
      <path id="DejaVuSans-72" d="M 2631 2963 
Q 2534 3019 2420 3045 
Q 2306 3072 2169 3072 
Q 1681 3072 1420 2755 
Q 1159 2438 1159 1844 
L 1159 0 
L 581 0 
L 581 3500 
L 1159 3500 
L 1159 2956 
Q 1341 3275 1631 3429 
Q 1922 3584 2338 3584 
Q 2397 3584 2469 3576 
Q 2541 3569 2628 3553 
L 2631 2963 
z
" transform="scale(0.015625)"/>
      <path id="DejaVuSans-66" d="M 2375 4863 
L 2375 4384 
L 1825 4384 
Q 1516 4384 1395 4259 
Q 1275 4134 1275 3809 
L 1275 3500 
L 2222 3500 
L 2222 3053 
L 1275 3053 
L 1275 0 
L 697 0 
L 697 3053 
L 147 3053 
L 147 3500 
L 697 3500 
L 697 3744 
Q 697 4328 969 4595 
Q 1241 4863 1831 4863 
L 2375 4863 
z
" transform="scale(0.015625)"/>
      <path id="DejaVuSans-6f" d="M 1959 3097 
Q 1497 3097 1228 2736 
Q 959 2375 959 1747 
Q 959 1119 1226 758 
Q 1494 397 1959 397 
Q 2419 397 2687 759 
Q 2956 1122 2956 1747 
Q 2956 2369 2687 2733 
Q 2419 3097 1959 3097 
z
M 1959 3584 
Q 2709 3584 3137 3096 
Q 3566 2609 3566 1747 
Q 3566 888 3137 398 
Q 2709 -91 1959 -91 
Q 1206 -91 779 398 
Q 353 888 353 1747 
Q 353 2609 779 3096 
Q 1206 3584 1959 3584 
z
" transform="scale(0.015625)"/>
      <path id="DejaVuSans-6d" d="M 3328 2828 
Q 3544 3216 3844 3400 
Q 4144 3584 4550 3584 
Q 5097 3584 5394 3201 
Q 5691 2819 5691 2113 
L 5691 0 
L 5113 0 
L 5113 2094 
Q 5113 2597 4934 2840 
Q 4756 3084 4391 3084 
Q 3944 3084 3684 2787 
Q 3425 2491 3425 1978 
L 3425 0 
L 2847 0 
L 2847 2094 
Q 2847 2600 2669 2842 
Q 2491 3084 2119 3084 
Q 1678 3084 1418 2786 
Q 1159 2488 1159 1978 
L 1159 0 
L 581 0 
L 581 3500 
L 1159 3500 
L 1159 2956 
Q 1356 3278 1631 3431 
Q 1906 3584 2284 3584 
Q 2666 3584 2933 3390 
Q 3200 3197 3328 2828 
z
" transform="scale(0.015625)"/>
      <path id="DejaVuSans-63" d="M 3122 3366 
L 3122 2828 
Q 2878 2963 2633 3030 
Q 2388 3097 2138 3097 
Q 1578 3097 1268 2742 
Q 959 2388 959 1747 
Q 959 1106 1268 751 
Q 1578 397 2138 397 
Q 2388 397 2633 464 
Q 2878 531 3122 666 
L 3122 134 
Q 2881 22 2623 -34 
Q 2366 -91 2075 -91 
Q 1284 -91 818 406 
Q 353 903 353 1747 
Q 353 2603 823 3093 
Q 1294 3584 2113 3584 
Q 2378 3584 2631 3529 
Q 2884 3475 3122 3366 
z
" transform="scale(0.015625)"/>
      <path id="DejaVuSans-77" d="M 269 3500 
L 844 3500 
L 1563 769 
L 2278 3500 
L 2956 3500 
L 3675 769 
L 4391 3500 
L 4966 3500 
L 4050 0 
L 3372 0 
L 2619 2869 
L 1863 0 
L 1184 0 
L 269 3500 
z
" transform="scale(0.015625)"/>
      <path id="DejaVuSans-28" d="M 1984 4856 
Q 1566 4138 1362 3434 
Q 1159 2731 1159 2009 
Q 1159 1288 1364 580 
Q 1569 -128 1984 -844 
L 1484 -844 
Q 1016 -109 783 600 
Q 550 1309 550 2009 
Q 550 2706 781 3412 
Q 1013 4119 1484 4856 
L 1984 4856 
z
" transform="scale(0.015625)"/>
      <path id="DejaVuSans-75" d="M 544 1381 
L 544 3500 
L 1119 3500 
L 1119 1403 
Q 1119 906 1312 657 
Q 1506 409 1894 409 
Q 2359 409 2629 706 
Q 2900 1003 2900 1516 
L 2900 3500 
L 3475 3500 
L 3475 0 
L 2900 0 
L 2900 538 
Q 2691 219 2414 64 
Q 2138 -91 1772 -91 
Q 1169 -91 856 284 
Q 544 659 544 1381 
z
M 1991 3584 
L 1991 3584 
z
" transform="scale(0.015625)"/>
      <path id="DejaVuSans-29" d="M 513 4856 
L 1013 4856 
Q 1481 4119 1714 3412 
Q 1947 2706 1947 2009 
Q 1947 1309 1714 600 
Q 1481 -109 1013 -844 
L 513 -844 
Q 928 -128 1133 580 
Q 1338 1288 1338 2009 
Q 1338 2731 1133 3434 
Q 928 4138 513 4856 
z
" transform="scale(0.015625)"/>
      <path id="DejaVuSans-3b3" d="M 1128 2950 
L 1894 788 
L 2988 3500 
L 3597 3500 
L 2181 0 
L 2181 -1331 
L 1606 -1331 
L 1606 0 
L 688 2613 
Q 550 3006 253 3006 
L 100 3006 
L 100 3500 
L 319 3500 
Q 934 3500 1128 2950 
z
" transform="scale(0.015625)"/>
      <path id="DejaVuSans-64" d="M 2906 2969 
L 2906 4863 
L 3481 4863 
L 3481 0 
L 2906 0 
L 2906 525 
Q 2725 213 2448 61 
Q 2172 -91 1784 -91 
Q 1150 -91 751 415 
Q 353 922 353 1747 
Q 353 2572 751 3078 
Q 1150 3584 1784 3584 
Q 2172 3584 2448 3432 
Q 2725 3281 2906 2969 
z
M 947 1747 
Q 947 1113 1208 752 
Q 1469 391 1925 391 
Q 2381 391 2643 752 
Q 2906 1113 2906 1747 
Q 2906 2381 2643 2742 
Q 2381 3103 1925 3103 
Q 1469 3103 1208 2742 
Q 947 2381 947 1747 
z
" transform="scale(0.015625)"/>
      <path id="DejaVuSans-68" d="M 3513 2113 
L 3513 0 
L 2938 0 
L 2938 2094 
Q 2938 2591 2744 2837 
Q 2550 3084 2163 3084 
Q 1697 3084 1428 2787 
Q 1159 2491 1159 1978 
L 1159 0 
L 581 0 
L 581 4863 
L 1159 4863 
L 1159 2956 
Q 1366 3272 1645 3428 
Q 1925 3584 2291 3584 
Q 2894 3584 3203 3211 
Q 3513 2838 3513 2113 
z
" transform="scale(0.015625)"/>
      <path id="DejaVuSans-7a" d="M 353 3500 
L 3084 3500 
L 3084 2975 
L 922 459 
L 3084 459 
L 3084 0 
L 275 0 
L 275 525 
L 2438 3041 
L 353 3041 
L 353 3500 
z
" transform="scale(0.015625)"/>
     </defs>
     <use xlink:href="#DejaVuSans-50"/>
     <use xlink:href="#DejaVuSans-65" x="56.677734"/>
     <use xlink:href="#DejaVuSans-72" x="118.201172"/>
     <use xlink:href="#DejaVuSans-66" x="159.314453"/>
     <use xlink:href="#DejaVuSans-6f" x="194.519531"/>
     <use xlink:href="#DejaVuSans-72" x="255.701172"/>
     <use xlink:href="#DejaVuSans-6d" x="295.064453"/>
     <use xlink:href="#DejaVuSans-61" x="392.476562"/>
     <use xlink:href="#DejaVuSans-6e" x="453.755859"/>
     <use xlink:href="#DejaVuSans-63" x="517.134766"/>
     <use xlink:href="#DejaVuSans-65" x="572.115234"/>
     <use xlink:href="#DejaVuSans-20" x="633.638672"/>
     <use xlink:href="#DejaVuSans-6f" x="665.425781"/>
     <use xlink:href="#DejaVuSans-66" x="726.607422"/>
     <use xlink:href="#DejaVuSans-20" x="761.8125"/>
     <use xlink:href="#DejaVuSans-77" x="793.599609"/>
     <use xlink:href="#DejaVuSans-72" x="875.386719"/>
     <use xlink:href="#DejaVuSans-69" x="916.5"/>
     <use xlink:href="#DejaVuSans-74" x="944.283203"/>
     <use xlink:href="#DejaVuSans-65" x="983.492188"/>
     <use xlink:href="#DejaVuSans-73" x="1045.015625"/>
     <use xlink:href="#DejaVuSans-20" x="1097.115234"/>
     <use xlink:href="#DejaVuSans-28" x="1128.902344"/>
     <use xlink:href="#DejaVuSans-75" x="1167.916016"/>
     <use xlink:href="#DejaVuSans-31" x="1231.294922"/>
     <use xlink:href="#DejaVuSans-36" x="1294.917969"/>
     <use xlink:href="#DejaVuSans-29" x="1358.541016"/>
     <use xlink:href="#DejaVuSans-20" x="1397.554688"/>
     <use xlink:href="#DejaVuSans-69" x="1429.341797"/>
     <use xlink:href="#DejaVuSans-6e" x="1457.125"/>
     <use xlink:href="#DejaVuSans-20" x="1520.503906"/>
     <use xlink:href="#DejaVuSans-3b3" x="1552.291016"/>
     <use xlink:href="#DejaVuSans-20" x="1611.470703"/>
     <use xlink:href="#DejaVuSans-63" x="1643.257812"/>
     <use xlink:href="#DejaVuSans-6f" x="1698.238281"/>
     <use xlink:href="#DejaVuSans-64" x="1759.419922"/>
     <use xlink:href="#DejaVuSans-65" x="1822.896484"/>
     <use xlink:href="#DejaVuSans-20" x="1884.419922"/>
     <use xlink:href="#DejaVuSans-69" x="1916.207031"/>
     <use xlink:href="#DejaVuSans-6e" x="1943.990234"/>
     <use xlink:href="#DejaVuSans-20" x="2007.369141"/>
     <use xlink:href="#DejaVuSans-66" x="2039.15625"/>
     <use xlink:href="#DejaVuSans-75" x="2074.361328"/>
     <use xlink:href="#DejaVuSans-6e" x="2137.740234"/>
     <use xlink:href="#DejaVuSans-63" x="2201.119141"/>
     <use xlink:href="#DejaVuSans-74" x="2256.099609"/>
     <use xlink:href="#DejaVuSans-69" x="2295.308594"/>
     <use xlink:href="#DejaVuSans-6f" x="2323.091797"/>
     <use xlink:href="#DejaVuSans-6e" x="2384.273438"/>
     <use xlink:href="#DejaVuSans-20" x="2447.652344"/>
     <use xlink:href="#DejaVuSans-6f" x="2479.439453"/>
     <use xlink:href="#DejaVuSans-66" x="2540.621094"/>
     <use xlink:href="#DejaVuSans-20" x="2575.826172"/>
     <use xlink:href="#DejaVuSans-74" x="2607.613281"/>
     <use xlink:href="#DejaVuSans-68" x="2646.822266"/>
     <use xlink:href="#DejaVuSans-65" x="2710.201172"/>
     <use xlink:href="#DejaVuSans-20" x="2771.724609"/>
     <use xlink:href="#DejaVuSans-74" x="2803.511719"/>
     <use xlink:href="#DejaVuSans-61" x="2842.720703"/>
     <use xlink:href="#DejaVuSans-62" x="2904"/>
     <use xlink:href="#DejaVuSans-6c" x="2967.476562"/>
     <use xlink:href="#DejaVuSans-65" x="2995.259766"/>
     <use xlink:href="#DejaVuSans-20" x="3056.783203"/>
     <use xlink:href="#DejaVuSans-73" x="3088.570312"/>
     <use xlink:href="#DejaVuSans-69" x="3140.669922"/>
     <use xlink:href="#DejaVuSans-7a" x="3168.453125"/>
     <use xlink:href="#DejaVuSans-65" x="3220.943359"/>
    </g>
    <!-- Shaded areas are the 25% and 75% percentiles and the plots are medians -->
    <g transform="translate(89.542813 29.7555) scale(0.12 -0.12)">
     <defs>
      <path id="DejaVuSans-53" d="M 3425 4513 
L 3425 3897 
Q 3066 4069 2747 4153 
Q 2428 4238 2131 4238 
Q 1616 4238 1336 4038 
Q 1056 3838 1056 3469 
Q 1056 3159 1242 3001 
Q 1428 2844 1947 2747 
L 2328 2669 
Q 3034 2534 3370 2195 
Q 3706 1856 3706 1288 
Q 3706 609 3251 259 
Q 2797 -91 1919 -91 
Q 1588 -91 1214 -16 
Q 841 59 441 206 
L 441 856 
Q 825 641 1194 531 
Q 1563 422 1919 422 
Q 2459 422 2753 634 
Q 3047 847 3047 1241 
Q 3047 1584 2836 1778 
Q 2625 1972 2144 2069 
L 1759 2144 
Q 1053 2284 737 2584 
Q 422 2884 422 3419 
Q 422 4038 858 4394 
Q 1294 4750 2059 4750 
Q 2388 4750 2728 4690 
Q 3069 4631 3425 4513 
z
" transform="scale(0.015625)"/>
      <path id="DejaVuSans-70" d="M 1159 525 
L 1159 -1331 
L 581 -1331 
L 581 3500 
L 1159 3500 
L 1159 2969 
Q 1341 3281 1617 3432 
Q 1894 3584 2278 3584 
Q 2916 3584 3314 3078 
Q 3713 2572 3713 1747 
Q 3713 922 3314 415 
Q 2916 -91 2278 -91 
Q 1894 -91 1617 61 
Q 1341 213 1159 525 
z
M 3116 1747 
Q 3116 2381 2855 2742 
Q 2594 3103 2138 3103 
Q 1681 3103 1420 2742 
Q 1159 2381 1159 1747 
Q 1159 1113 1420 752 
Q 1681 391 2138 391 
Q 2594 391 2855 752 
Q 3116 1113 3116 1747 
z
" transform="scale(0.015625)"/>
     </defs>
     <use xlink:href="#DejaVuSans-53"/>
     <use xlink:href="#DejaVuSans-68" x="63.476562"/>
     <use xlink:href="#DejaVuSans-61" x="126.855469"/>
     <use xlink:href="#DejaVuSans-64" x="188.134766"/>
     <use xlink:href="#DejaVuSans-65" x="251.611328"/>
     <use xlink:href="#DejaVuSans-64" x="313.134766"/>
     <use xlink:href="#DejaVuSans-20" x="376.611328"/>
     <use xlink:href="#DejaVuSans-61" x="408.398438"/>
     <use xlink:href="#DejaVuSans-72" x="469.677734"/>
     <use xlink:href="#DejaVuSans-65" x="508.541016"/>
     <use xlink:href="#DejaVuSans-61" x="570.064453"/>
     <use xlink:href="#DejaVuSans-73" x="631.34375"/>
     <use xlink:href="#DejaVuSans-20" x="683.443359"/>
     <use xlink:href="#DejaVuSans-61" x="715.230469"/>
     <use xlink:href="#DejaVuSans-72" x="776.509766"/>
     <use xlink:href="#DejaVuSans-65" x="815.373047"/>
     <use xlink:href="#DejaVuSans-20" x="876.896484"/>
     <use xlink:href="#DejaVuSans-74" x="908.683594"/>
     <use xlink:href="#DejaVuSans-68" x="947.892578"/>
     <use xlink:href="#DejaVuSans-65" x="1011.271484"/>
     <use xlink:href="#DejaVuSans-20" x="1072.794922"/>
     <use xlink:href="#DejaVuSans-32" x="1104.582031"/>
     <use xlink:href="#DejaVuSans-35" x="1168.205078"/>
     <use xlink:href="#DejaVuSans-25" x="1231.828125"/>
     <use xlink:href="#DejaVuSans-20" x="1326.847656"/>
     <use xlink:href="#DejaVuSans-61" x="1358.634766"/>
     <use xlink:href="#DejaVuSans-6e" x="1419.914062"/>
     <use xlink:href="#DejaVuSans-64" x="1483.292969"/>
     <use xlink:href="#DejaVuSans-20" x="1546.769531"/>
     <use xlink:href="#DejaVuSans-37" x="1578.556641"/>
     <use xlink:href="#DejaVuSans-35" x="1642.179688"/>
     <use xlink:href="#DejaVuSans-25" x="1705.802734"/>
     <use xlink:href="#DejaVuSans-20" x="1800.822266"/>
     <use xlink:href="#DejaVuSans-70" x="1832.609375"/>
     <use xlink:href="#DejaVuSans-65" x="1896.085938"/>
     <use xlink:href="#DejaVuSans-72" x="1957.609375"/>
     <use xlink:href="#DejaVuSans-63" x="1996.472656"/>
     <use xlink:href="#DejaVuSans-65" x="2051.453125"/>
     <use xlink:href="#DejaVuSans-6e" x="2112.976562"/>
     <use xlink:href="#DejaVuSans-74" x="2176.355469"/>
     <use xlink:href="#DejaVuSans-69" x="2215.564453"/>
     <use xlink:href="#DejaVuSans-6c" x="2243.347656"/>
     <use xlink:href="#DejaVuSans-65" x="2271.130859"/>
     <use xlink:href="#DejaVuSans-73" x="2332.654297"/>
     <use xlink:href="#DejaVuSans-20" x="2384.753906"/>
     <use xlink:href="#DejaVuSans-61" x="2416.541016"/>
     <use xlink:href="#DejaVuSans-6e" x="2477.820312"/>
     <use xlink:href="#DejaVuSans-64" x="2541.199219"/>
     <use xlink:href="#DejaVuSans-20" x="2604.675781"/>
     <use xlink:href="#DejaVuSans-74" x="2636.462891"/>
     <use xlink:href="#DejaVuSans-68" x="2675.671875"/>
     <use xlink:href="#DejaVuSans-65" x="2739.050781"/>
     <use xlink:href="#DejaVuSans-20" x="2800.574219"/>
     <use xlink:href="#DejaVuSans-70" x="2832.361328"/>
     <use xlink:href="#DejaVuSans-6c" x="2895.837891"/>
     <use xlink:href="#DejaVuSans-6f" x="2923.621094"/>
     <use xlink:href="#DejaVuSans-74" x="2984.802734"/>
     <use xlink:href="#DejaVuSans-73" x="3024.011719"/>
     <use xlink:href="#DejaVuSans-20" x="3076.111328"/>
     <use xlink:href="#DejaVuSans-61" x="3107.898438"/>
     <use xlink:href="#DejaVuSans-72" x="3169.177734"/>
     <use xlink:href="#DejaVuSans-65" x="3208.041016"/>
     <use xlink:href="#DejaVuSans-20" x="3269.564453"/>
     <use xlink:href="#DejaVuSans-6d" x="3301.351562"/>
     <use xlink:href="#DejaVuSans-65" x="3398.763672"/>
     <use xlink:href="#DejaVuSans-64" x="3460.287109"/>
     <use xlink:href="#DejaVuSans-69" x="3523.763672"/>
     <use xlink:href="#DejaVuSans-61" x="3551.546875"/>
     <use xlink:href="#DejaVuSans-6e" x="3612.826172"/>
     <use xlink:href="#DejaVuSans-73" x="3676.205078"/>
    </g>
   </g>
   <g id="legend_1">
    <g id="patch_24">
     <path d="M 599.240625 317.728 
L 848.226562 317.728 
Q 850.226562 317.728 850.226562 315.728 
L 850.226562 199.303 
Q 850.226562 197.303 848.226562 197.303 
L 599.240625 197.303 
Q 597.240625 197.303 597.240625 199.303 
L 597.240625 315.728 
Q 597.240625 317.728 599.240625 317.728 
z
" style="fill: #ffffff; opacity: 0.8; stroke: #cccccc; stroke-linejoin: miter"/>
    </g>
    <g id="line2d_33">
     <path d="M 601.240625 205.401438 
L 611.240625 205.401438 
L 621.240625 205.401438 
" style="fill: none; stroke-dasharray: 5.55,2.4; stroke-dashoffset: 0; stroke: #808080; stroke-opacity: 0.3; stroke-width: 1.5"/>
    </g>
    <g id="text_46">
     <!-- table hit ratio 100% line -->
     <g transform="translate(629.240625 208.901438) scale(0.1 -0.1)">
      <use xlink:href="#DejaVuSans-74"/>
      <use xlink:href="#DejaVuSans-61" x="39.208984"/>
      <use xlink:href="#DejaVuSans-62" x="100.488281"/>
      <use xlink:href="#DejaVuSans-6c" x="163.964844"/>
      <use xlink:href="#DejaVuSans-65" x="191.748047"/>
      <use xlink:href="#DejaVuSans-20" x="253.271484"/>
      <use xlink:href="#DejaVuSans-68" x="285.058594"/>
      <use xlink:href="#DejaVuSans-69" x="348.4375"/>
      <use xlink:href="#DejaVuSans-74" x="376.220703"/>
      <use xlink:href="#DejaVuSans-20" x="415.429688"/>
      <use xlink:href="#DejaVuSans-72" x="447.216797"/>
      <use xlink:href="#DejaVuSans-61" x="488.330078"/>
      <use xlink:href="#DejaVuSans-74" x="549.609375"/>
      <use xlink:href="#DejaVuSans-69" x="588.818359"/>
      <use xlink:href="#DejaVuSans-6f" x="616.601562"/>
      <use xlink:href="#DejaVuSans-20" x="677.783203"/>
      <use xlink:href="#DejaVuSans-31" x="709.570312"/>
      <use xlink:href="#DejaVuSans-30" x="773.193359"/>
      <use xlink:href="#DejaVuSans-30" x="836.816406"/>
      <use xlink:href="#DejaVuSans-25" x="900.439453"/>
      <use xlink:href="#DejaVuSans-20" x="995.458984"/>
      <use xlink:href="#DejaVuSans-6c" x="1027.246094"/>
      <use xlink:href="#DejaVuSans-69" x="1055.029297"/>
      <use xlink:href="#DejaVuSans-6e" x="1082.8125"/>
      <use xlink:href="#DejaVuSans-65" x="1146.191406"/>
     </g>
    </g>
    <g id="line2d_34">
     <path d="M 601.240625 220.079563 
L 621.240625 220.079563 
" style="fill: none; stroke: #1f77b4; stroke-width: 1.5; stroke-linecap: square"/>
    </g>
    <g id="line2d_35">
     <g>
      <use xlink:href="#m20b48625fa" x="611.240625" y="220.079563" style="fill: #1f77b4; stroke: #1f77b4"/>
     </g>
    </g>
    <g id="text_47">
     <!-- LE::Table::merged (min: 3.525ns @ 12 bits) -->
     <g transform="translate(629.240625 223.579563) scale(0.1 -0.1)">
      <defs>
       <path id="DejaVuSans-4c" d="M 628 4666 
L 1259 4666 
L 1259 531 
L 3531 531 
L 3531 0 
L 628 0 
L 628 4666 
z
" transform="scale(0.015625)"/>
       <path id="DejaVuSans-45" d="M 628 4666 
L 3578 4666 
L 3578 4134 
L 1259 4134 
L 1259 2753 
L 3481 2753 
L 3481 2222 
L 1259 2222 
L 1259 531 
L 3634 531 
L 3634 0 
L 628 0 
L 628 4666 
z
" transform="scale(0.015625)"/>
       <path id="DejaVuSans-3a" d="M 750 794 
L 1409 794 
L 1409 0 
L 750 0 
L 750 794 
z
M 750 3309 
L 1409 3309 
L 1409 2516 
L 750 2516 
L 750 3309 
z
" transform="scale(0.015625)"/>
       <path id="DejaVuSans-67" d="M 2906 1791 
Q 2906 2416 2648 2759 
Q 2391 3103 1925 3103 
Q 1463 3103 1205 2759 
Q 947 2416 947 1791 
Q 947 1169 1205 825 
Q 1463 481 1925 481 
Q 2391 481 2648 825 
Q 2906 1169 2906 1791 
z
M 3481 434 
Q 3481 -459 3084 -895 
Q 2688 -1331 1869 -1331 
Q 1566 -1331 1297 -1286 
Q 1028 -1241 775 -1147 
L 775 -588 
Q 1028 -725 1275 -790 
Q 1522 -856 1778 -856 
Q 2344 -856 2625 -561 
Q 2906 -266 2906 331 
L 2906 616 
Q 2728 306 2450 153 
Q 2172 0 1784 0 
Q 1141 0 747 490 
Q 353 981 353 1791 
Q 353 2603 747 3093 
Q 1141 3584 1784 3584 
Q 2172 3584 2450 3431 
Q 2728 3278 2906 2969 
L 2906 3500 
L 3481 3500 
L 3481 434 
z
" transform="scale(0.015625)"/>
       <path id="DejaVuSans-40" d="M 2381 1678 
Q 2381 1231 2603 976 
Q 2825 722 3213 722 
Q 3597 722 3817 978 
Q 4038 1234 4038 1678 
Q 4038 2116 3813 2373 
Q 3588 2631 3206 2631 
Q 2828 2631 2604 2375 
Q 2381 2119 2381 1678 
z
M 4084 744 
Q 3897 503 3655 389 
Q 3413 275 3091 275 
Q 2553 275 2217 664 
Q 1881 1053 1881 1678 
Q 1881 2303 2218 2693 
Q 2556 3084 3091 3084 
Q 3413 3084 3656 2967 
Q 3900 2850 4084 2613 
L 4084 3022 
L 4531 3022 
L 4531 722 
Q 4988 791 5245 1139 
Q 5503 1488 5503 2041 
Q 5503 2375 5404 2669 
Q 5306 2963 5106 3213 
Q 4781 3622 4314 3839 
Q 3847 4056 3297 4056 
Q 2913 4056 2559 3954 
Q 2206 3853 1906 3653 
Q 1416 3334 1139 2817 
Q 863 2300 863 1697 
Q 863 1200 1042 765 
Q 1222 331 1563 0 
Q 1891 -325 2322 -495 
Q 2753 -666 3244 -666 
Q 3647 -666 4036 -530 
Q 4425 -394 4750 -141 
L 5031 -488 
Q 4641 -791 4180 -952 
Q 3719 -1113 3244 -1113 
Q 2666 -1113 2153 -908 
Q 1641 -703 1241 -313 
Q 841 78 631 592 
Q 422 1106 422 1697 
Q 422 2266 634 2781 
Q 847 3297 1241 3688 
Q 1644 4084 2172 4295 
Q 2700 4506 3291 4506 
Q 3953 4506 4520 4234 
Q 5088 3963 5472 3463 
Q 5706 3156 5829 2797 
Q 5953 2438 5953 2053 
Q 5953 1231 5456 756 
Q 4959 281 4084 263 
L 4084 744 
z
" transform="scale(0.015625)"/>
      </defs>
      <use xlink:href="#DejaVuSans-4c"/>
      <use xlink:href="#DejaVuSans-45" x="55.712891"/>
      <use xlink:href="#DejaVuSans-3a" x="118.896484"/>
      <use xlink:href="#DejaVuSans-3a" x="152.587891"/>
      <use xlink:href="#DejaVuSans-54" x="186.279297"/>
      <use xlink:href="#DejaVuSans-61" x="230.863281"/>
      <use xlink:href="#DejaVuSans-62" x="292.142578"/>
      <use xlink:href="#DejaVuSans-6c" x="355.619141"/>
      <use xlink:href="#DejaVuSans-65" x="383.402344"/>
      <use xlink:href="#DejaVuSans-3a" x="444.925781"/>
      <use xlink:href="#DejaVuSans-3a" x="478.617188"/>
      <use xlink:href="#DejaVuSans-6d" x="512.308594"/>
      <use xlink:href="#DejaVuSans-65" x="609.720703"/>
      <use xlink:href="#DejaVuSans-72" x="671.244141"/>
      <use xlink:href="#DejaVuSans-67" x="710.607422"/>
      <use xlink:href="#DejaVuSans-65" x="774.083984"/>
      <use xlink:href="#DejaVuSans-64" x="835.607422"/>
      <use xlink:href="#DejaVuSans-20" x="899.083984"/>
      <use xlink:href="#DejaVuSans-28" x="930.871094"/>
      <use xlink:href="#DejaVuSans-6d" x="969.884766"/>
      <use xlink:href="#DejaVuSans-69" x="1067.296875"/>
      <use xlink:href="#DejaVuSans-6e" x="1095.080078"/>
      <use xlink:href="#DejaVuSans-3a" x="1158.458984"/>
      <use xlink:href="#DejaVuSans-20" x="1192.150391"/>
      <use xlink:href="#DejaVuSans-33" x="1223.9375"/>
      <use xlink:href="#DejaVuSans-2e" x="1287.560547"/>
      <use xlink:href="#DejaVuSans-35" x="1319.347656"/>
      <use xlink:href="#DejaVuSans-32" x="1382.970703"/>
      <use xlink:href="#DejaVuSans-35" x="1446.59375"/>
      <use xlink:href="#DejaVuSans-6e" x="1510.216797"/>
      <use xlink:href="#DejaVuSans-73" x="1573.595703"/>
      <use xlink:href="#DejaVuSans-20" x="1625.695312"/>
      <use xlink:href="#DejaVuSans-40" x="1657.482422"/>
      <use xlink:href="#DejaVuSans-20" x="1757.482422"/>
      <use xlink:href="#DejaVuSans-31" x="1789.269531"/>
      <use xlink:href="#DejaVuSans-32" x="1852.892578"/>
      <use xlink:href="#DejaVuSans-20" x="1916.515625"/>
      <use xlink:href="#DejaVuSans-62" x="1948.302734"/>
      <use xlink:href="#DejaVuSans-69" x="2011.779297"/>
      <use xlink:href="#DejaVuSans-74" x="2039.5625"/>
      <use xlink:href="#DejaVuSans-73" x="2078.771484"/>
      <use xlink:href="#DejaVuSans-29" x="2130.871094"/>
     </g>
    </g>
    <g id="line2d_36">
     <path d="M 601.240625 234.757688 
L 621.240625 234.757688 
" style="fill: none; stroke: #ff7f0e; stroke-width: 1.5; stroke-linecap: square"/>
    </g>
    <g id="line2d_37">
     <g>
      <use xlink:href="#m9229f74f6b" x="611.240625" y="234.757688" style="fill: #ff7f0e; stroke: #ff7f0e"/>
     </g>
    </g>
    <g id="text_48">
     <!-- BE::Table::merged (min: 3.655ns @ 6 bits) -->
     <g transform="translate(629.240625 238.257688) scale(0.1 -0.1)">
      <use xlink:href="#DejaVuSans-42"/>
      <use xlink:href="#DejaVuSans-45" x="68.603516"/>
      <use xlink:href="#DejaVuSans-3a" x="131.787109"/>
      <use xlink:href="#DejaVuSans-3a" x="165.478516"/>
      <use xlink:href="#DejaVuSans-54" x="199.169922"/>
      <use xlink:href="#DejaVuSans-61" x="243.753906"/>
      <use xlink:href="#DejaVuSans-62" x="305.033203"/>
      <use xlink:href="#DejaVuSans-6c" x="368.509766"/>
      <use xlink:href="#DejaVuSans-65" x="396.292969"/>
      <use xlink:href="#DejaVuSans-3a" x="457.816406"/>
      <use xlink:href="#DejaVuSans-3a" x="491.507812"/>
      <use xlink:href="#DejaVuSans-6d" x="525.199219"/>
      <use xlink:href="#DejaVuSans-65" x="622.611328"/>
      <use xlink:href="#DejaVuSans-72" x="684.134766"/>
      <use xlink:href="#DejaVuSans-67" x="723.498047"/>
      <use xlink:href="#DejaVuSans-65" x="786.974609"/>
      <use xlink:href="#DejaVuSans-64" x="848.498047"/>
      <use xlink:href="#DejaVuSans-20" x="911.974609"/>
      <use xlink:href="#DejaVuSans-28" x="943.761719"/>
      <use xlink:href="#DejaVuSans-6d" x="982.775391"/>
      <use xlink:href="#DejaVuSans-69" x="1080.1875"/>
      <use xlink:href="#DejaVuSans-6e" x="1107.970703"/>
      <use xlink:href="#DejaVuSans-3a" x="1171.349609"/>
      <use xlink:href="#DejaVuSans-20" x="1205.041016"/>
      <use xlink:href="#DejaVuSans-33" x="1236.828125"/>
      <use xlink:href="#DejaVuSans-2e" x="1300.451172"/>
      <use xlink:href="#DejaVuSans-36" x="1332.238281"/>
      <use xlink:href="#DejaVuSans-35" x="1395.861328"/>
      <use xlink:href="#DejaVuSans-35" x="1459.484375"/>
      <use xlink:href="#DejaVuSans-6e" x="1523.107422"/>
      <use xlink:href="#DejaVuSans-73" x="1586.486328"/>
      <use xlink:href="#DejaVuSans-20" x="1638.585938"/>
      <use xlink:href="#DejaVuSans-40" x="1670.373047"/>
      <use xlink:href="#DejaVuSans-20" x="1770.373047"/>
      <use xlink:href="#DejaVuSans-36" x="1802.160156"/>
      <use xlink:href="#DejaVuSans-20" x="1865.783203"/>
      <use xlink:href="#DejaVuSans-62" x="1897.570312"/>
      <use xlink:href="#DejaVuSans-69" x="1961.046875"/>
      <use xlink:href="#DejaVuSans-74" x="1988.830078"/>
      <use xlink:href="#DejaVuSans-73" x="2028.039062"/>
      <use xlink:href="#DejaVuSans-29" x="2080.138672"/>
     </g>
    </g>
    <g id="line2d_38">
     <path d="M 601.240625 249.435813 
L 621.240625 249.435813 
" style="fill: none; stroke: #2ca02c; stroke-width: 1.5; stroke-linecap: square"/>
    </g>
    <g id="line2d_39">
     <g>
      <use xlink:href="#m71fff163c4" x="611.240625" y="249.435813" style="fill: #2ca02c; stroke: #2ca02c; stroke-linejoin: miter"/>
     </g>
    </g>
    <g id="text_49">
     <!-- LE::Table::sep (min: 3.626ns @ 11 bits) -->
     <g transform="translate(629.240625 252.935813) scale(0.1 -0.1)">
      <use xlink:href="#DejaVuSans-4c"/>
      <use xlink:href="#DejaVuSans-45" x="55.712891"/>
      <use xlink:href="#DejaVuSans-3a" x="118.896484"/>
      <use xlink:href="#DejaVuSans-3a" x="152.587891"/>
      <use xlink:href="#DejaVuSans-54" x="186.279297"/>
      <use xlink:href="#DejaVuSans-61" x="230.863281"/>
      <use xlink:href="#DejaVuSans-62" x="292.142578"/>
      <use xlink:href="#DejaVuSans-6c" x="355.619141"/>
      <use xlink:href="#DejaVuSans-65" x="383.402344"/>
      <use xlink:href="#DejaVuSans-3a" x="444.925781"/>
      <use xlink:href="#DejaVuSans-3a" x="478.617188"/>
      <use xlink:href="#DejaVuSans-73" x="512.308594"/>
      <use xlink:href="#DejaVuSans-65" x="564.408203"/>
      <use xlink:href="#DejaVuSans-70" x="625.931641"/>
      <use xlink:href="#DejaVuSans-20" x="689.408203"/>
      <use xlink:href="#DejaVuSans-28" x="721.195312"/>
      <use xlink:href="#DejaVuSans-6d" x="760.208984"/>
      <use xlink:href="#DejaVuSans-69" x="857.621094"/>
      <use xlink:href="#DejaVuSans-6e" x="885.404297"/>
      <use xlink:href="#DejaVuSans-3a" x="948.783203"/>
      <use xlink:href="#DejaVuSans-20" x="982.474609"/>
      <use xlink:href="#DejaVuSans-33" x="1014.261719"/>
      <use xlink:href="#DejaVuSans-2e" x="1077.884766"/>
      <use xlink:href="#DejaVuSans-36" x="1109.671875"/>
      <use xlink:href="#DejaVuSans-32" x="1173.294922"/>
      <use xlink:href="#DejaVuSans-36" x="1236.917969"/>
      <use xlink:href="#DejaVuSans-6e" x="1300.541016"/>
      <use xlink:href="#DejaVuSans-73" x="1363.919922"/>
      <use xlink:href="#DejaVuSans-20" x="1416.019531"/>
      <use xlink:href="#DejaVuSans-40" x="1447.806641"/>
      <use xlink:href="#DejaVuSans-20" x="1547.806641"/>
      <use xlink:href="#DejaVuSans-31" x="1579.59375"/>
      <use xlink:href="#DejaVuSans-31" x="1643.216797"/>
      <use xlink:href="#DejaVuSans-20" x="1706.839844"/>
      <use xlink:href="#DejaVuSans-62" x="1738.626953"/>
      <use xlink:href="#DejaVuSans-69" x="1802.103516"/>
      <use xlink:href="#DejaVuSans-74" x="1829.886719"/>
      <use xlink:href="#DejaVuSans-73" x="1869.095703"/>
      <use xlink:href="#DejaVuSans-29" x="1921.195312"/>
     </g>
    </g>
    <g id="line2d_40">
     <path d="M 601.240625 264.113938 
L 621.240625 264.113938 
" style="fill: none; stroke: #d62728; stroke-width: 1.5; stroke-linecap: square"/>
    </g>
    <g id="line2d_41">
     <g>
      <use xlink:href="#m70a41fea87" x="611.240625" y="264.113938" style="fill: #d62728; stroke: #d62728; stroke-linejoin: miter"/>
     </g>
    </g>
    <g id="text_50">
     <!-- BE::Table::sep (min: 3.689ns @ 7 bits) -->
     <g transform="translate(629.240625 267.613938) scale(0.1 -0.1)">
      <use xlink:href="#DejaVuSans-42"/>
      <use xlink:href="#DejaVuSans-45" x="68.603516"/>
      <use xlink:href="#DejaVuSans-3a" x="131.787109"/>
      <use xlink:href="#DejaVuSans-3a" x="165.478516"/>
      <use xlink:href="#DejaVuSans-54" x="199.169922"/>
      <use xlink:href="#DejaVuSans-61" x="243.753906"/>
      <use xlink:href="#DejaVuSans-62" x="305.033203"/>
      <use xlink:href="#DejaVuSans-6c" x="368.509766"/>
      <use xlink:href="#DejaVuSans-65" x="396.292969"/>
      <use xlink:href="#DejaVuSans-3a" x="457.816406"/>
      <use xlink:href="#DejaVuSans-3a" x="491.507812"/>
      <use xlink:href="#DejaVuSans-73" x="525.199219"/>
      <use xlink:href="#DejaVuSans-65" x="577.298828"/>
      <use xlink:href="#DejaVuSans-70" x="638.822266"/>
      <use xlink:href="#DejaVuSans-20" x="702.298828"/>
      <use xlink:href="#DejaVuSans-28" x="734.085938"/>
      <use xlink:href="#DejaVuSans-6d" x="773.099609"/>
      <use xlink:href="#DejaVuSans-69" x="870.511719"/>
      <use xlink:href="#DejaVuSans-6e" x="898.294922"/>
      <use xlink:href="#DejaVuSans-3a" x="961.673828"/>
      <use xlink:href="#DejaVuSans-20" x="995.365234"/>
      <use xlink:href="#DejaVuSans-33" x="1027.152344"/>
      <use xlink:href="#DejaVuSans-2e" x="1090.775391"/>
      <use xlink:href="#DejaVuSans-36" x="1122.5625"/>
      <use xlink:href="#DejaVuSans-38" x="1186.185547"/>
      <use xlink:href="#DejaVuSans-39" x="1249.808594"/>
      <use xlink:href="#DejaVuSans-6e" x="1313.431641"/>
      <use xlink:href="#DejaVuSans-73" x="1376.810547"/>
      <use xlink:href="#DejaVuSans-20" x="1428.910156"/>
      <use xlink:href="#DejaVuSans-40" x="1460.697266"/>
      <use xlink:href="#DejaVuSans-20" x="1560.697266"/>
      <use xlink:href="#DejaVuSans-37" x="1592.484375"/>
      <use xlink:href="#DejaVuSans-20" x="1656.107422"/>
      <use xlink:href="#DejaVuSans-62" x="1687.894531"/>
      <use xlink:href="#DejaVuSans-69" x="1751.371094"/>
      <use xlink:href="#DejaVuSans-74" x="1779.154297"/>
      <use xlink:href="#DejaVuSans-73" x="1818.363281"/>
      <use xlink:href="#DejaVuSans-29" x="1870.462891"/>
     </g>
    </g>
    <g id="line2d_42">
     <path d="M 601.240625 278.792063 
L 621.240625 278.792063 
" style="fill: none; stroke: #9467bd; stroke-width: 1.5; stroke-linecap: square"/>
    </g>
    <g id="line2d_43">
     <g>
      <use xlink:href="#mad9e680e48" x="611.240625" y="278.792063" style="fill: #9467bd; stroke: #9467bd; stroke-linejoin: miter"/>
     </g>
    </g>
    <g id="text_51">
     <!-- LE::NoTable (min: 6.422ns) -->
     <g transform="translate(629.240625 282.292063) scale(0.1 -0.1)">
      <defs>
       <path id="DejaVuSans-4e" d="M 628 4666 
L 1478 4666 
L 3547 763 
L 3547 4666 
L 4159 4666 
L 4159 0 
L 3309 0 
L 1241 3903 
L 1241 0 
L 628 0 
L 628 4666 
z
" transform="scale(0.015625)"/>
      </defs>
      <use xlink:href="#DejaVuSans-4c"/>
      <use xlink:href="#DejaVuSans-45" x="55.712891"/>
      <use xlink:href="#DejaVuSans-3a" x="118.896484"/>
      <use xlink:href="#DejaVuSans-3a" x="152.587891"/>
      <use xlink:href="#DejaVuSans-4e" x="186.279297"/>
      <use xlink:href="#DejaVuSans-6f" x="261.083984"/>
      <use xlink:href="#DejaVuSans-54" x="322.265625"/>
      <use xlink:href="#DejaVuSans-61" x="366.849609"/>
      <use xlink:href="#DejaVuSans-62" x="428.128906"/>
      <use xlink:href="#DejaVuSans-6c" x="491.605469"/>
      <use xlink:href="#DejaVuSans-65" x="519.388672"/>
      <use xlink:href="#DejaVuSans-20" x="580.912109"/>
      <use xlink:href="#DejaVuSans-28" x="612.699219"/>
      <use xlink:href="#DejaVuSans-6d" x="651.712891"/>
      <use xlink:href="#DejaVuSans-69" x="749.125"/>
      <use xlink:href="#DejaVuSans-6e" x="776.908203"/>
      <use xlink:href="#DejaVuSans-3a" x="840.287109"/>
      <use xlink:href="#DejaVuSans-20" x="873.978516"/>
      <use xlink:href="#DejaVuSans-36" x="905.765625"/>
      <use xlink:href="#DejaVuSans-2e" x="969.388672"/>
      <use xlink:href="#DejaVuSans-34" x="1001.175781"/>
      <use xlink:href="#DejaVuSans-32" x="1064.798828"/>
      <use xlink:href="#DejaVuSans-32" x="1128.421875"/>
      <use xlink:href="#DejaVuSans-6e" x="1192.044922"/>
      <use xlink:href="#DejaVuSans-73" x="1255.423828"/>
      <use xlink:href="#DejaVuSans-29" x="1307.523438"/>
     </g>
    </g>
    <g id="line2d_44">
     <path d="M 601.240625 293.470188 
L 621.240625 293.470188 
" style="fill: none; stroke: #8c564b; stroke-width: 1.5; stroke-linecap: square"/>
    </g>
    <g id="line2d_45">
     <g>
      <use xlink:href="#m410e531c07" x="611.240625" y="293.470188" style="fill: #8c564b; stroke: #8c564b; stroke-linejoin: miter"/>
     </g>
    </g>
    <g id="text_52">
     <!-- BE::NoTable (min: 6.462ns) -->
     <g transform="translate(629.240625 296.970188) scale(0.1 -0.1)">
      <use xlink:href="#DejaVuSans-42"/>
      <use xlink:href="#DejaVuSans-45" x="68.603516"/>
      <use xlink:href="#DejaVuSans-3a" x="131.787109"/>
      <use xlink:href="#DejaVuSans-3a" x="165.478516"/>
      <use xlink:href="#DejaVuSans-4e" x="199.169922"/>
      <use xlink:href="#DejaVuSans-6f" x="273.974609"/>
      <use xlink:href="#DejaVuSans-54" x="335.15625"/>
      <use xlink:href="#DejaVuSans-61" x="379.740234"/>
      <use xlink:href="#DejaVuSans-62" x="441.019531"/>
      <use xlink:href="#DejaVuSans-6c" x="504.496094"/>
      <use xlink:href="#DejaVuSans-65" x="532.279297"/>
      <use xlink:href="#DejaVuSans-20" x="593.802734"/>
      <use xlink:href="#DejaVuSans-28" x="625.589844"/>
      <use xlink:href="#DejaVuSans-6d" x="664.603516"/>
      <use xlink:href="#DejaVuSans-69" x="762.015625"/>
      <use xlink:href="#DejaVuSans-6e" x="789.798828"/>
      <use xlink:href="#DejaVuSans-3a" x="853.177734"/>
      <use xlink:href="#DejaVuSans-20" x="886.869141"/>
      <use xlink:href="#DejaVuSans-36" x="918.65625"/>
      <use xlink:href="#DejaVuSans-2e" x="982.279297"/>
      <use xlink:href="#DejaVuSans-34" x="1014.066406"/>
      <use xlink:href="#DejaVuSans-36" x="1077.689453"/>
      <use xlink:href="#DejaVuSans-32" x="1141.3125"/>
      <use xlink:href="#DejaVuSans-6e" x="1204.935547"/>
      <use xlink:href="#DejaVuSans-73" x="1268.314453"/>
      <use xlink:href="#DejaVuSans-29" x="1320.414062"/>
     </g>
    </g>
    <g id="patch_25">
     <path d="M 601.240625 311.648313 
L 621.240625 311.648313 
L 621.240625 304.648313 
L 601.240625 304.648313 
z
" style="fill: #0000ff; fill-opacity: 0.3; stroke: #000000; stroke-linejoin: miter"/>
    </g>
    <g id="text_53">
     <!-- table hit ratio -->
     <g transform="translate(629.240625 311.648313) scale(0.1 -0.1)">
      <use xlink:href="#DejaVuSans-74"/>
      <use xlink:href="#DejaVuSans-61" x="39.208984"/>
      <use xlink:href="#DejaVuSans-62" x="100.488281"/>
      <use xlink:href="#DejaVuSans-6c" x="163.964844"/>
      <use xlink:href="#DejaVuSans-65" x="191.748047"/>
      <use xlink:href="#DejaVuSans-20" x="253.271484"/>
      <use xlink:href="#DejaVuSans-68" x="285.058594"/>
      <use xlink:href="#DejaVuSans-69" x="348.4375"/>
      <use xlink:href="#DejaVuSans-74" x="376.220703"/>
      <use xlink:href="#DejaVuSans-20" x="415.429688"/>
      <use xlink:href="#DejaVuSans-72" x="447.216797"/>
      <use xlink:href="#DejaVuSans-61" x="488.330078"/>
      <use xlink:href="#DejaVuSans-74" x="549.609375"/>
      <use xlink:href="#DejaVuSans-69" x="588.818359"/>
      <use xlink:href="#DejaVuSans-6f" x="616.601562"/>
     </g>
    </g>
   </g>
  </g>
 </g>
 <defs>
  <clipPath id="pd1f4b4c358">
   <rect x="34.240625" y="35.7555" width="558" height="443.52"/>
  </clipPath>
 </defs>
</svg>
