<?xml version="1.0" encoding="utf-8" standalone="no"?>
<!DOCTYPE svg PUBLIC "-//W3C//DTD SVG 1.1//EN"
  "http://www.w3.org/Graphics/SVG/1.1/DTD/svg11.dtd">
<svg xmlns:xlink="http://www.w3.org/1999/xlink" width="875.178438pt" height="516.83175pt" viewBox="0 0 875.178438 516.83175" xmlns="http://www.w3.org/2000/svg" version="1.1">
 <metadata>
  <rdf:RDF xmlns:dc="http://purl.org/dc/elements/1.1/" xmlns:cc="http://creativecommons.org/ns#" xmlns:rdf="http://www.w3.org/1999/02/22-rdf-syntax-ns#">
   <cc:Work>
    <dc:type rdf:resource="http://purl.org/dc/dcmitype/StillImage"/>
    <dc:date>2025-10-11T05:04:50.881935</dc:date>
    <dc:format>image/svg+xml</dc:format>
    <dc:creator>
     <cc:Agent>
      <dc:title>Matplotlib v3.10.3, https://matplotlib.org/</dc:title>
     </cc:Agent>
    </dc:creator>
   </cc:Work>
  </rdf:RDF>
 </metadata>
 <defs>
  <style type="text/css">*{stroke-linejoin: round; stroke-linecap: butt}</style>
 </defs>
 <g id="figure_1">
  <g id="patch_1">
   <path d="M 0 516.83175 
L 875.178438 516.83175 
L 875.178438 0 
L 0 0 
z
" style="fill: #ffffff"/>
  </g>
  <g id="axes_1">
   <g id="patch_2">
    <path d="M 45.63 479.2755 
L 603.63 479.2755 
L 603.63 35.7555 
L 45.63 35.7555 
z
" style="fill: #ffffff"/>
   </g>
   <g id="FillBetweenPolyCollection_1">
    <path d="M 242.571176 299.614495 
L 242.571176 300.413861 
L 275.394706 300.357106 
L 308.218235 299.931864 
L 341.041765 300.663713 
L 373.865294 298.531646 
L 406.688824 297.734682 
L 439.512353 294.963824 
L 472.335882 293.341867 
L 505.159412 292.920899 
L 537.982941 293.42481 
L 570.806471 301.380595 
L 570.806471 300.618572 
L 570.806471 300.618572 
L 537.982941 292.354409 
L 505.159412 292.038522 
L 472.335882 292.71348 
L 439.512353 293.932468 
L 406.688824 296.916177 
L 373.865294 298.047607 
L 341.041765 298.770516 
L 308.218235 298.746609 
L 275.394706 299.575858 
L 242.571176 299.614495 
z
" clip-path="url(#p7765c92adc)" style="fill: #1f77b4; fill-opacity: 0.3"/>
   </g>
   <g id="FillBetweenPolyCollection_2">
    <path d="M 242.571176 299.397013 
L 242.571176 300.21625 
L 275.394706 301.569062 
L 308.218235 301.57921 
L 341.041765 299.899102 
L 373.865294 299.459148 
L 406.688824 298.39331 
L 439.512353 296.162361 
L 472.335882 294.453697 
L 505.159412 293.338768 
L 537.982941 294.693963 
L 570.806471 297.784966 
L 570.806471 297.434239 
L 570.806471 297.434239 
L 537.982941 293.804587 
L 505.159412 293.188699 
L 472.335882 294.009895 
L 439.512353 295.569819 
L 406.688824 297.479738 
L 373.865294 298.410662 
L 341.041765 299.466674 
L 308.218235 300.931088 
L 275.394706 300.841929 
L 242.571176 299.397013 
z
" clip-path="url(#p7765c92adc)" style="fill: #ff7f0e; fill-opacity: 0.3"/>
   </g>
   <g id="FillBetweenPolyCollection_3">
    <path d="M 242.571176 302.725267 
L 242.571176 303.21886 
L 275.394706 303.54837 
L 308.218235 303.710341 
L 341.041765 303.715006 
L 373.865294 302.34578 
L 406.688824 300.709536 
L 439.512353 299.628713 
L 472.335882 297.957205 
L 505.159412 297.569322 
L 537.982941 299.018717 
L 570.806471 301.518148 
L 570.806471 301.063107 
L 570.806471 301.063107 
L 537.982941 298.58256 
L 505.159412 296.846311 
L 472.335882 297.324476 
L 439.512353 298.918473 
L 406.688824 300.163241 
L 373.865294 301.658067 
L 341.041765 302.31564 
L 308.218235 303.377732 
L 275.394706 302.572849 
L 242.571176 302.725267 
z
" clip-path="url(#p7765c92adc)" style="fill: #2ca02c; fill-opacity: 0.3"/>
   </g>
   <g id="FillBetweenPolyCollection_4">
    <path d="M 242.571176 299.10883 
L 242.571176 300.040231 
L 275.394706 300.781258 
L 308.218235 300.076126 
L 341.041765 299.400248 
L 373.865294 299.179479 
L 406.688824 297.825867 
L 439.512353 296.84975 
L 472.335882 294.800865 
L 505.159412 294.326395 
L 537.982941 295.70778 
L 570.806471 295.960255 
L 570.806471 295.409721 
L 570.806471 295.409721 
L 537.982941 294.720646 
L 505.159412 293.748923 
L 472.335882 294.218471 
L 439.512353 295.880547 
L 406.688824 297.271008 
L 373.865294 298.509833 
L 341.041765 299.057558 
L 308.218235 299.745049 
L 275.394706 300.184458 
L 242.571176 299.10883 
z
" clip-path="url(#p7765c92adc)" style="fill: #d62728; fill-opacity: 0.3"/>
   </g>
   <g id="FillBetweenPolyCollection_5">
    <path d="M 242.571176 58.387507 
L 242.571176 60.178664 
L 275.394706 60.944859 
L 308.218235 61.12396 
L 341.041765 62.495919 
L 373.865294 61.818373 
L 406.688824 63.248611 
L 439.512353 62.610723 
L 472.335882 62.199461 
L 505.159412 62.820943 
L 537.982941 62.154754 
L 570.806471 59.866573 
L 570.806471 58.509956 
L 570.806471 58.509956 
L 537.982941 60.206121 
L 505.159412 60.528454 
L 472.335882 60.093149 
L 439.512353 60.618694 
L 406.688824 61.037627 
L 373.865294 60.383179 
L 341.041765 59.828124 
L 308.218235 60.136988 
L 275.394706 59.247518 
L 242.571176 58.387507 
z
" clip-path="url(#p7765c92adc)" style="fill: #9467bd; fill-opacity: 0.3"/>
   </g>
   <g id="FillBetweenPolyCollection_6">
    <path d="M 242.571176 59.887603 
L 242.571176 61.642779 
L 275.394706 63.554529 
L 308.218235 59.343011 
L 341.041765 59.789632 
L 373.865294 60.274123 
L 406.688824 59.664093 
L 439.512353 59.280859 
L 472.335882 59.290778 
L 505.159412 59.710051 
L 537.982941 58.495388 
L 570.806471 64.55927 
L 570.806471 62.332152 
L 570.806471 62.332152 
L 537.982941 57.381812 
L 505.159412 56.889906 
L 472.335882 56.8755 
L 439.512353 56.897041 
L 406.688824 57.363839 
L 373.865294 57.862719 
L 341.041765 57.057598 
L 308.218235 57.326292 
L 275.394706 61.439498 
L 242.571176 59.887603 
z
" clip-path="url(#p7765c92adc)" style="fill: #8c564b; fill-opacity: 0.3"/>
   </g>
   <g id="patch_3">
    <path d="M 229.441765 479.2755 
L 255.700588 479.2755 
L 255.700588 475.481221 
L 229.441765 475.481221 
z
" clip-path="url(#p7765c92adc)" style="fill: #0000ff; fill-opacity: 0.3; stroke: #000000; stroke-linejoin: miter"/>
   </g>
   <g id="patch_4">
    <path d="M 262.265294 479.2755 
L 288.524118 479.2755 
L 288.524118 474.931589 
L 262.265294 474.931589 
z
" clip-path="url(#p7765c92adc)" style="fill: #0000ff; fill-opacity: 0.3; stroke: #000000; stroke-linejoin: miter"/>
   </g>
   <g id="patch_5">
    <path d="M 295.088824 479.2755 
L 321.347647 479.2755 
L 321.347647 474.380527 
L 295.088824 474.380527 
z
" clip-path="url(#p7765c92adc)" style="fill: #0000ff; fill-opacity: 0.3; stroke: #000000; stroke-linejoin: miter"/>
   </g>
   <g id="patch_6">
    <path d="M 327.912353 479.2755 
L 354.171176 479.2755 
L 354.171176 473.826604 
L 327.912353 473.826604 
z
" clip-path="url(#p7765c92adc)" style="fill: #0000ff; fill-opacity: 0.3; stroke: #000000; stroke-linejoin: miter"/>
   </g>
   <g id="patch_7">
    <path d="M 360.735882 479.2755 
L 386.994706 479.2755 
L 386.994706 473.268816 
L 360.735882 473.268816 
z
" clip-path="url(#p7765c92adc)" style="fill: #0000ff; fill-opacity: 0.3; stroke: #000000; stroke-linejoin: miter"/>
   </g>
   <g id="patch_8">
    <path d="M 393.559412 479.2755 
L 419.818235 479.2755 
L 419.818235 472.713326 
L 393.559412 472.713326 
z
" clip-path="url(#p7765c92adc)" style="fill: #0000ff; fill-opacity: 0.3; stroke: #000000; stroke-linejoin: miter"/>
   </g>
   <g id="patch_9">
    <path d="M 426.382941 479.2755 
L 452.641765 479.2755 
L 452.641765 472.157701 
L 426.382941 472.157701 
z
" clip-path="url(#p7765c92adc)" style="fill: #0000ff; fill-opacity: 0.3; stroke: #000000; stroke-linejoin: miter"/>
   </g>
   <g id="patch_10">
    <path d="M 459.206471 479.2755 
L 485.465294 479.2755 
L 485.465294 471.604135 
L 459.206471 471.604135 
z
" clip-path="url(#p7765c92adc)" style="fill: #0000ff; fill-opacity: 0.3; stroke: #000000; stroke-linejoin: miter"/>
   </g>
   <g id="patch_11">
    <path d="M 492.03 479.2755 
L 518.288824 479.2755 
L 518.288824 471.055372 
L 492.03 471.055372 
z
" clip-path="url(#p7765c92adc)" style="fill: #0000ff; fill-opacity: 0.3; stroke: #000000; stroke-linejoin: miter"/>
   </g>
   <g id="patch_12">
    <path d="M 524.853529 479.2755 
L 551.112353 479.2755 
L 551.112353 470.499746 
L 524.853529 470.499746 
z
" clip-path="url(#p7765c92adc)" style="fill: #0000ff; fill-opacity: 0.3; stroke: #000000; stroke-linejoin: miter"/>
   </g>
   <g id="patch_13">
    <path d="M 557.677059 479.2755 
L 583.935882 479.2755 
L 583.935882 469.94991 
L 557.677059 469.94991 
z
" clip-path="url(#p7765c92adc)" style="fill: #0000ff; fill-opacity: 0.3; stroke: #000000; stroke-linejoin: miter"/>
   </g>
   <g id="matplotlib.axis_1">
    <g id="xtick_1">
     <g id="line2d_1">
      <defs>
       <path id="m754924768e" d="M 0 0 
L 0 3.5 
" style="stroke: #000000; stroke-width: 0.8"/>
      </defs>
      <g>
       <use xlink:href="#m754924768e" x="242.571176" y="479.2755" style="stroke: #000000; stroke-width: 0.8"/>
      </g>
     </g>
     <g id="text_1">
      <!-- 6 -->
      <g transform="translate(239.389926 493.873938) scale(0.1 -0.1)">
       <defs>
        <path id="DejaVuSans-36" d="M 2113 2584 
Q 1688 2584 1439 2293 
Q 1191 2003 1191 1497 
Q 1191 994 1439 701 
Q 1688 409 2113 409 
Q 2538 409 2786 701 
Q 3034 994 3034 1497 
Q 3034 2003 2786 2293 
Q 2538 2584 2113 2584 
z
M 3366 4563 
L 3366 3988 
Q 3128 4100 2886 4159 
Q 2644 4219 2406 4219 
Q 1781 4219 1451 3797 
Q 1122 3375 1075 2522 
Q 1259 2794 1537 2939 
Q 1816 3084 2150 3084 
Q 2853 3084 3261 2657 
Q 3669 2231 3669 1497 
Q 3669 778 3244 343 
Q 2819 -91 2113 -91 
Q 1303 -91 875 529 
Q 447 1150 447 2328 
Q 447 3434 972 4092 
Q 1497 4750 2381 4750 
Q 2619 4750 2861 4703 
Q 3103 4656 3366 4563 
z
" transform="scale(0.015625)"/>
       </defs>
       <use xlink:href="#DejaVuSans-36"/>
      </g>
     </g>
    </g>
    <g id="xtick_2">
     <g id="line2d_2">
      <g>
       <use xlink:href="#m754924768e" x="275.394706" y="479.2755" style="stroke: #000000; stroke-width: 0.8"/>
      </g>
     </g>
     <g id="text_2">
      <!-- 7 -->
      <g transform="translate(272.213456 493.873938) scale(0.1 -0.1)">
       <defs>
        <path id="DejaVuSans-37" d="M 525 4666 
L 3525 4666 
L 3525 4397 
L 1831 0 
L 1172 0 
L 2766 4134 
L 525 4134 
L 525 4666 
z
" transform="scale(0.015625)"/>
       </defs>
       <use xlink:href="#DejaVuSans-37"/>
      </g>
     </g>
    </g>
    <g id="xtick_3">
     <g id="line2d_3">
      <g>
       <use xlink:href="#m754924768e" x="308.218235" y="479.2755" style="stroke: #000000; stroke-width: 0.8"/>
      </g>
     </g>
     <g id="text_3">
      <!-- 8 -->
      <g transform="translate(305.036985 493.873938) scale(0.1 -0.1)">
       <defs>
        <path id="DejaVuSans-38" d="M 2034 2216 
Q 1584 2216 1326 1975 
Q 1069 1734 1069 1313 
Q 1069 891 1326 650 
Q 1584 409 2034 409 
Q 2484 409 2743 651 
Q 3003 894 3003 1313 
Q 3003 1734 2745 1975 
Q 2488 2216 2034 2216 
z
M 1403 2484 
Q 997 2584 770 2862 
Q 544 3141 544 3541 
Q 544 4100 942 4425 
Q 1341 4750 2034 4750 
Q 2731 4750 3128 4425 
Q 3525 4100 3525 3541 
Q 3525 3141 3298 2862 
Q 3072 2584 2669 2484 
Q 3125 2378 3379 2068 
Q 3634 1759 3634 1313 
Q 3634 634 3220 271 
Q 2806 -91 2034 -91 
Q 1263 -91 848 271 
Q 434 634 434 1313 
Q 434 1759 690 2068 
Q 947 2378 1403 2484 
z
M 1172 3481 
Q 1172 3119 1398 2916 
Q 1625 2713 2034 2713 
Q 2441 2713 2670 2916 
Q 2900 3119 2900 3481 
Q 2900 3844 2670 4047 
Q 2441 4250 2034 4250 
Q 1625 4250 1398 4047 
Q 1172 3844 1172 3481 
z
" transform="scale(0.015625)"/>
       </defs>
       <use xlink:href="#DejaVuSans-38"/>
      </g>
     </g>
    </g>
    <g id="xtick_4">
     <g id="line2d_4">
      <g>
       <use xlink:href="#m754924768e" x="341.041765" y="479.2755" style="stroke: #000000; stroke-width: 0.8"/>
      </g>
     </g>
     <g id="text_4">
      <!-- 9 -->
      <g transform="translate(337.860515 493.873938) scale(0.1 -0.1)">
       <defs>
        <path id="DejaVuSans-39" d="M 703 97 
L 703 672 
Q 941 559 1184 500 
Q 1428 441 1663 441 
Q 2288 441 2617 861 
Q 2947 1281 2994 2138 
Q 2813 1869 2534 1725 
Q 2256 1581 1919 1581 
Q 1219 1581 811 2004 
Q 403 2428 403 3163 
Q 403 3881 828 4315 
Q 1253 4750 1959 4750 
Q 2769 4750 3195 4129 
Q 3622 3509 3622 2328 
Q 3622 1225 3098 567 
Q 2575 -91 1691 -91 
Q 1453 -91 1209 -44 
Q 966 3 703 97 
z
M 1959 2075 
Q 2384 2075 2632 2365 
Q 2881 2656 2881 3163 
Q 2881 3666 2632 3958 
Q 2384 4250 1959 4250 
Q 1534 4250 1286 3958 
Q 1038 3666 1038 3163 
Q 1038 2656 1286 2365 
Q 1534 2075 1959 2075 
z
" transform="scale(0.015625)"/>
       </defs>
       <use xlink:href="#DejaVuSans-39"/>
      </g>
     </g>
    </g>
    <g id="xtick_5">
     <g id="line2d_5">
      <g>
       <use xlink:href="#m754924768e" x="373.865294" y="479.2755" style="stroke: #000000; stroke-width: 0.8"/>
      </g>
     </g>
     <g id="text_5">
      <!-- 10 -->
      <g transform="translate(367.502794 493.873938) scale(0.1 -0.1)">
       <defs>
        <path id="DejaVuSans-31" d="M 794 531 
L 1825 531 
L 1825 4091 
L 703 3866 
L 703 4441 
L 1819 4666 
L 2450 4666 
L 2450 531 
L 3481 531 
L 3481 0 
L 794 0 
L 794 531 
z
" transform="scale(0.015625)"/>
        <path id="DejaVuSans-30" d="M 2034 4250 
Q 1547 4250 1301 3770 
Q 1056 3291 1056 2328 
Q 1056 1369 1301 889 
Q 1547 409 2034 409 
Q 2525 409 2770 889 
Q 3016 1369 3016 2328 
Q 3016 3291 2770 3770 
Q 2525 4250 2034 4250 
z
M 2034 4750 
Q 2819 4750 3233 4129 
Q 3647 3509 3647 2328 
Q 3647 1150 3233 529 
Q 2819 -91 2034 -91 
Q 1250 -91 836 529 
Q 422 1150 422 2328 
Q 422 3509 836 4129 
Q 1250 4750 2034 4750 
z
" transform="scale(0.015625)"/>
       </defs>
       <use xlink:href="#DejaVuSans-31"/>
       <use xlink:href="#DejaVuSans-30" transform="translate(63.623047 0)"/>
      </g>
     </g>
    </g>
    <g id="xtick_6">
     <g id="line2d_6">
      <g>
       <use xlink:href="#m754924768e" x="406.688824" y="479.2755" style="stroke: #000000; stroke-width: 0.8"/>
      </g>
     </g>
     <g id="text_6">
      <!-- 11 -->
      <g transform="translate(400.326324 493.873938) scale(0.1 -0.1)">
       <use xlink:href="#DejaVuSans-31"/>
       <use xlink:href="#DejaVuSans-31" transform="translate(63.623047 0)"/>
      </g>
     </g>
    </g>
    <g id="xtick_7">
     <g id="line2d_7">
      <g>
       <use xlink:href="#m754924768e" x="439.512353" y="479.2755" style="stroke: #000000; stroke-width: 0.8"/>
      </g>
     </g>
     <g id="text_7">
      <!-- 12 -->
      <g transform="translate(433.149853 493.873938) scale(0.1 -0.1)">
       <defs>
        <path id="DejaVuSans-32" d="M 1228 531 
L 3431 531 
L 3431 0 
L 469 0 
L 469 531 
Q 828 903 1448 1529 
Q 2069 2156 2228 2338 
Q 2531 2678 2651 2914 
Q 2772 3150 2772 3378 
Q 2772 3750 2511 3984 
Q 2250 4219 1831 4219 
Q 1534 4219 1204 4116 
Q 875 4013 500 3803 
L 500 4441 
Q 881 4594 1212 4672 
Q 1544 4750 1819 4750 
Q 2544 4750 2975 4387 
Q 3406 4025 3406 3419 
Q 3406 3131 3298 2873 
Q 3191 2616 2906 2266 
Q 2828 2175 2409 1742 
Q 1991 1309 1228 531 
z
" transform="scale(0.015625)"/>
       </defs>
       <use xlink:href="#DejaVuSans-31"/>
       <use xlink:href="#DejaVuSans-32" transform="translate(63.623047 0)"/>
      </g>
     </g>
    </g>
    <g id="xtick_8">
     <g id="line2d_8">
      <g>
       <use xlink:href="#m754924768e" x="472.335882" y="479.2755" style="stroke: #000000; stroke-width: 0.8"/>
      </g>
     </g>
     <g id="text_8">
      <!-- 13 -->
      <g transform="translate(465.973382 493.873938) scale(0.1 -0.1)">
       <defs>
        <path id="DejaVuSans-33" d="M 2597 2516 
Q 3050 2419 3304 2112 
Q 3559 1806 3559 1356 
Q 3559 666 3084 287 
Q 2609 -91 1734 -91 
Q 1441 -91 1130 -33 
Q 819 25 488 141 
L 488 750 
Q 750 597 1062 519 
Q 1375 441 1716 441 
Q 2309 441 2620 675 
Q 2931 909 2931 1356 
Q 2931 1769 2642 2001 
Q 2353 2234 1838 2234 
L 1294 2234 
L 1294 2753 
L 1863 2753 
Q 2328 2753 2575 2939 
Q 2822 3125 2822 3475 
Q 2822 3834 2567 4026 
Q 2313 4219 1838 4219 
Q 1578 4219 1281 4162 
Q 984 4106 628 3988 
L 628 4550 
Q 988 4650 1302 4700 
Q 1616 4750 1894 4750 
Q 2613 4750 3031 4423 
Q 3450 4097 3450 3541 
Q 3450 3153 3228 2886 
Q 3006 2619 2597 2516 
z
" transform="scale(0.015625)"/>
       </defs>
       <use xlink:href="#DejaVuSans-31"/>
       <use xlink:href="#DejaVuSans-33" transform="translate(63.623047 0)"/>
      </g>
     </g>
    </g>
    <g id="xtick_9">
     <g id="line2d_9">
      <g>
       <use xlink:href="#m754924768e" x="505.159412" y="479.2755" style="stroke: #000000; stroke-width: 0.8"/>
      </g>
     </g>
     <g id="text_9">
      <!-- 14 -->
      <g transform="translate(498.796912 493.873938) scale(0.1 -0.1)">
       <defs>
        <path id="DejaVuSans-34" d="M 2419 4116 
L 825 1625 
L 2419 1625 
L 2419 4116 
z
M 2253 4666 
L 3047 4666 
L 3047 1625 
L 3713 1625 
L 3713 1100 
L 3047 1100 
L 3047 0 
L 2419 0 
L 2419 1100 
L 313 1100 
L 313 1709 
L 2253 4666 
z
" transform="scale(0.015625)"/>
       </defs>
       <use xlink:href="#DejaVuSans-31"/>
       <use xlink:href="#DejaVuSans-34" transform="translate(63.623047 0)"/>
      </g>
     </g>
    </g>
    <g id="xtick_10">
     <g id="line2d_10">
      <g>
       <use xlink:href="#m754924768e" x="537.982941" y="479.2755" style="stroke: #000000; stroke-width: 0.8"/>
      </g>
     </g>
     <g id="text_10">
      <!-- 15 -->
      <g transform="translate(531.620441 493.873938) scale(0.1 -0.1)">
       <defs>
        <path id="DejaVuSans-35" d="M 691 4666 
L 3169 4666 
L 3169 4134 
L 1269 4134 
L 1269 2991 
Q 1406 3038 1543 3061 
Q 1681 3084 1819 3084 
Q 2600 3084 3056 2656 
Q 3513 2228 3513 1497 
Q 3513 744 3044 326 
Q 2575 -91 1722 -91 
Q 1428 -91 1123 -41 
Q 819 9 494 109 
L 494 744 
Q 775 591 1075 516 
Q 1375 441 1709 441 
Q 2250 441 2565 725 
Q 2881 1009 2881 1497 
Q 2881 1984 2565 2268 
Q 2250 2553 1709 2553 
Q 1456 2553 1204 2497 
Q 953 2441 691 2322 
L 691 4666 
z
" transform="scale(0.015625)"/>
       </defs>
       <use xlink:href="#DejaVuSans-31"/>
       <use xlink:href="#DejaVuSans-35" transform="translate(63.623047 0)"/>
      </g>
     </g>
    </g>
    <g id="xtick_11">
     <g id="line2d_11">
      <g>
       <use xlink:href="#m754924768e" x="570.806471" y="479.2755" style="stroke: #000000; stroke-width: 0.8"/>
      </g>
     </g>
     <g id="text_11">
      <!-- 16 -->
      <g transform="translate(564.443971 493.873938) scale(0.1 -0.1)">
       <use xlink:href="#DejaVuSans-31"/>
       <use xlink:href="#DejaVuSans-36" transform="translate(63.623047 0)"/>
      </g>
     </g>
    </g>
    <g id="text_12">
     <!-- log₂(table size) -->
     <g transform="translate(287.153437 507.552063) scale(0.1 -0.1)">
      <defs>
       <path id="DejaVuSans-6c" d="M 603 4863 
L 1178 4863 
L 1178 0 
L 603 0 
L 603 4863 
z
" transform="scale(0.015625)"/>
       <path id="DejaVuSans-6f" d="M 1959 3097 
Q 1497 3097 1228 2736 
Q 959 2375 959 1747 
Q 959 1119 1226 758 
Q 1494 397 1959 397 
Q 2419 397 2687 759 
Q 2956 1122 2956 1747 
Q 2956 2369 2687 2733 
Q 2419 3097 1959 3097 
z
M 1959 3584 
Q 2709 3584 3137 3096 
Q 3566 2609 3566 1747 
Q 3566 888 3137 398 
Q 2709 -91 1959 -91 
Q 1206 -91 779 398 
Q 353 888 353 1747 
Q 353 2609 779 3096 
Q 1206 3584 1959 3584 
z
" transform="scale(0.015625)"/>
       <path id="DejaVuSans-67" d="M 2906 1791 
Q 2906 2416 2648 2759 
Q 2391 3103 1925 3103 
Q 1463 3103 1205 2759 
Q 947 2416 947 1791 
Q 947 1169 1205 825 
Q 1463 481 1925 481 
Q 2391 481 2648 825 
Q 2906 1169 2906 1791 
z
M 3481 434 
Q 3481 -459 3084 -895 
Q 2688 -1331 1869 -1331 
Q 1566 -1331 1297 -1286 
Q 1028 -1241 775 -1147 
L 775 -588 
Q 1028 -725 1275 -790 
Q 1522 -856 1778 -856 
Q 2344 -856 2625 -561 
Q 2906 -266 2906 331 
L 2906 616 
Q 2728 306 2450 153 
Q 2172 0 1784 0 
Q 1141 0 747 490 
Q 353 981 353 1791 
Q 353 2603 747 3093 
Q 1141 3584 1784 3584 
Q 2172 3584 2450 3431 
Q 2728 3278 2906 2969 
L 2906 3500 
L 3481 3500 
L 3481 434 
z
" transform="scale(0.015625)"/>
       <path id="DejaVuSans-2082" d="M 838 356 
L 2163 356 
L 2163 0 
L 294 0 
L 294 343 
Q 400 440 597 615 
Q 1672 1568 1672 1862 
Q 1672 2068 1509 2194 
Q 1347 2321 1081 2321 
Q 919 2321 728 2266 
Q 538 2212 313 2103 
L 313 2487 
Q 553 2575 761 2618 
Q 969 2662 1147 2662 
Q 1600 2662 1872 2456 
Q 2144 2250 2144 1912 
Q 2144 1478 1109 590 
Q 934 440 838 356 
z
" transform="scale(0.015625)"/>
       <path id="DejaVuSans-28" d="M 1984 4856 
Q 1566 4138 1362 3434 
Q 1159 2731 1159 2009 
Q 1159 1288 1364 580 
Q 1569 -128 1984 -844 
L 1484 -844 
Q 1016 -109 783 600 
Q 550 1309 550 2009 
Q 550 2706 781 3412 
Q 1013 4119 1484 4856 
L 1984 4856 
z
" transform="scale(0.015625)"/>
       <path id="DejaVuSans-74" d="M 1172 4494 
L 1172 3500 
L 2356 3500 
L 2356 3053 
L 1172 3053 
L 1172 1153 
Q 1172 725 1289 603 
Q 1406 481 1766 481 
L 2356 481 
L 2356 0 
L 1766 0 
Q 1100 0 847 248 
Q 594 497 594 1153 
L 594 3053 
L 172 3053 
L 172 3500 
L 594 3500 
L 594 4494 
L 1172 4494 
z
" transform="scale(0.015625)"/>
       <path id="DejaVuSans-61" d="M 2194 1759 
Q 1497 1759 1228 1600 
Q 959 1441 959 1056 
Q 959 750 1161 570 
Q 1363 391 1709 391 
Q 2188 391 2477 730 
Q 2766 1069 2766 1631 
L 2766 1759 
L 2194 1759 
z
M 3341 1997 
L 3341 0 
L 2766 0 
L 2766 531 
Q 2569 213 2275 61 
Q 1981 -91 1556 -91 
Q 1019 -91 701 211 
Q 384 513 384 1019 
Q 384 1609 779 1909 
Q 1175 2209 1959 2209 
L 2766 2209 
L 2766 2266 
Q 2766 2663 2505 2880 
Q 2244 3097 1772 3097 
Q 1472 3097 1187 3025 
Q 903 2953 641 2809 
L 641 3341 
Q 956 3463 1253 3523 
Q 1550 3584 1831 3584 
Q 2591 3584 2966 3190 
Q 3341 2797 3341 1997 
z
" transform="scale(0.015625)"/>
       <path id="DejaVuSans-62" d="M 3116 1747 
Q 3116 2381 2855 2742 
Q 2594 3103 2138 3103 
Q 1681 3103 1420 2742 
Q 1159 2381 1159 1747 
Q 1159 1113 1420 752 
Q 1681 391 2138 391 
Q 2594 391 2855 752 
Q 3116 1113 3116 1747 
z
M 1159 2969 
Q 1341 3281 1617 3432 
Q 1894 3584 2278 3584 
Q 2916 3584 3314 3078 
Q 3713 2572 3713 1747 
Q 3713 922 3314 415 
Q 2916 -91 2278 -91 
Q 1894 -91 1617 61 
Q 1341 213 1159 525 
L 1159 0 
L 581 0 
L 581 4863 
L 1159 4863 
L 1159 2969 
z
" transform="scale(0.015625)"/>
       <path id="DejaVuSans-65" d="M 3597 1894 
L 3597 1613 
L 953 1613 
Q 991 1019 1311 708 
Q 1631 397 2203 397 
Q 2534 397 2845 478 
Q 3156 559 3463 722 
L 3463 178 
Q 3153 47 2828 -22 
Q 2503 -91 2169 -91 
Q 1331 -91 842 396 
Q 353 884 353 1716 
Q 353 2575 817 3079 
Q 1281 3584 2069 3584 
Q 2775 3584 3186 3129 
Q 3597 2675 3597 1894 
z
M 3022 2063 
Q 3016 2534 2758 2815 
Q 2500 3097 2075 3097 
Q 1594 3097 1305 2825 
Q 1016 2553 972 2059 
L 3022 2063 
z
" transform="scale(0.015625)"/>
       <path id="DejaVuSans-20" transform="scale(0.015625)"/>
       <path id="DejaVuSans-73" d="M 2834 3397 
L 2834 2853 
Q 2591 2978 2328 3040 
Q 2066 3103 1784 3103 
Q 1356 3103 1142 2972 
Q 928 2841 928 2578 
Q 928 2378 1081 2264 
Q 1234 2150 1697 2047 
L 1894 2003 
Q 2506 1872 2764 1633 
Q 3022 1394 3022 966 
Q 3022 478 2636 193 
Q 2250 -91 1575 -91 
Q 1294 -91 989 -36 
Q 684 19 347 128 
L 347 722 
Q 666 556 975 473 
Q 1284 391 1588 391 
Q 1994 391 2212 530 
Q 2431 669 2431 922 
Q 2431 1156 2273 1281 
Q 2116 1406 1581 1522 
L 1381 1569 
Q 847 1681 609 1914 
Q 372 2147 372 2553 
Q 372 3047 722 3315 
Q 1072 3584 1716 3584 
Q 2034 3584 2315 3537 
Q 2597 3491 2834 3397 
z
" transform="scale(0.015625)"/>
       <path id="DejaVuSans-69" d="M 603 3500 
L 1178 3500 
L 1178 0 
L 603 0 
L 603 3500 
z
M 603 4863 
L 1178 4863 
L 1178 4134 
L 603 4134 
L 603 4863 
z
" transform="scale(0.015625)"/>
       <path id="DejaVuSans-7a" d="M 353 3500 
L 3084 3500 
L 3084 2975 
L 922 459 
L 3084 459 
L 3084 0 
L 275 0 
L 275 525 
L 2438 3041 
L 353 3041 
L 353 3500 
z
" transform="scale(0.015625)"/>
       <path id="DejaVuSans-29" d="M 513 4856 
L 1013 4856 
Q 1481 4119 1714 3412 
Q 1947 2706 1947 2009 
Q 1947 1309 1714 600 
Q 1481 -109 1013 -844 
L 513 -844 
Q 928 -128 1133 580 
Q 1338 1288 1338 2009 
Q 1338 2731 1133 3434 
Q 928 4138 513 4856 
z
" transform="scale(0.015625)"/>
      </defs>
      <use xlink:href="#DejaVuSans-6c"/>
      <use xlink:href="#DejaVuSans-6f" transform="translate(27.783203 0)"/>
      <use xlink:href="#DejaVuSans-67" transform="translate(88.964844 0)"/>
      <use xlink:href="#DejaVuSans-2082" transform="translate(152.441406 0)"/>
      <use xlink:href="#DejaVuSans-28" transform="translate(192.529297 0)"/>
      <use xlink:href="#DejaVuSans-74" transform="translate(231.542969 0)"/>
      <use xlink:href="#DejaVuSans-61" transform="translate(270.751953 0)"/>
      <use xlink:href="#DejaVuSans-62" transform="translate(332.03125 0)"/>
      <use xlink:href="#DejaVuSans-6c" transform="translate(395.507812 0)"/>
      <use xlink:href="#DejaVuSans-65" transform="translate(423.291016 0)"/>
      <use xlink:href="#DejaVuSans-20" transform="translate(484.814453 0)"/>
      <use xlink:href="#DejaVuSans-73" transform="translate(516.601562 0)"/>
      <use xlink:href="#DejaVuSans-69" transform="translate(568.701172 0)"/>
      <use xlink:href="#DejaVuSans-7a" transform="translate(596.484375 0)"/>
      <use xlink:href="#DejaVuSans-65" transform="translate(648.974609 0)"/>
      <use xlink:href="#DejaVuSans-29" transform="translate(710.498047 0)"/>
     </g>
    </g>
   </g>
   <g id="matplotlib.axis_2">
    <g id="ytick_1">
     <g id="line2d_12">
      <defs>
       <path id="m780f0b2ae6" d="M 0 0 
L -3.5 0 
" style="stroke: #000000; stroke-width: 0.8"/>
      </defs>
      <g>
       <use xlink:href="#m780f0b2ae6" x="45.63" y="479.2755" style="stroke: #000000; stroke-width: 0.8"/>
      </g>
     </g>
     <g id="text_13">
      <!-- 0 -->
      <g transform="translate(32.2675 483.074719) scale(0.1 -0.1)">
       <use xlink:href="#DejaVuSans-30"/>
      </g>
     </g>
    </g>
    <g id="ytick_2">
     <g id="line2d_13">
      <g>
       <use xlink:href="#m780f0b2ae6" x="45.63" y="394.135174" style="stroke: #000000; stroke-width: 0.8"/>
      </g>
     </g>
     <g id="text_14">
      <!-- 5 -->
      <g transform="translate(32.2675 397.934393) scale(0.1 -0.1)">
       <use xlink:href="#DejaVuSans-35"/>
      </g>
     </g>
    </g>
    <g id="ytick_3">
     <g id="line2d_14">
      <g>
       <use xlink:href="#m780f0b2ae6" x="45.63" y="308.994848" style="stroke: #000000; stroke-width: 0.8"/>
      </g>
     </g>
     <g id="text_15">
      <!-- 10 -->
      <g transform="translate(25.905 312.794066) scale(0.1 -0.1)">
       <use xlink:href="#DejaVuSans-31"/>
       <use xlink:href="#DejaVuSans-30" transform="translate(63.623047 0)"/>
      </g>
     </g>
    </g>
    <g id="ytick_4">
     <g id="line2d_15">
      <g>
       <use xlink:href="#m780f0b2ae6" x="45.63" y="223.854521" style="stroke: #000000; stroke-width: 0.8"/>
      </g>
     </g>
     <g id="text_16">
      <!-- 15 -->
      <g transform="translate(25.905 227.65374) scale(0.1 -0.1)">
       <use xlink:href="#DejaVuSans-31"/>
       <use xlink:href="#DejaVuSans-35" transform="translate(63.623047 0)"/>
      </g>
     </g>
    </g>
    <g id="ytick_5">
     <g id="line2d_16">
      <g>
       <use xlink:href="#m780f0b2ae6" x="45.63" y="138.714195" style="stroke: #000000; stroke-width: 0.8"/>
      </g>
     </g>
     <g id="text_17">
      <!-- 20 -->
      <g transform="translate(25.905 142.513414) scale(0.1 -0.1)">
       <use xlink:href="#DejaVuSans-32"/>
       <use xlink:href="#DejaVuSans-30" transform="translate(63.623047 0)"/>
      </g>
     </g>
    </g>
    <g id="ytick_6">
     <g id="line2d_17">
      <g>
       <use xlink:href="#m780f0b2ae6" x="45.63" y="53.573869" style="stroke: #000000; stroke-width: 0.8"/>
      </g>
     </g>
     <g id="text_18">
      <!-- 25 -->
      <g transform="translate(25.905 57.373088) scale(0.1 -0.1)">
       <use xlink:href="#DejaVuSans-32"/>
       <use xlink:href="#DejaVuSans-35" transform="translate(63.623047 0)"/>
      </g>
     </g>
    </g>
    <g id="text_19">
     <!-- ns -->
     <g transform="translate(19.825313 263.288938) rotate(-90) scale(0.1 -0.1)">
      <defs>
       <path id="DejaVuSans-6e" d="M 3513 2113 
L 3513 0 
L 2938 0 
L 2938 2094 
Q 2938 2591 2744 2837 
Q 2550 3084 2163 3084 
Q 1697 3084 1428 2787 
Q 1159 2491 1159 1978 
L 1159 0 
L 581 0 
L 581 3500 
L 1159 3500 
L 1159 2956 
Q 1366 3272 1645 3428 
Q 1925 3584 2291 3584 
Q 2894 3584 3203 3211 
Q 3513 2838 3513 2113 
z
" transform="scale(0.015625)"/>
      </defs>
      <use xlink:href="#DejaVuSans-6e"/>
      <use xlink:href="#DejaVuSans-73" transform="translate(63.378906 0)"/>
     </g>
    </g>
   </g>
   <g id="line2d_18">
    <path d="M 176.924118 462.247435 
L 636.453529 462.247435 
" clip-path="url(#p7765c92adc)" style="fill: none; stroke-dasharray: 5.55,2.4; stroke-dashoffset: 0; stroke: #808080; stroke-opacity: 0.3; stroke-width: 1.5"/>
   </g>
   <g id="line2d_19">
    <path d="M 242.571176 299.86571 
L 275.394706 300.108803 
L 308.218235 299.462213 
L 341.041765 299.494839 
L 373.865294 298.399883 
L 406.688824 297.297214 
L 439.512353 294.253158 
L 472.335882 292.87918 
L 505.159412 292.448115 
L 537.982941 292.748115 
L 570.806471 300.803343 
" clip-path="url(#p7765c92adc)" style="fill: none; stroke: #1f77b4; stroke-width: 1.5; stroke-linecap: square"/>
    <defs>
     <path id="mb298406a5f" d="M 0 3 
C 0.795609 3 1.55874 2.683901 2.12132 2.12132 
C 2.683901 1.55874 3 0.795609 3 0 
C 3 -0.795609 2.683901 -1.55874 2.12132 -2.12132 
C 1.55874 -2.683901 0.795609 -3 0 -3 
C -0.795609 -3 -1.55874 -2.683901 -2.12132 -2.12132 
C -2.683901 -1.55874 -3 -0.795609 -3 0 
C -3 0.795609 -2.683901 1.55874 -2.12132 2.12132 
C -1.55874 2.683901 -0.795609 3 0 3 
z
" style="stroke: #1f77b4"/>
    </defs>
    <g clip-path="url(#p7765c92adc)">
     <use xlink:href="#mb298406a5f" x="242.571176" y="299.86571" style="fill: #1f77b4; stroke: #1f77b4"/>
     <use xlink:href="#mb298406a5f" x="275.394706" y="300.108803" style="fill: #1f77b4; stroke: #1f77b4"/>
     <use xlink:href="#mb298406a5f" x="308.218235" y="299.462213" style="fill: #1f77b4; stroke: #1f77b4"/>
     <use xlink:href="#mb298406a5f" x="341.041765" y="299.494839" style="fill: #1f77b4; stroke: #1f77b4"/>
     <use xlink:href="#mb298406a5f" x="373.865294" y="298.399883" style="fill: #1f77b4; stroke: #1f77b4"/>
     <use xlink:href="#mb298406a5f" x="406.688824" y="297.297214" style="fill: #1f77b4; stroke: #1f77b4"/>
     <use xlink:href="#mb298406a5f" x="439.512353" y="294.253158" style="fill: #1f77b4; stroke: #1f77b4"/>
     <use xlink:href="#mb298406a5f" x="472.335882" y="292.87918" style="fill: #1f77b4; stroke: #1f77b4"/>
     <use xlink:href="#mb298406a5f" x="505.159412" y="292.448115" style="fill: #1f77b4; stroke: #1f77b4"/>
     <use xlink:href="#mb298406a5f" x="537.982941" y="292.748115" style="fill: #1f77b4; stroke: #1f77b4"/>
     <use xlink:href="#mb298406a5f" x="570.806471" y="300.803343" style="fill: #1f77b4; stroke: #1f77b4"/>
    </g>
   </g>
   <g id="line2d_20">
    <path d="M 242.571176 299.43536 
L 275.394706 301.037548 
L 308.218235 301.264583 
L 341.041765 299.551117 
L 373.865294 298.911747 
L 406.688824 297.814016 
L 439.512353 295.721913 
L 472.335882 294.296988 
L 505.159412 293.205659 
L 537.982941 294.374006 
L 570.806471 297.667591 
" clip-path="url(#p7765c92adc)" style="fill: none; stroke: #ff7f0e; stroke-width: 1.5; stroke-linecap: square"/>
    <defs>
     <path id="mb5ee283a4b" d="M 0 3 
C 0.795609 3 1.55874 2.683901 2.12132 2.12132 
C 2.683901 1.55874 3 0.795609 3 0 
C 3 -0.795609 2.683901 -1.55874 2.12132 -2.12132 
C 1.55874 -2.683901 0.795609 -3 0 -3 
C -0.795609 -3 -1.55874 -2.683901 -2.12132 -2.12132 
C -2.683901 -1.55874 -3 -0.795609 -3 0 
C -3 0.795609 -2.683901 1.55874 -2.12132 2.12132 
C -1.55874 2.683901 -0.795609 3 0 3 
z
" style="stroke: #ff7f0e"/>
    </defs>
    <g clip-path="url(#p7765c92adc)">
     <use xlink:href="#mb5ee283a4b" x="242.571176" y="299.43536" style="fill: #ff7f0e; stroke: #ff7f0e"/>
     <use xlink:href="#mb5ee283a4b" x="275.394706" y="301.037548" style="fill: #ff7f0e; stroke: #ff7f0e"/>
     <use xlink:href="#mb5ee283a4b" x="308.218235" y="301.264583" style="fill: #ff7f0e; stroke: #ff7f0e"/>
     <use xlink:href="#mb5ee283a4b" x="341.041765" y="299.551117" style="fill: #ff7f0e; stroke: #ff7f0e"/>
     <use xlink:href="#mb5ee283a4b" x="373.865294" y="298.911747" style="fill: #ff7f0e; stroke: #ff7f0e"/>
     <use xlink:href="#mb5ee283a4b" x="406.688824" y="297.814016" style="fill: #ff7f0e; stroke: #ff7f0e"/>
     <use xlink:href="#mb5ee283a4b" x="439.512353" y="295.721913" style="fill: #ff7f0e; stroke: #ff7f0e"/>
     <use xlink:href="#mb5ee283a4b" x="472.335882" y="294.296988" style="fill: #ff7f0e; stroke: #ff7f0e"/>
     <use xlink:href="#mb5ee283a4b" x="505.159412" y="293.205659" style="fill: #ff7f0e; stroke: #ff7f0e"/>
     <use xlink:href="#mb5ee283a4b" x="537.982941" y="294.374006" style="fill: #ff7f0e; stroke: #ff7f0e"/>
     <use xlink:href="#mb5ee283a4b" x="570.806471" y="297.667591" style="fill: #ff7f0e; stroke: #ff7f0e"/>
    </g>
   </g>
   <g id="line2d_21">
    <path d="M 242.571176 302.987261 
L 275.394706 303.192432 
L 308.218235 303.51852 
L 341.041765 303.124388 
L 373.865294 302.071866 
L 406.688824 300.505608 
L 439.512353 299.173979 
L 472.335882 297.671729 
L 505.159412 297.148661 
L 537.982941 298.963086 
L 570.806471 301.214418 
" clip-path="url(#p7765c92adc)" style="fill: none; stroke: #2ca02c; stroke-width: 1.5; stroke-linecap: square"/>
    <defs>
     <path id="m1516c98018" d="M -3 3 
L 3 3 
L 3 -3 
L -3 -3 
z
" style="stroke: #2ca02c; stroke-linejoin: miter"/>
    </defs>
    <g clip-path="url(#p7765c92adc)">
     <use xlink:href="#m1516c98018" x="242.571176" y="302.987261" style="fill: #2ca02c; stroke: #2ca02c; stroke-linejoin: miter"/>
     <use xlink:href="#m1516c98018" x="275.394706" y="303.192432" style="fill: #2ca02c; stroke: #2ca02c; stroke-linejoin: miter"/>
     <use xlink:href="#m1516c98018" x="308.218235" y="303.51852" style="fill: #2ca02c; stroke: #2ca02c; stroke-linejoin: miter"/>
     <use xlink:href="#m1516c98018" x="341.041765" y="303.124388" style="fill: #2ca02c; stroke: #2ca02c; stroke-linejoin: miter"/>
     <use xlink:href="#m1516c98018" x="373.865294" y="302.071866" style="fill: #2ca02c; stroke: #2ca02c; stroke-linejoin: miter"/>
     <use xlink:href="#m1516c98018" x="406.688824" y="300.505608" style="fill: #2ca02c; stroke: #2ca02c; stroke-linejoin: miter"/>
     <use xlink:href="#m1516c98018" x="439.512353" y="299.173979" style="fill: #2ca02c; stroke: #2ca02c; stroke-linejoin: miter"/>
     <use xlink:href="#m1516c98018" x="472.335882" y="297.671729" style="fill: #2ca02c; stroke: #2ca02c; stroke-linejoin: miter"/>
     <use xlink:href="#m1516c98018" x="505.159412" y="297.148661" style="fill: #2ca02c; stroke: #2ca02c; stroke-linejoin: miter"/>
     <use xlink:href="#m1516c98018" x="537.982941" y="298.963086" style="fill: #2ca02c; stroke: #2ca02c; stroke-linejoin: miter"/>
     <use xlink:href="#m1516c98018" x="570.806471" y="301.214418" style="fill: #2ca02c; stroke: #2ca02c; stroke-linejoin: miter"/>
    </g>
   </g>
   <g id="line2d_22">
    <path d="M 242.571176 299.411759 
L 275.394706 300.323935 
L 308.218235 299.896684 
L 341.041765 299.171459 
L 373.865294 298.938225 
L 406.688824 297.44529 
L 439.512353 296.242104 
L 472.335882 294.277286 
L 505.159412 294.167149 
L 537.982941 294.749492 
L 570.806471 295.631562 
" clip-path="url(#p7765c92adc)" style="fill: none; stroke: #d62728; stroke-width: 1.5; stroke-linecap: square"/>
    <defs>
     <path id="m1e9f98db12" d="M -3 3 
L 3 3 
L 3 -3 
L -3 -3 
z
" style="stroke: #d62728; stroke-linejoin: miter"/>
    </defs>
    <g clip-path="url(#p7765c92adc)">
     <use xlink:href="#m1e9f98db12" x="242.571176" y="299.411759" style="fill: #d62728; stroke: #d62728; stroke-linejoin: miter"/>
     <use xlink:href="#m1e9f98db12" x="275.394706" y="300.323935" style="fill: #d62728; stroke: #d62728; stroke-linejoin: miter"/>
     <use xlink:href="#m1e9f98db12" x="308.218235" y="299.896684" style="fill: #d62728; stroke: #d62728; stroke-linejoin: miter"/>
     <use xlink:href="#m1e9f98db12" x="341.041765" y="299.171459" style="fill: #d62728; stroke: #d62728; stroke-linejoin: miter"/>
     <use xlink:href="#m1e9f98db12" x="373.865294" y="298.938225" style="fill: #d62728; stroke: #d62728; stroke-linejoin: miter"/>
     <use xlink:href="#m1e9f98db12" x="406.688824" y="297.44529" style="fill: #d62728; stroke: #d62728; stroke-linejoin: miter"/>
     <use xlink:href="#m1e9f98db12" x="439.512353" y="296.242104" style="fill: #d62728; stroke: #d62728; stroke-linejoin: miter"/>
     <use xlink:href="#m1e9f98db12" x="472.335882" y="294.277286" style="fill: #d62728; stroke: #d62728; stroke-linejoin: miter"/>
     <use xlink:href="#m1e9f98db12" x="505.159412" y="294.167149" style="fill: #d62728; stroke: #d62728; stroke-linejoin: miter"/>
     <use xlink:href="#m1e9f98db12" x="537.982941" y="294.749492" style="fill: #d62728; stroke: #d62728; stroke-linejoin: miter"/>
     <use xlink:href="#m1e9f98db12" x="570.806471" y="295.631562" style="fill: #d62728; stroke: #d62728; stroke-linejoin: miter"/>
    </g>
   </g>
   <g id="line2d_23">
    <path d="M 242.571176 59.099331 
L 275.394706 59.540665 
L 308.218235 60.469784 
L 341.041765 60.312836 
L 373.865294 60.833393 
L 406.688824 61.285267 
L 439.512353 61.356887 
L 472.335882 60.6323 
L 505.159412 61.30083 
L 537.982941 60.559352 
L 570.806471 58.806576 
" clip-path="url(#p7765c92adc)" style="fill: none; stroke: #9467bd; stroke-width: 1.5; stroke-linecap: square"/>
    <defs>
     <path id="ma02088c180" d="M 0 -3 
L -3 3 
L 3 3 
z
" style="stroke: #9467bd; stroke-linejoin: miter"/>
    </defs>
    <g clip-path="url(#p7765c92adc)">
     <use xlink:href="#ma02088c180" x="242.571176" y="59.099331" style="fill: #9467bd; stroke: #9467bd; stroke-linejoin: miter"/>
     <use xlink:href="#ma02088c180" x="275.394706" y="59.540665" style="fill: #9467bd; stroke: #9467bd; stroke-linejoin: miter"/>
     <use xlink:href="#ma02088c180" x="308.218235" y="60.469784" style="fill: #9467bd; stroke: #9467bd; stroke-linejoin: miter"/>
     <use xlink:href="#ma02088c180" x="341.041765" y="60.312836" style="fill: #9467bd; stroke: #9467bd; stroke-linejoin: miter"/>
     <use xlink:href="#ma02088c180" x="373.865294" y="60.833393" style="fill: #9467bd; stroke: #9467bd; stroke-linejoin: miter"/>
     <use xlink:href="#ma02088c180" x="406.688824" y="61.285267" style="fill: #9467bd; stroke: #9467bd; stroke-linejoin: miter"/>
     <use xlink:href="#ma02088c180" x="439.512353" y="61.356887" style="fill: #9467bd; stroke: #9467bd; stroke-linejoin: miter"/>
     <use xlink:href="#ma02088c180" x="472.335882" y="60.6323" style="fill: #9467bd; stroke: #9467bd; stroke-linejoin: miter"/>
     <use xlink:href="#ma02088c180" x="505.159412" y="61.30083" style="fill: #9467bd; stroke: #9467bd; stroke-linejoin: miter"/>
     <use xlink:href="#ma02088c180" x="537.982941" y="60.559352" style="fill: #9467bd; stroke: #9467bd; stroke-linejoin: miter"/>
     <use xlink:href="#ma02088c180" x="570.806471" y="58.806576" style="fill: #9467bd; stroke: #9467bd; stroke-linejoin: miter"/>
    </g>
   </g>
   <g id="line2d_24">
    <path d="M 242.571176 60.84785 
L 275.394706 62.401967 
L 308.218235 58.375902 
L 341.041765 57.99272 
L 373.865294 59.027345 
L 406.688824 58.799152 
L 439.512353 57.767507 
L 472.335882 57.133135 
L 505.159412 58.051458 
L 537.982941 57.82335 
L 570.806471 63.019481 
" clip-path="url(#p7765c92adc)" style="fill: none; stroke: #8c564b; stroke-width: 1.5; stroke-linecap: square"/>
    <defs>
     <path id="m6b34e6240a" d="M 0 -3 
L -3 3 
L 3 3 
z
" style="stroke: #8c564b; stroke-linejoin: miter"/>
    </defs>
    <g clip-path="url(#p7765c92adc)">
     <use xlink:href="#m6b34e6240a" x="242.571176" y="60.84785" style="fill: #8c564b; stroke: #8c564b; stroke-linejoin: miter"/>
     <use xlink:href="#m6b34e6240a" x="275.394706" y="62.401967" style="fill: #8c564b; stroke: #8c564b; stroke-linejoin: miter"/>
     <use xlink:href="#m6b34e6240a" x="308.218235" y="58.375902" style="fill: #8c564b; stroke: #8c564b; stroke-linejoin: miter"/>
     <use xlink:href="#m6b34e6240a" x="341.041765" y="57.99272" style="fill: #8c564b; stroke: #8c564b; stroke-linejoin: miter"/>
     <use xlink:href="#m6b34e6240a" x="373.865294" y="59.027345" style="fill: #8c564b; stroke: #8c564b; stroke-linejoin: miter"/>
     <use xlink:href="#m6b34e6240a" x="406.688824" y="58.799152" style="fill: #8c564b; stroke: #8c564b; stroke-linejoin: miter"/>
     <use xlink:href="#m6b34e6240a" x="439.512353" y="57.767507" style="fill: #8c564b; stroke: #8c564b; stroke-linejoin: miter"/>
     <use xlink:href="#m6b34e6240a" x="472.335882" y="57.133135" style="fill: #8c564b; stroke: #8c564b; stroke-linejoin: miter"/>
     <use xlink:href="#m6b34e6240a" x="505.159412" y="58.051458" style="fill: #8c564b; stroke: #8c564b; stroke-linejoin: miter"/>
     <use xlink:href="#m6b34e6240a" x="537.982941" y="57.82335" style="fill: #8c564b; stroke: #8c564b; stroke-linejoin: miter"/>
     <use xlink:href="#m6b34e6240a" x="570.806471" y="63.019481" style="fill: #8c564b; stroke: #8c564b; stroke-linejoin: miter"/>
    </g>
   </g>
   <g id="patch_14">
    <path d="M 45.63 479.2755 
L 45.63 35.7555 
" style="fill: none; stroke: #000000; stroke-width: 0.8; stroke-linejoin: miter; stroke-linecap: square"/>
   </g>
   <g id="patch_15">
    <path d="M 603.63 479.2755 
L 603.63 35.7555 
" style="fill: none; stroke: #000000; stroke-width: 0.8; stroke-linejoin: miter; stroke-linecap: square"/>
   </g>
   <g id="patch_16">
    <path d="M 45.63 479.2755 
L 603.63 479.2755 
" style="fill: none; stroke: #000000; stroke-width: 0.8; stroke-linejoin: miter; stroke-linecap: square"/>
   </g>
   <g id="patch_17">
    <path d="M 45.63 35.7555 
L 603.63 35.7555 
" style="fill: none; stroke: #000000; stroke-width: 0.8; stroke-linejoin: miter; stroke-linecap: square"/>
   </g>
   <g id="text_20">
    <!-- 22.28% -->
    <g transform="translate(245.330551 458.841822) rotate(-90) scale(0.1 -0.1)">
     <defs>
      <path id="DejaVuSans-2e" d="M 684 794 
L 1344 794 
L 1344 0 
L 684 0 
L 684 794 
z
" transform="scale(0.015625)"/>
      <path id="DejaVuSans-25" d="M 4653 2053 
Q 4381 2053 4226 1822 
Q 4072 1591 4072 1178 
Q 4072 772 4226 539 
Q 4381 306 4653 306 
Q 4919 306 5073 539 
Q 5228 772 5228 1178 
Q 5228 1588 5073 1820 
Q 4919 2053 4653 2053 
z
M 4653 2450 
Q 5147 2450 5437 2106 
Q 5728 1763 5728 1178 
Q 5728 594 5436 251 
Q 5144 -91 4653 -91 
Q 4153 -91 3862 251 
Q 3572 594 3572 1178 
Q 3572 1766 3864 2108 
Q 4156 2450 4653 2450 
z
M 1428 4353 
Q 1159 4353 1004 4120 
Q 850 3888 850 3481 
Q 850 3069 1003 2837 
Q 1156 2606 1428 2606 
Q 1700 2606 1854 2837 
Q 2009 3069 2009 3481 
Q 2009 3884 1853 4118 
Q 1697 4353 1428 4353 
z
M 4250 4750 
L 4750 4750 
L 1831 -91 
L 1331 -91 
L 4250 4750 
z
M 1428 4750 
Q 1922 4750 2215 4408 
Q 2509 4066 2509 3481 
Q 2509 2891 2217 2550 
Q 1925 2209 1428 2209 
Q 931 2209 642 2551 
Q 353 2894 353 3481 
Q 353 4063 643 4406 
Q 934 4750 1428 4750 
z
" transform="scale(0.015625)"/>
     </defs>
     <use xlink:href="#DejaVuSans-32"/>
     <use xlink:href="#DejaVuSans-32" transform="translate(63.623047 0)"/>
     <use xlink:href="#DejaVuSans-2e" transform="translate(127.246094 0)"/>
     <use xlink:href="#DejaVuSans-32" transform="translate(159.033203 0)"/>
     <use xlink:href="#DejaVuSans-38" transform="translate(222.65625 0)"/>
     <use xlink:href="#DejaVuSans-25" transform="translate(286.279297 0)"/>
    </g>
   </g>
   <g id="text_21">
    <!-- 25.51% -->
    <g transform="translate(278.154081 458.841822) rotate(-90) scale(0.1 -0.1)">
     <use xlink:href="#DejaVuSans-32"/>
     <use xlink:href="#DejaVuSans-35" transform="translate(63.623047 0)"/>
     <use xlink:href="#DejaVuSans-2e" transform="translate(127.246094 0)"/>
     <use xlink:href="#DejaVuSans-35" transform="translate(159.033203 0)"/>
     <use xlink:href="#DejaVuSans-31" transform="translate(222.65625 0)"/>
     <use xlink:href="#DejaVuSans-25" transform="translate(286.279297 0)"/>
    </g>
   </g>
   <g id="text_22">
    <!-- 28.75% -->
    <g transform="translate(310.97761 458.841822) rotate(-90) scale(0.1 -0.1)">
     <use xlink:href="#DejaVuSans-32"/>
     <use xlink:href="#DejaVuSans-38" transform="translate(63.623047 0)"/>
     <use xlink:href="#DejaVuSans-2e" transform="translate(127.246094 0)"/>
     <use xlink:href="#DejaVuSans-37" transform="translate(159.033203 0)"/>
     <use xlink:href="#DejaVuSans-35" transform="translate(222.65625 0)"/>
     <use xlink:href="#DejaVuSans-25" transform="translate(286.279297 0)"/>
    </g>
   </g>
   <g id="text_23">
    <!-- 32.00% -->
    <g transform="translate(343.80114 458.841822) rotate(-90) scale(0.1 -0.1)">
     <use xlink:href="#DejaVuSans-33"/>
     <use xlink:href="#DejaVuSans-32" transform="translate(63.623047 0)"/>
     <use xlink:href="#DejaVuSans-2e" transform="translate(127.246094 0)"/>
     <use xlink:href="#DejaVuSans-30" transform="translate(159.033203 0)"/>
     <use xlink:href="#DejaVuSans-30" transform="translate(222.65625 0)"/>
     <use xlink:href="#DejaVuSans-25" transform="translate(286.279297 0)"/>
    </g>
   </g>
   <g id="text_24">
    <!-- 35.28% -->
    <g transform="translate(376.624669 458.841822) rotate(-90) scale(0.1 -0.1)">
     <use xlink:href="#DejaVuSans-33"/>
     <use xlink:href="#DejaVuSans-35" transform="translate(63.623047 0)"/>
     <use xlink:href="#DejaVuSans-2e" transform="translate(127.246094 0)"/>
     <use xlink:href="#DejaVuSans-32" transform="translate(159.033203 0)"/>
     <use xlink:href="#DejaVuSans-38" transform="translate(222.65625 0)"/>
     <use xlink:href="#DejaVuSans-25" transform="translate(286.279297 0)"/>
    </g>
   </g>
   <g id="text_25">
    <!-- 38.54% -->
    <g transform="translate(409.448199 458.841822) rotate(-90) scale(0.1 -0.1)">
     <use xlink:href="#DejaVuSans-33"/>
     <use xlink:href="#DejaVuSans-38" transform="translate(63.623047 0)"/>
     <use xlink:href="#DejaVuSans-2e" transform="translate(127.246094 0)"/>
     <use xlink:href="#DejaVuSans-35" transform="translate(159.033203 0)"/>
     <use xlink:href="#DejaVuSans-34" transform="translate(222.65625 0)"/>
     <use xlink:href="#DejaVuSans-25" transform="translate(286.279297 0)"/>
    </g>
   </g>
   <g id="text_26">
    <!-- 41.80% -->
    <g transform="translate(442.271728 458.841822) rotate(-90) scale(0.1 -0.1)">
     <use xlink:href="#DejaVuSans-34"/>
     <use xlink:href="#DejaVuSans-31" transform="translate(63.623047 0)"/>
     <use xlink:href="#DejaVuSans-2e" transform="translate(127.246094 0)"/>
     <use xlink:href="#DejaVuSans-38" transform="translate(159.033203 0)"/>
     <use xlink:href="#DejaVuSans-30" transform="translate(222.65625 0)"/>
     <use xlink:href="#DejaVuSans-25" transform="translate(286.279297 0)"/>
    </g>
   </g>
   <g id="text_27">
    <!-- 45.05% -->
    <g transform="translate(475.095257 458.841822) rotate(-90) scale(0.1 -0.1)">
     <use xlink:href="#DejaVuSans-34"/>
     <use xlink:href="#DejaVuSans-35" transform="translate(63.623047 0)"/>
     <use xlink:href="#DejaVuSans-2e" transform="translate(127.246094 0)"/>
     <use xlink:href="#DejaVuSans-30" transform="translate(159.033203 0)"/>
     <use xlink:href="#DejaVuSans-35" transform="translate(222.65625 0)"/>
     <use xlink:href="#DejaVuSans-25" transform="translate(286.279297 0)"/>
    </g>
   </g>
   <g id="text_28">
    <!-- 48.27% -->
    <g transform="translate(507.918787 458.841822) rotate(-90) scale(0.1 -0.1)">
     <use xlink:href="#DejaVuSans-34"/>
     <use xlink:href="#DejaVuSans-38" transform="translate(63.623047 0)"/>
     <use xlink:href="#DejaVuSans-2e" transform="translate(127.246094 0)"/>
     <use xlink:href="#DejaVuSans-32" transform="translate(159.033203 0)"/>
     <use xlink:href="#DejaVuSans-37" transform="translate(222.65625 0)"/>
     <use xlink:href="#DejaVuSans-25" transform="translate(286.279297 0)"/>
    </g>
   </g>
   <g id="text_29">
    <!-- 51.54% -->
    <g transform="translate(540.742316 458.841822) rotate(-90) scale(0.1 -0.1)">
     <use xlink:href="#DejaVuSans-35"/>
     <use xlink:href="#DejaVuSans-31" transform="translate(63.623047 0)"/>
     <use xlink:href="#DejaVuSans-2e" transform="translate(127.246094 0)"/>
     <use xlink:href="#DejaVuSans-35" transform="translate(159.033203 0)"/>
     <use xlink:href="#DejaVuSans-34" transform="translate(222.65625 0)"/>
     <use xlink:href="#DejaVuSans-25" transform="translate(286.279297 0)"/>
    </g>
   </g>
   <g id="text_30">
    <!-- 54.77% -->
    <g transform="translate(573.565846 458.841822) rotate(-90) scale(0.1 -0.1)">
     <use xlink:href="#DejaVuSans-35"/>
     <use xlink:href="#DejaVuSans-34" transform="translate(63.623047 0)"/>
     <use xlink:href="#DejaVuSans-2e" transform="translate(127.246094 0)"/>
     <use xlink:href="#DejaVuSans-37" transform="translate(159.033203 0)"/>
     <use xlink:href="#DejaVuSans-37" transform="translate(222.65625 0)"/>
     <use xlink:href="#DejaVuSans-25" transform="translate(286.279297 0)"/>
    </g>
   </g>
   <g id="text_31">
    <!-- Performance of writes (u32) in ω code in function of the table size (distribution ≈1/x, first billion integers) -->
    <g transform="translate(7.2 16.318125) scale(0.12 -0.12)">
     <defs>
      <path id="DejaVuSans-50" d="M 1259 4147 
L 1259 2394 
L 2053 2394 
Q 2494 2394 2734 2622 
Q 2975 2850 2975 3272 
Q 2975 3691 2734 3919 
Q 2494 4147 2053 4147 
L 1259 4147 
z
M 628 4666 
L 2053 4666 
Q 2838 4666 3239 4311 
Q 3641 3956 3641 3272 
Q 3641 2581 3239 2228 
Q 2838 1875 2053 1875 
L 1259 1875 
L 1259 0 
L 628 0 
L 628 4666 
z
" transform="scale(0.015625)"/>
      <path id="DejaVuSans-72" d="M 2631 2963 
Q 2534 3019 2420 3045 
Q 2306 3072 2169 3072 
Q 1681 3072 1420 2755 
Q 1159 2438 1159 1844 
L 1159 0 
L 581 0 
L 581 3500 
L 1159 3500 
L 1159 2956 
Q 1341 3275 1631 3429 
Q 1922 3584 2338 3584 
Q 2397 3584 2469 3576 
Q 2541 3569 2628 3553 
L 2631 2963 
z
" transform="scale(0.015625)"/>
      <path id="DejaVuSans-66" d="M 2375 4863 
L 2375 4384 
L 1825 4384 
Q 1516 4384 1395 4259 
Q 1275 4134 1275 3809 
L 1275 3500 
L 2222 3500 
L 2222 3053 
L 1275 3053 
L 1275 0 
L 697 0 
L 697 3053 
L 147 3053 
L 147 3500 
L 697 3500 
L 697 3744 
Q 697 4328 969 4595 
Q 1241 4863 1831 4863 
L 2375 4863 
z
" transform="scale(0.015625)"/>
      <path id="DejaVuSans-6d" d="M 3328 2828 
Q 3544 3216 3844 3400 
Q 4144 3584 4550 3584 
Q 5097 3584 5394 3201 
Q 5691 2819 5691 2113 
L 5691 0 
L 5113 0 
L 5113 2094 
Q 5113 2597 4934 2840 
Q 4756 3084 4391 3084 
Q 3944 3084 3684 2787 
Q 3425 2491 3425 1978 
L 3425 0 
L 2847 0 
L 2847 2094 
Q 2847 2600 2669 2842 
Q 2491 3084 2119 3084 
Q 1678 3084 1418 2786 
Q 1159 2488 1159 1978 
L 1159 0 
L 581 0 
L 581 3500 
L 1159 3500 
L 1159 2956 
Q 1356 3278 1631 3431 
Q 1906 3584 2284 3584 
Q 2666 3584 2933 3390 
Q 3200 3197 3328 2828 
z
" transform="scale(0.015625)"/>
      <path id="DejaVuSans-63" d="M 3122 3366 
L 3122 2828 
Q 2878 2963 2633 3030 
Q 2388 3097 2138 3097 
Q 1578 3097 1268 2742 
Q 959 2388 959 1747 
Q 959 1106 1268 751 
Q 1578 397 2138 397 
Q 2388 397 2633 464 
Q 2878 531 3122 666 
L 3122 134 
Q 2881 22 2623 -34 
Q 2366 -91 2075 -91 
Q 1284 -91 818 406 
Q 353 903 353 1747 
Q 353 2603 823 3093 
Q 1294 3584 2113 3584 
Q 2378 3584 2631 3529 
Q 2884 3475 3122 3366 
z
" transform="scale(0.015625)"/>
      <path id="DejaVuSans-77" d="M 269 3500 
L 844 3500 
L 1563 769 
L 2278 3500 
L 2956 3500 
L 3675 769 
L 4391 3500 
L 4966 3500 
L 4050 0 
L 3372 0 
L 2619 2869 
L 1863 0 
L 1184 0 
L 269 3500 
z
" transform="scale(0.015625)"/>
      <path id="DejaVuSans-75" d="M 544 1381 
L 544 3500 
L 1119 3500 
L 1119 1403 
Q 1119 906 1312 657 
Q 1506 409 1894 409 
Q 2359 409 2629 706 
Q 2900 1003 2900 1516 
L 2900 3500 
L 3475 3500 
L 3475 0 
L 2900 0 
L 2900 538 
Q 2691 219 2414 64 
Q 2138 -91 1772 -91 
Q 1169 -91 856 284 
Q 544 659 544 1381 
z
M 1991 3584 
L 1991 3584 
z
" transform="scale(0.015625)"/>
      <path id="DejaVuSans-3c9" d="M 1719 -91 
Q 422 -91 422 1766 
Q 422 2500 906 3500 
L 1525 3500 
Q 1078 2500 1078 1750 
Q 1078 397 1772 397 
Q 2406 397 2406 2078 
L 2938 2078 
Q 2938 397 3572 397 
Q 4266 397 4266 1750 
Q 4266 2500 3819 3500 
L 4438 3500 
Q 4922 2500 4922 1766 
Q 4922 -91 3625 -91 
Q 2775 -91 2672 844 
Q 2544 -91 1719 -91 
z
" transform="scale(0.015625)"/>
      <path id="DejaVuSans-64" d="M 2906 2969 
L 2906 4863 
L 3481 4863 
L 3481 0 
L 2906 0 
L 2906 525 
Q 2725 213 2448 61 
Q 2172 -91 1784 -91 
Q 1150 -91 751 415 
Q 353 922 353 1747 
Q 353 2572 751 3078 
Q 1150 3584 1784 3584 
Q 2172 3584 2448 3432 
Q 2725 3281 2906 2969 
z
M 947 1747 
Q 947 1113 1208 752 
Q 1469 391 1925 391 
Q 2381 391 2643 752 
Q 2906 1113 2906 1747 
Q 2906 2381 2643 2742 
Q 2381 3103 1925 3103 
Q 1469 3103 1208 2742 
Q 947 2381 947 1747 
z
" transform="scale(0.015625)"/>
      <path id="DejaVuSans-68" d="M 3513 2113 
L 3513 0 
L 2938 0 
L 2938 2094 
Q 2938 2591 2744 2837 
Q 2550 3084 2163 3084 
Q 1697 3084 1428 2787 
Q 1159 2491 1159 1978 
L 1159 0 
L 581 0 
L 581 4863 
L 1159 4863 
L 1159 2956 
Q 1366 3272 1645 3428 
Q 1925 3584 2291 3584 
Q 2894 3584 3203 3211 
Q 3513 2838 3513 2113 
z
" transform="scale(0.015625)"/>
      <path id="DejaVuSans-2248" d="M 4684 1947 
L 4684 1388 
Q 4356 1144 4076 1036 
Q 3797 928 3494 928 
Q 3150 928 2694 1113 
Q 2663 1125 2641 1134 
Q 2622 1141 2575 1159 
Q 2091 1350 1797 1350 
Q 1522 1350 1253 1231 
Q 984 1113 678 850 
L 678 1409 
Q 1006 1653 1286 1761 
Q 1566 1869 1869 1869 
Q 2213 1869 2672 1684 
Q 2706 1669 2722 1663 
Q 2741 1656 2788 1638 
Q 3272 1447 3566 1447 
Q 3834 1447 4098 1564 
Q 4363 1681 4684 1947 
z
M 4684 3163 
L 4684 2606 
Q 4356 2359 4076 2251 
Q 3797 2144 3494 2144 
Q 3150 2144 2694 2328 
Q 2663 2341 2641 2350 
Q 2622 2356 2575 2375 
Q 2091 2566 1797 2566 
Q 1522 2566 1253 2447 
Q 984 2328 678 2069 
L 678 2625 
Q 1006 2869 1286 2976 
Q 1566 3084 1869 3084 
Q 2213 3084 2672 2900 
Q 2703 2888 2719 2881 
Q 2741 2872 2788 2853 
Q 3272 2663 3566 2663 
Q 3834 2663 4098 2780 
Q 4363 2897 4684 3163 
z
" transform="scale(0.015625)"/>
      <path id="DejaVuSans-2f" d="M 1625 4666 
L 2156 4666 
L 531 -594 
L 0 -594 
L 1625 4666 
z
" transform="scale(0.015625)"/>
      <path id="DejaVuSans-78" d="M 3513 3500 
L 2247 1797 
L 3578 0 
L 2900 0 
L 1881 1375 
L 863 0 
L 184 0 
L 1544 1831 
L 300 3500 
L 978 3500 
L 1906 2253 
L 2834 3500 
L 3513 3500 
z
" transform="scale(0.015625)"/>
      <path id="DejaVuSans-2c" d="M 750 794 
L 1409 794 
L 1409 256 
L 897 -744 
L 494 -744 
L 750 256 
L 750 794 
z
" transform="scale(0.015625)"/>
     </defs>
     <use xlink:href="#DejaVuSans-50"/>
     <use xlink:href="#DejaVuSans-65" transform="translate(56.677734 0)"/>
     <use xlink:href="#DejaVuSans-72" transform="translate(118.201172 0)"/>
     <use xlink:href="#DejaVuSans-66" transform="translate(159.314453 0)"/>
     <use xlink:href="#DejaVuSans-6f" transform="translate(194.519531 0)"/>
     <use xlink:href="#DejaVuSans-72" transform="translate(255.701172 0)"/>
     <use xlink:href="#DejaVuSans-6d" transform="translate(295.064453 0)"/>
     <use xlink:href="#DejaVuSans-61" transform="translate(392.476562 0)"/>
     <use xlink:href="#DejaVuSans-6e" transform="translate(453.755859 0)"/>
     <use xlink:href="#DejaVuSans-63" transform="translate(517.134766 0)"/>
     <use xlink:href="#DejaVuSans-65" transform="translate(572.115234 0)"/>
     <use xlink:href="#DejaVuSans-20" transform="translate(633.638672 0)"/>
     <use xlink:href="#DejaVuSans-6f" transform="translate(665.425781 0)"/>
     <use xlink:href="#DejaVuSans-66" transform="translate(726.607422 0)"/>
     <use xlink:href="#DejaVuSans-20" transform="translate(761.8125 0)"/>
     <use xlink:href="#DejaVuSans-77" transform="translate(793.599609 0)"/>
     <use xlink:href="#DejaVuSans-72" transform="translate(875.386719 0)"/>
     <use xlink:href="#DejaVuSans-69" transform="translate(916.5 0)"/>
     <use xlink:href="#DejaVuSans-74" transform="translate(944.283203 0)"/>
     <use xlink:href="#DejaVuSans-65" transform="translate(983.492188 0)"/>
     <use xlink:href="#DejaVuSans-73" transform="translate(1045.015625 0)"/>
     <use xlink:href="#DejaVuSans-20" transform="translate(1097.115234 0)"/>
     <use xlink:href="#DejaVuSans-28" transform="translate(1128.902344 0)"/>
     <use xlink:href="#DejaVuSans-75" transform="translate(1167.916016 0)"/>
     <use xlink:href="#DejaVuSans-33" transform="translate(1231.294922 0)"/>
     <use xlink:href="#DejaVuSans-32" transform="translate(1294.917969 0)"/>
     <use xlink:href="#DejaVuSans-29" transform="translate(1358.541016 0)"/>
     <use xlink:href="#DejaVuSans-20" transform="translate(1397.554688 0)"/>
     <use xlink:href="#DejaVuSans-69" transform="translate(1429.341797 0)"/>
     <use xlink:href="#DejaVuSans-6e" transform="translate(1457.125 0)"/>
     <use xlink:href="#DejaVuSans-20" transform="translate(1520.503906 0)"/>
     <use xlink:href="#DejaVuSans-3c9" transform="translate(1552.291016 0)"/>
     <use xlink:href="#DejaVuSans-20" transform="translate(1636.03125 0)"/>
     <use xlink:href="#DejaVuSans-63" transform="translate(1667.818359 0)"/>
     <use xlink:href="#DejaVuSans-6f" transform="translate(1722.798828 0)"/>
     <use xlink:href="#DejaVuSans-64" transform="translate(1783.980469 0)"/>
     <use xlink:href="#DejaVuSans-65" transform="translate(1847.457031 0)"/>
     <use xlink:href="#DejaVuSans-20" transform="translate(1908.980469 0)"/>
     <use xlink:href="#DejaVuSans-69" transform="translate(1940.767578 0)"/>
     <use xlink:href="#DejaVuSans-6e" transform="translate(1968.550781 0)"/>
     <use xlink:href="#DejaVuSans-20" transform="translate(2031.929688 0)"/>
     <use xlink:href="#DejaVuSans-66" transform="translate(2063.716797 0)"/>
     <use xlink:href="#DejaVuSans-75" transform="translate(2098.921875 0)"/>
     <use xlink:href="#DejaVuSans-6e" transform="translate(2162.300781 0)"/>
     <use xlink:href="#DejaVuSans-63" transform="translate(2225.679688 0)"/>
     <use xlink:href="#DejaVuSans-74" transform="translate(2280.660156 0)"/>
     <use xlink:href="#DejaVuSans-69" transform="translate(2319.869141 0)"/>
     <use xlink:href="#DejaVuSans-6f" transform="translate(2347.652344 0)"/>
     <use xlink:href="#DejaVuSans-6e" transform="translate(2408.833984 0)"/>
     <use xlink:href="#DejaVuSans-20" transform="translate(2472.212891 0)"/>
     <use xlink:href="#DejaVuSans-6f" transform="translate(2504 0)"/>
     <use xlink:href="#DejaVuSans-66" transform="translate(2565.181641 0)"/>
     <use xlink:href="#DejaVuSans-20" transform="translate(2600.386719 0)"/>
     <use xlink:href="#DejaVuSans-74" transform="translate(2632.173828 0)"/>
     <use xlink:href="#DejaVuSans-68" transform="translate(2671.382812 0)"/>
     <use xlink:href="#DejaVuSans-65" transform="translate(2734.761719 0)"/>
     <use xlink:href="#DejaVuSans-20" transform="translate(2796.285156 0)"/>
     <use xlink:href="#DejaVuSans-74" transform="translate(2828.072266 0)"/>
     <use xlink:href="#DejaVuSans-61" transform="translate(2867.28125 0)"/>
     <use xlink:href="#DejaVuSans-62" transform="translate(2928.560547 0)"/>
     <use xlink:href="#DejaVuSans-6c" transform="translate(2992.037109 0)"/>
     <use xlink:href="#DejaVuSans-65" transform="translate(3019.820312 0)"/>
     <use xlink:href="#DejaVuSans-20" transform="translate(3081.34375 0)"/>
     <use xlink:href="#DejaVuSans-73" transform="translate(3113.130859 0)"/>
     <use xlink:href="#DejaVuSans-69" transform="translate(3165.230469 0)"/>
     <use xlink:href="#DejaVuSans-7a" transform="translate(3193.013672 0)"/>
     <use xlink:href="#DejaVuSans-65" transform="translate(3245.503906 0)"/>
     <use xlink:href="#DejaVuSans-20" transform="translate(3307.027344 0)"/>
     <use xlink:href="#DejaVuSans-28" transform="translate(3338.814453 0)"/>
     <use xlink:href="#DejaVuSans-64" transform="translate(3377.828125 0)"/>
     <use xlink:href="#DejaVuSans-69" transform="translate(3441.304688 0)"/>
     <use xlink:href="#DejaVuSans-73" transform="translate(3469.087891 0)"/>
     <use xlink:href="#DejaVuSans-74" transform="translate(3521.1875 0)"/>
     <use xlink:href="#DejaVuSans-72" transform="translate(3560.396484 0)"/>
     <use xlink:href="#DejaVuSans-69" transform="translate(3601.509766 0)"/>
     <use xlink:href="#DejaVuSans-62" transform="translate(3629.292969 0)"/>
     <use xlink:href="#DejaVuSans-75" transform="translate(3692.769531 0)"/>
     <use xlink:href="#DejaVuSans-74" transform="translate(3756.148438 0)"/>
     <use xlink:href="#DejaVuSans-69" transform="translate(3795.357422 0)"/>
     <use xlink:href="#DejaVuSans-6f" transform="translate(3823.140625 0)"/>
     <use xlink:href="#DejaVuSans-6e" transform="translate(3884.322266 0)"/>
     <use xlink:href="#DejaVuSans-20" transform="translate(3947.701172 0)"/>
     <use xlink:href="#DejaVuSans-2248" transform="translate(3979.488281 0)"/>
     <use xlink:href="#DejaVuSans-31" transform="translate(4063.277344 0)"/>
     <use xlink:href="#DejaVuSans-2f" transform="translate(4126.900391 0)"/>
     <use xlink:href="#DejaVuSans-78" transform="translate(4160.591797 0)"/>
     <use xlink:href="#DejaVuSans-2c" transform="translate(4219.771484 0)"/>
     <use xlink:href="#DejaVuSans-20" transform="translate(4251.558594 0)"/>
     <use xlink:href="#DejaVuSans-66" transform="translate(4283.345703 0)"/>
     <use xlink:href="#DejaVuSans-69" transform="translate(4318.550781 0)"/>
     <use xlink:href="#DejaVuSans-72" transform="translate(4346.333984 0)"/>
     <use xlink:href="#DejaVuSans-73" transform="translate(4387.447266 0)"/>
     <use xlink:href="#DejaVuSans-74" transform="translate(4439.546875 0)"/>
     <use xlink:href="#DejaVuSans-20" transform="translate(4478.755859 0)"/>
     <use xlink:href="#DejaVuSans-62" transform="translate(4510.542969 0)"/>
     <use xlink:href="#DejaVuSans-69" transform="translate(4574.019531 0)"/>
     <use xlink:href="#DejaVuSans-6c" transform="translate(4601.802734 0)"/>
     <use xlink:href="#DejaVuSans-6c" transform="translate(4629.585938 0)"/>
     <use xlink:href="#DejaVuSans-69" transform="translate(4657.369141 0)"/>
     <use xlink:href="#DejaVuSans-6f" transform="translate(4685.152344 0)"/>
     <use xlink:href="#DejaVuSans-6e" transform="translate(4746.333984 0)"/>
     <use xlink:href="#DejaVuSans-20" transform="translate(4809.712891 0)"/>
     <use xlink:href="#DejaVuSans-69" transform="translate(4841.5 0)"/>
     <use xlink:href="#DejaVuSans-6e" transform="translate(4869.283203 0)"/>
     <use xlink:href="#DejaVuSans-74" transform="translate(4932.662109 0)"/>
     <use xlink:href="#DejaVuSans-65" transform="translate(4971.871094 0)"/>
     <use xlink:href="#DejaVuSans-67" transform="translate(5033.394531 0)"/>
     <use xlink:href="#DejaVuSans-65" transform="translate(5096.871094 0)"/>
     <use xlink:href="#DejaVuSans-72" transform="translate(5158.394531 0)"/>
     <use xlink:href="#DejaVuSans-73" transform="translate(5199.507812 0)"/>
     <use xlink:href="#DejaVuSans-29" transform="translate(5251.607422 0)"/>
    </g>
    <!-- Shaded areas are the 25% and 75% percentiles and the plots are medians -->
    <g transform="translate(100.932187 29.7555) scale(0.12 -0.12)">
     <defs>
      <path id="DejaVuSans-53" d="M 3425 4513 
L 3425 3897 
Q 3066 4069 2747 4153 
Q 2428 4238 2131 4238 
Q 1616 4238 1336 4038 
Q 1056 3838 1056 3469 
Q 1056 3159 1242 3001 
Q 1428 2844 1947 2747 
L 2328 2669 
Q 3034 2534 3370 2195 
Q 3706 1856 3706 1288 
Q 3706 609 3251 259 
Q 2797 -91 1919 -91 
Q 1588 -91 1214 -16 
Q 841 59 441 206 
L 441 856 
Q 825 641 1194 531 
Q 1563 422 1919 422 
Q 2459 422 2753 634 
Q 3047 847 3047 1241 
Q 3047 1584 2836 1778 
Q 2625 1972 2144 2069 
L 1759 2144 
Q 1053 2284 737 2584 
Q 422 2884 422 3419 
Q 422 4038 858 4394 
Q 1294 4750 2059 4750 
Q 2388 4750 2728 4690 
Q 3069 4631 3425 4513 
z
" transform="scale(0.015625)"/>
      <path id="DejaVuSans-70" d="M 1159 525 
L 1159 -1331 
L 581 -1331 
L 581 3500 
L 1159 3500 
L 1159 2969 
Q 1341 3281 1617 3432 
Q 1894 3584 2278 3584 
Q 2916 3584 3314 3078 
Q 3713 2572 3713 1747 
Q 3713 922 3314 415 
Q 2916 -91 2278 -91 
Q 1894 -91 1617 61 
Q 1341 213 1159 525 
z
M 3116 1747 
Q 3116 2381 2855 2742 
Q 2594 3103 2138 3103 
Q 1681 3103 1420 2742 
Q 1159 2381 1159 1747 
Q 1159 1113 1420 752 
Q 1681 391 2138 391 
Q 2594 391 2855 752 
Q 3116 1113 3116 1747 
z
" transform="scale(0.015625)"/>
     </defs>
     <use xlink:href="#DejaVuSans-53"/>
     <use xlink:href="#DejaVuSans-68" transform="translate(63.476562 0)"/>
     <use xlink:href="#DejaVuSans-61" transform="translate(126.855469 0)"/>
     <use xlink:href="#DejaVuSans-64" transform="translate(188.134766 0)"/>
     <use xlink:href="#DejaVuSans-65" transform="translate(251.611328 0)"/>
     <use xlink:href="#DejaVuSans-64" transform="translate(313.134766 0)"/>
     <use xlink:href="#DejaVuSans-20" transform="translate(376.611328 0)"/>
     <use xlink:href="#DejaVuSans-61" transform="translate(408.398438 0)"/>
     <use xlink:href="#DejaVuSans-72" transform="translate(469.677734 0)"/>
     <use xlink:href="#DejaVuSans-65" transform="translate(508.541016 0)"/>
     <use xlink:href="#DejaVuSans-61" transform="translate(570.064453 0)"/>
     <use xlink:href="#DejaVuSans-73" transform="translate(631.34375 0)"/>
     <use xlink:href="#DejaVuSans-20" transform="translate(683.443359 0)"/>
     <use xlink:href="#DejaVuSans-61" transform="translate(715.230469 0)"/>
     <use xlink:href="#DejaVuSans-72" transform="translate(776.509766 0)"/>
     <use xlink:href="#DejaVuSans-65" transform="translate(815.373047 0)"/>
     <use xlink:href="#DejaVuSans-20" transform="translate(876.896484 0)"/>
     <use xlink:href="#DejaVuSans-74" transform="translate(908.683594 0)"/>
     <use xlink:href="#DejaVuSans-68" transform="translate(947.892578 0)"/>
     <use xlink:href="#DejaVuSans-65" transform="translate(1011.271484 0)"/>
     <use xlink:href="#DejaVuSans-20" transform="translate(1072.794922 0)"/>
     <use xlink:href="#DejaVuSans-32" transform="translate(1104.582031 0)"/>
     <use xlink:href="#DejaVuSans-35" transform="translate(1168.205078 0)"/>
     <use xlink:href="#DejaVuSans-25" transform="translate(1231.828125 0)"/>
     <use xlink:href="#DejaVuSans-20" transform="translate(1326.847656 0)"/>
     <use xlink:href="#DejaVuSans-61" transform="translate(1358.634766 0)"/>
     <use xlink:href="#DejaVuSans-6e" transform="translate(1419.914062 0)"/>
     <use xlink:href="#DejaVuSans-64" transform="translate(1483.292969 0)"/>
     <use xlink:href="#DejaVuSans-20" transform="translate(1546.769531 0)"/>
     <use xlink:href="#DejaVuSans-37" transform="translate(1578.556641 0)"/>
     <use xlink:href="#DejaVuSans-35" transform="translate(1642.179688 0)"/>
     <use xlink:href="#DejaVuSans-25" transform="translate(1705.802734 0)"/>
     <use xlink:href="#DejaVuSans-20" transform="translate(1800.822266 0)"/>
     <use xlink:href="#DejaVuSans-70" transform="translate(1832.609375 0)"/>
     <use xlink:href="#DejaVuSans-65" transform="translate(1896.085938 0)"/>
     <use xlink:href="#DejaVuSans-72" transform="translate(1957.609375 0)"/>
     <use xlink:href="#DejaVuSans-63" transform="translate(1996.472656 0)"/>
     <use xlink:href="#DejaVuSans-65" transform="translate(2051.453125 0)"/>
     <use xlink:href="#DejaVuSans-6e" transform="translate(2112.976562 0)"/>
     <use xlink:href="#DejaVuSans-74" transform="translate(2176.355469 0)"/>
     <use xlink:href="#DejaVuSans-69" transform="translate(2215.564453 0)"/>
     <use xlink:href="#DejaVuSans-6c" transform="translate(2243.347656 0)"/>
     <use xlink:href="#DejaVuSans-65" transform="translate(2271.130859 0)"/>
     <use xlink:href="#DejaVuSans-73" transform="translate(2332.654297 0)"/>
     <use xlink:href="#DejaVuSans-20" transform="translate(2384.753906 0)"/>
     <use xlink:href="#DejaVuSans-61" transform="translate(2416.541016 0)"/>
     <use xlink:href="#DejaVuSans-6e" transform="translate(2477.820312 0)"/>
     <use xlink:href="#DejaVuSans-64" transform="translate(2541.199219 0)"/>
     <use xlink:href="#DejaVuSans-20" transform="translate(2604.675781 0)"/>
     <use xlink:href="#DejaVuSans-74" transform="translate(2636.462891 0)"/>
     <use xlink:href="#DejaVuSans-68" transform="translate(2675.671875 0)"/>
     <use xlink:href="#DejaVuSans-65" transform="translate(2739.050781 0)"/>
     <use xlink:href="#DejaVuSans-20" transform="translate(2800.574219 0)"/>
     <use xlink:href="#DejaVuSans-70" transform="translate(2832.361328 0)"/>
     <use xlink:href="#DejaVuSans-6c" transform="translate(2895.837891 0)"/>
     <use xlink:href="#DejaVuSans-6f" transform="translate(2923.621094 0)"/>
     <use xlink:href="#DejaVuSans-74" transform="translate(2984.802734 0)"/>
     <use xlink:href="#DejaVuSans-73" transform="translate(3024.011719 0)"/>
     <use xlink:href="#DejaVuSans-20" transform="translate(3076.111328 0)"/>
     <use xlink:href="#DejaVuSans-61" transform="translate(3107.898438 0)"/>
     <use xlink:href="#DejaVuSans-72" transform="translate(3169.177734 0)"/>
     <use xlink:href="#DejaVuSans-65" transform="translate(3208.041016 0)"/>
     <use xlink:href="#DejaVuSans-20" transform="translate(3269.564453 0)"/>
     <use xlink:href="#DejaVuSans-6d" transform="translate(3301.351562 0)"/>
     <use xlink:href="#DejaVuSans-65" transform="translate(3398.763672 0)"/>
     <use xlink:href="#DejaVuSans-64" transform="translate(3460.287109 0)"/>
     <use xlink:href="#DejaVuSans-69" transform="translate(3523.763672 0)"/>
     <use xlink:href="#DejaVuSans-61" transform="translate(3551.546875 0)"/>
     <use xlink:href="#DejaVuSans-6e" transform="translate(3612.826172 0)"/>
     <use xlink:href="#DejaVuSans-73" transform="translate(3676.205078 0)"/>
    </g>
   </g>
   <g id="legend_1">
    <g id="patch_18">
     <path d="M 610.63 317.728 
L 865.978438 317.728 
Q 867.978438 317.728 867.978438 315.728 
L 867.978438 199.303 
Q 867.978438 197.303 865.978438 197.303 
L 610.63 197.303 
Q 608.63 197.303 608.63 199.303 
L 608.63 315.728 
Q 608.63 317.728 610.63 317.728 
z
" style="fill: #ffffff; opacity: 0.8; stroke: #cccccc; stroke-linejoin: miter"/>
    </g>
    <g id="line2d_25">
     <path d="M 612.63 205.401438 
L 622.63 205.401438 
L 632.63 205.401438 
" style="fill: none; stroke-dasharray: 5.55,2.4; stroke-dashoffset: 0; stroke: #808080; stroke-opacity: 0.3; stroke-width: 1.5"/>
    </g>
    <g id="text_32">
     <!-- table hit ratio 100% line -->
     <g transform="translate(640.63 208.901438) scale(0.1 -0.1)">
      <use xlink:href="#DejaVuSans-74"/>
      <use xlink:href="#DejaVuSans-61" transform="translate(39.208984 0)"/>
      <use xlink:href="#DejaVuSans-62" transform="translate(100.488281 0)"/>
      <use xlink:href="#DejaVuSans-6c" transform="translate(163.964844 0)"/>
      <use xlink:href="#DejaVuSans-65" transform="translate(191.748047 0)"/>
      <use xlink:href="#DejaVuSans-20" transform="translate(253.271484 0)"/>
      <use xlink:href="#DejaVuSans-68" transform="translate(285.058594 0)"/>
      <use xlink:href="#DejaVuSans-69" transform="translate(348.4375 0)"/>
      <use xlink:href="#DejaVuSans-74" transform="translate(376.220703 0)"/>
      <use xlink:href="#DejaVuSans-20" transform="translate(415.429688 0)"/>
      <use xlink:href="#DejaVuSans-72" transform="translate(447.216797 0)"/>
      <use xlink:href="#DejaVuSans-61" transform="translate(488.330078 0)"/>
      <use xlink:href="#DejaVuSans-74" transform="translate(549.609375 0)"/>
      <use xlink:href="#DejaVuSans-69" transform="translate(588.818359 0)"/>
      <use xlink:href="#DejaVuSans-6f" transform="translate(616.601562 0)"/>
      <use xlink:href="#DejaVuSans-20" transform="translate(677.783203 0)"/>
      <use xlink:href="#DejaVuSans-31" transform="translate(709.570312 0)"/>
      <use xlink:href="#DejaVuSans-30" transform="translate(773.193359 0)"/>
      <use xlink:href="#DejaVuSans-30" transform="translate(836.816406 0)"/>
      <use xlink:href="#DejaVuSans-25" transform="translate(900.439453 0)"/>
      <use xlink:href="#DejaVuSans-20" transform="translate(995.458984 0)"/>
      <use xlink:href="#DejaVuSans-6c" transform="translate(1027.246094 0)"/>
      <use xlink:href="#DejaVuSans-69" transform="translate(1055.029297 0)"/>
      <use xlink:href="#DejaVuSans-6e" transform="translate(1082.8125 0)"/>
      <use xlink:href="#DejaVuSans-65" transform="translate(1146.191406 0)"/>
     </g>
    </g>
    <g id="line2d_26">
     <path d="M 612.63 220.079563 
L 632.63 220.079563 
" style="fill: none; stroke: #1f77b4; stroke-width: 1.5; stroke-linecap: square"/>
    </g>
    <g id="line2d_27">
     <g>
      <use xlink:href="#mb298406a5f" x="622.63" y="220.079563" style="fill: #1f77b4; stroke: #1f77b4"/>
     </g>
    </g>
    <g id="text_33">
     <!-- LE::Table::merged (min: 10.481ns @ 10 bits) -->
     <g transform="translate(640.63 223.579563) scale(0.1 -0.1)">
      <defs>
       <path id="DejaVuSans-4c" d="M 628 4666 
L 1259 4666 
L 1259 531 
L 3531 531 
L 3531 0 
L 628 0 
L 628 4666 
z
" transform="scale(0.015625)"/>
       <path id="DejaVuSans-45" d="M 628 4666 
L 3578 4666 
L 3578 4134 
L 1259 4134 
L 1259 2753 
L 3481 2753 
L 3481 2222 
L 1259 2222 
L 1259 531 
L 3634 531 
L 3634 0 
L 628 0 
L 628 4666 
z
" transform="scale(0.015625)"/>
       <path id="DejaVuSans-3a" d="M 750 794 
L 1409 794 
L 1409 0 
L 750 0 
L 750 794 
z
M 750 3309 
L 1409 3309 
L 1409 2516 
L 750 2516 
L 750 3309 
z
" transform="scale(0.015625)"/>
       <path id="DejaVuSans-54" d="M -19 4666 
L 3928 4666 
L 3928 4134 
L 2272 4134 
L 2272 0 
L 1638 0 
L 1638 4134 
L -19 4134 
L -19 4666 
z
" transform="scale(0.015625)"/>
       <path id="DejaVuSans-40" d="M 2381 1678 
Q 2381 1231 2603 976 
Q 2825 722 3213 722 
Q 3597 722 3817 978 
Q 4038 1234 4038 1678 
Q 4038 2116 3813 2373 
Q 3588 2631 3206 2631 
Q 2828 2631 2604 2375 
Q 2381 2119 2381 1678 
z
M 4084 744 
Q 3897 503 3655 389 
Q 3413 275 3091 275 
Q 2553 275 2217 664 
Q 1881 1053 1881 1678 
Q 1881 2303 2218 2693 
Q 2556 3084 3091 3084 
Q 3413 3084 3656 2967 
Q 3900 2850 4084 2613 
L 4084 3022 
L 4531 3022 
L 4531 722 
Q 4988 791 5245 1139 
Q 5503 1488 5503 2041 
Q 5503 2375 5404 2669 
Q 5306 2963 5106 3213 
Q 4781 3622 4314 3839 
Q 3847 4056 3297 4056 
Q 2913 4056 2559 3954 
Q 2206 3853 1906 3653 
Q 1416 3334 1139 2817 
Q 863 2300 863 1697 
Q 863 1200 1042 765 
Q 1222 331 1563 0 
Q 1891 -325 2322 -495 
Q 2753 -666 3244 -666 
Q 3647 -666 4036 -530 
Q 4425 -394 4750 -141 
L 5031 -488 
Q 4641 -791 4180 -952 
Q 3719 -1113 3244 -1113 
Q 2666 -1113 2153 -908 
Q 1641 -703 1241 -313 
Q 841 78 631 592 
Q 422 1106 422 1697 
Q 422 2266 634 2781 
Q 847 3297 1241 3688 
Q 1644 4084 2172 4295 
Q 2700 4506 3291 4506 
Q 3953 4506 4520 4234 
Q 5088 3963 5472 3463 
Q 5706 3156 5829 2797 
Q 5953 2438 5953 2053 
Q 5953 1231 5456 756 
Q 4959 281 4084 263 
L 4084 744 
z
" transform="scale(0.015625)"/>
      </defs>
      <use xlink:href="#DejaVuSans-4c"/>
      <use xlink:href="#DejaVuSans-45" transform="translate(55.712891 0)"/>
      <use xlink:href="#DejaVuSans-3a" transform="translate(118.896484 0)"/>
      <use xlink:href="#DejaVuSans-3a" transform="translate(152.587891 0)"/>
      <use xlink:href="#DejaVuSans-54" transform="translate(186.279297 0)"/>
      <use xlink:href="#DejaVuSans-61" transform="translate(230.863281 0)"/>
      <use xlink:href="#DejaVuSans-62" transform="translate(292.142578 0)"/>
      <use xlink:href="#DejaVuSans-6c" transform="translate(355.619141 0)"/>
      <use xlink:href="#DejaVuSans-65" transform="translate(383.402344 0)"/>
      <use xlink:href="#DejaVuSans-3a" transform="translate(444.925781 0)"/>
      <use xlink:href="#DejaVuSans-3a" transform="translate(478.617188 0)"/>
      <use xlink:href="#DejaVuSans-6d" transform="translate(512.308594 0)"/>
      <use xlink:href="#DejaVuSans-65" transform="translate(609.720703 0)"/>
      <use xlink:href="#DejaVuSans-72" transform="translate(671.244141 0)"/>
      <use xlink:href="#DejaVuSans-67" transform="translate(710.607422 0)"/>
      <use xlink:href="#DejaVuSans-65" transform="translate(774.083984 0)"/>
      <use xlink:href="#DejaVuSans-64" transform="translate(835.607422 0)"/>
      <use xlink:href="#DejaVuSans-20" transform="translate(899.083984 0)"/>
      <use xlink:href="#DejaVuSans-28" transform="translate(930.871094 0)"/>
      <use xlink:href="#DejaVuSans-6d" transform="translate(969.884766 0)"/>
      <use xlink:href="#DejaVuSans-69" transform="translate(1067.296875 0)"/>
      <use xlink:href="#DejaVuSans-6e" transform="translate(1095.080078 0)"/>
      <use xlink:href="#DejaVuSans-3a" transform="translate(1158.458984 0)"/>
      <use xlink:href="#DejaVuSans-20" transform="translate(1192.150391 0)"/>
      <use xlink:href="#DejaVuSans-31" transform="translate(1223.9375 0)"/>
      <use xlink:href="#DejaVuSans-30" transform="translate(1287.560547 0)"/>
      <use xlink:href="#DejaVuSans-2e" transform="translate(1351.183594 0)"/>
      <use xlink:href="#DejaVuSans-34" transform="translate(1382.970703 0)"/>
      <use xlink:href="#DejaVuSans-38" transform="translate(1446.59375 0)"/>
      <use xlink:href="#DejaVuSans-31" transform="translate(1510.216797 0)"/>
      <use xlink:href="#DejaVuSans-6e" transform="translate(1573.839844 0)"/>
      <use xlink:href="#DejaVuSans-73" transform="translate(1637.21875 0)"/>
      <use xlink:href="#DejaVuSans-20" transform="translate(1689.318359 0)"/>
      <use xlink:href="#DejaVuSans-40" transform="translate(1721.105469 0)"/>
      <use xlink:href="#DejaVuSans-20" transform="translate(1821.105469 0)"/>
      <use xlink:href="#DejaVuSans-31" transform="translate(1852.892578 0)"/>
      <use xlink:href="#DejaVuSans-30" transform="translate(1916.515625 0)"/>
      <use xlink:href="#DejaVuSans-20" transform="translate(1980.138672 0)"/>
      <use xlink:href="#DejaVuSans-62" transform="translate(2011.925781 0)"/>
      <use xlink:href="#DejaVuSans-69" transform="translate(2075.402344 0)"/>
      <use xlink:href="#DejaVuSans-74" transform="translate(2103.185547 0)"/>
      <use xlink:href="#DejaVuSans-73" transform="translate(2142.394531 0)"/>
      <use xlink:href="#DejaVuSans-29" transform="translate(2194.494141 0)"/>
     </g>
    </g>
    <g id="line2d_28">
     <path d="M 612.63 234.757688 
L 632.63 234.757688 
" style="fill: none; stroke: #ff7f0e; stroke-width: 1.5; stroke-linecap: square"/>
    </g>
    <g id="line2d_29">
     <g>
      <use xlink:href="#mb5ee283a4b" x="622.63" y="234.757688" style="fill: #ff7f0e; stroke: #ff7f0e"/>
     </g>
    </g>
    <g id="text_34">
     <!-- BE::Table::merged (min: 10.454ns @ 2 bits) -->
     <g transform="translate(640.63 238.257688) scale(0.1 -0.1)">
      <defs>
       <path id="DejaVuSans-42" d="M 1259 2228 
L 1259 519 
L 2272 519 
Q 2781 519 3026 730 
Q 3272 941 3272 1375 
Q 3272 1813 3026 2020 
Q 2781 2228 2272 2228 
L 1259 2228 
z
M 1259 4147 
L 1259 2741 
L 2194 2741 
Q 2656 2741 2882 2914 
Q 3109 3088 3109 3444 
Q 3109 3797 2882 3972 
Q 2656 4147 2194 4147 
L 1259 4147 
z
M 628 4666 
L 2241 4666 
Q 2963 4666 3353 4366 
Q 3744 4066 3744 3513 
Q 3744 3084 3544 2831 
Q 3344 2578 2956 2516 
Q 3422 2416 3680 2098 
Q 3938 1781 3938 1306 
Q 3938 681 3513 340 
Q 3088 0 2303 0 
L 628 0 
L 628 4666 
z
" transform="scale(0.015625)"/>
      </defs>
      <use xlink:href="#DejaVuSans-42"/>
      <use xlink:href="#DejaVuSans-45" transform="translate(68.603516 0)"/>
      <use xlink:href="#DejaVuSans-3a" transform="translate(131.787109 0)"/>
      <use xlink:href="#DejaVuSans-3a" transform="translate(165.478516 0)"/>
      <use xlink:href="#DejaVuSans-54" transform="translate(199.169922 0)"/>
      <use xlink:href="#DejaVuSans-61" transform="translate(243.753906 0)"/>
      <use xlink:href="#DejaVuSans-62" transform="translate(305.033203 0)"/>
      <use xlink:href="#DejaVuSans-6c" transform="translate(368.509766 0)"/>
      <use xlink:href="#DejaVuSans-65" transform="translate(396.292969 0)"/>
      <use xlink:href="#DejaVuSans-3a" transform="translate(457.816406 0)"/>
      <use xlink:href="#DejaVuSans-3a" transform="translate(491.507812 0)"/>
      <use xlink:href="#DejaVuSans-6d" transform="translate(525.199219 0)"/>
      <use xlink:href="#DejaVuSans-65" transform="translate(622.611328 0)"/>
      <use xlink:href="#DejaVuSans-72" transform="translate(684.134766 0)"/>
      <use xlink:href="#DejaVuSans-67" transform="translate(723.498047 0)"/>
      <use xlink:href="#DejaVuSans-65" transform="translate(786.974609 0)"/>
      <use xlink:href="#DejaVuSans-64" transform="translate(848.498047 0)"/>
      <use xlink:href="#DejaVuSans-20" transform="translate(911.974609 0)"/>
      <use xlink:href="#DejaVuSans-28" transform="translate(943.761719 0)"/>
      <use xlink:href="#DejaVuSans-6d" transform="translate(982.775391 0)"/>
      <use xlink:href="#DejaVuSans-69" transform="translate(1080.1875 0)"/>
      <use xlink:href="#DejaVuSans-6e" transform="translate(1107.970703 0)"/>
      <use xlink:href="#DejaVuSans-3a" transform="translate(1171.349609 0)"/>
      <use xlink:href="#DejaVuSans-20" transform="translate(1205.041016 0)"/>
      <use xlink:href="#DejaVuSans-31" transform="translate(1236.828125 0)"/>
      <use xlink:href="#DejaVuSans-30" transform="translate(1300.451172 0)"/>
      <use xlink:href="#DejaVuSans-2e" transform="translate(1364.074219 0)"/>
      <use xlink:href="#DejaVuSans-34" transform="translate(1395.861328 0)"/>
      <use xlink:href="#DejaVuSans-35" transform="translate(1459.484375 0)"/>
      <use xlink:href="#DejaVuSans-34" transform="translate(1523.107422 0)"/>
      <use xlink:href="#DejaVuSans-6e" transform="translate(1586.730469 0)"/>
      <use xlink:href="#DejaVuSans-73" transform="translate(1650.109375 0)"/>
      <use xlink:href="#DejaVuSans-20" transform="translate(1702.208984 0)"/>
      <use xlink:href="#DejaVuSans-40" transform="translate(1733.996094 0)"/>
      <use xlink:href="#DejaVuSans-20" transform="translate(1833.996094 0)"/>
      <use xlink:href="#DejaVuSans-32" transform="translate(1865.783203 0)"/>
      <use xlink:href="#DejaVuSans-20" transform="translate(1929.40625 0)"/>
      <use xlink:href="#DejaVuSans-62" transform="translate(1961.193359 0)"/>
      <use xlink:href="#DejaVuSans-69" transform="translate(2024.669922 0)"/>
      <use xlink:href="#DejaVuSans-74" transform="translate(2052.453125 0)"/>
      <use xlink:href="#DejaVuSans-73" transform="translate(2091.662109 0)"/>
      <use xlink:href="#DejaVuSans-29" transform="translate(2143.761719 0)"/>
     </g>
    </g>
    <g id="line2d_30">
     <path d="M 612.63 249.435813 
L 632.63 249.435813 
" style="fill: none; stroke: #2ca02c; stroke-width: 1.5; stroke-linecap: square"/>
    </g>
    <g id="line2d_31">
     <g>
      <use xlink:href="#m1516c98018" x="622.63" y="249.435813" style="fill: #2ca02c; stroke: #2ca02c; stroke-linejoin: miter"/>
     </g>
    </g>
    <g id="text_35">
     <!-- LE::Table::sep (min: 10.322ns @ 2 bits) -->
     <g transform="translate(640.63 252.935813) scale(0.1 -0.1)">
      <use xlink:href="#DejaVuSans-4c"/>
      <use xlink:href="#DejaVuSans-45" transform="translate(55.712891 0)"/>
      <use xlink:href="#DejaVuSans-3a" transform="translate(118.896484 0)"/>
      <use xlink:href="#DejaVuSans-3a" transform="translate(152.587891 0)"/>
      <use xlink:href="#DejaVuSans-54" transform="translate(186.279297 0)"/>
      <use xlink:href="#DejaVuSans-61" transform="translate(230.863281 0)"/>
      <use xlink:href="#DejaVuSans-62" transform="translate(292.142578 0)"/>
      <use xlink:href="#DejaVuSans-6c" transform="translate(355.619141 0)"/>
      <use xlink:href="#DejaVuSans-65" transform="translate(383.402344 0)"/>
      <use xlink:href="#DejaVuSans-3a" transform="translate(444.925781 0)"/>
      <use xlink:href="#DejaVuSans-3a" transform="translate(478.617188 0)"/>
      <use xlink:href="#DejaVuSans-73" transform="translate(512.308594 0)"/>
      <use xlink:href="#DejaVuSans-65" transform="translate(564.408203 0)"/>
      <use xlink:href="#DejaVuSans-70" transform="translate(625.931641 0)"/>
      <use xlink:href="#DejaVuSans-20" transform="translate(689.408203 0)"/>
      <use xlink:href="#DejaVuSans-28" transform="translate(721.195312 0)"/>
      <use xlink:href="#DejaVuSans-6d" transform="translate(760.208984 0)"/>
      <use xlink:href="#DejaVuSans-69" transform="translate(857.621094 0)"/>
      <use xlink:href="#DejaVuSans-6e" transform="translate(885.404297 0)"/>
      <use xlink:href="#DejaVuSans-3a" transform="translate(948.783203 0)"/>
      <use xlink:href="#DejaVuSans-20" transform="translate(982.474609 0)"/>
      <use xlink:href="#DejaVuSans-31" transform="translate(1014.261719 0)"/>
      <use xlink:href="#DejaVuSans-30" transform="translate(1077.884766 0)"/>
      <use xlink:href="#DejaVuSans-2e" transform="translate(1141.507812 0)"/>
      <use xlink:href="#DejaVuSans-33" transform="translate(1173.294922 0)"/>
      <use xlink:href="#DejaVuSans-32" transform="translate(1236.917969 0)"/>
      <use xlink:href="#DejaVuSans-32" transform="translate(1300.541016 0)"/>
      <use xlink:href="#DejaVuSans-6e" transform="translate(1364.164062 0)"/>
      <use xlink:href="#DejaVuSans-73" transform="translate(1427.542969 0)"/>
      <use xlink:href="#DejaVuSans-20" transform="translate(1479.642578 0)"/>
      <use xlink:href="#DejaVuSans-40" transform="translate(1511.429688 0)"/>
      <use xlink:href="#DejaVuSans-20" transform="translate(1611.429688 0)"/>
      <use xlink:href="#DejaVuSans-32" transform="translate(1643.216797 0)"/>
      <use xlink:href="#DejaVuSans-20" transform="translate(1706.839844 0)"/>
      <use xlink:href="#DejaVuSans-62" transform="translate(1738.626953 0)"/>
      <use xlink:href="#DejaVuSans-69" transform="translate(1802.103516 0)"/>
      <use xlink:href="#DejaVuSans-74" transform="translate(1829.886719 0)"/>
      <use xlink:href="#DejaVuSans-73" transform="translate(1869.095703 0)"/>
      <use xlink:href="#DejaVuSans-29" transform="translate(1921.195312 0)"/>
     </g>
    </g>
    <g id="line2d_32">
     <path d="M 612.63 264.113938 
L 632.63 264.113938 
" style="fill: none; stroke: #d62728; stroke-width: 1.5; stroke-linecap: square"/>
    </g>
    <g id="line2d_33">
     <g>
      <use xlink:href="#m1e9f98db12" x="622.63" y="264.113938" style="fill: #d62728; stroke: #d62728; stroke-linejoin: miter"/>
     </g>
    </g>
    <g id="text_36">
     <!-- BE::Table::sep (min: 10.509ns @ 1 bits) -->
     <g transform="translate(640.63 267.613938) scale(0.1 -0.1)">
      <use xlink:href="#DejaVuSans-42"/>
      <use xlink:href="#DejaVuSans-45" transform="translate(68.603516 0)"/>
      <use xlink:href="#DejaVuSans-3a" transform="translate(131.787109 0)"/>
      <use xlink:href="#DejaVuSans-3a" transform="translate(165.478516 0)"/>
      <use xlink:href="#DejaVuSans-54" transform="translate(199.169922 0)"/>
      <use xlink:href="#DejaVuSans-61" transform="translate(243.753906 0)"/>
      <use xlink:href="#DejaVuSans-62" transform="translate(305.033203 0)"/>
      <use xlink:href="#DejaVuSans-6c" transform="translate(368.509766 0)"/>
      <use xlink:href="#DejaVuSans-65" transform="translate(396.292969 0)"/>
      <use xlink:href="#DejaVuSans-3a" transform="translate(457.816406 0)"/>
      <use xlink:href="#DejaVuSans-3a" transform="translate(491.507812 0)"/>
      <use xlink:href="#DejaVuSans-73" transform="translate(525.199219 0)"/>
      <use xlink:href="#DejaVuSans-65" transform="translate(577.298828 0)"/>
      <use xlink:href="#DejaVuSans-70" transform="translate(638.822266 0)"/>
      <use xlink:href="#DejaVuSans-20" transform="translate(702.298828 0)"/>
      <use xlink:href="#DejaVuSans-28" transform="translate(734.085938 0)"/>
      <use xlink:href="#DejaVuSans-6d" transform="translate(773.099609 0)"/>
      <use xlink:href="#DejaVuSans-69" transform="translate(870.511719 0)"/>
      <use xlink:href="#DejaVuSans-6e" transform="translate(898.294922 0)"/>
      <use xlink:href="#DejaVuSans-3a" transform="translate(961.673828 0)"/>
      <use xlink:href="#DejaVuSans-20" transform="translate(995.365234 0)"/>
      <use xlink:href="#DejaVuSans-31" transform="translate(1027.152344 0)"/>
      <use xlink:href="#DejaVuSans-30" transform="translate(1090.775391 0)"/>
      <use xlink:href="#DejaVuSans-2e" transform="translate(1154.398438 0)"/>
      <use xlink:href="#DejaVuSans-35" transform="translate(1186.185547 0)"/>
      <use xlink:href="#DejaVuSans-30" transform="translate(1249.808594 0)"/>
      <use xlink:href="#DejaVuSans-39" transform="translate(1313.431641 0)"/>
      <use xlink:href="#DejaVuSans-6e" transform="translate(1377.054688 0)"/>
      <use xlink:href="#DejaVuSans-73" transform="translate(1440.433594 0)"/>
      <use xlink:href="#DejaVuSans-20" transform="translate(1492.533203 0)"/>
      <use xlink:href="#DejaVuSans-40" transform="translate(1524.320312 0)"/>
      <use xlink:href="#DejaVuSans-20" transform="translate(1624.320312 0)"/>
      <use xlink:href="#DejaVuSans-31" transform="translate(1656.107422 0)"/>
      <use xlink:href="#DejaVuSans-20" transform="translate(1719.730469 0)"/>
      <use xlink:href="#DejaVuSans-62" transform="translate(1751.517578 0)"/>
      <use xlink:href="#DejaVuSans-69" transform="translate(1814.994141 0)"/>
      <use xlink:href="#DejaVuSans-74" transform="translate(1842.777344 0)"/>
      <use xlink:href="#DejaVuSans-73" transform="translate(1881.986328 0)"/>
      <use xlink:href="#DejaVuSans-29" transform="translate(1934.085938 0)"/>
     </g>
    </g>
    <g id="line2d_34">
     <path d="M 612.63 278.792063 
L 632.63 278.792063 
" style="fill: none; stroke: #9467bd; stroke-width: 1.5; stroke-linecap: square"/>
    </g>
    <g id="line2d_35">
     <g>
      <use xlink:href="#ma02088c180" x="622.63" y="278.792063" style="fill: #9467bd; stroke: #9467bd; stroke-linejoin: miter"/>
     </g>
    </g>
    <g id="text_37">
     <!-- LE::NoTable (min: 24.543ns) -->
     <g transform="translate(640.63 282.292063) scale(0.1 -0.1)">
      <defs>
       <path id="DejaVuSans-4e" d="M 628 4666 
L 1478 4666 
L 3547 763 
L 3547 4666 
L 4159 4666 
L 4159 0 
L 3309 0 
L 1241 3903 
L 1241 0 
L 628 0 
L 628 4666 
z
" transform="scale(0.015625)"/>
      </defs>
      <use xlink:href="#DejaVuSans-4c"/>
      <use xlink:href="#DejaVuSans-45" transform="translate(55.712891 0)"/>
      <use xlink:href="#DejaVuSans-3a" transform="translate(118.896484 0)"/>
      <use xlink:href="#DejaVuSans-3a" transform="translate(152.587891 0)"/>
      <use xlink:href="#DejaVuSans-4e" transform="translate(186.279297 0)"/>
      <use xlink:href="#DejaVuSans-6f" transform="translate(261.083984 0)"/>
      <use xlink:href="#DejaVuSans-54" transform="translate(322.265625 0)"/>
      <use xlink:href="#DejaVuSans-61" transform="translate(366.849609 0)"/>
      <use xlink:href="#DejaVuSans-62" transform="translate(428.128906 0)"/>
      <use xlink:href="#DejaVuSans-6c" transform="translate(491.605469 0)"/>
      <use xlink:href="#DejaVuSans-65" transform="translate(519.388672 0)"/>
      <use xlink:href="#DejaVuSans-20" transform="translate(580.912109 0)"/>
      <use xlink:href="#DejaVuSans-28" transform="translate(612.699219 0)"/>
      <use xlink:href="#DejaVuSans-6d" transform="translate(651.712891 0)"/>
      <use xlink:href="#DejaVuSans-69" transform="translate(749.125 0)"/>
      <use xlink:href="#DejaVuSans-6e" transform="translate(776.908203 0)"/>
      <use xlink:href="#DejaVuSans-3a" transform="translate(840.287109 0)"/>
      <use xlink:href="#DejaVuSans-20" transform="translate(873.978516 0)"/>
      <use xlink:href="#DejaVuSans-32" transform="translate(905.765625 0)"/>
      <use xlink:href="#DejaVuSans-34" transform="translate(969.388672 0)"/>
      <use xlink:href="#DejaVuSans-2e" transform="translate(1033.011719 0)"/>
      <use xlink:href="#DejaVuSans-35" transform="translate(1064.798828 0)"/>
      <use xlink:href="#DejaVuSans-34" transform="translate(1128.421875 0)"/>
      <use xlink:href="#DejaVuSans-33" transform="translate(1192.044922 0)"/>
      <use xlink:href="#DejaVuSans-6e" transform="translate(1255.667969 0)"/>
      <use xlink:href="#DejaVuSans-73" transform="translate(1319.046875 0)"/>
      <use xlink:href="#DejaVuSans-29" transform="translate(1371.146484 0)"/>
     </g>
    </g>
    <g id="line2d_36">
     <path d="M 612.63 293.470188 
L 632.63 293.470188 
" style="fill: none; stroke: #8c564b; stroke-width: 1.5; stroke-linecap: square"/>
    </g>
    <g id="line2d_37">
     <g>
      <use xlink:href="#m6b34e6240a" x="622.63" y="293.470188" style="fill: #8c564b; stroke: #8c564b; stroke-linejoin: miter"/>
     </g>
    </g>
    <g id="text_38">
     <!-- BE::NoTable (min: 24.445ns) -->
     <g transform="translate(640.63 296.970188) scale(0.1 -0.1)">
      <use xlink:href="#DejaVuSans-42"/>
      <use xlink:href="#DejaVuSans-45" transform="translate(68.603516 0)"/>
      <use xlink:href="#DejaVuSans-3a" transform="translate(131.787109 0)"/>
      <use xlink:href="#DejaVuSans-3a" transform="translate(165.478516 0)"/>
      <use xlink:href="#DejaVuSans-4e" transform="translate(199.169922 0)"/>
      <use xlink:href="#DejaVuSans-6f" transform="translate(273.974609 0)"/>
      <use xlink:href="#DejaVuSans-54" transform="translate(335.15625 0)"/>
      <use xlink:href="#DejaVuSans-61" transform="translate(379.740234 0)"/>
      <use xlink:href="#DejaVuSans-62" transform="translate(441.019531 0)"/>
      <use xlink:href="#DejaVuSans-6c" transform="translate(504.496094 0)"/>
      <use xlink:href="#DejaVuSans-65" transform="translate(532.279297 0)"/>
      <use xlink:href="#DejaVuSans-20" transform="translate(593.802734 0)"/>
      <use xlink:href="#DejaVuSans-28" transform="translate(625.589844 0)"/>
      <use xlink:href="#DejaVuSans-6d" transform="translate(664.603516 0)"/>
      <use xlink:href="#DejaVuSans-69" transform="translate(762.015625 0)"/>
      <use xlink:href="#DejaVuSans-6e" transform="translate(789.798828 0)"/>
      <use xlink:href="#DejaVuSans-3a" transform="translate(853.177734 0)"/>
      <use xlink:href="#DejaVuSans-20" transform="translate(886.869141 0)"/>
      <use xlink:href="#DejaVuSans-32" transform="translate(918.65625 0)"/>
      <use xlink:href="#DejaVuSans-34" transform="translate(982.279297 0)"/>
      <use xlink:href="#DejaVuSans-2e" transform="translate(1045.902344 0)"/>
      <use xlink:href="#DejaVuSans-34" transform="translate(1077.689453 0)"/>
      <use xlink:href="#DejaVuSans-34" transform="translate(1141.3125 0)"/>
      <use xlink:href="#DejaVuSans-35" transform="translate(1204.935547 0)"/>
      <use xlink:href="#DejaVuSans-6e" transform="translate(1268.558594 0)"/>
      <use xlink:href="#DejaVuSans-73" transform="translate(1331.9375 0)"/>
      <use xlink:href="#DejaVuSans-29" transform="translate(1384.037109 0)"/>
     </g>
    </g>
    <g id="patch_19">
     <path d="M 612.63 311.648313 
L 632.63 311.648313 
L 632.63 304.648313 
L 612.63 304.648313 
z
" style="fill: #0000ff; fill-opacity: 0.3; stroke: #000000; stroke-linejoin: miter"/>
    </g>
    <g id="text_39">
     <!-- table hit ratio -->
     <g transform="translate(640.63 311.648313) scale(0.1 -0.1)">
      <use xlink:href="#DejaVuSans-74"/>
      <use xlink:href="#DejaVuSans-61" transform="translate(39.208984 0)"/>
      <use xlink:href="#DejaVuSans-62" transform="translate(100.488281 0)"/>
      <use xlink:href="#DejaVuSans-6c" transform="translate(163.964844 0)"/>
      <use xlink:href="#DejaVuSans-65" transform="translate(191.748047 0)"/>
      <use xlink:href="#DejaVuSans-20" transform="translate(253.271484 0)"/>
      <use xlink:href="#DejaVuSans-68" transform="translate(285.058594 0)"/>
      <use xlink:href="#DejaVuSans-69" transform="translate(348.4375 0)"/>
      <use xlink:href="#DejaVuSans-74" transform="translate(376.220703 0)"/>
      <use xlink:href="#DejaVuSans-20" transform="translate(415.429688 0)"/>
      <use xlink:href="#DejaVuSans-72" transform="translate(447.216797 0)"/>
      <use xlink:href="#DejaVuSans-61" transform="translate(488.330078 0)"/>
      <use xlink:href="#DejaVuSans-74" transform="translate(549.609375 0)"/>
      <use xlink:href="#DejaVuSans-69" transform="translate(588.818359 0)"/>
      <use xlink:href="#DejaVuSans-6f" transform="translate(616.601562 0)"/>
     </g>
    </g>
   </g>
  </g>
 </g>
 <defs>
  <clipPath id="p7765c92adc">
   <rect x="45.63" y="35.7555" width="558" height="443.52"/>
  </clipPath>
 </defs>
</svg>
