<?xml version="1.0" encoding="utf-8" standalone="no"?>
<!DOCTYPE svg PUBLIC "-//W3C//DTD SVG 1.1//EN"
  "http://www.w3.org/Graphics/SVG/1.1/DTD/svg11.dtd">
<svg xmlns:xlink="http://www.w3.org/1999/xlink" width="1072.343125pt" height="568.971196pt" viewBox="0 0 1072.343125 568.971196" xmlns="http://www.w3.org/2000/svg" version="1.1">
 <metadata>
  <rdf:RDF xmlns:dc="http://purl.org/dc/elements/1.1/" xmlns:cc="http://creativecommons.org/ns#" xmlns:rdf="http://www.w3.org/1999/02/22-rdf-syntax-ns#">
   <cc:Work>
    <dc:type rdf:resource="http://purl.org/dc/dcmitype/StillImage"/>
    <dc:date>2025-10-08T22:27:45.567857</dc:date>
    <dc:format>image/svg+xml</dc:format>
    <dc:creator>
     <cc:Agent>
      <dc:title>Matplotlib v3.10.3, https://matplotlib.org/</dc:title>
     </cc:Agent>
    </dc:creator>
   </cc:Work>
  </rdf:RDF>
 </metadata>
 <defs>
  <style type="text/css">*{stroke-linejoin: round; stroke-linecap: butt}</style>
 </defs>
 <g id="figure_1">
  <g id="patch_1">
   <path d="M 0 568.971196 
L 1072.343125 568.971196 
L 1072.343125 0 
L 0 0 
z
" style="fill: #ffffff"/>
  </g>
  <g id="axes_1">
   <g id="patch_2">
    <path d="M 40.603125 496.776287 
L 1065.143125 496.776287 
L 1065.143125 22.318125 
L 40.603125 22.318125 
z
" style="fill: #ffffff"/>
   </g>
   <g id="matplotlib.axis_1">
    <g id="xtick_1">
     <g id="line2d_1">
      <defs>
       <path id="m4856f0a934" d="M 0 0 
L 0 3.5 
" style="stroke: #000000; stroke-width: 0.8"/>
      </defs>
      <g>
       <use xlink:href="#m4856f0a934" x="99.382488" y="496.776287" style="stroke: #000000; stroke-width: 0.8"/>
      </g>
     </g>
     <g id="text_1">
      <!-- delta -->
      <g transform="translate(80.002238 527.058883) rotate(-45) scale(0.1 -0.1)">
       <defs>
        <path id="DejaVuSans-64" d="M 2906 2969 
L 2906 4863 
L 3481 4863 
L 3481 0 
L 2906 0 
L 2906 525 
Q 2725 213 2448 61 
Q 2172 -91 1784 -91 
Q 1150 -91 751 415 
Q 353 922 353 1747 
Q 353 2572 751 3078 
Q 1150 3584 1784 3584 
Q 2172 3584 2448 3432 
Q 2725 3281 2906 2969 
z
M 947 1747 
Q 947 1113 1208 752 
Q 1469 391 1925 391 
Q 2381 391 2643 752 
Q 2906 1113 2906 1747 
Q 2906 2381 2643 2742 
Q 2381 3103 1925 3103 
Q 1469 3103 1208 2742 
Q 947 2381 947 1747 
z
" transform="scale(0.015625)"/>
        <path id="DejaVuSans-65" d="M 3597 1894 
L 3597 1613 
L 953 1613 
Q 991 1019 1311 708 
Q 1631 397 2203 397 
Q 2534 397 2845 478 
Q 3156 559 3463 722 
L 3463 178 
Q 3153 47 2828 -22 
Q 2503 -91 2169 -91 
Q 1331 -91 842 396 
Q 353 884 353 1716 
Q 353 2575 817 3079 
Q 1281 3584 2069 3584 
Q 2775 3584 3186 3129 
Q 3597 2675 3597 1894 
z
M 3022 2063 
Q 3016 2534 2758 2815 
Q 2500 3097 2075 3097 
Q 1594 3097 1305 2825 
Q 1016 2553 972 2059 
L 3022 2063 
z
" transform="scale(0.015625)"/>
        <path id="DejaVuSans-6c" d="M 603 4863 
L 1178 4863 
L 1178 0 
L 603 0 
L 603 4863 
z
" transform="scale(0.015625)"/>
        <path id="DejaVuSans-74" d="M 1172 4494 
L 1172 3500 
L 2356 3500 
L 2356 3053 
L 1172 3053 
L 1172 1153 
Q 1172 725 1289 603 
Q 1406 481 1766 481 
L 2356 481 
L 2356 0 
L 1766 0 
Q 1100 0 847 248 
Q 594 497 594 1153 
L 594 3053 
L 172 3053 
L 172 3500 
L 594 3500 
L 594 4494 
L 1172 4494 
z
" transform="scale(0.015625)"/>
        <path id="DejaVuSans-61" d="M 2194 1759 
Q 1497 1759 1228 1600 
Q 959 1441 959 1056 
Q 959 750 1161 570 
Q 1363 391 1709 391 
Q 2188 391 2477 730 
Q 2766 1069 2766 1631 
L 2766 1759 
L 2194 1759 
z
M 3341 1997 
L 3341 0 
L 2766 0 
L 2766 531 
Q 2569 213 2275 61 
Q 1981 -91 1556 -91 
Q 1019 -91 701 211 
Q 384 513 384 1019 
Q 384 1609 779 1909 
Q 1175 2209 1959 2209 
L 2766 2209 
L 2766 2266 
Q 2766 2663 2505 2880 
Q 2244 3097 1772 3097 
Q 1472 3097 1187 3025 
Q 903 2953 641 2809 
L 641 3341 
Q 956 3463 1253 3523 
Q 1550 3584 1831 3584 
Q 2591 3584 2966 3190 
Q 3341 2797 3341 1997 
z
" transform="scale(0.015625)"/>
       </defs>
       <use xlink:href="#DejaVuSans-64"/>
       <use xlink:href="#DejaVuSans-65" transform="translate(63.476562 0)"/>
       <use xlink:href="#DejaVuSans-6c" transform="translate(125 0)"/>
       <use xlink:href="#DejaVuSans-74" transform="translate(152.783203 0)"/>
       <use xlink:href="#DejaVuSans-61" transform="translate(191.992188 0)"/>
      </g>
     </g>
    </g>
    <g id="xtick_2">
     <g id="line2d_2">
      <g>
       <use xlink:href="#m4856f0a934" x="169.150279" y="496.776287" style="stroke: #000000; stroke-width: 0.8"/>
      </g>
     </g>
     <g id="text_2">
      <!-- pi_4 -->
      <g transform="translate(152.995098 523.637149) rotate(-45) scale(0.1 -0.1)">
       <defs>
        <path id="DejaVuSans-70" d="M 1159 525 
L 1159 -1331 
L 581 -1331 
L 581 3500 
L 1159 3500 
L 1159 2969 
Q 1341 3281 1617 3432 
Q 1894 3584 2278 3584 
Q 2916 3584 3314 3078 
Q 3713 2572 3713 1747 
Q 3713 922 3314 415 
Q 2916 -91 2278 -91 
Q 1894 -91 1617 61 
Q 1341 213 1159 525 
z
M 3116 1747 
Q 3116 2381 2855 2742 
Q 2594 3103 2138 3103 
Q 1681 3103 1420 2742 
Q 1159 2381 1159 1747 
Q 1159 1113 1420 752 
Q 1681 391 2138 391 
Q 2594 391 2855 752 
Q 3116 1113 3116 1747 
z
" transform="scale(0.015625)"/>
        <path id="DejaVuSans-69" d="M 603 3500 
L 1178 3500 
L 1178 0 
L 603 0 
L 603 3500 
z
M 603 4863 
L 1178 4863 
L 1178 4134 
L 603 4134 
L 603 4863 
z
" transform="scale(0.015625)"/>
        <path id="DejaVuSans-5f" d="M 3263 -1063 
L 3263 -1509 
L -63 -1509 
L -63 -1063 
L 3263 -1063 
z
" transform="scale(0.015625)"/>
        <path id="DejaVuSans-34" d="M 2419 4116 
L 825 1625 
L 2419 1625 
L 2419 4116 
z
M 2253 4666 
L 3047 4666 
L 3047 1625 
L 3713 1625 
L 3713 1100 
L 3047 1100 
L 3047 0 
L 2419 0 
L 2419 1100 
L 313 1100 
L 313 1709 
L 2253 4666 
z
" transform="scale(0.015625)"/>
       </defs>
       <use xlink:href="#DejaVuSans-70"/>
       <use xlink:href="#DejaVuSans-69" transform="translate(63.476562 0)"/>
       <use xlink:href="#DejaVuSans-5f" transform="translate(91.259766 0)"/>
       <use xlink:href="#DejaVuSans-34" transform="translate(141.259766 0)"/>
      </g>
     </g>
    </g>
    <g id="xtick_3">
     <g id="line2d_3">
      <g>
       <use xlink:href="#m4856f0a934" x="238.918069" y="496.776287" style="stroke: #000000; stroke-width: 0.8"/>
      </g>
     </g>
     <g id="text_3">
      <!-- pi_3 -->
      <g transform="translate(222.762889 523.637149) rotate(-45) scale(0.1 -0.1)">
       <defs>
        <path id="DejaVuSans-33" d="M 2597 2516 
Q 3050 2419 3304 2112 
Q 3559 1806 3559 1356 
Q 3559 666 3084 287 
Q 2609 -91 1734 -91 
Q 1441 -91 1130 -33 
Q 819 25 488 141 
L 488 750 
Q 750 597 1062 519 
Q 1375 441 1716 441 
Q 2309 441 2620 675 
Q 2931 909 2931 1356 
Q 2931 1769 2642 2001 
Q 2353 2234 1838 2234 
L 1294 2234 
L 1294 2753 
L 1863 2753 
Q 2328 2753 2575 2939 
Q 2822 3125 2822 3475 
Q 2822 3834 2567 4026 
Q 2313 4219 1838 4219 
Q 1578 4219 1281 4162 
Q 984 4106 628 3988 
L 628 4550 
Q 988 4650 1302 4700 
Q 1616 4750 1894 4750 
Q 2613 4750 3031 4423 
Q 3450 4097 3450 3541 
Q 3450 3153 3228 2886 
Q 3006 2619 2597 2516 
z
" transform="scale(0.015625)"/>
       </defs>
       <use xlink:href="#DejaVuSans-70"/>
       <use xlink:href="#DejaVuSans-69" transform="translate(63.476562 0)"/>
       <use xlink:href="#DejaVuSans-5f" transform="translate(91.259766 0)"/>
       <use xlink:href="#DejaVuSans-33" transform="translate(141.259766 0)"/>
      </g>
     </g>
    </g>
    <g id="xtick_4">
     <g id="line2d_4">
      <g>
       <use xlink:href="#m4856f0a934" x="308.685859" y="496.776287" style="stroke: #000000; stroke-width: 0.8"/>
      </g>
     </g>
     <g id="text_4">
      <!-- pi_2 -->
      <g transform="translate(292.530679 523.637149) rotate(-45) scale(0.1 -0.1)">
       <defs>
        <path id="DejaVuSans-32" d="M 1228 531 
L 3431 531 
L 3431 0 
L 469 0 
L 469 531 
Q 828 903 1448 1529 
Q 2069 2156 2228 2338 
Q 2531 2678 2651 2914 
Q 2772 3150 2772 3378 
Q 2772 3750 2511 3984 
Q 2250 4219 1831 4219 
Q 1534 4219 1204 4116 
Q 875 4013 500 3803 
L 500 4441 
Q 881 4594 1212 4672 
Q 1544 4750 1819 4750 
Q 2544 4750 2975 4387 
Q 3406 4025 3406 3419 
Q 3406 3131 3298 2873 
Q 3191 2616 2906 2266 
Q 2828 2175 2409 1742 
Q 1991 1309 1228 531 
z
" transform="scale(0.015625)"/>
       </defs>
       <use xlink:href="#DejaVuSans-70"/>
       <use xlink:href="#DejaVuSans-69" transform="translate(63.476562 0)"/>
       <use xlink:href="#DejaVuSans-5f" transform="translate(91.259766 0)"/>
       <use xlink:href="#DejaVuSans-32" transform="translate(141.259766 0)"/>
      </g>
     </g>
    </g>
    <g id="xtick_5">
     <g id="line2d_5">
      <g>
       <use xlink:href="#m4856f0a934" x="378.453649" y="496.776287" style="stroke: #000000; stroke-width: 0.8"/>
      </g>
     </g>
     <g id="text_5">
      <!-- gamma -->
      <g transform="translate(350.052264 536.080018) rotate(-45) scale(0.1 -0.1)">
       <defs>
        <path id="DejaVuSans-67" d="M 2906 1791 
Q 2906 2416 2648 2759 
Q 2391 3103 1925 3103 
Q 1463 3103 1205 2759 
Q 947 2416 947 1791 
Q 947 1169 1205 825 
Q 1463 481 1925 481 
Q 2391 481 2648 825 
Q 2906 1169 2906 1791 
z
M 3481 434 
Q 3481 -459 3084 -895 
Q 2688 -1331 1869 -1331 
Q 1566 -1331 1297 -1286 
Q 1028 -1241 775 -1147 
L 775 -588 
Q 1028 -725 1275 -790 
Q 1522 -856 1778 -856 
Q 2344 -856 2625 -561 
Q 2906 -266 2906 331 
L 2906 616 
Q 2728 306 2450 153 
Q 2172 0 1784 0 
Q 1141 0 747 490 
Q 353 981 353 1791 
Q 353 2603 747 3093 
Q 1141 3584 1784 3584 
Q 2172 3584 2450 3431 
Q 2728 3278 2906 2969 
L 2906 3500 
L 3481 3500 
L 3481 434 
z
" transform="scale(0.015625)"/>
        <path id="DejaVuSans-6d" d="M 3328 2828 
Q 3544 3216 3844 3400 
Q 4144 3584 4550 3584 
Q 5097 3584 5394 3201 
Q 5691 2819 5691 2113 
L 5691 0 
L 5113 0 
L 5113 2094 
Q 5113 2597 4934 2840 
Q 4756 3084 4391 3084 
Q 3944 3084 3684 2787 
Q 3425 2491 3425 1978 
L 3425 0 
L 2847 0 
L 2847 2094 
Q 2847 2600 2669 2842 
Q 2491 3084 2119 3084 
Q 1678 3084 1418 2786 
Q 1159 2488 1159 1978 
L 1159 0 
L 581 0 
L 581 3500 
L 1159 3500 
L 1159 2956 
Q 1356 3278 1631 3431 
Q 1906 3584 2284 3584 
Q 2666 3584 2933 3390 
Q 3200 3197 3328 2828 
z
" transform="scale(0.015625)"/>
       </defs>
       <use xlink:href="#DejaVuSans-67"/>
       <use xlink:href="#DejaVuSans-61" transform="translate(63.476562 0)"/>
       <use xlink:href="#DejaVuSans-6d" transform="translate(124.755859 0)"/>
       <use xlink:href="#DejaVuSans-6d" transform="translate(222.167969 0)"/>
       <use xlink:href="#DejaVuSans-61" transform="translate(319.580078 0)"/>
      </g>
     </g>
    </g>
    <g id="xtick_6">
     <g id="line2d_6">
      <g>
       <use xlink:href="#m4856f0a934" x="448.22144" y="496.776287" style="stroke: #000000; stroke-width: 0.8"/>
      </g>
     </g>
     <g id="text_6">
      <!-- omega -->
      <g transform="translate(422.363429 533.536644) rotate(-45) scale(0.1 -0.1)">
       <defs>
        <path id="DejaVuSans-6f" d="M 1959 3097 
Q 1497 3097 1228 2736 
Q 959 2375 959 1747 
Q 959 1119 1226 758 
Q 1494 397 1959 397 
Q 2419 397 2687 759 
Q 2956 1122 2956 1747 
Q 2956 2369 2687 2733 
Q 2419 3097 1959 3097 
z
M 1959 3584 
Q 2709 3584 3137 3096 
Q 3566 2609 3566 1747 
Q 3566 888 3137 398 
Q 2709 -91 1959 -91 
Q 1206 -91 779 398 
Q 353 888 353 1747 
Q 353 2609 779 3096 
Q 1206 3584 1959 3584 
z
" transform="scale(0.015625)"/>
       </defs>
       <use xlink:href="#DejaVuSans-6f"/>
       <use xlink:href="#DejaVuSans-6d" transform="translate(61.181641 0)"/>
       <use xlink:href="#DejaVuSans-65" transform="translate(158.59375 0)"/>
       <use xlink:href="#DejaVuSans-67" transform="translate(220.117188 0)"/>
       <use xlink:href="#DejaVuSans-61" transform="translate(283.59375 0)"/>
      </g>
     </g>
    </g>
    <g id="xtick_7">
     <g id="line2d_7">
      <g>
       <use xlink:href="#m4856f0a934" x="517.98923" y="496.776287" style="stroke: #000000; stroke-width: 0.8"/>
      </g>
     </g>
     <g id="text_7">
      <!-- vbyte_le -->
      <g transform="translate(486.488728 538.982471) rotate(-45) scale(0.1 -0.1)">
       <defs>
        <path id="DejaVuSans-76" d="M 191 3500 
L 800 3500 
L 1894 563 
L 2988 3500 
L 3597 3500 
L 2284 0 
L 1503 0 
L 191 3500 
z
" transform="scale(0.015625)"/>
        <path id="DejaVuSans-62" d="M 3116 1747 
Q 3116 2381 2855 2742 
Q 2594 3103 2138 3103 
Q 1681 3103 1420 2742 
Q 1159 2381 1159 1747 
Q 1159 1113 1420 752 
Q 1681 391 2138 391 
Q 2594 391 2855 752 
Q 3116 1113 3116 1747 
z
M 1159 2969 
Q 1341 3281 1617 3432 
Q 1894 3584 2278 3584 
Q 2916 3584 3314 3078 
Q 3713 2572 3713 1747 
Q 3713 922 3314 415 
Q 2916 -91 2278 -91 
Q 1894 -91 1617 61 
Q 1341 213 1159 525 
L 1159 0 
L 581 0 
L 581 4863 
L 1159 4863 
L 1159 2969 
z
" transform="scale(0.015625)"/>
        <path id="DejaVuSans-79" d="M 2059 -325 
Q 1816 -950 1584 -1140 
Q 1353 -1331 966 -1331 
L 506 -1331 
L 506 -850 
L 844 -850 
Q 1081 -850 1212 -737 
Q 1344 -625 1503 -206 
L 1606 56 
L 191 3500 
L 800 3500 
L 1894 763 
L 2988 3500 
L 3597 3500 
L 2059 -325 
z
" transform="scale(0.015625)"/>
       </defs>
       <use xlink:href="#DejaVuSans-76"/>
       <use xlink:href="#DejaVuSans-62" transform="translate(59.179688 0)"/>
       <use xlink:href="#DejaVuSans-79" transform="translate(122.65625 0)"/>
       <use xlink:href="#DejaVuSans-74" transform="translate(181.835938 0)"/>
       <use xlink:href="#DejaVuSans-65" transform="translate(221.044922 0)"/>
       <use xlink:href="#DejaVuSans-5f" transform="translate(282.568359 0)"/>
       <use xlink:href="#DejaVuSans-6c" transform="translate(332.568359 0)"/>
       <use xlink:href="#DejaVuSans-65" transform="translate(360.351562 0)"/>
      </g>
     </g>
    </g>
    <g id="xtick_8">
     <g id="line2d_8">
      <g>
       <use xlink:href="#m4856f0a934" x="587.75702" y="496.776287" style="stroke: #000000; stroke-width: 0.8"/>
      </g>
     </g>
     <g id="text_8">
      <!-- vbyte_be -->
      <g transform="translate(553.731926 541.507063) rotate(-45) scale(0.1 -0.1)">
       <use xlink:href="#DejaVuSans-76"/>
       <use xlink:href="#DejaVuSans-62" transform="translate(59.179688 0)"/>
       <use xlink:href="#DejaVuSans-79" transform="translate(122.65625 0)"/>
       <use xlink:href="#DejaVuSans-74" transform="translate(181.835938 0)"/>
       <use xlink:href="#DejaVuSans-65" transform="translate(221.044922 0)"/>
       <use xlink:href="#DejaVuSans-5f" transform="translate(282.568359 0)"/>
       <use xlink:href="#DejaVuSans-62" transform="translate(332.568359 0)"/>
       <use xlink:href="#DejaVuSans-65" transform="translate(396.044922 0)"/>
      </g>
     </g>
    </g>
    <g id="xtick_9">
     <g id="line2d_9">
      <g>
       <use xlink:href="#m4856f0a934" x="657.52481" y="496.776287" style="stroke: #000000; stroke-width: 0.8"/>
      </g>
     </g>
     <g id="text_9">
      <!-- exp_golomb_3 -->
      <g transform="translate(604.902808 560.103971) rotate(-45) scale(0.1 -0.1)">
       <defs>
        <path id="DejaVuSans-78" d="M 3513 3500 
L 2247 1797 
L 3578 0 
L 2900 0 
L 1881 1375 
L 863 0 
L 184 0 
L 1544 1831 
L 300 3500 
L 978 3500 
L 1906 2253 
L 2834 3500 
L 3513 3500 
z
" transform="scale(0.015625)"/>
       </defs>
       <use xlink:href="#DejaVuSans-65"/>
       <use xlink:href="#DejaVuSans-78" transform="translate(59.773438 0)"/>
       <use xlink:href="#DejaVuSans-70" transform="translate(118.953125 0)"/>
       <use xlink:href="#DejaVuSans-5f" transform="translate(182.429688 0)"/>
       <use xlink:href="#DejaVuSans-67" transform="translate(232.429688 0)"/>
       <use xlink:href="#DejaVuSans-6f" transform="translate(295.90625 0)"/>
       <use xlink:href="#DejaVuSans-6c" transform="translate(357.087891 0)"/>
       <use xlink:href="#DejaVuSans-6f" transform="translate(384.871094 0)"/>
       <use xlink:href="#DejaVuSans-6d" transform="translate(446.052734 0)"/>
       <use xlink:href="#DejaVuSans-62" transform="translate(543.464844 0)"/>
       <use xlink:href="#DejaVuSans-5f" transform="translate(606.941406 0)"/>
       <use xlink:href="#DejaVuSans-33" transform="translate(656.941406 0)"/>
      </g>
     </g>
    </g>
    <g id="xtick_10">
     <g id="line2d_10">
      <g>
       <use xlink:href="#m4856f0a934" x="727.292601" y="496.776287" style="stroke: #000000; stroke-width: 0.8"/>
      </g>
     </g>
     <g id="text_10">
      <!-- exp_golomb_4 -->
      <g transform="translate(674.670598 560.103971) rotate(-45) scale(0.1 -0.1)">
       <use xlink:href="#DejaVuSans-65"/>
       <use xlink:href="#DejaVuSans-78" transform="translate(59.773438 0)"/>
       <use xlink:href="#DejaVuSans-70" transform="translate(118.953125 0)"/>
       <use xlink:href="#DejaVuSans-5f" transform="translate(182.429688 0)"/>
       <use xlink:href="#DejaVuSans-67" transform="translate(232.429688 0)"/>
       <use xlink:href="#DejaVuSans-6f" transform="translate(295.90625 0)"/>
       <use xlink:href="#DejaVuSans-6c" transform="translate(357.087891 0)"/>
       <use xlink:href="#DejaVuSans-6f" transform="translate(384.871094 0)"/>
       <use xlink:href="#DejaVuSans-6d" transform="translate(446.052734 0)"/>
       <use xlink:href="#DejaVuSans-62" transform="translate(543.464844 0)"/>
       <use xlink:href="#DejaVuSans-5f" transform="translate(606.941406 0)"/>
       <use xlink:href="#DejaVuSans-34" transform="translate(656.941406 0)"/>
      </g>
     </g>
    </g>
    <g id="xtick_11">
     <g id="line2d_11">
      <g>
       <use xlink:href="#m4856f0a934" x="797.060391" y="496.776287" style="stroke: #000000; stroke-width: 0.8"/>
      </g>
     </g>
     <g id="text_11">
      <!-- exp_golomb_2 -->
      <g transform="translate(744.438388 560.103971) rotate(-45) scale(0.1 -0.1)">
       <use xlink:href="#DejaVuSans-65"/>
       <use xlink:href="#DejaVuSans-78" transform="translate(59.773438 0)"/>
       <use xlink:href="#DejaVuSans-70" transform="translate(118.953125 0)"/>
       <use xlink:href="#DejaVuSans-5f" transform="translate(182.429688 0)"/>
       <use xlink:href="#DejaVuSans-67" transform="translate(232.429688 0)"/>
       <use xlink:href="#DejaVuSans-6f" transform="translate(295.90625 0)"/>
       <use xlink:href="#DejaVuSans-6c" transform="translate(357.087891 0)"/>
       <use xlink:href="#DejaVuSans-6f" transform="translate(384.871094 0)"/>
       <use xlink:href="#DejaVuSans-6d" transform="translate(446.052734 0)"/>
       <use xlink:href="#DejaVuSans-62" transform="translate(543.464844 0)"/>
       <use xlink:href="#DejaVuSans-5f" transform="translate(606.941406 0)"/>
       <use xlink:href="#DejaVuSans-32" transform="translate(656.941406 0)"/>
      </g>
     </g>
    </g>
    <g id="xtick_12">
     <g id="line2d_12">
      <g>
       <use xlink:href="#m4856f0a934" x="866.828181" y="496.776287" style="stroke: #000000; stroke-width: 0.8"/>
      </g>
     </g>
     <g id="text_12">
      <!-- zeta_3_table -->
      <g transform="translate(820.513792 553.796358) rotate(-45) scale(0.1 -0.1)">
       <defs>
        <path id="DejaVuSans-7a" d="M 353 3500 
L 3084 3500 
L 3084 2975 
L 922 459 
L 3084 459 
L 3084 0 
L 275 0 
L 275 525 
L 2438 3041 
L 353 3041 
L 353 3500 
z
" transform="scale(0.015625)"/>
       </defs>
       <use xlink:href="#DejaVuSans-7a"/>
       <use xlink:href="#DejaVuSans-65" transform="translate(52.490234 0)"/>
       <use xlink:href="#DejaVuSans-74" transform="translate(114.013672 0)"/>
       <use xlink:href="#DejaVuSans-61" transform="translate(153.222656 0)"/>
       <use xlink:href="#DejaVuSans-5f" transform="translate(214.501953 0)"/>
       <use xlink:href="#DejaVuSans-33" transform="translate(264.501953 0)"/>
       <use xlink:href="#DejaVuSans-5f" transform="translate(328.125 0)"/>
       <use xlink:href="#DejaVuSans-74" transform="translate(378.125 0)"/>
       <use xlink:href="#DejaVuSans-61" transform="translate(417.333984 0)"/>
       <use xlink:href="#DejaVuSans-62" transform="translate(478.613281 0)"/>
       <use xlink:href="#DejaVuSans-6c" transform="translate(542.089844 0)"/>
       <use xlink:href="#DejaVuSans-65" transform="translate(569.873047 0)"/>
      </g>
     </g>
    </g>
    <g id="xtick_13">
     <g id="line2d_13">
      <g>
       <use xlink:href="#m4856f0a934" x="936.595971" y="496.776287" style="stroke: #000000; stroke-width: 0.8"/>
      </g>
     </g>
     <g id="text_13">
      <!-- zeta_3 -->
      <g transform="translate(911.726805 532.226286) rotate(-45) scale(0.1 -0.1)">
       <use xlink:href="#DejaVuSans-7a"/>
       <use xlink:href="#DejaVuSans-65" transform="translate(52.490234 0)"/>
       <use xlink:href="#DejaVuSans-74" transform="translate(114.013672 0)"/>
       <use xlink:href="#DejaVuSans-61" transform="translate(153.222656 0)"/>
       <use xlink:href="#DejaVuSans-5f" transform="translate(214.501953 0)"/>
       <use xlink:href="#DejaVuSans-33" transform="translate(264.501953 0)"/>
      </g>
     </g>
    </g>
    <g id="xtick_14">
     <g id="line2d_14">
      <g>
       <use xlink:href="#m4856f0a934" x="1006.363762" y="496.776287" style="stroke: #000000; stroke-width: 0.8"/>
      </g>
     </g>
     <g id="text_14">
      <!-- zeta_2 -->
      <g transform="translate(981.494595 532.226286) rotate(-45) scale(0.1 -0.1)">
       <use xlink:href="#DejaVuSans-7a"/>
       <use xlink:href="#DejaVuSans-65" transform="translate(52.490234 0)"/>
       <use xlink:href="#DejaVuSans-74" transform="translate(114.013672 0)"/>
       <use xlink:href="#DejaVuSans-61" transform="translate(153.222656 0)"/>
       <use xlink:href="#DejaVuSans-5f" transform="translate(214.501953 0)"/>
       <use xlink:href="#DejaVuSans-32" transform="translate(264.501953 0)"/>
      </g>
     </g>
    </g>
   </g>
   <g id="matplotlib.axis_2">
    <g id="ytick_1">
     <g id="line2d_15">
      <path d="M 40.603125 494.250621 
L 1065.143125 494.250621 
" clip-path="url(#pd830ff4606)" style="fill: none; stroke-dasharray: 2.96,1.28; stroke-dashoffset: 0; stroke: #808080; stroke-opacity: 0.2; stroke-width: 0.8"/>
     </g>
     <g id="line2d_16">
      <defs>
       <path id="m0781d89207" d="M 0 0 
L -3.5 0 
" style="stroke: #000000; stroke-width: 0.8"/>
      </defs>
      <g>
       <use xlink:href="#m0781d89207" x="40.603125" y="494.250621" style="stroke: #000000; stroke-width: 0.8"/>
      </g>
     </g>
     <g id="text_15">
      <!-- 8 -->
      <g transform="translate(27.240625 498.04984) scale(0.1 -0.1)">
       <defs>
        <path id="DejaVuSans-38" d="M 2034 2216 
Q 1584 2216 1326 1975 
Q 1069 1734 1069 1313 
Q 1069 891 1326 650 
Q 1584 409 2034 409 
Q 2484 409 2743 651 
Q 3003 894 3003 1313 
Q 3003 1734 2745 1975 
Q 2488 2216 2034 2216 
z
M 1403 2484 
Q 997 2584 770 2862 
Q 544 3141 544 3541 
Q 544 4100 942 4425 
Q 1341 4750 2034 4750 
Q 2731 4750 3128 4425 
Q 3525 4100 3525 3541 
Q 3525 3141 3298 2862 
Q 3072 2584 2669 2484 
Q 3125 2378 3379 2068 
Q 3634 1759 3634 1313 
Q 3634 634 3220 271 
Q 2806 -91 2034 -91 
Q 1263 -91 848 271 
Q 434 634 434 1313 
Q 434 1759 690 2068 
Q 947 2378 1403 2484 
z
M 1172 3481 
Q 1172 3119 1398 2916 
Q 1625 2713 2034 2713 
Q 2441 2713 2670 2916 
Q 2900 3119 2900 3481 
Q 2900 3844 2670 4047 
Q 2441 4250 2034 4250 
Q 1625 4250 1398 4047 
Q 1172 3844 1172 3481 
z
" transform="scale(0.015625)"/>
       </defs>
       <use xlink:href="#DejaVuSans-38"/>
      </g>
     </g>
    </g>
    <g id="ytick_2">
     <g id="line2d_17">
      <path d="M 40.603125 394.323196 
L 1065.143125 394.323196 
" clip-path="url(#pd830ff4606)" style="fill: none; stroke-dasharray: 2.96,1.28; stroke-dashoffset: 0; stroke: #808080; stroke-opacity: 0.2; stroke-width: 0.8"/>
     </g>
     <g id="line2d_18">
      <g>
       <use xlink:href="#m0781d89207" x="40.603125" y="394.323196" style="stroke: #000000; stroke-width: 0.8"/>
      </g>
     </g>
     <g id="text_16">
      <!-- 10 -->
      <g transform="translate(20.878125 398.122415) scale(0.1 -0.1)">
       <defs>
        <path id="DejaVuSans-31" d="M 794 531 
L 1825 531 
L 1825 4091 
L 703 3866 
L 703 4441 
L 1819 4666 
L 2450 4666 
L 2450 531 
L 3481 531 
L 3481 0 
L 794 0 
L 794 531 
z
" transform="scale(0.015625)"/>
        <path id="DejaVuSans-30" d="M 2034 4250 
Q 1547 4250 1301 3770 
Q 1056 3291 1056 2328 
Q 1056 1369 1301 889 
Q 1547 409 2034 409 
Q 2525 409 2770 889 
Q 3016 1369 3016 2328 
Q 3016 3291 2770 3770 
Q 2525 4250 2034 4250 
z
M 2034 4750 
Q 2819 4750 3233 4129 
Q 3647 3509 3647 2328 
Q 3647 1150 3233 529 
Q 2819 -91 2034 -91 
Q 1250 -91 836 529 
Q 422 1150 422 2328 
Q 422 3509 836 4129 
Q 1250 4750 2034 4750 
z
" transform="scale(0.015625)"/>
       </defs>
       <use xlink:href="#DejaVuSans-31"/>
       <use xlink:href="#DejaVuSans-30" transform="translate(63.623047 0)"/>
      </g>
     </g>
    </g>
    <g id="ytick_3">
     <g id="line2d_19">
      <path d="M 40.603125 294.395771 
L 1065.143125 294.395771 
" clip-path="url(#pd830ff4606)" style="fill: none; stroke-dasharray: 2.96,1.28; stroke-dashoffset: 0; stroke: #808080; stroke-opacity: 0.2; stroke-width: 0.8"/>
     </g>
     <g id="line2d_20">
      <g>
       <use xlink:href="#m0781d89207" x="40.603125" y="294.395771" style="stroke: #000000; stroke-width: 0.8"/>
      </g>
     </g>
     <g id="text_17">
      <!-- 12 -->
      <g transform="translate(20.878125 298.19499) scale(0.1 -0.1)">
       <use xlink:href="#DejaVuSans-31"/>
       <use xlink:href="#DejaVuSans-32" transform="translate(63.623047 0)"/>
      </g>
     </g>
    </g>
    <g id="ytick_4">
     <g id="line2d_21">
      <path d="M 40.603125 194.468346 
L 1065.143125 194.468346 
" clip-path="url(#pd830ff4606)" style="fill: none; stroke-dasharray: 2.96,1.28; stroke-dashoffset: 0; stroke: #808080; stroke-opacity: 0.2; stroke-width: 0.8"/>
     </g>
     <g id="line2d_22">
      <g>
       <use xlink:href="#m0781d89207" x="40.603125" y="194.468346" style="stroke: #000000; stroke-width: 0.8"/>
      </g>
     </g>
     <g id="text_18">
      <!-- 14 -->
      <g transform="translate(20.878125 198.267565) scale(0.1 -0.1)">
       <use xlink:href="#DejaVuSans-31"/>
       <use xlink:href="#DejaVuSans-34" transform="translate(63.623047 0)"/>
      </g>
     </g>
    </g>
    <g id="ytick_5">
     <g id="line2d_23">
      <path d="M 40.603125 94.540921 
L 1065.143125 94.540921 
" clip-path="url(#pd830ff4606)" style="fill: none; stroke-dasharray: 2.96,1.28; stroke-dashoffset: 0; stroke: #808080; stroke-opacity: 0.2; stroke-width: 0.8"/>
     </g>
     <g id="line2d_24">
      <g>
       <use xlink:href="#m0781d89207" x="40.603125" y="94.540921" style="stroke: #000000; stroke-width: 0.8"/>
      </g>
     </g>
     <g id="text_19">
      <!-- 16 -->
      <g transform="translate(20.878125 98.34014) scale(0.1 -0.1)">
       <defs>
        <path id="DejaVuSans-36" d="M 2113 2584 
Q 1688 2584 1439 2293 
Q 1191 2003 1191 1497 
Q 1191 994 1439 701 
Q 1688 409 2113 409 
Q 2538 409 2786 701 
Q 3034 994 3034 1497 
Q 3034 2003 2786 2293 
Q 2538 2584 2113 2584 
z
M 3366 4563 
L 3366 3988 
Q 3128 4100 2886 4159 
Q 2644 4219 2406 4219 
Q 1781 4219 1451 3797 
Q 1122 3375 1075 2522 
Q 1259 2794 1537 2939 
Q 1816 3084 2150 3084 
Q 2853 3084 3261 2657 
Q 3669 2231 3669 1497 
Q 3669 778 3244 343 
Q 2819 -91 2113 -91 
Q 1303 -91 875 529 
Q 447 1150 447 2328 
Q 447 3434 972 4092 
Q 1497 4750 2381 4750 
Q 2619 4750 2861 4703 
Q 3103 4656 3366 4563 
z
" transform="scale(0.015625)"/>
       </defs>
       <use xlink:href="#DejaVuSans-31"/>
       <use xlink:href="#DejaVuSans-36" transform="translate(63.623047 0)"/>
      </g>
     </g>
    </g>
    <g id="text_20">
     <!-- Time (ns) -->
     <g transform="translate(14.798438 283.044862) rotate(-90) scale(0.1 -0.1)">
      <defs>
       <path id="DejaVuSans-54" d="M -19 4666 
L 3928 4666 
L 3928 4134 
L 2272 4134 
L 2272 0 
L 1638 0 
L 1638 4134 
L -19 4134 
L -19 4666 
z
" transform="scale(0.015625)"/>
       <path id="DejaVuSans-20" transform="scale(0.015625)"/>
       <path id="DejaVuSans-28" d="M 1984 4856 
Q 1566 4138 1362 3434 
Q 1159 2731 1159 2009 
Q 1159 1288 1364 580 
Q 1569 -128 1984 -844 
L 1484 -844 
Q 1016 -109 783 600 
Q 550 1309 550 2009 
Q 550 2706 781 3412 
Q 1013 4119 1484 4856 
L 1984 4856 
z
" transform="scale(0.015625)"/>
       <path id="DejaVuSans-6e" d="M 3513 2113 
L 3513 0 
L 2938 0 
L 2938 2094 
Q 2938 2591 2744 2837 
Q 2550 3084 2163 3084 
Q 1697 3084 1428 2787 
Q 1159 2491 1159 1978 
L 1159 0 
L 581 0 
L 581 3500 
L 1159 3500 
L 1159 2956 
Q 1366 3272 1645 3428 
Q 1925 3584 2291 3584 
Q 2894 3584 3203 3211 
Q 3513 2838 3513 2113 
z
" transform="scale(0.015625)"/>
       <path id="DejaVuSans-73" d="M 2834 3397 
L 2834 2853 
Q 2591 2978 2328 3040 
Q 2066 3103 1784 3103 
Q 1356 3103 1142 2972 
Q 928 2841 928 2578 
Q 928 2378 1081 2264 
Q 1234 2150 1697 2047 
L 1894 2003 
Q 2506 1872 2764 1633 
Q 3022 1394 3022 966 
Q 3022 478 2636 193 
Q 2250 -91 1575 -91 
Q 1294 -91 989 -36 
Q 684 19 347 128 
L 347 722 
Q 666 556 975 473 
Q 1284 391 1588 391 
Q 1994 391 2212 530 
Q 2431 669 2431 922 
Q 2431 1156 2273 1281 
Q 2116 1406 1581 1522 
L 1381 1569 
Q 847 1681 609 1914 
Q 372 2147 372 2553 
Q 372 3047 722 3315 
Q 1072 3584 1716 3584 
Q 2034 3584 2315 3537 
Q 2597 3491 2834 3397 
z
" transform="scale(0.015625)"/>
       <path id="DejaVuSans-29" d="M 513 4856 
L 1013 4856 
Q 1481 4119 1714 3412 
Q 1947 2706 1947 2009 
Q 1947 1309 1714 600 
Q 1481 -109 1013 -844 
L 513 -844 
Q 928 -128 1133 580 
Q 1338 1288 1338 2009 
Q 1338 2731 1133 3434 
Q 928 4138 513 4856 
z
" transform="scale(0.015625)"/>
      </defs>
      <use xlink:href="#DejaVuSans-54"/>
      <use xlink:href="#DejaVuSans-69" transform="translate(57.958984 0)"/>
      <use xlink:href="#DejaVuSans-6d" transform="translate(85.742188 0)"/>
      <use xlink:href="#DejaVuSans-65" transform="translate(183.154297 0)"/>
      <use xlink:href="#DejaVuSans-20" transform="translate(244.677734 0)"/>
      <use xlink:href="#DejaVuSans-28" transform="translate(276.464844 0)"/>
      <use xlink:href="#DejaVuSans-6e" transform="translate(315.478516 0)"/>
      <use xlink:href="#DejaVuSans-73" transform="translate(378.857422 0)"/>
      <use xlink:href="#DejaVuSans-29" transform="translate(430.957031 0)"/>
     </g>
    </g>
   </g>
   <g id="LineCollection_1">
    <path d="M 87.173125 478.811834 
L 87.173125 475.314374 
" clip-path="url(#pd830ff4606)" style="fill: none; stroke: #1f77b4; stroke-width: 1.5"/>
    <path d="M 156.940915 470.617785 
L 156.940915 469.768402 
" clip-path="url(#pd830ff4606)" style="fill: none; stroke: #1f77b4; stroke-width: 1.5"/>
    <path d="M 226.708706 468.069636 
L 226.708706 466.720616 
" clip-path="url(#pd830ff4606)" style="fill: none; stroke: #1f77b4; stroke-width: 1.5"/>
    <path d="M 296.476496 447.834332 
L 296.476496 447.13484 
" clip-path="url(#pd830ff4606)" style="fill: none; stroke: #1f77b4; stroke-width: 1.5"/>
    <path d="M 366.244286 443.987127 
L 366.244286 443.08778 
" clip-path="url(#pd830ff4606)" style="fill: none; stroke: #1f77b4; stroke-width: 1.5"/>
    <path d="M 436.012076 415.158064 
L 436.012076 413.709117 
" clip-path="url(#pd830ff4606)" style="fill: none; stroke: #1f77b4; stroke-width: 1.5"/>
    <path d="M 505.779867 390.925664 
L 505.779867 389.726535 
" clip-path="url(#pd830ff4606)" style="fill: none; stroke: #1f77b4; stroke-width: 1.5"/>
    <path d="M 575.547657 376.136405 
L 575.547657 366.593336 
" clip-path="url(#pd830ff4606)" style="fill: none; stroke: #1f77b4; stroke-width: 1.5"/>
    <path d="M 645.315447 367.892392 
L 645.315447 365.793916 
" clip-path="url(#pd830ff4606)" style="fill: none; stroke: #1f77b4; stroke-width: 1.5"/>
    <path d="M 715.083237 367.242864 
L 715.083237 364.344969 
" clip-path="url(#pd830ff4606)" style="fill: none; stroke: #1f77b4; stroke-width: 1.5"/>
    <path d="M 784.851028 358.798997 
L 784.851028 355.901101 
" clip-path="url(#pd830ff4606)" style="fill: none; stroke: #1f77b4; stroke-width: 1.5"/>
    <path d="M 854.618818 323.274797 
L 854.618818 322.325487 
" clip-path="url(#pd830ff4606)" style="fill: none; stroke: #1f77b4; stroke-width: 1.5"/>
    <path d="M 924.386608 238.186595 
L 924.386608 236.587756 
" clip-path="url(#pd830ff4606)" style="fill: none; stroke: #1f77b4; stroke-width: 1.5"/>
    <path d="M 994.154398 142.70594 
L 994.154398 141.856557 
" clip-path="url(#pd830ff4606)" style="fill: none; stroke: #1f77b4; stroke-width: 1.5"/>
   </g>
   <g id="line2d_25">
    <defs>
     <path id="mea6e8814c6" d="M 5 0 
L -5 -0 
" style="stroke: #1f77b4"/>
    </defs>
    <g clip-path="url(#pd830ff4606)">
     <use xlink:href="#mea6e8814c6" x="87.173125" y="478.811834" style="fill: #1f77b4; stroke: #1f77b4"/>
     <use xlink:href="#mea6e8814c6" x="156.940915" y="470.617785" style="fill: #1f77b4; stroke: #1f77b4"/>
     <use xlink:href="#mea6e8814c6" x="226.708706" y="468.069636" style="fill: #1f77b4; stroke: #1f77b4"/>
     <use xlink:href="#mea6e8814c6" x="296.476496" y="447.834332" style="fill: #1f77b4; stroke: #1f77b4"/>
     <use xlink:href="#mea6e8814c6" x="366.244286" y="443.987127" style="fill: #1f77b4; stroke: #1f77b4"/>
     <use xlink:href="#mea6e8814c6" x="436.012076" y="415.158064" style="fill: #1f77b4; stroke: #1f77b4"/>
     <use xlink:href="#mea6e8814c6" x="505.779867" y="390.925664" style="fill: #1f77b4; stroke: #1f77b4"/>
     <use xlink:href="#mea6e8814c6" x="575.547657" y="376.136405" style="fill: #1f77b4; stroke: #1f77b4"/>
     <use xlink:href="#mea6e8814c6" x="645.315447" y="367.892392" style="fill: #1f77b4; stroke: #1f77b4"/>
     <use xlink:href="#mea6e8814c6" x="715.083237" y="367.242864" style="fill: #1f77b4; stroke: #1f77b4"/>
     <use xlink:href="#mea6e8814c6" x="784.851028" y="358.798997" style="fill: #1f77b4; stroke: #1f77b4"/>
     <use xlink:href="#mea6e8814c6" x="854.618818" y="323.274797" style="fill: #1f77b4; stroke: #1f77b4"/>
     <use xlink:href="#mea6e8814c6" x="924.386608" y="238.186595" style="fill: #1f77b4; stroke: #1f77b4"/>
     <use xlink:href="#mea6e8814c6" x="994.154398" y="142.70594" style="fill: #1f77b4; stroke: #1f77b4"/>
    </g>
   </g>
   <g id="line2d_26">
    <g clip-path="url(#pd830ff4606)">
     <use xlink:href="#mea6e8814c6" x="87.173125" y="475.314374" style="fill: #1f77b4; stroke: #1f77b4"/>
     <use xlink:href="#mea6e8814c6" x="156.940915" y="469.768402" style="fill: #1f77b4; stroke: #1f77b4"/>
     <use xlink:href="#mea6e8814c6" x="226.708706" y="466.720616" style="fill: #1f77b4; stroke: #1f77b4"/>
     <use xlink:href="#mea6e8814c6" x="296.476496" y="447.13484" style="fill: #1f77b4; stroke: #1f77b4"/>
     <use xlink:href="#mea6e8814c6" x="366.244286" y="443.08778" style="fill: #1f77b4; stroke: #1f77b4"/>
     <use xlink:href="#mea6e8814c6" x="436.012076" y="413.709117" style="fill: #1f77b4; stroke: #1f77b4"/>
     <use xlink:href="#mea6e8814c6" x="505.779867" y="389.726535" style="fill: #1f77b4; stroke: #1f77b4"/>
     <use xlink:href="#mea6e8814c6" x="575.547657" y="366.593336" style="fill: #1f77b4; stroke: #1f77b4"/>
     <use xlink:href="#mea6e8814c6" x="645.315447" y="365.793916" style="fill: #1f77b4; stroke: #1f77b4"/>
     <use xlink:href="#mea6e8814c6" x="715.083237" y="364.344969" style="fill: #1f77b4; stroke: #1f77b4"/>
     <use xlink:href="#mea6e8814c6" x="784.851028" y="355.901101" style="fill: #1f77b4; stroke: #1f77b4"/>
     <use xlink:href="#mea6e8814c6" x="854.618818" y="322.325487" style="fill: #1f77b4; stroke: #1f77b4"/>
     <use xlink:href="#mea6e8814c6" x="924.386608" y="236.587756" style="fill: #1f77b4; stroke: #1f77b4"/>
     <use xlink:href="#mea6e8814c6" x="994.154398" y="141.856557" style="fill: #1f77b4; stroke: #1f77b4"/>
    </g>
   </g>
   <g id="LineCollection_2">
    <path d="M 111.591852 459.575805 
L 111.591852 455.578708 
" clip-path="url(#pd830ff4606)" style="fill: none; stroke: #ff7f0e; stroke-width: 1.5"/>
    <path d="M 181.359642 451.531647 
L 181.359642 450.382482 
" clip-path="url(#pd830ff4606)" style="fill: none; stroke: #ff7f0e; stroke-width: 1.5"/>
    <path d="M 251.127432 447.53455 
L 251.127432 446.135566 
" clip-path="url(#pd830ff4606)" style="fill: none; stroke: #ff7f0e; stroke-width: 1.5"/>
    <path d="M 320.895222 424.151533 
L 320.895222 423.402077 
" clip-path="url(#pd830ff4606)" style="fill: none; stroke: #ff7f0e; stroke-width: 1.5"/>
    <path d="M 390.663013 416.507085 
L 390.663013 415.707665 
" clip-path="url(#pd830ff4606)" style="fill: none; stroke: #ff7f0e; stroke-width: 1.5"/>
    <path d="M 460.430803 419.754726 
L 460.430803 419.255089 
" clip-path="url(#pd830ff4606)" style="fill: none; stroke: #ff7f0e; stroke-width: 1.5"/>
    <path d="M 530.198593 377.035752 
L 530.198593 362.146565 
" clip-path="url(#pd830ff4606)" style="fill: none; stroke: #ff7f0e; stroke-width: 1.5"/>
    <path d="M 599.966383 384.180563 
L 599.966383 382.281942 
" clip-path="url(#pd830ff4606)" style="fill: none; stroke: #ff7f0e; stroke-width: 1.5"/>
    <path d="M 669.734174 356.050993 
L 669.734174 352.453605 
" clip-path="url(#pd830ff4606)" style="fill: none; stroke: #ff7f0e; stroke-width: 1.5"/>
    <path d="M 739.501964 354.602045 
L 739.501964 352.853315 
" clip-path="url(#pd830ff4606)" style="fill: none; stroke: #ff7f0e; stroke-width: 1.5"/>
    <path d="M 809.269754 349.006109 
L 809.269754 347.107488 
" clip-path="url(#pd830ff4606)" style="fill: none; stroke: #ff7f0e; stroke-width: 1.5"/>
    <path d="M 879.037544 305.637607 
L 879.037544 304.488441 
" clip-path="url(#pd830ff4606)" style="fill: none; stroke: #ff7f0e; stroke-width: 1.5"/>
    <path d="M 948.805335 215.203287 
L 948.805335 214.453831 
" clip-path="url(#pd830ff4606)" style="fill: none; stroke: #ff7f0e; stroke-width: 1.5"/>
    <path d="M 1018.573125 120.921761 
L 1018.573125 119.522778 
" clip-path="url(#pd830ff4606)" style="fill: none; stroke: #ff7f0e; stroke-width: 1.5"/>
   </g>
   <g id="line2d_27">
    <defs>
     <path id="mbb30215302" d="M 5 0 
L -5 -0 
" style="stroke: #ff7f0e"/>
    </defs>
    <g clip-path="url(#pd830ff4606)">
     <use xlink:href="#mbb30215302" x="111.591852" y="459.575805" style="fill: #ff7f0e; stroke: #ff7f0e"/>
     <use xlink:href="#mbb30215302" x="181.359642" y="451.531647" style="fill: #ff7f0e; stroke: #ff7f0e"/>
     <use xlink:href="#mbb30215302" x="251.127432" y="447.53455" style="fill: #ff7f0e; stroke: #ff7f0e"/>
     <use xlink:href="#mbb30215302" x="320.895222" y="424.151533" style="fill: #ff7f0e; stroke: #ff7f0e"/>
     <use xlink:href="#mbb30215302" x="390.663013" y="416.507085" style="fill: #ff7f0e; stroke: #ff7f0e"/>
     <use xlink:href="#mbb30215302" x="460.430803" y="419.754726" style="fill: #ff7f0e; stroke: #ff7f0e"/>
     <use xlink:href="#mbb30215302" x="530.198593" y="377.035752" style="fill: #ff7f0e; stroke: #ff7f0e"/>
     <use xlink:href="#mbb30215302" x="599.966383" y="384.180563" style="fill: #ff7f0e; stroke: #ff7f0e"/>
     <use xlink:href="#mbb30215302" x="669.734174" y="356.050993" style="fill: #ff7f0e; stroke: #ff7f0e"/>
     <use xlink:href="#mbb30215302" x="739.501964" y="354.602045" style="fill: #ff7f0e; stroke: #ff7f0e"/>
     <use xlink:href="#mbb30215302" x="809.269754" y="349.006109" style="fill: #ff7f0e; stroke: #ff7f0e"/>
     <use xlink:href="#mbb30215302" x="879.037544" y="305.637607" style="fill: #ff7f0e; stroke: #ff7f0e"/>
     <use xlink:href="#mbb30215302" x="948.805335" y="215.203287" style="fill: #ff7f0e; stroke: #ff7f0e"/>
     <use xlink:href="#mbb30215302" x="1018.573125" y="120.921761" style="fill: #ff7f0e; stroke: #ff7f0e"/>
    </g>
   </g>
   <g id="line2d_28">
    <g clip-path="url(#pd830ff4606)">
     <use xlink:href="#mbb30215302" x="111.591852" y="455.578708" style="fill: #ff7f0e; stroke: #ff7f0e"/>
     <use xlink:href="#mbb30215302" x="181.359642" y="450.382482" style="fill: #ff7f0e; stroke: #ff7f0e"/>
     <use xlink:href="#mbb30215302" x="251.127432" y="446.135566" style="fill: #ff7f0e; stroke: #ff7f0e"/>
     <use xlink:href="#mbb30215302" x="320.895222" y="423.402077" style="fill: #ff7f0e; stroke: #ff7f0e"/>
     <use xlink:href="#mbb30215302" x="390.663013" y="415.707665" style="fill: #ff7f0e; stroke: #ff7f0e"/>
     <use xlink:href="#mbb30215302" x="460.430803" y="419.255089" style="fill: #ff7f0e; stroke: #ff7f0e"/>
     <use xlink:href="#mbb30215302" x="530.198593" y="362.146565" style="fill: #ff7f0e; stroke: #ff7f0e"/>
     <use xlink:href="#mbb30215302" x="599.966383" y="382.281942" style="fill: #ff7f0e; stroke: #ff7f0e"/>
     <use xlink:href="#mbb30215302" x="669.734174" y="352.453605" style="fill: #ff7f0e; stroke: #ff7f0e"/>
     <use xlink:href="#mbb30215302" x="739.501964" y="352.853315" style="fill: #ff7f0e; stroke: #ff7f0e"/>
     <use xlink:href="#mbb30215302" x="809.269754" y="347.107488" style="fill: #ff7f0e; stroke: #ff7f0e"/>
     <use xlink:href="#mbb30215302" x="879.037544" y="304.488441" style="fill: #ff7f0e; stroke: #ff7f0e"/>
     <use xlink:href="#mbb30215302" x="948.805335" y="214.453831" style="fill: #ff7f0e; stroke: #ff7f0e"/>
     <use xlink:href="#mbb30215302" x="1018.573125" y="119.522778" style="fill: #ff7f0e; stroke: #ff7f0e"/>
    </g>
   </g>
   <g id="line2d_29">
    <defs>
     <path id="m095d061031" d="M 0 2 
C 0.530406 2 1.03916 1.789267 1.414214 1.414214 
C 1.789267 1.03916 2 0.530406 2 0 
C 2 -0.530406 1.789267 -1.03916 1.414214 -1.414214 
C 1.03916 -1.789267 0.530406 -2 0 -2 
C -0.530406 -2 -1.03916 -1.789267 -1.414214 -1.414214 
C -1.789267 -1.03916 -2 -0.530406 -2 0 
C -2 0.530406 -1.789267 1.03916 -1.414214 1.414214 
C -1.03916 1.789267 -0.530406 2 0 2 
z
" style="stroke: #1f77b4"/>
    </defs>
    <g clip-path="url(#pd830ff4606)">
     <use xlink:href="#m095d061031" x="87.173125" y="476.46354" style="fill: #1f77b4; stroke: #1f77b4"/>
     <use xlink:href="#m095d061031" x="156.940915" y="470.018221" style="fill: #1f77b4; stroke: #1f77b4"/>
     <use xlink:href="#m095d061031" x="226.708706" y="467.32018" style="fill: #1f77b4; stroke: #1f77b4"/>
     <use xlink:href="#m095d061031" x="296.476496" y="447.384659" style="fill: #1f77b4; stroke: #1f77b4"/>
     <use xlink:href="#m095d061031" x="366.244286" y="443.537453" style="fill: #1f77b4; stroke: #1f77b4"/>
     <use xlink:href="#m095d061031" x="436.012076" y="414.708391" style="fill: #1f77b4; stroke: #1f77b4"/>
     <use xlink:href="#m095d061031" x="505.779867" y="390.276136" style="fill: #1f77b4; stroke: #1f77b4"/>
     <use xlink:href="#m095d061031" x="575.547657" y="368.741776" style="fill: #1f77b4; stroke: #1f77b4"/>
     <use xlink:href="#m095d061031" x="645.315447" y="367.092973" style="fill: #1f77b4; stroke: #1f77b4"/>
     <use xlink:href="#m095d061031" x="715.083237" y="366.343517" style="fill: #1f77b4; stroke: #1f77b4"/>
     <use xlink:href="#m095d061031" x="784.851028" y="356.950339" style="fill: #1f77b4; stroke: #1f77b4"/>
     <use xlink:href="#m095d061031" x="854.618818" y="322.725196" style="fill: #1f77b4; stroke: #1f77b4"/>
     <use xlink:href="#m095d061031" x="924.386608" y="237.537066" style="fill: #1f77b4; stroke: #1f77b4"/>
     <use xlink:href="#m095d061031" x="994.154398" y="142.206303" style="fill: #1f77b4; stroke: #1f77b4"/>
    </g>
   </g>
   <g id="line2d_30">
    <defs>
     <path id="m5f2cb72093" d="M 0 2 
C 0.530406 2 1.03916 1.789267 1.414214 1.414214 
C 1.789267 1.03916 2 0.530406 2 0 
C 2 -0.530406 1.789267 -1.03916 1.414214 -1.414214 
C 1.03916 -1.789267 0.530406 -2 0 -2 
C -0.530406 -2 -1.03916 -1.789267 -1.414214 -1.414214 
C -1.789267 -1.03916 -2 -0.530406 -2 0 
C -2 0.530406 -1.789267 1.03916 -1.414214 1.414214 
C -1.03916 1.789267 -0.530406 2 0 2 
z
" style="stroke: #ff7f0e"/>
    </defs>
    <g clip-path="url(#pd830ff4606)">
     <use xlink:href="#m5f2cb72093" x="111.591852" y="456.627946" style="fill: #ff7f0e; stroke: #ff7f0e"/>
     <use xlink:href="#m5f2cb72093" x="181.359642" y="450.782191" style="fill: #ff7f0e; stroke: #ff7f0e"/>
     <use xlink:href="#m5f2cb72093" x="251.127432" y="446.984949" style="fill: #ff7f0e; stroke: #ff7f0e"/>
     <use xlink:href="#m5f2cb72093" x="320.895222" y="423.801787" style="fill: #ff7f0e; stroke: #ff7f0e"/>
     <use xlink:href="#m5f2cb72093" x="390.663013" y="416.057411" style="fill: #ff7f0e; stroke: #ff7f0e"/>
     <use xlink:href="#m5f2cb72093" x="460.430803" y="419.454944" style="fill: #ff7f0e; stroke: #ff7f0e"/>
     <use xlink:href="#m5f2cb72093" x="530.198593" y="366.143662" style="fill: #ff7f0e; stroke: #ff7f0e"/>
     <use xlink:href="#m5f2cb72093" x="599.966383" y="383.031397" style="fill: #ff7f0e; stroke: #ff7f0e"/>
     <use xlink:href="#m5f2cb72093" x="669.734174" y="354.901827" style="fill: #ff7f0e; stroke: #ff7f0e"/>
     <use xlink:href="#m5f2cb72093" x="739.501964" y="353.702698" style="fill: #ff7f0e; stroke: #ff7f0e"/>
     <use xlink:href="#m5f2cb72093" x="809.269754" y="348.20669" style="fill: #ff7f0e; stroke: #ff7f0e"/>
     <use xlink:href="#m5f2cb72093" x="879.037544" y="305.187933" style="fill: #ff7f0e; stroke: #ff7f0e"/>
     <use xlink:href="#m5f2cb72093" x="948.805335" y="214.803577" style="fill: #ff7f0e; stroke: #ff7f0e"/>
     <use xlink:href="#m5f2cb72093" x="1018.573125" y="119.872523" style="fill: #ff7f0e; stroke: #ff7f0e"/>
    </g>
   </g>
   <g id="patch_3">
    <path d="M 40.603125 496.776287 
L 40.603125 22.318125 
" style="fill: none; stroke: #000000; stroke-width: 0.8; stroke-linejoin: miter; stroke-linecap: square"/>
   </g>
   <g id="patch_4">
    <path d="M 1065.143125 496.776287 
L 1065.143125 22.318125 
" style="fill: none; stroke: #000000; stroke-width: 0.8; stroke-linejoin: miter; stroke-linecap: square"/>
   </g>
   <g id="patch_5">
    <path d="M 40.603125 496.776287 
L 1065.143125 496.776287 
" style="fill: none; stroke: #000000; stroke-width: 0.8; stroke-linejoin: miter; stroke-linecap: square"/>
   </g>
   <g id="patch_6">
    <path d="M 40.603125 22.318125 
L 1065.143125 22.318125 
" style="fill: none; stroke: #000000; stroke-width: 0.8; stroke-linejoin: miter; stroke-linecap: square"/>
   </g>
   <g id="text_21">
    <!-- 8.356 -->
    <g transform="translate(89.9325 469.718438) rotate(-90) scale(0.1 -0.1)">
     <defs>
      <path id="DejaVuSans-2e" d="M 684 794 
L 1344 794 
L 1344 0 
L 684 0 
L 684 794 
z
" transform="scale(0.015625)"/>
      <path id="DejaVuSans-35" d="M 691 4666 
L 3169 4666 
L 3169 4134 
L 1269 4134 
L 1269 2991 
Q 1406 3038 1543 3061 
Q 1681 3084 1819 3084 
Q 2600 3084 3056 2656 
Q 3513 2228 3513 1497 
Q 3513 744 3044 326 
Q 2575 -91 1722 -91 
Q 1428 -91 1123 -41 
Q 819 9 494 109 
L 494 744 
Q 775 591 1075 516 
Q 1375 441 1709 441 
Q 2250 441 2565 725 
Q 2881 1009 2881 1497 
Q 2881 1984 2565 2268 
Q 2250 2553 1709 2553 
Q 1456 2553 1204 2497 
Q 953 2441 691 2322 
L 691 4666 
z
" transform="scale(0.015625)"/>
     </defs>
     <use xlink:href="#DejaVuSans-38"/>
     <use xlink:href="#DejaVuSans-2e" transform="translate(63.623047 0)"/>
     <use xlink:href="#DejaVuSans-33" transform="translate(95.410156 0)"/>
     <use xlink:href="#DejaVuSans-35" transform="translate(159.033203 0)"/>
     <use xlink:href="#DejaVuSans-36" transform="translate(222.65625 0)"/>
    </g>
   </g>
   <g id="text_22">
    <!-- 8.753 -->
    <g transform="translate(114.351227 449.633026) rotate(-90) scale(0.1 -0.1)">
     <defs>
      <path id="DejaVuSans-37" d="M 525 4666 
L 3525 4666 
L 3525 4397 
L 1831 0 
L 1172 0 
L 2766 4134 
L 525 4134 
L 525 4666 
z
" transform="scale(0.015625)"/>
     </defs>
     <use xlink:href="#DejaVuSans-38"/>
     <use xlink:href="#DejaVuSans-2e" transform="translate(63.623047 0)"/>
     <use xlink:href="#DejaVuSans-37" transform="translate(95.410156 0)"/>
     <use xlink:href="#DejaVuSans-35" transform="translate(159.033203 0)"/>
     <use xlink:href="#DejaVuSans-33" transform="translate(222.65625 0)"/>
    </g>
   </g>
   <g id="text_23">
    <!-- 8.485 -->
    <g transform="translate(159.70029 464.597158) rotate(-90) scale(0.1 -0.1)">
     <use xlink:href="#DejaVuSans-38"/>
     <use xlink:href="#DejaVuSans-2e" transform="translate(63.623047 0)"/>
     <use xlink:href="#DejaVuSans-34" transform="translate(95.410156 0)"/>
     <use xlink:href="#DejaVuSans-38" transform="translate(159.033203 0)"/>
     <use xlink:href="#DejaVuSans-35" transform="translate(222.65625 0)"/>
    </g>
   </g>
   <g id="text_24">
    <!-- 8.870 -->
    <g transform="translate(184.119017 445.211238) rotate(-90) scale(0.1 -0.1)">
     <use xlink:href="#DejaVuSans-38"/>
     <use xlink:href="#DejaVuSans-2e" transform="translate(63.623047 0)"/>
     <use xlink:href="#DejaVuSans-38" transform="translate(95.410156 0)"/>
     <use xlink:href="#DejaVuSans-37" transform="translate(159.033203 0)"/>
     <use xlink:href="#DejaVuSans-30" transform="translate(222.65625 0)"/>
    </g>
   </g>
   <g id="text_25">
    <!-- 8.539 -->
    <g transform="translate(229.468081 461.649299) rotate(-90) scale(0.1 -0.1)">
     <defs>
      <path id="DejaVuSans-39" d="M 703 97 
L 703 672 
Q 941 559 1184 500 
Q 1428 441 1663 441 
Q 2288 441 2617 861 
Q 2947 1281 2994 2138 
Q 2813 1869 2534 1725 
Q 2256 1581 1919 1581 
Q 1219 1581 811 2004 
Q 403 2428 403 3163 
Q 403 3881 828 4315 
Q 1253 4750 1959 4750 
Q 2769 4750 3195 4129 
Q 3622 3509 3622 2328 
Q 3622 1225 3098 567 
Q 2575 -91 1691 -91 
Q 1453 -91 1209 -44 
Q 966 3 703 97 
z
M 1959 2075 
Q 2384 2075 2632 2365 
Q 2881 2656 2881 3163 
Q 2881 3666 2632 3958 
Q 2384 4250 1959 4250 
Q 1534 4250 1286 3958 
Q 1038 3666 1038 3163 
Q 1038 2656 1286 2365 
Q 1534 2075 1959 2075 
z
" transform="scale(0.015625)"/>
     </defs>
     <use xlink:href="#DejaVuSans-38"/>
     <use xlink:href="#DejaVuSans-2e" transform="translate(63.623047 0)"/>
     <use xlink:href="#DejaVuSans-35" transform="translate(95.410156 0)"/>
     <use xlink:href="#DejaVuSans-33" transform="translate(159.033203 0)"/>
     <use xlink:href="#DejaVuSans-39" transform="translate(222.65625 0)"/>
    </g>
   </g>
   <g id="text_26">
    <!-- 8.946 -->
    <g transform="translate(253.886807 441.289086) rotate(-90) scale(0.1 -0.1)">
     <use xlink:href="#DejaVuSans-38"/>
     <use xlink:href="#DejaVuSans-2e" transform="translate(63.623047 0)"/>
     <use xlink:href="#DejaVuSans-39" transform="translate(95.410156 0)"/>
     <use xlink:href="#DejaVuSans-34" transform="translate(159.033203 0)"/>
     <use xlink:href="#DejaVuSans-36" transform="translate(222.65625 0)"/>
    </g>
   </g>
   <g id="text_27">
    <!-- 8.938 -->
    <g transform="translate(299.235871 442.038542) rotate(-90) scale(0.1 -0.1)">
     <use xlink:href="#DejaVuSans-38"/>
     <use xlink:href="#DejaVuSans-2e" transform="translate(63.623047 0)"/>
     <use xlink:href="#DejaVuSans-39" transform="translate(95.410156 0)"/>
     <use xlink:href="#DejaVuSans-33" transform="translate(159.033203 0)"/>
     <use xlink:href="#DejaVuSans-38" transform="translate(222.65625 0)"/>
    </g>
   </g>
   <g id="text_28">
    <!-- 9.410 -->
    <g transform="translate(323.654597 418.430688) rotate(-90) scale(0.1 -0.1)">
     <use xlink:href="#DejaVuSans-39"/>
     <use xlink:href="#DejaVuSans-2e" transform="translate(63.623047 0)"/>
     <use xlink:href="#DejaVuSans-34" transform="translate(95.410156 0)"/>
     <use xlink:href="#DejaVuSans-31" transform="translate(159.033203 0)"/>
     <use xlink:href="#DejaVuSans-30" transform="translate(222.65625 0)"/>
    </g>
   </g>
   <g id="text_29">
    <!-- 9.015 -->
    <g transform="translate(369.003661 438.091408) rotate(-90) scale(0.1 -0.1)">
     <use xlink:href="#DejaVuSans-39"/>
     <use xlink:href="#DejaVuSans-2e" transform="translate(63.623047 0)"/>
     <use xlink:href="#DejaVuSans-30" transform="translate(95.410156 0)"/>
     <use xlink:href="#DejaVuSans-31" transform="translate(159.033203 0)"/>
     <use xlink:href="#DejaVuSans-35" transform="translate(222.65625 0)"/>
    </g>
   </g>
   <g id="text_30">
    <!-- 9.565 -->
    <g transform="translate(393.422388 410.66133) rotate(-90) scale(0.1 -0.1)">
     <use xlink:href="#DejaVuSans-39"/>
     <use xlink:href="#DejaVuSans-2e" transform="translate(63.623047 0)"/>
     <use xlink:href="#DejaVuSans-35" transform="translate(95.410156 0)"/>
     <use xlink:href="#DejaVuSans-36" transform="translate(159.033203 0)"/>
     <use xlink:href="#DejaVuSans-35" transform="translate(222.65625 0)"/>
    </g>
   </g>
   <g id="text_31">
    <!-- 9.592 -->
    <g transform="translate(438.771451 408.987546) rotate(-90) scale(0.1 -0.1)">
     <use xlink:href="#DejaVuSans-39"/>
     <use xlink:href="#DejaVuSans-2e" transform="translate(63.623047 0)"/>
     <use xlink:href="#DejaVuSans-35" transform="translate(95.410156 0)"/>
     <use xlink:href="#DejaVuSans-39" transform="translate(159.033203 0)"/>
     <use xlink:href="#DejaVuSans-32" transform="translate(222.65625 0)"/>
    </g>
   </g>
   <g id="text_32">
    <!-- 9.497 -->
    <g transform="translate(463.190178 414.208754) rotate(-90) scale(0.1 -0.1)">
     <use xlink:href="#DejaVuSans-39"/>
     <use xlink:href="#DejaVuSans-2e" transform="translate(63.623047 0)"/>
     <use xlink:href="#DejaVuSans-34" transform="translate(95.410156 0)"/>
     <use xlink:href="#DejaVuSans-39" transform="translate(159.033203 0)"/>
     <use xlink:href="#DejaVuSans-37" transform="translate(222.65625 0)"/>
    </g>
   </g>
   <g id="text_33">
    <!-- 10.081 -->
    <g transform="translate(508.539242 384.6802) rotate(-90) scale(0.1 -0.1)">
     <use xlink:href="#DejaVuSans-31"/>
     <use xlink:href="#DejaVuSans-30" transform="translate(63.623047 0)"/>
     <use xlink:href="#DejaVuSans-2e" transform="translate(127.246094 0)"/>
     <use xlink:href="#DejaVuSans-30" transform="translate(159.033203 0)"/>
     <use xlink:href="#DejaVuSans-38" transform="translate(222.65625 0)"/>
     <use xlink:href="#DejaVuSans-31" transform="translate(286.279297 0)"/>
    </g>
   </g>
   <g id="text_34">
    <!-- 10.564 -->
    <g transform="translate(532.957968 353.702698) rotate(-90) scale(0.1 -0.1)">
     <use xlink:href="#DejaVuSans-31"/>
     <use xlink:href="#DejaVuSans-30" transform="translate(63.623047 0)"/>
     <use xlink:href="#DejaVuSans-2e" transform="translate(127.246094 0)"/>
     <use xlink:href="#DejaVuSans-35" transform="translate(159.033203 0)"/>
     <use xlink:href="#DejaVuSans-36" transform="translate(222.65625 0)"/>
     <use xlink:href="#DejaVuSans-34" transform="translate(286.279297 0)"/>
    </g>
   </g>
   <g id="text_35">
    <!-- 10.512 -->
    <g transform="translate(578.307032 358.97387) rotate(-90) scale(0.1 -0.1)">
     <use xlink:href="#DejaVuSans-31"/>
     <use xlink:href="#DejaVuSans-30" transform="translate(63.623047 0)"/>
     <use xlink:href="#DejaVuSans-2e" transform="translate(127.246094 0)"/>
     <use xlink:href="#DejaVuSans-35" transform="translate(159.033203 0)"/>
     <use xlink:href="#DejaVuSans-31" transform="translate(222.65625 0)"/>
     <use xlink:href="#DejaVuSans-32" transform="translate(286.279297 0)"/>
    </g>
   </g>
   <g id="text_36">
    <!-- 10.226 -->
    <g transform="translate(602.725758 377.085716) rotate(-90) scale(0.1 -0.1)">
     <use xlink:href="#DejaVuSans-31"/>
     <use xlink:href="#DejaVuSans-30" transform="translate(63.623047 0)"/>
     <use xlink:href="#DejaVuSans-2e" transform="translate(127.246094 0)"/>
     <use xlink:href="#DejaVuSans-32" transform="translate(159.033203 0)"/>
     <use xlink:href="#DejaVuSans-32" transform="translate(222.65625 0)"/>
     <use xlink:href="#DejaVuSans-36" transform="translate(286.279297 0)"/>
    </g>
   </g>
   <g id="text_37">
    <!-- 10.545 -->
    <g transform="translate(648.074822 361.047364) rotate(-90) scale(0.1 -0.1)">
     <use xlink:href="#DejaVuSans-31"/>
     <use xlink:href="#DejaVuSans-30" transform="translate(63.623047 0)"/>
     <use xlink:href="#DejaVuSans-2e" transform="translate(127.246094 0)"/>
     <use xlink:href="#DejaVuSans-35" transform="translate(159.033203 0)"/>
     <use xlink:href="#DejaVuSans-34" transform="translate(222.65625 0)"/>
     <use xlink:href="#DejaVuSans-35" transform="translate(286.279297 0)"/>
    </g>
   </g>
   <g id="text_38">
    <!-- 10.789 -->
    <g transform="translate(672.493549 348.106762) rotate(-90) scale(0.1 -0.1)">
     <use xlink:href="#DejaVuSans-31"/>
     <use xlink:href="#DejaVuSans-30" transform="translate(63.623047 0)"/>
     <use xlink:href="#DejaVuSans-2e" transform="translate(127.246094 0)"/>
     <use xlink:href="#DejaVuSans-37" transform="translate(159.033203 0)"/>
     <use xlink:href="#DejaVuSans-38" transform="translate(222.65625 0)"/>
     <use xlink:href="#DejaVuSans-39" transform="translate(286.279297 0)"/>
    </g>
   </g>
   <g id="text_39">
    <!-- 10.560 -->
    <g transform="translate(717.842612 359.898198) rotate(-90) scale(0.1 -0.1)">
     <use xlink:href="#DejaVuSans-31"/>
     <use xlink:href="#DejaVuSans-30" transform="translate(63.623047 0)"/>
     <use xlink:href="#DejaVuSans-2e" transform="translate(127.246094 0)"/>
     <use xlink:href="#DejaVuSans-35" transform="translate(159.033203 0)"/>
     <use xlink:href="#DejaVuSans-36" transform="translate(222.65625 0)"/>
     <use xlink:href="#DejaVuSans-30" transform="translate(286.279297 0)"/>
    </g>
   </g>
   <g id="text_40">
    <!-- 10.813 -->
    <g transform="translate(742.261339 347.831962) rotate(-90) scale(0.1 -0.1)">
     <use xlink:href="#DejaVuSans-31"/>
     <use xlink:href="#DejaVuSans-30" transform="translate(63.623047 0)"/>
     <use xlink:href="#DejaVuSans-2e" transform="translate(127.246094 0)"/>
     <use xlink:href="#DejaVuSans-38" transform="translate(159.033203 0)"/>
     <use xlink:href="#DejaVuSans-31" transform="translate(222.65625 0)"/>
     <use xlink:href="#DejaVuSans-33" transform="translate(286.279297 0)"/>
    </g>
   </g>
   <g id="text_41">
    <!-- 10.748 -->
    <g transform="translate(787.610403 350.50502) rotate(-90) scale(0.1 -0.1)">
     <use xlink:href="#DejaVuSans-31"/>
     <use xlink:href="#DejaVuSans-30" transform="translate(63.623047 0)"/>
     <use xlink:href="#DejaVuSans-2e" transform="translate(127.246094 0)"/>
     <use xlink:href="#DejaVuSans-37" transform="translate(159.033203 0)"/>
     <use xlink:href="#DejaVuSans-34" transform="translate(222.65625 0)"/>
     <use xlink:href="#DejaVuSans-38" transform="translate(286.279297 0)"/>
    </g>
   </g>
   <g id="text_42">
    <!-- 10.923 -->
    <g transform="translate(812.029129 342.261008) rotate(-90) scale(0.1 -0.1)">
     <use xlink:href="#DejaVuSans-31"/>
     <use xlink:href="#DejaVuSans-30" transform="translate(63.623047 0)"/>
     <use xlink:href="#DejaVuSans-2e" transform="translate(127.246094 0)"/>
     <use xlink:href="#DejaVuSans-39" transform="translate(159.033203 0)"/>
     <use xlink:href="#DejaVuSans-32" transform="translate(222.65625 0)"/>
     <use xlink:href="#DejaVuSans-33" transform="translate(286.279297 0)"/>
    </g>
   </g>
   <g id="text_43">
    <!-- 11.433 -->
    <g transform="translate(857.378193 317.25417) rotate(-90) scale(0.1 -0.1)">
     <use xlink:href="#DejaVuSans-31"/>
     <use xlink:href="#DejaVuSans-31" transform="translate(63.623047 0)"/>
     <use xlink:href="#DejaVuSans-2e" transform="translate(127.246094 0)"/>
     <use xlink:href="#DejaVuSans-34" transform="translate(159.033203 0)"/>
     <use xlink:href="#DejaVuSans-33" transform="translate(222.65625 0)"/>
     <use xlink:href="#DejaVuSans-33" transform="translate(286.279297 0)"/>
    </g>
   </g>
   <g id="text_44">
    <!-- 11.784 -->
    <g transform="translate(881.796919 299.616979) rotate(-90) scale(0.1 -0.1)">
     <use xlink:href="#DejaVuSans-31"/>
     <use xlink:href="#DejaVuSans-31" transform="translate(63.623047 0)"/>
     <use xlink:href="#DejaVuSans-2e" transform="translate(127.246094 0)"/>
     <use xlink:href="#DejaVuSans-37" transform="translate(159.033203 0)"/>
     <use xlink:href="#DejaVuSans-38" transform="translate(222.65625 0)"/>
     <use xlink:href="#DejaVuSans-34" transform="translate(286.279297 0)"/>
    </g>
   </g>
   <g id="text_45">
    <!-- 13.138 -->
    <g transform="translate(927.145983 231.741276) rotate(-90) scale(0.1 -0.1)">
     <use xlink:href="#DejaVuSans-31"/>
     <use xlink:href="#DejaVuSans-33" transform="translate(63.623047 0)"/>
     <use xlink:href="#DejaVuSans-2e" transform="translate(127.246094 0)"/>
     <use xlink:href="#DejaVuSans-31" transform="translate(159.033203 0)"/>
     <use xlink:href="#DejaVuSans-33" transform="translate(222.65625 0)"/>
     <use xlink:href="#DejaVuSans-38" transform="translate(286.279297 0)"/>
    </g>
   </g>
   <g id="text_46">
    <!-- 13.593 -->
    <g transform="translate(951.56471 209.432478) rotate(-90) scale(0.1 -0.1)">
     <use xlink:href="#DejaVuSans-31"/>
     <use xlink:href="#DejaVuSans-33" transform="translate(63.623047 0)"/>
     <use xlink:href="#DejaVuSans-2e" transform="translate(127.246094 0)"/>
     <use xlink:href="#DejaVuSans-35" transform="translate(159.033203 0)"/>
     <use xlink:href="#DejaVuSans-39" transform="translate(222.65625 0)"/>
     <use xlink:href="#DejaVuSans-33" transform="translate(286.279297 0)"/>
    </g>
   </g>
   <g id="text_47">
    <!-- 15.046 -->
    <g transform="translate(996.913773 136.78524) rotate(-90) scale(0.1 -0.1)">
     <use xlink:href="#DejaVuSans-31"/>
     <use xlink:href="#DejaVuSans-35" transform="translate(63.623047 0)"/>
     <use xlink:href="#DejaVuSans-2e" transform="translate(127.246094 0)"/>
     <use xlink:href="#DejaVuSans-30" transform="translate(159.033203 0)"/>
     <use xlink:href="#DejaVuSans-34" transform="translate(222.65625 0)"/>
     <use xlink:href="#DejaVuSans-36" transform="translate(286.279297 0)"/>
    </g>
   </g>
   <g id="text_48">
    <!-- 15.493 -->
    <g transform="translate(1021.3325 114.17666) rotate(-90) scale(0.1 -0.1)">
     <use xlink:href="#DejaVuSans-31"/>
     <use xlink:href="#DejaVuSans-35" transform="translate(63.623047 0)"/>
     <use xlink:href="#DejaVuSans-2e" transform="translate(127.246094 0)"/>
     <use xlink:href="#DejaVuSans-34" transform="translate(159.033203 0)"/>
     <use xlink:href="#DejaVuSans-39" transform="translate(222.65625 0)"/>
     <use xlink:href="#DejaVuSans-33" transform="translate(286.279297 0)"/>
    </g>
   </g>
   <g id="text_49">
    <!-- Read (u32 read word) on distribution 1/x (first billion integers) -->
    <g transform="translate(361.211562 16.318125) scale(0.12 -0.12)">
     <defs>
      <path id="DejaVuSans-52" d="M 2841 2188 
Q 3044 2119 3236 1894 
Q 3428 1669 3622 1275 
L 4263 0 
L 3584 0 
L 2988 1197 
Q 2756 1666 2539 1819 
Q 2322 1972 1947 1972 
L 1259 1972 
L 1259 0 
L 628 0 
L 628 4666 
L 2053 4666 
Q 2853 4666 3247 4331 
Q 3641 3997 3641 3322 
Q 3641 2881 3436 2590 
Q 3231 2300 2841 2188 
z
M 1259 4147 
L 1259 2491 
L 2053 2491 
Q 2509 2491 2742 2702 
Q 2975 2913 2975 3322 
Q 2975 3731 2742 3939 
Q 2509 4147 2053 4147 
L 1259 4147 
z
" transform="scale(0.015625)"/>
      <path id="DejaVuSans-75" d="M 544 1381 
L 544 3500 
L 1119 3500 
L 1119 1403 
Q 1119 906 1312 657 
Q 1506 409 1894 409 
Q 2359 409 2629 706 
Q 2900 1003 2900 1516 
L 2900 3500 
L 3475 3500 
L 3475 0 
L 2900 0 
L 2900 538 
Q 2691 219 2414 64 
Q 2138 -91 1772 -91 
Q 1169 -91 856 284 
Q 544 659 544 1381 
z
M 1991 3584 
L 1991 3584 
z
" transform="scale(0.015625)"/>
      <path id="DejaVuSans-72" d="M 2631 2963 
Q 2534 3019 2420 3045 
Q 2306 3072 2169 3072 
Q 1681 3072 1420 2755 
Q 1159 2438 1159 1844 
L 1159 0 
L 581 0 
L 581 3500 
L 1159 3500 
L 1159 2956 
Q 1341 3275 1631 3429 
Q 1922 3584 2338 3584 
Q 2397 3584 2469 3576 
Q 2541 3569 2628 3553 
L 2631 2963 
z
" transform="scale(0.015625)"/>
      <path id="DejaVuSans-77" d="M 269 3500 
L 844 3500 
L 1563 769 
L 2278 3500 
L 2956 3500 
L 3675 769 
L 4391 3500 
L 4966 3500 
L 4050 0 
L 3372 0 
L 2619 2869 
L 1863 0 
L 1184 0 
L 269 3500 
z
" transform="scale(0.015625)"/>
      <path id="DejaVuSans-2248" d="M 4684 1947 
L 4684 1388 
Q 4356 1144 4076 1036 
Q 3797 928 3494 928 
Q 3150 928 2694 1113 
Q 2663 1125 2641 1134 
Q 2622 1141 2575 1159 
Q 2091 1350 1797 1350 
Q 1522 1350 1253 1231 
Q 984 1113 678 850 
L 678 1409 
Q 1006 1653 1286 1761 
Q 1566 1869 1869 1869 
Q 2213 1869 2672 1684 
Q 2706 1669 2722 1663 
Q 2741 1656 2788 1638 
Q 3272 1447 3566 1447 
Q 3834 1447 4098 1564 
Q 4363 1681 4684 1947 
z
M 4684 3163 
L 4684 2606 
Q 4356 2359 4076 2251 
Q 3797 2144 3494 2144 
Q 3150 2144 2694 2328 
Q 2663 2341 2641 2350 
Q 2622 2356 2575 2375 
Q 2091 2566 1797 2566 
Q 1522 2566 1253 2447 
Q 984 2328 678 2069 
L 678 2625 
Q 1006 2869 1286 2976 
Q 1566 3084 1869 3084 
Q 2213 3084 2672 2900 
Q 2703 2888 2719 2881 
Q 2741 2872 2788 2853 
Q 3272 2663 3566 2663 
Q 3834 2663 4098 2780 
Q 4363 2897 4684 3163 
z
" transform="scale(0.015625)"/>
      <path id="DejaVuSans-2f" d="M 1625 4666 
L 2156 4666 
L 531 -594 
L 0 -594 
L 1625 4666 
z
" transform="scale(0.015625)"/>
      <path id="DejaVuSans-66" d="M 2375 4863 
L 2375 4384 
L 1825 4384 
Q 1516 4384 1395 4259 
Q 1275 4134 1275 3809 
L 1275 3500 
L 2222 3500 
L 2222 3053 
L 1275 3053 
L 1275 0 
L 697 0 
L 697 3053 
L 147 3053 
L 147 3500 
L 697 3500 
L 697 3744 
Q 697 4328 969 4595 
Q 1241 4863 1831 4863 
L 2375 4863 
z
" transform="scale(0.015625)"/>
     </defs>
     <use xlink:href="#DejaVuSans-52"/>
     <use xlink:href="#DejaVuSans-65" transform="translate(64.982422 0)"/>
     <use xlink:href="#DejaVuSans-61" transform="translate(126.505859 0)"/>
     <use xlink:href="#DejaVuSans-64" transform="translate(187.785156 0)"/>
     <use xlink:href="#DejaVuSans-20" transform="translate(251.261719 0)"/>
     <use xlink:href="#DejaVuSans-28" transform="translate(283.048828 0)"/>
     <use xlink:href="#DejaVuSans-75" transform="translate(322.0625 0)"/>
     <use xlink:href="#DejaVuSans-33" transform="translate(385.441406 0)"/>
     <use xlink:href="#DejaVuSans-32" transform="translate(449.064453 0)"/>
     <use xlink:href="#DejaVuSans-20" transform="translate(512.6875 0)"/>
     <use xlink:href="#DejaVuSans-72" transform="translate(544.474609 0)"/>
     <use xlink:href="#DejaVuSans-65" transform="translate(583.337891 0)"/>
     <use xlink:href="#DejaVuSans-61" transform="translate(644.861328 0)"/>
     <use xlink:href="#DejaVuSans-64" transform="translate(706.140625 0)"/>
     <use xlink:href="#DejaVuSans-20" transform="translate(769.617188 0)"/>
     <use xlink:href="#DejaVuSans-77" transform="translate(801.404297 0)"/>
     <use xlink:href="#DejaVuSans-6f" transform="translate(883.191406 0)"/>
     <use xlink:href="#DejaVuSans-72" transform="translate(944.373047 0)"/>
     <use xlink:href="#DejaVuSans-64" transform="translate(983.736328 0)"/>
     <use xlink:href="#DejaVuSans-29" transform="translate(1047.212891 0)"/>
     <use xlink:href="#DejaVuSans-20" transform="translate(1086.226562 0)"/>
     <use xlink:href="#DejaVuSans-6f" transform="translate(1118.013672 0)"/>
     <use xlink:href="#DejaVuSans-6e" transform="translate(1179.195312 0)"/>
     <use xlink:href="#DejaVuSans-20" transform="translate(1242.574219 0)"/>
     <use xlink:href="#DejaVuSans-64" transform="translate(1274.361328 0)"/>
     <use xlink:href="#DejaVuSans-69" transform="translate(1337.837891 0)"/>
     <use xlink:href="#DejaVuSans-73" transform="translate(1365.621094 0)"/>
     <use xlink:href="#DejaVuSans-74" transform="translate(1417.720703 0)"/>
     <use xlink:href="#DejaVuSans-72" transform="translate(1456.929688 0)"/>
     <use xlink:href="#DejaVuSans-69" transform="translate(1498.042969 0)"/>
     <use xlink:href="#DejaVuSans-62" transform="translate(1525.826172 0)"/>
     <use xlink:href="#DejaVuSans-75" transform="translate(1589.302734 0)"/>
     <use xlink:href="#DejaVuSans-74" transform="translate(1652.681641 0)"/>
     <use xlink:href="#DejaVuSans-69" transform="translate(1691.890625 0)"/>
     <use xlink:href="#DejaVuSans-6f" transform="translate(1719.673828 0)"/>
     <use xlink:href="#DejaVuSans-6e" transform="translate(1780.855469 0)"/>
     <use xlink:href="#DejaVuSans-20" transform="translate(1844.234375 0)"/>
     <use xlink:href="#DejaVuSans-2248" transform="translate(1876.021484 0)"/>
     <use xlink:href="#DejaVuSans-31" transform="translate(1959.810547 0)"/>
     <use xlink:href="#DejaVuSans-2f" transform="translate(2023.433594 0)"/>
     <use xlink:href="#DejaVuSans-78" transform="translate(2057.125 0)"/>
     <use xlink:href="#DejaVuSans-20" transform="translate(2116.304688 0)"/>
     <use xlink:href="#DejaVuSans-28" transform="translate(2148.091797 0)"/>
     <use xlink:href="#DejaVuSans-66" transform="translate(2187.105469 0)"/>
     <use xlink:href="#DejaVuSans-69" transform="translate(2222.310547 0)"/>
     <use xlink:href="#DejaVuSans-72" transform="translate(2250.09375 0)"/>
     <use xlink:href="#DejaVuSans-73" transform="translate(2291.207031 0)"/>
     <use xlink:href="#DejaVuSans-74" transform="translate(2343.306641 0)"/>
     <use xlink:href="#DejaVuSans-20" transform="translate(2382.515625 0)"/>
     <use xlink:href="#DejaVuSans-62" transform="translate(2414.302734 0)"/>
     <use xlink:href="#DejaVuSans-69" transform="translate(2477.779297 0)"/>
     <use xlink:href="#DejaVuSans-6c" transform="translate(2505.5625 0)"/>
     <use xlink:href="#DejaVuSans-6c" transform="translate(2533.345703 0)"/>
     <use xlink:href="#DejaVuSans-69" transform="translate(2561.128906 0)"/>
     <use xlink:href="#DejaVuSans-6f" transform="translate(2588.912109 0)"/>
     <use xlink:href="#DejaVuSans-6e" transform="translate(2650.09375 0)"/>
     <use xlink:href="#DejaVuSans-20" transform="translate(2713.472656 0)"/>
     <use xlink:href="#DejaVuSans-69" transform="translate(2745.259766 0)"/>
     <use xlink:href="#DejaVuSans-6e" transform="translate(2773.042969 0)"/>
     <use xlink:href="#DejaVuSans-74" transform="translate(2836.421875 0)"/>
     <use xlink:href="#DejaVuSans-65" transform="translate(2875.630859 0)"/>
     <use xlink:href="#DejaVuSans-67" transform="translate(2937.154297 0)"/>
     <use xlink:href="#DejaVuSans-65" transform="translate(3000.630859 0)"/>
     <use xlink:href="#DejaVuSans-72" transform="translate(3062.154297 0)"/>
     <use xlink:href="#DejaVuSans-73" transform="translate(3103.267578 0)"/>
     <use xlink:href="#DejaVuSans-29" transform="translate(3155.367188 0)"/>
    </g>
   </g>
   <g id="legend_1">
    <g id="patch_7">
     <path d="M 963.594688 59.674375 
L 1058.143125 59.674375 
Q 1060.143125 59.674375 1060.143125 57.674375 
L 1060.143125 29.318125 
Q 1060.143125 27.318125 1058.143125 27.318125 
L 963.594688 27.318125 
Q 961.594688 27.318125 961.594688 29.318125 
L 961.594688 57.674375 
Q 961.594688 59.674375 963.594688 59.674375 
z
" style="fill: #ffffff; opacity: 0.8; stroke: #cccccc; stroke-linejoin: miter"/>
    </g>
    <g id="LineCollection_3">
     <path d="M 975.594688 40.416562 
L 975.594688 30.416562 
" style="fill: none; stroke: #1f77b4; stroke-width: 1.5"/>
    </g>
    <g id="line2d_31">
     <g>
      <use xlink:href="#mea6e8814c6" x="975.594688" y="40.416562" style="fill: #1f77b4; stroke: #1f77b4"/>
     </g>
    </g>
    <g id="line2d_32">
     <g>
      <use xlink:href="#mea6e8814c6" x="975.594688" y="30.416562" style="fill: #1f77b4; stroke: #1f77b4"/>
     </g>
    </g>
    <g id="line2d_33"/>
    <g id="line2d_34">
     <g>
      <use xlink:href="#m095d061031" x="975.594688" y="35.416562" style="fill: #1f77b4; stroke: #1f77b4"/>
     </g>
    </g>
    <g id="text_50">
     <!-- Little Endian -->
     <g transform="translate(993.594688 38.916562) scale(0.1 -0.1)">
      <defs>
       <path id="DejaVuSans-4c" d="M 628 4666 
L 1259 4666 
L 1259 531 
L 3531 531 
L 3531 0 
L 628 0 
L 628 4666 
z
" transform="scale(0.015625)"/>
       <path id="DejaVuSans-45" d="M 628 4666 
L 3578 4666 
L 3578 4134 
L 1259 4134 
L 1259 2753 
L 3481 2753 
L 3481 2222 
L 1259 2222 
L 1259 531 
L 3634 531 
L 3634 0 
L 628 0 
L 628 4666 
z
" transform="scale(0.015625)"/>
      </defs>
      <use xlink:href="#DejaVuSans-4c"/>
      <use xlink:href="#DejaVuSans-69" transform="translate(55.712891 0)"/>
      <use xlink:href="#DejaVuSans-74" transform="translate(83.496094 0)"/>
      <use xlink:href="#DejaVuSans-74" transform="translate(122.705078 0)"/>
      <use xlink:href="#DejaVuSans-6c" transform="translate(161.914062 0)"/>
      <use xlink:href="#DejaVuSans-65" transform="translate(189.697266 0)"/>
      <use xlink:href="#DejaVuSans-20" transform="translate(251.220703 0)"/>
      <use xlink:href="#DejaVuSans-45" transform="translate(283.007812 0)"/>
      <use xlink:href="#DejaVuSans-6e" transform="translate(346.191406 0)"/>
      <use xlink:href="#DejaVuSans-64" transform="translate(409.570312 0)"/>
      <use xlink:href="#DejaVuSans-69" transform="translate(473.046875 0)"/>
      <use xlink:href="#DejaVuSans-61" transform="translate(500.830078 0)"/>
      <use xlink:href="#DejaVuSans-6e" transform="translate(562.109375 0)"/>
     </g>
    </g>
    <g id="LineCollection_4">
     <path d="M 975.594688 55.094687 
L 975.594688 45.094687 
" style="fill: none; stroke: #ff7f0e; stroke-width: 1.5"/>
    </g>
    <g id="line2d_35">
     <g>
      <use xlink:href="#mbb30215302" x="975.594688" y="55.094687" style="fill: #ff7f0e; stroke: #ff7f0e"/>
     </g>
    </g>
    <g id="line2d_36">
     <g>
      <use xlink:href="#mbb30215302" x="975.594688" y="45.094687" style="fill: #ff7f0e; stroke: #ff7f0e"/>
     </g>
    </g>
    <g id="line2d_37"/>
    <g id="line2d_38">
     <g>
      <use xlink:href="#m5f2cb72093" x="975.594688" y="50.094687" style="fill: #ff7f0e; stroke: #ff7f0e"/>
     </g>
    </g>
    <g id="text_51">
     <!-- Big Endian -->
     <g transform="translate(993.594688 53.594687) scale(0.1 -0.1)">
      <defs>
       <path id="DejaVuSans-42" d="M 1259 2228 
L 1259 519 
L 2272 519 
Q 2781 519 3026 730 
Q 3272 941 3272 1375 
Q 3272 1813 3026 2020 
Q 2781 2228 2272 2228 
L 1259 2228 
z
M 1259 4147 
L 1259 2741 
L 2194 2741 
Q 2656 2741 2882 2914 
Q 3109 3088 3109 3444 
Q 3109 3797 2882 3972 
Q 2656 4147 2194 4147 
L 1259 4147 
z
M 628 4666 
L 2241 4666 
Q 2963 4666 3353 4366 
Q 3744 4066 3744 3513 
Q 3744 3084 3544 2831 
Q 3344 2578 2956 2516 
Q 3422 2416 3680 2098 
Q 3938 1781 3938 1306 
Q 3938 681 3513 340 
Q 3088 0 2303 0 
L 628 0 
L 628 4666 
z
" transform="scale(0.015625)"/>
      </defs>
      <use xlink:href="#DejaVuSans-42"/>
      <use xlink:href="#DejaVuSans-69" transform="translate(68.603516 0)"/>
      <use xlink:href="#DejaVuSans-67" transform="translate(96.386719 0)"/>
      <use xlink:href="#DejaVuSans-20" transform="translate(159.863281 0)"/>
      <use xlink:href="#DejaVuSans-45" transform="translate(191.650391 0)"/>
      <use xlink:href="#DejaVuSans-6e" transform="translate(254.833984 0)"/>
      <use xlink:href="#DejaVuSans-64" transform="translate(318.212891 0)"/>
      <use xlink:href="#DejaVuSans-69" transform="translate(381.689453 0)"/>
      <use xlink:href="#DejaVuSans-61" transform="translate(409.472656 0)"/>
      <use xlink:href="#DejaVuSans-6e" transform="translate(470.751953 0)"/>
     </g>
    </g>
   </g>
  </g>
 </g>
 <defs>
  <clipPath id="pd830ff4606">
   <rect x="40.603125" y="22.318125" width="1024.54" height="474.458162"/>
  </clipPath>
 </defs>
</svg>
